# Blender 5.1.1
# www.blender.org
o wall_d
v -1.000000 0.000000 -0.000000
v 1.000000 0.000000 -0.000000
v -1.000000 2.800000 0.000000
v 1.000000 2.800000 0.000000
v -0.653169 2.453169 0.000000
v -0.653169 0.346831 -0.000000
v 0.653169 0.346831 -0.000000
v 0.653169 2.453169 0.000000
v -0.653169 2.453169 -0.160718
v -0.653169 0.346831 -0.160718
v 0.653169 0.346831 -0.160718
v 0.653169 2.453169 -0.160718
v -0.735112 0.272376 0.111220
v 0.735112 0.272376 0.111220
v -0.735112 0.272376 -0.201385
v 0.735112 0.272376 -0.201385
v -0.735112 0.474206 0.111220
v 0.735112 0.474206 0.111220
v -0.735112 0.474206 -0.201385
v 0.735112 0.474206 -0.201385
vn -0.0000 -1.0000 -0.0000
vn -0.0000 -0.0000 1.0000
vn -0.0000 1.0000 -0.0000
vn -1.0000 -0.0000 -0.0000
vn 1.0000 -0.0000 -0.0000
vt 0.593299 0.870753
vt 0.124529 0.862277
vt 0.150879 0.835032
vt 0.565794 0.840243
vt 0.125084 0.129247
vt 0.000085 0.984678
vt 0.000085 0.000085
vt 0.593854 0.137723
vt 0.718299 0.015322
vt 0.718299 0.999915
vt 0.152590 0.159756
vt 0.567505 0.164968
vt 0.158838 0.780771
vt 0.039440 0.780771
vt 0.039440 0.219229
vt 0.158837 0.219229
vt 0.235925 0.780771
vt 0.235925 0.219229
vt 0.355322 0.219229
vt 0.355322 0.780771
vt 0.158837 0.099832
vt 0.235925 0.099832
vt 0.158838 0.900168
vt 0.235925 0.900168
s 0
f 8/1/1 5/2/1 9/3/1 12/4/1
f 6/5/2 5/2/2 3/6/2 1/7/2
f 7/8/2 6/5/2 1/7/2 2/9/2
f 8/1/2 7/8/2 2/9/2 4/10/2
f 5/2/2 8/1/2 4/10/2 3/6/2
f 10/11/2 11/12/2 12/4/2 9/3/2
f 6/5/3 7/8/3 11/12/3 10/11/3
f 7/8/4 8/1/4 12/4/4 11/12/4
f 5/2/5 6/5/5 10/11/5 9/3/5
f 13/13/1 15/14/1 16/15/1 14/16/1
f 17/17/3 18/18/3 20/19/3 19/20/3
f 14/16/5 16/21/5 20/22/5 18/18/5
f 13/13/2 14/16/2 18/18/2 17/17/2
f 15/23/4 13/13/4 17/17/4 19/24/4
