# Blender 5.1.1
# www.blender.org
o wall_props_c
v -0.084030 -0.273051 -0.000000
v 1.259074 0.073952 -0.000000
v -0.084030 0.195833 -0.000000
v 1.259074 0.195833 -0.000000
v 0.587522 -0.185078 -0.000000
v 0.587522 0.195833 -0.000000
v -0.084030 -0.273051 -0.040000
v 1.259074 0.073952 -0.040000
v -0.084030 0.195833 -0.040000
v 1.259074 0.195833 -0.040000
v 0.587522 -0.185078 -0.040000
v 0.587522 0.195833 -0.040000
vn -0.0000 -0.0000 1.0000
vt 0.500000 0.000000
vt 1.000000 0.000000
vt 1.000000 1.000000
vt 0.500000 1.000000
vt 0.000000 0.000000
vt 0.000000 1.000000
s 0
f 5/1/1 2/2/1 4/3/1 6/4/1
f 1/5/1 5/1/1 6/4/1 3/6/1
f 11/1/1 8/2/1 10/3/1 12/4/1
f 7/5/1 11/1/1 12/4/1 9/6/1
