# Blender 5.1.1
# www.blender.org
o window_a
v -1.000000 0.000000 -0.000000
v 1.000000 0.000000 -0.000000
v -1.000000 2.800000 0.000000
v 1.000000 2.800000 0.000000
v -1.000000 2.545929 0.000000
v -1.000000 0.254070 -0.000000
v 1.000000 0.254071 -0.000000
v 1.000000 2.545929 0.000000
v -0.440002 2.198826 -0.204305
v -0.440002 0.503882 -0.204305
v 0.440002 0.503882 -0.204305
v 0.440002 2.198825 -0.204305
v -0.537631 2.304091 0.000000
v -0.537631 0.398616 -0.000000
v 0.537631 0.398616 -0.000000
v 0.537631 2.304091 0.000000
v 0.440002 1.618775 -0.140019
v 0.440002 1.654786 -0.157173
v -0.440002 2.198825 -0.016172
v -0.456173 2.219905 0.000000
v 0.440002 2.198825 -0.157173
v -0.456173 0.482803 -0.000000
v -0.440002 0.503882 -0.016172
v 0.440002 0.503882 -0.157173
v 0.440002 0.503882 -0.016172
v 0.459427 0.482938 -0.000000
v -0.440002 0.503882 -0.157173
v 0.459427 2.219769 0.000000
v 0.440002 2.198825 -0.016172
v -0.440002 2.198826 -0.157173
v 0.440002 1.648913 -0.140019
v 0.440002 1.612903 -0.157173
v 0.044161 2.198826 -0.130756
v -0.044161 2.198826 -0.130756
v 0.057410 2.198826 -0.157173
v -0.057410 2.198826 -0.157173
v -0.053528 2.198826 -0.140019
v 0.053528 2.198826 -0.140019
v -0.440002 1.618775 -0.140019
v -0.440002 1.654786 -0.157173
v -0.440002 1.648913 -0.140019
v -0.440002 1.612903 -0.157173
v 0.440002 1.053570 -0.140019
v 0.440002 1.089581 -0.157173
v 0.440002 1.083708 -0.140019
v 0.440002 1.047698 -0.157173
v -0.440002 1.053570 -0.140019
v -0.440002 1.089581 -0.157173
v -0.440002 1.083708 -0.140019
v -0.440002 1.047698 -0.157173
v 0.044161 0.503882 -0.130756
v -0.044161 0.503882 -0.130756
v 0.057410 0.503882 -0.157173
v -0.057410 0.503882 -0.157173
v -0.053528 0.503882 -0.140019
v 0.053528 0.503882 -0.140019
v -0.440002 2.198826 -0.204305
v -0.440002 0.503882 -0.204305
v 0.440002 2.198825 -0.204305
v 0.440002 0.503882 -0.204305
vn -0.0000 -0.0000 1.0000
vn -0.6398 -0.0000 0.7685
vn -0.0000 0.6099 0.7925
vn -0.0000 -0.6099 0.7925
vn -0.0000 -1.0000 -0.0000
vn 1.0000 -0.0000 -0.0000
vn -0.0000 1.0000 -0.0000
vn -1.0000 -0.0000 -0.0000
vn -0.0000 -0.9461 0.3239
vn -0.0000 0.9461 0.3239
vn 0.7071 -0.0000 0.7071
vn -0.9753 -0.0000 0.2207
vn 0.9753 -0.0000 0.2207
vn -0.7032 -0.0000 0.7110
vn 0.7032 -0.0000 0.7110
vt 0.000613 1.134883
vt 0.998196 1.134883
vt 0.998196 1.247681
vt 0.000613 1.247681
vt 0.231238 0.181554
vt 0.231238 1.027516
vt 0.000613 0.117381
vt 0.767570 1.027516
vt 0.767570 0.181555
vt 0.998196 0.117381
vt 0.304355 0.005947
vt 0.665631 0.005947
vt 0.665631 0.999451
vt 0.304355 0.999452
vt 0.998196 0.004583
vt 0.000613 0.004583
vt 0.046125 0.311992
vt 0.057116 0.293422
vt 0.946628 0.293422
vt 0.957620 0.311992
vt 0.070482 0.125179
vt 0.921996 0.125268
vt 0.903930 0.145756
vt 0.085521 0.145728
vt 0.925122 0.450002
vt 0.910083 0.470552
vt 0.091674 0.470579
vt 0.073608 0.450092
vt 0.000000 0.000000
vt 1.000000 0.000000
vt 1.000000 1.000000
vt 0.000000 1.000000
vt 0.000878 0.394078
vt 1.000878 0.394078
vt -0.001842 0.057209
vt 0.998158 0.057210
vt 0.998158 0.270997
vt -0.001842 0.270996
vt -0.000277 0.309106
vt 0.999722 0.309106
vt 0.999722 0.464502
vt -0.000278 0.464502
vt -0.000612 0.278680
vt 0.999388 0.278680
vt 0.999388 0.492467
vt -0.000612 0.492467
vt 1.001872 0.369451
vt 0.001872 0.369451
vt 1.000952 0.699507
vt 0.000953 0.699507
vt 0.000952 0.544111
vt 1.000952 0.544111
vt 0.951851 0.917170
vt 0.040213 0.917170
vt -0.003968 0.841714
vt 0.996032 0.841714
vt -0.005274 0.069254
vt 0.994726 0.069254
vt 0.001078 0.800143
vt 0.001078 0.775680
vt 1.001077 0.775680
vt 1.001077 0.800143
vt 0.001078 0.755613
vt 1.001077 0.755613
vt 0.001078 0.820210
vt 1.001077 0.820210
vt -0.000153 0.229241
vt -0.000153 0.204778
vt 0.999847 0.204778
vt 0.999847 0.229241
vt -0.000153 0.184712
vt 0.999847 0.184712
vt 0.940788 0.938355
vt 0.051276 0.938355
vt -0.000153 0.249308
vt 0.999847 0.249308
vt 0.005703 0.631726
vt 0.005703 0.618917
vt 0.996566 0.618917
vt 0.996566 0.631726
vt 0.005703 0.705649
vt 0.005703 0.641321
vt 0.996566 0.641321
vt 0.996566 0.705649
vt 0.005703 0.728053
vt 0.005703 0.715244
vt 0.996566 0.715244
vt 0.996566 0.728053
s 0
f 5/1/1 8/2/1 4/3/1 3/4/1
f 14/5/1 13/6/1 5/1/1 6/7/1
f 16/8/1 15/9/1 7/10/1 8/2/1
f 15/9/1 14/5/1 6/7/1 7/10/1
f 13/6/1 16/8/1 8/2/1 5/1/1
f 58/11/1 60/12/1 59/13/1 57/14/1
f 2/15/1 7/10/1 6/7/1 1/16/1
f 28/17/2 29/18/2 25/19/2 26/20/2
f 22/21/3 26/22/3 25/23/3 23/24/3
f 20/25/4 19/26/4 29/27/4 28/28/4
f 27/29/1 24/30/1 21/31/1 30/32/1
f 20/25/1 28/28/1 16/33/1 13/34/1
f 29/35/5 19/36/5 9/37/5 12/38/5
f 19/39/6 23/40/6 10/41/6 9/42/6
f 23/43/7 25/44/7 11/45/7 10/46/7
f 15/47/1 16/48/1 28/17/1 26/20/1
f 25/49/8 29/50/8 12/51/8 11/52/8
f 22/53/1 20/54/1 13/55/1 14/56/1
f 26/22/1 22/21/1 14/57/1 15/58/1
f 41/59/1 39/60/1 17/61/1 31/62/1
f 39/60/9 42/63/9 32/64/9 17/61/9
f 40/65/10 41/59/10 31/62/10 18/66/10
f 49/67/1 47/68/1 43/69/1 45/70/1
f 47/68/9 50/71/9 46/72/9 43/69/9
f 22/53/11 23/73/11 19/74/11 20/54/11
f 48/75/10 49/67/10 45/70/10 44/76/10
f 37/77/12 36/78/12 54/79/12 55/80/12
f 33/81/1 34/82/1 52/83/1 51/84/1
f 35/85/13 38/86/13 56/87/13 53/88/13
f 34/82/14 37/77/14 55/80/14 52/83/14
f 38/86/15 33/81/15 51/84/15 56/87/15
