# Blender 5.1.1
# www.blender.org
o window_props_a
v -0.955917 0.494899 0.048844
v -0.955917 2.205400 0.048844
v -0.955917 0.494899 0.011676
v -0.955917 2.205400 0.011676
v -0.462673 0.494899 0.048844
v -0.462673 2.205400 0.048844
v -0.462673 0.494899 0.011676
v -0.462673 2.205400 0.011676
v 0.955917 0.494899 0.048844
v 0.955917 2.205400 0.048844
v 0.955917 0.494899 0.011676
v 0.955917 2.205400 0.011676
v 0.462673 0.494899 0.048844
v 0.462673 2.205400 0.048844
v 0.462673 0.494899 0.011676
v 0.462673 2.205400 0.011676
vn -1.0000 -0.0000 -0.0000
vn 1.0000 -0.0000 -0.0000
vn -0.0000 -0.0000 1.0000
vn -0.0000 -1.0000 -0.0000
vn -0.0000 1.0000 -0.0000
vt 0.074600 0.104814
vt 0.076718 0.966778
vt 0.032198 0.966946
vt 0.030080 0.104982
vt 0.074600 0.104814
vt 0.030080 0.104982
vt 0.518738 0.031902
vt 0.518738 0.970000
vt 0.049027 0.970000
vt 0.049027 0.031902
vt 0.487285 0.101202
vt 0.081888 0.103243
vt 0.081535 0.075360
vt 0.486932 0.073318
vt 0.081888 0.103243
s 0
f 1/1/1 2/2/1 4/3/1 3/4/1
f 7/5/2 8/2/2 6/3/2 5/6/2
f 5/7/3 6/8/3 2/9/3 1/10/3
f 3/11/4 7/12/4 5/13/4 1/14/4
f 8/13/5 4/14/5 2/11/5 6/15/5
f 9/1/2 11/4/2 12/3/2 10/2/2
f 15/5/1 13/6/1 14/3/1 16/2/1
f 13/7/3 9/10/3 10/9/3 14/8/3
f 11/11/4 9/14/4 13/13/4 15/12/4
f 16/13/5 14/15/5 10/11/5 12/14/5
