{"accessors":[{"bufferView":0,"componentType":5126,"count":474,"max":[3.200000047683716,1.4962962865829468,1.0],"min":[-0.09374556690454483,0.0,-1.4365492795320733e-08],"normalized":false,"type":"VEC3"},{"bufferView":1,"componentType":5126,"count":474,"max":[0.9999561309814453,0.78177809715271,8.512638305546716e-05,1.0],"min":[-0.6402245163917542,-0.9805861711502075,-1.0,-1.0],"normalized":false,"type":"VEC4"},{"bufferView":2,"componentType":5126,"count":474,"max":[0.9904600381851196,0.9999217391014099,1.0],"min":[-0.999742329120636,-1.0,-1.0],"normalized":false,"type":"VEC3"},{"bufferView":3,"componentType":5126,"count":474,"max":[4.660681247711182,0.9850794076919556],"min":[0.15857143700122833,0.0],"normalized":false,"type":"VEC2"},{"bufferView":4,"componentType":5123,"count":474,"max":[473],"min":[0],"normalized":false,"type":"SCALAR"},{"bufferView":5,"componentType":5126,"count":474,"max":[3.1999998092651367,1.4962999820709229,1.0],"min":[-0.09369999915361404,0.0,0.0],"normalized":false,"type":"VEC3"},{"bufferView":6,"componentType":5126,"count":88,"max":[0.12041204422712326,0.05805208534002304,0.0001728534698486328],"min":[-0.11164090782403946,-0.0010747332125902176,-1.5247175693511963],"normalized":false,"type":"VEC3"},{"bufferView":7,"componentType":5126,"count":88,"max":[0.01505190134048462,1.0,-1.9441358745098114e-08,1.0],"min":[-0.0010913312435150146,-1.0,-0.9999960064888,1.0],"normalized":false,"type":"VEC4"},{"bufferView":8,"componentType":5126,"count":88,"max":[0.9999997615814209,0.9999940991401672,0.9999988079071045],"min":[-0.9999997615814209,-0.9999940395355225,-0.9998323321342468],"normalized":false,"type":"VEC3"},{"bufferView":9,"componentType":5126,"count":88,"max":[0.8749980926513672,1.0],"min":[0.12498664855957031,0.0],"normalized":false,"type":"VEC2"},{"bufferView":10,"componentType":5121,"count":132,"max":[87],"min":[0],"normalized":false,"type":"SCALAR"},{"bufferView":11,"componentType":5126,"count":942,"max":[4.523571014404297,1.9954020977020264,1.399999976158142],"min":[0.0,0.0,0.0],"normalized":false,"type":"VEC3"},{"bufferView":12,"componentType":5126,"count":942,"max":[0.9993531703948975,0.28500574827194214,0.23082292079925537,1.0],"min":[-1.0,-1.0,-1.0,-1.0],"normalized":false,"type":"VEC4"},{"bufferView":13,"componentType":5126,"count":942,"max":[0.9925540089607239,0.9993637204170227,1.0],"min":[-1.0,-1.0,-1.0],"normalized":false,"type":"VEC3"},{"bufferView":14,"componentType":5126,"count":942,"max":[5.851809978485107,1.0],"min":[0.0,0.0],"normalized":false,"type":"VEC2"},{"bufferView":15,"componentType":5123,"count":942,"max":[941],"min":[0],"normalized":false,"type":"SCALAR"},{"bufferView":16,"componentType":5126,"count":942,"max":[4.523600101470947,1.9953999519348145,1.399999976158142],"min":[0.0,0.0,0.0],"normalized":false,"type":"VEC3"},{"bufferView":17,"componentType":5126,"count":1140,"max":[4.5261125564575195,1.1376539468765259,1.399999976158142],"min":[0.0,-0.1998291015625,0.0],"normalized":false,"type":"VEC3"},{"bufferView":18,"componentType":5126,"count":1140,"max":[0.9994522333145142,0.8262748122215271,0.6293238401412964,1.0],"min":[-1.0,-1.0,-1.0,-1.0],"normalized":false,"type":"VEC4"},{"bufferView":19,"componentType":5126,"count":1140,"max":[0.9925498962402344,0.9999430179595947,1.0],"min":[-1.0,-1.0,-1.0],"normalized":false,"type":"VEC3"},{"bufferView":20,"componentType":5126,"count":1140,"max":[5.362115383148193,1.0],"min":[0.14596819877624512,0.0],"normalized":false,"type":"VEC2"},{"bufferView":21,"componentType":5123,"count":1140,"max":[1139],"min":[0],"normalized":false,"type":"SCALAR"},{"bufferView":22,"componentType":5126,"count":1140,"max":[4.526099681854248,1.1376999616622925,1.399999976158142],"min":[0.0,-0.19979999959468842,0.0],"normalized":false,"type":"VEC3"},{"bufferView":23,"componentType":5126,"count":220,"max":[0.6194376349449158,1.401857614517212,0.6194375157356262],"min":[-0.6194372773170471,0.0,-0.6194375157356262],"normalized":false,"type":"VEC3"},{"bufferView":24,"componentType":5126,"count":220,"max":[1.0,0.9743567109107971,1.0,1.0],"min":[-0.9997135996818542,-0.9743351936340332,-1.0000001192092896,-1.0],"normalized":false,"type":"VEC4"},{"bufferView":25,"componentType":5126,"count":220,"max":[0.9959892630577087,1.0,0.9959890246391296],"min":[-0.9959861040115356,-1.0,-0.9959912896156311],"normalized":false,"type":"VEC3"},{"bufferView":26,"componentType":5126,"count":220,"max":[1.0,0.9899900555610657],"min":[0.0,0.0],"normalized":false,"type":"VEC2"},{"bufferView":27,"componentType":5121,"count":720,"max":[219],"min":[0],"normalized":false,"type":"SCALAR"},{"bufferView":28,"componentType":5126,"count":180,"max":[0.6102684736251831,1.3907839059829712,0.6136825084686279],"min":[-0.6025193333625793,0.011115596629679203,-0.6058794856071472],"normalized":false,"type":"VEC3"},{"bufferView":29,"componentType":5121,"count":180,"max":[179],"min":[0],"normalized":false,"type":"SCALAR"},{"bufferView":30,"componentType":5126,"count":204,"max":[1.5,1.0,0.0],"min":[-1.5,-1.0,0.0],"normalized":false,"type":"VEC3"},{"bufferView":31,"componentType":5126,"count":204,"max":[1.0,0.0,-1.5259021893143654e-05,1.0],"min":[1.0,0.0,-1.5259021893143654e-05,1.0],"normalized":false,"type":"VEC4"},{"bufferView":32,"componentType":5126,"count":204,"max":[-1.5259254723787308e-05,-1.5259254723787308e-05,1.0],"min":[-1.5259254723787308e-05,-1.5259254723787308e-05,1.0],"normalized":false,"type":"VEC3"},{"bufferView":33,"componentType":5126,"count":204,"max":[1.0,1.0],"min":[0.0,0.0],"normalized":false,"type":"VEC2"},{"bufferView":34,"componentType":5121,"count":1056,"max":[203],"min":[0],"normalized":false,"type":"SCALAR"},{"bufferView":35,"componentType":5126,"count":522,"max":[0.05000000074505806,2.5,0.05000000074505806],"min":[-0.05000000074505806,-2.5,-0.05000000074505806],"normalized":false,"type":"VEC3"},{"bufferView":36,"componentType":5126,"count":522,"max":[1.0,0.0,1.0,1.0],"min":[-1.0,-2.157951530534774e-05,-1.0,1.0],"normalized":false,"type":"VEC4"},{"bufferView":37,"componentType":5126,"count":522,"max":[1.0,1.0,1.0],"min":[-1.0,-1.0,-1.0],"normalized":false,"type":"VEC3"},{"bufferView":38,"componentType":5126,"count":522,"max":[1.0,1.0],"min":[0.0,0.0],"normalized":false,"type":"VEC2"},{"bufferView":39,"componentType":5123,"count":2304,"max":[521],"min":[0],"normalized":false,"type":"SCALAR"},{"bufferView":40,"componentType":5126,"count":2220,"max":[4.5718231201171875,1.7540016174316406,1.399999976158142],"min":[0.0,-0.19999998807907104,0.0],"normalized":false,"type":"VEC3"},{"bufferView":41,"componentType":5126,"count":2220,"max":[1.0,0.9284427762031555,0.9995074272155762,1.0],"min":[-1.0,-1.0,-1.0,-1.0],"normalized":false,"type":"VEC4"},{"bufferView":42,"componentType":5126,"count":2220,"max":[0.9925498962402344,0.9991639256477356,1.0],"min":[-1.0,-1.0,-1.0],"normalized":false,"type":"VEC3"},{"bufferView":43,"componentType":5126,"count":2220,"max":[7.045695781707764,1.0],"min":[0.0,0.0],"normalized":false,"type":"VEC2"},{"bufferView":44,"componentType":5123,"count":2220,"max":[2219],"min":[0],"normalized":false,"type":"SCALAR"},{"bufferView":45,"componentType":5126,"count":2220,"max":[4.5717997550964355,1.753999948501587,1.399999976158142],"min":[0.0,-0.19999998807907104,0.0],"normalized":false,"type":"VEC3"},{"bufferView":46,"componentType":5126,"count":308,"max":[0.3547525107860565,0.3305619955062866,0.5604193210601807],"min":[-0.3398107588291168,-0.012891738675534725,-0.5655393600463867],"normalized":false,"type":"VEC3"},{"bufferView":47,"componentType":5126,"count":308,"max":[0.9999380707740784,0.9999473094940186,0.9640836715698242,1.0],"min":[-0.9999294281005859,-0.5032282471656799,-0.9660855531692505,1.0],"normalized":false,"type":"VEC4"},{"bufferView":48,"componentType":5126,"count":308,"max":[0.9995425939559937,0.9999938607215881,0.9699578285217285],"min":[-0.9999634027481079,-0.9999872446060181,-0.9534992575645447],"normalized":false,"type":"VEC3"},{"bufferView":49,"componentType":5126,"count":308,"max":[0.8750001192092896,1.0],"min":[0.1249847263097763,-1.52587890625e-05],"normalized":false,"type":"VEC2"},{"bufferView":50,"componentType":5123,"count":1008,"max":[307],"min":[0],"normalized":false,"type":"SCALAR"},{"bufferView":51,"componentType":5126,"count":180,"max":[0.34654393792152405,0.3192644715309143,0.5490784645080566],"min":[-0.3279842436313629,-0.010423125699162483,-0.5519843697547913],"normalized":false,"type":"VEC3"},{"bufferView":52,"componentType":5126,"count":96,"max":[1.8712999820709229,0.604699969291687,1.855699896812439],"min":[-1.1971999406814575,0.030399998649954796,-1.2561999559402466],"normalized":false,"type":"VEC3"},{"bufferView":53,"componentType":5121,"count":96,"max":[95],"min":[0],"normalized":false,"type":"SCALAR"},{"bufferView":54,"componentType":5126,"count":32,"max":[1.8712551593780518,0.6047436594963074,1.855676293373108],"min":[-1.197232961654663,0.03039298951625824,-1.2561577558517456],"normalized":false,"type":"VEC3"},{"bufferView":55,"componentType":5126,"count":32,"max":[0.9927983283996582,0.3418002426624298,0.5897350311279297,1.0],"min":[0.7479417324066162,-0.3548431694507599,-0.6637529134750366,1.0],"normalized":false,"type":"VEC4"},{"bufferView":56,"componentType":5126,"count":32,"max":[0.38060474395751953,0.9967676401138306,0.23110182583332062],"min":[-0.33847159147262573,0.7440114617347717,-0.6575636267662048],"normalized":false,"type":"VEC3"},{"bufferView":57,"componentType":5126,"count":32,"max":[1.0000001192092896,1.0],"min":[-1.5258790881489404e-05,-1.52587890625e-05],"normalized":false,"type":"VEC2"},{"bufferView":58,"componentType":5121,"count":96,"max":[31],"min":[0],"normalized":false,"type":"SCALAR"}],"asset":{"generator":"Godot Engine v4.6.3.stable.official@7d41c59c457bd5a245092b4e7eb2d833e3b3f8c3","version":"2.0"},"bufferViews":[{"buffer":0,"byteLength":5688,"byteStride":12,"target":34962},{"buffer":0,"byteLength":7584,"byteOffset":5688,"byteStride":16,"target":34962},{"buffer":0,"byteLength":5688,"byteOffset":13272,"byteStride":12,"target":34962},{"buffer":0,"byteLength":3792,"byteOffset":18960,"byteStride":8,"target":34962},{"buffer":0,"byteLength":948,"byteOffset":22752,"target":34963},{"buffer":0,"byteLength":5688,"byteOffset":23700,"byteStride":12,"target":34962},{"buffer":0,"byteLength":1056,"byteOffset":29388,"byteStride":12,"target":34962},{"buffer":0,"byteLength":1408,"byteOffset":30444,"byteStride":16,"target":34962},{"buffer":0,"byteLength":1056,"byteOffset":31852,"byteStride":12,"target":34962},{"buffer":0,"byteLength":704,"byteOffset":32908,"byteStride":8,"target":34962},{"buffer":0,"byteLength":132,"byteOffset":33612,"target":34963},{"buffer":0,"byteLength":11304,"byteOffset":33744,"byteStride":12,"target":34962},{"buffer":0,"byteLength":15072,"byteOffset":45048,"byteStride":16,"target":34962},{"buffer":0,"byteLength":11304,"byteOffset":60120,"byteStride":12,"target":34962},{"buffer":0,"byteLength":7536,"byteOffset":71424,"byteStride":8,"target":34962},{"buffer":0,"byteLength":1884,"byteOffset":78960,"target":34963},{"buffer":0,"byteLength":11304,"byteOffset":80844,"byteStride":12,"target":34962},{"buffer":0,"byteLength":13680,"byteOffset":92148,"byteStride":12,"target":34962},{"buffer":0,"byteLength":18240,"byteOffset":105828,"byteStride":16,"target":34962},{"buffer":0,"byteLength":13680,"byteOffset":124068,"byteStride":12,"target":34962},{"buffer":0,"byteLength":9120,"byteOffset":137748,"byteStride":8,"target":34962},{"buffer":0,"byteLength":2280,"byteOffset":146868,"target":34963},{"buffer":0,"byteLength":13680,"byteOffset":149148,"byteStride":12,"target":34962},{"buffer":0,"byteLength":2640,"byteOffset":162828,"byteStride":12,"target":34962},{"buffer":0,"byteLength":3520,"byteOffset":165468,"byteStride":16,"target":34962},{"buffer":0,"byteLength":2640,"byteOffset":168988,"byteStride":12,"target":34962},{"buffer":0,"byteLength":1760,"byteOffset":171628,"byteStride":8,"target":34962},{"buffer":0,"byteLength":720,"byteOffset":173388,"target":34963},{"buffer":0,"byteLength":2160,"byteOffset":174108,"byteStride":12,"target":34962},{"buffer":0,"byteLength":180,"byteOffset":176268,"target":34963},{"buffer":0,"byteLength":2448,"byteOffset":176448,"byteStride":12,"target":34962},{"buffer":0,"byteLength":3264,"byteOffset":178896,"byteStride":16,"target":34962},{"buffer":0,"byteLength":2448,"byteOffset":182160,"byteStride":12,"target":34962},{"buffer":0,"byteLength":1632,"byteOffset":184608,"byteStride":8,"target":34962},{"buffer":0,"byteLength":1056,"byteOffset":186240,"target":34963},{"buffer":0,"byteLength":6264,"byteOffset":187296,"byteStride":12,"target":34962},{"buffer":0,"byteLength":8352,"byteOffset":193560,"byteStride":16,"target":34962},{"buffer":0,"byteLength":6264,"byteOffset":201912,"byteStride":12,"target":34962},{"buffer":0,"byteLength":4176,"byteOffset":208176,"byteStride":8,"target":34962},{"buffer":0,"byteLength":4608,"byteOffset":212352,"target":34963},{"buffer":0,"byteLength":26640,"byteOffset":216960,"byteStride":12,"target":34962},{"buffer":0,"byteLength":35520,"byteOffset":243600,"byteStride":16,"target":34962},{"buffer":0,"byteLength":26640,"byteOffset":279120,"byteStride":12,"target":34962},{"buffer":0,"byteLength":17760,"byteOffset":305760,"byteStride":8,"target":34962},{"buffer":0,"byteLength":4440,"byteOffset":323520,"target":34963},{"buffer":0,"byteLength":26640,"byteOffset":327960,"byteStride":12,"target":34962},{"buffer":0,"byteLength":3696,"byteOffset":354600,"byteStride":12,"target":34962},{"buffer":0,"byteLength":4928,"byteOffset":358296,"byteStride":16,"target":34962},{"buffer":0,"byteLength":3696,"byteOffset":363224,"byteStride":12,"target":34962},{"buffer":0,"byteLength":2464,"byteOffset":366920,"byteStride":8,"target":34962},{"buffer":0,"byteLength":2016,"byteOffset":369384,"target":34963},{"buffer":0,"byteLength":2160,"byteOffset":371400,"byteStride":12,"target":34962},{"buffer":0,"byteLength":1152,"byteOffset":373560,"byteStride":12,"target":34962},{"buffer":0,"byteLength":96,"byteOffset":374712,"target":34963},{"buffer":0,"byteLength":384,"byteOffset":374808,"byteStride":12,"target":34962},{"buffer":0,"byteLength":512,"byteOffset":375192,"byteStride":16,"target":34962},{"buffer":0,"byteLength":384,"byteOffset":375704,"byteStride":12,"target":34962},{"buffer":0,"byteLength":256,"byteOffset":376088,"byteStride":8,"target":34962},{"buffer":0,"byteLength":96,"byteOffset":376344,"target":34963}],"buffers":[{"byteLength":376440,"uri":"barricade_01_intact0.bin"}],"extensions":{"OMI_physics_shape":{"shapes":[{"trimesh":{"mesh":1},"type":"trimesh"},{"box":{"size":[0.23205295205116272,0.05912681668996811,1.524890422821045]},"type":"box"},{"trimesh":{"mesh":7},"type":"trimesh"},{"trimesh":{"mesh":9},"type":"trimesh"},{"convex":{"mesh":11},"type":"convex"},{"cylinder":{"height":5.0,"radius":0.05000000074505806},"type":"cylinder"},{"trimesh":{"mesh":17},"type":"trimesh"},{"convex":{"mesh":20},"type":"convex"},{"trimesh":{"mesh":25},"type":"trimesh"}]}},"extensionsUsed":["GODOT_single_root","OMI_physics_body","OMI_physics_shape"],"materials":[{"name":"prototype_material_barricade","pbrMetallicRoughness":{"baseColorFactor":[0.3942692279815674,0.32777976989746094,0.27036529779434204,1.0],"metallicFactor":0.0,"roughnessFactor":1.0}},{"pbrMetallicRoughness":{"baseColorFactor":[0.7954521179199219,0.4683600664138794,0.22921054065227509,1.0],"metallicFactor":0.0,"roughnessFactor":0.5400000214576721}},{"pbrMetallicRoughness":{"baseColorFactor":[1.0,1.0,1.0,1.0],"metallicFactor":0.0,"roughnessFactor":0.5400000214576721}},{"doubleSided":true,"pbrMetallicRoughness":{"baseColorFactor":[0.49102088809013367,0.0,0.0,1.0],"metallicFactor":0.0,"roughnessFactor":1.0}},{"pbrMetallicRoughness":{"baseColorFactor":[0.23220765590667725,0.23220765590667725,0.23220765590667725,1.0],"metallicFactor":0.0,"roughnessFactor":1.0}},{"pbrMetallicRoughness":{"baseColorFactor":[1.0,1.0,1.0,1.0],"metallicFactor":0.0,"roughnessFactor":1.0}},{"name":"prototype_material_wood_3d","pbrMetallicRoughness":{"baseColorFactor":[0.3452383279800415,0.15727873146533966,0.04437318071722984,1.0],"metallicFactor":0.0,"roughnessFactor":1.0}}],"meshes":[{"primitives":[{"attributes":{"NORMAL":2,"POSITION":0,"TANGENT":1,"TEXCOORD_0":3},"indices":4,"material":0,"mode":4}]},{"primitives":[{"attributes":{"POSITION":5},"indices":4,"mode":4}]},{"name":"sm_plank_Cube_020","primitives":[{"attributes":{"NORMAL":8,"POSITION":6,"TANGENT":7,"TEXCOORD_0":9},"indices":10,"material":1,"mode":4}]},{"name":"sm_plank_Cube_0202","primitives":[{"attributes":{"NORMAL":8,"POSITION":6,"TANGENT":7,"TEXCOORD_0":9},"indices":10,"material":1,"mode":4}]},{"name":"sm_plank_Cube_0203","primitives":[{"attributes":{"NORMAL":8,"POSITION":6,"TANGENT":7,"TEXCOORD_0":9},"indices":10,"material":1,"mode":4}]},{"name":"sm_plank_Cube_0204","primitives":[{"attributes":{"NORMAL":8,"POSITION":6,"TANGENT":7,"TEXCOORD_0":9},"indices":10,"material":1,"mode":4}]},{"primitives":[{"attributes":{"NORMAL":13,"POSITION":11,"TANGENT":12,"TEXCOORD_0":14},"indices":15,"material":0,"mode":4}]},{"primitives":[{"attributes":{"POSITION":16},"indices":15,"mode":4}]},{"primitives":[{"attributes":{"NORMAL":19,"POSITION":17,"TANGENT":18,"TEXCOORD_0":20},"indices":21,"material":0,"mode":4}]},{"primitives":[{"attributes":{"POSITION":22},"indices":21,"mode":4}]},{"name":"sm_barrel_stand_c_Cylinder_008","primitives":[{"attributes":{"NORMAL":25,"POSITION":23,"TANGENT":24,"TEXCOORD_0":26},"indices":27,"material":2,"mode":4}]},{"primitives":[{"attributes":{"POSITION":28},"indices":29,"mode":4}]},{"primitives":[{"attributes":{"NORMAL":19,"POSITION":17,"TANGENT":18,"TEXCOORD_0":20},"indices":21,"material":0,"mode":4}]},{"name":"sm_barrel_stand_c_Cylinder_0082","primitives":[{"attributes":{"NORMAL":25,"POSITION":23,"TANGENT":24,"TEXCOORD_0":26},"indices":27,"material":2,"mode":4}]},{"primitives":[{"attributes":{"NORMAL":32,"POSITION":30,"TANGENT":31,"TEXCOORD_0":33},"indices":34,"material":3,"mode":4}]},{"primitives":[{"attributes":{"NORMAL":37,"POSITION":35,"TANGENT":36,"TEXCOORD_0":38},"indices":39,"material":4,"mode":4}]},{"primitives":[{"attributes":{"NORMAL":42,"POSITION":40,"TANGENT":41,"TEXCOORD_0":43},"indices":44,"material":0,"mode":4}]},{"primitives":[{"attributes":{"POSITION":45},"indices":44,"mode":4}]},{"name":"sm_plank_Cube_0205","primitives":[{"attributes":{"NORMAL":8,"POSITION":6,"TANGENT":7,"TEXCOORD_0":9},"indices":10,"material":1,"mode":4}]},{"name":"sm_bag_Cube_013","primitives":[{"attributes":{"NORMAL":48,"POSITION":46,"TANGENT":47,"TEXCOORD_0":49},"indices":50,"material":5,"mode":4}]},{"primitives":[{"attributes":{"POSITION":51},"indices":29,"mode":4}]},{"name":"sm_bag_Cube_0132","primitives":[{"attributes":{"NORMAL":48,"POSITION":46,"TANGENT":47,"TEXCOORD_0":49},"indices":50,"material":5,"mode":4}]},{"name":"sm_plank_Cube_0206","primitives":[{"attributes":{"NORMAL":8,"POSITION":6,"TANGENT":7,"TEXCOORD_0":9},"indices":10,"material":1,"mode":4}]},{"name":"sm_plank_Cube_0207","primitives":[{"attributes":{"NORMAL":8,"POSITION":6,"TANGENT":7,"TEXCOORD_0":9},"indices":10,"material":1,"mode":4}]},{"name":"sm_plank_Cube_0208","primitives":[{"attributes":{"NORMAL":8,"POSITION":6,"TANGENT":7,"TEXCOORD_0":9},"indices":10,"material":1,"mode":4}]},{"primitives":[{"attributes":{"POSITION":52},"indices":53,"mode":4}]},{"name":"sm_dirt_cluster_02_Plane_002","primitives":[{"attributes":{"NORMAL":56,"POSITION":54,"TANGENT":55,"TEXCOORD_0":57},"indices":58,"material":6,"mode":4}]}],"nodes":[{"children":[1],"name":"Node3D"},{"children":[2,22,26,34,42,48],"name":"Intact"},{"children":[3,6,10,14,18],"name":"Module_s2c","rotation":[0.0,-0.6561710238456726,0.0,0.7546122074127197],"translation":[-4.788593769073486,0.10000000149011612,-4.5580549240112305]},{"children":[4,5],"extensions":{"OMI_physics_body":{"motion":{"type":"static"}}},"name":"StaticBody3D"},{"mesh":0,"name":"CSGBakedMeshInstance3D"},{"extensions":{"OMI_physics_body":{"collider":{"shape":0}}},"name":"CollisionShape3D"},{"children":[7,9],"extensions":{"OMI_physics_body":{"motion":{"type":"static"}}},"name":"PlankSimple","rotation":[-0.736876368522644,0.0,0.0,0.6760275959968567],"translation":[0.3768603801727295,1.522088646888733,1.0369391441345215]},{"children":[8],"name":"sm_plank7"},{"mesh":2,"name":"sm_plank"},{"extensions":{"OMI_physics_body":{"collider":{"shape":1}}},"name":"CollisionShape3D2","translation":[0.004385568201541901,0.028488675132393837,-0.7622723579406738]},{"children":[11,13],"extensions":{"OMI_physics_body":{"motion":{"type":"static"}}},"name":"PlankSimple2","rotation":[0.0,0.19115154445171356,0.0,0.9815605282783508],"translation":[0.9134246706962585,0.0,1.2491321563720703]},{"children":[12],"name":"sm_plank72"},{"mesh":3,"name":"sm_plank2"},{"extensions":{"OMI_physics_body":{"collider":{"shape":1}}},"name":"CollisionShape3D3","translation":[0.004385568201541901,0.028488675132393837,-0.7622723579406738]},{"children":[15,17],"extensions":{"OMI_physics_body":{"motion":{"type":"static"}}},"name":"PlankSimple3","rotation":[0.0,0.19115154445171356,0.0,0.9815605282783508],"translation":[0.8839813470840454,0.04860059916973114,1.2275139093399048]},{"children":[16],"name":"sm_plank73"},{"mesh":4,"name":"sm_plank3"},{"extensions":{"OMI_physics_body":{"collider":{"shape":1}}},"name":"CollisionShape3D4","translation":[0.004385568201541901,0.028488675132393837,-0.7622723579406738]},{"children":[19,21],"extensions":{"OMI_physics_body":{"motion":{"type":"static"}}},"name":"PlankSimple4","rotation":[0.0,0.19115154445171356,0.0,0.9815605282783508],"translation":[0.9081273078918457,0.09713773429393768,1.2187461853027344]},{"children":[20],"name":"sm_plank74"},{"mesh":5,"name":"sm_plank4"},{"extensions":{"OMI_physics_body":{"collider":{"shape":1}}},"name":"CollisionShape3D5","translation":[0.004385568201541901,0.028488675132393837,-0.7622723579406738]},{"children":[23],"name":"Module_f2s","rotation":[0.0,0.8486857414245605,0.0,0.5288975834846497],"translation":[-0.8351413011550903,0.10000047832727432,5.2754716873168945]},{"children":[24,25],"extensions":{"OMI_physics_body":{"motion":{"type":"static"}}},"name":"StaticBody3D2"},{"mesh":6,"name":"CSGBakedMeshInstance3D2"},{"extensions":{"OMI_physics_body":{"collider":{"shape":2}}},"name":"CollisionShape3D6"},{"children":[27,30],"name":"Module_c2c","rotation":[0.0,0.9069337844848633,0.0,0.42127329111099243],"translation":[-2.677000045776367,0.10000000149011612,1.7299997806549072]},{"children":[28,29],"extensions":{"OMI_physics_body":{"motion":{"type":"static"}}},"name":"StaticBody3D3"},{"mesh":8,"name":"CSGBakedMeshInstance3D3"},{"extensions":{"OMI_physics_body":{"collider":{"shape":3}}},"name":"CollisionShape3D7"},{"children":[31,33],"extensions":{"OMI_physics_body":{"motion":{"type":"static"}}},"name":"Barrel_big","rotation":[0.0,0.0,-0.7658537030220032,0.6430148482322693],"translation":[1.2658768892288208,1.0820492506027222,0.6840699911117554]},{"children":[32],"name":"sm_barrel_stand_c6"},{"mesh":10,"name":"sm_barrel_stand_c"},{"extensions":{"OMI_physics_body":{"collider":{"shape":4}}},"name":"CollisionShape3D8"},{"children":[35,38],"name":"Module_c2c2","rotation":[0.0,-0.3187773823738098,0.0,0.9478296041488647],"translation":[-7.799045085906982,0.10000000149011612,-7.655961990356445]},{"children":[36,37],"extensions":{"OMI_physics_body":{"motion":{"type":"static"}}},"name":"StaticBody3D4"},{"mesh":12,"name":"CSGBakedMeshInstance3D4"},{"extensions":{"OMI_physics_body":{"collider":{"shape":3}}},"name":"CollisionShape3D9"},{"children":[39,41],"extensions":{"OMI_physics_body":{"motion":{"type":"static"}}},"name":"Barrel_big2","rotation":[0.0,0.0,-0.7658537030220032,0.6430148482322693],"translation":[1.2658768892288208,1.0820492506027222,0.6840699911117554]},{"children":[40],"name":"sm_barrel_stand_c62"},{"mesh":13,"name":"sm_barrel_stand_c2"},{"extensions":{"OMI_physics_body":{"collider":{"shape":4}}},"name":"CollisionShape3D10"},{"children":[43,44,47],"name":"Flag","rotation":[0.1083887442946434,-0.5779638290405273,-0.18472042679786682,0.787456750869751],"translation":[-4.984264850616455,3.963954448699951,-3.2443835735321045]},{"mesh":14,"name":"Flag2","translation":[1.523597240447998,1.4677135944366455,0.0]},{"children":[45,46],"extensions":{"OMI_physics_body":{"motion":{"type":"static"}}},"name":"Pole"},{"mesh":15,"name":"Pole2"},{"extensions":{"OMI_physics_body":{"collider":{"shape":5}}},"name":"CollisionShape3D11"},{"name":"VisibleOnScreenNotifier3D","translation":[1.441239595413208,0.0,0.0]},{"children":[49,52,56,60,64,77],"name":"Module_s2s_v2","rotation":[0.0,0.9673672914505005,0.0,0.2533782124519348],"translation":[-8.125616073608398,0.19999952614307404,-6.07238245010376]},{"children":[50,51],"extensions":{"OMI_physics_body":{"motion":{"type":"static"}}},"name":"StaticBody3D5","translation":[0.0,0.20000000298023224,0.0]},{"mesh":16,"name":"CSGBakedMeshInstance3D5"},{"extensions":{"OMI_physics_body":{"collider":{"shape":6}}},"name":"CollisionShape3D12"},{"children":[53,55],"extensions":{"OMI_physics_body":{"motion":{"type":"static"}}},"name":"PlankSimple5","rotation":[0.02144203707575798,0.7248715758323669,0.05349986255168915,0.6864686012268066],"translation":[2.4948291778564453,1.307713508605957,1.0477263927459717]},{"children":[54],"name":"sm_plank75"},{"mesh":18,"name":"sm_plank5"},{"extensions":{"OMI_physics_body":{"collider":{"shape":1}}},"name":"CollisionShape3D13","translation":[0.004385568201541901,0.028488675132393837,-0.7622723579406738]},{"children":[57,59],"extensions":{"OMI_physics_body":{"motion":{"type":"static"}}},"name":"BagSimple5","rotation":[0.020020199939608574,-0.008694585412740707,-0.0729447603225708,0.9970971345901489],"translation":[2.064856767654419,0.4319922626018524,0.6772241592407227]},{"children":[58],"name":"sm_bag2"},{"mesh":19,"name":"sm_bag"},{"extensions":{"OMI_physics_body":{"collider":{"shape":7}}},"name":"CollisionShape3D14"},{"children":[61,63],"extensions":{"OMI_physics_body":{"motion":{"type":"static"}}},"name":"BagSimple4","rotation":[-0.009786260314285755,0.022129293531179428,0.8772703409194946,0.47938641905784607],"translation":[1.7029999494552612,0.9369999766349792,0.578000009059906]},{"children":[62],"name":"sm_bag22"},{"mesh":21,"name":"sm_bag3"},{"extensions":{"OMI_physics_body":{"collider":{"shape":7}}},"name":"CollisionShape3D15"},{"children":[65,69,73],"name":"Ramp","rotation":[-0.0342642106115818,0.724378764629364,0.0006469294312410057,0.6885499358177185],"translation":[2.4705872535705566,1.2945102453231812,0.5686100125312805]},{"children":[66,68],"extensions":{"OMI_physics_body":{"motion":{"type":"static"}}},"name":"PlankSimple6"},{"children":[67],"name":"sm_plank76"},{"mesh":22,"name":"sm_plank6"},{"extensions":{"OMI_physics_body":{"collider":{"shape":1}}},"name":"CollisionShape3D16","translation":[0.004385568201541901,0.028488675132393837,-0.7622723579406738]},{"children":[70,72],"extensions":{"OMI_physics_body":{"motion":{"type":"static"}}},"name":"PlankSimple22","translation":[-0.23533041775226593,0.0,0.0]},{"children":[71],"name":"sm_plank77"},{"mesh":23,"name":"sm_plank8"},{"extensions":{"OMI_physics_body":{"collider":{"shape":1}}},"name":"CollisionShape3D17","translation":[0.004385568201541901,0.028488675132393837,-0.7622723579406738]},{"children":[74,76],"extensions":{"OMI_physics_body":{"motion":{"type":"static"}}},"name":"PlankSimple32","translation":[0.23970548808574677,0.0,0.0]},{"children":[75],"name":"sm_plank78"},{"mesh":24,"name":"sm_plank9"},{"extensions":{"OMI_physics_body":{"collider":{"shape":1}}},"name":"CollisionShape3D18","translation":[0.004385568201541901,0.028488675132393837,-0.7622723579406738]},{"children":[78,79],"extensions":{"OMI_physics_body":{"motion":{"type":"static"}}},"name":"Dirt_pile","rotation":[0.0,-0.5015107989311218,0.0,0.8651514053344727],"translation":[3.5628795623779297,-0.1278972327709198,-0.4696216583251953]},{"extensions":{"OMI_physics_body":{"collider":{"shape":8}}},"name":"sm_dirt_cluster_02_collision"},{"children":[80],"name":"sm_dirt_cluster_02"},{"mesh":26,"name":"sm_dirt_cluster_022"}],"scene":0,"scenes":[{"nodes":[0]}]}