{"accessors":[{"bufferView":0,"componentType":5126,"count":965,"max":[3.1999945640563965,1.4873430728912354,1.000044345855713],"min":[-0.09375721216201782,-8.58306884765625e-06,2.384185791015625e-06],"normalized":false,"type":"VEC3"},{"bufferView":1,"componentType":5126,"count":965,"max":[1.0,0.9999999403953552,0.9999994039535522,1.0],"min":[-0.9533812999725342,-1.0,-1.0000001192092896,-1.0],"normalized":false,"type":"VEC4"},{"bufferView":2,"componentType":5126,"count":965,"max":[0.9904606342315674,0.9995678663253784,1.0],"min":[-0.9995928406715393,-1.0,-1.0],"normalized":false,"type":"VEC3"},{"bufferView":3,"componentType":5126,"count":965,"max":[0.9999999403953552,1.0],"min":[-1.5258788153005298e-05,0.07472348213195801],"normalized":false,"type":"VEC2"},{"bufferView":4,"componentType":5123,"count":4200,"max":[964],"min":[0],"normalized":false,"type":"SCALAR"},{"bufferView":5,"componentType":5126,"count":174,"max":[3.200540065765381,1.4875855445861816,1.000713586807251],"min":[-0.04718508943915367,-8.959255865192972e-06,-0.012083082459867],"normalized":false,"type":"VEC3"},{"bufferView":6,"componentType":5121,"count":174,"max":[173],"min":[0],"normalized":false,"type":"SCALAR"},{"bufferView":7,"componentType":5126,"count":78,"max":[0.10125509649515152,0.019117118790745735,0.10070344060659409],"min":[-0.09975891560316086,-0.01609080471098423,-0.10070344060659409],"normalized":false,"type":"VEC3"},{"bufferView":8,"componentType":5126,"count":78,"max":[0.9999991655349731,0.9992491602897644,0.6989731788635254,1.0],"min":[-0.7078242301940918,-0.9975872039794922,-0.7067464590072632,1.0],"normalized":false,"type":"VEC4"},{"bufferView":9,"componentType":5126,"count":78,"max":[0.9967890977859497,0.9994520545005798,1.0],"min":[-0.9987183213233948,-0.08017906546592712,-1.0],"normalized":false,"type":"VEC3"},{"bufferView":10,"componentType":5126,"count":78,"max":[0.46469825506210327,0.6526283621788025],"min":[0.40711069107055664,0.575631320476532],"normalized":false,"type":"VEC2"},{"bufferView":11,"componentType":5121,"count":114,"max":[77],"min":[0],"normalized":false,"type":"SCALAR"},{"bufferView":12,"componentType":5126,"count":104,"max":[0.120110422372818,0.03254812955856323,0.07787355035543442],"min":[-0.08163151144981384,-0.032630421221256256,-0.11148158460855484],"normalized":false,"type":"VEC3"},{"bufferView":13,"componentType":5126,"count":104,"max":[0.9977127909660339,0.9995532035827637,0.39772146940231323,1.0],"min":[-0.29055505990982056,-0.9978960752487183,-0.46705713868141174,-1.0],"normalized":false,"type":"VEC4"},{"bufferView":14,"componentType":5126,"count":104,"max":[0.9991357922554016,0.9951841235160828,0.9802239537239075],"min":[-0.999514102935791,-0.041647762060165405,-1.0],"normalized":false,"type":"VEC3"},{"bufferView":15,"componentType":5126,"count":104,"max":[0.42159152030944824,0.6387426853179932],"min":[0.35486382246017456,0.5865262746810913],"normalized":false,"type":"VEC2"},{"bufferView":16,"componentType":5121,"count":150,"max":[103],"min":[0],"normalized":false,"type":"SCALAR"},{"bufferView":17,"componentType":5126,"count":104,"max":[0.9977127909660339,0.9995532035827637,0.39772146940231323,1.0],"min":[-0.29055505990982056,-0.9978960752487183,-0.46705713868141174,-1.0],"normalized":false,"type":"VEC4"},{"bufferView":18,"componentType":5126,"count":104,"max":[0.9991357922554016,0.9951841235160828,0.9802239537239075],"min":[-0.999514102935791,-0.041647762060165405,-1.0],"normalized":false,"type":"VEC3"},{"bufferView":19,"componentType":5126,"count":88,"max":[0.12041204422712326,0.05805208534002304,0.0001728534698486328],"min":[-0.11164090782403946,-0.0010747332125902176,-1.5247175693511963],"normalized":false,"type":"VEC3"},{"bufferView":20,"componentType":5126,"count":88,"max":[0.01505190134048462,1.0,-1.9441358745098114e-08,1.0],"min":[-0.0010913312435150146,-1.0,-0.9999960064888,1.0],"normalized":false,"type":"VEC4"},{"bufferView":21,"componentType":5126,"count":88,"max":[0.9999997615814209,0.9999940991401672,0.9999988079071045],"min":[-0.9999997615814209,-0.9999940395355225,-0.9998323321342468],"normalized":false,"type":"VEC3"},{"bufferView":22,"componentType":5126,"count":88,"max":[0.8749980926513672,1.0],"min":[0.12498664855957031,0.0],"normalized":false,"type":"VEC2"},{"bufferView":23,"componentType":5121,"count":132,"max":[87],"min":[0],"normalized":false,"type":"SCALAR"},{"bufferView":24,"componentType":5126,"count":942,"max":[4.523571014404297,1.9954020977020264,1.399999976158142],"min":[0.0,0.0,0.0],"normalized":false,"type":"VEC3"},{"bufferView":25,"componentType":5126,"count":942,"max":[0.9993531703948975,0.28500574827194214,0.23082292079925537,1.0],"min":[-1.0,-1.0,-1.0,-1.0],"normalized":false,"type":"VEC4"},{"bufferView":26,"componentType":5126,"count":942,"max":[0.9925540089607239,0.9993637204170227,1.0],"min":[-1.0,-1.0,-1.0],"normalized":false,"type":"VEC3"},{"bufferView":27,"componentType":5126,"count":942,"max":[5.851809978485107,1.0],"min":[0.0,0.0],"normalized":false,"type":"VEC2"},{"bufferView":28,"componentType":5123,"count":942,"max":[941],"min":[0],"normalized":false,"type":"SCALAR"},{"bufferView":29,"componentType":5126,"count":942,"max":[4.523600101470947,1.9953999519348145,1.399999976158142],"min":[0.0,0.0,0.0],"normalized":false,"type":"VEC3"},{"bufferView":30,"componentType":5126,"count":858,"max":[4.498989105224609,1.1021156311035156,1.4014288187026978],"min":[-1.5962417819537222e-05,-0.19983339309692383,-0.0024205169174820185],"normalized":false,"type":"VEC3"},{"bufferView":31,"componentType":5126,"count":858,"max":[0.9990873336791992,1.0,0.9999909400939941,1.0],"min":[-0.998040497303009,-0.9221205115318298,-1.0,-1.0],"normalized":false,"type":"VEC4"},{"bufferView":32,"componentType":5126,"count":858,"max":[0.9936519265174866,0.9997923374176025,1.0],"min":[-1.0,-1.0,-1.0],"normalized":false,"type":"VEC3"},{"bufferView":33,"componentType":5126,"count":858,"max":[1.0045350790023804,0.9996998906135559],"min":[0.0006897595012560487,-1.5254209756676573e-05],"normalized":false,"type":"VEC2"},{"bufferView":34,"componentType":5123,"count":3612,"max":[857],"min":[0],"normalized":false,"type":"SCALAR"},{"bufferView":35,"componentType":5126,"count":78,"max":[0.9999991655349731,0.9992510080337524,0.6989731788635254,1.0],"min":[-0.7078242301940918,-0.9975872039794922,-0.7068979740142822,1.0],"normalized":false,"type":"VEC4"},{"bufferView":36,"componentType":5126,"count":78,"max":[0.9967890977859497,0.9994520545005798,1.0],"min":[-0.9987176656723022,-0.08011610060930252,-1.0],"normalized":false,"type":"VEC3"},{"bufferView":37,"componentType":5126,"count":78,"max":[0.6066834330558777,0.6070801615715027],"min":[0.5592278838157654,0.5532768964767456],"normalized":false,"type":"VEC2"},{"bufferView":38,"componentType":5126,"count":104,"max":[0.9977127909660339,0.9995532035827637,0.39767295122146606,1.0],"min":[-0.2909753620624542,-0.997900664806366,-0.46705713868141174,-1.0],"normalized":false,"type":"VEC4"},{"bufferView":39,"componentType":5126,"count":104,"max":[0.9991357922554016,0.9951841235160828,0.9802239537239075],"min":[-0.999514102935791,-0.041647762060165405,-1.0],"normalized":false,"type":"VEC3"},{"bufferView":40,"componentType":5126,"count":104,"max":[0.37311360239982605,0.6815289258956909],"min":[0.30638590455055237,0.6293125748634338],"normalized":false,"type":"VEC2"},{"bufferView":41,"componentType":5126,"count":78,"max":[0.9999991655349731,0.9992510080337524,0.6989731788635254,1.0],"min":[-0.7078242301940918,-0.9975872039794922,-0.7068979740142822,1.0],"normalized":false,"type":"VEC4"},{"bufferView":42,"componentType":5126,"count":78,"max":[0.9967890977859497,0.9994527697563171,1.0],"min":[-0.9987176656723022,-0.08011610060930252,-1.0],"normalized":false,"type":"VEC3"},{"bufferView":43,"componentType":5126,"count":78,"max":[0.9999991655349731,0.9992510080337524,0.6989731788635254,1.0],"min":[-0.7078242301940918,-0.9975872039794922,-0.7068979740142822,1.0],"normalized":false,"type":"VEC4"},{"bufferView":44,"componentType":5126,"count":78,"max":[0.9967890977859497,0.9994520545005798,1.0],"min":[-0.9987176656723022,-0.08011610060930252,-1.0],"normalized":false,"type":"VEC3"},{"bufferView":45,"componentType":5126,"count":180,"max":[4.516172885894775,1.0854605436325073,1.4049948453903198],"min":[-3.932524577976437e-06,-0.20000603795051575,3.211604052921757e-06],"normalized":false,"type":"VEC3"},{"bufferView":46,"componentType":5121,"count":180,"max":[179],"min":[0],"normalized":false,"type":"SCALAR"},{"bufferView":47,"componentType":5126,"count":630,"max":[0.6194376349449158,1.401857614517212,0.6194375157356262],"min":[-0.6194372773170471,0.0,-0.6194375157356262],"normalized":false,"type":"VEC3"},{"bufferView":48,"componentType":5126,"count":630,"max":[1.0,0.9743152260780334,0.9999997615814209,1.0],"min":[-0.9990692734718323,-0.9743381142616272,-0.9995372295379639,-1.0],"normalized":false,"type":"VEC4"},{"bufferView":49,"componentType":5126,"count":630,"max":[0.9976979494094849,1.0,0.9958682060241699],"min":[-0.9958692789077759,-1.0,-0.9962517023086548],"normalized":false,"type":"VEC3"},{"bufferView":50,"componentType":5126,"count":630,"max":[1.0,0.9899900555610657],"min":[0.0,0.0],"normalized":false,"type":"VEC2"},{"bufferView":51,"componentType":5123,"count":630,"max":[629],"min":[0],"normalized":false,"type":"SCALAR"},{"bufferView":52,"componentType":5126,"count":396,"max":[0.6194376349449158,1.401857614517212,0.5846851468086243],"min":[-0.5199999809265137,0.1410156488418579,-0.5846914052963257],"normalized":false,"type":"VEC3"},{"bufferView":53,"componentType":5126,"count":396,"max":[1.0,0.8414778709411621,1.0,1.0],"min":[-1.0,-0.88826984167099,-0.9978125691413879,-1.0],"normalized":false,"type":"VEC4"},{"bufferView":54,"componentType":5126,"count":396,"max":[0.998537540435791,1.0,0.9950891137123108],"min":[-0.9978113770484924,-1.0,-1.0],"normalized":false,"type":"VEC3"},{"bufferView":55,"componentType":5126,"count":396,"max":[1.0,1.0],"min":[0.0,0.0],"normalized":false,"type":"VEC2"},{"bufferView":56,"componentType":5123,"count":396,"max":[395],"min":[0],"normalized":false,"type":"SCALAR"},{"bufferView":57,"componentType":5126,"count":1026,"max":[0.6193999648094177,1.4018999338150024,0.6193999648094177],"min":[-0.6193999648094177,0.0,-0.6193999648094177],"normalized":false,"type":"VEC3"},{"bufferView":58,"componentType":5123,"count":1026,"max":[1025],"min":[0],"normalized":false,"type":"SCALAR"},{"bufferView":59,"componentType":5126,"count":1140,"max":[4.5261125564575195,1.1376539468765259,1.399999976158142],"min":[0.0,-0.1998291015625,0.0],"normalized":false,"type":"VEC3"},{"bufferView":60,"componentType":5126,"count":1140,"max":[0.9994522333145142,0.8262748122215271,0.6293238401412964,1.0],"min":[-1.0,-1.0,-1.0,-1.0],"normalized":false,"type":"VEC4"},{"bufferView":61,"componentType":5126,"count":1140,"max":[0.9925498962402344,0.9999430179595947,1.0],"min":[-1.0,-1.0,-1.0],"normalized":false,"type":"VEC3"},{"bufferView":62,"componentType":5126,"count":1140,"max":[5.362115383148193,1.0],"min":[0.14596819877624512,0.0],"normalized":false,"type":"VEC2"},{"bufferView":63,"componentType":5123,"count":1140,"max":[1139],"min":[0],"normalized":false,"type":"SCALAR"},{"bufferView":64,"componentType":5126,"count":1140,"max":[4.526099681854248,1.1376999616622925,1.399999976158142],"min":[0.0,-0.19979999959468842,0.0],"normalized":false,"type":"VEC3"},{"bufferView":65,"componentType":5126,"count":220,"max":[0.6194376349449158,1.401857614517212,0.6194375157356262],"min":[-0.6194372773170471,0.0,-0.6194375157356262],"normalized":false,"type":"VEC3"},{"bufferView":66,"componentType":5126,"count":220,"max":[1.0,0.9743567109107971,1.0,1.0],"min":[-0.9997135996818542,-0.9743351936340332,-1.0000001192092896,-1.0],"normalized":false,"type":"VEC4"},{"bufferView":67,"componentType":5126,"count":220,"max":[0.9959892630577087,1.0,0.9959890246391296],"min":[-0.9959861040115356,-1.0,-0.9959912896156311],"normalized":false,"type":"VEC3"},{"bufferView":68,"componentType":5126,"count":220,"max":[1.0,0.9899900555610657],"min":[0.0,0.0],"normalized":false,"type":"VEC2"},{"bufferView":69,"componentType":5121,"count":720,"max":[219],"min":[0],"normalized":false,"type":"SCALAR"},{"bufferView":70,"componentType":5126,"count":180,"max":[0.6102684736251831,1.3907839059829712,0.6136825084686279],"min":[-0.6025193333625793,0.011115596629679203,-0.6058794856071472],"normalized":false,"type":"VEC3"},{"bufferView":71,"componentType":5126,"count":2220,"max":[4.5718231201171875,1.7540016174316406,1.399999976158142],"min":[0.0,-0.19999998807907104,0.0],"normalized":false,"type":"VEC3"},{"bufferView":72,"componentType":5126,"count":2220,"max":[1.0,0.9284427762031555,0.9995074272155762,1.0],"min":[-1.0,-1.0,-1.0,-1.0],"normalized":false,"type":"VEC4"},{"bufferView":73,"componentType":5126,"count":2220,"max":[0.9925498962402344,0.9991639256477356,1.0],"min":[-1.0,-1.0,-1.0],"normalized":false,"type":"VEC3"},{"bufferView":74,"componentType":5126,"count":2220,"max":[7.045695781707764,1.0],"min":[0.0,0.0],"normalized":false,"type":"VEC2"},{"bufferView":75,"componentType":5123,"count":2220,"max":[2219],"min":[0],"normalized":false,"type":"SCALAR"},{"bufferView":76,"componentType":5126,"count":2220,"max":[4.5717997550964355,1.753999948501587,1.399999976158142],"min":[0.0,-0.19999998807907104,0.0],"normalized":false,"type":"VEC3"},{"bufferView":77,"componentType":5126,"count":308,"max":[0.3547525107860565,0.3305619955062866,0.5604193210601807],"min":[-0.3398107588291168,-0.012891738675534725,-0.5655393600463867],"normalized":false,"type":"VEC3"},{"bufferView":78,"componentType":5126,"count":308,"max":[0.9999380707740784,0.9999473094940186,0.9640836715698242,1.0],"min":[-0.9999294281005859,-0.5032282471656799,-0.9660855531692505,1.0],"normalized":false,"type":"VEC4"},{"bufferView":79,"componentType":5126,"count":308,"max":[0.9995425939559937,0.9999938607215881,0.9699578285217285],"min":[-0.9999634027481079,-0.9999872446060181,-0.9534992575645447],"normalized":false,"type":"VEC3"},{"bufferView":80,"componentType":5126,"count":308,"max":[0.8750001192092896,1.0],"min":[0.1249847263097763,-1.52587890625e-05],"normalized":false,"type":"VEC2"},{"bufferView":81,"componentType":5123,"count":1008,"max":[307],"min":[0],"normalized":false,"type":"SCALAR"},{"bufferView":82,"componentType":5126,"count":180,"max":[0.34654393792152405,0.3192644715309143,0.5490784645080566],"min":[-0.3279842436313629,-0.010423125699162483,-0.5519843697547913],"normalized":false,"type":"VEC3"},{"bufferView":83,"componentType":5126,"count":96,"max":[1.8712999820709229,0.604699969291687,1.855699896812439],"min":[-1.1971999406814575,0.030399998649954796,-1.2561999559402466],"normalized":false,"type":"VEC3"},{"bufferView":84,"componentType":5121,"count":96,"max":[95],"min":[0],"normalized":false,"type":"SCALAR"},{"bufferView":85,"componentType":5126,"count":32,"max":[1.8712551593780518,0.6047436594963074,1.855676293373108],"min":[-1.197232961654663,0.03039298951625824,-1.2561577558517456],"normalized":false,"type":"VEC3"},{"bufferView":86,"componentType":5126,"count":32,"max":[0.9927983283996582,0.3418002426624298,0.5897350311279297,1.0],"min":[0.7479417324066162,-0.3548431694507599,-0.6637529134750366,1.0],"normalized":false,"type":"VEC4"},{"bufferView":87,"componentType":5126,"count":32,"max":[0.38060474395751953,0.9967676401138306,0.23110182583332062],"min":[-0.33847159147262573,0.7440114617347717,-0.6575636267662048],"normalized":false,"type":"VEC3"},{"bufferView":88,"componentType":5126,"count":32,"max":[1.0000001192092896,1.0],"min":[-1.5258790881489404e-05,-1.52587890625e-05],"normalized":false,"type":"VEC2"},{"bufferView":89,"componentType":5121,"count":96,"max":[31],"min":[0],"normalized":false,"type":"SCALAR"}],"asset":{"generator":"Godot Engine v4.6.3.stable.official@7d41c59c457bd5a245092b4e7eb2d833e3b3f8c3","version":"2.0"},"bufferViews":[{"buffer":0,"byteLength":11580,"byteStride":12,"target":34962},{"buffer":0,"byteLength":15440,"byteOffset":11580,"byteStride":16,"target":34962},{"buffer":0,"byteLength":11580,"byteOffset":27020,"byteStride":12,"target":34962},{"buffer":0,"byteLength":7720,"byteOffset":38600,"byteStride":8,"target":34962},{"buffer":0,"byteLength":8400,"byteOffset":46320,"target":34963},{"buffer":0,"byteLength":2088,"byteOffset":54720,"byteStride":12,"target":34962},{"buffer":0,"byteLength":174,"byteOffset":56808,"target":34963},{"buffer":0,"byteLength":936,"byteOffset":56984,"byteStride":12,"target":34962},{"buffer":0,"byteLength":1248,"byteOffset":57920,"byteStride":16,"target":34962},{"buffer":0,"byteLength":936,"byteOffset":59168,"byteStride":12,"target":34962},{"buffer":0,"byteLength":624,"byteOffset":60104,"byteStride":8,"target":34962},{"buffer":0,"byteLength":114,"byteOffset":60728,"target":34963},{"buffer":0,"byteLength":1248,"byteOffset":60844,"byteStride":12,"target":34962},{"buffer":0,"byteLength":1664,"byteOffset":62092,"byteStride":16,"target":34962},{"buffer":0,"byteLength":1248,"byteOffset":63756,"byteStride":12,"target":34962},{"buffer":0,"byteLength":832,"byteOffset":65004,"byteStride":8,"target":34962},{"buffer":0,"byteLength":150,"byteOffset":65836,"target":34963},{"buffer":0,"byteLength":1664,"byteOffset":65988,"byteStride":16,"target":34962},{"buffer":0,"byteLength":1248,"byteOffset":67652,"byteStride":12,"target":34962},{"buffer":0,"byteLength":1056,"byteOffset":68900,"byteStride":12,"target":34962},{"buffer":0,"byteLength":1408,"byteOffset":69956,"byteStride":16,"target":34962},{"buffer":0,"byteLength":1056,"byteOffset":71364,"byteStride":12,"target":34962},{"buffer":0,"byteLength":704,"byteOffset":72420,"byteStride":8,"target":34962},{"buffer":0,"byteLength":132,"byteOffset":73124,"target":34963},{"buffer":0,"byteLength":11304,"byteOffset":73256,"byteStride":12,"target":34962},{"buffer":0,"byteLength":15072,"byteOffset":84560,"byteStride":16,"target":34962},{"buffer":0,"byteLength":11304,"byteOffset":99632,"byteStride":12,"target":34962},{"buffer":0,"byteLength":7536,"byteOffset":110936,"byteStride":8,"target":34962},{"buffer":0,"byteLength":1884,"byteOffset":118472,"target":34963},{"buffer":0,"byteLength":11304,"byteOffset":120356,"byteStride":12,"target":34962},{"buffer":0,"byteLength":10296,"byteOffset":131660,"byteStride":12,"target":34962},{"buffer":0,"byteLength":13728,"byteOffset":141956,"byteStride":16,"target":34962},{"buffer":0,"byteLength":10296,"byteOffset":155684,"byteStride":12,"target":34962},{"buffer":0,"byteLength":6864,"byteOffset":165980,"byteStride":8,"target":34962},{"buffer":0,"byteLength":7224,"byteOffset":172844,"target":34963},{"buffer":0,"byteLength":1248,"byteOffset":180068,"byteStride":16,"target":34962},{"buffer":0,"byteLength":936,"byteOffset":181316,"byteStride":12,"target":34962},{"buffer":0,"byteLength":624,"byteOffset":182252,"byteStride":8,"target":34962},{"buffer":0,"byteLength":1664,"byteOffset":182876,"byteStride":16,"target":34962},{"buffer":0,"byteLength":1248,"byteOffset":184540,"byteStride":12,"target":34962},{"buffer":0,"byteLength":832,"byteOffset":185788,"byteStride":8,"target":34962},{"buffer":0,"byteLength":1248,"byteOffset":186620,"byteStride":16,"target":34962},{"buffer":0,"byteLength":936,"byteOffset":187868,"byteStride":12,"target":34962},{"buffer":0,"byteLength":1248,"byteOffset":188804,"byteStride":16,"target":34962},{"buffer":0,"byteLength":936,"byteOffset":190052,"byteStride":12,"target":34962},{"buffer":0,"byteLength":2160,"byteOffset":190988,"byteStride":12,"target":34962},{"buffer":0,"byteLength":180,"byteOffset":193148,"target":34963},{"buffer":0,"byteLength":7560,"byteOffset":193328,"byteStride":12,"target":34962},{"buffer":0,"byteLength":10080,"byteOffset":200888,"byteStride":16,"target":34962},{"buffer":0,"byteLength":7560,"byteOffset":210968,"byteStride":12,"target":34962},{"buffer":0,"byteLength":5040,"byteOffset":218528,"byteStride":8,"target":34962},{"buffer":0,"byteLength":1260,"byteOffset":223568,"target":34963},{"buffer":0,"byteLength":4752,"byteOffset":224828,"byteStride":12,"target":34962},{"buffer":0,"byteLength":6336,"byteOffset":229580,"byteStride":16,"target":34962},{"buffer":0,"byteLength":4752,"byteOffset":235916,"byteStride":12,"target":34962},{"buffer":0,"byteLength":3168,"byteOffset":240668,"byteStride":8,"target":34962},{"buffer":0,"byteLength":792,"byteOffset":243836,"target":34963},{"buffer":0,"byteLength":12312,"byteOffset":244628,"byteStride":12,"target":34962},{"buffer":0,"byteLength":2052,"byteOffset":256940,"target":34963},{"buffer":0,"byteLength":13680,"byteOffset":258992,"byteStride":12,"target":34962},{"buffer":0,"byteLength":18240,"byteOffset":272672,"byteStride":16,"target":34962},{"buffer":0,"byteLength":13680,"byteOffset":290912,"byteStride":12,"target":34962},{"buffer":0,"byteLength":9120,"byteOffset":304592,"byteStride":8,"target":34962},{"buffer":0,"byteLength":2280,"byteOffset":313712,"target":34963},{"buffer":0,"byteLength":13680,"byteOffset":315992,"byteStride":12,"target":34962},{"buffer":0,"byteLength":2640,"byteOffset":329672,"byteStride":12,"target":34962},{"buffer":0,"byteLength":3520,"byteOffset":332312,"byteStride":16,"target":34962},{"buffer":0,"byteLength":2640,"byteOffset":335832,"byteStride":12,"target":34962},{"buffer":0,"byteLength":1760,"byteOffset":338472,"byteStride":8,"target":34962},{"buffer":0,"byteLength":720,"byteOffset":340232,"target":34963},{"buffer":0,"byteLength":2160,"byteOffset":340952,"byteStride":12,"target":34962},{"buffer":0,"byteLength":26640,"byteOffset":343112,"byteStride":12,"target":34962},{"buffer":0,"byteLength":35520,"byteOffset":369752,"byteStride":16,"target":34962},{"buffer":0,"byteLength":26640,"byteOffset":405272,"byteStride":12,"target":34962},{"buffer":0,"byteLength":17760,"byteOffset":431912,"byteStride":8,"target":34962},{"buffer":0,"byteLength":4440,"byteOffset":449672,"target":34963},{"buffer":0,"byteLength":26640,"byteOffset":454112,"byteStride":12,"target":34962},{"buffer":0,"byteLength":3696,"byteOffset":480752,"byteStride":12,"target":34962},{"buffer":0,"byteLength":4928,"byteOffset":484448,"byteStride":16,"target":34962},{"buffer":0,"byteLength":3696,"byteOffset":489376,"byteStride":12,"target":34962},{"buffer":0,"byteLength":2464,"byteOffset":493072,"byteStride":8,"target":34962},{"buffer":0,"byteLength":2016,"byteOffset":495536,"target":34963},{"buffer":0,"byteLength":2160,"byteOffset":497552,"byteStride":12,"target":34962},{"buffer":0,"byteLength":1152,"byteOffset":499712,"byteStride":12,"target":34962},{"buffer":0,"byteLength":96,"byteOffset":500864,"target":34963},{"buffer":0,"byteLength":384,"byteOffset":500960,"byteStride":12,"target":34962},{"buffer":0,"byteLength":512,"byteOffset":501344,"byteStride":16,"target":34962},{"buffer":0,"byteLength":384,"byteOffset":501856,"byteStride":12,"target":34962},{"buffer":0,"byteLength":256,"byteOffset":502240,"byteStride":8,"target":34962},{"buffer":0,"byteLength":96,"byteOffset":502496,"target":34963}],"buffers":[{"byteLength":502592,"uri":"damage_010.bin"}],"extensions":{"OMI_physics_shape":{"shapes":[{"trimesh":{"mesh":1},"type":"trimesh"},{"box":{"size":[0.23205295205116272,0.05912681668996811,1.524890422821045]},"type":"box"},{"trimesh":{"mesh":26},"type":"trimesh"},{"trimesh":{"mesh":39},"type":"trimesh"},{"trimesh":{"mesh":42},"type":"trimesh"},{"trimesh":{"mesh":44},"type":"trimesh"},{"convex":{"mesh":46},"type":"convex"},{"trimesh":{"mesh":48},"type":"trimesh"},{"convex":{"mesh":51},"type":"convex"},{"trimesh":{"mesh":56},"type":"trimesh"}]}},"extensionsUsed":["GODOT_single_root","OMI_physics_body","OMI_physics_shape"],"materials":[{"name":"m_barricade_brick_s2c"},{"pbrMetallicRoughness":{"baseColorFactor":[0.7954521179199219,0.4683600664138794,0.22921054065227509,1.0],"metallicFactor":0.0,"roughnessFactor":0.5400000214576721}},{"name":"prototype_material_barricade","pbrMetallicRoughness":{"baseColorFactor":[0.3942692279815674,0.32777976989746094,0.27036529779434204,1.0],"metallicFactor":0.0,"roughnessFactor":1.0}},{"name":"m_barricade_brick_c2c"},{"name":"wood_proto","pbrMetallicRoughness":{"baseColorFactor":[1.0,1.0,1.0,1.0],"metallicFactor":0.0,"roughnessFactor":0.5400000214576721}},{"pbrMetallicRoughness":{"baseColorFactor":[0.3504874110221863,0.12995237112045288,0.04509969800710678,1.0],"metallicFactor":0.0,"roughnessFactor":0.5400000214576721}},{"pbrMetallicRoughness":{"baseColorFactor":[1.0,1.0,1.0,1.0],"metallicFactor":0.0,"roughnessFactor":0.5400000214576721}},{"pbrMetallicRoughness":{"baseColorFactor":[1.0,1.0,1.0,1.0],"metallicFactor":0.0,"roughnessFactor":1.0}},{"name":"prototype_material_wood_3d","pbrMetallicRoughness":{"baseColorFactor":[0.3452383279800415,0.15727873146533966,0.04437318071722984,1.0],"metallicFactor":0.0,"roughnessFactor":1.0}}],"meshes":[{"name":"s2c_damaged_asset_Mesh_0_005","primitives":[{"attributes":{"NORMAL":2,"POSITION":0,"TANGENT":1,"TEXCOORD_0":3},"indices":4,"material":0,"mode":4}]},{"primitives":[{"attributes":{"POSITION":5},"indices":6,"mode":4}]},{"name":"s2c_damaged_asset_Cube_081","primitives":[{"attributes":{"NORMAL":9,"POSITION":7,"TANGENT":8,"TEXCOORD_0":10},"indices":11,"material":0,"mode":4}]},{"name":"s2c_damaged_asset_Cube_0812","primitives":[{"attributes":{"NORMAL":9,"POSITION":7,"TANGENT":8,"TEXCOORD_0":10},"indices":11,"material":0,"mode":4}]},{"name":"s2c_damaged_asset_Cube_0813","primitives":[{"attributes":{"NORMAL":9,"POSITION":7,"TANGENT":8,"TEXCOORD_0":10},"indices":11,"material":0,"mode":4}]},{"name":"s2c_damaged_asset_Cube_0814","primitives":[{"attributes":{"NORMAL":9,"POSITION":7,"TANGENT":8,"TEXCOORD_0":10},"indices":11,"material":0,"mode":4}]},{"name":"s2c_damaged_asset_Cube_0815","primitives":[{"attributes":{"NORMAL":9,"POSITION":7,"TANGENT":8,"TEXCOORD_0":10},"indices":11,"material":0,"mode":4}]},{"name":"s2c_damaged_asset_Cube_0816","primitives":[{"attributes":{"NORMAL":9,"POSITION":7,"TANGENT":8,"TEXCOORD_0":10},"indices":11,"material":0,"mode":4}]},{"name":"s2c_damaged_asset_Cube_0817","primitives":[{"attributes":{"NORMAL":9,"POSITION":7,"TANGENT":8,"TEXCOORD_0":10},"indices":11,"material":0,"mode":4}]},{"name":"s2c_damaged_asset_Cube_083","primitives":[{"attributes":{"NORMAL":14,"POSITION":12,"TANGENT":13,"TEXCOORD_0":15},"indices":16,"material":0,"mode":4}]},{"name":"s2c_damaged_asset_Cube_0832","primitives":[{"attributes":{"NORMAL":18,"POSITION":12,"TANGENT":17,"TEXCOORD_0":15},"indices":16,"material":0,"mode":4}]},{"name":"s2c_damaged_asset_Cube_0833","primitives":[{"attributes":{"NORMAL":14,"POSITION":12,"TANGENT":13,"TEXCOORD_0":15},"indices":16,"material":0,"mode":4}]},{"name":"s2c_damaged_asset_Cube_0834","primitives":[{"attributes":{"NORMAL":18,"POSITION":12,"TANGENT":17,"TEXCOORD_0":15},"indices":16,"material":0,"mode":4}]},{"name":"s2c_damaged_asset_Cube_0835","primitives":[{"attributes":{"NORMAL":14,"POSITION":12,"TANGENT":13,"TEXCOORD_0":15},"indices":16,"material":0,"mode":4}]},{"name":"s2c_damaged_asset_Cube_0836","primitives":[{"attributes":{"NORMAL":18,"POSITION":12,"TANGENT":17,"TEXCOORD_0":15},"indices":16,"material":0,"mode":4}]},{"name":"s2c_damaged_asset_Cube_0837","primitives":[{"attributes":{"NORMAL":14,"POSITION":12,"TANGENT":13,"TEXCOORD_0":15},"indices":16,"material":0,"mode":4}]},{"name":"s2c_damaged_asset_Cube_0838","primitives":[{"attributes":{"NORMAL":18,"POSITION":12,"TANGENT":17,"TEXCOORD_0":15},"indices":16,"material":0,"mode":4}]},{"name":"s2c_damaged_asset_Cube_0839","primitives":[{"attributes":{"NORMAL":14,"POSITION":12,"TANGENT":13,"TEXCOORD_0":15},"indices":16,"material":0,"mode":4}]},{"name":"s2c_damaged_asset_Cube_08310","primitives":[{"attributes":{"NORMAL":18,"POSITION":12,"TANGENT":17,"TEXCOORD_0":15},"indices":16,"material":0,"mode":4}]},{"name":"s2c_damaged_asset_Cube_08311","primitives":[{"attributes":{"NORMAL":14,"POSITION":12,"TANGENT":13,"TEXCOORD_0":15},"indices":16,"material":0,"mode":4}]},{"name":"s2c_damaged_asset_Cube_08312","primitives":[{"attributes":{"NORMAL":18,"POSITION":12,"TANGENT":17,"TEXCOORD_0":15},"indices":16,"material":0,"mode":4}]},{"name":"sm_plank_Cube_020","primitives":[{"attributes":{"NORMAL":21,"POSITION":19,"TANGENT":20,"TEXCOORD_0":22},"indices":23,"material":1,"mode":4}]},{"name":"sm_plank_Cube_0202","primitives":[{"attributes":{"NORMAL":21,"POSITION":19,"TANGENT":20,"TEXCOORD_0":22},"indices":23,"material":1,"mode":4}]},{"name":"sm_plank_Cube_0203","primitives":[{"attributes":{"NORMAL":21,"POSITION":19,"TANGENT":20,"TEXCOORD_0":22},"indices":23,"material":1,"mode":4}]},{"name":"sm_plank_Cube_0204","primitives":[{"attributes":{"NORMAL":21,"POSITION":19,"TANGENT":20,"TEXCOORD_0":22},"indices":23,"material":1,"mode":4}]},{"primitives":[{"attributes":{"NORMAL":26,"POSITION":24,"TANGENT":25,"TEXCOORD_0":27},"indices":28,"material":2,"mode":4}]},{"primitives":[{"attributes":{"POSITION":29},"indices":28,"mode":4}]},{"name":"c2c_damaged_l_asset_Mesh_0_032","primitives":[{"attributes":{"NORMAL":32,"POSITION":30,"TANGENT":31,"TEXCOORD_0":33},"indices":34,"material":3,"mode":4}]},{"name":"c2c_damaged_l_asset_Cube_093","primitives":[{"attributes":{"NORMAL":36,"POSITION":7,"TANGENT":35,"TEXCOORD_0":37},"indices":11,"material":3,"mode":4}]},{"name":"c2c_damaged_l_asset_Cube_095","primitives":[{"attributes":{"NORMAL":39,"POSITION":12,"TANGENT":38,"TEXCOORD_0":40},"indices":16,"material":3,"mode":4}]},{"name":"c2c_damaged_l_asset_Cube_0932","primitives":[{"attributes":{"NORMAL":36,"POSITION":7,"TANGENT":35,"TEXCOORD_0":37},"indices":11,"material":3,"mode":4}]},{"name":"c2c_damaged_l_asset_Cube_0933","primitives":[{"attributes":{"NORMAL":42,"POSITION":7,"TANGENT":41,"TEXCOORD_0":37},"indices":11,"material":3,"mode":4}]},{"name":"c2c_damaged_l_asset_Cube_0934","primitives":[{"attributes":{"NORMAL":36,"POSITION":7,"TANGENT":35,"TEXCOORD_0":37},"indices":11,"material":3,"mode":4}]},{"name":"c2c_damaged_l_asset_Cube_0935","primitives":[{"attributes":{"NORMAL":44,"POSITION":7,"TANGENT":43,"TEXCOORD_0":37},"indices":11,"material":3,"mode":4}]},{"name":"c2c_damaged_l_asset_Cube_0936","primitives":[{"attributes":{"NORMAL":36,"POSITION":7,"TANGENT":35,"TEXCOORD_0":37},"indices":11,"material":3,"mode":4}]},{"name":"c2c_damaged_l_asset_Cube_0937","primitives":[{"attributes":{"NORMAL":44,"POSITION":7,"TANGENT":43,"TEXCOORD_0":37},"indices":11,"material":3,"mode":4}]},{"name":"c2c_damaged_l_asset_Cube_0938","primitives":[{"attributes":{"NORMAL":36,"POSITION":7,"TANGENT":35,"TEXCOORD_0":37},"indices":11,"material":3,"mode":4}]},{"name":"c2c_damaged_l_asset_Cube_0939","primitives":[{"attributes":{"NORMAL":44,"POSITION":7,"TANGENT":43,"TEXCOORD_0":37},"indices":11,"material":3,"mode":4}]},{"name":"c2c_damaged_l_asset_Cube_09310","primitives":[{"attributes":{"NORMAL":36,"POSITION":7,"TANGENT":35,"TEXCOORD_0":37},"indices":11,"material":3,"mode":4}]},{"primitives":[{"attributes":{"POSITION":45},"indices":46,"mode":4}]},{"name":"c2c_damaged_l_asset_Cube_09311","primitives":[{"attributes":{"NORMAL":42,"POSITION":7,"TANGENT":41,"TEXCOORD_0":37},"indices":11,"material":3,"mode":4}]},{"primitives":[{"attributes":{"NORMAL":49,"POSITION":47,"TANGENT":48,"TEXCOORD_0":50},"indices":51,"material":4,"mode":4},{"attributes":{"NORMAL":54,"POSITION":52,"TANGENT":53,"TEXCOORD_0":55},"indices":56,"material":5,"mode":4}]},{"primitives":[{"attributes":{"POSITION":57},"indices":58,"mode":4}]},{"primitives":[{"attributes":{"NORMAL":61,"POSITION":59,"TANGENT":60,"TEXCOORD_0":62},"indices":63,"material":2,"mode":4}]},{"primitives":[{"attributes":{"POSITION":64},"indices":63,"mode":4}]},{"name":"sm_barrel_stand_c_Cylinder_008","primitives":[{"attributes":{"NORMAL":67,"POSITION":65,"TANGENT":66,"TEXCOORD_0":68},"indices":69,"material":6,"mode":4}]},{"primitives":[{"attributes":{"POSITION":70},"indices":46,"mode":4}]},{"primitives":[{"attributes":{"NORMAL":73,"POSITION":71,"TANGENT":72,"TEXCOORD_0":74},"indices":75,"material":2,"mode":4}]},{"primitives":[{"attributes":{"POSITION":76},"indices":75,"mode":4}]},{"name":"sm_plank_Cube_0205","primitives":[{"attributes":{"NORMAL":21,"POSITION":19,"TANGENT":20,"TEXCOORD_0":22},"indices":23,"material":1,"mode":4}]},{"name":"sm_bag_Cube_013","primitives":[{"attributes":{"NORMAL":79,"POSITION":77,"TANGENT":78,"TEXCOORD_0":80},"indices":81,"material":7,"mode":4}]},{"primitives":[{"attributes":{"POSITION":82},"indices":46,"mode":4}]},{"name":"sm_bag_Cube_0132","primitives":[{"attributes":{"NORMAL":79,"POSITION":77,"TANGENT":78,"TEXCOORD_0":80},"indices":81,"material":7,"mode":4}]},{"name":"sm_plank_Cube_0206","primitives":[{"attributes":{"NORMAL":21,"POSITION":19,"TANGENT":20,"TEXCOORD_0":22},"indices":23,"material":1,"mode":4}]},{"name":"sm_plank_Cube_0207","primitives":[{"attributes":{"NORMAL":21,"POSITION":19,"TANGENT":20,"TEXCOORD_0":22},"indices":23,"material":1,"mode":4}]},{"name":"sm_plank_Cube_0208","primitives":[{"attributes":{"NORMAL":21,"POSITION":19,"TANGENT":20,"TEXCOORD_0":22},"indices":23,"material":1,"mode":4}]},{"primitives":[{"attributes":{"POSITION":83},"indices":84,"mode":4}]},{"name":"sm_dirt_cluster_02_Plane_002","primitives":[{"attributes":{"NORMAL":87,"POSITION":85,"TANGENT":86,"TEXCOORD_0":88},"indices":89,"material":8,"mode":4}]}],"nodes":[{"children":[1],"name":"Node3D"},{"children":[2,42,46,67,75],"name":"Damaged"},{"children":[3,26,30,34,38],"name":"Module_s2c_damaged","rotation":[0.0,-0.6561710238456726,0.0,0.7546122074127197],"translation":[-4.788593769073486,0.10000000149011612,-4.5580549240112305]},{"children":[4,5,7,8,9,10,11,12,13,14,15,16,17,18,19,20,21,22,23,24,25],"name":"s2c_damaged_asset2"},{"mesh":0,"name":"s2c_damaged_asset"},{"children":[6],"extensions":{"OMI_physics_body":{"motion":{"type":"static"}}},"name":"_StaticBody3D_71339"},{"extensions":{"OMI_physics_body":{"collider":{"shape":0}}},"name":"CollisionShape3D"},{"mesh":2,"name":"pave_add_02_047","rotation":[-0.1405380815267563,0.0005596424452960491,-0.1805618405342102,0.9734711647033691],"translation":[1.5132200717926025,0.736060380935669,0.34653976559638977]},{"mesh":3,"name":"pave_add_02_048","rotation":[-0.2048022449016571,-0.6865687966346741,0.0005508178728632629,0.6976238489151001],"translation":[1.8809659481048584,0.548157811164856,0.17447251081466675]},{"mesh":4,"name":"pave_add_02_049","rotation":[-0.27568966150283813,-0.6548253893852234,0.10356420278549194,0.6960412263870239],"translation":[2.241070508956909,0.5240041017532349,0.347088485956192]},{"mesh":5,"name":"pave_add_02_050","rotation":[-0.27894097566604614,-0.6333056092262268,0.1714421659708023,0.7012300491333008],"translation":[2.614539623260498,0.4312360882759094,0.3428913354873657]},{"mesh":6,"name":"pave_add_02_051","rotation":[-0.2661828398704529,-0.6669192314147949,0.06105085462331772,0.6932807564735413],"translation":[0.9724491834640503,1.0303571224212646,0.5221976041793823]},{"mesh":7,"name":"pave_add_02_052","rotation":[-0.2090633660554886,-0.7004427313804626,-0.07775373011827469,0.6779578924179077],"translation":[0.616613507270813,1.137054681777954,0.31453824043273926]},{"mesh":8,"name":"pave_add_02_053","rotation":[-0.11297933012247086,-0.7203678488731384,-0.12204469740390778,0.6733579635620117],"translation":[1.7077362537384033,0.8252184391021729,0.7648161053657532]},{"mesh":9,"name":"pave_add_01_033","rotation":[-0.2446347028017044,-0.004291325341910124,-0.12776127457618713,0.961151659488678],"translation":[1.686629295349121,0.6823065876960754,0.3589605689048767]},{"mesh":10,"name":"pave_add_01_034","rotation":[0.04513702169060707,-0.029458612203598022,-0.07470058649778366,0.9957482814788818],"translation":[2.062696695327759,0.7253295183181763,0.7792978286743164]},{"mesh":11,"name":"pave_add_01_035","rotation":[-0.33361026644706726,0.029517699033021927,-0.27084678411483765,0.9024826288223267],"translation":[1.1291735172271729,0.8551648259162903,0.16594982147216797]},{"mesh":12,"name":"pave_add_01_036","rotation":[0.009220766834914684,-0.044876836240291595,-0.20050278306007385,0.9786213636398315],"translation":[0.1200861930847168,1.4549791812896729,0.3384425640106201]},{"mesh":13,"name":"pave_add_01_037","rotation":[-0.7065415978431702,-0.028266653418540955,0.028266649693250656,0.7065415382385254],"translation":[1.5919792652130127,0.31970179080963135,3.814697265625e-06]},{"mesh":14,"name":"pave_add_01_038","rotation":[-0.7065415978431702,-0.028266653418540955,0.028266649693250656,0.7065415382385254],"translation":[0.24568653106689453,0.4586182236671448,3.5762786865234375e-06]},{"mesh":15,"name":"pave_add_01_039","rotation":[0.516669511795044,0.48279595375061035,0.4827805757522583,0.5166078805923462],"translation":[1.4181686639785767,0.47045159339904785,1.0000091791152954]},{"mesh":16,"name":"pave_add_01_040","rotation":[0.5166282057762146,0.4827924370765686,0.4827841520309448,0.5166490077972412],"translation":[2.2880730628967285,0.2901104986667633,1.0000038146972656]},{"mesh":17,"name":"pave_add_01_041","rotation":[-0.004995590075850487,-0.044005151838064194,-0.26621031761169434,0.962897002696991],"translation":[0.4230198562145233,1.3118821382522583,0.5235652923583984]},{"mesh":18,"name":"pave_add_01_042","rotation":[-0.23176462948322296,0.019442390650510788,-0.1740163266658783,0.9568831920623779],"translation":[1.8806192874908447,0.7265444993972778,0.5391702651977539]},{"mesh":19,"name":"pave_add_01_043","rotation":[-0.2339366227388382,0.013988813385367393,-0.19773918390274048,0.9518283605575562],"translation":[1.3170113563537598,0.9858086109161377,0.7534183263778687]},{"mesh":20,"name":"pave_add_01_044","rotation":[-0.10140189528465271,-0.01496737077832222,-0.20481814444065094,0.9734182953834534],"translation":[0.5510727167129517,1.341089129447937,0.9092812538146973]},{"children":[27,29],"extensions":{"OMI_physics_body":{"motion":{"type":"static"}}},"name":"PlankSimple5","rotation":[-4.371138828673793e-08,1.0,-4.371138828673793e-08,-1.910685465164705e-15],"translation":[0.37700000405311584,0.0,1.0369999408721924]},{"children":[28],"name":"sm_plank7"},{"mesh":21,"name":"sm_plank"},{"extensions":{"OMI_physics_body":{"collider":{"shape":1}}},"name":"CollisionShape3D2","translation":[0.004385568201541901,0.028488675132393837,-0.7622723579406738]},{"children":[31,33],"extensions":{"OMI_physics_body":{"motion":{"type":"static"}}},"name":"PlankSimple6","rotation":[0.0,0.19115154445171356,0.0,0.9815605282783508],"translation":[0.9134246706962585,0.0,1.2491321563720703]},{"children":[32],"name":"sm_plank72"},{"mesh":22,"name":"sm_plank2"},{"extensions":{"OMI_physics_body":{"collider":{"shape":1}}},"name":"CollisionShape3D3","translation":[0.004385568201541901,0.028488675132393837,-0.7622723579406738]},{"children":[35,37],"extensions":{"OMI_physics_body":{"motion":{"type":"static"}}},"name":"PlankSimple7","rotation":[0.0,0.19115154445171356,0.0,0.9815605282783508],"translation":[0.8839813470840454,0.04860059916973114,1.2275139093399048]},{"children":[36],"name":"sm_plank73"},{"mesh":23,"name":"sm_plank3"},{"extensions":{"OMI_physics_body":{"collider":{"shape":1}}},"name":"CollisionShape3D4","translation":[0.004385568201541901,0.028488675132393837,-0.7622723579406738]},{"children":[39,41],"extensions":{"OMI_physics_body":{"motion":{"type":"static"}}},"name":"PlankSimple8","rotation":[0.0,0.19115155935287476,0.0,0.9815605282783508],"translation":[0.8165909051895142,0.09713773429393768,1.2187461853027344]},{"children":[40],"name":"sm_plank74"},{"mesh":24,"name":"sm_plank4"},{"extensions":{"OMI_physics_body":{"collider":{"shape":1}}},"name":"CollisionShape3D5","translation":[0.004385568201541901,0.028488675132393837,-0.7622723579406738]},{"children":[43],"name":"Module_f2s","rotation":[0.0,0.8486857414245605,0.0,0.5288975834846497],"translation":[-0.8351413011550903,0.10000047832727432,5.2754716873168945]},{"children":[44,45],"extensions":{"OMI_physics_body":{"motion":{"type":"static"}}},"name":"StaticBody3D"},{"mesh":25,"name":"CSGBakedMeshInstance3D"},{"extensions":{"OMI_physics_body":{"collider":{"shape":2}}},"name":"CollisionShape3D6"},{"children":[47,63],"name":"Module_c2c_damaged","rotation":[0.0,0.9069336652755737,0.0,0.421273410320282],"translation":[-2.676999568939209,0.10000000149011612,1.7299997806549072]},{"children":[48,49,50,51,52,53,54,55,56,57,58,59,60,62],"name":"c2c_damaged_l_asset2"},{"mesh":27,"name":"c2c_damaged_l_asset"},{"mesh":28,"name":"pave_add_02_065","rotation":[-0.0611225888133049,0.0007142489776015282,0.05368177220225334,0.9966853857040405],"translation":[3.6704673767089844,0.3103179931640625,0.7565038204193115]},{"mesh":29,"name":"pave_add_01_056","rotation":[-0.0028437376022338867,-0.0015051191439852118,0.057160135358572006,0.9983597993850708],"translation":[3.8510689735412598,0.31418848037719727,0.5341406464576721]},{"mesh":30,"name":"pave_add_02_066","rotation":[-0.05378396064043045,-0.002209228929132223,-0.028703445568680763,0.9981375336647034],"translation":[3.0656850337982178,0.2937988042831421,0.5729931592941284]},{"mesh":31,"name":"pave_add_02_067","rotation":[0.08143537491559982,-0.0061927433125674725,-0.03054666705429554,0.996191143989563],"translation":[3.2913615703582764,0.2853738069534302,0.33689624071121216]},{"mesh":32,"name":"pave_add_02_068","rotation":[-0.06094346195459366,0.01908097229897976,-0.28332242369651794,0.9568961262702942],"translation":[3.097388744354248,0.3556647300720215,1.0005877017974854]},{"mesh":33,"name":"pave_add_02_069","rotation":[0.012927187606692314,0.017105933278799057,0.015701955184340477,0.999646782875061],"translation":[0.4439234137535095,1.02909517288208,0.5181992053985596]},{"mesh":34,"name":"pave_add_02_070","rotation":[-0.06526555866003036,0.017323631793260574,-0.10615541785955429,0.9920541048049927],"translation":[0.6290998458862305,1.0376503467559814,0.8753421902656555]},{"mesh":35,"name":"pave_add_02_071","rotation":[-0.06609548628330231,0.02554393745958805,0.016038041561841965,0.9973573088645935],"translation":[0.26442858576774597,1.0448625087738037,0.9874467849731445]},{"mesh":36,"name":"pave_add_02_072","rotation":[0.06968965381383896,0.02780040167272091,0.01726488582789898,0.9970318078994751],"translation":[0.27843159437179565,1.0437138080596924,0.33481037616729736]},{"mesh":37,"name":"pave_add_02_073","rotation":[0.16350513696670532,0.9845855832099915,-0.017847590148448944,-0.05948730930685997],"translation":[0.8491221070289612,1.0665326118469238,0.26409611105918884]},{"mesh":38,"name":"pave_add_02_074","rotation":[-0.07137664407491684,-0.0020904086995869875,-0.0234843697398901,0.9971707463264465],"translation":[3.268228530883789,0.30968135595321655,0.7776432633399963]},{"children":[61],"extensions":{"OMI_physics_body":{"motion":{"type":"static"}}},"name":"_StaticBody3D_71374"},{"extensions":{"OMI_physics_body":{"collider":{"shape":3}}},"name":"CollisionShape3D7"},{"mesh":40,"name":"pave_add_02_075","rotation":[-0.05479317158460617,-0.07887118309736252,0.03500008583068848,0.9947623014450073],"translation":[3.6820273399353027,0.3315068483352661,0.9742767810821533]},{"children":[64],"name":"BarrelBigDestroyed","rotation":[0.7660444378852844,0.6427876353263855,-3.34848664351739e-08,-2.8097138837779312e-08],"translation":[1.2658768892288208,1.0820492506027222,0.6840699911117554]},{"children":[65,66],"extensions":{"OMI_physics_body":{"motion":{"type":"static"}}},"name":"StaticBody3D2"},{"mesh":41,"name":"CSGBakedMeshInstance3D2"},{"extensions":{"OMI_physics_body":{"collider":{"shape":4}}},"name":"CollisionShape3D8"},{"children":[68,71],"name":"Module_c2c2","rotation":[0.0,-0.3187773525714874,0.0,0.9478296041488647],"translation":[-7.799045085906982,0.10000000149011612,-7.655963897705078]},{"children":[69,70],"extensions":{"OMI_physics_body":{"motion":{"type":"static"}}},"name":"StaticBody3D3"},{"mesh":43,"name":"CSGBakedMeshInstance3D3"},{"extensions":{"OMI_physics_body":{"collider":{"shape":5}}},"name":"CollisionShape3D9"},{"children":[72,74],"extensions":{"OMI_physics_body":{"motion":{"type":"static"}}},"name":"Barrel_big","rotation":[0.0,0.0,-0.7658537030220032,0.6430148482322693],"translation":[1.2658768892288208,1.0820492506027222,0.6840699911117554]},{"children":[73],"name":"sm_barrel_stand_c6"},{"mesh":45,"name":"sm_barrel_stand_c"},{"extensions":{"OMI_physics_body":{"collider":{"shape":6}}},"name":"CollisionShape3D10"},{"children":[76,79,83,87,91,104],"name":"Module_s2s_v2","rotation":[0.0,0.9673672914505005,0.0,0.2533782124519348],"translation":[-8.125616073608398,0.19999952614307404,-6.07238245010376]},{"children":[77,78],"extensions":{"OMI_physics_body":{"motion":{"type":"static"}}},"name":"StaticBody3D4","translation":[0.0,0.20000000298023224,0.0]},{"mesh":47,"name":"CSGBakedMeshInstance3D4"},{"extensions":{"OMI_physics_body":{"collider":{"shape":7}}},"name":"CollisionShape3D11"},{"children":[80,82],"extensions":{"OMI_physics_body":{"motion":{"type":"static"}}},"name":"PlankSimple","rotation":[0.02144203707575798,0.7248715758323669,0.05349986255168915,0.6864686012268066],"translation":[2.4948291778564453,1.307713508605957,1.0477263927459717]},{"children":[81],"name":"sm_plank75"},{"mesh":49,"name":"sm_plank5"},{"extensions":{"OMI_physics_body":{"collider":{"shape":1}}},"name":"CollisionShape3D12","translation":[0.004385568201541901,0.028488675132393837,-0.7622723579406738]},{"children":[84,86],"extensions":{"OMI_physics_body":{"motion":{"type":"static"}}},"name":"BagSimple5","rotation":[0.020020199939608574,-0.008694585412740707,-0.0729447603225708,0.9970971345901489],"translation":[2.064856767654419,0.4319922626018524,0.6772241592407227]},{"children":[85],"name":"sm_bag2"},{"mesh":50,"name":"sm_bag"},{"extensions":{"OMI_physics_body":{"collider":{"shape":8}}},"name":"CollisionShape3D13"},{"children":[88,90],"extensions":{"OMI_physics_body":{"motion":{"type":"static"}}},"name":"BagSimple4","rotation":[-0.009786260314285755,0.022129293531179428,0.8772703409194946,0.47938641905784607],"translation":[1.7029999494552612,0.9369999766349792,0.578000009059906]},{"children":[89],"name":"sm_bag22"},{"mesh":52,"name":"sm_bag3"},{"extensions":{"OMI_physics_body":{"collider":{"shape":8}}},"name":"CollisionShape3D14"},{"children":[92,96,100],"name":"Ramp","rotation":[-0.0342642106115818,0.724378764629364,0.0006469294312410057,0.6885499358177185],"translation":[2.4705872535705566,1.2945102453231812,0.5686100125312805]},{"children":[93,95],"extensions":{"OMI_physics_body":{"motion":{"type":"static"}}},"name":"PlankSimple2"},{"children":[94],"name":"sm_plank76"},{"mesh":53,"name":"sm_plank6"},{"extensions":{"OMI_physics_body":{"collider":{"shape":1}}},"name":"CollisionShape3D15","translation":[0.004385568201541901,0.028488675132393837,-0.7622723579406738]},{"children":[97,99],"extensions":{"OMI_physics_body":{"motion":{"type":"static"}}},"name":"PlankSimple22","translation":[-0.23533041775226593,0.0,0.0]},{"children":[98],"name":"sm_plank77"},{"mesh":54,"name":"sm_plank8"},{"extensions":{"OMI_physics_body":{"collider":{"shape":1}}},"name":"CollisionShape3D16","translation":[0.004385568201541901,0.028488675132393837,-0.7622723579406738]},{"children":[101,103],"extensions":{"OMI_physics_body":{"motion":{"type":"static"}}},"name":"PlankSimple3","translation":[0.23970548808574677,0.0,0.0]},{"children":[102],"name":"sm_plank78"},{"mesh":55,"name":"sm_plank9"},{"extensions":{"OMI_physics_body":{"collider":{"shape":1}}},"name":"CollisionShape3D17","translation":[0.004385568201541901,0.028488675132393837,-0.7622723579406738]},{"children":[105,106],"extensions":{"OMI_physics_body":{"motion":{"type":"static"}}},"name":"Dirt_pile","rotation":[0.0,-0.5015107989311218,0.0,0.8651514053344727],"translation":[3.5628795623779297,-0.1278972327709198,-0.4696216583251953]},{"extensions":{"OMI_physics_body":{"collider":{"shape":9}}},"name":"sm_dirt_cluster_02_collision"},{"children":[107],"name":"sm_dirt_cluster_02"},{"mesh":57,"name":"sm_dirt_cluster_022"}],"scene":0,"scenes":[{"nodes":[0]}]}