{"accessors":[{"bufferView":0,"componentType":5126,"count":144,"max":[3.200000047683716,0.7055964469909668,1.0],"min":[-0.09374556690454483,0.0,0.0],"normalized":false,"type":"VEC3"},{"bufferView":1,"componentType":5126,"count":144,"max":[0.999859094619751,0.9997861385345459,0.9659245610237122,1.0],"min":[-0.9744019508361816,-0.9805861711502075,-1.0,-1.0],"normalized":false,"type":"VEC4"},{"bufferView":2,"componentType":5126,"count":144,"max":[0.9805848598480225,0.931623637676239,1.0],"min":[-0.8694734573364258,-1.0,-1.0],"normalized":false,"type":"VEC3"},{"bufferView":3,"componentType":5126,"count":144,"max":[4.660681247711182,1.0],"min":[0.0,0.0],"normalized":false,"type":"VEC2"},{"bufferView":4,"componentType":5121,"count":144,"max":[143],"min":[0],"normalized":false,"type":"SCALAR"},{"bufferView":5,"componentType":5126,"count":144,"max":[3.1999998092651367,0.7055999636650085,1.0],"min":[-0.09369999915361404,0.0,0.0],"normalized":false,"type":"VEC3"},{"bufferView":6,"componentType":5126,"count":88,"max":[0.12041204422712326,0.05805208534002304,0.0001728534698486328],"min":[-0.11164090782403946,-0.0010747332125902176,-1.5247175693511963],"normalized":false,"type":"VEC3"},{"bufferView":7,"componentType":5126,"count":88,"max":[0.01505190134048462,1.0,-1.9441358745098114e-08,1.0],"min":[-0.0010913312435150146,-1.0,-0.9999960064888,1.0],"normalized":false,"type":"VEC4"},{"bufferView":8,"componentType":5126,"count":88,"max":[0.9999997615814209,0.9999940991401672,0.9999988079071045],"min":[-0.9999997615814209,-0.9999940395355225,-0.9998323321342468],"normalized":false,"type":"VEC3"},{"bufferView":9,"componentType":5126,"count":88,"max":[0.8749980926513672,1.0],"min":[0.12498664855957031,0.0],"normalized":false,"type":"VEC2"},{"bufferView":10,"componentType":5121,"count":132,"max":[87],"min":[0],"normalized":false,"type":"SCALAR"},{"bufferView":11,"componentType":5126,"count":942,"max":[4.523571014404297,1.9954020977020264,1.399999976158142],"min":[0.0,0.0,0.0],"normalized":false,"type":"VEC3"},{"bufferView":12,"componentType":5126,"count":942,"max":[0.9993531703948975,0.28500574827194214,0.23082292079925537,1.0],"min":[-1.0,-1.0,-1.0,-1.0],"normalized":false,"type":"VEC4"},{"bufferView":13,"componentType":5126,"count":942,"max":[0.9925540089607239,0.9993637204170227,1.0],"min":[-1.0,-1.0,-1.0],"normalized":false,"type":"VEC3"},{"bufferView":14,"componentType":5126,"count":942,"max":[5.851809978485107,1.0],"min":[0.0,0.0],"normalized":false,"type":"VEC2"},{"bufferView":15,"componentType":5123,"count":942,"max":[941],"min":[0],"normalized":false,"type":"SCALAR"},{"bufferView":16,"componentType":5126,"count":942,"max":[4.523600101470947,1.9953999519348145,1.399999976158142],"min":[0.0,0.0,0.0],"normalized":false,"type":"VEC3"},{"bufferView":17,"componentType":5126,"count":858,"max":[4.498989105224609,1.1021156311035156,1.4014288187026978],"min":[-1.5962417819537222e-05,-0.19983339309692383,-0.0024205169174820185],"normalized":false,"type":"VEC3"},{"bufferView":18,"componentType":5126,"count":858,"max":[0.9990873336791992,1.0,0.9999909400939941,1.0],"min":[-0.998040497303009,-0.9221205115318298,-1.0,-1.0],"normalized":false,"type":"VEC4"},{"bufferView":19,"componentType":5126,"count":858,"max":[0.9936519265174866,0.9997923374176025,1.0],"min":[-1.0,-1.0,-1.0],"normalized":false,"type":"VEC3"},{"bufferView":20,"componentType":5126,"count":858,"max":[1.0045350790023804,0.9996998906135559],"min":[0.0006897595012560487,-1.5254209756676573e-05],"normalized":false,"type":"VEC2"},{"bufferView":21,"componentType":5123,"count":3612,"max":[857],"min":[0],"normalized":false,"type":"SCALAR"},{"bufferView":22,"componentType":5126,"count":78,"max":[0.10125509649515152,0.019117118790745735,0.10070344060659409],"min":[-0.09975891560316086,-0.01609080471098423,-0.10070344060659409],"normalized":false,"type":"VEC3"},{"bufferView":23,"componentType":5126,"count":78,"max":[0.9999991655349731,0.9992510080337524,0.6989731788635254,1.0],"min":[-0.7078242301940918,-0.9975872039794922,-0.7068979740142822,1.0],"normalized":false,"type":"VEC4"},{"bufferView":24,"componentType":5126,"count":78,"max":[0.9967890977859497,0.9994520545005798,1.0],"min":[-0.9987176656723022,-0.08011610060930252,-1.0],"normalized":false,"type":"VEC3"},{"bufferView":25,"componentType":5126,"count":78,"max":[0.6066834330558777,0.6070801615715027],"min":[0.5592278838157654,0.5532768964767456],"normalized":false,"type":"VEC2"},{"bufferView":26,"componentType":5121,"count":114,"max":[77],"min":[0],"normalized":false,"type":"SCALAR"},{"bufferView":27,"componentType":5126,"count":104,"max":[0.120110422372818,0.03254812955856323,0.07787355035543442],"min":[-0.08163151144981384,-0.032630421221256256,-0.11148158460855484],"normalized":false,"type":"VEC3"},{"bufferView":28,"componentType":5126,"count":104,"max":[0.9977127909660339,0.9995532035827637,0.39767295122146606,1.0],"min":[-0.2909753620624542,-0.997900664806366,-0.46705713868141174,-1.0],"normalized":false,"type":"VEC4"},{"bufferView":29,"componentType":5126,"count":104,"max":[0.9991357922554016,0.9951841235160828,0.9802239537239075],"min":[-0.999514102935791,-0.041647762060165405,-1.0],"normalized":false,"type":"VEC3"},{"bufferView":30,"componentType":5126,"count":104,"max":[0.37311360239982605,0.6815289258956909],"min":[0.30638590455055237,0.6293125748634338],"normalized":false,"type":"VEC2"},{"bufferView":31,"componentType":5121,"count":150,"max":[103],"min":[0],"normalized":false,"type":"SCALAR"},{"bufferView":32,"componentType":5126,"count":78,"max":[0.9999991655349731,0.9992510080337524,0.6989731788635254,1.0],"min":[-0.7078242301940918,-0.9975872039794922,-0.7068979740142822,1.0],"normalized":false,"type":"VEC4"},{"bufferView":33,"componentType":5126,"count":78,"max":[0.9967890977859497,0.9994527697563171,1.0],"min":[-0.9987176656723022,-0.08011610060930252,-1.0],"normalized":false,"type":"VEC3"},{"bufferView":34,"componentType":5126,"count":78,"max":[0.9999991655349731,0.9992510080337524,0.6989731788635254,1.0],"min":[-0.7078242301940918,-0.9975872039794922,-0.7068979740142822,1.0],"normalized":false,"type":"VEC4"},{"bufferView":35,"componentType":5126,"count":78,"max":[0.9967890977859497,0.9994520545005798,1.0],"min":[-0.9987176656723022,-0.08011610060930252,-1.0],"normalized":false,"type":"VEC3"},{"bufferView":36,"componentType":5126,"count":180,"max":[4.516172885894775,1.0854605436325073,1.4049948453903198],"min":[-3.932524577976437e-06,-0.20000603795051575,3.211604052921757e-06],"normalized":false,"type":"VEC3"},{"bufferView":37,"componentType":5121,"count":180,"max":[179],"min":[0],"normalized":false,"type":"SCALAR"},{"bufferView":38,"componentType":5126,"count":630,"max":[0.6194376349449158,1.401857614517212,0.6194375157356262],"min":[-0.6194372773170471,0.0,-0.6194375157356262],"normalized":false,"type":"VEC3"},{"bufferView":39,"componentType":5126,"count":630,"max":[1.0,0.9743152260780334,0.9999997615814209,1.0],"min":[-0.9990692734718323,-0.9743381142616272,-0.9995372295379639,-1.0],"normalized":false,"type":"VEC4"},{"bufferView":40,"componentType":5126,"count":630,"max":[0.9976979494094849,1.0,0.9958682060241699],"min":[-0.9958692789077759,-1.0,-0.9962517023086548],"normalized":false,"type":"VEC3"},{"bufferView":41,"componentType":5126,"count":630,"max":[1.0,0.9899900555610657],"min":[0.0,0.0],"normalized":false,"type":"VEC2"},{"bufferView":42,"componentType":5123,"count":630,"max":[629],"min":[0],"normalized":false,"type":"SCALAR"},{"bufferView":43,"componentType":5126,"count":396,"max":[0.6194376349449158,1.401857614517212,0.5846851468086243],"min":[-0.5199999809265137,0.1410156488418579,-0.5846914052963257],"normalized":false,"type":"VEC3"},{"bufferView":44,"componentType":5126,"count":396,"max":[1.0,0.8414778709411621,1.0,1.0],"min":[-1.0,-0.88826984167099,-0.9978125691413879,-1.0],"normalized":false,"type":"VEC4"},{"bufferView":45,"componentType":5126,"count":396,"max":[0.998537540435791,1.0,0.9950891137123108],"min":[-0.9978113770484924,-1.0,-1.0],"normalized":false,"type":"VEC3"},{"bufferView":46,"componentType":5126,"count":396,"max":[1.0,1.0],"min":[0.0,0.0],"normalized":false,"type":"VEC2"},{"bufferView":47,"componentType":5123,"count":396,"max":[395],"min":[0],"normalized":false,"type":"SCALAR"},{"bufferView":48,"componentType":5126,"count":1026,"max":[0.6193999648094177,1.4018999338150024,0.6193999648094177],"min":[-0.6193999648094177,0.0,-0.6193999648094177],"normalized":false,"type":"VEC3"},{"bufferView":49,"componentType":5123,"count":1026,"max":[1025],"min":[0],"normalized":false,"type":"SCALAR"},{"bufferView":50,"componentType":5126,"count":732,"max":[4.065645217895508,1.156325101852417,1.4014288187026978],"min":[-1.5962417819537222e-05,-0.19983327388763428,-0.0024205169174820185],"normalized":false,"type":"VEC3"},{"bufferView":51,"componentType":5126,"count":732,"max":[1.0,1.0,0.9999973773956299,1.0],"min":[-0.9081845283508301,-0.893356204032898,-1.0,-1.0],"normalized":false,"type":"VEC4"},{"bufferView":52,"componentType":5126,"count":732,"max":[0.9965938925743103,0.9998949766159058,1.0],"min":[-1.0,-1.0,-1.0],"normalized":false,"type":"VEC3"},{"bufferView":53,"componentType":5126,"count":732,"max":[0.9937887191772461,1.0],"min":[0.0,1.1920928955078125e-07],"normalized":false,"type":"VEC2"},{"bufferView":54,"componentType":5123,"count":3000,"max":[731],"min":[0],"normalized":false,"type":"SCALAR"},{"bufferView":55,"componentType":5126,"count":150,"max":[4.0564188957214355,1.0885964632034302,1.4000015258789063],"min":[-3.933906555175781e-06,-0.19983327388763428,3.32098784383561e-06],"normalized":false,"type":"VEC3"},{"bufferView":56,"componentType":5121,"count":150,"max":[149],"min":[0],"normalized":false,"type":"SCALAR"},{"bufferView":57,"componentType":5126,"count":2220,"max":[4.5718231201171875,1.7540016174316406,1.399999976158142],"min":[0.0,-0.19999998807907104,0.0],"normalized":false,"type":"VEC3"},{"bufferView":58,"componentType":5126,"count":2220,"max":[1.0,0.9284427762031555,0.9995074272155762,1.0],"min":[-1.0,-1.0,-1.0,-1.0],"normalized":false,"type":"VEC4"},{"bufferView":59,"componentType":5126,"count":2220,"max":[0.9925498962402344,0.9991639256477356,1.0],"min":[-1.0,-1.0,-1.0],"normalized":false,"type":"VEC3"},{"bufferView":60,"componentType":5126,"count":2220,"max":[7.045695781707764,1.0],"min":[0.0,0.0],"normalized":false,"type":"VEC2"},{"bufferView":61,"componentType":5123,"count":2220,"max":[2219],"min":[0],"normalized":false,"type":"SCALAR"},{"bufferView":62,"componentType":5126,"count":2220,"max":[4.5717997550964355,1.753999948501587,1.399999976158142],"min":[0.0,-0.19999998807907104,0.0],"normalized":false,"type":"VEC3"},{"bufferView":63,"componentType":5126,"count":308,"max":[0.3547525107860565,0.3305619955062866,0.5604193210601807],"min":[-0.3398107588291168,-0.012891738675534725,-0.5655393600463867],"normalized":false,"type":"VEC3"},{"bufferView":64,"componentType":5126,"count":308,"max":[0.9999380707740784,0.9999473094940186,0.9640836715698242,1.0],"min":[-0.9999294281005859,-0.5032282471656799,-0.9660855531692505,1.0],"normalized":false,"type":"VEC4"},{"bufferView":65,"componentType":5126,"count":308,"max":[0.9995425939559937,0.9999938607215881,0.9699578285217285],"min":[-0.9999634027481079,-0.9999872446060181,-0.9534992575645447],"normalized":false,"type":"VEC3"},{"bufferView":66,"componentType":5126,"count":308,"max":[0.8750001192092896,1.0],"min":[0.1249847263097763,-1.52587890625e-05],"normalized":false,"type":"VEC2"},{"bufferView":67,"componentType":5123,"count":1008,"max":[307],"min":[0],"normalized":false,"type":"SCALAR"},{"bufferView":68,"componentType":5126,"count":180,"max":[0.34654393792152405,0.3192644715309143,0.5490784645080566],"min":[-0.3279842436313629,-0.010423125699162483,-0.5519843697547913],"normalized":false,"type":"VEC3"},{"bufferView":69,"componentType":5126,"count":96,"max":[1.8712999820709229,0.604699969291687,1.855699896812439],"min":[-1.1971999406814575,0.030399998649954796,-1.2561999559402466],"normalized":false,"type":"VEC3"},{"bufferView":70,"componentType":5121,"count":96,"max":[95],"min":[0],"normalized":false,"type":"SCALAR"},{"bufferView":71,"componentType":5126,"count":32,"max":[1.8712551593780518,0.6047436594963074,1.855676293373108],"min":[-1.197232961654663,0.03039298951625824,-1.2561577558517456],"normalized":false,"type":"VEC3"},{"bufferView":72,"componentType":5126,"count":32,"max":[0.9927983283996582,0.3418002426624298,0.5897350311279297,1.0],"min":[0.7479417324066162,-0.3548431694507599,-0.6637529134750366,1.0],"normalized":false,"type":"VEC4"},{"bufferView":73,"componentType":5126,"count":32,"max":[0.38060474395751953,0.9967676401138306,0.23110182583332062],"min":[-0.33847159147262573,0.7440114617347717,-0.6575636267662048],"normalized":false,"type":"VEC3"},{"bufferView":74,"componentType":5126,"count":32,"max":[1.0000001192092896,1.0],"min":[-1.5258790881489404e-05,-1.52587890625e-05],"normalized":false,"type":"VEC2"},{"bufferView":75,"componentType":5121,"count":96,"max":[31],"min":[0],"normalized":false,"type":"SCALAR"}],"asset":{"generator":"Godot Engine v4.6.3.stable.official@7d41c59c457bd5a245092b4e7eb2d833e3b3f8c3","version":"2.0"},"bufferViews":[{"buffer":0,"byteLength":1728,"byteStride":12,"target":34962},{"buffer":0,"byteLength":2304,"byteOffset":1728,"byteStride":16,"target":34962},{"buffer":0,"byteLength":1728,"byteOffset":4032,"byteStride":12,"target":34962},{"buffer":0,"byteLength":1152,"byteOffset":5760,"byteStride":8,"target":34962},{"buffer":0,"byteLength":144,"byteOffset":6912,"target":34963},{"buffer":0,"byteLength":1728,"byteOffset":7056,"byteStride":12,"target":34962},{"buffer":0,"byteLength":1056,"byteOffset":8784,"byteStride":12,"target":34962},{"buffer":0,"byteLength":1408,"byteOffset":9840,"byteStride":16,"target":34962},{"buffer":0,"byteLength":1056,"byteOffset":11248,"byteStride":12,"target":34962},{"buffer":0,"byteLength":704,"byteOffset":12304,"byteStride":8,"target":34962},{"buffer":0,"byteLength":132,"byteOffset":13008,"target":34963},{"buffer":0,"byteLength":11304,"byteOffset":13140,"byteStride":12,"target":34962},{"buffer":0,"byteLength":15072,"byteOffset":24444,"byteStride":16,"target":34962},{"buffer":0,"byteLength":11304,"byteOffset":39516,"byteStride":12,"target":34962},{"buffer":0,"byteLength":7536,"byteOffset":50820,"byteStride":8,"target":34962},{"buffer":0,"byteLength":1884,"byteOffset":58356,"target":34963},{"buffer":0,"byteLength":11304,"byteOffset":60240,"byteStride":12,"target":34962},{"buffer":0,"byteLength":10296,"byteOffset":71544,"byteStride":12,"target":34962},{"buffer":0,"byteLength":13728,"byteOffset":81840,"byteStride":16,"target":34962},{"buffer":0,"byteLength":10296,"byteOffset":95568,"byteStride":12,"target":34962},{"buffer":0,"byteLength":6864,"byteOffset":105864,"byteStride":8,"target":34962},{"buffer":0,"byteLength":7224,"byteOffset":112728,"target":34963},{"buffer":0,"byteLength":936,"byteOffset":119952,"byteStride":12,"target":34962},{"buffer":0,"byteLength":1248,"byteOffset":120888,"byteStride":16,"target":34962},{"buffer":0,"byteLength":936,"byteOffset":122136,"byteStride":12,"target":34962},{"buffer":0,"byteLength":624,"byteOffset":123072,"byteStride":8,"target":34962},{"buffer":0,"byteLength":114,"byteOffset":123696,"target":34963},{"buffer":0,"byteLength":1248,"byteOffset":123812,"byteStride":12,"target":34962},{"buffer":0,"byteLength":1664,"byteOffset":125060,"byteStride":16,"target":34962},{"buffer":0,"byteLength":1248,"byteOffset":126724,"byteStride":12,"target":34962},{"buffer":0,"byteLength":832,"byteOffset":127972,"byteStride":8,"target":34962},{"buffer":0,"byteLength":150,"byteOffset":128804,"target":34963},{"buffer":0,"byteLength":1248,"byteOffset":128956,"byteStride":16,"target":34962},{"buffer":0,"byteLength":936,"byteOffset":130204,"byteStride":12,"target":34962},{"buffer":0,"byteLength":1248,"byteOffset":131140,"byteStride":16,"target":34962},{"buffer":0,"byteLength":936,"byteOffset":132388,"byteStride":12,"target":34962},{"buffer":0,"byteLength":2160,"byteOffset":133324,"byteStride":12,"target":34962},{"buffer":0,"byteLength":180,"byteOffset":135484,"target":34963},{"buffer":0,"byteLength":7560,"byteOffset":135664,"byteStride":12,"target":34962},{"buffer":0,"byteLength":10080,"byteOffset":143224,"byteStride":16,"target":34962},{"buffer":0,"byteLength":7560,"byteOffset":153304,"byteStride":12,"target":34962},{"buffer":0,"byteLength":5040,"byteOffset":160864,"byteStride":8,"target":34962},{"buffer":0,"byteLength":1260,"byteOffset":165904,"target":34963},{"buffer":0,"byteLength":4752,"byteOffset":167164,"byteStride":12,"target":34962},{"buffer":0,"byteLength":6336,"byteOffset":171916,"byteStride":16,"target":34962},{"buffer":0,"byteLength":4752,"byteOffset":178252,"byteStride":12,"target":34962},{"buffer":0,"byteLength":3168,"byteOffset":183004,"byteStride":8,"target":34962},{"buffer":0,"byteLength":792,"byteOffset":186172,"target":34963},{"buffer":0,"byteLength":12312,"byteOffset":186964,"byteStride":12,"target":34962},{"buffer":0,"byteLength":2052,"byteOffset":199276,"target":34963},{"buffer":0,"byteLength":8784,"byteOffset":201328,"byteStride":12,"target":34962},{"buffer":0,"byteLength":11712,"byteOffset":210112,"byteStride":16,"target":34962},{"buffer":0,"byteLength":8784,"byteOffset":221824,"byteStride":12,"target":34962},{"buffer":0,"byteLength":5856,"byteOffset":230608,"byteStride":8,"target":34962},{"buffer":0,"byteLength":6000,"byteOffset":236464,"target":34963},{"buffer":0,"byteLength":1800,"byteOffset":242464,"byteStride":12,"target":34962},{"buffer":0,"byteLength":150,"byteOffset":244264,"target":34963},{"buffer":0,"byteLength":26640,"byteOffset":244416,"byteStride":12,"target":34962},{"buffer":0,"byteLength":35520,"byteOffset":271056,"byteStride":16,"target":34962},{"buffer":0,"byteLength":26640,"byteOffset":306576,"byteStride":12,"target":34962},{"buffer":0,"byteLength":17760,"byteOffset":333216,"byteStride":8,"target":34962},{"buffer":0,"byteLength":4440,"byteOffset":350976,"target":34963},{"buffer":0,"byteLength":26640,"byteOffset":355416,"byteStride":12,"target":34962},{"buffer":0,"byteLength":3696,"byteOffset":382056,"byteStride":12,"target":34962},{"buffer":0,"byteLength":4928,"byteOffset":385752,"byteStride":16,"target":34962},{"buffer":0,"byteLength":3696,"byteOffset":390680,"byteStride":12,"target":34962},{"buffer":0,"byteLength":2464,"byteOffset":394376,"byteStride":8,"target":34962},{"buffer":0,"byteLength":2016,"byteOffset":396840,"target":34963},{"buffer":0,"byteLength":2160,"byteOffset":398856,"byteStride":12,"target":34962},{"buffer":0,"byteLength":1152,"byteOffset":401016,"byteStride":12,"target":34962},{"buffer":0,"byteLength":96,"byteOffset":402168,"target":34963},{"buffer":0,"byteLength":384,"byteOffset":402264,"byteStride":12,"target":34962},{"buffer":0,"byteLength":512,"byteOffset":402648,"byteStride":16,"target":34962},{"buffer":0,"byteLength":384,"byteOffset":403160,"byteStride":12,"target":34962},{"buffer":0,"byteLength":256,"byteOffset":403544,"byteStride":8,"target":34962},{"buffer":0,"byteLength":96,"byteOffset":403800,"target":34963}],"buffers":[{"byteLength":403896,"uri":"damage_020.bin"}],"extensions":{"OMI_physics_shape":{"shapes":[{"trimesh":{"mesh":1},"type":"trimesh"},{"box":{"size":[0.23205295205116272,0.05912681668996811,1.524890422821045]},"type":"box"},{"trimesh":{"mesh":5},"type":"trimesh"},{"trimesh":{"mesh":18},"type":"trimesh"},{"trimesh":{"mesh":21},"type":"trimesh"},{"trimesh":{"mesh":28},"type":"trimesh"},{"trimesh":{"mesh":31},"type":"trimesh"},{"convex":{"mesh":34},"type":"convex"},{"trimesh":{"mesh":39},"type":"trimesh"}]}},"extensionsUsed":["GODOT_single_root","OMI_physics_body","OMI_physics_shape"],"materials":[{"name":"prototype_material_barricade","pbrMetallicRoughness":{"baseColorFactor":[0.3942692279815674,0.32777976989746094,0.27036529779434204,1.0],"metallicFactor":0.0,"roughnessFactor":1.0}},{"pbrMetallicRoughness":{"baseColorFactor":[0.7954521179199219,0.4683600664138794,0.22921054065227509,1.0],"metallicFactor":0.0,"roughnessFactor":0.5400000214576721}},{"name":"m_barricade_brick_c2c"},{"name":"wood_proto","pbrMetallicRoughness":{"baseColorFactor":[1.0,1.0,1.0,1.0],"metallicFactor":0.0,"roughnessFactor":0.5400000214576721}},{"pbrMetallicRoughness":{"baseColorFactor":[0.3504874110221863,0.12995237112045288,0.04509969800710678,1.0],"metallicFactor":0.0,"roughnessFactor":0.5400000214576721}},{"pbrMetallicRoughness":{"baseColorFactor":[1.0,1.0,1.0,1.0],"metallicFactor":0.0,"roughnessFactor":1.0}},{"name":"prototype_material_wood_3d","pbrMetallicRoughness":{"baseColorFactor":[0.3452383279800415,0.15727873146533966,0.04437318071722984,1.0],"metallicFactor":0.0,"roughnessFactor":1.0}}],"meshes":[{"primitives":[{"attributes":{"NORMAL":2,"POSITION":0,"TANGENT":1,"TEXCOORD_0":3},"indices":4,"material":0,"mode":4}]},{"primitives":[{"attributes":{"POSITION":5},"indices":4,"mode":4}]},{"name":"sm_plank_Cube_020","primitives":[{"attributes":{"NORMAL":8,"POSITION":6,"TANGENT":7,"TEXCOORD_0":9},"indices":10,"material":1,"mode":4}]},{"name":"sm_plank_Cube_0202","primitives":[{"attributes":{"NORMAL":8,"POSITION":6,"TANGENT":7,"TEXCOORD_0":9},"indices":10,"material":1,"mode":4}]},{"primitives":[{"attributes":{"NORMAL":13,"POSITION":11,"TANGENT":12,"TEXCOORD_0":14},"indices":15,"material":0,"mode":4}]},{"primitives":[{"attributes":{"POSITION":16},"indices":15,"mode":4}]},{"name":"c2c_damaged_l_asset_Mesh_0_032","primitives":[{"attributes":{"NORMAL":19,"POSITION":17,"TANGENT":18,"TEXCOORD_0":20},"indices":21,"material":2,"mode":4}]},{"name":"c2c_damaged_l_asset_Cube_093","primitives":[{"attributes":{"NORMAL":24,"POSITION":22,"TANGENT":23,"TEXCOORD_0":25},"indices":26,"material":2,"mode":4}]},{"name":"c2c_damaged_l_asset_Cube_095","primitives":[{"attributes":{"NORMAL":29,"POSITION":27,"TANGENT":28,"TEXCOORD_0":30},"indices":31,"material":2,"mode":4}]},{"name":"c2c_damaged_l_asset_Cube_0932","primitives":[{"attributes":{"NORMAL":24,"POSITION":22,"TANGENT":23,"TEXCOORD_0":25},"indices":26,"material":2,"mode":4}]},{"name":"c2c_damaged_l_asset_Cube_0933","primitives":[{"attributes":{"NORMAL":33,"POSITION":22,"TANGENT":32,"TEXCOORD_0":25},"indices":26,"material":2,"mode":4}]},{"name":"c2c_damaged_l_asset_Cube_0934","primitives":[{"attributes":{"NORMAL":24,"POSITION":22,"TANGENT":23,"TEXCOORD_0":25},"indices":26,"material":2,"mode":4}]},{"name":"c2c_damaged_l_asset_Cube_0935","primitives":[{"attributes":{"NORMAL":35,"POSITION":22,"TANGENT":34,"TEXCOORD_0":25},"indices":26,"material":2,"mode":4}]},{"name":"c2c_damaged_l_asset_Cube_0936","primitives":[{"attributes":{"NORMAL":24,"POSITION":22,"TANGENT":23,"TEXCOORD_0":25},"indices":26,"material":2,"mode":4}]},{"name":"c2c_damaged_l_asset_Cube_0937","primitives":[{"attributes":{"NORMAL":35,"POSITION":22,"TANGENT":34,"TEXCOORD_0":25},"indices":26,"material":2,"mode":4}]},{"name":"c2c_damaged_l_asset_Cube_0938","primitives":[{"attributes":{"NORMAL":24,"POSITION":22,"TANGENT":23,"TEXCOORD_0":25},"indices":26,"material":2,"mode":4}]},{"name":"c2c_damaged_l_asset_Cube_0939","primitives":[{"attributes":{"NORMAL":35,"POSITION":22,"TANGENT":34,"TEXCOORD_0":25},"indices":26,"material":2,"mode":4}]},{"name":"c2c_damaged_l_asset_Cube_09310","primitives":[{"attributes":{"NORMAL":24,"POSITION":22,"TANGENT":23,"TEXCOORD_0":25},"indices":26,"material":2,"mode":4}]},{"primitives":[{"attributes":{"POSITION":36},"indices":37,"mode":4}]},{"name":"c2c_damaged_l_asset_Cube_09311","primitives":[{"attributes":{"NORMAL":33,"POSITION":22,"TANGENT":32,"TEXCOORD_0":25},"indices":26,"material":2,"mode":4}]},{"primitives":[{"attributes":{"NORMAL":40,"POSITION":38,"TANGENT":39,"TEXCOORD_0":41},"indices":42,"material":3,"mode":4},{"attributes":{"NORMAL":45,"POSITION":43,"TANGENT":44,"TEXCOORD_0":46},"indices":47,"material":4,"mode":4}]},{"primitives":[{"attributes":{"POSITION":48},"indices":49,"mode":4}]},{"name":"c2c_damaged_r_asset_Cube_093","primitives":[{"attributes":{"NORMAL":33,"POSITION":22,"TANGENT":32,"TEXCOORD_0":25},"indices":26,"material":2,"mode":4}]},{"name":"c2c_damaged_r_asset_Cube_0932","primitives":[{"attributes":{"NORMAL":24,"POSITION":22,"TANGENT":23,"TEXCOORD_0":25},"indices":26,"material":2,"mode":4}]},{"name":"c2c_damaged_r_asset_Cube_0933","primitives":[{"attributes":{"NORMAL":35,"POSITION":22,"TANGENT":34,"TEXCOORD_0":25},"indices":26,"material":2,"mode":4}]},{"name":"c2c_damaged_r_asset_Cube_0934","primitives":[{"attributes":{"NORMAL":24,"POSITION":22,"TANGENT":23,"TEXCOORD_0":25},"indices":26,"material":2,"mode":4}]},{"name":"c2c_damaged_r_asset_Cube_0935","primitives":[{"attributes":{"NORMAL":35,"POSITION":22,"TANGENT":34,"TEXCOORD_0":25},"indices":26,"material":2,"mode":4}]},{"name":"c2c_damaged_r_asset_Mesh_0_034","primitives":[{"attributes":{"NORMAL":52,"POSITION":50,"TANGENT":51,"TEXCOORD_0":53},"indices":54,"material":2,"mode":4}]},{"primitives":[{"attributes":{"POSITION":55},"indices":56,"mode":4}]},{"primitives":[{"attributes":{"NORMAL":40,"POSITION":38,"TANGENT":39,"TEXCOORD_0":41},"indices":42,"material":3,"mode":4},{"attributes":{"NORMAL":45,"POSITION":43,"TANGENT":44,"TEXCOORD_0":46},"indices":47,"material":4,"mode":4}]},{"primitives":[{"attributes":{"NORMAL":59,"POSITION":57,"TANGENT":58,"TEXCOORD_0":60},"indices":61,"material":0,"mode":4}]},{"primitives":[{"attributes":{"POSITION":62},"indices":61,"mode":4}]},{"name":"sm_plank_Cube_0203","primitives":[{"attributes":{"NORMAL":8,"POSITION":6,"TANGENT":7,"TEXCOORD_0":9},"indices":10,"material":1,"mode":4}]},{"name":"sm_bag_Cube_013","primitives":[{"attributes":{"NORMAL":65,"POSITION":63,"TANGENT":64,"TEXCOORD_0":66},"indices":67,"material":5,"mode":4}]},{"primitives":[{"attributes":{"POSITION":68},"indices":37,"mode":4}]},{"name":"sm_bag_Cube_0132","primitives":[{"attributes":{"NORMAL":65,"POSITION":63,"TANGENT":64,"TEXCOORD_0":66},"indices":67,"material":5,"mode":4}]},{"name":"sm_plank_Cube_0204","primitives":[{"attributes":{"NORMAL":8,"POSITION":6,"TANGENT":7,"TEXCOORD_0":9},"indices":10,"material":1,"mode":4}]},{"name":"sm_plank_Cube_0205","primitives":[{"attributes":{"NORMAL":8,"POSITION":6,"TANGENT":7,"TEXCOORD_0":9},"indices":10,"material":1,"mode":4}]},{"name":"sm_plank_Cube_0206","primitives":[{"attributes":{"NORMAL":8,"POSITION":6,"TANGENT":7,"TEXCOORD_0":9},"indices":10,"material":1,"mode":4}]},{"primitives":[{"attributes":{"POSITION":69},"indices":70,"mode":4}]},{"name":"sm_dirt_cluster_02_Plane_002","primitives":[{"attributes":{"NORMAL":73,"POSITION":71,"TANGENT":72,"TEXCOORD_0":74},"indices":75,"material":6,"mode":4}]}],"nodes":[{"children":[1],"name":"Node3D"},{"children":[2,14,18,39,53],"name":"Damaged2"},{"children":[3,6,10],"name":"Module_s2c_destroyed","rotation":[0.0,-0.6561710238456726,0.0,0.7546122074127197],"translation":[-4.788593769073486,0.10000000149011612,-4.5580549240112305]},{"children":[4,5],"extensions":{"OMI_physics_body":{"motion":{"type":"static"}}},"name":"StaticBody3D"},{"mesh":0,"name":"CSGBakedMeshInstance3D"},{"extensions":{"OMI_physics_body":{"collider":{"shape":0}}},"name":"CollisionShape3D"},{"children":[7,9],"extensions":{"OMI_physics_body":{"motion":{"type":"static"}}},"name":"PlankSimple3","rotation":[-1.6646223954808193e-08,0.8713979721069336,-5.95338107700627e-08,0.490576833486557],"translation":[0.2653149664402008,-2.384185791015625e-07,2.2915260791778564]},{"children":[8],"name":"sm_plank7"},{"mesh":2,"name":"sm_plank"},{"extensions":{"OMI_physics_body":{"collider":{"shape":1}}},"name":"CollisionShape3D2","translation":[0.004385568201541901,0.028488675132393837,-0.7622723579406738]},{"children":[11,13],"extensions":{"OMI_physics_body":{"motion":{"type":"static"}}},"name":"PlankSimple4","rotation":[0.0,0.5584836006164551,0.0,0.8295155763626099],"translation":[-0.762060821056366,2.384185791015625e-07,-0.10391807556152344]},{"children":[12],"name":"sm_plank72"},{"mesh":3,"name":"sm_plank2"},{"extensions":{"OMI_physics_body":{"collider":{"shape":1}}},"name":"CollisionShape3D3","translation":[0.004385568201541901,0.028488675132393837,-0.7622723579406738]},{"children":[15],"name":"Module_f2s","rotation":[0.0,0.8486857414245605,0.0,0.5288975834846497],"translation":[-0.8351413011550903,0.10000047832727432,5.2754716873168945]},{"children":[16,17],"extensions":{"OMI_physics_body":{"motion":{"type":"static"}}},"name":"StaticBody3D2"},{"mesh":4,"name":"CSGBakedMeshInstance3D2"},{"extensions":{"OMI_physics_body":{"collider":{"shape":2}}},"name":"CollisionShape3D4"},{"children":[19,35],"name":"Module_c2c_damaged","rotation":[0.0,0.9069336652755737,0.0,0.421273410320282],"translation":[-2.676999568939209,0.10000000149011612,1.7299997806549072]},{"children":[20,21,22,23,24,25,26,27,28,29,30,31,32,34],"name":"c2c_damaged_l_asset2"},{"mesh":6,"name":"c2c_damaged_l_asset"},{"mesh":7,"name":"pave_add_02_065","rotation":[-0.0611225888133049,0.0007142489776015282,0.05368177220225334,0.9966853857040405],"translation":[3.6704673767089844,0.3103179931640625,0.7565038204193115]},{"mesh":8,"name":"pave_add_01_056","rotation":[-0.0028437376022338867,-0.0015051191439852118,0.057160135358572006,0.9983597993850708],"translation":[3.8510689735412598,0.31418848037719727,0.5341406464576721]},{"mesh":9,"name":"pave_add_02_066","rotation":[-0.05378396064043045,-0.002209228929132223,-0.028703445568680763,0.9981375336647034],"translation":[3.0656850337982178,0.2937988042831421,0.5729931592941284]},{"mesh":10,"name":"pave_add_02_067","rotation":[0.08143537491559982,-0.0061927433125674725,-0.03054666705429554,0.996191143989563],"translation":[3.2913615703582764,0.2853738069534302,0.33689624071121216]},{"mesh":11,"name":"pave_add_02_068","rotation":[-0.06094346195459366,0.01908097229897976,-0.28332242369651794,0.9568961262702942],"translation":[3.097388744354248,0.3556647300720215,1.0005877017974854]},{"mesh":12,"name":"pave_add_02_069","rotation":[0.012927187606692314,0.017105933278799057,0.015701955184340477,0.999646782875061],"translation":[0.4439234137535095,1.02909517288208,0.5181992053985596]},{"mesh":13,"name":"pave_add_02_070","rotation":[-0.06526555866003036,0.017323631793260574,-0.10615541785955429,0.9920541048049927],"translation":[0.6290998458862305,1.0376503467559814,0.8753421902656555]},{"mesh":14,"name":"pave_add_02_071","rotation":[-0.06609548628330231,0.02554393745958805,0.016038041561841965,0.9973573088645935],"translation":[0.26442858576774597,1.0448625087738037,0.9874467849731445]},{"mesh":15,"name":"pave_add_02_072","rotation":[0.06968965381383896,0.02780040167272091,0.01726488582789898,0.9970318078994751],"translation":[0.27843159437179565,1.0437138080596924,0.33481037616729736]},{"mesh":16,"name":"pave_add_02_073","rotation":[0.16350513696670532,0.9845855832099915,-0.017847590148448944,-0.05948730930685997],"translation":[0.8491221070289612,1.0665326118469238,0.26409611105918884]},{"mesh":17,"name":"pave_add_02_074","rotation":[-0.07137664407491684,-0.0020904086995869875,-0.0234843697398901,0.9971707463264465],"translation":[3.268228530883789,0.30968135595321655,0.7776432633399963]},{"children":[33],"extensions":{"OMI_physics_body":{"motion":{"type":"static"}}},"name":"_StaticBody3D_71374"},{"extensions":{"OMI_physics_body":{"collider":{"shape":3}}},"name":"CollisionShape3D5"},{"mesh":19,"name":"pave_add_02_075","rotation":[-0.05479317158460617,-0.07887118309736252,0.03500008583068848,0.9947623014450073],"translation":[3.6820273399353027,0.3315068483352661,0.9742767810821533]},{"children":[36],"name":"BarrelBigDestroyed","rotation":[0.7660444378852844,0.6427876353263855,-3.34848664351739e-08,-2.8097138837779312e-08],"translation":[1.2658768892288208,1.0820492506027222,0.6840699911117554]},{"children":[37,38],"extensions":{"OMI_physics_body":{"motion":{"type":"static"}}},"name":"StaticBody3D3"},{"mesh":20,"name":"CSGBakedMeshInstance3D3"},{"extensions":{"OMI_physics_body":{"collider":{"shape":4}}},"name":"CollisionShape3D6"},{"children":[40,49],"name":"Module_c2c_damaged2","rotation":[0.0,-0.3187773823738098,0.0,0.9478296041488647],"translation":[-7.799045085906982,0.10000000149011612,-7.655963897705078]},{"children":[41,42,43,44,45,46,47],"name":"c2c_damaged_r_asset2"},{"mesh":22,"name":"pave_add_02_076","rotation":[-0.0572214350104332,0.0009753693011589348,-0.3470562696456909,0.9360964894294739],"translation":[2.805795192718506,0.4766652584075928,0.5697861909866333]},{"mesh":23,"name":"pave_add_02_077","rotation":[-0.06230177730321884,0.003470951458439231,-0.3370998501777649,0.9393988251686096],"translation":[3.2023701667785645,0.11675918102264404,0.3598698377609253]},{"mesh":24,"name":"pave_add_02_078","rotation":[-0.09237055480480194,0.01343904435634613,-0.34910547733306885,0.932422935962677],"translation":[2.898056983947754,0.33429449796676636,0.14626041054725647]},{"mesh":25,"name":"pave_add_02_079","rotation":[-0.17412139475345612,0.04830086603760719,-0.3064793646335602,0.9345690011978149],"translation":[3.3797240257263184,0.07585442066192627,0.9540072083473206]},{"mesh":26,"name":"pave_add_02_080","rotation":[-0.22350959479808807,0.06558917462825775,-0.29814666509628296,0.9256619811058044],"translation":[2.977804660797119,0.4893752336502075,1.150525450706482]},{"mesh":27,"name":"c2c_damaged_r_asset"},{"children":[48],"extensions":{"OMI_physics_body":{"motion":{"type":"static"}}},"name":"_StaticBody3D_71367"},{"extensions":{"OMI_physics_body":{"collider":{"shape":5}}},"name":"CollisionShape3D7"},{"children":[50],"name":"BarrelBigDestroyed2","rotation":[0.7660444378852844,0.6427876353263855,-3.34848664351739e-08,-2.8097138837779312e-08],"translation":[1.2658768892288208,1.0820492506027222,0.6840699911117554]},{"children":[51,52],"extensions":{"OMI_physics_body":{"motion":{"type":"static"}}},"name":"StaticBody3D4"},{"mesh":29,"name":"CSGBakedMeshInstance3D4"},{"extensions":{"OMI_physics_body":{"collider":{"shape":4}}},"name":"CollisionShape3D8"},{"children":[54,57,61,65,69,82],"name":"Module_s2s_v2","rotation":[0.0,0.9673672914505005,0.0,0.2533782124519348],"translation":[-8.125616073608398,0.19999952614307404,-6.07238245010376]},{"children":[55,56],"extensions":{"OMI_physics_body":{"motion":{"type":"static"}}},"name":"StaticBody3D5","translation":[0.0,0.20000000298023224,0.0]},{"mesh":30,"name":"CSGBakedMeshInstance3D5"},{"extensions":{"OMI_physics_body":{"collider":{"shape":6}}},"name":"CollisionShape3D9"},{"children":[58,60],"extensions":{"OMI_physics_body":{"motion":{"type":"static"}}},"name":"PlankSimple","rotation":[0.02144203707575798,0.7248715758323669,0.05349986255168915,0.6864686012268066],"translation":[2.4948291778564453,1.307713508605957,1.0477263927459717]},{"children":[59],"name":"sm_plank73"},{"mesh":32,"name":"sm_plank3"},{"extensions":{"OMI_physics_body":{"collider":{"shape":1}}},"name":"CollisionShape3D10","translation":[0.004385568201541901,0.028488675132393837,-0.7622723579406738]},{"children":[62,64],"extensions":{"OMI_physics_body":{"motion":{"type":"static"}}},"name":"BagSimple5","rotation":[0.020020199939608574,-0.008694585412740707,-0.0729447603225708,0.9970971345901489],"translation":[2.064856767654419,0.4319922626018524,0.6772241592407227]},{"children":[63],"name":"sm_bag2"},{"mesh":33,"name":"sm_bag"},{"extensions":{"OMI_physics_body":{"collider":{"shape":7}}},"name":"CollisionShape3D11"},{"children":[66,68],"extensions":{"OMI_physics_body":{"motion":{"type":"static"}}},"name":"BagSimple4","rotation":[-0.009786260314285755,0.022129293531179428,0.8772703409194946,0.47938641905784607],"translation":[1.7029999494552612,0.9369999766349792,0.578000009059906]},{"children":[67],"name":"sm_bag22"},{"mesh":35,"name":"sm_bag3"},{"extensions":{"OMI_physics_body":{"collider":{"shape":7}}},"name":"CollisionShape3D12"},{"children":[70,74,78],"name":"Ramp","rotation":[-0.0342642106115818,0.724378764629364,0.0006469294312410057,0.6885499358177185],"translation":[2.4705872535705566,1.2945102453231812,0.5686100125312805]},{"children":[71,73],"extensions":{"OMI_physics_body":{"motion":{"type":"static"}}},"name":"PlankSimple2"},{"children":[72],"name":"sm_plank74"},{"mesh":36,"name":"sm_plank4"},{"extensions":{"OMI_physics_body":{"collider":{"shape":1}}},"name":"CollisionShape3D13","translation":[0.004385568201541901,0.028488675132393837,-0.7622723579406738]},{"children":[75,77],"extensions":{"OMI_physics_body":{"motion":{"type":"static"}}},"name":"PlankSimple22","translation":[-0.23533041775226593,0.0,0.0]},{"children":[76],"name":"sm_plank75"},{"mesh":37,"name":"sm_plank5"},{"extensions":{"OMI_physics_body":{"collider":{"shape":1}}},"name":"CollisionShape3D14","translation":[0.004385568201541901,0.028488675132393837,-0.7622723579406738]},{"children":[79,81],"extensions":{"OMI_physics_body":{"motion":{"type":"static"}}},"name":"PlankSimple32","translation":[0.23970548808574677,0.0,0.0]},{"children":[80],"name":"sm_plank76"},{"mesh":38,"name":"sm_plank6"},{"extensions":{"OMI_physics_body":{"collider":{"shape":1}}},"name":"CollisionShape3D15","translation":[0.004385568201541901,0.028488675132393837,-0.7622723579406738]},{"children":[83,84],"extensions":{"OMI_physics_body":{"motion":{"type":"static"}}},"name":"Dirt_pile","rotation":[0.0,-0.5015107989311218,0.0,0.8651514053344727],"translation":[3.5628795623779297,-0.1278972327709198,-0.4696216583251953]},{"extensions":{"OMI_physics_body":{"collider":{"shape":8}}},"name":"sm_dirt_cluster_02_collision"},{"children":[85],"name":"sm_dirt_cluster_02"},{"mesh":40,"name":"sm_dirt_cluster_022"}],"scene":0,"scenes":[{"nodes":[0]}]}