{"accessors":[{"bufferView":0,"componentType":5126,"count":48,"max":[4.5261125564575195,0.2603248059749603,0.8276262283325195],"min":[2.51397442817688,-0.1998291015625,0.0],"normalized":false,"type":"VEC3"},{"bufferView":1,"componentType":5126,"count":48,"max":[0.042712196707725525,0.5338144898414612,0.03164143115282059,1.0],"min":[-1.0,-1.0,-1.0,-1.0],"normalized":false,"type":"VEC4"},{"bufferView":2,"componentType":5126,"count":48,"max":[0.9366982579231262,0.8286483883857727,0.5156198143959045],"min":[-0.2178947627544403,-1.0,-1.0],"normalized":false,"type":"VEC3"},{"bufferView":3,"componentType":5126,"count":48,"max":[5.330865383148193,0.8583364486694336],"min":[0.14596819877624512,0.09164511412382126],"normalized":false,"type":"VEC2"},{"bufferView":4,"componentType":5121,"count":48,"max":[47],"min":[0],"normalized":false,"type":"SCALAR"},{"bufferView":5,"componentType":5126,"count":48,"max":[4.526099681854248,0.2602999806404114,0.8276000022888184],"min":[2.5139999389648438,-0.19979999959468842,0.0],"normalized":false,"type":"VEC3"},{"bufferView":6,"componentType":5126,"count":630,"max":[0.6194376349449158,1.401857614517212,0.6194375157356262],"min":[-0.6194372773170471,0.0,-0.6194375157356262],"normalized":false,"type":"VEC3"},{"bufferView":7,"componentType":5126,"count":630,"max":[1.0,0.9743152260780334,0.9999997615814209,1.0],"min":[-0.9990692734718323,-0.9743381142616272,-0.9995372295379639,-1.0],"normalized":false,"type":"VEC4"},{"bufferView":8,"componentType":5126,"count":630,"max":[0.9976979494094849,1.0,0.9958682060241699],"min":[-0.9958692789077759,-1.0,-0.9962517023086548],"normalized":false,"type":"VEC3"},{"bufferView":9,"componentType":5126,"count":630,"max":[1.0,0.9899900555610657],"min":[0.0,0.0],"normalized":false,"type":"VEC2"},{"bufferView":10,"componentType":5123,"count":630,"max":[629],"min":[0],"normalized":false,"type":"SCALAR"},{"bufferView":11,"componentType":5126,"count":396,"max":[0.6194376349449158,1.401857614517212,0.5846851468086243],"min":[-0.5199999809265137,0.1410156488418579,-0.5846914052963257],"normalized":false,"type":"VEC3"},{"bufferView":12,"componentType":5126,"count":396,"max":[1.0,0.8414778709411621,1.0,1.0],"min":[-1.0,-0.88826984167099,-0.9978125691413879,-1.0],"normalized":false,"type":"VEC4"},{"bufferView":13,"componentType":5126,"count":396,"max":[0.998537540435791,1.0,0.9950891137123108],"min":[-0.9978113770484924,-1.0,-1.0],"normalized":false,"type":"VEC3"},{"bufferView":14,"componentType":5126,"count":396,"max":[1.0,1.0],"min":[0.0,0.0],"normalized":false,"type":"VEC2"},{"bufferView":15,"componentType":5123,"count":396,"max":[395],"min":[0],"normalized":false,"type":"SCALAR"},{"bufferView":16,"componentType":5126,"count":1026,"max":[0.6193999648094177,1.4018999338150024,0.6193999648094177],"min":[-0.6193999648094177,0.0,-0.6193999648094177],"normalized":false,"type":"VEC3"},{"bufferView":17,"componentType":5123,"count":1026,"max":[1025],"min":[0],"normalized":false,"type":"SCALAR"},{"bufferView":18,"componentType":5126,"count":78,"max":[0.10125509649515152,0.019117118790745735,0.10070344060659409],"min":[-0.09975891560316086,-0.01609080471098423,-0.10070344060659409],"normalized":false,"type":"VEC3"},{"bufferView":19,"componentType":5126,"count":78,"max":[0.9999991655349731,0.9992510080337524,0.6989731788635254,1.0],"min":[-0.7078242301940918,-0.9975872039794922,-0.7068979740142822,1.0],"normalized":false,"type":"VEC4"},{"bufferView":20,"componentType":5126,"count":78,"max":[0.9967890977859497,0.9994527697563171,1.0],"min":[-0.9987176656723022,-0.08011610060930252,-1.0],"normalized":false,"type":"VEC3"},{"bufferView":21,"componentType":5126,"count":78,"max":[0.6066834330558777,0.6070801615715027],"min":[0.5592278838157654,0.5532768964767456],"normalized":false,"type":"VEC2"},{"bufferView":22,"componentType":5121,"count":114,"max":[77],"min":[0],"normalized":false,"type":"SCALAR"},{"bufferView":23,"componentType":5126,"count":78,"max":[0.9999991655349731,0.9992510080337524,0.6989731788635254,1.0],"min":[-0.7078242301940918,-0.9975872039794922,-0.7068979740142822,1.0],"normalized":false,"type":"VEC4"},{"bufferView":24,"componentType":5126,"count":78,"max":[0.9967890977859497,0.9994520545005798,1.0],"min":[-0.9987176656723022,-0.08011610060930252,-1.0],"normalized":false,"type":"VEC3"},{"bufferView":25,"componentType":5126,"count":78,"max":[0.9999991655349731,0.9992510080337524,0.6989731788635254,1.0],"min":[-0.7078242301940918,-0.9975872039794922,-0.7068979740142822,1.0],"normalized":false,"type":"VEC4"},{"bufferView":26,"componentType":5126,"count":78,"max":[0.9967890977859497,0.9994520545005798,1.0],"min":[-0.9987176656723022,-0.08011610060930252,-1.0],"normalized":false,"type":"VEC3"},{"bufferView":27,"componentType":5126,"count":732,"max":[4.065645217895508,1.156325101852417,1.4014288187026978],"min":[-1.5962417819537222e-05,-0.19983327388763428,-0.0024205169174820185],"normalized":false,"type":"VEC3"},{"bufferView":28,"componentType":5126,"count":732,"max":[1.0,1.0,0.9999973773956299,1.0],"min":[-0.9081845283508301,-0.893356204032898,-1.0,-1.0],"normalized":false,"type":"VEC4"},{"bufferView":29,"componentType":5126,"count":732,"max":[0.9965938925743103,0.9998949766159058,1.0],"min":[-1.0,-1.0,-1.0],"normalized":false,"type":"VEC3"},{"bufferView":30,"componentType":5126,"count":732,"max":[0.9937887191772461,1.0],"min":[0.0,1.1920928955078125e-07],"normalized":false,"type":"VEC2"},{"bufferView":31,"componentType":5123,"count":3000,"max":[731],"min":[0],"normalized":false,"type":"SCALAR"},{"bufferView":32,"componentType":5126,"count":150,"max":[4.0564188957214355,1.0885964632034302,1.4000015258789063],"min":[-3.933906555175781e-06,-0.19983327388763428,3.32098784383561e-06],"normalized":false,"type":"VEC3"},{"bufferView":33,"componentType":5121,"count":150,"max":[149],"min":[0],"normalized":false,"type":"SCALAR"},{"bufferView":34,"componentType":5126,"count":144,"max":[3.200000047683716,0.7055964469909668,1.0],"min":[-0.09374556690454483,0.0,0.0],"normalized":false,"type":"VEC3"},{"bufferView":35,"componentType":5126,"count":144,"max":[0.999859094619751,0.9997861385345459,0.9659245610237122,1.0],"min":[-0.9744019508361816,-0.9805861711502075,-1.0,-1.0],"normalized":false,"type":"VEC4"},{"bufferView":36,"componentType":5126,"count":144,"max":[0.9805848598480225,0.931623637676239,1.0],"min":[-0.8694734573364258,-1.0,-1.0],"normalized":false,"type":"VEC3"},{"bufferView":37,"componentType":5126,"count":144,"max":[4.660681247711182,1.0],"min":[0.0,0.0],"normalized":false,"type":"VEC2"},{"bufferView":38,"componentType":5121,"count":144,"max":[143],"min":[0],"normalized":false,"type":"SCALAR"},{"bufferView":39,"componentType":5126,"count":144,"max":[3.1999998092651367,0.7055999636650085,1.0],"min":[-0.09369999915361404,0.0,0.0],"normalized":false,"type":"VEC3"},{"bufferView":40,"componentType":5126,"count":88,"max":[0.12041204422712326,0.05805208534002304,0.0001728534698486328],"min":[-0.11164090782403946,-0.0010747332125902176,-1.5247175693511963],"normalized":false,"type":"VEC3"},{"bufferView":41,"componentType":5126,"count":88,"max":[0.01505190134048462,1.0,-1.9441358745098114e-08,1.0],"min":[-0.0010913312435150146,-1.0,-0.9999960064888,1.0],"normalized":false,"type":"VEC4"},{"bufferView":42,"componentType":5126,"count":88,"max":[0.9999997615814209,0.9999940991401672,0.9999988079071045],"min":[-0.9999997615814209,-0.9999940395355225,-0.9998323321342468],"normalized":false,"type":"VEC3"},{"bufferView":43,"componentType":5126,"count":88,"max":[0.8749980926513672,1.0],"min":[0.12498664855957031,0.0],"normalized":false,"type":"VEC2"},{"bufferView":44,"componentType":5121,"count":132,"max":[87],"min":[0],"normalized":false,"type":"SCALAR"},{"bufferView":45,"componentType":5126,"count":238,"max":[3.575028419494629,2.0019068717956543,1.4000178575515747],"min":[-3.976508196501527e-06,-1.0452838523633545e-06,-4.593218181980774e-05],"normalized":false,"type":"VEC3"},{"bufferView":46,"componentType":5126,"count":238,"max":[1.0,0.7067569494247437,1.0,1.0],"min":[-1.0,-0.7874665260314941,-0.9993711113929749,1.0],"normalized":false,"type":"VEC4"},{"bufferView":47,"componentType":5126,"count":238,"max":[0.9068526029586792,0.9995554089546204,1.0],"min":[-1.0,-1.0,-1.0],"normalized":false,"type":"VEC3"},{"bufferView":48,"componentType":5126,"count":238,"max":[0.9359884262084961,0.9683070182800293],"min":[0.02558938041329384,0.2232394963502884],"normalized":false,"type":"VEC2"},{"bufferView":49,"componentType":5121,"count":864,"max":[237],"min":[0],"normalized":false,"type":"SCALAR"},{"bufferView":50,"componentType":5126,"count":132,"max":[3.5982680320739746,1.9986679553985596,1.4003595113754272],"min":[-3.963457402278436e-06,-9.300954957325303e-07,-0.0006052039680071175],"normalized":false,"type":"VEC3"},{"bufferView":51,"componentType":5121,"count":132,"max":[131],"min":[0],"normalized":false,"type":"SCALAR"},{"bufferView":52,"componentType":5126,"count":104,"max":[0.12020179629325867,0.041322894394397736,0.0778736099600792],"min":[-0.08163151144981384,-0.0705479234457016,-0.11148158460855484],"normalized":false,"type":"VEC3"},{"bufferView":53,"componentType":5126,"count":104,"max":[0.7059662342071533,0.9999930262565613,0.9999998807907104,1.0],"min":[-0.7983410358428955,-0.9998593330383301,-0.09431006014347076,-1.0],"normalized":false,"type":"VEC4"},{"bufferView":54,"componentType":5126,"count":104,"max":[0.9998079538345337,0.9951842427253723,0.9948484897613525],"min":[-0.9998342394828796,-0.019558848813176155,-1.0],"normalized":false,"type":"VEC3"},{"bufferView":55,"componentType":5126,"count":104,"max":[0.5073014497756958,0.6631418466567993],"min":[0.4717631936073303,0.617395281791687],"normalized":false,"type":"VEC2"},{"bufferView":56,"componentType":5121,"count":150,"max":[103],"min":[0],"normalized":false,"type":"SCALAR"},{"bufferView":57,"componentType":5126,"count":78,"max":[0.9961251020431519,0.9820404648780823,0.9987301230430603,1.0],"min":[-0.7085999846458435,-0.9883486032485962,-0.18886536359786987,1.0],"normalized":false,"type":"VEC4"},{"bufferView":58,"componentType":5126,"count":78,"max":[0.9967876076698303,0.9994528889656067,1.0],"min":[-0.9987163543701172,-0.08014628291130066,-1.0],"normalized":false,"type":"VEC3"},{"bufferView":59,"componentType":5126,"count":78,"max":[0.3196460008621216,0.3808346688747406],"min":[0.2393224984407425,0.30608072876930237],"normalized":false,"type":"VEC2"},{"bufferView":60,"componentType":5126,"count":78,"max":[0.9961251020431519,0.9820404648780823,0.9987301230430603,1.0],"min":[-0.7085999846458435,-0.9883486032485962,-0.18886536359786987,1.0],"normalized":false,"type":"VEC4"},{"bufferView":61,"componentType":5126,"count":78,"max":[0.9967876076698303,0.9994528889656067,1.0],"min":[-0.9987163543701172,-0.08014628291130066,-1.0],"normalized":false,"type":"VEC3"},{"bufferView":62,"componentType":5126,"count":104,"max":[0.120110422372818,0.03254812955856323,0.07787355035543442],"min":[-0.08163151144981384,-0.032630421221256256,-0.11148158460855484],"normalized":false,"type":"VEC3"},{"bufferView":63,"componentType":5126,"count":104,"max":[0.7078123688697815,0.9991791844367981,0.9999998807907104,1.0],"min":[-0.7921532392501831,-0.9995830059051514,-0.1405356228351593,-1.0],"normalized":false,"type":"VEC4"},{"bufferView":64,"componentType":5126,"count":104,"max":[0.9991353750228882,0.9951823353767395,0.9802244901657104],"min":[-0.9995158314704895,-0.04160942882299423,-1.0],"normalized":false,"type":"VEC3"},{"bufferView":65,"componentType":5126,"count":104,"max":[0.5073014497756958,0.6631418466567993],"min":[0.4717631936073303,0.617395281791687],"normalized":false,"type":"VEC2"},{"bufferView":66,"componentType":5126,"count":2220,"max":[4.5718231201171875,1.7540016174316406,1.399999976158142],"min":[0.0,-0.19999998807907104,0.0],"normalized":false,"type":"VEC3"},{"bufferView":67,"componentType":5126,"count":2220,"max":[1.0,0.9284427762031555,0.9995074272155762,1.0],"min":[-1.0,-1.0,-1.0,-1.0],"normalized":false,"type":"VEC4"},{"bufferView":68,"componentType":5126,"count":2220,"max":[0.9925498962402344,0.9991639256477356,1.0],"min":[-1.0,-1.0,-1.0],"normalized":false,"type":"VEC3"},{"bufferView":69,"componentType":5126,"count":2220,"max":[7.045695781707764,1.0],"min":[0.0,0.0],"normalized":false,"type":"VEC2"},{"bufferView":70,"componentType":5123,"count":2220,"max":[2219],"min":[0],"normalized":false,"type":"SCALAR"},{"bufferView":71,"componentType":5126,"count":2220,"max":[4.5717997550964355,1.753999948501587,1.399999976158142],"min":[0.0,-0.19999998807907104,0.0],"normalized":false,"type":"VEC3"},{"bufferView":72,"componentType":5126,"count":308,"max":[0.3547525107860565,0.3305619955062866,0.5604193210601807],"min":[-0.3398107588291168,-0.012891738675534725,-0.5655393600463867],"normalized":false,"type":"VEC3"},{"bufferView":73,"componentType":5126,"count":308,"max":[0.9999380707740784,0.9999473094940186,0.9640836715698242,1.0],"min":[-0.9999294281005859,-0.5032282471656799,-0.9660855531692505,1.0],"normalized":false,"type":"VEC4"},{"bufferView":74,"componentType":5126,"count":308,"max":[0.9995425939559937,0.9999938607215881,0.9699578285217285],"min":[-0.9999634027481079,-0.9999872446060181,-0.9534992575645447],"normalized":false,"type":"VEC3"},{"bufferView":75,"componentType":5126,"count":308,"max":[0.8750001192092896,1.0],"min":[0.1249847263097763,-1.52587890625e-05],"normalized":false,"type":"VEC2"},{"bufferView":76,"componentType":5123,"count":1008,"max":[307],"min":[0],"normalized":false,"type":"SCALAR"},{"bufferView":77,"componentType":5126,"count":180,"max":[0.34654393792152405,0.3192644715309143,0.5490784645080566],"min":[-0.3279842436313629,-0.010423125699162483,-0.5519843697547913],"normalized":false,"type":"VEC3"},{"bufferView":78,"componentType":5121,"count":180,"max":[179],"min":[0],"normalized":false,"type":"SCALAR"},{"bufferView":79,"componentType":5126,"count":96,"max":[1.8712999820709229,0.604699969291687,1.855699896812439],"min":[-1.1971999406814575,0.030399998649954796,-1.2561999559402466],"normalized":false,"type":"VEC3"},{"bufferView":80,"componentType":5121,"count":96,"max":[95],"min":[0],"normalized":false,"type":"SCALAR"},{"bufferView":81,"componentType":5126,"count":32,"max":[1.8712551593780518,0.6047436594963074,1.855676293373108],"min":[-1.197232961654663,0.03039298951625824,-1.2561577558517456],"normalized":false,"type":"VEC3"},{"bufferView":82,"componentType":5126,"count":32,"max":[0.9927983283996582,0.3418002426624298,0.5897350311279297,1.0],"min":[0.7479417324066162,-0.3548431694507599,-0.6637529134750366,1.0],"normalized":false,"type":"VEC4"},{"bufferView":83,"componentType":5126,"count":32,"max":[0.38060474395751953,0.9967676401138306,0.23110182583332062],"min":[-0.33847159147262573,0.7440114617347717,-0.6575636267662048],"normalized":false,"type":"VEC3"},{"bufferView":84,"componentType":5126,"count":32,"max":[1.0000001192092896,1.0],"min":[-1.5258790881489404e-05,-1.52587890625e-05],"normalized":false,"type":"VEC2"},{"bufferView":85,"componentType":5121,"count":96,"max":[31],"min":[0],"normalized":false,"type":"SCALAR"}],"asset":{"generator":"Godot Engine v4.6.3.stable.official@7d41c59c457bd5a245092b4e7eb2d833e3b3f8c3","version":"2.0"},"bufferViews":[{"buffer":0,"byteLength":576,"byteStride":12,"target":34962},{"buffer":0,"byteLength":768,"byteOffset":576,"byteStride":16,"target":34962},{"buffer":0,"byteLength":576,"byteOffset":1344,"byteStride":12,"target":34962},{"buffer":0,"byteLength":384,"byteOffset":1920,"byteStride":8,"target":34962},{"buffer":0,"byteLength":48,"byteOffset":2304,"target":34963},{"buffer":0,"byteLength":576,"byteOffset":2352,"byteStride":12,"target":34962},{"buffer":0,"byteLength":7560,"byteOffset":2928,"byteStride":12,"target":34962},{"buffer":0,"byteLength":10080,"byteOffset":10488,"byteStride":16,"target":34962},{"buffer":0,"byteLength":7560,"byteOffset":20568,"byteStride":12,"target":34962},{"buffer":0,"byteLength":5040,"byteOffset":28128,"byteStride":8,"target":34962},{"buffer":0,"byteLength":1260,"byteOffset":33168,"target":34963},{"buffer":0,"byteLength":4752,"byteOffset":34428,"byteStride":12,"target":34962},{"buffer":0,"byteLength":6336,"byteOffset":39180,"byteStride":16,"target":34962},{"buffer":0,"byteLength":4752,"byteOffset":45516,"byteStride":12,"target":34962},{"buffer":0,"byteLength":3168,"byteOffset":50268,"byteStride":8,"target":34962},{"buffer":0,"byteLength":792,"byteOffset":53436,"target":34963},{"buffer":0,"byteLength":12312,"byteOffset":54228,"byteStride":12,"target":34962},{"buffer":0,"byteLength":2052,"byteOffset":66540,"target":34963},{"buffer":0,"byteLength":936,"byteOffset":68592,"byteStride":12,"target":34962},{"buffer":0,"byteLength":1248,"byteOffset":69528,"byteStride":16,"target":34962},{"buffer":0,"byteLength":936,"byteOffset":70776,"byteStride":12,"target":34962},{"buffer":0,"byteLength":624,"byteOffset":71712,"byteStride":8,"target":34962},{"buffer":0,"byteLength":114,"byteOffset":72336,"target":34963},{"buffer":0,"byteLength":1248,"byteOffset":72452,"byteStride":16,"target":34962},{"buffer":0,"byteLength":936,"byteOffset":73700,"byteStride":12,"target":34962},{"buffer":0,"byteLength":1248,"byteOffset":74636,"byteStride":16,"target":34962},{"buffer":0,"byteLength":936,"byteOffset":75884,"byteStride":12,"target":34962},{"buffer":0,"byteLength":8784,"byteOffset":76820,"byteStride":12,"target":34962},{"buffer":0,"byteLength":11712,"byteOffset":85604,"byteStride":16,"target":34962},{"buffer":0,"byteLength":8784,"byteOffset":97316,"byteStride":12,"target":34962},{"buffer":0,"byteLength":5856,"byteOffset":106100,"byteStride":8,"target":34962},{"buffer":0,"byteLength":6000,"byteOffset":111956,"target":34963},{"buffer":0,"byteLength":1800,"byteOffset":117956,"byteStride":12,"target":34962},{"buffer":0,"byteLength":150,"byteOffset":119756,"target":34963},{"buffer":0,"byteLength":1728,"byteOffset":119908,"byteStride":12,"target":34962},{"buffer":0,"byteLength":2304,"byteOffset":121636,"byteStride":16,"target":34962},{"buffer":0,"byteLength":1728,"byteOffset":123940,"byteStride":12,"target":34962},{"buffer":0,"byteLength":1152,"byteOffset":125668,"byteStride":8,"target":34962},{"buffer":0,"byteLength":144,"byteOffset":126820,"target":34963},{"buffer":0,"byteLength":1728,"byteOffset":126964,"byteStride":12,"target":34962},{"buffer":0,"byteLength":1056,"byteOffset":128692,"byteStride":12,"target":34962},{"buffer":0,"byteLength":1408,"byteOffset":129748,"byteStride":16,"target":34962},{"buffer":0,"byteLength":1056,"byteOffset":131156,"byteStride":12,"target":34962},{"buffer":0,"byteLength":704,"byteOffset":132212,"byteStride":8,"target":34962},{"buffer":0,"byteLength":132,"byteOffset":132916,"target":34963},{"buffer":0,"byteLength":2856,"byteOffset":133048,"byteStride":12,"target":34962},{"buffer":0,"byteLength":3808,"byteOffset":135904,"byteStride":16,"target":34962},{"buffer":0,"byteLength":2856,"byteOffset":139712,"byteStride":12,"target":34962},{"buffer":0,"byteLength":1904,"byteOffset":142568,"byteStride":8,"target":34962},{"buffer":0,"byteLength":864,"byteOffset":144472,"target":34963},{"buffer":0,"byteLength":1584,"byteOffset":145336,"byteStride":12,"target":34962},{"buffer":0,"byteLength":132,"byteOffset":146920,"target":34963},{"buffer":0,"byteLength":1248,"byteOffset":147052,"byteStride":12,"target":34962},{"buffer":0,"byteLength":1664,"byteOffset":148300,"byteStride":16,"target":34962},{"buffer":0,"byteLength":1248,"byteOffset":149964,"byteStride":12,"target":34962},{"buffer":0,"byteLength":832,"byteOffset":151212,"byteStride":8,"target":34962},{"buffer":0,"byteLength":150,"byteOffset":152044,"target":34963},{"buffer":0,"byteLength":1248,"byteOffset":152196,"byteStride":16,"target":34962},{"buffer":0,"byteLength":936,"byteOffset":153444,"byteStride":12,"target":34962},{"buffer":0,"byteLength":624,"byteOffset":154380,"byteStride":8,"target":34962},{"buffer":0,"byteLength":1248,"byteOffset":155004,"byteStride":16,"target":34962},{"buffer":0,"byteLength":936,"byteOffset":156252,"byteStride":12,"target":34962},{"buffer":0,"byteLength":1248,"byteOffset":157188,"byteStride":12,"target":34962},{"buffer":0,"byteLength":1664,"byteOffset":158436,"byteStride":16,"target":34962},{"buffer":0,"byteLength":1248,"byteOffset":160100,"byteStride":12,"target":34962},{"buffer":0,"byteLength":832,"byteOffset":161348,"byteStride":8,"target":34962},{"buffer":0,"byteLength":26640,"byteOffset":162180,"byteStride":12,"target":34962},{"buffer":0,"byteLength":35520,"byteOffset":188820,"byteStride":16,"target":34962},{"buffer":0,"byteLength":26640,"byteOffset":224340,"byteStride":12,"target":34962},{"buffer":0,"byteLength":17760,"byteOffset":250980,"byteStride":8,"target":34962},{"buffer":0,"byteLength":4440,"byteOffset":268740,"target":34963},{"buffer":0,"byteLength":26640,"byteOffset":273180,"byteStride":12,"target":34962},{"buffer":0,"byteLength":3696,"byteOffset":299820,"byteStride":12,"target":34962},{"buffer":0,"byteLength":4928,"byteOffset":303516,"byteStride":16,"target":34962},{"buffer":0,"byteLength":3696,"byteOffset":308444,"byteStride":12,"target":34962},{"buffer":0,"byteLength":2464,"byteOffset":312140,"byteStride":8,"target":34962},{"buffer":0,"byteLength":2016,"byteOffset":314604,"target":34963},{"buffer":0,"byteLength":2160,"byteOffset":316620,"byteStride":12,"target":34962},{"buffer":0,"byteLength":180,"byteOffset":318780,"target":34963},{"buffer":0,"byteLength":1152,"byteOffset":318960,"byteStride":12,"target":34962},{"buffer":0,"byteLength":96,"byteOffset":320112,"target":34963},{"buffer":0,"byteLength":384,"byteOffset":320208,"byteStride":12,"target":34962},{"buffer":0,"byteLength":512,"byteOffset":320592,"byteStride":16,"target":34962},{"buffer":0,"byteLength":384,"byteOffset":321104,"byteStride":12,"target":34962},{"buffer":0,"byteLength":256,"byteOffset":321488,"byteStride":8,"target":34962},{"buffer":0,"byteLength":96,"byteOffset":321744,"target":34963}],"buffers":[{"byteLength":321840,"uri":"damage_030.bin"}],"extensions":{"OMI_physics_shape":{"shapes":[{"trimesh":{"mesh":1},"type":"trimesh"},{"trimesh":{"mesh":3},"type":"trimesh"},{"trimesh":{"mesh":10},"type":"trimesh"},{"trimesh":{"mesh":13},"type":"trimesh"},{"box":{"size":[0.23205295205116272,0.05912681668996811,1.524890422821045]},"type":"box"},{"trimesh":{"mesh":17},"type":"trimesh"},{"trimesh":{"mesh":35},"type":"trimesh"},{"convex":{"mesh":38},"type":"convex"},{"trimesh":{"mesh":43},"type":"trimesh"}]}},"extensionsUsed":["GODOT_single_root","OMI_physics_body","OMI_physics_shape"],"materials":[{"name":"prototype_material_barricade","pbrMetallicRoughness":{"baseColorFactor":[0.3942692279815674,0.32777976989746094,0.27036529779434204,1.0],"metallicFactor":0.0,"roughnessFactor":1.0}},{"name":"wood_proto","pbrMetallicRoughness":{"baseColorFactor":[1.0,1.0,1.0,1.0],"metallicFactor":0.0,"roughnessFactor":0.5400000214576721}},{"pbrMetallicRoughness":{"baseColorFactor":[0.3504874110221863,0.12995237112045288,0.04509969800710678,1.0],"metallicFactor":0.0,"roughnessFactor":0.5400000214576721}},{"name":"m_barricade_brick_c2c"},{"pbrMetallicRoughness":{"baseColorFactor":[0.7954521179199219,0.4683600664138794,0.22921054065227509,1.0],"metallicFactor":0.0,"roughnessFactor":0.5400000214576721}},{"name":"m_barricade_brick_f2s"},{"pbrMetallicRoughness":{"baseColorFactor":[1.0,1.0,1.0,1.0],"metallicFactor":0.0,"roughnessFactor":1.0}},{"name":"prototype_material_wood_3d","pbrMetallicRoughness":{"baseColorFactor":[0.3452383279800415,0.15727873146533966,0.04437318071722984,1.0],"metallicFactor":0.0,"roughnessFactor":1.0}}],"meshes":[{"primitives":[{"attributes":{"NORMAL":2,"POSITION":0,"TANGENT":1,"TEXCOORD_0":3},"indices":4,"material":0,"mode":4}]},{"primitives":[{"attributes":{"POSITION":5},"indices":4,"mode":4}]},{"primitives":[{"attributes":{"NORMAL":8,"POSITION":6,"TANGENT":7,"TEXCOORD_0":9},"indices":10,"material":1,"mode":4},{"attributes":{"NORMAL":13,"POSITION":11,"TANGENT":12,"TEXCOORD_0":14},"indices":15,"material":2,"mode":4}]},{"primitives":[{"attributes":{"POSITION":16},"indices":17,"mode":4}]},{"name":"c2c_damaged_r_asset_Cube_093","primitives":[{"attributes":{"NORMAL":20,"POSITION":18,"TANGENT":19,"TEXCOORD_0":21},"indices":22,"material":3,"mode":4}]},{"name":"c2c_damaged_r_asset_Cube_0932","primitives":[{"attributes":{"NORMAL":24,"POSITION":18,"TANGENT":23,"TEXCOORD_0":21},"indices":22,"material":3,"mode":4}]},{"name":"c2c_damaged_r_asset_Cube_0933","primitives":[{"attributes":{"NORMAL":26,"POSITION":18,"TANGENT":25,"TEXCOORD_0":21},"indices":22,"material":3,"mode":4}]},{"name":"c2c_damaged_r_asset_Cube_0934","primitives":[{"attributes":{"NORMAL":24,"POSITION":18,"TANGENT":23,"TEXCOORD_0":21},"indices":22,"material":3,"mode":4}]},{"name":"c2c_damaged_r_asset_Cube_0935","primitives":[{"attributes":{"NORMAL":26,"POSITION":18,"TANGENT":25,"TEXCOORD_0":21},"indices":22,"material":3,"mode":4}]},{"name":"c2c_damaged_r_asset_Mesh_0_034","primitives":[{"attributes":{"NORMAL":29,"POSITION":27,"TANGENT":28,"TEXCOORD_0":30},"indices":31,"material":3,"mode":4}]},{"primitives":[{"attributes":{"POSITION":32},"indices":33,"mode":4}]},{"primitives":[{"attributes":{"NORMAL":8,"POSITION":6,"TANGENT":7,"TEXCOORD_0":9},"indices":10,"material":1,"mode":4},{"attributes":{"NORMAL":13,"POSITION":11,"TANGENT":12,"TEXCOORD_0":14},"indices":15,"material":2,"mode":4}]},{"primitives":[{"attributes":{"NORMAL":36,"POSITION":34,"TANGENT":35,"TEXCOORD_0":37},"indices":38,"material":0,"mode":4}]},{"primitives":[{"attributes":{"POSITION":39},"indices":38,"mode":4}]},{"name":"sm_plank_Cube_020","primitives":[{"attributes":{"NORMAL":42,"POSITION":40,"TANGENT":41,"TEXCOORD_0":43},"indices":44,"material":4,"mode":4}]},{"name":"sm_plank_Cube_0202","primitives":[{"attributes":{"NORMAL":42,"POSITION":40,"TANGENT":41,"TEXCOORD_0":43},"indices":44,"material":4,"mode":4}]},{"name":"f2s_damaged_asset_Mesh_0_027","primitives":[{"attributes":{"NORMAL":47,"POSITION":45,"TANGENT":46,"TEXCOORD_0":48},"indices":49,"material":5,"mode":4}]},{"primitives":[{"attributes":{"POSITION":50},"indices":51,"mode":4}]},{"name":"f2s_damaged_asset_Cube_077","primitives":[{"attributes":{"NORMAL":54,"POSITION":52,"TANGENT":53,"TEXCOORD_0":55},"indices":56,"material":5,"mode":4}]},{"name":"f2s_damaged_asset_Cube_076","primitives":[{"attributes":{"NORMAL":58,"POSITION":18,"TANGENT":57,"TEXCOORD_0":59},"indices":22,"material":5,"mode":4}]},{"name":"f2s_damaged_asset_Cube_078","primitives":[{"attributes":{"NORMAL":61,"POSITION":18,"TANGENT":60,"TEXCOORD_0":59},"indices":22,"material":5,"mode":4}]},{"name":"f2s_damaged_asset_Cube_079","primitives":[{"attributes":{"NORMAL":64,"POSITION":62,"TANGENT":63,"TEXCOORD_0":65},"indices":56,"material":5,"mode":4}]},{"name":"f2s_damaged_asset_Cube_0772","primitives":[{"attributes":{"NORMAL":54,"POSITION":52,"TANGENT":53,"TEXCOORD_0":55},"indices":56,"material":5,"mode":4}]},{"name":"f2s_damaged_asset_Cube_0782","primitives":[{"attributes":{"NORMAL":58,"POSITION":18,"TANGENT":57,"TEXCOORD_0":59},"indices":22,"material":5,"mode":4}]},{"name":"f2s_damaged_asset_Cube_0783","primitives":[{"attributes":{"NORMAL":61,"POSITION":18,"TANGENT":60,"TEXCOORD_0":59},"indices":22,"material":5,"mode":4}]},{"name":"f2s_damaged_asset_Cube_0784","primitives":[{"attributes":{"NORMAL":58,"POSITION":18,"TANGENT":57,"TEXCOORD_0":59},"indices":22,"material":5,"mode":4}]},{"name":"f2s_damaged_asset_Cube_0785","primitives":[{"attributes":{"NORMAL":61,"POSITION":18,"TANGENT":60,"TEXCOORD_0":59},"indices":22,"material":5,"mode":4}]},{"name":"f2s_damaged_asset_Cube_0773","primitives":[{"attributes":{"NORMAL":54,"POSITION":52,"TANGENT":53,"TEXCOORD_0":55},"indices":56,"material":5,"mode":4}]},{"name":"f2s_damaged_asset_Cube_0774","primitives":[{"attributes":{"NORMAL":54,"POSITION":52,"TANGENT":53,"TEXCOORD_0":55},"indices":56,"material":5,"mode":4}]},{"name":"f2s_damaged_asset_Cube_0775","primitives":[{"attributes":{"NORMAL":54,"POSITION":52,"TANGENT":53,"TEXCOORD_0":55},"indices":56,"material":5,"mode":4}]},{"name":"f2s_damaged_asset_Cube_0776","primitives":[{"attributes":{"NORMAL":54,"POSITION":52,"TANGENT":53,"TEXCOORD_0":55},"indices":56,"material":5,"mode":4}]},{"name":"f2s_damaged_asset_Cube_0777","primitives":[{"attributes":{"NORMAL":54,"POSITION":52,"TANGENT":53,"TEXCOORD_0":55},"indices":56,"material":5,"mode":4}]},{"name":"f2s_damaged_asset_Cube_0778","primitives":[{"attributes":{"NORMAL":54,"POSITION":52,"TANGENT":53,"TEXCOORD_0":55},"indices":56,"material":5,"mode":4}]},{"name":"f2s_damaged_asset_Cube_0779","primitives":[{"attributes":{"NORMAL":54,"POSITION":52,"TANGENT":53,"TEXCOORD_0":55},"indices":56,"material":5,"mode":4}]},{"primitives":[{"attributes":{"NORMAL":68,"POSITION":66,"TANGENT":67,"TEXCOORD_0":69},"indices":70,"material":0,"mode":4}]},{"primitives":[{"attributes":{"POSITION":71},"indices":70,"mode":4}]},{"name":"sm_plank_Cube_0203","primitives":[{"attributes":{"NORMAL":42,"POSITION":40,"TANGENT":41,"TEXCOORD_0":43},"indices":44,"material":4,"mode":4}]},{"name":"sm_bag_Cube_013","primitives":[{"attributes":{"NORMAL":74,"POSITION":72,"TANGENT":73,"TEXCOORD_0":75},"indices":76,"material":6,"mode":4}]},{"primitives":[{"attributes":{"POSITION":77},"indices":78,"mode":4}]},{"name":"sm_bag_Cube_0132","primitives":[{"attributes":{"NORMAL":74,"POSITION":72,"TANGENT":73,"TEXCOORD_0":75},"indices":76,"material":6,"mode":4}]},{"name":"sm_plank_Cube_0204","primitives":[{"attributes":{"NORMAL":42,"POSITION":40,"TANGENT":41,"TEXCOORD_0":43},"indices":44,"material":4,"mode":4}]},{"name":"sm_plank_Cube_0205","primitives":[{"attributes":{"NORMAL":42,"POSITION":40,"TANGENT":41,"TEXCOORD_0":43},"indices":44,"material":4,"mode":4}]},{"name":"sm_plank_Cube_0206","primitives":[{"attributes":{"NORMAL":42,"POSITION":40,"TANGENT":41,"TEXCOORD_0":43},"indices":44,"material":4,"mode":4}]},{"primitives":[{"attributes":{"POSITION":79},"indices":80,"mode":4}]},{"name":"sm_dirt_cluster_02_Plane_002","primitives":[{"attributes":{"NORMAL":83,"POSITION":81,"TANGENT":82,"TEXCOORD_0":84},"indices":85,"material":7,"mode":4}]}],"nodes":[{"children":[1],"name":"Node3D"},{"children":[2,10,24,36,57],"name":"Destroyed"},{"children":[3,6],"name":"Module_c2c_damaged3","rotation":[0.0,0.9069336652755737,0.0,0.42127344012260437],"translation":[-2.676999568939209,0.10000000149011612,1.7299997806549072]},{"children":[4,5],"extensions":{"OMI_physics_body":{"motion":{"type":"static"}}},"name":"StaticBody3D"},{"mesh":0,"name":"CSGBakedMeshInstance3D"},{"extensions":{"OMI_physics_body":{"collider":{"shape":0}}},"name":"CollisionShape3D"},{"children":[7],"name":"BarrelBigDestroyed","rotation":[-0.4345189034938812,0.8953133225440979,-0.04279633238911629,0.08818072080612183],"translation":[0.8430230617523193,-1.1201825141906738,0.9680284261703491]},{"children":[8,9],"extensions":{"OMI_physics_body":{"motion":{"type":"static"}}},"name":"StaticBody3D2"},{"mesh":2,"name":"CSGBakedMeshInstance3D2"},{"extensions":{"OMI_physics_body":{"collider":{"shape":1}}},"name":"CollisionShape3D2"},{"children":[11,20],"name":"Module_c2c_damaged2","rotation":[0.0,-0.3187773823738098,0.0,0.9478296041488647],"translation":[-7.799045085906982,0.10000000149011612,-7.655963897705078]},{"children":[12,13,14,15,16,17,18],"name":"c2c_damaged_r_asset2"},{"mesh":4,"name":"pave_add_02_076","rotation":[-0.0572214350104332,0.0009753693011589348,-0.3470562696456909,0.9360964894294739],"translation":[2.805795192718506,0.4766652584075928,0.5697861909866333]},{"mesh":5,"name":"pave_add_02_077","rotation":[-0.06230177730321884,0.003470951458439231,-0.3370998501777649,0.9393988251686096],"translation":[3.2023701667785645,0.11675918102264404,0.3598698377609253]},{"mesh":6,"name":"pave_add_02_078","rotation":[-0.09237055480480194,0.01343904435634613,-0.34910547733306885,0.932422935962677],"translation":[2.898056983947754,0.33429449796676636,0.14626041054725647]},{"mesh":7,"name":"pave_add_02_079","rotation":[-0.17412139475345612,0.04830086603760719,-0.3064793646335602,0.9345690011978149],"translation":[3.3797240257263184,0.07585442066192627,0.9540072083473206]},{"mesh":8,"name":"pave_add_02_080","rotation":[-0.22350959479808807,0.06558917462825775,-0.29814666509628296,0.9256619811058044],"translation":[2.977804660797119,0.4893752336502075,1.150525450706482]},{"mesh":9,"name":"c2c_damaged_r_asset"},{"children":[19],"extensions":{"OMI_physics_body":{"motion":{"type":"static"}}},"name":"_StaticBody3D_71367"},{"extensions":{"OMI_physics_body":{"collider":{"shape":2}}},"name":"CollisionShape3D3"},{"children":[21],"name":"BarrelBigDestroyed2","rotation":[0.7660444378852844,0.6427876353263855,-3.34848664351739e-08,-2.8097138837779312e-08],"translation":[1.2658768892288208,1.0820492506027222,0.6840699911117554]},{"children":[22,23],"extensions":{"OMI_physics_body":{"motion":{"type":"static"}}},"name":"StaticBody3D3"},{"mesh":11,"name":"CSGBakedMeshInstance3D3"},{"extensions":{"OMI_physics_body":{"collider":{"shape":1}}},"name":"CollisionShape3D4"},{"children":[25,28,32],"name":"Module_s2c_damaged","rotation":[0.0,-0.6561710834503174,0.0,0.754612147808075],"translation":[-4.788593769073486,0.10000000149011612,-4.558054447174072]},{"children":[26,27],"extensions":{"OMI_physics_body":{"motion":{"type":"static"}}},"name":"StaticBody3D4"},{"mesh":12,"name":"CSGBakedMeshInstance3D4"},{"extensions":{"OMI_physics_body":{"collider":{"shape":3}}},"name":"CollisionShape3D5"},{"children":[29,31],"extensions":{"OMI_physics_body":{"motion":{"type":"static"}}},"name":"PlankSimple3","rotation":[-1.6646223954808193e-08,0.8713979721069336,-5.95338107700627e-08,0.490576833486557],"translation":[0.2653149664402008,-2.384185791015625e-07,2.2915260791778564]},{"children":[30],"name":"sm_plank7"},{"mesh":14,"name":"sm_plank"},{"extensions":{"OMI_physics_body":{"collider":{"shape":4}}},"name":"CollisionShape3D6","translation":[0.004385568201541901,0.028488675132393837,-0.7622723579406738]},{"children":[33,35],"extensions":{"OMI_physics_body":{"motion":{"type":"static"}}},"name":"PlankSimple4","rotation":[0.0,0.5584836006164551,0.0,0.8295155763626099],"translation":[-0.762060821056366,2.384185791015625e-07,-0.10391807556152344]},{"children":[34],"name":"sm_plank72"},{"mesh":15,"name":"sm_plank2"},{"extensions":{"OMI_physics_body":{"collider":{"shape":4}}},"name":"CollisionShape3D7","translation":[0.004385568201541901,0.028488675132393837,-0.7622723579406738]},{"children":[37],"name":"Module_f2s2","rotation":[0.0,0.848685622215271,0.0,0.5288976430892944],"translation":[-0.8351418972015381,0.10000047832727432,5.2754716873168945]},{"children":[38,39,41,42,43,44,45,46,47,48,49,50,51,52,53,54,55,56],"name":"f2s_damaged_asset2"},{"mesh":16,"name":"f2s_damaged_asset"},{"children":[40],"extensions":{"OMI_physics_body":{"motion":{"type":"static"}}},"name":"_StaticBody3D_71353"},{"extensions":{"OMI_physics_body":{"collider":{"shape":5}}},"name":"CollisionShape3D8"},{"mesh":18,"name":"pave_add_01_004","rotation":[0.058488134294748306,2.351524530652682e-10,-0.12739312648773193,0.9901263117790222],"translation":[2.375298500061035,1.5815852880477905,1.1386650800704956]},{"mesh":19,"name":"pave_add_02_027","rotation":[-0.0036797563079744577,-0.00025800298317335546,-0.14646019041538239,0.9892097115516663],"translation":[2.1306161880493164,1.6852235794067383,0.6859326958656311]},{"mesh":20,"name":"pave_add_02_028","rotation":[0.1209266260266304,0.9908537864685059,-0.05933145061135292,-0.008076434023678303],"translation":[2.3664119243621826,1.5835963487625122,0.23701947927474976]},{"mesh":21,"name":"pave_add_01_005","rotation":[-0.09331294149160385,-0.6929131150245667,-0.14322780072689056,0.7004640698432922],"translation":[2.5262084007263184,1.578587532043457,0.6764817833900452]},{"mesh":22,"name":"pave_add_01_006","rotation":[0.13915716111660004,0.03503410145640373,-0.6479015350341797,0.7480852007865906],"translation":[2.8040847778320313,1.1437036991119385,1.0806950330734253]},{"mesh":23,"name":"pave_add_02_029","rotation":[0.52940434217453,0.838752269744873,0.12105588614940643,0.03963761776685715],"translation":[3.037365436553955,0.9285542368888855,0.4895930290222168]},{"mesh":24,"name":"pave_add_02_030","rotation":[0.501919150352478,0.8619934916496277,0.06992772221565247,0.012431642040610313],"translation":[3.154491901397705,0.5310912132263184,0.9232910871505737]},{"mesh":25,"name":"pave_add_02_031","rotation":[0.5491051077842712,0.8300095200538635,0.09511838853359222,0.022810449823737144],"translation":[3.3961403369903564,0.36549365520477295,0.1301412582397461]},{"mesh":26,"name":"pave_add_02_032","rotation":[0.5054227113723755,0.8587950468063354,-0.04987546056509018,-0.06731539219617844],"translation":[3.3433117866516113,0.19355344772338867,1.0915660858154297]},{"mesh":27,"name":"pave_add_01_008","rotation":[0.05680107697844505,-0.04095235466957092,-0.6227890253067017,0.779249906539917],"translation":[3.16434907913208,0.5426527261734009,0.9374117851257324]},{"mesh":28,"name":"pave_add_01_009","rotation":[0.07517839968204498,-0.06215205788612366,-0.5087712407112122,0.8553579449653625],"translation":[3.247150421142578,0.5446242094039917,0.390092670917511]},{"mesh":29,"name":"pave_add_01_010","rotation":[0.12840110063552856,-0.0635545626282692,-0.6582770347595215,0.7390164732933044],"translation":[3.1092958450317383,0.9808356761932373,0.16998612880706787]},{"mesh":30,"name":"pave_add_01_011","rotation":[0.06444425880908966,-0.039639025926589966,-0.6462922096252441,0.7593300342559814],"translation":[3.4505045413970947,0.21112942695617676,0.191603422164917]},{"mesh":31,"name":"pave_add_01_012","rotation":[-0.07646400481462479,0.015961481258273125,-0.6339265704154968,0.7694385051727295],"translation":[3.4268712997436523,0.04866814613342285,1.103509783744812]},{"mesh":32,"name":"pave_add_01_013","rotation":[0.04673700034618378,-0.04266779497265816,-0.5107542276382446,0.8573944568634033],"translation":[3.268092632293701,0.3756803274154663,0.7247816324234009]},{"mesh":33,"name":"pave_add_01_014","rotation":[0.1155523955821991,-0.058514002710580826,-0.6461887955665588,0.752106249332428],"translation":[2.9346837997436523,1.1104846000671387,0.5231273770332336]},{"children":[58,61,65,69,73,86],"name":"Module_s2s_v2","rotation":[0.0,0.9673672914505005,0.0,0.2533782124519348],"translation":[-8.125616073608398,0.19999952614307404,-6.07238245010376]},{"children":[59,60],"extensions":{"OMI_physics_body":{"motion":{"type":"static"}}},"name":"StaticBody3D5","translation":[0.0,0.20000000298023224,0.0]},{"mesh":34,"name":"CSGBakedMeshInstance3D5"},{"extensions":{"OMI_physics_body":{"collider":{"shape":6}}},"name":"CollisionShape3D9"},{"children":[62,64],"extensions":{"OMI_physics_body":{"motion":{"type":"static"}}},"name":"PlankSimple","rotation":[0.02144203707575798,0.7248715758323669,0.05349986255168915,0.6864686012268066],"translation":[2.4948291778564453,1.307713508605957,1.0477263927459717]},{"children":[63],"name":"sm_plank73"},{"mesh":36,"name":"sm_plank3"},{"extensions":{"OMI_physics_body":{"collider":{"shape":4}}},"name":"CollisionShape3D10","translation":[0.004385568201541901,0.028488675132393837,-0.7622723579406738]},{"children":[66,68],"extensions":{"OMI_physics_body":{"motion":{"type":"static"}}},"name":"BagSimple5","rotation":[0.020020199939608574,-0.008694585412740707,-0.0729447603225708,0.9970971345901489],"translation":[2.064856767654419,0.4319922626018524,0.6772241592407227]},{"children":[67],"name":"sm_bag2"},{"mesh":37,"name":"sm_bag"},{"extensions":{"OMI_physics_body":{"collider":{"shape":7}}},"name":"CollisionShape3D11"},{"children":[70,72],"extensions":{"OMI_physics_body":{"motion":{"type":"static"}}},"name":"BagSimple4","rotation":[-0.009786260314285755,0.022129293531179428,0.8772703409194946,0.47938641905784607],"translation":[1.7029999494552612,0.9369999766349792,0.578000009059906]},{"children":[71],"name":"sm_bag22"},{"mesh":39,"name":"sm_bag3"},{"extensions":{"OMI_physics_body":{"collider":{"shape":7}}},"name":"CollisionShape3D12"},{"children":[74,78,82],"name":"Ramp","rotation":[-0.0342642106115818,0.724378764629364,0.0006469294312410057,0.6885499358177185],"translation":[2.4705872535705566,1.2945102453231812,0.5686100125312805]},{"children":[75,77],"extensions":{"OMI_physics_body":{"motion":{"type":"static"}}},"name":"PlankSimple2"},{"children":[76],"name":"sm_plank74"},{"mesh":40,"name":"sm_plank4"},{"extensions":{"OMI_physics_body":{"collider":{"shape":4}}},"name":"CollisionShape3D13","translation":[0.004385568201541901,0.028488675132393837,-0.7622723579406738]},{"children":[79,81],"extensions":{"OMI_physics_body":{"motion":{"type":"static"}}},"name":"PlankSimple22","translation":[-0.23533041775226593,0.0,0.0]},{"children":[80],"name":"sm_plank75"},{"mesh":41,"name":"sm_plank5"},{"extensions":{"OMI_physics_body":{"collider":{"shape":4}}},"name":"CollisionShape3D14","translation":[0.004385568201541901,0.028488675132393837,-0.7622723579406738]},{"children":[83,85],"extensions":{"OMI_physics_body":{"motion":{"type":"static"}}},"name":"PlankSimple32","translation":[0.23970548808574677,0.0,0.0]},{"children":[84],"name":"sm_plank76"},{"mesh":42,"name":"sm_plank6"},{"extensions":{"OMI_physics_body":{"collider":{"shape":4}}},"name":"CollisionShape3D15","translation":[0.004385568201541901,0.028488675132393837,-0.7622723579406738]},{"children":[87,88],"extensions":{"OMI_physics_body":{"motion":{"type":"static"}}},"name":"Dirt_pile","rotation":[0.0,-0.5015107989311218,0.0,0.8651514053344727],"translation":[3.5628795623779297,-0.1278972327709198,-0.4696216583251953]},{"extensions":{"OMI_physics_body":{"collider":{"shape":8}}},"name":"sm_dirt_cluster_02_collision"},{"children":[89],"name":"sm_dirt_cluster_02"},{"mesh":44,"name":"sm_dirt_cluster_022"}],"scene":0,"scenes":[{"nodes":[0]}]}