# Blender 5.1.1
# www.blender.org
mtllib curve.mtl
o curve
v -0.500000 -0.500000 -0.064919
v 0.500000 -0.500000 -0.064919
v -0.500000 0.500000 -0.064919
v 0.500000 0.500000 -0.064919
v -0.500000 0.333333 0.026191
v -0.500000 0.166667 0.074827
v -0.500000 -0.000000 0.090258
v -0.500000 -0.166667 0.074827
v -0.500000 -0.333333 0.026191
v 0.500000 -0.333333 0.026191
v 0.500000 -0.166667 0.074827
v 0.500000 -0.000000 0.090258
v 0.500000 0.166667 0.074827
v 0.500000 0.333333 0.026191
vn -0.0000 -0.4797 0.8774
vn -0.0000 0.4797 0.8774
vn -0.0000 0.3821 0.9241
vn -0.0000 0.1870 0.9824
vn -0.0000 -0.0000 1.0000
vn -0.0000 -0.1870 0.9824
vn -0.0000 -0.3821 0.9241
vt 0.000000 0.833333
vt 1.000000 0.833333
vt 1.000000 1.000000
vt 0.000000 1.000000
vt 0.000000 0.000000
vt 1.000000 0.000000
vt 1.000000 0.166667
vt 0.000000 0.166667
vt 1.000000 0.333333
vt 0.000000 0.333333
vt 1.000000 0.500000
vt 0.000000 0.500000
vt 1.000000 0.666667
vt 0.000000 0.666667
s 1
f 5/1/3 14/2/3 4/3/2 3/4/2
f 1/5/1 2/6/1 10/7/7 9/8/7
f 9/8/7 10/7/7 11/9/6 8/10/6
f 8/10/6 11/9/6 12/11/5 7/12/5
f 7/12/5 12/11/5 13/13/4 6/14/4
f 6/14/4 13/13/4 14/2/3 5/1/3
