# Blender 5.1.1
# www.blender.org
mtllib big_wodden_case.mtl
o big_wodden_case
v -0.510454 -0.248047 0.250000
v -0.510454 -0.120394 0.250000
v -0.510454 -0.248047 -0.250000
v -0.510454 -0.120394 -0.250000
v -0.494074 -0.248047 0.250000
v -0.494074 -0.120394 0.250000
v -0.494074 -0.248047 -0.250000
v -0.494074 -0.120394 -0.250000
v -0.510454 0.014552 -0.250000
v -0.510454 -0.113101 -0.250000
v -0.510454 0.014552 0.250000
v -0.510454 -0.113101 0.250000
v -0.494074 0.014552 -0.250000
v -0.494074 -0.113101 -0.250000
v -0.494074 0.014552 0.250000
v -0.494074 -0.113101 0.250000
v -0.510454 0.026557 0.250000
v -0.510454 0.154210 0.250000
v -0.510454 0.026557 -0.250000
v -0.510454 0.154210 -0.250000
v -0.494074 0.026557 0.250000
v -0.494074 0.154210 0.250000
v -0.494074 0.026557 -0.250000
v -0.494074 0.154210 -0.250000
v 0.493715 -0.248047 0.250000
v 0.493715 -0.120394 0.250000
v 0.493715 -0.248047 -0.250000
v 0.493715 -0.120394 -0.250000
v 0.510095 -0.248047 0.250000
v 0.510095 -0.120394 0.250000
v 0.510095 -0.248047 -0.250000
v 0.510095 -0.120394 -0.250000
v 0.493715 -0.113101 0.250000
v 0.493715 0.014552 0.250000
v 0.493715 -0.113101 -0.250000
v 0.493715 0.014552 -0.250000
v 0.510095 -0.113101 0.250000
v 0.510095 0.014552 0.250000
v 0.510095 -0.113101 -0.250000
v 0.510095 0.014552 -0.250000
v 0.493715 0.026557 0.250000
v 0.493715 0.154210 0.250000
v 0.493715 0.026557 -0.250000
v 0.493715 0.154210 -0.250000
v 0.510095 0.026557 0.250000
v 0.510095 0.154210 0.250000
v 0.510095 0.026557 -0.250000
v 0.510095 0.154210 -0.250000
v 0.492912 -0.213987 0.250579
v 0.492912 -0.086334 0.250579
v -0.492912 -0.213987 0.250579
v -0.492912 -0.086334 0.250579
v 0.492912 -0.213987 0.234199
v 0.492912 -0.086334 0.234199
v -0.492912 -0.213987 0.234199
v -0.492912 -0.086334 0.234199
v 0.492912 -0.079040 0.250579
v 0.492912 0.048613 0.250579
v -0.492912 -0.079040 0.250579
v -0.492912 0.048613 0.250579
v 0.492912 -0.079040 0.234199
v 0.492912 0.048613 0.234199
v -0.492912 -0.079040 0.234199
v -0.492912 0.048613 0.234199
v 0.492912 0.060617 0.250579
v 0.492912 0.188270 0.250579
v -0.492912 0.060617 0.250579
v -0.492912 0.188270 0.250579
v 0.492912 0.060617 0.234199
v 0.492912 0.188270 0.234199
v -0.492912 0.060617 0.234199
v -0.492912 0.188270 0.234199
v 0.492912 -0.213987 -0.234058
v 0.492912 -0.086334 -0.234058
v -0.492912 -0.213987 -0.234058
v -0.492912 -0.086334 -0.234058
v 0.492912 -0.213987 -0.250439
v 0.492912 -0.086334 -0.250439
v -0.492912 -0.213987 -0.250439
v -0.492912 -0.086334 -0.250439
v 0.492912 -0.079040 -0.234058
v 0.492912 0.048613 -0.234058
v -0.492912 -0.079040 -0.234058
v -0.492912 0.048613 -0.234058
v 0.492912 -0.079040 -0.250439
v 0.492912 0.048613 -0.250439
v -0.492912 -0.079040 -0.250439
v -0.492912 0.048613 -0.250439
v 0.492912 0.060617 -0.234058
v 0.492912 0.188270 -0.234058
v -0.492912 0.060617 -0.234058
v -0.492912 0.188270 -0.234058
v 0.492912 0.060617 -0.250439
v 0.492912 0.188270 -0.250439
v -0.492912 0.060617 -0.250439
v -0.492912 0.188270 -0.250439
v 0.502586 -0.214709 0.245312
v 0.502586 -0.214709 0.129246
v -0.497414 -0.214709 0.245313
v -0.497414 -0.214709 0.129246
v 0.502586 -0.231089 0.245312
v 0.502586 -0.231089 0.129246
v -0.497414 -0.231089 0.245313
v -0.497414 -0.231089 0.129246
v 0.502586 -0.214709 0.118972
v 0.502586 -0.214709 0.002905
v -0.497414 -0.214709 0.118972
v -0.497414 -0.214709 0.002905
v 0.502586 -0.231089 0.118972
v 0.502586 -0.231089 0.002905
v -0.497414 -0.231089 0.118972
v -0.497414 -0.231089 0.002905
v 0.502586 -0.214709 -0.004366
v 0.502586 -0.214709 -0.120432
v -0.497414 -0.214709 -0.004366
v -0.497414 -0.214709 -0.120432
v 0.502586 -0.231089 -0.004366
v 0.502586 -0.231089 -0.120432
v -0.497414 -0.231089 -0.004366
v -0.497414 -0.231089 -0.120432
v 0.502586 -0.214709 -0.127784
v 0.502586 -0.214709 -0.243851
v -0.497414 -0.214709 -0.127784
v -0.497414 -0.214709 -0.243851
v 0.502586 -0.231089 -0.127784
v 0.502586 -0.231089 -0.243851
v -0.497414 -0.231089 -0.127784
v -0.497414 -0.231089 -0.243851
v 0.454152 -0.221401 0.235767
v 0.495785 -0.221401 0.235767
v 0.454152 0.188952 0.235767
v 0.495785 0.188952 0.235767
v 0.454152 -0.221401 0.201740
v 0.495785 -0.221401 0.201740
v 0.454152 0.188952 0.201740
v 0.495785 0.188952 0.201740
v -0.495175 -0.221401 0.235767
v -0.453541 -0.221401 0.235767
v -0.495175 0.188952 0.235767
v -0.453541 0.188952 0.235767
v -0.495175 -0.221401 0.201740
v -0.453541 -0.221401 0.201740
v -0.495175 0.188952 0.201740
v -0.453541 0.188952 0.201740
v 0.454152 -0.221401 -0.198900
v 0.495785 -0.221401 -0.198900
v 0.454152 0.188952 -0.198900
v 0.495785 0.188952 -0.198900
v 0.454152 -0.221401 -0.232927
v 0.495785 -0.221401 -0.232927
v 0.454152 0.188952 -0.232927
v 0.495785 0.188952 -0.232927
v -0.495175 -0.221401 -0.198900
v -0.453541 -0.221401 -0.198900
v -0.495175 0.188952 -0.198900
v -0.453541 0.188952 -0.198900
v -0.495175 -0.221401 -0.232927
v -0.453541 -0.221401 -0.232927
v -0.495175 0.188952 -0.232927
v -0.453541 0.188952 -0.232927
vn -1.0000 -0.0000 -0.0000
vn -0.0000 -0.0000 -1.0000
vn 1.0000 -0.0000 -0.0000
vn -0.0000 -0.0000 1.0000
vn -0.0000 -1.0000 -0.0000
vn -0.0000 1.0000 -0.0000
vt 0.515989 0.750462
vt 0.515989 0.862331
vt 0.002012 0.862331
vt 0.002012 0.750462
vt 0.072473 0.758897
vt 0.073301 0.854977
vt 0.066911 0.860973
vt 0.066098 0.752964
vt 0.002012 0.862331
vt 0.463943 0.752964
vt 0.462248 0.861129
vt 0.455849 0.855078
vt 0.456694 0.758894
vt 0.997072 0.423618
vt 0.997072 0.526458
vt 0.483095 0.526458
vt 0.483095 0.423618
vt 0.553556 0.431372
vt 0.554384 0.519697
vt 0.547994 0.525209
vt 0.547181 0.425917
vt 0.483095 0.526458
vt 0.945026 0.425918
vt 0.943331 0.525353
vt 0.936932 0.519790
vt 0.937777 0.431369
vt 0.515989 0.633274
vt 0.515989 0.745143
vt 0.002012 0.745143
vt 0.002012 0.633274
vt 0.072473 0.641709
vt 0.073301 0.737790
vt 0.066911 0.743785
vt 0.066098 0.635776
vt 0.002012 0.745143
vt 0.463943 0.635776
vt 0.462248 0.743942
vt 0.455849 0.737891
vt 0.456694 0.641706
vt 0.987106 0.533362
vt 0.987106 0.624332
vt 0.005488 0.624332
vt 0.005488 0.533362
vt 0.140058 0.540221
vt 0.141639 0.618352
vt 0.129435 0.623228
vt 0.127882 0.535397
vt 0.005488 0.624332
vt 0.887706 0.535397
vt 0.884467 0.623355
vt 0.872246 0.618435
vt 0.873860 0.540219
vt 1.000509 0.006603
vt 1.000509 0.097050
vt 0.006669 0.097050
vt 0.006669 0.006603
vt 0.142914 0.013423
vt 0.144515 0.091104
vt 0.132160 0.095952
vt 0.130587 0.008626
vt 0.006669 0.097050
vt 0.899871 0.008626
vt 0.896592 0.096078
vt 0.884219 0.091186
vt 0.885853 0.013420
vt 0.993903 0.204843
vt 0.993903 0.302557
vt 0.003483 0.302557
vt 0.003483 0.204843
vt 0.139259 0.212211
vt 0.140854 0.296133
vt 0.128541 0.301371
vt 0.126974 0.207028
vt 0.003483 0.302557
vt 0.893612 0.207028
vt 0.890344 0.301507
vt 0.878013 0.296222
vt 0.879642 0.212208
s 0
usemtl plank
f 1/1/1 2/2/1 4/3/1 3/4/1
f 3/5/2 4/6/2 8/7/2 7/8/2
f 7/4/3 8/9/3 6/2/3 5/1/3
f 5/10/4 6/11/4 2/12/4 1/13/4
f 3/5/5 7/8/5 5/10/5 1/13/5
f 8/7/6 4/6/6 2/12/6 6/11/6
f 9/14/1 10/15/1 12/16/1 11/17/1
f 11/18/4 12/19/4 16/20/4 15/21/4
f 15/17/3 16/22/3 14/15/3 13/14/3
f 13/23/2 14/24/2 10/25/2 9/26/2
f 11/18/6 15/21/6 13/23/6 9/26/6
f 16/20/5 12/19/5 10/25/5 14/24/5
f 17/27/1 18/28/1 20/29/1 19/30/1
f 19/31/2 20/32/2 24/33/2 23/34/2
f 23/30/3 24/35/3 22/28/3 21/27/3
f 21/36/4 22/37/4 18/38/4 17/39/4
f 19/31/5 23/34/5 21/36/5 17/39/5
f 24/33/6 20/32/6 18/38/6 22/37/6
f 25/1/1 26/2/1 28/3/1 27/4/1
f 27/5/2 28/6/2 32/7/2 31/8/2
f 31/4/3 32/9/3 30/2/3 29/1/3
f 29/10/4 30/11/4 26/12/4 25/13/4
f 27/5/5 31/8/5 29/10/5 25/13/5
f 32/7/6 28/6/6 26/12/6 30/11/6
f 33/14/1 34/15/1 36/16/1 35/17/1
f 35/18/2 36/19/2 40/20/2 39/21/2
f 39/17/3 40/22/3 38/15/3 37/14/3
f 37/23/4 38/24/4 34/25/4 33/26/4
f 35/18/5 39/21/5 37/23/5 33/26/5
f 40/20/6 36/19/6 34/25/6 38/24/6
f 41/27/1 42/28/1 44/29/1 43/30/1
f 43/31/2 44/32/2 48/33/2 47/34/2
f 47/30/3 48/35/3 46/28/3 45/27/3
f 45/36/4 46/37/4 42/38/4 41/39/4
f 43/31/5 47/34/5 45/36/5 41/39/5
f 48/33/6 44/32/6 42/38/6 46/37/6
f 49/40/4 50/41/4 52/42/4 51/43/4
f 51/44/1 52/45/1 56/46/1 55/47/1
f 55/43/2 56/48/2 54/41/2 53/40/2
f 53/49/3 54/50/3 50/51/3 49/52/3
f 51/44/5 55/47/5 53/49/5 49/52/5
f 56/46/6 52/45/6 50/51/6 54/50/6
f 57/53/4 58/54/4 60/55/4 59/56/4
f 59/57/1 60/58/1 64/59/1 63/60/1
f 63/56/2 64/61/2 62/54/2 61/53/2
f 61/62/3 62/63/3 58/64/3 57/65/3
f 59/57/5 63/60/5 61/62/5 57/65/5
f 64/59/6 60/58/6 58/64/6 62/63/6
f 65/66/4 66/67/4 68/68/4 67/69/4
f 67/70/1 68/71/1 72/72/1 71/73/1
f 71/69/2 72/74/2 70/67/2 69/66/2
f 69/75/3 70/76/3 66/77/3 65/78/3
f 67/70/5 71/73/5 69/75/5 65/78/5
f 72/72/6 68/71/6 66/77/6 70/76/6
f 73/40/4 74/41/4 76/42/4 75/43/4
f 75/44/1 76/45/1 80/46/1 79/47/1
f 79/43/2 80/48/2 78/41/2 77/40/2
f 77/49/3 78/50/3 74/51/3 73/52/3
f 75/44/5 79/47/5 77/49/5 73/52/5
f 80/46/6 76/45/6 74/51/6 78/50/6
f 81/53/4 82/54/4 84/55/4 83/56/4
f 83/57/1 84/58/1 88/59/1 87/60/1
f 87/56/2 88/61/2 86/54/2 85/53/2
f 85/62/3 86/63/3 82/64/3 81/65/3
f 83/57/5 87/60/5 85/62/5 81/65/5
f 88/59/6 84/58/6 82/64/6 86/63/6
f 89/66/4 90/67/4 92/68/4 91/69/4
f 91/70/1 92/71/1 96/72/1 95/73/1
f 95/69/2 96/74/2 94/67/2 93/66/2
f 93/75/3 94/76/3 90/77/3 89/78/3
f 91/70/5 95/73/5 93/75/5 89/78/5
f 96/72/6 92/71/6 90/77/6 94/76/6
f 97/1/6 98/2/6 100/3/6 99/4/6
f 99/5/1 100/6/1 104/7/1 103/8/1
f 103/4/5 104/9/5 102/2/5 101/1/5
f 101/10/3 102/11/3 98/12/3 97/13/3
f 99/5/4 103/8/4 101/10/4 97/13/4
f 104/7/2 100/6/2 98/12/2 102/11/2
f 105/1/6 106/2/6 108/3/6 107/4/6
f 107/5/1 108/6/1 112/7/1 111/8/1
f 111/4/5 112/9/5 110/2/5 109/1/5
f 109/10/3 110/11/3 106/12/3 105/13/3
f 107/5/4 111/8/4 109/10/4 105/13/4
f 112/7/2 108/6/2 106/12/2 110/11/2
f 113/1/6 114/2/6 116/3/6 115/4/6
f 115/5/1 116/6/1 120/7/1 119/8/1
f 119/4/5 120/9/5 118/2/5 117/1/5
f 117/10/3 118/11/3 114/12/3 113/13/3
f 115/5/4 119/8/4 117/10/4 113/13/4
f 120/7/2 116/6/2 114/12/2 118/11/2
f 121/1/6 122/2/6 124/3/6 123/4/6
f 123/5/1 124/6/1 128/7/1 127/8/1
f 127/4/5 128/9/5 126/2/5 125/1/5
f 125/10/3 126/11/3 122/12/3 121/13/3
f 123/5/4 127/8/4 125/10/4 121/13/4
f 128/7/2 124/6/2 122/12/2 126/11/2
f 129/27/4 130/28/4 132/29/4 131/30/4
f 131/31/6 132/32/6 136/33/6 135/34/6
f 135/30/2 136/35/2 134/28/2 133/27/2
f 133/36/5 134/37/5 130/38/5 129/39/5
f 131/31/1 135/34/1 133/36/1 129/39/1
f 136/33/3 132/32/3 130/38/3 134/37/3
f 137/27/4 138/28/4 140/29/4 139/30/4
f 139/31/6 140/32/6 144/33/6 143/34/6
f 143/30/2 144/35/2 142/28/2 141/27/2
f 141/36/5 142/37/5 138/38/5 137/39/5
f 139/31/1 143/34/1 141/36/1 137/39/1
f 144/33/3 140/32/3 138/38/3 142/37/3
f 145/27/4 146/28/4 148/29/4 147/30/4
f 147/31/6 148/32/6 152/33/6 151/34/6
f 151/30/2 152/35/2 150/28/2 149/27/2
f 149/36/5 150/37/5 146/38/5 145/39/5
f 147/31/1 151/34/1 149/36/1 145/39/1
f 152/33/3 148/32/3 146/38/3 150/37/3
f 153/27/4 154/28/4 156/29/4 155/30/4
f 155/31/6 156/32/6 160/33/6 159/34/6
f 159/30/2 160/35/2 158/28/2 157/27/2
f 157/36/5 158/37/5 154/38/5 153/39/5
f 155/31/1 159/34/1 157/36/1 153/39/1
f 160/33/3 156/32/3 154/38/3 158/37/3
