# Blender 5.1.1
# www.blender.org
mtllib bite.mtl
o bite
v 0.244425 0.000000 0.000000
v 0.225819 0.000000 0.152919
v 0.172835 0.000000 0.282558
v 0.093538 0.000000 0.369180
v 0.000000 0.000000 0.399597
v -0.093538 0.000000 0.369180
v -0.172835 0.000000 0.282558
v -0.225819 0.000000 0.152919
v -0.244425 0.000000 0.000000
v 0.139998 0.420528 0.000000
v 0.177484 0.379559 -0.000000
v 0.165359 0.408528 -0.000000
v 0.129341 0.420528 0.053575
v 0.163962 0.379749 0.072700
v 0.152768 0.408584 0.064680
v 0.098993 0.420528 0.098993
v 0.125457 0.380457 0.134145
v 0.116914 0.408791 0.119458
v 0.053575 0.420528 0.129341
v 0.067871 0.381455 0.174924
v 0.063266 0.409084 0.155979
v 0.000000 0.420528 0.139998
v 0.000000 0.381933 0.189157
v 0.000000 0.409224 0.168778
v -0.053575 0.420528 0.129341
v -0.067871 0.381455 0.174924
v -0.063266 0.409084 0.155979
v -0.098993 0.420528 0.098993
v -0.125457 0.380457 0.134145
v -0.116914 0.408791 0.119458
v -0.129341 0.420528 0.053575
v -0.163962 0.379749 0.072700
v -0.152768 0.408584 0.064680
v -0.177484 0.379559 0.000000
v -0.139998 0.420528 0.000000
v -0.165359 0.408528 0.000000
vn 0.3854 0.9090 0.1584
vn 0.4238 0.9020 0.0829
vn 0.2432 0.9688 0.0476
vn 0.2219 0.9711 0.0880
vn 0.7095 0.4034 0.5779
vn 0.8967 0.3196 0.3062
vn 0.8468 0.4243 0.3208
vn 0.6410 0.4951 0.5864
vn 0.2819 0.9181 0.2786
vn 0.1640 0.9739 0.1569
vn 0.3981 0.4923 0.7741
vn 0.3405 0.5640 0.7523
vn 0.1460 0.9264 0.3471
vn 0.0856 0.9766 0.1972
vn -0.0000 0.5309 0.8474
vn -0.0000 0.5915 0.8063
vn -0.0000 0.9296 0.3685
vn -0.0000 0.9777 0.2100
vn -0.3981 0.4923 0.7741
vn -0.3405 0.5640 0.7523
vn -0.1460 0.9264 0.3471
vn -0.0856 0.9766 0.1972
vn -0.7095 0.4034 0.5779
vn -0.6410 0.4951 0.5864
vn -0.2819 0.9181 0.2786
vn -0.1640 0.9739 0.1569
vn -0.8967 0.3196 0.3062
vn -0.8468 0.4243 0.3208
vn -0.3854 0.9090 0.1584
vn -0.2219 0.9711 0.0880
vn -0.9466 0.2825 0.1553
vn -0.9052 0.3889 0.1714
vn -0.4238 0.9020 0.0829
vn -0.2432 0.9688 0.0476
vn 0.9466 0.2825 0.1553
vn 0.9293 0.2216 0.2955
vn 0.9739 0.1798 0.1385
vn 0.7481 0.3235 0.5793
vn 0.4210 0.4306 0.7983
vn -0.0000 0.4748 0.8801
vn -0.4210 0.4306 0.7983
vn -0.7481 0.3235 0.5793
vn -0.9293 0.2216 0.2955
vn -0.9739 0.1798 0.1385
vn 0.9052 0.3889 0.1714
vt 0.806432 0.915667
vt 0.909354 0.915667
vt 0.829107 0.915667
vt 0.763208 0.915667
vt 0.705364 0.837393
vt 0.808047 0.836011
vt 0.703466 0.915667
vt 0.677915 0.915667
vt 0.602682 0.839343
vt 0.601287 0.915667
vt 0.589430 0.915667
vt 0.500000 0.840276
vt 0.500000 0.915667
vt 0.500000 0.915668
vt 0.397318 0.839343
vt 0.398713 0.915667
vt 0.410570 0.915668
vt 0.294636 0.837393
vt 0.296534 0.915667
vt 0.322085 0.915667
vt 0.191953 0.836011
vt 0.193568 0.915667
vt 0.236792 0.915667
vt 0.089271 0.835638
vt 0.090646 0.915667
vt 0.170893 0.915667
vt 0.910729 0.835638
vt 0.808047 0.094210
vt 0.910729 0.094210
vt 0.705364 0.094210
vt 0.602682 0.094210
vt 0.500000 0.094210
vt 0.397318 0.094210
vt 0.294636 0.094210
vt 0.191953 0.094210
vt 0.089271 0.094210
s 1
usemtl concrete
f 15/1/1 12/2/2 10/3/3 13/4/4
f 17/5/5 14/6/6 15/1/7 18/7/8
f 18/7/9 15/1/1 13/4/4 16/8/10
f 20/9/11 17/5/5 18/7/8 21/10/12
f 21/10/13 18/7/9 16/8/10 19/11/14
f 23/12/15 20/9/11 21/10/12 24/13/16
f 24/13/17 21/10/13 19/11/14 22/14/18
f 26/15/19 23/12/15 24/13/16 27/16/20
f 27/16/21 24/13/17 22/14/18 25/17/22
f 29/18/23 26/15/19 27/16/20 30/19/24
f 30/19/25 27/16/21 25/17/22 28/20/26
f 32/21/27 29/18/23 30/19/24 33/22/28
f 33/22/29 30/19/25 28/20/26 31/23/30
f 34/24/31 32/21/27 33/22/28 36/25/32
f 36/25/33 33/22/29 31/23/30 35/26/34
f 11/27/35 14/6/6 2/28/36 1/29/37
f 14/6/6 17/5/5 3/30/38 2/28/36
f 10/3/3 35/26/34 31/23/30 28/20/26 25/17/22 22/14/18 19/11/14 16/8/10 13/4/4
f 17/5/5 20/9/11 4/31/39 3/30/38
f 20/9/11 23/12/15 5/32/40 4/31/39
f 23/12/15 26/15/19 6/33/41 5/32/40
f 26/15/19 29/18/23 7/34/42 6/33/41
f 29/18/23 32/21/27 8/35/43 7/34/42
f 32/21/27 34/24/31 9/36/44 8/35/43
f 14/6/6 11/27/35 12/2/45 15/1/7
