# Blender 5.1.1
# www.blender.org
mtllib props_lamp_support.mtl
o wall_props_c
v -0.084030 -0.273051 -0.000000
v 1.259074 0.073952 -0.000000
v -0.084030 0.195833 -0.000000
v 1.259074 0.195833 -0.000000
v 0.587522 -0.185078 -0.000000
v 0.587522 0.195833 -0.000000
v -0.084030 -0.273051 -0.040000
v 1.259074 0.073952 -0.040000
v -0.084030 0.195833 -0.040000
v 1.259074 0.195833 -0.040000
v 0.587522 -0.185078 -0.040000
v 0.587522 0.195833 -0.040000
vn -0.0000 -0.0000 1.0000
vn -0.0000 -0.0000 -1.0000
vn 0.1299 -0.9915 -0.0000
vn 0.3599 -0.9330 -0.0000
vn 1.0000 -0.0000 -0.0000
vn -0.0000 1.0000 -0.0000
vn -1.0000 -0.0000 -0.0000
vt 0.500000 0.000000
vt 1.000000 0.000000
vt 1.000000 1.000000
vt 0.500000 1.000000
vt 0.000000 0.000000
vt 0.000000 1.000000
s 0
usemtl metal
f 5/1/1 2/2/1 4/3/1 6/4/1
f 1/5/1 5/1/1 6/4/1 3/6/1
f 11/1/2 12/4/2 10/3/2 8/2/2
f 7/5/2 9/6/2 12/4/2 11/1/2
f 7/5/3 11/1/3 5/1/3 1/5/3
f 11/1/4 8/2/4 2/2/4 5/1/4
f 8/2/5 10/3/5 4/3/5 2/2/5
f 10/3/6 12/4/6 6/4/6 4/3/6
f 12/4/6 9/6/6 3/6/6 6/4/6
f 9/6/7 7/5/7 1/5/7 3/6/7
