# Blender 5.1.1
# www.blender.org
mtllib props_lamp.mtl
o lamp
v -0.101435 -0.063401 0.101435
v -0.101435 -0.063401 -0.101435
v 0.101435 -0.063401 0.101435
v 0.101435 -0.063401 -0.101435
v -0.071648 0.455296 0.071648
v -0.071648 0.455296 -0.071648
v 0.071648 0.455296 -0.071648
v 0.071648 0.455296 0.071648
v -0.146048 0.444920 0.146048
v -0.146048 0.444920 -0.146048
v 0.146048 0.444920 -0.146048
v 0.146048 0.444920 0.146048
v -0.123594 0.455296 0.123594
v -0.123594 0.455296 -0.123594
v 0.123594 0.455296 -0.123594
v 0.123594 0.455296 0.123594
v -0.061859 0.490962 0.061859
v -0.061859 0.490962 -0.061859
v 0.061859 0.490962 -0.061859
v 0.061859 0.490962 0.061859
v -0.061859 0.511117 0.061859
v -0.061859 0.511117 -0.061859
v 0.061859 0.511117 -0.061859
v 0.061859 0.511117 0.061859
v -0.077914 0.541962 0.077913
v -0.077914 0.541962 -0.077914
v 0.077914 0.541962 -0.077914
v 0.077914 0.541962 0.077913
v -0.203256 0.294063 0.203256
v -0.199387 0.324241 0.199387
v -0.227720 0.307745 -0.227720
v -0.203256 0.294063 -0.203256
v 0.227720 0.307745 0.227720
v 0.203256 0.294063 0.203256
v 0.227720 0.307745 -0.227720
v 0.203256 0.294063 -0.203256
v -0.227720 0.307745 0.227720
v -0.199387 0.324241 -0.199387
v -0.231290 0.290057 -0.231290
v -0.231290 0.290057 0.231290
v 0.199387 0.324241 -0.199387
v 0.231290 0.290057 -0.231290
v 0.199387 0.324241 0.199387
v 0.231290 0.290057 0.231290
v -0.144146 -0.045259 -0.144146
v -0.144146 -0.045259 0.144146
v 0.144146 -0.045259 -0.144146
v 0.144146 -0.045259 0.144146
v -0.026576 -0.128938 -0.026576
v -0.026576 -0.128938 0.026576
v 0.026576 -0.128938 -0.026576
v 0.026576 -0.128938 0.026576
v -0.026576 -0.207988 -0.026576
v -0.026576 -0.207988 0.026576
v 0.026576 -0.207988 -0.026576
v 0.026576 -0.207988 0.026576
v 0.099486 0.006932 0.153238
v 0.140413 0.241872 0.194164
v -0.140413 0.241872 0.194164
v -0.099486 0.006932 0.153238
v -0.153238 0.006932 0.099486
v -0.194164 0.241872 0.140413
v -0.194164 0.241872 -0.140413
v -0.153238 0.006932 -0.099486
v -0.099486 0.006932 -0.153238
v -0.140413 0.241872 -0.194164
v 0.140413 0.241872 -0.194164
v 0.099486 0.006932 -0.153238
v 0.153238 0.006932 -0.099486
v 0.194164 0.241872 -0.140413
v 0.194164 0.241872 0.140413
v 0.153238 0.006932 0.099486
vn 0.6587 -0.7524 -0.0000
vn 0.9643 0.2647 -0.0000
vn -0.4195 0.9078 -0.0000
vn -0.0000 0.9078 -0.4195
vn 0.4195 0.9078 -0.0000
vn -0.0000 0.9078 0.4195
vn -0.0000 1.0000 -0.0000
vn -0.0000 -0.0000 1.0000
vn -0.9643 0.2647 -0.0000
vn -0.0000 0.2647 0.9643
vn -0.0000 0.2647 -0.9643
vn 0.8870 -0.4617 -0.0000
vn -0.0000 -0.0000 -1.0000
vn 1.0000 -0.0000 -0.0000
vn -1.0000 -0.0000 -0.0000
vn -0.8870 -0.4617 -0.0000
vn -0.0000 -0.4617 0.8870
vn -0.0000 -0.4617 -0.8870
vn -0.9802 0.1979 -0.0000
vn -0.0000 0.1979 -0.9802
vn 0.9802 0.1979 -0.0000
vn -0.0000 0.1979 0.9802
vn -0.0000 -0.1716 0.9852
vn -0.9852 -0.1716 -0.0000
vn -0.0000 0.4043 0.9146
vn -0.9146 0.4043 -0.0000
vn -0.0000 -0.1716 -0.9852
vn -0.0000 0.4043 -0.9146
vn 0.9146 0.4043 -0.0000
vn 0.9852 -0.1716 -0.0000
vn -0.5032 0.8642 -0.0000
vn 0.1415 -0.9899 -0.0000
vn -0.0000 0.8642 -0.5032
vn -0.0000 -0.9899 0.1415
vn 0.5032 0.8642 -0.0000
vn -0.1415 -0.9899 -0.0000
vn -0.0000 0.8642 0.5032
vn -0.0000 -0.9899 -0.1415
vn -0.3909 -0.9204 -0.0000
vn -0.0000 -0.9204 -0.3909
vn 0.3909 -0.9204 -0.0000
vn -0.0000 -0.9204 0.3909
vn -0.6587 -0.7524 -0.0000
vn -0.0000 -0.7524 0.6587
vn -0.0000 -0.7524 -0.6587
vn -0.0000 -1.0000 -0.0000
vt 0.759616 0.841082
vt 0.605552 0.841082
vt 0.662402 0.784233
vt 0.702766 0.784233
vt 0.248282 0.783103
vt 0.248282 0.891924
vt 0.220312 0.884491
vt 0.220312 0.790537
vt 0.368345 0.859355
vt 0.556065 0.859355
vt 0.573117 0.876407
vt 0.351293 0.876407
vt 0.556065 0.671635
vt 0.573117 0.654583
vt 0.368345 0.671635
vt 0.351293 0.654583
vt 0.407794 0.819906
vt 0.516616 0.819906
vt 0.516616 0.711084
vt 0.407794 0.711084
vt 0.223393 0.672199
vt 0.223393 0.766153
vt 0.208093 0.766153
vt 0.208093 0.672199
vt 0.184325 0.664765
vt 0.184325 0.773586
vt 0.157901 0.766152
vt 0.157901 0.672199
vt 0.250251 0.664765
vt 0.250251 0.773586
vt 0.065926 0.783103
vt 0.065926 0.891924
vt 0.039068 0.884491
vt 0.039068 0.790537
vt 0.205244 0.790537
vt 0.205244 0.884491
vt 0.184325 0.896683
vt 0.184325 0.778345
vt 0.023768 0.884491
vt 0.023768 0.790537
vt 0.142641 0.766152
vt 0.142641 0.672199
vt 0.118338 0.660007
vt 0.118338 0.778345
vt 0.000000 0.778345
vt 0.000000 0.660007
vt 0.118338 0.778345
vt 0.118338 0.660007
vt 0.184325 0.660007
vt -0.000000 0.896683
vt -0.000000 0.778345
vt 0.945608 0.997288
vt 0.945608 0.651419
vt 0.958789 0.648707
vt 0.958789 1.000000
vt 0.972490 0.694451
vt 0.972490 0.348581
vt 0.985838 0.345870
vt 0.985838 0.697163
vt 0.958789 0.694451
vt 0.958789 0.348581
vt 0.972490 0.345870
vt 0.972490 0.697163
vt 0.985838 0.694451
vt 0.985838 0.348581
vt 0.999187 0.345870
vt 0.999187 0.697163
vt 0.411965 0.792407
vt 0.578364 0.785384
vt 0.578364 0.964616
vt 0.411965 0.957593
vt 0.411965 0.042407
vt 0.578364 0.035384
vt 0.578364 0.214616
vt 0.411965 0.207593
vt 0.349314 0.351293
vt 0.349314 0.654130
vt 0.258883 0.613624
vt 0.258883 0.391800
vt 0.958789 0.345870
vt 0.958789 0.648707
vt 0.870579 0.608200
vt 0.870579 0.386376
vt 0.411965 0.292407
vt 0.578364 0.285384
vt 0.578364 0.464616
vt 0.411965 0.457593
vt 0.349314 0.654130
vt 0.349314 0.956968
vt 0.258883 0.916461
vt 0.258883 0.694637
vt 0.889386 0.654583
vt 0.889386 0.957421
vt 0.792051 0.916914
vt 0.792051 0.695090
vt 0.411965 0.542407
vt 0.578364 0.535384
vt 0.578364 0.714616
vt 0.411965 0.707593
vt 0.697163 0.345870
vt 0.351293 0.345870
vt 0.372809 0.324354
vt 0.675647 0.324354
vt 0.000000 0.000000
vt 0.351293 0.000000
vt 0.330003 0.021290
vt 0.021290 0.021290
vt 0.697163 0.000000
vt 0.675647 0.021516
vt 0.351293 0.351293
vt 0.330003 0.330003
vt 0.351293 0.000000
vt 0.372809 0.021516
vt -0.000000 0.351293
vt 0.021290 0.330003
vt 0.759616 0.687019
vt 0.605552 0.687019
vt 0.573117 0.654583
vt 0.792051 0.654583
vt 0.792051 0.873517
vt 0.573117 0.873517
vt 0.077973 0.838351
vt 0.118338 0.838351
vt 0.118338 0.898201
vt 0.077973 0.898201
vt 0.702766 0.743868
vt 0.662402 0.743868
vt 0.613481 0.873517
vt 0.613481 0.913882
vt 0.573117 0.913882
vt 0.118338 0.778345
vt 0.158703 0.778345
vt 0.158703 0.838351
vt 0.118338 0.838351
vt 0.077973 0.778345
vt 0.118338 0.778345
vt 0.118338 0.838351
vt 0.077973 0.838351
vt 0.118338 0.838351
vt 0.158703 0.838351
vt 0.158703 0.897450
vt 0.118338 0.897450
vt 0.258883 0.615117
vt 0.000000 0.660007
vt 0.039819 0.612282
vt 0.219064 0.581201
vt 0.000000 0.351293
vt 0.039819 0.399018
vt 0.258883 0.396183
vt 0.219064 0.430098
vt 0.611696 0.609694
vt 0.351293 0.654583
vt 0.391346 0.606858
vt 0.571643 0.575778
vt 0.351293 0.345870
vt 0.391346 0.393594
vt 0.611696 0.390759
vt 0.571643 0.424675
vt 0.870579 0.609694
vt 0.611696 0.654583
vt 0.651515 0.606859
vt 0.830760 0.575778
vt 0.611696 0.345870
vt 0.651515 0.393594
vt 0.870579 0.390759
vt 0.830760 0.424675
vt 0.942963 0.263824
vt 0.697163 0.308713
vt 0.734969 0.260989
vt 0.905156 0.229908
vt 0.697163 -0.000000
vt 0.734969 0.047725
vt 0.942963 0.044890
vt 0.905156 0.078805
s 0
usemtl metal
f 4/1/1 3/2/1 52/3/1 51/4/1
f 8/5/2 7/6/2 19/7/2 20/8/2
f 13/9/3 14/10/3 10/11/3 9/12/3
f 14/10/4 15/13/4 11/14/4 10/11/4
f 15/13/5 16/15/5 12/16/5 11/14/5
f 16/15/6 13/9/6 9/12/6 12/16/6
f 5/17/7 6/18/7 14/10/7 13/9/7
f 6/18/7 7/19/7 15/13/7 14/10/7
f 7/19/7 8/20/7 16/15/7 15/13/7
f 8/20/7 5/17/7 13/9/7 16/15/7
f 17/21/8 20/22/8 24/23/8 21/24/8
f 6/25/9 5/26/9 17/27/9 18/28/9
f 5/29/10 8/30/10 20/22/10 17/21/10
f 7/31/11 6/32/11 18/33/11 19/34/11
f 24/35/12 23/36/12 27/37/12 28/38/12
f 19/34/13 18/33/13 22/39/13 23/40/13
f 20/8/14 19/7/14 23/36/14 24/35/14
f 18/28/15 17/27/15 21/41/15 22/42/15
f 27/43/7 26/44/7 25/45/7 28/46/7
f 22/42/16 21/41/16 25/47/16 26/48/16
f 21/24/17 24/23/17 28/38/17 25/49/17
f 23/40/18 22/39/18 26/50/18 27/51/18
f 37/52/19 31/53/19 39/54/19 40/55/19
f 31/56/20 35/57/20 42/58/20 39/59/20
f 35/60/21 33/61/21 44/62/21 42/63/21
f 33/64/22 37/65/22 40/66/22 44/67/22
f 30/76/25 43/77/25 12/78/25 9/79/25
f 38/80/26 30/81/26 9/82/26 10/83/26
f 41/88/28 38/89/28 10/90/28 11/91/28
f 43/92/29 41/93/29 11/94/29 12/95/29
f 31/100/31 37/101/31 30/102/31 38/103/31
f 40/104/32 39/105/32 32/106/32 29/107/32
f 35/108/33 31/100/33 38/103/33 41/109/33
f 39/105/34 42/110/34 36/111/34 32/106/34
f 33/112/35 35/108/35 41/109/35 43/113/35
f 42/110/36 44/114/36 34/115/36 36/111/36
f 37/101/37 33/112/37 43/113/37 30/102/37
f 44/114/38 40/104/38 29/107/38 34/115/38
f 2/116/39 1/117/39 46/118/39 45/119/39
f 4/1/40 2/116/40 45/119/40 47/120/40
f 3/2/41 4/1/41 47/120/41 48/121/41
f 1/117/42 3/2/42 48/121/42 46/118/42
f 50/122/15 49/123/15 53/124/15 54/125/15
f 1/117/43 2/116/43 49/126/43 50/127/43
f 3/2/44 1/117/44 50/127/44 52/3/44
f 2/116/45 4/1/45 51/4/45 49/126/45
f 53/128/46 55/129/46 56/130/46 54/121/46
f 52/131/8 50/132/8 54/133/8 56/134/8
f 49/135/13 51/136/13 55/137/13 53/138/13
f 51/139/14 52/140/14 56/141/14 55/142/14
f 48/143/23 34/144/23 58/145/23 57/146/23
f 34/144/23 29/147/23 59/148/23 58/145/23
f 29/147/23 46/149/23 60/150/23 59/148/23
f 46/149/23 48/143/23 57/146/23 60/150/23
f 46/151/24 29/152/24 62/153/24 61/154/24
f 29/152/24 32/155/24 63/156/24 62/153/24
f 32/155/24 45/157/24 64/158/24 63/156/24
f 45/157/24 46/151/24 61/154/24 64/158/24
f 45/159/27 32/160/27 66/161/27 65/162/27
f 32/160/27 36/163/27 67/164/27 66/161/27
f 36/163/27 47/165/27 68/166/27 67/164/27
f 47/165/27 45/159/27 65/162/27 68/166/27
f 47/167/30 36/168/30 70/169/30 69/170/30
f 36/168/30 34/171/30 71/172/30 70/169/30
f 34/171/30 48/173/30 72/174/30 71/172/30
f 48/173/30 47/167/30 69/170/30 72/174/30
usemtl glass
f 57/68/23 58/69/23 59/70/23 60/71/23
f 61/72/24 62/73/24 63/74/24 64/75/24
f 65/84/27 66/85/27 67/86/27 68/87/27
f 69/96/30 70/97/30 71/98/30 72/99/30
