# Blender 5.1.1
# www.blender.org
mtllib roof_a_half.mtl
o roof_a_half
v -1.000000 0.066895 0.263604
v -1.000000 2.200000 -1.000000
v -1.000000 -0.411454 0.211999
v -1.000000 -0.411454 -0.031531
v 1.000000 -0.411454 -0.031531
v -1.000000 -0.218658 0.263604
v -1.000000 0.089579 0.211999
v -1.000000 -0.241342 0.211999
v -1.000000 2.800000 -2.000000
v 0.000000 0.089579 0.211999
v 0.000000 2.200000 -1.000000
v 0.000000 -0.411454 0.211999
v 0.000000 -0.411454 -0.031531
v 0.000000 -0.241342 0.211999
v 0.000000 0.066895 0.263604
v 0.000000 -0.218658 0.263604
v 0.000000 2.800000 -2.000000
vn -0.0000 -0.0000 1.0000
vn -0.0000 -1.0000 -0.0000
vn -0.0000 -0.9155 0.4024
vn -0.0000 0.8575 0.5145
vn -0.0000 0.9155 0.4024
vn -0.0000 0.4980 0.8672
vt 0.379249 0.267218
vt 0.379249 0.534436
vt 0.333792 0.534436
vt 0.333792 0.267218
vt 0.268716 0.534436
vt 0.268716 0.267218
vt 0.470617 0.267218
vt 0.470617 0.534436
vt 0.394312 0.534436
vt 0.394312 0.267218
vt 0.000072 0.632559
vt 0.256911 0.632559
vt 0.256911 0.998987
vt 0.000072 0.998987
vt 0.485681 0.267218
vt 0.485681 0.534436
vt 0.000072 0.000072
vt 0.256911 0.000072
s 0
usemtl roof
f 2/11/4 11/12/4 17/13/4 9/14/4
f 7/17/6 10/18/6 11/12/6 2/11/6
usemtl wall
f 14/1/1 8/2/1 3/3/1 12/4/1
f 12/4/2 3/3/2 4/5/2 13/6/2
f 15/7/1 1/8/1 6/9/1 16/10/1
f 16/10/3 6/9/3 8/2/3 14/1/3
f 1/8/5 15/7/5 10/15/5 7/16/5
l 13 5
