# Blender 5.1.1
# www.blender.org
mtllib roof_props_b.mtl
o roof_props_b
v 0.000000 3.321185 -0.852506
v 0.186877 3.321185 -0.775099
v 0.264284 3.321185 -0.588222
v 0.186877 3.321186 -0.401346
v 0.000000 3.321185 -0.323938
v -0.186877 3.321186 -0.401346
v -0.264284 3.321185 -0.588222
v -0.186877 3.321185 -0.775099
v -0.186877 4.207874 -0.401346
v 0.264284 4.207873 -0.588222
v 0.000000 4.207873 -0.323939
v 0.186877 4.207873 -0.775099
v 0.000000 4.207873 -0.852506
v 0.186877 4.207874 -0.401346
v -0.264284 4.207873 -0.588222
v -0.186877 4.207873 -0.775099
v -0.214473 4.337362 -0.373750
v 0.000000 4.337362 -0.284912
v 0.303311 4.337361 -0.588222
v 0.214473 4.337361 -0.802695
v 0.214473 4.337362 -0.373750
v 0.000000 4.207874 -0.891533
v 0.000000 4.337362 -0.891533
v -0.303311 4.337361 -0.588222
v -0.214473 4.337361 -0.802695
v -0.214473 4.207874 -0.373750
v 0.303311 4.207873 -0.588222
v 0.000000 4.207873 -0.284912
v 0.214473 4.207873 -0.802695
v 0.214473 4.207874 -0.373750
v -0.303311 4.207873 -0.588222
v -0.214473 4.207873 -0.802695
v -0.228876 3.321185 -1.450466
v -0.068401 3.321185 -1.573602
v 0.132142 3.321185 -1.547200
v 0.255278 3.321185 -1.386725
v 0.228876 3.321185 -1.186182
v 0.068401 3.321185 -1.063045
v -0.132142 3.321185 -1.089447
v -0.255278 3.321186 -1.249922
v 0.068401 4.207873 -1.063045
v 0.132142 4.207873 -1.547200
v 0.228876 4.207873 -1.186182
v -0.068401 4.207873 -1.573602
v -0.228876 4.207873 -1.450466
v 0.255278 4.207873 -1.386725
v -0.132142 4.207873 -1.089447
v -0.255278 4.207874 -1.249922
v 0.078502 4.337361 -1.025348
v 0.262674 4.337362 -1.166668
v 0.151655 4.337361 -1.580998
v -0.078502 4.337362 -1.611299
v 0.292975 4.337362 -1.396826
v -0.262675 4.207873 -1.469979
v -0.262675 4.337361 -1.469979
v -0.151655 4.337362 -1.055649
v -0.292975 4.337361 -1.239821
v 0.078502 4.207873 -1.025348
v 0.151655 4.207873 -1.580998
v 0.262674 4.207874 -1.166668
v -0.078502 4.207874 -1.611299
v 0.292975 4.207874 -1.396826
v -0.151655 4.207874 -1.055649
v -0.292975 4.207873 -1.239821
v -0.228877 3.321185 -2.582140
v -0.255278 3.321185 -2.782684
v -0.132142 3.321186 -2.943159
v 0.068401 3.321185 -2.969560
v 0.228876 3.321185 -2.846424
v 0.255278 3.321185 -2.645881
v 0.132142 3.321185 -2.485407
v -0.068401 3.321185 -2.459004
v 0.255278 4.207873 -2.645881
v -0.132142 4.207874 -2.943159
v 0.228876 4.207873 -2.846425
v -0.255278 4.207873 -2.782684
v -0.228877 4.207873 -2.582141
v 0.068401 4.207873 -2.969561
v 0.132142 4.207873 -2.485407
v -0.068401 4.207873 -2.459004
v 0.292975 4.337362 -2.635780
v 0.262674 4.337362 -2.865938
v -0.151655 4.337361 -2.976957
v -0.292975 4.337361 -2.792785
v 0.078502 4.337361 -3.007258
v -0.262675 4.207873 -2.562628
v -0.262675 4.337361 -2.562628
v 0.151655 4.337361 -2.451608
v -0.078502 4.337362 -2.421307
v 0.292975 4.207874 -2.635780
v -0.151655 4.207873 -2.976957
v 0.262674 4.207874 -2.865938
v -0.292975 4.207873 -2.792785
v 0.078502 4.207873 -3.007258
v 0.151655 4.207873 -2.451608
v -0.078502 4.207874 -2.421307
v -0.502001 0.117230 -0.285086
v -0.532001 0.117230 -0.315086
v -0.532001 0.117229 -2.998030
v -0.502001 0.117229 -3.028030
v 0.532001 0.117230 -0.315086
v 0.502001 0.117230 -0.285086
v 0.502001 0.117229 -3.028030
v 0.532001 0.117229 -2.998030
v -0.532001 3.271741 -0.315086
v -0.502001 3.271741 -0.285086
v -0.519575 3.301742 -0.255086
v -0.562001 3.301742 -0.297512
v -0.532001 3.271741 -2.998030
v -0.562001 3.301742 -3.015604
v -0.519575 3.301742 -3.058030
v -0.502001 3.271741 -3.028030
v 0.502001 3.271741 -3.028030
v 0.519575 3.301742 -3.058030
v 0.562001 3.301742 -3.015604
v 0.532001 3.271741 -2.998030
v 0.532001 3.271741 -0.315086
v 0.562001 3.301742 -0.297512
v 0.519575 3.301742 -0.255086
v 0.502001 3.271741 -0.285086
v -0.661971 3.301743 -0.197542
v -0.619545 3.301742 -0.155116
v -0.661971 3.331742 -0.125116
v -0.691972 3.331741 -0.155116
v -0.661971 3.636363 -0.125116
v -0.661971 3.666362 -0.155116
v -0.691972 3.636362 -0.155116
v -0.691972 3.636363 -3.158001
v -0.661971 3.666362 -3.158001
v -0.661971 3.636362 -3.188001
v 0.661971 3.636362 -3.188001
v 0.661971 3.666362 -3.158001
v 0.691971 3.636363 -3.158001
v 0.691971 3.636362 -0.155116
v 0.661971 3.666362 -0.155116
v 0.661971 3.636363 -0.125116
v -0.661971 3.301742 -3.115574
v -0.691972 3.331742 -3.158000
v -0.661971 3.331741 -3.188000
v -0.619545 3.301742 -3.158001
v 0.661971 3.331741 -3.188000
v 0.691971 3.331742 -3.158000
v 0.661971 3.301742 -3.115574
v 0.619545 3.301742 -3.158001
v 0.691971 3.331741 -0.155116
v 0.661971 3.331742 -0.125116
v 0.619545 3.301742 -0.155116
v 0.661971 3.301743 -0.197542
vn -0.0000 -1.0000 -0.0000
vn -0.9239 -0.0000 -0.3827
vn 0.3827 -0.0000 -0.9239
vn 0.9239 -0.0000 -0.3827
vn -0.3827 -0.0000 -0.9239
vn 0.9239 -0.0000 0.3827
vn -0.3827 -0.0000 0.9239
vn -0.9239 -0.0000 0.3827
vn 0.3827 -0.0000 0.9239
vn -0.7934 -0.0000 0.6088
vn -0.6088 -0.0000 -0.7934
vn 0.1305 -0.0000 -0.9914
vn -0.9914 -0.0000 -0.1305
vn 0.7934 -0.0000 -0.6088
vn 0.6088 -0.0000 0.7934
vn -0.1305 -0.0000 0.9914
vn 0.9914 -0.0000 0.1305
vn 0.1305 -0.0000 0.9914
vn -0.9914 -0.0000 0.1305
vn -0.7934 -0.0000 -0.6088
vn -0.6088 -0.0000 0.7934
vn -0.1305 -0.0000 -0.9914
vn 0.9914 -0.0000 -0.1305
vn 0.7934 -0.0000 0.6088
vn 0.6088 -0.0000 -0.7934
vn -0.4706 -0.7463 0.4706
vn -0.4706 -0.7463 -0.4706
vn 0.4706 -0.7463 -0.4706
vn 0.4706 -0.7463 0.4706
vn -0.3574 -0.8629 0.3574
vn -0.5773 0.5774 0.5773
vn -0.5773 0.5774 -0.5774
vn 0.5773 0.5774 -0.5774
vn 0.5773 0.5774 0.5773
vn -0.3574 -0.8629 -0.3574
vn 0.3574 -0.8629 -0.3574
vn 0.3574 -0.8629 0.3574
vn -0.7071 -0.0000 -0.7071
vn 0.7071 -0.0000 -0.7071
vn 0.7071 -0.0000 0.7071
vn -0.7071 -0.0000 0.7071
vn -0.0000 -0.7071 0.7071
vn 0.7071 -0.7071 -0.0000
vn -0.0000 -0.7071 -0.7071
vn -0.7071 -0.7071 -0.0000
vn -0.7071 0.7071 -0.0000
vn -0.0000 0.7071 -0.7071
vn 0.7071 0.7071 -0.0000
vn -0.0000 0.7071 0.7071
vn -1.0000 -0.0000 -0.0000
vn -0.0000 -0.0000 1.0000
vn -0.0000 -0.0000 -1.0000
vn 1.0000 -0.0000 -0.0000
vn -0.0000 1.0000 -0.0000
vt 0.778782 0.736369
vt 0.805615 0.732360
vt 0.806841 0.736901
vt 0.779275 0.740993
vt 0.641378 0.732046
vt 0.668294 0.736078
vt 0.667426 0.740607
vt 0.639941 0.736381
vt 0.830691 0.725361
vt 0.834144 0.728861
vt 0.615699 0.725038
vt 0.612391 0.728289
vt 0.698094 0.625474
vt 0.695782 0.738332
vt 0.674140 0.624272
vt 0.649927 0.622123
vt 0.625224 0.619350
vt 0.819036 0.615084
vt 0.793829 0.619070
vt 0.769601 0.622355
vt 0.745714 0.624551
vt 0.751272 0.738481
vt 0.723519 0.739101
vt 0.721920 0.625587
vt 0.781282 0.757445
vt 0.751931 0.759639
vt 0.751356 0.743081
vt 0.723301 0.743677
vt 0.722768 0.760242
vt 0.693643 0.759417
vt 0.695273 0.742893
vt 0.810866 0.752929
vt 0.664413 0.756959
vt 0.635028 0.751956
vt 0.839744 0.744424
vt 0.606728 0.743184
vt 0.671762 0.906609
vt 0.697037 0.900365
vt 0.700383 0.903967
vt 0.672851 0.911185
vt 0.534391 0.906207
vt 0.561798 0.909285
vt 0.561153 0.913828
vt 0.533387 0.910709
vt 0.482150 0.893595
vt 0.507608 0.901370
vt 0.506041 0.905659
vt 0.478747 0.896744
vt 0.591306 0.797375
vt 0.589501 0.910885
vt 0.567495 0.796547
vt 0.543587 0.794627
vt 0.519449 0.791753
vt 0.494840 0.788240
vt 0.688693 0.789788
vt 0.663378 0.793016
vt 0.639063 0.795574
vt 0.644821 0.909812
vt 0.617260 0.911098
vt 0.615120 0.797052
vt 0.676393 0.927326
vt 0.646687 0.930953
vt 0.645175 0.914449
vt 0.617206 0.915699
vt 0.617284 0.932266
vt 0.588116 0.931995
vt 0.589146 0.915453
vt 0.705514 0.919691
vt 0.559028 0.930296
vt 0.529885 0.926962
vt 0.500664 0.921080
vt 0.472639 0.911463
vt 0.824679 0.913682
vt 0.852423 0.914217
vt 0.852244 0.918795
vt 0.824210 0.918247
vt 0.907662 0.911013
vt 0.934460 0.906775
vt 0.935724 0.911304
vt 0.908194 0.915633
vt 0.880170 0.913360
vt 0.880293 0.917960
vt 0.946880 0.789388
vt 0.959475 0.899561
vt 0.921708 0.793589
vt 0.897509 0.797081
vt 0.873642 0.799481
vt 0.849859 0.800720
vt 0.826034 0.800809
vt 0.802071 0.799810
vt 0.797174 0.911661
vt 0.770224 0.907856
vt 0.777840 0.797865
vt 0.744486 0.901066
vt 0.753114 0.795302
vt 0.822719 0.934784
vt 0.793468 0.932573
vt 0.796344 0.916197
vt 0.768823 0.912203
vt 0.764042 0.927819
vt 0.735669 0.919287
vt 0.741207 0.904344
vt 0.851851 0.935364
vt 0.939886 0.927297
vt 0.910342 0.932067
vt 0.881011 0.934512
vt 0.962958 0.903032
vt 0.968691 0.918545
vt 0.043152 0.919138
vt 0.043152 0.923563
vt 0.038172 0.935631
vt 0.038172 0.919138
vt 0.043152 0.577384
vt 0.038172 0.577384
vt 0.038172 0.569715
vt 0.043152 0.572897
vt 0.434207 0.051264
vt 0.439171 0.048415
vt 0.439171 0.055792
vt 0.434207 0.055792
vt 0.434207 0.397604
vt 0.439171 0.397604
vt 0.439171 0.412735
vt 0.434207 0.401977
vt 0.547941 0.336909
vt 0.541509 0.341105
vt 0.538035 0.332779
vt 0.543007 0.331495
vt 0.536775 0.292394
vt 0.541560 0.287465
vt 0.542168 0.292792
vt 0.922531 0.296486
vt 0.923227 0.291146
vt 0.927780 0.296225
vt 0.929365 0.118298
vt 0.924579 0.123221
vt 0.923972 0.117895
vt 0.543615 0.114166
vt 0.542904 0.119505
vt 0.538363 0.114379
vt 0.915856 0.340268
vt 0.920852 0.334954
vt 0.925918 0.336387
vt 0.922084 0.344569
vt 0.928161 0.077896
vt 0.923188 0.079173
vt 0.918264 0.073757
vt 0.924700 0.069567
vt 0.545583 0.075733
vt 0.540451 0.074124
vt 0.544477 0.066146
vt 0.550526 0.070425
vt 0.442777 0.572897
vt 0.442777 0.577384
vt 0.034786 0.055792
vt 0.034786 0.051264
vt 0.034786 0.401977
vt 0.034786 0.397604
vt 0.442777 0.923563
vt 0.442777 0.919138
vt 0.909225 0.358129
vt 0.903365 0.352842
vt 0.554167 0.354725
vt 0.560022 0.349724
vt 0.036708 0.552029
vt 0.036708 0.420293
vt 0.042086 0.422521
vt 0.042086 0.549801
vt 0.524330 0.546669
vt 0.524330 0.414934
vt 0.529709 0.417161
vt 0.529709 0.544441
vt 0.929960 0.123263
vt 0.928609 0.291189
vt 0.536178 0.287422
vt 0.537522 0.119462
vt 0.498881 0.119154
vt 0.497536 0.287110
vt 0.492198 0.281685
vt 0.493456 0.124493
vt 0.967251 0.291501
vt 0.968601 0.123572
vt 0.973940 0.128997
vt 0.972676 0.286163
vt 0.912057 0.055939
vt 0.906197 0.060936
vt 0.556987 0.052616
vt 0.562809 0.057860
vt 0.441991 0.549801
vt 0.441991 0.422521
vt 0.929614 0.544441
vt 0.929614 0.417162
vt 0.479618 0.268900
vt 0.480674 0.137073
vt 0.986519 0.141779
vt 0.985459 0.273584
s 1
usemtl metal.001
f 14/1/1 10/2/1 27/3/1 30/4/1
f 13/5/1 16/6/1 32/7/1 22/8/1
f 10/2/1 12/9/1 29/10/1 27/3/1
f 12/11/1 13/5/1 22/8/1 29/12/1
f 7/13/2 15/14/2 16/6/2 8/15/2
f 1/16/3 13/5/3 12/11/3 2/17/3
f 2/18/4 12/9/4 10/2/4 3/19/4
f 8/15/5 16/6/5 13/5/5 1/16/5
f 3/19/6 10/2/6 14/1/6 4/20/6
f 5/21/7 11/22/7 9/23/7 6/24/7
f 6/24/8 9/23/8 15/14/8 7/13/8
f 4/20/9 14/1/9 11/22/9 5/21/9
f 30/4/9 21/25/9 18/26/9 28/27/9
f 26/28/8 17/29/8 24/30/8 31/31/8
f 28/27/7 18/26/7 17/29/7 26/28/7
f 27/3/6 19/32/6 21/25/6 30/4/6
f 32/7/5 25/33/5 23/34/5 22/8/5
f 29/10/4 20/35/4 19/32/4 27/3/4
f 22/8/3 23/34/3 20/36/3 29/12/3
f 31/31/2 24/30/2 25/33/2 32/7/2
f 9/23/1 11/22/1 28/27/1 26/28/1
f 15/14/1 9/23/1 26/28/1 31/31/1
f 11/22/1 14/1/1 30/4/1 28/27/1
f 16/6/1 15/14/1 31/31/1 32/7/1
f 46/37/1 42/38/1 59/39/1 62/40/1
f 45/41/1 48/42/1 64/43/1 54/44/1
f 42/45/1 44/46/1 61/47/1 59/48/1
f 44/46/1 45/41/1 54/44/1 61/47/1
f 39/49/10 47/50/10 48/42/10 40/51/10
f 33/52/11 45/41/11 44/46/11 34/53/11
f 34/53/12 44/46/12 42/45/12 35/54/12
f 40/51/13 48/42/13 45/41/13 33/52/13
f 35/55/14 42/38/14 46/37/14 36/56/14
f 37/57/15 43/58/15 41/59/15 38/60/15
f 38/60/16 41/59/16 47/50/16 39/49/16
f 36/56/17 46/37/17 43/58/17 37/57/17
f 62/40/17 53/61/17 50/62/17 60/63/17
f 58/64/16 49/65/16 56/66/16 63/67/16
f 60/63/15 50/62/15 49/65/15 58/64/15
f 59/39/14 51/68/14 53/61/14 62/40/14
f 64/43/13 57/69/13 55/70/13 54/44/13
f 61/47/12 52/71/12 51/72/12 59/48/12
f 54/44/11 55/70/11 52/71/11 61/47/11
f 63/67/10 56/66/10 57/69/10 64/43/10
f 41/59/1 43/58/1 60/63/1 58/64/1
f 47/50/1 41/59/1 58/64/1 63/67/1
f 43/58/1 46/37/1 62/40/1 60/63/1
f 48/42/1 47/50/1 63/67/1 64/43/1
f 78/73/1 74/74/1 91/75/1 94/76/1
f 77/77/1 80/78/1 96/79/1 86/80/1
f 74/74/1 76/81/1 93/82/1 91/75/1
f 76/81/1 77/77/1 86/80/1 93/82/1
f 71/83/18 79/84/18 80/78/18 72/85/18
f 65/86/19 77/77/19 76/81/19 66/87/19
f 66/87/20 76/81/20 74/74/20 67/88/20
f 72/85/21 80/78/21 77/77/21 65/86/21
f 67/88/22 74/74/22 78/73/22 68/89/22
f 69/90/23 75/91/23 73/92/23 70/93/23
f 70/93/24 73/92/24 79/94/24 71/95/24
f 68/89/25 78/73/25 75/91/25 69/90/25
f 94/76/25 85/96/25 82/97/25 92/98/25
f 90/99/24 81/100/24 88/101/24 95/102/24
f 92/98/23 82/97/23 81/100/23 90/99/23
f 91/75/22 83/103/22 85/96/22 94/76/22
f 96/79/21 89/104/21 87/105/21 86/80/21
f 93/82/20 84/106/20 83/103/20 91/75/20
f 86/80/19 87/105/19 84/106/19 93/82/19
f 95/107/18 88/108/18 89/104/18 96/79/18
f 73/92/1 75/91/1 92/98/1 90/99/1
f 79/94/1 73/92/1 90/99/1 95/102/1
f 75/91/1 78/73/1 94/76/1 92/98/1
f 80/78/1 79/84/1 95/107/1 96/79/1
usemtl bricks
f 105/109/26 106/110/26 107/111/26 108/112/26
f 109/113/27 110/114/27 111/115/27 112/116/27
f 113/117/28 114/118/28 115/119/28 116/120/28
f 117/121/29 118/122/29 119/123/29 120/124/29
f 121/125/30 122/126/30 123/127/30 124/128/30
f 125/129/31 126/130/31 127/131/31
f 128/132/32 129/133/32 130/134/32
f 131/135/33 132/136/33 133/137/33
f 134/138/34 135/139/34 136/140/34
f 137/141/35 138/142/35 139/143/35 140/144/35
f 141/145/36 142/146/36 143/147/36 144/148/36
f 145/149/37 146/150/37 147/151/37 148/152/37
f 112/116/38 100/153/38 99/154/38 109/113/38
f 116/120/39 104/155/39 103/156/39 113/117/39
f 120/124/40 102/157/40 101/158/40 117/121/40
f 97/159/41 106/110/41 105/109/41 98/160/41
f 140/144/1 111/161/1 110/162/1 137/141/1
f 107/163/1 122/126/1 121/125/1 108/164/1
f 119/165/42 107/166/42 106/167/42 120/168/42
f 115/119/43 118/122/43 117/121/43 116/120/43
f 111/169/44 114/170/44 113/171/44 112/172/44
f 108/112/45 110/114/45 109/113/45 105/109/45
f 123/127/41 125/129/41 127/131/41 124/128/41
f 126/130/46 129/133/46 128/132/46 127/131/46
f 129/133/47 132/136/47 131/173/47 130/174/47
f 132/136/48 135/139/48 134/138/48 133/137/48
f 135/139/49 126/130/49 125/175/49 136/176/49
f 130/134/38 139/143/38 138/142/38 128/132/38
f 133/137/39 142/146/39 141/145/39 131/135/39
f 136/140/40 146/150/40 145/149/40 134/138/40
f 146/177/42 123/178/42 122/179/42 147/180/42
f 142/146/43 145/149/43 148/152/43 143/147/43
f 139/181/44 141/182/44 144/183/44 140/184/44
f 124/128/45 138/142/45 137/141/45 121/125/45
f 114/185/1 144/148/1 143/147/1 115/186/1
f 147/151/1 119/187/1 118/188/1 148/152/1
f 98/160/50 105/109/50 109/113/50 99/154/50
f 102/189/51 120/168/51 106/167/51 97/190/51
f 100/191/52 112/172/52 113/171/52 103/192/52
f 104/155/53 116/120/53 117/121/53 101/158/53
f 110/162/1 108/164/1 121/125/1 137/141/1
f 107/193/1 119/194/1 147/180/1 122/179/1
f 114/195/1 111/196/1 140/184/1 144/183/1
f 118/188/1 115/186/1 143/147/1 148/152/1
f 124/128/50 127/131/50 128/132/50 138/142/50
f 146/177/51 136/176/51 125/175/51 123/178/51
f 129/133/54 126/130/54 135/139/54 132/136/54
f 139/181/52 130/174/52 131/173/52 141/182/52
f 142/146/53 133/137/53 134/138/53 145/149/53
