# Blender 5.1.1
# www.blender.org
mtllib roof_a_angle_90.mtl
o roof_a_angle_90
v 2.000000 0.066895 0.263604
v 2.000000 2.200000 -1.000000
v 2.000000 -0.411454 0.211999
v 2.000000 -0.411454 -0.031531
v 2.000000 -0.218658 0.263604
v 2.000000 0.089579 0.211999
v 2.000000 -0.241342 0.211999
v 2.000000 2.800001 -2.000000
v -0.263604 0.066896 -2.000000
v 1.000000 2.200000 -2.000000
v -0.211999 -0.411454 -2.000000
v 0.031531 -0.411454 -2.000000
v -0.263604 -0.218658 -2.000000
v -0.211999 0.089579 -2.000000
v -0.211999 -0.241342 -2.000000
v -0.263263 0.066896 0.263263
v 1.000151 2.200000 -1.000151
v -0.211665 -0.411454 0.211665
v 0.031829 -0.411454 -0.031829
v -0.263263 -0.218658 0.263263
v -0.211665 0.089579 0.211665
v -0.211665 -0.241342 0.211665
vn -0.0000 -1.0000 -0.0000
vn -0.0002 -0.0000 1.0000
vn -0.0001 -0.9155 0.4024
vn -0.0001 0.9155 0.4024
vn -0.0001 0.4980 0.8672
vn -0.0001 0.8575 0.5145
vn -0.5145 0.8575 0.0001
vn -0.8672 0.4980 0.0001
vn -0.4024 0.9155 0.0001
vn -1.0000 -0.0000 0.0002
vn -0.4024 -0.9155 0.0001
vt 0.000000 0.000000
vt 0.425224 0.000000
vt 0.999996 0.000000
vt 0.999948 0.632470
vt 0.740105 0.632470
vt 0.686035 0.632659
vt 1.000616 0.632619
vt 1.000000 1.000000
vt 1.000616 0.632619
vt 0.740106 0.632470
vt 0.999948 0.632470
vt 0.999996 0.000000
vt 0.425224 0.000000
s 0
usemtl roof
f 21/2/5 6/3/5 2/4/5 17/5/5
f 17/6/6 2/7/6 8/8/6
f 8/8/7 10/9/7 17/6/7
f 17/10/8 10/11/8 14/12/8 21/13/8
usemtl concrete
f 19/1/1 4/1/1 3/1/1 18/1/1
f 18/1/2 3/1/2 7/1/2 22/1/2
f 22/1/3 7/1/3 5/1/3 20/1/3
f 20/1/2 5/1/2 1/1/2 16/1/2
f 16/1/4 1/1/4 6/1/4 21/1/4
f 21/1/9 14/1/9 9/1/9 16/1/9
f 16/1/10 9/1/10 13/1/10 20/1/10
f 20/1/11 13/1/11 15/1/11 22/1/11
f 22/1/10 15/1/10 11/1/10 18/1/10
f 18/1/1 11/1/1 12/1/1 19/1/1
