# Blender 5.1.1
# www.blender.org
mtllib roof_a_side.mtl
o roof_a_side
v -1.000000 2.621043 -2.607174
v -1.000000 2.030837 -1.304271
v -1.000000 -0.241342 0.210923
v -1.000000 0.089579 0.210923
v -1.000000 -0.218658 0.262267
v -1.000000 0.089579 0.210923
v -1.000000 0.066895 0.262267
v -1.045615 -0.218658 0.225087
v -1.045615 0.066895 0.225087
v -0.998368 -0.241342 -2.600000
v -0.998368 0.089579 -2.600000
v -1.049712 -0.218658 -2.600000
v -1.049712 0.066895 -2.600000
v -1.000000 0.112302 -2.603587
v -1.000000 -0.241342 0.210923
v -1.000000 -0.411454 0.210923
v -1.000000 -0.411454 -0.000337
v -1.000000 -0.241450 -0.000337
vn -0.6318 -0.0000 0.7751
vn -0.3129 0.8688 0.3838
vn -0.3129 -0.8688 0.3838
vn -1.0000 -0.0000 0.0015
vn -0.4238 0.9058 0.0002
vn -0.4238 -0.9058 0.0002
vn -1.0000 -0.0000 -0.0000
vn 1.0000 -0.0000 -0.0000
vt 0.014721 0.000401
vt 0.120791 0.000068
vt 0.116929 0.019247
vt 0.018677 0.019463
vt 0.134111 0.018876
vt 0.001529 0.019181
vt 0.118851 0.999859
vt 0.019653 0.999932
vt 0.138441 0.999932
vt 0.000068 0.999913
vt 0.498076 0.261482
vt 0.926792 0.066537
vt 0.926792 0.892568
vt 0.000096 0.901374
vt 0.291393 0.000055
vt 0.291393 0.105673
vt 0.206399 0.105673
vt 0.206346 0.000055
s 0
usemtl roof
f 2/11/7 1/12/7 14/13/7 4/14/7
usemtl concrete
f 5/1/1 7/2/1 9/3/1 8/4/1
f 9/3/2 7/2/2 6/5/2
f 3/6/3 5/1/3 8/4/3
f 8/4/4 9/3/4 13/7/4 12/8/4
f 9/3/5 6/5/5 11/9/5 13/7/5
f 3/6/6 8/4/6 12/8/6 10/10/6
f 16/15/8 17/16/8 18/17/8 15/18/8
