# Blender 5.1.1
# www.blender.org
mtllib roof_a_angle_118.mtl
o roof_a_angle_118
v 0.000000 0.066895 0.263604
v 0.000000 2.200000 -1.253801
v 0.000000 -0.411454 0.211999
v 0.000000 -0.411454 -0.031531
v 0.000000 -0.218658 0.263604
v 0.000000 0.089579 0.211999
v 0.000000 -0.241342 0.211999
v 0.000000 2.800001 -2.344704
v 1.843013 0.066895 -0.820237
v 1.182782 2.200000 -1.897637
v 1.816049 -0.411454 -0.864238
v 1.688805 -0.411454 -1.071882
v 1.843013 -0.218658 -0.820237
v 1.816049 0.089579 -0.864238
v 1.816049 -0.241342 -0.864238
v 0.660283 2.800001 -2.750278
v -1.843013 0.066895 -0.820237
v -1.182782 2.200000 -1.897637
v -1.816049 -0.411454 -0.864238
v -1.688805 -0.411454 -1.071882
v -1.843013 -0.218658 -0.820237
v -1.816049 0.089579 -0.864238
v -1.816049 -0.241342 -0.864238
v -0.660283 2.800001 -2.750278
vn -0.0000 -1.0000 -0.0000
vn -0.5098 -0.0000 0.8603
vn -0.2171 -0.9042 0.3678
vn -0.5069 -0.0000 0.8620
vn -0.2171 0.9042 0.3678
vn -0.4288 0.5070 0.7477
vn -0.2596 0.8514 0.4559
vn 0.2596 0.8514 0.4559
vn 0.4288 0.5070 0.7477
vn 0.2171 0.9042 0.3678
vn 0.5069 -0.0000 0.8620
vn 0.2171 -0.9042 0.3678
vn 0.5098 -0.0000 0.8603
vt 0.000000 0.963373
vt 0.092919 0.499513
vt 0.145281 0.499524
vt 0.056978 0.974648
vt 0.182237 0.499528
vt 0.097261 0.982737
vt 0.193143 0.499534
vt 0.111599 0.986269
vt 0.258059 0.499544
vt 0.178302 0.998124
vt 0.268716 0.499550
vt 0.191693 1.000000
vt 0.997070 0.000026
vt 0.448514 0.004911
vt 0.602901 0.629893
vt 0.999998 0.632452
vt 0.998582 0.632879
vt 0.575027 0.652805
vt 0.755797 1.000657
vt 0.999788 1.000075
vt 0.999978 0.632453
vt 0.602813 0.631541
vt 0.445820 0.007280
vt 0.994346 0.000050
vt 0.191699 -0.000000
vt 0.178333 0.001876
vt 0.111668 0.012451
vt 0.097323 0.015987
vt 0.057015 0.024077
vt 0.000000 0.035351
s 0
usemtl roof
f 22/13/6 6/14/6 2/15/6 18/16/6
f 18/17/7 2/18/7 8/19/7 24/20/7
f 16/20/8 8/19/8 2/18/8 10/17/8
f 10/21/9 2/22/9 6/23/9 14/24/9
usemtl wall
f 20/1/1 4/2/1 3/3/1 19/4/1
f 19/4/2 3/3/2 7/5/2 23/6/2
f 23/6/3 7/5/3 5/7/3 21/8/3
f 21/8/4 5/7/4 1/9/4 17/10/4
f 17/10/5 1/9/5 6/11/5 22/12/5
f 14/25/10 6/11/10 1/9/10 9/26/10
f 9/26/11 1/9/11 5/7/11 13/27/11
f 13/27/12 5/7/12 7/5/12 15/28/12
f 15/28/13 7/5/13 3/3/13 11/29/13
f 11/29/1 3/3/1 4/2/1 12/30/1
