# Blender 5.1.1
# www.blender.org
mtllib roof_a.mtl
o roof_a
v -1.000000 0.066895 0.263604
v 1.000000 0.066895 0.263604
v -1.000000 2.200000 -1.000000
v 1.000000 2.200000 -1.000000
v -1.000000 -0.411454 0.211999
v 1.000000 -0.411454 0.211999
v -1.000000 -0.411454 -0.031531
v 1.000000 -0.411454 -0.031531
v 1.000000 -0.241342 0.211999
v -1.000000 -0.218658 0.263604
v -1.000000 0.089579 0.211999
v 1.000000 0.089579 0.211999
v -1.000000 -0.241342 0.211999
v 1.000000 -0.218658 0.263604
v -1.000000 2.800000 -2.000000
v 1.000000 2.800000 -2.000000
vn -0.0000 0.4980 0.8672
vn -0.0000 -0.0000 1.0000
vn -0.0000 -1.0000 -0.0000
vn -0.0000 0.9155 0.4024
vn -0.0000 -0.9155 0.4024
vn -0.0000 0.8575 0.5145
vt 0.000072 0.000072
vt 0.513750 0.000072
vt 0.513750 0.632559
vt 0.000072 0.632559
vt 0.206236 0.000055
vt 0.206236 0.999945
vt 0.121189 0.999945
vt 0.121189 0.000055
vt 0.000055 0.999945
vt 0.000055 0.000055
vt 0.257944 0.000068
vt 0.257944 0.698762
vt 0.158187 0.698762
vt 0.158187 0.000068
vt 0.277554 0.000068
vt 0.277554 0.698762
vt 0.138578 0.698762
vt 0.138578 0.000068
vt 0.513750 0.751917
vt 0.000072 0.751917
s 0
usemtl roof
f 11/1/1 12/2/1 4/3/1 3/4/1
f 3/4/6 4/3/6 16/19/6 15/20/6
usemtl concrete
f 9/5/2 13/6/2 5/7/2 6/8/2
f 6/8/3 5/7/3 7/9/3 8/10/3
f 2/11/2 1/12/2 10/13/2 14/14/2
f 1/12/4 2/11/4 12/15/4 11/16/4
f 14/14/5 10/13/5 13/17/5 9/18/5
