# Blender 5.1.1
# www.blender.org
mtllib roof_props_a.mtl
o roof_props_a
v -0.437633 0.295334 0.066938
v 0.437633 0.295334 0.066938
v -0.525940 0.083440 -1.100881
v 0.525940 0.083440 -1.100881
v -0.425753 1.399179 0.066938
v 0.425753 1.399179 0.066938
v -0.525940 1.500829 -1.100881
v 0.525940 1.500829 -1.100881
v -0.525940 1.500829 0.214043
v -0.525940 0.083440 0.214043
v 0.525940 0.083440 0.214043
v 0.525940 1.500829 0.214043
v -0.438044 1.416387 0.214043
v -0.438044 0.199066 0.214043
v 0.438044 0.199066 0.214043
v 0.438044 1.416387 0.214043
v 0.000000 1.487026 0.282910
v -0.613247 1.487026 0.282910
v 0.000000 1.847136 -1.198016
v -0.613247 1.487026 -1.198016
v 0.613247 1.487026 0.282910
v 0.613247 1.487026 -1.198016
v 0.000000 1.847136 -0.002262
v -0.440002 1.453898 0.133088
v -0.440002 0.136673 0.133088
v 0.440002 0.136673 0.133088
v 0.440002 1.453898 0.133088
v 0.440002 1.029491 0.146356
v 0.440002 1.065502 0.129202
v 0.440002 1.059629 0.146356
v 0.440002 1.023619 0.129202
v 0.044161 1.473993 0.155619
v -0.044161 1.473993 0.155619
v 0.057410 1.473993 0.129202
v -0.057410 1.473993 0.129202
v -0.053528 1.473993 0.146356
v 0.053528 1.473993 0.146356
v -0.440002 1.029491 0.146356
v -0.440002 1.065502 0.129202
v -0.440002 1.059629 0.146356
v -0.440002 1.023619 0.129202
v 0.440002 0.464286 0.146356
v 0.440002 0.500297 0.129202
v 0.440002 0.494424 0.146356
v 0.440002 0.458414 0.129202
v -0.440002 0.464286 0.146356
v -0.440002 0.500297 0.129202
v -0.440002 0.494424 0.146356
v -0.440002 0.458414 0.129202
v 0.044161 0.135013 0.155619
v -0.044161 0.135013 0.155619
v 0.057410 0.135013 0.129202
v -0.057410 0.135013 0.129202
v -0.053528 0.135013 0.146356
v 0.053528 0.135013 0.146356
v 0.525940 0.083440 0.127502
v -0.525940 0.083440 0.127502
v -0.525940 1.500829 0.127503
v 0.525940 1.500829 0.127503
vn -0.0000 -0.0000 1.0000
vn -1.0000 -0.0000 -0.0000
vn -0.0000 0.8368 0.5476
vn 0.9991 -0.0051 0.0418
vn -0.9991 -0.0051 0.0418
vn 1.0000 -0.0000 -0.0000
vn -0.5064 0.8623 -0.0000
vn -0.0000 -1.0000 -0.0000
vn -0.0000 -0.9932 0.1162
vn 0.5064 0.8623 -0.0000
vn -0.0000 0.6208 0.7840
vn -0.0000 -0.9461 0.3239
vn -0.0000 0.9461 0.3239
vn -0.9753 -0.0000 0.2207
vn 0.9753 -0.0000 0.2207
vn -0.7032 -0.0000 0.7110
vn 0.7032 -0.0000 0.7110
vt 0.578292 -0.228221
vt 0.723120 -0.378971
vt 0.723119 1.425112
vt 0.578292 1.274362
vt 0.000095 0.000095
vt 0.899301 0.000095
vt 0.899301 0.999905
vt 0.000095 0.999905
vt 0.579162 1.132269
vt 0.320449 1.131664
vt 0.320449 -0.156372
vt 0.579162 -0.156977
vt 0.581630 -0.569163
vt 0.734207 -0.715746
vt 0.734207 1.744685
vt 0.581630 1.543970
vt 0.095246 0.083857
vt 0.904754 0.083857
vt 0.904754 0.836514
vt 0.095246 0.836514
vt 0.566811 1.402447
vt 0.435714 1.574903
vt 0.435714 -0.539133
vt 0.566811 -0.413187
vt 0.749317 -0.286324
vt 0.749317 1.261616
vt 0.325370 -0.539404
vt 0.326271 1.376861
vt 0.786218 1.258864
vt 0.786993 -0.387617
vt 0.000095 0.000095
vt 0.899301 0.000095
vt 0.000095 0.999905
vt 0.561467 0.744829
vt 0.561468 0.346423
vt 0.747484 0.411563
vt 0.747484 0.744829
vt 0.610351 0.741490
vt 0.473943 0.741490
vt 0.473943 0.412080
vt 0.746758 0.412080
vt 0.746758 0.741490
vt 0.324272 1.253282
vt 0.324272 -0.207140
vt 0.519034 0.413611
vt 0.652734 0.235116
vt 0.652734 0.413611
vt 0.652734 0.592106
vt 0.015867 0.178453
vt 1.013002 0.178453
vt 1.013002 0.844613
vt 0.015867 0.844613
vt 0.214101 0.010667
vt 0.238564 0.010667
vt 0.238564 1.010667
vt 0.214101 1.010667
vt 0.258631 0.010667
vt 0.258631 1.010667
vt 0.194034 0.010667
vt 0.194034 1.010667
vt 0.785003 0.009436
vt 0.809466 0.009436
vt 0.809466 1.009436
vt 0.785003 1.009436
vt 0.829533 0.009436
vt 0.829533 1.009436
vt 0.764936 0.009436
vt 0.764936 1.009436
vt 0.188006 -0.439603
vt 0.212192 -0.439603
vt 0.212191 1.431286
vt 0.188006 1.431286
vt 0.048429 -0.439603
vt 0.169890 -0.439603
vt 0.169889 1.431286
vt 0.048429 1.431286
vt 0.006127 -0.439603
vt 0.030313 -0.439603
vt 0.030313 1.431286
vt 0.006127 1.431286
vt 0.450313 1.004180
vt 0.389263 1.004180
vt 0.389263 0.004276
vt 0.450313 0.004276
vt 0.563242 0.006614
vt 0.624292 0.006614
vt 0.624292 1.006519
vt 0.563242 1.006519
s 0
usemtl wall
f 58/5/2 7/6/2 3/7/2 57/8/2
f 56/31/6 4/32/6 8/7/6 59/33/6
usemtl curtains
f 1/17/1 2/18/1 6/19/1 5/20/1
usemtl roof
f 20/34/7 18/35/7 23/36/7 19/37/7
f 17/38/8 18/39/8 20/40/8 22/41/8 21/42/8
f 23/36/10 21/35/10 22/34/10 19/37/10
f 23/45/11 18/46/11 17/47/11 21/48/11
usemtl glass
f 24/49/1 25/50/1 26/51/1 27/52/1
usemtl wood
f 16/1/1 12/2/1 9/3/1 13/4/1
f 15/9/3 2/10/3 1/11/3 14/12/3
f 13/13/1 9/14/1 10/15/1 14/16/1
f 15/21/1 11/22/1 12/23/1 16/24/1
f 14/12/1 10/25/1 11/26/1 15/9/1
f 5/27/4 13/13/4 14/16/4 1/28/4
f 2/29/5 15/21/5 16/24/5 6/30/5
f 16/1/9 13/4/9 5/43/9 6/44/9
f 40/53/1 38/54/1 28/55/1 30/56/1
f 38/54/12 41/57/12 31/58/12 28/55/12
f 39/59/13 40/53/13 30/56/13 29/60/13
f 48/61/1 46/62/1 42/63/1 44/64/1
f 46/62/12 49/65/12 45/66/12 42/63/12
f 47/67/13 48/61/13 44/64/13 43/68/13
f 36/69/14 35/70/14 53/71/14 54/72/14
f 32/73/1 33/74/1 51/75/1 50/76/1
f 34/77/15 37/78/15 55/79/15 52/80/15
f 33/74/16 36/69/16 54/72/16 51/75/16
f 37/78/17 32/73/17 50/76/17 55/79/17
f 11/81/6 56/82/6 59/83/6 12/84/6
f 9/85/2 58/86/2 57/87/2 10/88/2
