# Blender 5.1.1
# www.blender.org
mtllib shop_b.mtl
o shop_b
v -1.000000 0.000000 -0.000000
v 3.000001 0.000000 -0.000000
v -1.000000 2.800000 0.000000
v 3.000001 2.800000 0.000000
v -0.428571 0.000000 -0.000000
v 0.142857 0.000000 -0.000000
v 1.285715 0.000000 -0.000000
v 1.857144 0.000000 -0.000000
v 2.428572 0.000000 -0.000000
v 2.428572 2.800000 0.000000
v 1.857143 2.800000 0.000000
v 1.285715 2.800000 0.000000
v 0.714286 2.800000 0.000000
v 0.142857 2.800000 0.000000
v -0.428571 2.800000 0.000000
v -1.000000 2.122866 -0.000000
v 3.000001 2.122866 -0.000000
v -0.428571 2.122866 -0.000000
v 0.235640 2.030084 -0.000000
v 0.714286 2.030084 -0.000000
v 1.192932 2.030084 -0.000000
v 1.857143 2.069425 -0.000000
v 2.428572 2.069425 -0.000000
v 0.714286 -0.000000 -0.000000
v 0.235640 0.000000 -0.000000
v 1.192932 -0.000000 -0.000000
v 0.142857 2.122866 -0.000000
v 1.339156 2.069425 -0.000000
v 0.714286 2.122866 -0.000000
v 0.235640 0.000000 -0.000000
v 0.235640 2.030084 -0.000000
v 1.192932 -0.000000 -0.000000
v 1.192932 2.030084 -0.000000
v 0.714286 2.030084 -0.000000
v 0.142857 0.000000 0.072291
v 0.142857 2.122866 0.072291
v 1.285715 0.000000 0.072291
v 1.285715 2.122866 0.072291
v 0.714286 2.122866 0.072291
v 0.235640 0.000000 0.072291
v 1.192932 -0.000000 0.072291
v 0.235640 2.030084 0.072291
v 1.192932 2.030084 0.072291
v 0.714286 2.030084 0.072291
v 0.714286 0.623545 -0.000000
v 0.235640 0.623545 -0.000000
v 1.192932 0.623545 -0.000000
v 0.755025 0.664284 -0.000000
v 1.152193 0.664284 -0.000000
v 1.152193 1.989345 -0.000000
v 0.755025 1.989345 -0.000000
v 0.276379 0.664284 -0.000000
v 0.673547 0.664284 -0.000000
v 0.673547 1.989345 -0.000000
v 0.276379 1.989345 -0.000000
v 0.276379 0.664284 -0.022924
v 0.276379 1.989345 -0.022924
v 1.152193 0.664284 -0.022924
v 1.152193 1.989345 -0.022924
v 0.755025 1.989345 -0.022924
v 0.673547 1.989345 -0.022924
v 0.755025 0.664284 -0.022924
v 0.673547 0.664284 -0.022924
v 3.000001 0.968923 -0.000000
v 1.339156 1.022364 -0.000000
v 1.857144 0.968923 -0.000000
v 2.428572 0.968923 -0.000000
v 1.192932 0.926575 -0.000000
v 1.285715 0.968923 0.072291
v 1.192932 0.926575 0.072291
v 2.946560 1.022364 -0.000000
v 1.285715 0.968923 -0.000000
v 2.946560 2.069425 -0.000000
v 1.285715 2.122866 -0.000000
v 2.428572 2.122866 -0.000000
v 1.857143 2.122866 -0.000000
v 2.428572 1.022364 -0.000000
v 1.857144 1.022364 -0.000000
v 2.946560 1.022364 -0.035093
v 2.946560 2.069425 -0.035093
v 1.857144 1.022364 -0.035093
v 1.857143 2.069425 -0.035093
v 2.428572 1.022364 -0.035093
v 2.428572 2.069425 -0.035093
v 1.339156 1.022364 -0.035093
v 1.339156 2.069425 -0.035093
vn -0.0000 -0.0000 1.0000
vn -1.0000 -0.0000 -0.0000
vn -0.0000 -1.0000 -0.0000
vn -0.0000 1.0000 -0.0000
vn 1.0000 -0.0000 -0.0000
vt 0.506786 0.597410
vt 0.506786 0.798061
vt 0.000436 0.798061
vt 0.000435 0.597409
vt 0.241183 0.794038
vt 0.241183 0.998119
vt -0.000650 0.998119
vt -0.000650 0.794038
vt 0.241183 0.794038
vt 0.241183 0.998119
vt -0.000650 0.998119
vt -0.000650 0.794038
vt 0.000435 0.798061
vt 0.000435 0.597410
vt 0.506786 0.798061
vt 0.963438 0.813493
vt 0.400790 0.813493
vt 0.400790 0.794636
vt 0.963438 0.794636
vt 0.972824 0.807329
vt 0.785461 0.807329
vt 0.785461 0.794636
vt 0.972824 0.794636
vt 0.872950 0.663426
vt 0.872661 0.737680
vt 0.870593 0.735693
vt 0.870738 0.665404
vt 0.632927 0.663426
vt 0.635139 0.665404
vt 0.999350 0.794038
vt 0.999350 0.998119
vt 0.391403 0.813966
vt 0.578766 0.813966
vt 0.578766 0.826660
vt 0.391403 0.826660
vt 0.577949 0.461253
vt 0.757044 0.461253
vt 0.757044 0.483910
vt 0.577949 0.483910
vt 0.757044 0.535647
vt 0.607029 0.535647
vt 0.607029 0.512990
vt 0.757044 0.512990
vt 0.000000 0.000000
vt 0.560821 0.299174
vt 0.951777 0.299175
vt 0.951777 0.312488
vt 0.560821 0.312488
vt 0.951777 0.329575
vt 0.577908 0.329575
vt 0.781135 0.268774
vt 0.951777 0.268774
vt 0.951777 0.285861
vt 0.773336 0.285861
vt 0.907059 0.512990
vt 0.936138 0.483910
vt 0.951777 0.342889
vt 0.577908 0.342888
vt 0.936138 0.461253
vt 0.907059 0.535647
vt 0.773336 0.299174
vt 0.560821 0.299174
vt 0.560821 0.285861
vt 0.781135 0.255460
vt 0.951777 0.255460
vt 0.506786 0.597410
vt 0.000435 0.597409
vt 0.880611 0.655958
vt 0.880126 0.745170
vt 0.872661 0.737680
vt 0.625751 0.745170
vt 0.633216 0.737680
vt 0.625267 0.655958
vt 0.880125 0.745170
vt 0.625750 0.745170
vt 0.633215 0.737679
vt 0.625267 0.655958
vt 0.632927 0.663425
vt 0.299736 0.143545
vt 0.513421 0.143545
vt 0.513421 0.856455
vt 0.299736 0.856455
vt 0.086051 0.143545
vt 0.299736 0.143545
vt 0.299736 0.856455
vt 0.086051 0.856455
vt 0.635283 0.735693
vt 0.635139 0.665403
vt 0.870594 0.735693
vt 0.635283 0.735692
vt 0.577908 0.255460
vt 0.577908 0.268774
vt 0.951777 0.299174
vt 0.506786 0.797980
vt 0.000435 0.797980
vt 0.000436 0.797980
vt 0.506786 0.797980
vt 0.000436 0.797980
vt 0.992155 0.842211
vt 0.372072 0.842210
vt 0.963438 0.823353
vt 0.400790 0.823353
vt 0.372072 0.794636
vt 0.992155 0.794636
vt 0.578766 0.807329
vt 0.785461 0.826660
vt 0.578766 0.826660
vt 0.391403 0.807329
vt 0.372072 0.826660
vt 0.992155 0.826660
vt 0.972824 0.813966
vt 0.785461 0.813966
vt 0.992155 0.794636
vt 0.372072 0.794636
vt 0.578766 0.794636
vt 0.000000 0.677749
vt 0.000000 0.322251
vt 0.651399 0.322251
vt 0.651399 0.677749
vt 0.000000 1.000000
vt 0.651399 1.000000
vt 0.000000 -0.000000
vt 0.651399 -0.000000
vt 0.785461 0.826660
vt 0.972824 0.826660
vt 0.391403 0.794636
vt 0.963438 0.842210
vt 0.400790 0.842210
s 0
usemtl wood_panel
f 75/1/1 17/2/1 4/3/1 10/4/1
f 16/5/1 18/6/1 15/7/1 3/8/1
f 18/9/1 27/10/1 14/11/1 15/12/1
f 27/1/1 29/2/1 13/13/1 14/14/1
f 29/1/1 74/15/1 12/13/1 13/14/1
f 74/1/1 76/2/1 11/3/1 12/4/1
f 76/1/1 75/2/1 10/3/1 11/4/1
f 71/16/2 73/17/2 80/18/2 79/19/2
f 73/20/3 23/21/3 84/22/3 80/23/3
f 52/24/4 53/25/4 63/26/4 56/27/4
f 51/28/5 48/24/5 62/27/5 60/29/5
f 5/30/1 6/31/1 27/10/1 18/9/1
f 1/30/1 5/31/1 18/6/1 16/5/1
f 65/32/4 78/33/4 81/34/4 85/35/4
f 74/36/4 29/37/4 39/38/4 38/39/4
f 20/40/3 21/41/3 43/42/3 44/43/3
f 26/44/3 7/44/3 37/44/3 41/44/3
f 27/45/2 6/46/2 35/47/2 36/48/2
f 40/49/1 42/50/1 36/48/1 35/47/1
f 70/51/1 41/52/1 37/53/1 69/54/1
f 44/43/1 43/42/1 38/39/1 39/38/1
f 42/55/1 44/43/1 39/38/1 36/56/1
f 25/57/5 19/58/5 42/50/5 40/49/5
f 29/37/4 27/59/4 36/56/4 39/38/4
f 19/60/3 20/40/3 44/43/3 42/55/3
f 72/61/5 74/62/5 38/63/5 69/54/5
f 6/44/3 25/44/3 40/44/3 35/44/3
f 68/64/2 26/65/2 41/52/2 70/51/2
f 30/66/1 24/15/1 45/3/1 46/14/1
f 24/1/1 32/15/1 47/13/1 45/67/1
f 45/68/1 47/69/1 49/70/1 48/24/1
f 47/69/1 33/71/1 50/72/1 49/70/1
f 33/71/1 34/73/1 51/28/1 50/72/1
f 34/73/1 45/68/1 48/24/1 51/28/1
f 46/68/1 45/74/1 53/25/1 52/24/1
f 45/74/1 34/75/1 54/76/1 53/25/1
f 34/75/1 31/77/1 55/78/1 54/76/1
f 31/77/1 46/68/1 52/24/1 55/78/1
f 50/72/3 51/28/3 60/29/3 59/87/3
f 55/78/5 52/24/5 56/27/5 57/88/5
f 48/24/4 49/70/4 58/89/4 62/27/4
f 53/25/2 54/76/2 61/90/2 63/26/2
f 54/76/3 55/78/3 57/88/3 61/90/3
f 49/70/2 50/72/2 59/87/2 58/89/2
f 21/91/2 68/64/2 70/51/2 43/92/2
f 7/93/5 72/61/5 69/54/5 37/53/5
f 43/92/1 70/51/1 69/54/1 38/63/1
f 9/1/1 2/94/1 64/95/1 67/67/1
f 7/66/1 8/94/1 66/96/1 72/67/1
f 8/66/1 9/97/1 67/98/1 66/4/1
f 73/17/1 71/16/1 64/99/1 17/100/1
f 65/101/1 28/102/1 74/103/1 72/104/1
f 22/105/1 23/21/1 75/106/1 76/107/1
f 28/108/1 22/105/1 76/107/1 74/109/1
f 23/21/1 73/20/1 17/110/1 75/106/1
f 71/111/1 77/112/1 67/22/1 64/113/1
f 78/33/1 65/32/1 72/114/1 66/115/1
f 77/112/1 78/33/1 66/115/1 67/22/1
f 23/21/3 22/105/3 82/115/3 84/22/3
f 78/33/4 77/112/4 83/124/4 81/34/4
f 77/112/4 71/111/4 79/125/4 83/124/4
f 22/105/3 28/108/3 86/126/3 82/115/3
f 28/102/5 65/101/5 85/127/5 86/128/5
usemtl glass_opaque
f 62/79/1 58/80/1 59/81/1 60/82/1
f 56/83/1 63/84/1 61/85/1 57/86/1
f 81/116/1 83/117/1 84/118/1 82/119/1
f 85/120/1 81/116/1 82/119/1 86/121/1
f 83/117/1 79/122/1 80/123/1 84/118/1
