# Blender 5.1.1
# www.blender.org
mtllib shop_a.mtl
o shop_a
v -1.000000 -0.000000 -0.000000
v -1.000000 2.800000 -0.000000
v 0.433333 2.675325 0.249790
v 0.504401 2.054548 0.249790
v -1.000000 2.800000 0.249790
v 1.000000 2.125616 0.249790
v 0.469384 1.575906 0.249790
v -0.700001 0.476487 0.249790
v -1.000000 0.000000 0.249791
v -0.700001 0.000000 0.249791
v -1.000000 0.476487 -0.000000
v -0.700001 2.800000 0.249790
v -0.700001 -0.000000 -0.000000
v -0.133334 2.675325 0.249790
v -1.000000 0.476487 0.249790
v 0.433333 2.125616 0.342386
v -0.700001 2.800000 -0.000000
v 0.469384 1.026196 0.249790
v 1.000000 2.800000 -0.000000
v 1.000000 -0.000000 -0.000000
v 1.000000 2.800000 0.249790
v 1.000000 0.000000 0.249791
v 0.433333 1.575906 0.342386
v -1.000000 2.675325 -0.000000
v 0.433333 1.026196 0.342386
v -1.000000 2.125616 -0.000000
v -1.000000 1.575906 -0.000000
v 1.000000 2.675325 0.249790
v -0.133334 2.800000 -0.000000
v 0.433333 2.800000 -0.000000
v -0.133334 0.476487 0.249790
v 0.504401 0.511504 0.249791
v -1.000000 1.026196 -0.000000
v -0.700001 2.675325 0.249790
v -1.000000 2.675325 0.249790
v -0.133334 2.800000 0.249790
v 0.433333 2.800000 0.249790
v -0.133334 -0.000000 -0.000000
v 0.433333 -0.000000 -0.000000
v -0.133334 0.000000 0.249791
v 0.469384 0.000000 0.249791
v -0.700001 1.026196 0.249790
v -0.700001 1.575906 0.249790
v -0.700001 2.125616 0.249790
v -1.000000 1.026196 0.249790
v -1.000000 1.575906 0.249790
v -1.000000 2.125616 0.249790
v -0.133334 2.586735 0.296857
v -0.611409 1.575906 0.296858
v -0.611409 2.125616 0.296857
v 0.344742 2.125616 0.296857
v 0.344742 2.586735 0.296857
v 0.344742 1.026196 0.296858
v 0.344742 1.575906 0.296858
v -0.611409 0.565078 0.296858
v -0.611409 1.026196 0.296858
v -0.133334 0.565078 0.296858
v 0.344742 0.565078 0.296858
v -0.611409 2.586735 0.296857
v -0.700001 1.575906 0.296858
v -0.700001 2.125616 0.296857
v 0.492375 2.183582 0.296859
v 0.433333 1.026196 0.296858
v 0.433333 1.575906 0.296858
v -0.700001 0.476487 0.296858
v -0.700001 1.026196 0.296858
v -0.133334 2.675325 0.296857
v -0.133334 0.476487 0.296858
v 0.433333 0.476487 0.296858
v -0.700001 2.675325 0.296857
v -0.133334 2.125616 0.232468
v -0.133334 2.586734 0.232468
v -0.133334 1.575906 0.232469
v -0.133334 1.026196 0.232469
v -0.133334 0.565077 0.232469
v -0.611409 2.125616 0.232468
v -0.611409 1.575906 0.232469
v -0.611409 1.026196 0.232469
v 0.344742 2.125616 0.232468
v 0.344742 1.575906 0.232469
v 0.344742 1.026196 0.232469
v 0.344742 2.586734 0.232468
v -0.611409 0.565077 0.232469
v 0.344742 0.565077 0.232469
v -0.611409 2.586734 0.232468
v -0.650085 2.109838 0.259590
v 0.383419 2.109838 0.259590
v -0.650085 2.141393 0.259590
v 0.383419 2.141393 0.259590
v -0.650085 2.141393 0.232468
v 0.383419 2.141393 0.232468
v -0.650085 2.109838 0.232468
v 0.383419 2.109838 0.232468
v -0.650085 1.559838 0.259590
v 0.383419 1.559838 0.259590
v -0.650085 1.591393 0.259590
v 0.383419 1.591393 0.259590
v -0.650085 1.591393 0.232469
v 0.383419 1.591393 0.232469
v -0.650085 1.559838 0.232469
v 0.383419 1.559838 0.232469
v -0.650085 1.009838 0.259590
v 0.383419 1.009838 0.259590
v -0.650085 1.041393 0.259591
v 0.383419 1.041393 0.259591
v -0.650085 1.041393 0.232469
v 0.383419 1.041393 0.232469
v -0.650085 1.009838 0.232469
v 0.383419 1.009838 0.232469
v -0.149111 2.633013 0.268588
v -0.149111 0.518218 0.268588
v -0.117556 2.633014 0.268588
v -0.117556 0.518218 0.268588
v -0.117556 2.633014 0.232468
v -0.117556 0.518218 0.232469
v -0.149111 2.633013 0.232468
v -0.149111 0.518218 0.232469
v 0.492375 2.617359 0.296859
v 1.000000 2.125616 0.296860
v 1.000000 2.675325 0.296859
v 0.433333 2.125616 0.296859
v 0.433333 2.675325 0.296858
v 0.940958 2.183582 0.296859
v 0.940958 2.617359 0.296859
v 0.940958 2.183582 0.258449
v 0.940958 2.617359 0.258449
v 0.492375 2.183582 0.258448
v 0.492375 2.617359 0.258448
v 1.000000 1.575906 0.249790
v 1.000000 2.089565 0.249790
v 0.433333 1.026196 0.249790
v 0.433333 1.575906 0.249790
v 0.433333 2.125616 0.249790
v 0.433333 0.476487 0.249790
v 1.000000 0.000000 0.249791
v 1.000000 0.476487 0.249790
v 1.000000 1.026196 0.249790
v 0.433333 0.000000 0.249791
v 0.433333 0.476487 0.342386
v 1.000000 2.125616 0.342386
v 0.433333 0.000000 0.342387
v 0.469384 1.026196 0.342386
v 0.469384 1.575906 0.342386
v 0.469384 2.089565 0.342386
v 0.469384 0.476487 0.342386
v 1.000000 2.089565 0.342386
v 0.469384 0.000000 0.342387
v 0.964983 1.575906 0.249790
v 0.964983 2.054548 0.249790
v 0.469384 0.476487 0.249790
v 0.964983 0.511504 0.249791
v 0.964983 1.026196 0.249790
v 0.504401 1.026196 0.249790
v 0.504401 1.575906 0.249790
v 0.469384 2.089565 0.249790
v 0.524200 1.556107 0.249790
v 0.524200 1.045996 0.249790
v 0.945184 1.045996 0.249790
v 0.945184 1.556107 0.249790
v 0.524200 2.034749 0.249790
v 0.524200 1.595705 0.249790
v 0.945184 1.595705 0.249790
v 0.945184 2.034748 0.249790
v 0.524200 1.006397 0.249790
v 0.524200 0.531303 0.249791
v 0.945184 0.531303 0.249791
v 0.945184 1.006397 0.249790
v 0.524200 1.045996 0.220833
v 0.524200 1.556107 0.220833
v 0.945184 1.556107 0.220833
v 0.945184 1.045996 0.220833
v 0.524200 1.595705 0.220833
v 0.524200 2.034749 0.220833
v 0.945184 2.034748 0.220833
v 0.945184 1.595705 0.220833
v 0.524200 0.531303 0.220833
v 0.524200 1.006397 0.220833
v 0.945184 1.006397 0.220833
v 0.945184 0.531303 0.220833
v 3.000000 -0.000000 -0.000000
v 3.000000 2.800000 -0.000000
v 1.566666 2.675325 0.249790
v 1.495599 2.054548 0.249790
v 3.000000 2.800000 0.249790
v 1.530616 1.575906 0.249790
v 2.700000 0.476487 0.249790
v 3.000000 0.000000 0.249791
v 2.700000 0.000000 0.249791
v 3.000000 0.476487 -0.000000
v 2.700000 2.800000 0.249790
v 2.700000 -0.000000 -0.000000
v 2.133334 2.675325 0.249790
v 3.000000 0.476487 0.249790
v 1.566666 2.125616 0.342386
v 2.700000 2.800000 -0.000000
v 1.530616 1.026196 0.249790
v 1.566666 1.575906 0.342386
v 3.000000 2.675325 -0.000000
v 1.566666 1.026196 0.342386
v 3.000000 2.125616 -0.000000
v 3.000000 1.575906 -0.000000
v 2.133334 2.800000 -0.000000
v 1.566666 2.800000 -0.000000
v 2.133334 0.476487 0.249790
v 1.495599 0.511504 0.249791
v 3.000000 1.026196 -0.000000
v 2.700000 2.675325 0.249790
v 3.000000 2.675325 0.249790
v 2.133334 2.800000 0.249790
v 1.566666 2.800000 0.249790
v 2.133334 -0.000000 -0.000000
v 1.566666 -0.000000 -0.000000
v 2.133334 0.000000 0.249791
v 1.530616 0.000000 0.249791
v 2.700000 1.026196 0.249790
v 2.700000 1.575906 0.249790
v 2.700000 2.125616 0.249790
v 3.000000 1.026196 0.249790
v 3.000000 1.575906 0.249790
v 3.000000 2.125616 0.249790
v 2.133334 2.586735 0.296857
v 2.611409 1.575906 0.296858
v 2.611409 2.125616 0.296857
v 1.655258 2.125616 0.296857
v 1.655258 2.586735 0.296857
v 1.655258 1.026196 0.296858
v 1.655258 1.575906 0.296858
v 2.611409 0.565078 0.296858
v 2.611409 1.026196 0.296858
v 2.133334 0.565078 0.296858
v 1.655258 0.565078 0.296858
v 2.611409 2.586735 0.296857
v 2.700000 1.575906 0.296858
v 2.700000 2.125616 0.296857
v 1.507624 2.183582 0.296859
v 1.566666 1.026196 0.296858
v 1.566666 1.575906 0.296858
v 2.700000 0.476487 0.296858
v 2.700000 1.026196 0.296858
v 2.133334 2.675325 0.296857
v 2.133334 0.476487 0.296858
v 1.566666 0.476487 0.296858
v 2.700000 2.675325 0.296857
v 2.133334 2.125616 0.232468
v 2.133334 2.586734 0.232468
v 2.133334 1.575906 0.232469
v 2.133334 1.026196 0.232469
v 2.133334 0.565077 0.232469
v 2.611409 2.125616 0.232468
v 2.611409 1.575906 0.232469
v 2.611409 1.026196 0.232469
v 1.655258 2.125616 0.232468
v 1.655258 1.575906 0.232469
v 1.655258 1.026196 0.232469
v 1.655258 2.586734 0.232468
v 2.611409 0.565077 0.232469
v 1.655258 0.565077 0.232469
v 2.611409 2.586734 0.232468
v 2.650084 2.109838 0.259590
v 1.616581 2.109838 0.259590
v 2.650084 2.141393 0.259590
v 1.616581 2.141393 0.259590
v 2.650084 2.141393 0.232468
v 1.616581 2.141393 0.232468
v 2.650084 2.109838 0.232468
v 1.616581 2.109838 0.232468
v 2.650084 1.559838 0.259590
v 1.616581 1.559838 0.259590
v 2.650084 1.591393 0.259590
v 1.616581 1.591393 0.259590
v 2.650084 1.591393 0.232469
v 1.616581 1.591393 0.232469
v 2.650084 1.559838 0.232469
v 1.616581 1.559838 0.232469
v 2.650084 1.009838 0.259590
v 1.616581 1.009838 0.259590
v 2.650084 1.041393 0.259591
v 1.616581 1.041393 0.259591
v 2.650084 1.041393 0.232469
v 1.616581 1.041393 0.232469
v 2.650084 1.009838 0.232469
v 1.616581 1.009838 0.232469
v 2.149111 2.633013 0.268588
v 2.149111 0.518218 0.268588
v 2.117555 2.633014 0.268588
v 2.117555 0.518218 0.268588
v 2.117555 2.633014 0.232468
v 2.117555 0.518218 0.232469
v 2.149111 2.633013 0.232468
v 2.149111 0.518218 0.232469
v 1.507624 2.617359 0.296859
v 1.566666 2.125616 0.296859
v 1.566666 2.675325 0.296858
v 1.059042 2.183582 0.296859
v 1.059042 2.617359 0.296859
v 1.059042 2.183582 0.258449
v 1.059042 2.617359 0.258449
v 1.507624 2.183582 0.258448
v 1.507624 2.617359 0.258448
v 1.566666 1.026196 0.249790
v 1.566666 1.575906 0.249790
v 1.566666 2.125616 0.249790
v 1.566666 0.476487 0.249790
v 1.566666 0.000000 0.249791
v 1.566666 0.476487 0.342386
v 1.566666 0.000000 0.342387
v 1.530616 1.026196 0.342386
v 1.530616 1.575906 0.342386
v 1.530616 2.089565 0.342386
v 1.530616 0.476487 0.342386
v 1.530616 0.000000 0.342387
v 1.035017 1.575906 0.249790
v 1.035017 2.054548 0.249790
v 1.530616 0.476487 0.249790
v 1.035017 0.511504 0.249791
v 1.035017 1.026196 0.249790
v 1.495599 1.026196 0.249790
v 1.495599 1.575906 0.249790
v 1.530616 2.089565 0.249790
v 1.475800 1.556107 0.249790
v 1.475800 1.045996 0.249790
v 1.054816 1.045996 0.249790
v 1.054816 1.556107 0.249790
v 1.475800 2.034749 0.249790
v 1.475800 1.595705 0.249790
v 1.054816 1.595705 0.249790
v 1.054816 2.034748 0.249790
v 1.475800 1.006397 0.249790
v 1.475800 0.531303 0.249791
v 1.054816 0.531303 0.249791
v 1.054816 1.006397 0.249790
v 1.475800 1.045996 0.220833
v 1.475800 1.556107 0.220833
v 1.054816 1.556107 0.220833
v 1.054816 1.045996 0.220833
v 1.475800 1.595705 0.220833
v 1.475800 2.034749 0.220833
v 1.054816 2.034748 0.220833
v 1.054816 1.595705 0.220833
v 1.475800 0.531303 0.220833
v 1.475800 1.006397 0.220833
v 1.054816 1.006397 0.220833
v 1.054816 0.531303 0.220833
vn -0.0000 -0.0000 1.0000
vn 1.0000 -0.0000 -0.0000
vn -1.0000 -0.0000 -0.0000
vn -0.0000 1.0000 -0.0000
vn -0.0000 -1.0000 -0.0000
vt 0.408137 0.564084
vt 0.427110 0.564084
vt 0.427110 0.609739
vt 0.408137 0.609739
vt 0.978355 0.240828
vt 0.978355 0.324486
vt 0.985518 0.324486
vt 0.985518 0.240828
vt 0.868580 0.073512
vt 0.868580 0.000998
vt 0.906594 0.000998
vt 0.906594 0.073512
vt 0.882132 0.909948
vt 0.882132 0.845881
vt 0.886539 0.845881
vt 0.886539 0.909948
vt 0.470960 0.477845
vt 0.470960 0.564084
vt 0.432946 0.564084
vt 0.432946 0.477845
vt 0.475541 0.609739
vt 0.475541 0.564084
vt 0.513556 0.564084
vt 0.513556 0.609739
vt 0.475541 0.391607
vt 0.475541 0.305369
vt 0.513556 0.305369
vt 0.513556 0.391607
vt 0.953770 0.084656
vt 0.953770 0.000998
vt 0.960933 0.000998
vt 0.960933 0.084656
vt 0.533811 0.989638
vt 0.467797 0.989638
vt 0.467797 0.921371
vt 0.533811 0.921371
vt 0.324479 0.564084
vt 0.324479 0.609739
vt 0.525300 0.345951
vt 0.525300 0.432190
vt 0.518137 0.432190
vt 0.518137 0.345951
vt 0.427110 0.477845
vt 0.408137 0.477845
vt 0.408137 0.391607
vt 0.427110 0.391607
vt 0.868580 0.427117
vt 0.868580 0.408143
vt 0.906594 0.408143
vt 0.906594 0.427117
vt 0.868580 0.324486
vt 0.906594 0.324486
vt 0.561680 0.520411
vt 0.642432 0.520411
vt 0.642432 0.592925
vt 0.561680 0.592925
vt 0.953770 0.168313
vt 0.960933 0.168313
vt 0.470960 0.609739
vt 0.432946 0.609739
vt 0.000991 0.609739
vt 0.000991 0.564084
vt 0.073506 0.564084
vt 0.073506 0.609739
vt 0.868580 0.157170
vt 0.906594 0.157170
vt 0.294078 0.921371
vt 0.294078 0.993673
vt 0.289671 0.993673
vt 0.289671 0.921371
vt 0.525300 0.259713
vt 0.518137 0.259713
vt 0.000991 0.477845
vt 0.000991 0.391607
vt 0.073506 0.391607
vt 0.073506 0.477845
vt 0.157163 0.564084
vt 0.157163 0.609739
vt 0.475541 0.477845
vt 0.513556 0.477845
vt 0.470960 0.305369
vt 0.470960 0.391607
vt 0.432946 0.391607
vt 0.432946 0.305369
vt 0.868580 0.240828
vt 0.906594 0.240828
vt 0.408137 0.305369
vt 0.427110 0.305369
vt 0.657539 0.907210
vt 0.657539 0.840394
vt 0.661946 0.840394
vt 0.661946 0.907210
vt 0.240821 0.564084
vt 0.240821 0.609739
vt 0.978355 0.157170
vt 0.985518 0.157170
vt 0.953770 0.251971
vt 0.960933 0.251971
vt 0.978355 0.073512
vt 0.985518 0.073512
vt 0.059388 0.843744
vt 0.059388 0.916500
vt 0.049589 0.916500
vt 0.049589 0.843744
vt 0.511360 0.681897
vt 0.511360 0.611722
vt 0.521159 0.611722
vt 0.521159 0.681897
vt 0.507248 0.765555
vt 0.507248 0.849213
vt 0.497449 0.849213
vt 0.497449 0.765555
vt 0.507248 0.611722
vt 0.507248 0.681897
vt 0.497449 0.681897
vt 0.497449 0.611722
vt 0.065078 0.916500
vt 0.065078 0.843744
vt 0.074877 0.843744
vt 0.074877 0.916500
vt 0.065078 0.770988
vt 0.074877 0.770988
vt 0.507248 0.919388
vt 0.497449 0.919388
vt 0.525300 0.518428
vt 0.518137 0.518428
vt 0.159102 0.784198
vt 0.159102 0.697960
vt 0.166265 0.697960
vt 0.166265 0.784198
vt 0.159102 0.611722
vt 0.166265 0.611722
vt 0.953770 0.335629
vt 0.960933 0.335629
vt 0.697069 0.504946
vt 0.780727 0.504946
vt 0.780727 0.518428
vt 0.697069 0.518428
vt 0.850902 0.359434
vt 0.780727 0.359434
vt 0.780727 0.345951
vt 0.864384 0.345951
vt 0.697069 0.359434
vt 0.613411 0.359434
vt 0.613411 0.345951
vt 0.697069 0.345951
vt 0.543236 0.504946
vt 0.613411 0.504946
vt 0.613411 0.518428
vt 0.529753 0.518428
vt 0.850902 0.432190
vt 0.864384 0.432190
vt 0.543236 0.432190
vt 0.529753 0.432190
vt 0.543236 0.359434
vt 0.529753 0.345951
vt 0.850902 0.504946
vt 0.864384 0.518428
vt 0.420581 0.681897
vt 0.420581 0.611722
vt 0.493337 0.611722
vt 0.493337 0.681897
vt 0.347825 0.849213
vt 0.347825 0.765555
vt 0.420581 0.765555
vt 0.420581 0.849213
vt 0.347825 0.681897
vt 0.347825 0.919388
vt 0.420581 0.919388
vt 0.347825 0.611722
vt 0.493337 0.849213
vt 0.493337 0.919388
vt 0.493337 0.765555
vt 0.511360 0.849213
vt 0.511360 0.765555
vt 0.521159 0.765555
vt 0.521159 0.849213
vt 0.059388 0.770988
vt 0.049589 0.770988
vt 0.511360 0.919388
vt 0.521159 0.919388
vt 0.103179 0.769006
vt 0.103179 0.611722
vt 0.107307 0.611722
vt 0.107307 0.769006
vt 0.094939 0.769006
vt 0.094939 0.611722
vt 0.099067 0.611722
vt 0.099067 0.769006
vt 0.086025 0.611722
vt 0.090827 0.611722
vt 0.090827 0.769006
vt 0.086025 0.769006
vt 0.077785 0.769006
vt 0.077785 0.611722
vt 0.081912 0.611722
vt 0.081912 0.769006
vt 0.069545 0.769006
vt 0.069545 0.611722
vt 0.073672 0.611722
vt 0.073672 0.769006
vt 0.060630 0.611722
vt 0.065433 0.611722
vt 0.065433 0.769006
vt 0.060630 0.769006
vt 0.052390 0.769006
vt 0.052390 0.611722
vt 0.056518 0.611722
vt 0.056518 0.769006
vt 0.044151 0.769006
vt 0.044151 0.611722
vt 0.048278 0.611722
vt 0.048278 0.769006
vt 0.035236 0.611722
vt 0.040038 0.611722
vt 0.040038 0.769006
vt 0.035236 0.769006
vt 0.773953 0.842251
vt 0.773953 0.520411
vt 0.779449 0.520411
vt 0.779449 0.842251
vt 0.764343 0.842251
vt 0.764344 0.520411
vt 0.769840 0.520411
vt 0.769840 0.842251
vt 0.755429 0.520411
vt 0.760231 0.520411
vt 0.760231 0.842251
vt 0.755429 0.842251
vt 0.841511 0.845881
vt 0.841511 0.911895
vt 0.835665 0.911895
vt 0.835665 0.845881
vt 0.154990 0.784198
vt 0.154990 0.697960
vt 0.147827 0.697960
vt 0.147827 0.784198
vt 0.789548 0.336966
vt 0.855563 0.336966
vt 0.855563 0.268698
vt 0.789548 0.268698
vt 0.780727 0.259713
vt 0.864384 0.259713
vt 0.539434 0.908662
vt 0.539434 0.840394
vt 0.545280 0.840394
vt 0.545280 0.908662
vt 0.556897 0.840394
vt 0.556897 0.908662
vt 0.551051 0.908662
vt 0.551051 0.840394
vt 0.847282 0.911895
vt 0.847282 0.845881
vt 0.853127 0.845881
vt 0.853127 0.911895
vt 0.807252 0.520411
vt 0.807252 0.592925
vt 0.801766 0.592925
vt 0.801766 0.520411
vt 0.992446 0.240828
vt 0.992447 0.324486
vt 0.992447 0.157170
vt 0.111419 0.773225
vt 0.111419 0.692474
vt 0.125511 0.692474
vt 0.125511 0.773225
vt 0.807252 0.838412
vt 0.888004 0.838412
vt 0.888004 0.843898
vt 0.801766 0.843898
vt 0.807252 0.676583
vt 0.801766 0.676583
vt 0.807252 0.760240
vt 0.801766 0.760240
vt 0.557568 0.676583
vt 0.557568 0.760240
vt 0.543476 0.760240
vt 0.543476 0.676583
vt 0.978355 0.000998
vt 0.992447 0.000998
vt 0.992447 0.073512
vt 0.983927 0.406610
vt 0.978441 0.406610
vt 0.978441 0.392518
vt 0.983927 0.392518
vt 0.557568 0.838412
vt 0.543476 0.838412
vt 0.557568 0.520411
vt 0.557568 0.592925
vt 0.543476 0.592925
vt 0.543476 0.520411
vt 0.140898 0.784198
vt 0.140898 0.697960
vt 0.637103 0.833082
vt 0.637103 0.760240
vt 0.642432 0.760240
vt 0.642432 0.838412
vt 0.637103 0.598254
vt 0.567009 0.598254
vt 0.637103 0.676583
vt 0.642432 0.676583
vt 0.567009 0.676583
vt 0.567009 0.760240
vt 0.561680 0.760240
vt 0.561680 0.676583
vt 0.567009 0.833082
vt 0.561680 0.838412
vt 0.570022 0.679596
vt 0.570022 0.757227
vt 0.634090 0.679596
vt 0.634090 0.757227
vt 0.570022 0.763253
vt 0.570022 0.830069
vt 0.634090 0.763253
vt 0.634090 0.830069
vt 0.570022 0.601267
vt 0.570022 0.673569
vt 0.634090 0.601267
vt 0.634090 0.673569
vt 0.111545 0.999002
vt 0.111545 0.921371
vt 0.175613 0.921371
vt 0.175613 0.999002
vt 0.667220 0.911050
vt 0.667220 0.844234
vt 0.731288 0.844234
vt 0.731288 0.911050
vt 0.299352 0.993673
vt 0.299352 0.921371
vt 0.363419 0.921371
vt 0.363419 0.993673
vt 0.896220 0.845881
vt 0.896220 0.909948
vt 0.891813 0.909948
vt 0.891813 0.845881
vt 0.369053 0.993673
vt 0.369053 0.921371
vt 0.373460 0.921371
vt 0.373460 0.993673
vt 0.185654 0.921371
vt 0.185654 0.999002
vt 0.181247 0.999002
vt 0.181247 0.921371
vt 0.901494 0.909948
vt 0.901494 0.845881
vt 0.905901 0.845881
vt 0.905901 0.909948
vt 0.915582 0.845881
vt 0.915582 0.909948
vt 0.911175 0.909948
vt 0.911175 0.845881
vt 0.190928 0.999002
vt 0.190928 0.921371
vt 0.195334 0.921371
vt 0.195334 0.999002
vt 0.741328 0.844234
vt 0.741328 0.911050
vt 0.736921 0.911050
vt 0.736921 0.844234
vt 0.920855 0.909948
vt 0.920855 0.845881
vt 0.925262 0.845881
vt 0.925262 0.909948
vt 0.934943 0.845881
vt 0.934943 0.909948
vt 0.930536 0.909948
vt 0.930536 0.845881
vt 0.408137 0.046654
vt 0.408137 0.000998
vt 0.427110 0.000998
vt 0.427110 0.046654
vt 0.797653 0.760240
vt 0.790491 0.760240
vt 0.790490 0.843898
vt 0.797653 0.843898
vt 0.949189 0.073512
vt 0.911175 0.073512
vt 0.911175 0.000998
vt 0.949189 0.000998
vt 0.940217 0.845881
vt 0.944624 0.845881
vt 0.944624 0.909948
vt 0.940217 0.909948
vt 0.470960 0.132892
vt 0.432946 0.132892
vt 0.432946 0.046654
vt 0.470960 0.046654
vt 0.475541 0.000998
vt 0.513556 0.000998
vt 0.513556 0.046654
vt 0.475541 0.046654
vt 0.475541 0.219130
vt 0.513556 0.219130
vt 0.972550 0.084656
vt 0.965387 0.084656
vt 0.965387 0.000998
vt 0.972550 0.000998
vt 0.628682 0.840394
vt 0.628682 0.908662
vt 0.562668 0.908662
vt 0.562668 0.840394
vt 0.324479 0.046654
vt 0.324479 0.000998
vt 0.525300 0.173475
vt 0.518137 0.173475
vt 0.518137 0.087236
vt 0.525300 0.087236
vt 0.427110 0.132892
vt 0.427110 0.219130
vt 0.408137 0.219130
vt 0.408137 0.132892
vt 0.949189 0.427117
vt 0.911175 0.427117
vt 0.911175 0.408143
vt 0.949189 0.408143
vt 0.911175 0.324486
vt 0.949189 0.324486
vt 0.723184 0.520411
vt 0.723184 0.592925
vt 0.972550 0.168313
vt 0.965387 0.168313
vt 0.432946 0.000998
vt 0.470960 0.000998
vt 0.000991 0.000998
vt 0.073506 0.000998
vt 0.073506 0.046654
vt 0.000991 0.046654
vt 0.949189 0.157170
vt 0.911175 0.157170
vt 0.378734 0.921371
vt 0.383141 0.921371
vt 0.383141 0.993673
vt 0.378734 0.993673
vt 0.000991 0.132892
vt 0.073506 0.132892
vt 0.073506 0.219130
vt 0.000991 0.219130
vt 0.157163 0.000998
vt 0.157163 0.046654
vt 0.513556 0.132892
vt 0.475541 0.132892
vt 0.432946 0.219130
vt 0.470960 0.219130
vt 0.911175 0.240828
vt 0.949189 0.240828
vt 0.751009 0.911050
vt 0.746602 0.911050
vt 0.746602 0.844234
vt 0.751009 0.844234
vt 0.240821 0.000998
vt 0.240821 0.046654
vt 0.797653 0.676583
vt 0.790491 0.676583
vt 0.972550 0.251971
vt 0.965387 0.251971
vt 0.797653 0.592925
vt 0.790491 0.592925
vt 0.090366 0.843744
vt 0.080567 0.843744
vt 0.080567 0.770988
vt 0.090366 0.770988
vt 0.343712 0.681897
vt 0.333913 0.681897
vt 0.333913 0.611722
vt 0.343712 0.611722
vt 0.320002 0.765555
vt 0.329801 0.765555
vt 0.329801 0.849213
vt 0.320002 0.849213
vt 0.320002 0.611722
vt 0.329801 0.611722
vt 0.329801 0.681897
vt 0.320002 0.681897
vt 0.096056 0.770988
vt 0.105855 0.770988
vt 0.105855 0.843744
vt 0.096056 0.843744
vt 0.105855 0.916500
vt 0.096056 0.916500
vt 0.329801 0.919388
vt 0.320002 0.919388
vt 0.518137 0.000998
vt 0.525300 0.000998
vt 0.129623 0.611722
vt 0.136786 0.611722
vt 0.136786 0.697960
vt 0.129623 0.697960
vt 0.136786 0.784198
vt 0.129623 0.784198
vt 0.972550 0.335629
vt 0.965387 0.335629
vt 0.697069 0.014480
vt 0.697069 0.000998
vt 0.780727 0.000998
vt 0.780727 0.014480
vt 0.850902 0.159992
vt 0.864384 0.173475
vt 0.780727 0.173475
vt 0.780727 0.159992
vt 0.697069 0.159992
vt 0.697069 0.173475
vt 0.613411 0.173475
vt 0.613411 0.159992
vt 0.543236 0.014480
vt 0.529753 0.000998
vt 0.613411 0.000998
vt 0.613411 0.014480
vt 0.850902 0.087236
vt 0.864384 0.087236
vt 0.543236 0.087236
vt 0.529753 0.087236
vt 0.543236 0.159992
vt 0.529753 0.173475
vt 0.850902 0.014480
vt 0.864384 0.000998
vt 0.243134 0.681897
vt 0.170377 0.681897
vt 0.170377 0.611722
vt 0.243134 0.611722
vt 0.315890 0.849213
vt 0.243134 0.849213
vt 0.243134 0.765555
vt 0.315890 0.765555
vt 0.315890 0.681897
vt 0.315890 0.919388
vt 0.243134 0.919388
vt 0.315890 0.611722
vt 0.170377 0.919388
vt 0.170377 0.849213
vt 0.170377 0.765555
vt 0.343712 0.849213
vt 0.333913 0.849213
vt 0.333913 0.765555
vt 0.343712 0.765555
vt 0.090366 0.916500
vt 0.080567 0.916500
vt 0.343712 0.919388
vt 0.333913 0.919388
vt 0.026996 0.611722
vt 0.031124 0.611722
vt 0.031124 0.769006
vt 0.026996 0.769006
vt 0.018756 0.611722
vt 0.022884 0.611722
vt 0.022884 0.769006
vt 0.018756 0.769006
vt 0.009842 0.769006
vt 0.009842 0.611722
vt 0.014644 0.611722
vt 0.014644 0.769006
vt 0.001602 0.611722
vt 0.005729 0.611722
vt 0.005729 0.769006
vt 0.001602 0.769006
vt 0.000991 0.770988
vt 0.005119 0.770988
vt 0.005119 0.928272
vt 0.000991 0.928272
vt 0.010866 0.928272
vt 0.010866 0.770988
vt 0.015668 0.770988
vt 0.015668 0.928272
vt 0.020547 0.770988
vt 0.024674 0.770988
vt 0.024674 0.928272
vt 0.020547 0.928272
vt 0.030227 0.770988
vt 0.034355 0.770988
vt 0.034355 0.928272
vt 0.030227 0.928272
vt 0.039908 0.928272
vt 0.039908 0.770988
vt 0.044710 0.770988
vt 0.044710 0.928272
vt 0.751317 0.842251
vt 0.745820 0.842251
vt 0.745820 0.520411
vt 0.751317 0.520411
vt 0.741707 0.842251
vt 0.736211 0.842251
vt 0.736211 0.520411
vt 0.741707 0.520411
vt 0.732098 0.520411
vt 0.732098 0.842251
vt 0.727296 0.842251
vt 0.727296 0.520411
vt 0.858899 0.845881
vt 0.864744 0.845881
vt 0.864744 0.911895
vt 0.858899 0.911895
vt 0.154990 0.611722
vt 0.147827 0.611722
vt 0.789548 0.182460
vt 0.855563 0.182460
vt 0.855563 0.250728
vt 0.789548 0.250728
vt 0.634306 0.840394
vt 0.640151 0.840394
vt 0.640151 0.908662
vt 0.634306 0.908662
vt 0.651768 0.908662
vt 0.645923 0.908662
vt 0.645923 0.840394
vt 0.651768 0.840394
vt 0.876361 0.911895
vt 0.870515 0.911895
vt 0.870515 0.845881
vt 0.876361 0.845881
vt 0.968756 0.520411
vt 0.974242 0.520411
vt 0.974242 0.592925
vt 0.968756 0.592925
vt 0.783562 0.843898
vt 0.783562 0.760240
vt 0.783562 0.676583
vt 0.111419 0.611722
vt 0.125511 0.611722
vt 0.968756 0.838412
vt 0.974242 0.843898
vt 0.974242 0.676583
vt 0.968756 0.676583
vt 0.968756 0.760240
vt 0.974242 0.760240
vt 0.525272 0.676583
vt 0.539364 0.676583
vt 0.539363 0.760240
vt 0.525272 0.760240
vt 0.783562 0.592925
vt 0.783562 0.520411
vt 0.797653 0.520411
vt 0.968842 0.926022
vt 0.968842 0.911931
vt 0.974329 0.911931
vt 0.974329 0.926022
vt 0.539364 0.838412
vt 0.525272 0.838412
vt 0.525272 0.520411
vt 0.539364 0.520411
vt 0.539364 0.592925
vt 0.525272 0.592925
vt 0.140898 0.611722
vt 0.647761 0.833082
vt 0.647761 0.760240
vt 0.647761 0.598254
vt 0.717855 0.598254
vt 0.647761 0.676583
vt 0.717855 0.676583
vt 0.723184 0.676583
vt 0.723184 0.760240
vt 0.717855 0.760240
vt 0.723184 0.838412
vt 0.717855 0.833082
vt 0.714841 0.757227
vt 0.714841 0.679596
vt 0.650774 0.679596
vt 0.650774 0.757227
vt 0.714841 0.830069
vt 0.714841 0.763253
vt 0.650774 0.763253
vt 0.650774 0.830069
vt 0.714841 0.673569
vt 0.714841 0.601267
vt 0.650774 0.601267
vt 0.650774 0.673569
vt 0.264676 0.999002
vt 0.200608 0.999002
vt 0.200608 0.921371
vt 0.264676 0.921371
vt 0.820350 0.912697
vt 0.756283 0.912696
vt 0.756283 0.845881
vt 0.820350 0.845881
vt 0.452482 0.993673
vt 0.388415 0.993673
vt 0.388415 0.921371
vt 0.452482 0.921371
vt 0.954305 0.909948
vt 0.949898 0.909948
vt 0.949898 0.845881
vt 0.954305 0.845881
vt 0.462523 0.993673
vt 0.458116 0.993673
vt 0.458116 0.921371
vt 0.462523 0.921371
vt 0.270310 0.921371
vt 0.274717 0.921371
vt 0.274717 0.999002
vt 0.270310 0.999002
vt 0.959578 0.845881
vt 0.963985 0.845881
vt 0.963985 0.909948
vt 0.959578 0.909948
vt 0.973666 0.909948
vt 0.969259 0.909948
vt 0.969259 0.845881
vt 0.973666 0.845881
vt 0.284397 0.999002
vt 0.279990 0.999002
vt 0.279990 0.921371
vt 0.284397 0.921371
vt 0.825984 0.845881
vt 0.830391 0.845881
vt 0.830391 0.912696
vt 0.825984 0.912696
vt 0.978940 0.326468
vt 0.983347 0.326468
vt 0.983347 0.390536
vt 0.978940 0.390536
vt 0.992447 0.390536
vt 0.988040 0.390536
vt 0.988040 0.326468
vt 0.992447 0.326468
s 1
usemtl special
f 34/1/1 12/2/1 5/3/1 35/4/1
f 132/5/2 133/6/2 121/7/2 64/8/2
f 11/9/3 1/10/3 9/11/3 15/12/3
f 157/13/4 158/14/4 171/15/4 168/16/4
f 29/17/4 17/18/4 12/19/4 36/20/4
f 1/21/5 13/22/5 10/23/5 9/24/5
f 39/25/5 20/26/5 22/27/5 138/28/5
f 42/29/3 8/30/3 65/31/3 66/32/3
f 44/37/1 34/1/1 35/4/1 47/38/1
f 3/39/4 14/40/4 67/41/4 122/42/4
f 36/43/1 14/44/1 3/45/1 37/46/1
f 2/47/3 24/48/3 35/49/3 5/50/3
f 12/2/1 34/1/1 14/44/1 36/43/1
f 24/48/3 26/51/3 47/52/3 35/49/3
f 41/53/1 135/54/1 136/55/1 150/56/1
f 43/57/3 42/29/3 66/32/3 60/58/3
f 17/18/4 2/59/4 5/60/4 12/19/4
f 9/61/1 10/62/1 8/63/1 15/64/1
f 33/65/3 11/9/3 15/12/3 45/66/3
f 166/67/3 167/68/3 178/69/3 179/70/3
f 28/71/4 3/39/4 122/42/4 120/72/4
f 40/73/1 138/74/1 134/75/1 31/76/1
f 10/62/1 40/73/1 31/76/1 8/63/1
f 8/63/1 42/77/1 45/78/1 15/64/1
f 13/22/5 38/79/5 40/80/5 10/23/5
f 38/79/5 39/25/5 138/28/5 40/80/5
f 19/81/4 30/82/4 37/83/4 21/84/4
f 30/82/4 29/17/4 36/20/4 37/83/4
f 26/51/3 27/85/3 46/86/3 47/52/3
f 27/85/3 33/65/3 45/66/3 46/86/3
f 37/46/1 3/45/1 28/87/1 21/88/1
f 160/89/2 161/90/2 172/91/2 173/92/2
f 42/77/1 43/93/1 46/94/1 45/78/1
f 43/93/1 44/37/1 47/38/1 46/94/1
f 131/95/2 132/5/2 64/8/2 63/96/2
f 44/97/3 43/57/3 60/58/3 61/98/3
f 134/99/2 131/95/2 63/96/2 69/100/2
f 48/101/5 59/102/5 85/103/5 72/104/5
f 56/105/2 55/106/2 83/107/2 78/108/2
f 54/109/3 51/110/3 79/111/3 80/112/3
f 58/113/3 53/114/3 81/115/3 84/116/3
f 53/114/3 54/109/3 80/112/3 81/115/3
f 55/117/4 57/118/4 75/119/4 83/120/4
f 57/118/4 58/121/4 84/122/4 75/119/4
f 51/110/3 52/123/3 82/124/3 79/111/3
f 14/40/4 34/125/4 70/126/4 67/41/4
f 8/127/5 31/128/5 68/129/5 65/130/5
f 31/128/5 134/131/5 69/132/5 68/129/5
f 34/133/3 44/97/3 61/98/3 70/134/3
f 49/135/1 50/136/1 61/137/1 60/138/1
f 52/139/1 51/140/1 121/141/1 122/142/1
f 54/143/1 53/144/1 63/145/1 64/146/1
f 55/147/1 56/148/1 66/149/1 65/150/1
f 48/151/1 52/139/1 122/142/1 67/152/1
f 57/153/1 55/147/1 65/150/1 68/154/1
f 51/140/1 54/143/1 64/146/1 121/141/1
f 56/148/1 49/135/1 60/138/1 66/149/1
f 58/155/1 57/153/1 68/154/1 69/156/1
f 53/144/1 58/155/1 69/156/1 63/145/1
f 59/157/1 48/151/1 67/152/1 70/158/1
f 50/136/1 59/157/1 70/158/1 61/137/1
f 50/174/2 49/175/2 77/176/2 76/177/2
f 49/175/2 56/105/2 78/108/2 77/176/2
f 52/178/5 48/101/5 72/104/5 82/179/5
f 59/180/2 50/174/2 76/177/2 85/181/2
f 92/182/5 93/183/5 87/184/5 86/185/5
f 88/186/4 89/187/4 91/188/4 90/189/4
f 87/190/1 89/191/1 88/192/1 86/193/1
f 100/194/5 101/195/5 95/196/5 94/197/5
f 96/198/4 97/199/4 99/200/4 98/201/4
f 95/202/1 97/203/1 96/204/1 94/205/1
f 108/206/5 109/207/5 103/208/5 102/209/5
f 104/210/4 105/211/4 107/212/4 106/213/4
f 103/214/1 105/215/1 104/216/1 102/217/1
f 116/218/3 117/219/3 111/220/3 110/221/3
f 112/222/2 113/223/2 115/224/2 114/225/2
f 111/226/1 113/227/1 112/228/1 110/229/1
f 123/230/3 124/231/3 126/232/3 125/233/3
f 133/234/5 6/235/5 119/236/5 121/237/5
f 62/238/1 118/239/1 122/142/1 121/141/1
f 124/240/1 123/241/1 119/242/1 120/243/1
f 118/239/1 124/240/1 120/243/1 122/142/1
f 123/241/1 62/238/1 121/141/1 119/242/1
f 62/244/4 123/245/4 125/246/4 127/247/4
f 124/248/5 118/249/5 128/250/5 126/251/5
f 118/252/2 62/253/2 127/254/2 128/255/2
f 147/256/1 145/257/1 139/258/1 141/259/1
f 133/6/3 132/5/3 23/260/3 16/261/3
f 132/5/3 131/95/3 25/262/3 23/260/3
f 155/263/5 130/264/5 146/265/5 144/266/5
f 144/267/1 146/268/1 140/269/1 16/270/1
f 145/257/1 142/271/1 25/272/1 139/258/1
f 143/273/1 144/267/1 16/270/1 23/274/1
f 142/271/1 143/273/1 23/274/1 25/272/1
f 18/275/2 7/276/2 143/277/2 142/278/2
f 134/99/3 138/279/3 141/280/3 139/281/3
f 138/282/5 41/283/5 147/284/5 141/285/5
f 7/276/2 155/286/2 144/287/2 143/277/2
f 41/288/2 150/289/2 145/290/2 147/291/2
f 131/95/3 134/99/3 139/281/3 25/262/3
f 150/289/2 18/275/2 142/278/2 145/290/2
f 6/235/4 133/234/4 16/292/4 140/293/4
f 149/294/1 148/295/1 129/296/1 130/297/1
f 151/298/1 32/299/1 150/56/1 136/55/1
f 148/295/1 152/300/1 137/301/1 129/296/1
f 152/300/1 151/298/1 136/55/1 137/301/1
f 153/302/1 154/303/1 7/304/1 18/305/1
f 154/303/1 4/306/1 155/307/1 7/304/1
f 32/299/1 153/302/1 18/305/1 150/56/1
f 4/306/1 149/294/1 130/297/1 155/307/1
f 154/303/1 153/302/1 157/308/1 156/309/1
f 153/302/1 152/300/1 158/310/1 157/308/1
f 152/300/1 148/295/1 159/311/1 158/310/1
f 148/295/1 154/303/1 156/309/1 159/311/1
f 4/306/1 154/303/1 161/312/1 160/313/1
f 154/303/1 148/295/1 162/314/1 161/312/1
f 148/295/1 149/294/1 163/315/1 162/314/1
f 149/294/1 4/306/1 160/313/1 163/315/1
f 153/302/1 32/299/1 165/316/1 164/317/1
f 32/299/1 151/298/1 166/318/1 165/316/1
f 151/298/1 152/300/1 167/319/1 166/318/1
f 152/300/1 153/302/1 164/317/1 167/319/1
f 163/332/5 160/333/5 173/334/5 174/335/5
f 164/336/2 165/337/2 176/338/2 177/339/2
f 158/340/3 159/341/3 170/342/3 171/343/3
f 161/344/4 162/345/4 175/346/4 172/347/4
f 167/348/5 164/349/5 177/350/5 178/351/5
f 156/352/2 157/353/2 168/354/2 169/355/2
f 162/356/3 163/357/3 174/358/3 175/359/3
f 165/360/4 166/361/4 179/362/4 176/363/4
f 159/364/5 156/365/5 169/366/5 170/367/5
f 207/368/1 208/369/1 184/370/1 190/371/1
f 301/372/3 237/373/3 292/374/3 302/375/3
f 189/376/2 193/377/2 187/378/2 180/379/2
f 321/380/4 332/381/4 335/382/4 322/383/4
f 202/384/4 209/385/4 190/386/4 195/387/4
f 180/388/5 187/389/5 188/390/5 191/391/5
f 212/392/5 304/393/5 22/27/5 20/26/5
f 215/394/2 239/395/2 238/396/2 186/397/2
f 217/402/1 220/403/1 208/369/1 207/368/1
f 182/404/4 293/405/4 240/406/4 192/407/4
f 209/408/1 210/409/1 182/410/1 192/411/1
f 181/412/2 184/413/2 208/414/2 198/415/2
f 190/371/1 209/408/1 192/411/1 207/368/1
f 198/415/2 208/414/2 220/416/2 200/417/2
f 214/418/1 314/419/1 136/55/1 135/54/1
f 216/420/2 233/421/2 239/395/2 215/394/2
f 195/387/4 190/386/4 184/422/4 181/423/4
f 187/424/1 193/425/1 186/426/1 188/427/1
f 206/428/2 218/429/2 193/377/2 189/376/2
f 330/430/2 343/431/2 342/432/2 331/433/2
f 28/71/4 120/72/4 293/405/4 182/404/4
f 213/434/1 204/435/1 303/436/1 304/437/1
f 188/427/1 186/426/1 204/435/1 213/434/1
f 186/426/1 193/425/1 218/438/1 215/439/1
f 191/391/5 188/390/5 213/440/5 211/441/5
f 211/441/5 213/440/5 304/393/5 212/392/5
f 19/81/4 21/84/4 210/442/4 203/443/4
f 203/443/4 210/442/4 209/385/4 202/384/4
f 200/417/2 220/416/2 219/444/2 201/445/2
f 201/445/2 219/444/2 218/429/2 206/428/2
f 210/409/1 21/88/1 28/87/1 182/410/1
f 324/446/3 337/447/3 336/448/3 325/449/3
f 215/439/1 218/438/1 219/450/1 216/451/1
f 216/451/1 219/450/1 220/403/1 217/402/1
f 300/452/3 236/453/3 237/373/3 301/372/3
f 217/454/2 234/455/2 233/421/2 216/420/2
f 303/456/3 242/457/3 236/453/3 300/452/3
f 221/458/5 245/459/5 258/460/5 232/461/5
f 229/462/3 251/463/3 256/464/3 228/465/3
f 227/466/2 253/467/2 252/468/2 224/469/2
f 231/470/2 257/471/2 254/472/2 226/473/2
f 226/473/2 254/472/2 253/467/2 227/466/2
f 228/474/4 256/475/4 248/476/4 230/477/4
f 230/477/4 248/476/4 257/478/4 231/479/4
f 224/469/2 252/468/2 255/480/2 225/481/2
f 192/407/4 240/406/4 243/482/4 207/483/4
f 186/484/5 238/485/5 241/486/5 204/487/5
f 204/487/5 241/486/5 242/488/5 303/489/5
f 207/490/2 243/491/2 234/455/2 217/454/2
f 222/492/1 233/493/1 234/494/1 223/495/1
f 225/496/1 293/497/1 292/498/1 224/499/1
f 227/500/1 237/501/1 236/502/1 226/503/1
f 228/504/1 238/505/1 239/506/1 229/507/1
f 221/508/1 240/509/1 293/497/1 225/496/1
f 230/510/1 241/511/1 238/505/1 228/504/1
f 224/499/1 292/498/1 237/501/1 227/500/1
f 229/507/1 239/506/1 233/493/1 222/492/1
f 231/512/1 242/513/1 241/511/1 230/510/1
f 226/503/1 236/502/1 242/513/1 231/512/1
f 232/514/1 243/515/1 240/509/1 221/508/1
f 223/495/1 234/494/1 243/515/1 232/514/1
f 223/531/3 249/532/3 250/533/3 222/534/3
f 222/534/3 250/533/3 251/463/3 229/462/3
f 225/535/5 255/536/5 245/459/5 221/458/5
f 232/537/3 258/538/3 249/532/3 223/531/3
f 265/539/5 259/540/5 260/541/5 266/542/5
f 261/543/4 263/544/4 264/545/4 262/546/4
f 260/547/1 259/548/1 261/549/1 262/550/1
f 273/551/5 267/552/5 268/553/5 274/554/5
f 269/555/4 271/556/4 272/557/4 270/558/4
f 268/559/1 267/560/1 269/561/1 270/562/1
f 281/563/5 275/564/5 276/565/5 282/566/5
f 277/567/4 279/568/4 280/569/4 278/570/4
f 276/571/1 275/572/1 277/573/1 278/574/1
f 289/575/2 283/576/2 284/577/2 290/578/2
f 285/579/3 287/580/3 288/581/3 286/582/3
f 284/583/1 283/584/1 285/585/1 286/586/1
f 294/587/2 296/588/2 297/589/2 295/590/2
f 302/591/5 292/592/5 119/236/5 6/235/5
f 235/593/1 292/498/1 293/497/1 291/594/1
f 295/595/1 120/243/1 119/242/1 294/596/1
f 291/594/1 293/497/1 120/243/1 295/595/1
f 294/596/1 119/242/1 292/498/1 235/593/1
f 235/597/4 298/598/4 296/599/4 294/600/4
f 295/601/5 297/602/5 299/603/5 291/604/5
f 291/605/3 299/606/3 298/607/3 235/608/3
f 311/609/1 306/610/1 305/611/1 310/612/1
f 302/375/2 194/613/2 197/614/2 301/372/2
f 301/372/2 197/614/2 199/615/2 300/452/2
f 319/616/5 309/617/5 146/265/5 130/264/5
f 309/618/1 194/619/1 140/269/1 146/268/1
f 310/612/1 305/611/1 199/620/1 307/621/1
f 308/622/1 197/623/1 194/619/1 309/618/1
f 307/621/1 199/620/1 197/623/1 308/622/1
f 196/624/3 307/625/3 308/626/3 185/627/3
f 303/456/2 305/628/2 306/629/2 304/630/2
f 304/631/5 306/632/5 311/633/5 214/634/5
f 185/627/3 308/626/3 309/635/3 319/636/3
f 214/637/3 311/638/3 310/639/3 314/640/3
f 300/452/2 199/615/2 305/628/2 303/456/2
f 314/640/3 310/639/3 307/625/3 196/624/3
f 6/235/4 140/293/4 194/641/4 302/591/4
f 313/642/1 130/297/1 129/296/1 312/643/1
f 315/644/1 136/55/1 314/419/1 205/645/1
f 312/643/1 129/296/1 137/301/1 316/646/1
f 316/646/1 137/301/1 136/55/1 315/644/1
f 317/647/1 196/648/1 185/649/1 318/650/1
f 318/650/1 185/649/1 319/651/1 183/652/1
f 205/645/1 314/419/1 196/648/1 317/647/1
f 183/652/1 319/651/1 130/297/1 313/642/1
f 318/650/1 320/653/1 321/654/1 317/647/1
f 317/647/1 321/654/1 322/655/1 316/646/1
f 316/646/1 322/655/1 323/656/1 312/643/1
f 312/643/1 323/656/1 320/653/1 318/650/1
f 183/652/1 324/657/1 325/658/1 318/650/1
f 318/650/1 325/658/1 326/659/1 312/643/1
f 312/643/1 326/659/1 327/660/1 313/642/1
f 313/642/1 327/660/1 324/657/1 183/652/1
f 317/647/1 328/661/1 329/662/1 205/645/1
f 205/645/1 329/662/1 330/663/1 315/644/1
f 315/644/1 330/663/1 331/664/1 316/646/1
f 316/646/1 331/664/1 328/661/1 317/647/1
f 327/677/5 338/678/5 337/679/5 324/680/5
f 328/681/3 341/682/3 340/683/3 329/684/3
f 322/685/2 335/686/2 334/687/2 323/688/2
f 325/689/4 336/690/4 339/691/4 326/692/4
f 331/693/5 342/694/5 341/695/5 328/696/5
f 320/697/3 333/698/3 332/699/3 321/700/3
f 326/701/2 339/702/2 338/703/2 327/704/2
f 329/705/4 340/706/4 343/707/4 330/708/4
f 323/709/5 334/710/5 333/711/5 320/712/5
usemtl glass_opaque
f 128/33/1 127/34/1 125/35/1 126/36/1
f 74/159/1 75/160/1 84/161/1 81/162/1
f 76/163/1 77/164/1 73/165/1 71/166/1
f 77/164/1 78/167/1 74/159/1 73/165/1
f 85/168/1 76/163/1 71/166/1 72/169/1
f 78/167/1 83/170/1 75/160/1 74/159/1
f 72/169/1 71/166/1 79/171/1 82/172/1
f 71/166/1 73/165/1 80/173/1 79/171/1
f 73/165/1 74/159/1 81/162/1 80/173/1
f 169/320/1 168/321/1 171/322/1 170/323/1
f 173/324/1 172/325/1 175/326/1 174/327/1
f 177/328/1 176/329/1 179/330/1 178/331/1
f 299/398/1 297/399/1 296/400/1 298/401/1
f 247/516/1 254/517/1 257/518/1 248/519/1
f 249/520/1 244/521/1 246/522/1 250/523/1
f 250/523/1 246/522/1 247/516/1 251/524/1
f 258/525/1 245/526/1 244/521/1 249/520/1
f 251/524/1 247/516/1 248/519/1 256/527/1
f 245/526/1 255/528/1 252/529/1 244/521/1
f 244/521/1 252/529/1 253/530/1 246/522/1
f 246/522/1 253/530/1 254/517/1 247/516/1
f 333/665/1 334/666/1 335/667/1 332/668/1
f 337/669/1 338/670/1 339/671/1 336/672/1
f 341/673/1 342/674/1 343/675/1 340/676/1
