# Blender 5.1.1
# www.blender.org
mtllib wall_props_d2.mtl
o wall_props_d2
v -1.040000 0.283373 0.040000
v -1.040000 0.293373 0.050000
v -1.050000 0.293373 0.040000
v -1.040000 0.524506 0.050000
v -1.040000 0.534506 0.040000
v -1.050000 0.524506 0.040000
v -1.040000 0.283373 -0.468132
v -1.050000 0.293373 -0.468132
v -1.040000 0.293373 -0.478132
v -1.040000 0.534506 -0.468132
v -1.040000 0.524506 -0.478132
v -1.050000 0.524506 -0.468132
v -0.531868 0.283373 0.040000
v -0.521868 0.293373 0.040000
v -0.531868 0.293373 0.050000
v -0.531868 0.534506 0.040000
v -0.531868 0.524506 0.050000
v -0.521868 0.524506 0.040000
v -0.531868 0.283373 -0.468132
v -0.531868 0.293373 -0.478132
v -0.521868 0.293373 -0.468132
v -0.531868 0.534506 -0.468132
v -0.521868 0.524506 -0.468132
v -0.531868 0.524506 -0.478132
v -1.040000 0.019748 0.040000
v -1.040000 0.029748 0.050000
v -1.050000 0.029748 0.040000
v -1.040000 0.247016 0.050000
v -1.040000 0.257017 0.040000
v -1.050000 0.247016 0.040000
v -1.040000 0.019748 -0.231208
v -1.050000 0.029748 -0.231208
v -1.040000 0.029748 -0.241208
v -1.040000 0.257017 -0.231208
v -1.040000 0.247016 -0.241208
v -1.050000 0.247016 -0.231208
v -0.768792 0.019748 0.040000
v -0.758792 0.029748 0.040000
v -0.768792 0.029748 0.050000
v -0.768792 0.257017 0.040000
v -0.768792 0.247016 0.050000
v -0.758792 0.247016 0.040000
v -0.768792 0.019748 -0.231208
v -0.768792 0.029748 -0.241208
v -0.758792 0.029748 -0.231208
v -0.768792 0.257017 -0.231208
v -0.758792 0.247016 -0.231208
v -0.768792 0.247016 -0.241208
v -1.040000 0.844373 0.040000
v -1.040000 0.854373 0.050000
v -1.050000 0.854373 0.040000
v -1.040000 1.085506 0.050000
v -1.040000 1.095506 0.040000
v -1.050000 1.085506 0.040000
v -1.040000 0.844373 -0.468132
v -1.050000 0.854373 -0.468132
v -1.040000 0.854373 -0.478132
v -1.040000 1.095506 -0.468132
v -1.040000 1.085506 -0.478132
v -1.050000 1.085506 -0.468132
v -0.531868 0.844373 0.040000
v -0.521868 0.854373 0.040000
v -0.531868 0.854373 0.050000
v -0.531868 1.095506 0.040000
v -0.531868 1.085506 0.050000
v -0.521868 1.085506 0.040000
v -0.531868 0.844373 -0.468132
v -0.531868 0.854373 -0.478132
v -0.521868 0.854373 -0.468132
v -0.531868 1.095506 -0.468132
v -0.521868 1.085506 -0.468132
v -0.531868 1.085506 -0.478132
v -1.040000 0.580748 0.040000
v -1.040000 0.590748 0.050000
v -1.050000 0.590748 0.040000
v -1.040000 0.808017 0.050000
v -1.040000 0.818017 0.040000
v -1.050000 0.808017 0.040000
v -1.040000 0.580748 -0.231208
v -1.050000 0.590748 -0.231208
v -1.040000 0.590748 -0.241208
v -1.040000 0.818017 -0.231208
v -1.040000 0.808017 -0.241208
v -1.050000 0.808017 -0.231208
v -0.768792 0.580748 0.040000
v -0.758792 0.590748 0.040000
v -0.768792 0.590748 0.050000
v -0.768792 0.818017 0.040000
v -0.768792 0.808017 0.050000
v -0.758792 0.808017 0.040000
v -0.768792 0.580748 -0.231208
v -0.768792 0.590748 -0.241208
v -0.758792 0.590748 -0.231208
v -0.768792 0.818017 -0.231208
v -0.758792 0.808017 -0.231208
v -0.768792 0.808017 -0.241208
v -1.040000 1.405373 0.040000
v -1.040000 1.415372 0.050000
v -1.050000 1.415372 0.040000
v -1.040000 1.646506 0.050000
v -1.040000 1.656506 0.040000
v -1.050000 1.646506 0.040000
v -1.040000 1.405373 -0.468132
v -1.050000 1.415372 -0.468132
v -1.040000 1.415372 -0.478132
v -1.040000 1.656506 -0.468132
v -1.040000 1.646506 -0.478132
v -1.050000 1.646506 -0.468132
v -0.531868 1.405373 0.040000
v -0.521868 1.415372 0.040000
v -0.531868 1.415372 0.050000
v -0.531868 1.656506 0.040000
v -0.531868 1.646506 0.050000
v -0.521868 1.646506 0.040000
v -0.531868 1.405373 -0.468132
v -0.531868 1.415372 -0.478132
v -0.521868 1.415372 -0.468132
v -0.531868 1.656506 -0.468132
v -0.521868 1.646506 -0.468132
v -0.531868 1.646506 -0.478132
v -1.040000 1.141748 0.040000
v -1.040000 1.151748 0.050000
v -1.050000 1.151748 0.040000
v -1.040000 1.369017 0.050000
v -1.040000 1.379017 0.040000
v -1.050000 1.369017 0.040000
v -1.040000 1.141748 -0.231208
v -1.050000 1.151748 -0.231208
v -1.040000 1.151748 -0.241208
v -1.040000 1.379017 -0.231208
v -1.040000 1.369017 -0.241208
v -1.050000 1.369017 -0.231208
v -0.768792 1.141748 0.040000
v -0.758792 1.151748 0.040000
v -0.768792 1.151748 0.050000
v -0.768792 1.379017 0.040000
v -0.768792 1.369017 0.050000
v -0.758792 1.369017 0.040000
v -0.768792 1.141748 -0.231208
v -0.768792 1.151748 -0.241208
v -0.758792 1.151748 -0.231208
v -0.768792 1.379017 -0.231208
v -0.758792 1.369017 -0.231208
v -0.768792 1.369017 -0.241208
v -1.040000 1.966372 0.040000
v -1.040000 1.976372 0.050000
v -1.050000 1.976372 0.040000
v -1.040000 2.207506 0.050000
v -1.040000 2.217506 0.040000
v -1.050000 2.207506 0.040000
v -1.040000 1.966372 -0.468132
v -1.050000 1.976372 -0.468132
v -1.040000 1.976372 -0.478132
v -1.040000 2.217506 -0.468132
v -1.040000 2.207506 -0.478132
v -1.050000 2.207506 -0.468132
v -0.531868 1.966372 0.040000
v -0.521868 1.976372 0.040000
v -0.531868 1.976372 0.050000
v -0.531868 2.217506 0.040000
v -0.531868 2.207506 0.050000
v -0.521868 2.207506 0.040000
v -0.531868 1.966372 -0.468132
v -0.531868 1.976372 -0.478132
v -0.521868 1.976372 -0.468132
v -0.531868 2.217506 -0.468132
v -0.521868 2.207506 -0.468132
v -0.531868 2.207506 -0.478132
v -1.040000 1.702748 0.040000
v -1.040000 1.712748 0.050000
v -1.050000 1.712748 0.040000
v -1.040000 1.930017 0.050000
v -1.040000 1.940017 0.040000
v -1.050000 1.930017 0.040000
v -1.040000 1.702748 -0.231208
v -1.050000 1.712748 -0.231208
v -1.040000 1.712748 -0.241208
v -1.040000 1.940017 -0.231208
v -1.040000 1.930017 -0.241208
v -1.050000 1.930017 -0.231208
v -0.768792 1.702748 0.040000
v -0.758792 1.712748 0.040000
v -0.768792 1.712748 0.050000
v -0.768792 1.940017 0.040000
v -0.768792 1.930017 0.050000
v -0.758792 1.930017 0.040000
v -0.768792 1.702748 -0.231208
v -0.768792 1.712748 -0.241208
v -0.758792 1.712748 -0.231208
v -0.768792 1.940017 -0.231208
v -0.758792 1.930017 -0.231208
v -0.768792 1.930017 -0.241208
v -1.040000 2.527373 0.040000
v -1.040000 2.537373 0.050000
v -1.050000 2.537373 0.040000
v -1.040000 2.768506 0.050000
v -1.040000 2.778506 0.040000
v -1.050000 2.768506 0.040000
v -1.040000 2.527373 -0.468132
v -1.050000 2.537373 -0.468132
v -1.040000 2.537373 -0.478132
v -1.040000 2.778506 -0.468132
v -1.040000 2.768506 -0.478132
v -1.050000 2.768506 -0.468132
v -0.531868 2.527373 0.040000
v -0.521868 2.537373 0.040000
v -0.531868 2.537373 0.050000
v -0.531868 2.778506 0.040000
v -0.531868 2.768506 0.050000
v -0.521868 2.768506 0.040000
v -0.531868 2.527373 -0.468132
v -0.531868 2.537373 -0.478132
v -0.521868 2.537373 -0.468132
v -0.531868 2.778506 -0.468132
v -0.521868 2.768506 -0.468132
v -0.531868 2.768506 -0.478132
v -1.040000 2.263748 0.040000
v -1.040000 2.273748 0.050000
v -1.050000 2.273748 0.040000
v -1.040000 2.491016 0.050000
v -1.040000 2.501016 0.040000
v -1.050000 2.491016 0.040000
v -1.040000 2.263748 -0.231208
v -1.050000 2.273748 -0.231208
v -1.040000 2.273748 -0.241208
v -1.040000 2.501016 -0.231208
v -1.040000 2.491016 -0.241208
v -1.050000 2.491016 -0.231208
v -0.768792 2.263748 0.040000
v -0.758792 2.273748 0.040000
v -0.768792 2.273748 0.050000
v -0.768792 2.501016 0.040000
v -0.768792 2.491016 0.050000
v -0.758792 2.491016 0.040000
v -0.768792 2.263748 -0.231208
v -0.768792 2.273748 -0.241208
v -0.758792 2.273748 -0.231208
v -0.768792 2.501016 -0.231208
v -0.758792 2.491016 -0.231208
v -0.768792 2.491016 -0.241208
vn -0.3416 -0.8756 0.3416
vn -0.3416 -0.3416 0.8756
vn -0.8756 -0.3416 0.3416
vn -0.3416 0.3416 0.8756
vn -0.3416 0.8756 0.3416
vn -0.8756 0.3416 0.3416
vn -0.3416 -0.8756 -0.3416
vn -0.8756 -0.3416 -0.3416
vn -0.3416 -0.3416 -0.8756
vn -0.3416 0.8756 -0.3416
vn -0.3416 0.3416 -0.8756
vn -0.8756 0.3416 -0.3416
vn 0.3416 -0.8756 0.3416
vn 0.8756 -0.3416 0.3416
vn 0.3416 -0.3416 0.8756
vn 0.3416 0.8756 0.3416
vn 0.3416 0.3416 0.8756
vn 0.8756 0.3416 0.3416
vn 0.3416 -0.8756 -0.3416
vn 0.3416 -0.3416 -0.8756
vn 0.8756 -0.3416 -0.3416
vn 0.3416 0.8756 -0.3416
vn 0.8756 0.3416 -0.3416
vn 0.3416 0.3416 -0.8756
vt 0.507453 0.252637
vt 0.507453 0.256793
vt 0.503164 0.256793
vt 0.507453 0.352841
vt 0.507453 0.356996
vt 0.503164 0.352841
vt 0.526798 0.355660
vt 0.526798 0.357689
vt 0.523286 0.355660
vt 0.705300 0.252206
vt 0.705301 0.250177
vt 0.708813 0.252206
vt 0.506208 0.252685
vt 0.506208 0.256840
vt 0.501919 0.256840
vt 0.725421 0.356996
vt 0.725421 0.352841
vt 0.729711 0.352841
vt 0.526798 0.252587
vt 0.523286 0.252587
vt 0.526798 0.250559
vt 0.724176 0.357044
vt 0.724176 0.352889
vt 0.728466 0.352889
vt 0.802333 0.634593
vt 0.802333 0.630916
vt 0.806971 0.634593
vt 0.677044 0.732586
vt 0.677043 0.736984
vt 0.672405 0.732586
vt 0.802333 0.734341
vt 0.806971 0.734340
vt 0.802333 0.738018
vt 0.675868 0.631318
vt 0.675868 0.635717
vt 0.671229 0.635717
vt 0.676541 0.634593
vt 0.671903 0.634593
vt 0.676541 0.630916
vt 0.802835 0.736984
vt 0.802835 0.732586
vt 0.807473 0.732586
vt 0.676541 0.734341
vt 0.676541 0.738018
vt 0.671903 0.734340
vt 0.675868 0.632813
vt 0.675868 0.637211
vt 0.671229 0.637211
vt 0.507453 0.256793
vt 0.503164 0.256793
vt 0.507453 0.352841
vt 0.725369 0.357246
vt 0.725369 0.353090
vt 0.729659 0.353090
vt 0.506208 0.253088
vt 0.506208 0.257244
vt 0.501919 0.257244
vt 0.506208 0.256840
vt 0.724177 0.357448
vt 0.724176 0.353292
vt 0.728466 0.353292
vt 0.677043 0.632625
vt 0.677044 0.637023
vt 0.672405 0.637023
vt 0.672405 0.732586
vt 0.675954 0.631251
vt 0.675954 0.635650
vt 0.671316 0.635650
vt 0.675868 0.635717
vt 0.671229 0.635717
vt 0.801659 0.737172
vt 0.801659 0.732774
vt 0.806297 0.732774
vt 0.802835 0.732586
vt 0.801659 0.735678
vt 0.801659 0.731279
vt 0.806297 0.731279
vt 0.675868 0.637211
vt 0.677044 0.637023
vt 0.675954 0.635650
vt 0.801659 0.731279
vt 0.806297 0.731279
vt 0.503164 0.352841
vt 0.729659 0.353090
vt 0.725421 0.352841
vt 0.729711 0.352841
vt 0.724176 0.353292
vt 0.728466 0.353292
vt 0.724177 0.352889
vt 0.728466 0.352889
vt 0.705300 0.357307
vt 0.705300 0.355278
vt 0.708813 0.355279
vt 0.506208 0.256840
vt 0.526798 0.355278
vt 0.526798 0.357307
vt 0.523286 0.355279
vt 0.526798 0.252206
vt 0.523286 0.252206
vt 0.526798 0.250177
vt 0.705300 0.355660
vt 0.705300 0.357689
vt 0.506208 0.353292
vt 0.501919 0.353292
vt 0.724176 0.256840
vt 0.728466 0.256840
vt 0.724176 0.252685
vt 0.506208 0.357044
vt 0.506208 0.352889
vt 0.501919 0.352889
vt 0.725421 0.252637
vt 0.725421 0.256793
vt 0.806384 0.635650
vt 0.806384 0.731212
vt 0.801746 0.731212
vt 0.801746 0.635650
vt 0.801746 0.735611
vt 0.675954 0.735611
vt 0.675954 0.731212
vt 0.671316 0.731212
vt 0.671316 0.635650
vt 0.801659 0.631318
vt 0.801659 0.635717
vt 0.806297 0.635717
vt 0.801659 0.632813
vt 0.801659 0.637211
vt 0.806298 0.637211
vt 0.806297 0.732774
vt 0.507401 0.357246
vt 0.507401 0.353090
vt 0.503111 0.353090
vt 0.503111 0.257042
vt 0.507401 0.257042
vt 0.507401 0.252887
vt 0.725369 0.252887
vt 0.725369 0.257042
vt 0.729658 0.257042
vt 0.506208 0.357448
vt 0.506208 0.353292
vt 0.724176 0.253088
vt 0.724177 0.257244
vt 0.728466 0.257244
vt 0.724176 0.256840
vt 0.725421 0.256793
vt 0.801746 0.631251
vt 0.801746 0.635650
vt 0.801746 0.731212
vt 0.675954 0.731212
vt 0.671316 0.731212
vt 0.675868 0.735678
vt 0.675868 0.731279
vt 0.801659 0.635717
vt 0.806297 0.635717
vt 0.675868 0.737172
vt 0.675868 0.732774
vt 0.802835 0.632625
vt 0.802835 0.637023
vt 0.729659 0.257042
vt 0.724177 0.257244
vt 0.728466 0.257244
vt 0.501919 0.352889
vt 0.724177 0.257244
vt 0.724176 0.256840
vt 0.506208 0.352889
vt 0.705300 0.252587
vt 0.507401 0.353090
vt 0.725369 0.353090
vt 0.724177 0.257244
vt 0.724177 0.353292
vt 0.802835 0.637023
vt 0.677043 0.637023
vt 0.802072 0.633882
vt 0.802072 0.732241
vt 0.676280 0.732241
vt 0.676280 0.633882
vt 0.675868 0.732774
vt 0.526798 0.252587
vt 0.506208 0.257244
vt 0.724176 0.352889
s 1
usemtl wall
f 1/1/1 2/2/2 3/3/3
f 4/4/4 5/5/5 6/6/6
f 7/7/7 8/8/8 9/9/9
f 10/10/10 11/11/11 12/12/12
f 13/13/13 14/14/14 15/15/15
f 16/16/16 17/17/17 18/18/18
f 19/19/19 20/20/20 21/21/21
f 22/22/22 23/23/23 24/24/24
f 25/25/1 26/26/2 27/27/3
f 28/28/4 29/29/5 30/30/6
f 31/31/7 32/32/8 33/33/9
f 34/34/10 35/35/11 36/36/12
f 37/37/13 38/38/14 39/39/15
f 40/40/16 41/41/17 42/42/18
f 43/43/19 44/44/20 45/45/21
f 46/46/22 47/47/23 48/48/24
f 49/1/1 50/49/2 51/50/3
f 52/51/4 53/5/5 54/6/6
f 55/52/7 56/53/8 57/54/9
f 58/55/10 59/56/11 60/57/12
f 61/13/13 62/58/14 63/15/15
f 64/16/16 65/17/17 66/18/18
f 67/59/19 68/60/20 69/61/21
f 70/22/22 71/23/23 72/24/24
f 73/62/1 74/63/2 75/64/3
f 76/28/4 77/29/5 78/65/6
f 79/66/7 80/67/8 81/68/9
f 82/34/10 83/69/11 84/70/12
f 85/71/13 86/72/14 87/73/15
f 88/40/16 89/74/17 90/42/18
f 91/75/19 92/76/20 93/77/21
f 94/46/22 95/78/23 96/48/24
f 97/1/1 98/49/2 99/50/3
f 100/51/4 101/5/5 102/6/6
f 103/52/7 104/53/8 105/54/9
f 106/55/10 107/56/11 108/57/12
f 109/13/13 110/58/14 111/15/15
f 112/16/16 113/17/17 114/18/18
f 115/59/19 116/60/20 117/61/21
f 118/22/22 119/23/23 120/24/24
f 121/62/1 122/79/2 123/64/3
f 124/28/4 125/29/5 126/30/6
f 127/66/7 128/80/8 129/68/9
f 130/34/10 131/69/11 132/70/12
f 133/71/13 134/72/14 135/73/15
f 136/40/16 137/74/17 138/42/18
f 139/75/19 140/81/20 141/82/21
f 142/46/22 143/78/23 144/48/24
f 145/1/1 146/49/2 147/50/3
f 148/4/4 149/5/5 150/83/6
f 151/52/7 152/53/8 153/84/9
f 154/55/10 155/56/11 156/57/12
f 157/13/13 158/58/14 159/15/15
f 160/16/16 161/85/17 162/86/18
f 163/59/19 164/87/20 165/88/21
f 166/22/22 167/89/23 168/90/24
f 169/62/1 170/79/2 171/64/3
f 172/28/4 173/29/5 174/30/6
f 175/66/7 176/80/8 177/68/9
f 178/34/10 179/69/11 180/70/12
f 181/71/13 182/72/14 183/73/15
f 184/40/16 185/74/17 186/42/18
f 187/75/19 188/81/20 189/82/21
f 190/46/22 191/78/23 192/48/24
f 193/1/1 194/49/2 195/50/3
f 196/91/4 197/92/5 198/93/6
f 199/52/7 200/53/8 201/84/9
f 202/10/10 203/11/11 204/12/12
f 205/13/13 206/94/14 207/15/15
f 208/95/16 209/96/17 210/97/18
f 211/59/19 212/60/20 213/88/21
f 214/98/22 215/99/23 216/100/24
f 217/62/1 218/79/2 219/64/3
f 220/28/4 221/29/5 222/30/6
f 223/66/7 224/80/8 225/68/9
f 226/34/10 227/69/11 228/70/12
f 229/71/13 230/72/14 231/73/15
f 232/40/16 233/74/17 234/42/18
f 235/75/19 236/81/20 237/82/21
f 238/46/22 239/78/23 240/48/24
f 7/7/7 1/101/1 3/102/3 8/8/8
f 2/2/2 4/4/4 6/6/6 3/3/3
f 5/92/5 10/10/10 12/12/12 6/93/6
f 11/56/11 9/103/9 8/104/8 12/57/12
f 19/19/19 7/7/7 9/9/9 20/20/20
f 10/10/10 22/98/22 24/100/24 11/11/11
f 23/23/23 21/105/21 20/106/20 24/24/24
f 13/13/13 19/107/19 21/105/21 14/14/14
f 22/22/22 16/108/16 18/109/18 23/23/23
f 17/110/17 15/15/15 14/14/14 18/109/18
f 1/1/1 13/111/13 15/112/15 2/2/2
f 16/16/16 5/5/5 4/4/4 17/17/17
f 31/31/7 25/25/1 27/27/3 32/32/8
f 26/113/2 28/114/4 30/115/6 27/116/3
f 29/117/5 34/118/10 36/119/12 30/115/6
f 35/120/11 33/121/9 32/80/8 36/119/12
f 43/43/19 31/31/7 33/33/9 44/44/20
f 34/34/10 46/122/22 48/123/24 35/35/11
f 47/124/23 45/82/21 44/81/20 48/123/24
f 37/37/13 43/43/19 45/45/21 38/38/14
f 46/46/22 40/125/16 42/126/18 47/47/23
f 41/127/17 39/128/15 38/72/14 42/126/18
f 25/25/1 37/37/13 39/39/15 26/26/2
f 40/40/16 29/29/5 28/28/4 41/41/17
f 55/52/7 49/129/1 51/130/3 56/53/8
f 50/131/2 52/132/4 54/133/6 51/130/3
f 53/134/5 58/135/10 60/136/12 54/133/6
f 59/137/11 57/54/9 56/53/8 60/136/12
f 67/59/19 55/138/7 57/139/9 68/60/20
f 58/55/10 70/140/22 72/141/24 59/56/11
f 71/142/23 69/61/21 68/60/20 72/141/24
f 61/13/13 67/107/19 69/143/21 62/58/14
f 70/22/22 64/108/16 66/109/18 71/23/23
f 65/110/17 63/15/15 62/58/14 66/109/18
f 49/1/1 61/111/13 63/144/15 50/49/2
f 64/16/16 53/5/5 52/51/4 65/17/17
f 79/66/7 73/145/1 75/146/3 80/67/8
f 74/113/2 76/114/4 78/147/6 75/146/3
f 77/117/5 82/118/10 84/148/12 78/147/6
f 83/149/11 81/68/9 80/67/8 84/148/12
f 91/75/19 79/150/7 81/151/9 92/76/20
f 82/34/10 94/122/22 96/152/24 83/69/11
f 95/153/23 93/77/21 92/76/20 96/152/24
f 85/71/13 91/154/19 93/155/21 86/72/14
f 94/46/22 88/125/16 90/126/18 95/78/23
f 89/127/17 87/73/15 86/72/14 90/126/18
f 73/62/1 85/156/13 87/157/15 74/63/2
f 88/40/16 77/29/5 76/28/4 89/74/17
f 103/52/7 97/129/1 99/130/3 104/53/8
f 98/131/2 100/132/4 102/133/6 99/130/3
f 101/134/5 106/135/10 108/136/12 102/133/6
f 107/137/11 105/54/9 104/53/8 108/136/12
f 115/59/19 103/138/7 105/139/9 116/60/20
f 106/55/10 118/140/22 120/141/24 107/56/11
f 119/142/23 117/61/21 116/60/20 120/141/24
f 109/13/13 115/107/19 117/143/21 110/58/14
f 118/22/22 112/108/16 114/109/18 119/23/23
f 113/110/17 111/15/15 110/58/14 114/109/18
f 97/1/1 109/111/13 111/144/15 98/49/2
f 112/16/16 101/5/5 100/51/4 113/17/17
f 127/66/7 121/145/1 123/146/3 128/80/8
f 122/113/2 124/114/4 126/147/6 123/146/3
f 125/117/5 130/118/10 132/148/12 126/147/6
f 131/149/11 129/68/9 128/80/8 132/148/12
f 139/75/19 127/150/7 129/151/9 140/81/20
f 130/34/10 142/122/22 144/152/24 131/69/11
f 143/153/23 141/82/21 140/81/20 144/152/24
f 133/71/13 139/154/19 141/155/21 134/72/14
f 142/46/22 136/125/16 138/126/18 143/78/23
f 137/127/17 135/73/15 134/72/14 138/126/18
f 121/62/1 133/156/13 135/157/15 122/79/2
f 136/40/16 125/29/5 124/28/4 137/74/17
f 151/52/7 145/129/1 147/130/3 152/53/8
f 146/131/2 148/132/4 150/133/6 147/130/3
f 149/134/5 154/135/10 156/136/12 150/133/6
f 155/158/11 153/84/9 152/53/8 156/136/12
f 163/59/19 151/138/7 153/139/9 164/87/20
f 154/55/10 166/140/22 168/159/24 155/56/11
f 167/160/23 165/88/21 164/87/20 168/159/24
f 157/13/13 163/107/19 165/105/21 158/58/14
f 166/22/22 160/108/16 162/109/18 167/89/23
f 161/161/17 159/15/15 158/58/14 162/109/18
f 145/1/1 157/111/13 159/144/15 146/49/2
f 160/16/16 149/5/5 148/4/4 161/85/17
f 175/66/7 169/145/1 171/146/3 176/80/8
f 170/113/2 172/114/4 174/147/6 171/146/3
f 173/117/5 178/118/10 180/148/12 174/147/6
f 179/149/11 177/68/9 176/80/8 180/148/12
f 187/75/19 175/150/7 177/151/9 188/81/20
f 178/34/10 190/122/22 192/152/24 179/69/11
f 191/153/23 189/82/21 188/81/20 192/152/24
f 181/71/13 187/154/19 189/155/21 182/72/14
f 190/46/22 184/125/16 186/126/18 191/78/23
f 185/127/17 183/73/15 182/72/14 186/126/18
f 169/62/1 181/156/13 183/157/15 170/79/2
f 184/40/16 173/29/5 172/28/4 185/74/17
f 199/52/7 193/129/1 195/130/3 200/53/8
f 194/131/2 196/132/4 198/133/6 195/130/3
f 197/92/5 202/10/10 204/12/12 198/93/6
f 203/158/11 201/84/9 200/53/8 204/136/12
f 211/59/19 199/138/7 201/139/9 212/60/20
f 202/10/10 214/98/22 216/100/24 203/11/11
f 215/160/23 213/88/21 212/60/20 216/162/24
f 205/13/13 211/107/19 213/163/21 206/94/14
f 214/98/22 208/95/16 210/97/18 215/99/23
f 209/110/17 207/15/15 206/94/14 210/164/18
f 193/1/1 205/111/13 207/144/15 194/49/2
f 208/95/16 197/92/5 196/91/4 209/96/17
f 223/66/7 217/145/1 219/146/3 224/80/8
f 218/113/2 220/114/4 222/147/6 219/146/3
f 221/117/5 226/118/10 228/148/12 222/147/6
f 227/149/11 225/68/9 224/80/8 228/148/12
f 235/75/19 223/150/7 225/151/9 236/81/20
f 226/34/10 238/122/22 240/152/24 227/69/11
f 239/153/23 237/82/21 236/81/20 240/152/24
f 229/71/13 235/154/19 237/155/21 230/72/14
f 238/46/22 232/125/16 234/126/18 239/78/23
f 233/127/17 231/73/15 230/72/14 234/126/18
f 217/62/1 229/156/13 231/157/15 218/79/2
f 232/40/16 221/29/5 220/28/4 233/74/17
f 7/7/7 19/19/19 13/165/13 1/101/1
f 3/166/3 6/133/6 12/136/12 8/167/8
f 15/112/15 17/17/17 4/4/4 2/2/2
f 22/98/22 10/10/10 5/92/5 16/95/16
f 9/103/9 11/56/11 24/168/24 20/169/20
f 21/105/21 23/23/23 18/109/18 14/14/14
f 31/31/7 43/43/19 37/37/13 25/25/1
f 27/116/3 30/115/6 36/119/12 32/80/8
f 39/170/15 41/41/17 28/28/4 26/171/2
f 46/172/22 34/173/10 29/174/5 40/175/16
f 33/151/9 35/35/11 48/123/24 44/81/20
f 45/176/21 47/47/23 42/126/18 38/72/14
f 55/7/7 67/177/19 61/165/13 49/101/1
f 51/130/3 54/133/6 60/136/12 56/53/8
f 63/144/15 65/17/17 52/51/4 50/49/2
f 70/98/22 58/10/10 53/92/5 64/95/16
f 57/139/9 59/56/11 72/141/24 68/60/20
f 69/143/21 71/23/23 66/109/18 62/58/14
f 79/31/7 91/43/19 85/37/13 73/25/1
f 75/146/3 78/147/6 84/148/12 80/67/8
f 87/157/15 89/74/17 76/28/4 74/63/2
f 94/172/22 82/173/10 77/174/5 88/175/16
f 81/151/9 83/69/11 96/152/24 92/76/20
f 93/155/21 95/78/23 90/126/18 86/72/14
f 103/7/7 115/177/19 109/165/13 97/101/1
f 99/130/3 102/133/6 108/136/12 104/53/8
f 111/144/15 113/17/17 100/51/4 98/49/2
f 118/98/22 106/10/10 101/92/5 112/95/16
f 105/139/9 107/56/11 120/141/24 116/60/20
f 117/143/21 119/23/23 114/109/18 110/58/14
f 127/31/7 139/43/19 133/37/13 121/25/1
f 123/146/3 126/147/6 132/148/12 128/80/8
f 135/157/15 137/74/17 124/28/4 122/79/2
f 142/172/22 130/173/10 125/174/5 136/175/16
f 129/151/9 131/69/11 144/152/24 140/81/20
f 141/155/21 143/78/23 138/126/18 134/72/14
f 151/7/7 163/177/19 157/165/13 145/101/1
f 147/130/3 150/133/6 156/136/12 152/53/8
f 159/144/15 161/85/17 148/4/4 146/49/2
f 166/98/22 154/10/10 149/92/5 160/95/16
f 153/139/9 155/56/11 168/159/24 164/87/20
f 165/105/21 167/89/23 162/109/18 158/58/14
f 175/31/7 187/43/19 181/37/13 169/25/1
f 171/146/3 174/147/6 180/148/12 176/80/8
f 183/157/15 185/74/17 172/28/4 170/79/2
f 190/172/22 178/173/10 173/174/5 184/175/16
f 177/151/9 179/69/11 192/152/24 188/81/20
f 189/155/21 191/78/23 186/126/18 182/72/14
f 199/7/7 211/177/19 205/165/13 193/101/1
f 195/130/3 198/133/6 204/136/12 200/53/8
f 207/144/15 209/85/17 196/4/4 194/49/2
f 214/98/22 202/10/10 197/92/5 208/95/16
f 201/139/9 203/178/11 216/162/24 212/60/20
f 213/163/21 215/179/23 210/164/18 206/94/14
f 223/31/7 235/43/19 229/37/13 217/25/1
f 219/146/3 222/147/6 228/148/12 224/80/8
f 231/157/15 233/74/17 220/28/4 218/79/2
f 238/172/22 226/173/10 221/174/5 232/175/16
f 225/151/9 227/69/11 240/152/24 236/81/20
f 237/155/21 239/78/23 234/126/18 230/72/14
