# Blender 5.1.1
# www.blender.org
mtllib wall_props_b_angle.mtl
o wall_props_b_angle
v -0.020414 -0.200000 0.000000
v -0.000000 0.100000 0.000000
v -0.086071 -0.189847 -0.000000
v -0.086071 0.089846 -0.000000
v -0.020414 -0.413602 0.000000
v 0.000180 -0.438768 -0.000180
v 0.000000 -0.413602 0.020414
v 0.000000 0.089846 0.086071
v 0.000000 -0.189847 0.086071
v 0.000000 -0.200000 0.020414
vn -0.1164 0.9864 0.1164
vn -0.7071 -0.0000 0.7071
vn -0.1511 -0.9769 0.1511
vn -0.6107 -0.5041 0.6107
vt 0.000000 0.000000
s 0
usemtl wall
f 2/1/1 4/1/1 8/1/1
f 8/1/2 4/1/2 3/1/2 9/1/2
f 9/1/3 3/1/3 1/1/3 10/1/3
f 10/1/2 1/1/2 5/1/2 7/1/2
f 7/1/4 5/1/4 6/1/4
