# Blender 5.1.1
# www.blender.org
mtllib wall_props_d1.mtl
o wall_props_d1
v 0.760000 0.283373 0.040000
v 0.760000 0.293373 0.050000
v 0.750000 0.293373 0.040000
v 0.760000 0.286301 0.047071
v 0.754226 0.287599 0.045774
v 0.752929 0.293373 0.047071
v 0.752929 0.286301 0.040000
v 0.760000 0.524506 0.050000
v 0.760000 0.534506 0.040000
v 0.750000 0.524506 0.040000
v 0.760000 0.531577 0.047071
v 0.754226 0.530279 0.045774
v 0.752929 0.531577 0.040000
v 0.752929 0.524506 0.047071
v 0.760000 0.283373 -0.468132
v 0.750000 0.293373 -0.468132
v 0.760000 0.293373 -0.478132
v 0.752929 0.286301 -0.468132
v 0.754226 0.287599 -0.473906
v 0.752929 0.293373 -0.475203
v 0.760000 0.286301 -0.475203
v 0.760000 0.534506 -0.468132
v 0.760000 0.524506 -0.478132
v 0.750000 0.524506 -0.468132
v 0.760000 0.531577 -0.475203
v 0.754226 0.530279 -0.473906
v 0.752929 0.524506 -0.475203
v 0.752929 0.531577 -0.468132
v 1.268132 0.283373 0.040000
v 1.278132 0.293373 0.040000
v 1.268132 0.293373 0.050000
v 1.275203 0.286301 0.040000
v 1.273906 0.287599 0.045774
v 1.275203 0.293373 0.047071
v 1.268132 0.286301 0.047071
v 1.268132 0.534506 0.040000
v 1.268132 0.524506 0.050000
v 1.278132 0.524506 0.040000
v 1.268132 0.531577 0.047071
v 1.273906 0.530279 0.045774
v 1.275203 0.524506 0.047071
v 1.275203 0.531577 0.040000
v 1.268132 0.283373 -0.468132
v 1.268132 0.293373 -0.478132
v 1.278132 0.293373 -0.468132
v 1.268132 0.286301 -0.475203
v 1.273906 0.287599 -0.473906
v 1.275203 0.293373 -0.475203
v 1.275203 0.286301 -0.468132
v 1.268132 0.534506 -0.468132
v 1.278132 0.524506 -0.468132
v 1.268132 0.524506 -0.478132
v 1.275203 0.531577 -0.468132
v 1.273906 0.530279 -0.473906
v 1.275203 0.524506 -0.475203
v 1.268132 0.531577 -0.475203
v 0.870000 0.019748 0.040000
v 0.870000 0.029748 0.050000
v 0.860000 0.029748 0.040000
v 0.870000 0.022677 0.047071
v 0.864227 0.023975 0.045774
v 0.862929 0.029748 0.047071
v 0.862929 0.022677 0.040000
v 0.870000 0.247016 0.050000
v 0.870000 0.257017 0.040000
v 0.860000 0.247016 0.040000
v 0.870000 0.254088 0.047071
v 0.864227 0.252790 0.045774
v 0.862929 0.254088 0.040000
v 0.862929 0.247016 0.047071
v 0.870000 0.019748 -0.231208
v 0.860000 0.029748 -0.231208
v 0.870000 0.029748 -0.241208
v 0.862929 0.022677 -0.231208
v 0.864227 0.023975 -0.236982
v 0.862929 0.029748 -0.238279
v 0.870000 0.022677 -0.238279
v 0.870000 0.257017 -0.231208
v 0.870000 0.247016 -0.241208
v 0.860000 0.247016 -0.231208
v 0.870000 0.254088 -0.238279
v 0.864227 0.252790 -0.236982
v 0.862929 0.247016 -0.238279
v 0.862929 0.254088 -0.231208
v 1.141208 0.019748 0.040000
v 1.151208 0.029748 0.040000
v 1.141208 0.029748 0.050000
v 1.148279 0.022677 0.040000
v 1.146982 0.023975 0.045774
v 1.148279 0.029748 0.047071
v 1.141208 0.022677 0.047071
v 1.141208 0.257017 0.040000
v 1.141208 0.247016 0.050000
v 1.151208 0.247016 0.040000
v 1.141208 0.254088 0.047071
v 1.146982 0.252790 0.045774
v 1.148279 0.247016 0.047071
v 1.148279 0.254088 0.040000
v 1.141208 0.019748 -0.231208
v 1.141208 0.029748 -0.241208
v 1.151208 0.029748 -0.231208
v 1.141208 0.022677 -0.238279
v 1.146982 0.023975 -0.236982
v 1.148279 0.029748 -0.238279
v 1.148279 0.022677 -0.231208
v 1.141208 0.257017 -0.231208
v 1.151208 0.247016 -0.231208
v 1.141208 0.247016 -0.241208
v 1.148279 0.254088 -0.231208
v 1.146982 0.252790 -0.236982
v 1.148279 0.247016 -0.238279
v 1.141208 0.254088 -0.238279
v 0.760000 0.844373 0.040000
v 0.760000 0.854373 0.050000
v 0.750000 0.854373 0.040000
v 0.760000 0.847301 0.047071
v 0.754226 0.848599 0.045774
v 0.752929 0.854373 0.047071
v 0.752929 0.847301 0.040000
v 0.760000 1.085506 0.050000
v 0.760000 1.095506 0.040000
v 0.750000 1.085506 0.040000
v 0.760000 1.092577 0.047071
v 0.754226 1.091280 0.045774
v 0.752929 1.092577 0.040000
v 0.752929 1.085506 0.047071
v 0.760000 0.844373 -0.468132
v 0.750000 0.854373 -0.468132
v 0.760000 0.854373 -0.478132
v 0.752929 0.847301 -0.468132
v 0.754226 0.848599 -0.473906
v 0.752929 0.854373 -0.475203
v 0.760000 0.847301 -0.475203
v 0.760000 1.095506 -0.468132
v 0.760000 1.085506 -0.478132
v 0.750000 1.085506 -0.468132
v 0.760000 1.092577 -0.475203
v 0.754226 1.091280 -0.473906
v 0.752929 1.085506 -0.475203
v 0.752929 1.092577 -0.468132
v 1.268132 0.844373 0.040000
v 1.278132 0.854373 0.040000
v 1.268132 0.854373 0.050000
v 1.275203 0.847301 0.040000
v 1.273906 0.848599 0.045774
v 1.275203 0.854373 0.047071
v 1.268132 0.847301 0.047071
v 1.268132 1.095506 0.040000
v 1.268132 1.085506 0.050000
v 1.278132 1.085506 0.040000
v 1.268132 1.092577 0.047071
v 1.273906 1.091280 0.045774
v 1.275203 1.085506 0.047071
v 1.275203 1.092577 0.040000
v 1.268132 0.844373 -0.468132
v 1.268132 0.854373 -0.478132
v 1.278132 0.854373 -0.468132
v 1.268132 0.847301 -0.475203
v 1.273906 0.848599 -0.473906
v 1.275203 0.854373 -0.475203
v 1.275203 0.847301 -0.468132
v 1.268132 1.095506 -0.468132
v 1.278132 1.085506 -0.468132
v 1.268132 1.085506 -0.478132
v 1.275203 1.092577 -0.468132
v 1.273906 1.091280 -0.473906
v 1.275203 1.085506 -0.475203
v 1.268132 1.092577 -0.475203
v 0.870000 0.580748 0.040000
v 0.870000 0.590748 0.050000
v 0.860000 0.590748 0.040000
v 0.870000 0.583677 0.047071
v 0.864227 0.584974 0.045774
v 0.862929 0.590748 0.047071
v 0.862929 0.583677 0.040000
v 0.870000 0.808017 0.050000
v 0.870000 0.818017 0.040000
v 0.860000 0.808017 0.040000
v 0.870000 0.815088 0.047071
v 0.864227 0.813790 0.045774
v 0.862929 0.815088 0.040000
v 0.862929 0.808017 0.047071
v 0.870000 0.580748 -0.231208
v 0.860000 0.590748 -0.231208
v 0.870000 0.590748 -0.241208
v 0.862929 0.583677 -0.231208
v 0.864227 0.584974 -0.236982
v 0.862929 0.590748 -0.238279
v 0.870000 0.583677 -0.238279
v 0.870000 0.818017 -0.231208
v 0.870000 0.808017 -0.241208
v 0.860000 0.808017 -0.231208
v 0.870000 0.815088 -0.238279
v 0.864227 0.813790 -0.236982
v 0.862929 0.808017 -0.238279
v 0.862929 0.815088 -0.231208
v 1.141208 0.580748 0.040000
v 1.151208 0.590748 0.040000
v 1.141208 0.590748 0.050000
v 1.148279 0.583677 0.040000
v 1.146982 0.584974 0.045774
v 1.148279 0.590748 0.047071
v 1.141208 0.583677 0.047071
v 1.141208 0.818017 0.040000
v 1.141208 0.808017 0.050000
v 1.151208 0.808017 0.040000
v 1.141208 0.815088 0.047071
v 1.146982 0.813790 0.045774
v 1.148279 0.808017 0.047071
v 1.148279 0.815088 0.040000
v 1.141208 0.580748 -0.231208
v 1.141208 0.590748 -0.241208
v 1.151208 0.590748 -0.231208
v 1.141208 0.583677 -0.238279
v 1.146982 0.584974 -0.236982
v 1.148279 0.590748 -0.238279
v 1.148279 0.583677 -0.231208
v 1.141208 0.818017 -0.231208
v 1.151208 0.808017 -0.231208
v 1.141208 0.808017 -0.241208
v 1.148279 0.815088 -0.231208
v 1.146982 0.813790 -0.236982
v 1.148279 0.808017 -0.238279
v 1.141208 0.815088 -0.238279
v 0.760000 1.405373 0.040000
v 0.760000 1.415372 0.050000
v 0.750000 1.415372 0.040000
v 0.760000 1.408301 0.047071
v 0.754226 1.409599 0.045774
v 0.752929 1.415372 0.047071
v 0.752929 1.408301 0.040000
v 0.760000 1.646506 0.050000
v 0.760000 1.656506 0.040000
v 0.750000 1.646506 0.040000
v 0.760000 1.653577 0.047071
v 0.754226 1.652279 0.045774
v 0.752929 1.653577 0.040000
v 0.752929 1.646506 0.047071
v 0.760000 1.405373 -0.468132
v 0.750000 1.415372 -0.468132
v 0.760000 1.415372 -0.478132
v 0.752929 1.408301 -0.468132
v 0.754226 1.409599 -0.473906
v 0.752929 1.415372 -0.475203
v 0.760000 1.408301 -0.475203
v 0.760000 1.656506 -0.468132
v 0.760000 1.646506 -0.478132
v 0.750000 1.646506 -0.468132
v 0.760000 1.653577 -0.475203
v 0.754226 1.652279 -0.473906
v 0.752929 1.646506 -0.475203
v 0.752929 1.653577 -0.468132
v 1.268132 1.405373 0.040000
v 1.278132 1.415372 0.040000
v 1.268132 1.415372 0.050000
v 1.275203 1.408301 0.040000
v 1.273906 1.409599 0.045774
v 1.275203 1.415372 0.047071
v 1.268132 1.408301 0.047071
v 1.268132 1.656506 0.040000
v 1.268132 1.646506 0.050000
v 1.278132 1.646506 0.040000
v 1.268132 1.653577 0.047071
v 1.273906 1.652279 0.045774
v 1.275203 1.646506 0.047071
v 1.275203 1.653577 0.040000
v 1.268132 1.405373 -0.468132
v 1.268132 1.415372 -0.478132
v 1.278132 1.415372 -0.468132
v 1.268132 1.408301 -0.475203
v 1.273906 1.409599 -0.473906
v 1.275203 1.415372 -0.475203
v 1.275203 1.408301 -0.468132
v 1.268132 1.656506 -0.468132
v 1.278132 1.646506 -0.468132
v 1.268132 1.646506 -0.478132
v 1.275203 1.653577 -0.468132
v 1.273906 1.652279 -0.473906
v 1.275203 1.646506 -0.475203
v 1.268132 1.653577 -0.475203
v 0.870000 1.141748 0.040000
v 0.870000 1.151748 0.050000
v 0.860000 1.151748 0.040000
v 0.870000 1.144677 0.047071
v 0.864227 1.145975 0.045774
v 0.862929 1.151748 0.047071
v 0.862929 1.144677 0.040000
v 0.870000 1.369017 0.050000
v 0.870000 1.379017 0.040000
v 0.860000 1.369017 0.040000
v 0.870000 1.376088 0.047071
v 0.864227 1.374790 0.045774
v 0.862929 1.376088 0.040000
v 0.862929 1.369017 0.047071
v 0.870000 1.141748 -0.231208
v 0.860000 1.151748 -0.231208
v 0.870000 1.151748 -0.241208
v 0.862929 1.144677 -0.231208
v 0.864227 1.145975 -0.236982
v 0.862929 1.151748 -0.238279
v 0.870000 1.144677 -0.238279
v 0.870000 1.379017 -0.231208
v 0.870000 1.369017 -0.241208
v 0.860000 1.369017 -0.231208
v 0.870000 1.376088 -0.238279
v 0.864227 1.374790 -0.236982
v 0.862929 1.369017 -0.238279
v 0.862929 1.376088 -0.231208
v 1.141208 1.141748 0.040000
v 1.151208 1.151748 0.040000
v 1.141208 1.151748 0.050000
v 1.148279 1.144677 0.040000
v 1.146982 1.145975 0.045774
v 1.148279 1.151748 0.047071
v 1.141208 1.144677 0.047071
v 1.141208 1.379017 0.040000
v 1.141208 1.369017 0.050000
v 1.151208 1.369017 0.040000
v 1.141208 1.376088 0.047071
v 1.146982 1.374790 0.045774
v 1.148279 1.369017 0.047071
v 1.148279 1.376088 0.040000
v 1.141208 1.141748 -0.231208
v 1.141208 1.151748 -0.241208
v 1.151208 1.151748 -0.231208
v 1.141208 1.144677 -0.238279
v 1.146982 1.145975 -0.236982
v 1.148279 1.151748 -0.238279
v 1.148279 1.144677 -0.231208
v 1.141208 1.379017 -0.231208
v 1.151208 1.369017 -0.231208
v 1.141208 1.369017 -0.241208
v 1.148279 1.376088 -0.231208
v 1.146982 1.374790 -0.236982
v 1.148279 1.369017 -0.238279
v 1.141208 1.376088 -0.238279
v 0.760000 1.966372 0.040000
v 0.760000 1.976372 0.050000
v 0.750000 1.976372 0.040000
v 0.760000 1.969301 0.047071
v 0.754226 1.970599 0.045774
v 0.752929 1.976372 0.047071
v 0.752929 1.969301 0.040000
v 0.760000 2.207506 0.050000
v 0.760000 2.217506 0.040000
v 0.750000 2.207506 0.040000
v 0.760000 2.214577 0.047071
v 0.754226 2.213279 0.045774
v 0.752929 2.214577 0.040000
v 0.752929 2.207506 0.047071
v 0.760000 1.966372 -0.468132
v 0.750000 1.976372 -0.468132
v 0.760000 1.976372 -0.478132
v 0.752929 1.969301 -0.468132
v 0.754226 1.970599 -0.473906
v 0.752929 1.976372 -0.475203
v 0.760000 1.969301 -0.475203
v 0.760000 2.217506 -0.468132
v 0.760000 2.207506 -0.478132
v 0.750000 2.207506 -0.468132
v 0.760000 2.214577 -0.475203
v 0.754226 2.213279 -0.473906
v 0.752929 2.207506 -0.475203
v 0.752929 2.214577 -0.468132
v 1.268132 1.966372 0.040000
v 1.278132 1.976372 0.040000
v 1.268132 1.976372 0.050000
v 1.275203 1.969301 0.040000
v 1.273906 1.970599 0.045774
v 1.275203 1.976372 0.047071
v 1.268132 1.969301 0.047071
v 1.268132 2.217506 0.040000
v 1.268132 2.207506 0.050000
v 1.278132 2.207506 0.040000
v 1.268132 2.214577 0.047071
v 1.273906 2.213279 0.045774
v 1.275203 2.207506 0.047071
v 1.275203 2.214577 0.040000
v 1.268132 1.966372 -0.468132
v 1.268132 1.976372 -0.478132
v 1.278132 1.976372 -0.468132
v 1.268132 1.969301 -0.475203
v 1.273906 1.970599 -0.473906
v 1.275203 1.976372 -0.475203
v 1.275203 1.969301 -0.468132
v 1.268132 2.217506 -0.468132
v 1.278132 2.207506 -0.468132
v 1.268132 2.207506 -0.478132
v 1.275203 2.214577 -0.468132
v 1.273906 2.213279 -0.473906
v 1.275203 2.207506 -0.475203
v 1.268132 2.214577 -0.475203
v 0.870000 1.702748 0.040000
v 0.870000 1.712748 0.050000
v 0.860000 1.712748 0.040000
v 0.870000 1.705677 0.047071
v 0.864227 1.706975 0.045774
v 0.862929 1.712748 0.047071
v 0.862929 1.705677 0.040000
v 0.870000 1.930017 0.050000
v 0.870000 1.940017 0.040000
v 0.860000 1.930017 0.040000
v 0.870000 1.937088 0.047071
v 0.864227 1.935790 0.045774
v 0.862929 1.937088 0.040000
v 0.862929 1.930017 0.047071
v 0.870000 1.702748 -0.231208
v 0.860000 1.712748 -0.231208
v 0.870000 1.712748 -0.241208
v 0.862929 1.705677 -0.231208
v 0.864227 1.706975 -0.236982
v 0.862929 1.712748 -0.238279
v 0.870000 1.705677 -0.238279
v 0.870000 1.940017 -0.231208
v 0.870000 1.930017 -0.241208
v 0.860000 1.930017 -0.231208
v 0.870000 1.937088 -0.238279
v 0.864227 1.935790 -0.236982
v 0.862929 1.930017 -0.238279
v 0.862929 1.937088 -0.231208
v 1.141208 1.702748 0.040000
v 1.151208 1.712748 0.040000
v 1.141208 1.712748 0.050000
v 1.148279 1.705677 0.040000
v 1.146982 1.706975 0.045774
v 1.148279 1.712748 0.047071
v 1.141208 1.705677 0.047071
v 1.141208 1.940017 0.040000
v 1.141208 1.930017 0.050000
v 1.151208 1.930017 0.040000
v 1.141208 1.937088 0.047071
v 1.146982 1.935790 0.045774
v 1.148279 1.930017 0.047071
v 1.148279 1.937088 0.040000
v 1.141208 1.702748 -0.231208
v 1.141208 1.712748 -0.241208
v 1.151208 1.712748 -0.231208
v 1.141208 1.705677 -0.238279
v 1.146982 1.706975 -0.236982
v 1.148279 1.712748 -0.238279
v 1.148279 1.705677 -0.231208
v 1.141208 1.940017 -0.231208
v 1.151208 1.930017 -0.231208
v 1.141208 1.930017 -0.241208
v 1.148279 1.937088 -0.231208
v 1.146982 1.935790 -0.236982
v 1.148279 1.930017 -0.238279
v 1.141208 1.937088 -0.238279
v 0.760000 2.527373 0.040000
v 0.760000 2.537373 0.050000
v 0.750000 2.537373 0.040000
v 0.760000 2.530302 0.047071
v 0.754226 2.531599 0.045774
v 0.752929 2.537373 0.047071
v 0.752929 2.530302 0.040000
v 0.760000 2.768506 0.050000
v 0.760000 2.778506 0.040000
v 0.750000 2.768506 0.040000
v 0.760000 2.775577 0.047071
v 0.754226 2.774279 0.045774
v 0.752929 2.775577 0.040000
v 0.752929 2.768506 0.047071
v 0.760000 2.527373 -0.468132
v 0.750000 2.537373 -0.468132
v 0.760000 2.537373 -0.478132
v 0.752929 2.530302 -0.468132
v 0.754226 2.531599 -0.473906
v 0.752929 2.537373 -0.475203
v 0.760000 2.530302 -0.475203
v 0.760000 2.778506 -0.468132
v 0.760000 2.768506 -0.478132
v 0.750000 2.768506 -0.468132
v 0.760000 2.775577 -0.475203
v 0.754226 2.774279 -0.473906
v 0.752929 2.768506 -0.475203
v 0.752929 2.775577 -0.468132
v 1.268132 2.527373 0.040000
v 1.278132 2.537373 0.040000
v 1.268132 2.537373 0.050000
v 1.275203 2.530302 0.040000
v 1.273906 2.531599 0.045774
v 1.275203 2.537373 0.047071
v 1.268132 2.530302 0.047071
v 1.268132 2.778506 0.040000
v 1.268132 2.768506 0.050000
v 1.278132 2.768506 0.040000
v 1.268132 2.775577 0.047071
v 1.273906 2.774279 0.045774
v 1.275203 2.768506 0.047071
v 1.275203 2.775577 0.040000
v 1.268132 2.527373 -0.468132
v 1.268132 2.537373 -0.478132
v 1.278132 2.537373 -0.468132
v 1.268132 2.530302 -0.475203
v 1.273906 2.531599 -0.473906
v 1.275203 2.537373 -0.475203
v 1.275203 2.530302 -0.468132
v 1.268132 2.778506 -0.468132
v 1.278132 2.768506 -0.468132
v 1.268132 2.768506 -0.478132
v 1.275203 2.775577 -0.468132
v 1.273906 2.774279 -0.473906
v 1.275203 2.768506 -0.475203
v 1.268132 2.775577 -0.475203
v 0.870000 2.263748 0.040000
v 0.870000 2.273748 0.050000
v 0.860000 2.273748 0.040000
v 0.870000 2.266677 0.047071
v 0.864227 2.267974 0.045774
v 0.862929 2.273748 0.047071
v 0.862929 2.266677 0.040000
v 0.870000 2.491016 0.050000
v 0.870000 2.501016 0.040000
v 0.860000 2.491016 0.040000
v 0.870000 2.498087 0.047071
v 0.864227 2.496790 0.045774
v 0.862929 2.498087 0.040000
v 0.862929 2.491016 0.047071
v 0.870000 2.263748 -0.231208
v 0.860000 2.273748 -0.231208
v 0.870000 2.273748 -0.241208
v 0.862929 2.266677 -0.231208
v 0.864227 2.267974 -0.236982
v 0.862929 2.273748 -0.238279
v 0.870000 2.266677 -0.238279
v 0.870000 2.501016 -0.231208
v 0.870000 2.491016 -0.241208
v 0.860000 2.491016 -0.231208
v 0.870000 2.498087 -0.238279
v 0.864227 2.496790 -0.236982
v 0.862929 2.491016 -0.238279
v 0.862929 2.498087 -0.231208
v 1.141208 2.263748 0.040000
v 1.151208 2.273748 0.040000
v 1.141208 2.273748 0.050000
v 1.148279 2.266677 0.040000
v 1.146982 2.267974 0.045774
v 1.148279 2.273748 0.047071
v 1.141208 2.266677 0.047071
v 1.141208 2.501016 0.040000
v 1.141208 2.491016 0.050000
v 1.151208 2.491016 0.040000
v 1.141208 2.498087 0.047071
v 1.146982 2.496790 0.045774
v 1.148279 2.491016 0.047071
v 1.148279 2.498087 0.040000
v 1.141208 2.263748 -0.231208
v 1.141208 2.273748 -0.241208
v 1.151208 2.273748 -0.231208
v 1.141208 2.266677 -0.238279
v 1.146982 2.267974 -0.236982
v 1.148279 2.273748 -0.238279
v 1.148279 2.266677 -0.231208
v 1.141208 2.501016 -0.231208
v 1.151208 2.491016 -0.231208
v 1.141208 2.491016 -0.241208
v 1.148279 2.498087 -0.231208
v 1.146982 2.496790 -0.236982
v 1.148279 2.491016 -0.238279
v 1.141208 2.498087 -0.238279
vn -0.1794 -0.9673 0.1794
vn -0.1794 -0.1794 0.9673
vn -0.9673 -0.1794 0.1794
vn -0.1726 -0.6965 0.6965
vn -0.5774 -0.5774 0.5774
vn -0.6965 -0.1726 0.6965
vn -0.6965 -0.6965 0.1726
vn -0.1794 0.1794 0.9673
vn -0.1794 0.9673 0.1794
vn -0.9673 0.1794 0.1794
vn -0.1726 0.6965 0.6965
vn -0.5773 0.5774 0.5774
vn -0.6965 0.6965 0.1726
vn -0.6965 0.1726 0.6965
vn -0.1794 -0.9673 -0.1794
vn -0.9673 -0.1794 -0.1794
vn -0.1794 -0.1794 -0.9673
vn -0.6965 -0.6965 -0.1726
vn -0.5774 -0.5774 -0.5773
vn -0.6965 -0.1726 -0.6965
vn -0.1726 -0.6965 -0.6965
vn -0.1794 0.9673 -0.1794
vn -0.1794 0.1794 -0.9673
vn -0.9673 0.1794 -0.1794
vn -0.1726 0.6965 -0.6965
vn -0.5773 0.5774 -0.5773
vn -0.6965 0.1726 -0.6965
vn -0.6965 0.6965 -0.1726
vn 0.1794 -0.9673 0.1794
vn 0.9673 -0.1794 0.1794
vn 0.1794 -0.1794 0.9673
vn 0.6965 -0.6965 0.1726
vn 0.5774 -0.5773 0.5773
vn 0.6965 -0.1726 0.6965
vn 0.1726 -0.6965 0.6965
vn 0.1794 0.9673 0.1794
vn 0.1794 0.1794 0.9673
vn 0.9673 0.1794 0.1794
vn 0.1726 0.6965 0.6965
vn 0.5774 0.5773 0.5774
vn 0.6965 0.1726 0.6965
vn 0.6965 0.6965 0.1726
vn 0.1794 -0.9673 -0.1794
vn 0.1794 -0.1794 -0.9673
vn 0.9673 -0.1794 -0.1794
vn 0.1726 -0.6965 -0.6965
vn 0.5774 -0.5773 -0.5773
vn 0.6965 -0.1726 -0.6965
vn 0.6965 -0.6965 -0.1726
vn 0.1794 0.9673 -0.1794
vn 0.9673 0.1794 -0.1794
vn 0.1794 0.1794 -0.9673
vn 0.6965 0.6965 -0.1726
vn 0.5774 0.5773 -0.5773
vn 0.6965 0.1726 -0.6965
vn 0.1726 0.6965 -0.6965
vn -0.5773 -0.5773 0.5774
vn -0.5773 -0.5773 -0.5774
vn -0.5773 0.5774 -0.5774
vn 0.5774 0.5773 0.5773
vn -0.5774 -0.5774 0.5773
vn -0.5773 0.5774 0.5773
vn 0.5773 0.5774 0.5774
vn 0.5773 0.5774 -0.5774
vn -0.5773 -0.5774 0.5774
vn -0.5773 -0.5774 -0.5774
vn 0.5774 -0.5774 0.5773
vn 0.5774 0.5774 0.5773
vn 0.5774 -0.5774 -0.5773
vn 0.5774 0.5774 -0.5773
vn -0.5773 -0.5774 0.5773
vn -0.5773 -0.5774 -0.5773
vn 0.5773 -0.5774 0.5774
vn 0.5773 -0.5774 -0.5774
vn 0.5773 0.5774 -0.5773
vn 0.5773 0.5774 0.5773
vn -0.5774 0.5774 0.5773
vn -0.5774 0.5774 -0.5773
vn 0.5773 -0.5774 -0.5773
vn -0.1725 0.6965 0.6965
vn -0.1725 0.6965 -0.6965
vn 0.5773 -0.5774 0.5773
vn 0.1725 0.6965 0.6965
vt 0.705300 0.355660
vt 0.708813 0.355660
vt 0.708813 0.356831
vt 0.705300 0.357689
vt 0.507453 0.256793
vt 0.503164 0.256793
vt 0.503164 0.254393
vt 0.507453 0.252637
vt 0.507401 0.353090
vt 0.507401 0.357246
vt 0.504924 0.357246
vt 0.503111 0.353090
vt 0.507453 0.352841
vt 0.507453 0.356996
vt 0.504977 0.356996
vt 0.503164 0.352841
vt 0.705300 0.355278
vt 0.708813 0.355279
vt 0.708813 0.356450
vt 0.705300 0.357307
vt 0.507401 0.257042
vt 0.503111 0.257042
vt 0.503111 0.254643
vt 0.507401 0.252887
vt 0.526798 0.355660
vt 0.526798 0.357689
vt 0.524770 0.357689
vt 0.523285 0.355660
vt 0.725369 0.353090
vt 0.729659 0.353090
vt 0.729659 0.355490
vt 0.725369 0.357246
vt 0.506208 0.353292
vt 0.506208 0.357448
vt 0.503732 0.357448
vt 0.501919 0.353292
vt 0.705300 0.252206
vt 0.705301 0.250177
vt 0.707329 0.250177
vt 0.708813 0.252206
vt 0.506208 0.257244
vt 0.501919 0.257244
vt 0.501919 0.254845
vt 0.506208 0.253088
vt 0.725369 0.257042
vt 0.725369 0.252887
vt 0.727846 0.252887
vt 0.729658 0.257042
vt 0.705300 0.252587
vt 0.705301 0.250559
vt 0.707329 0.250559
vt 0.708813 0.252587
vt 0.506208 0.256840
vt 0.501919 0.256840
vt 0.501919 0.254441
vt 0.506208 0.252685
vt 0.725421 0.256793
vt 0.725421 0.252637
vt 0.727898 0.252637
vt 0.729711 0.256793
vt 0.526798 0.355278
vt 0.526798 0.357307
vt 0.524770 0.357307
vt 0.523286 0.355279
vt 0.725421 0.352841
vt 0.729711 0.352841
vt 0.729711 0.355240
vt 0.725421 0.356996
vt 0.506208 0.352889
vt 0.506208 0.357044
vt 0.503732 0.357044
vt 0.501919 0.352889
vt 0.526798 0.252587
vt 0.523286 0.252587
vt 0.523286 0.251416
vt 0.526798 0.250559
vt 0.724177 0.353292
vt 0.728466 0.353292
vt 0.728466 0.355691
vt 0.724177 0.357448
vt 0.724176 0.256840
vt 0.724176 0.252685
vt 0.726653 0.252685
vt 0.728466 0.256840
vt 0.526798 0.252206
vt 0.523286 0.252206
vt 0.523286 0.251035
vt 0.526798 0.250177
vt 0.724176 0.352889
vt 0.728466 0.352889
vt 0.728466 0.355288
vt 0.724176 0.357044
vt 0.724177 0.257244
vt 0.724176 0.253088
vt 0.726653 0.253088
vt 0.728466 0.257244
vt 0.802333 0.634593
vt 0.802333 0.630916
vt 0.805011 0.630916
vt 0.806971 0.634593
vt 0.677043 0.637023
vt 0.672405 0.637023
vt 0.672405 0.634484
vt 0.677043 0.632625
vt 0.801746 0.635650
vt 0.801746 0.631251
vt 0.804424 0.631251
vt 0.806384 0.635650
vt 0.677043 0.732586
vt 0.677043 0.736984
vt 0.674366 0.736984
vt 0.672405 0.732586
vt 0.676280 0.732241
vt 0.676280 0.735868
vt 0.673602 0.735868
vt 0.671642 0.732241
vt 0.801746 0.731212
vt 0.806384 0.731212
vt 0.806384 0.733752
vt 0.801746 0.735611
vt 0.802333 0.734341
vt 0.806971 0.734340
vt 0.806971 0.736464
vt 0.802333 0.738018
vt 0.675954 0.635650
vt 0.671316 0.635650
vt 0.671316 0.633110
vt 0.675954 0.631251
vt 0.675868 0.731279
vt 0.675868 0.735678
vt 0.673190 0.735678
vt 0.671229 0.731279
vt 0.802072 0.732241
vt 0.806710 0.732241
vt 0.806710 0.734335
vt 0.802072 0.735868
vt 0.675868 0.635717
vt 0.671229 0.635717
vt 0.671229 0.633177
vt 0.675868 0.631318
vt 0.675954 0.731212
vt 0.675954 0.735611
vt 0.673276 0.735611
vt 0.671316 0.731212
vt 0.676541 0.634593
vt 0.671903 0.634593
vt 0.671903 0.632470
vt 0.676541 0.630916
vt 0.801659 0.732774
vt 0.806297 0.732774
vt 0.806297 0.735313
vt 0.801659 0.737172
vt 0.802835 0.637023
vt 0.802835 0.632625
vt 0.805513 0.632625
vt 0.807473 0.637023
vt 0.676280 0.633882
vt 0.671642 0.633882
vt 0.671642 0.631788
vt 0.676280 0.630255
vt 0.802835 0.732586
vt 0.807473 0.732586
vt 0.807473 0.735125
vt 0.802835 0.736984
vt 0.801659 0.637211
vt 0.801659 0.632813
vt 0.804337 0.632813
vt 0.806298 0.637211
vt 0.676541 0.734341
vt 0.676541 0.738018
vt 0.673863 0.738018
vt 0.671903 0.734340
vt 0.801659 0.731279
vt 0.806297 0.731279
vt 0.806297 0.733819
vt 0.801659 0.735678
vt 0.675868 0.732774
vt 0.675868 0.737172
vt 0.673190 0.737172
vt 0.671229 0.732774
vt 0.802072 0.633882
vt 0.802072 0.630255
vt 0.804749 0.630255
vt 0.806710 0.633882
vt 0.675868 0.637211
vt 0.671229 0.637211
vt 0.671229 0.634672
vt 0.675868 0.632813
vt 0.801659 0.635717
vt 0.801659 0.631318
vt 0.804337 0.631318
vt 0.806297 0.635717
vt 0.507453 0.256793
vt 0.503164 0.256793
vt 0.507401 0.353090
vt 0.503164 0.352841
vt 0.507401 0.257042
vt 0.503111 0.257042
vt 0.503111 0.254643
vt 0.725369 0.353090
vt 0.506208 0.353292
vt 0.501919 0.257244
vt 0.501919 0.254845
vt 0.729659 0.257042
vt 0.506208 0.256840
vt 0.725421 0.256793
vt 0.729711 0.352841
vt 0.729711 0.355240
vt 0.501919 0.352889
vt 0.724176 0.353292
vt 0.724176 0.256840
vt 0.728466 0.352889
vt 0.728466 0.355288
vt 0.728466 0.257244
vt 0.672405 0.637023
vt 0.801746 0.635650
vt 0.806384 0.635650
vt 0.677043 0.732586
vt 0.672405 0.732586
vt 0.801746 0.731212
vt 0.806384 0.733752
vt 0.675954 0.635650
vt 0.671316 0.635650
vt 0.675868 0.635717
vt 0.671229 0.633177
vt 0.675954 0.731212
vt 0.806297 0.732774
vt 0.802835 0.637023
vt 0.807473 0.637023
vt 0.802835 0.732586
vt 0.807473 0.732586
vt 0.675868 0.732774
vt 0.671229 0.732774
vt 0.675868 0.637211
vt 0.671229 0.637211
vt 0.671229 0.634672
vt 0.801659 0.635717
vt 0.806297 0.635717
vt 0.503164 0.256792
vt 0.503164 0.254393
vt 0.503111 0.353091
vt 0.503164 0.352841
vt 0.503111 0.257042
vt 0.503111 0.254643
vt 0.729659 0.353091
vt 0.729659 0.355490
vt 0.501919 0.353292
vt 0.501919 0.257244
vt 0.501919 0.254845
vt 0.729659 0.257042
vt 0.501919 0.256840
vt 0.501919 0.254441
vt 0.729711 0.256793
vt 0.729711 0.352841
vt 0.729711 0.355240
vt 0.501919 0.352889
vt 0.728466 0.353292
vt 0.728466 0.355692
vt 0.728466 0.256840
vt 0.728466 0.352889
vt 0.728466 0.355288
vt 0.728466 0.257244
vt 0.672405 0.637023
vt 0.806384 0.635650
vt 0.677043 0.732586
vt 0.672405 0.732586
vt 0.806384 0.731212
vt 0.806384 0.733752
vt 0.671316 0.635650
vt 0.671316 0.633110
vt 0.675868 0.731279
vt 0.671230 0.731279
vt 0.675868 0.635717
vt 0.671229 0.633177
vt 0.671316 0.731212
vt 0.806297 0.735313
vt 0.802835 0.637023
vt 0.802835 0.732586
vt 0.807473 0.732586
vt 0.806297 0.731279
vt 0.806297 0.733819
vt 0.671230 0.732774
vt 0.671229 0.637211
vt 0.671229 0.634672
vt 0.801659 0.635717
vt 0.503164 0.254393
vt 0.507453 0.352841
vt 0.503164 0.352841
vt 0.503111 0.254643
vt 0.729659 0.353090
vt 0.501919 0.353292
vt 0.501919 0.254845
vt 0.729659 0.257042
vt 0.501919 0.254441
vt 0.729711 0.256793
vt 0.725421 0.352841
vt 0.729711 0.352841
vt 0.506208 0.352889
vt 0.501919 0.352889
vt 0.724176 0.353292
vt 0.728466 0.353292
vt 0.724176 0.352889
vt 0.728466 0.352889
vt 0.724177 0.257244
vt 0.728466 0.257244
vt 0.506208 0.257244
vt 0.506208 0.256840
vt 0.506208 0.352889
vt 0.724176 0.256840
vt 0.724176 0.352889
vt 0.672405 0.634484
vt 0.807473 0.735125
vt 0.671229 0.732774
s 1
usemtl wall
f 1/1/1 4/2/4 5/3/5 7/4/7
f 2/5/2 6/6/6 5/7/5 4/8/4
f 3/9/3 7/10/7 5/11/5 6/12/6
f 8/13/8 11/14/11 12/15/12 14/16/14
f 9/17/9 13/18/13 12/19/12 11/20/11
f 10/21/10 14/22/14 12/23/12 13/24/13
f 15/25/15 18/26/18 19/27/19 21/28/21
f 16/29/16 20/30/20 19/31/19 18/32/18
f 17/33/17 21/34/21 19/35/19 20/36/20
f 22/37/22 25/38/25 26/39/26 28/40/28
f 23/41/23 27/42/27 26/43/26 25/44/25
f 24/45/24 28/46/28 26/47/26 27/48/27
f 29/49/29 32/50/32 33/51/33 35/52/35
f 30/53/30 34/54/34 33/55/33 32/56/32
f 31/57/31 35/58/35 33/59/33 34/60/34
f 36/61/36 39/62/39 40/63/40 42/64/42
f 37/65/37 41/66/41 40/67/40 39/68/39
f 38/69/38 42/70/42 40/71/40 41/72/41
f 43/73/43 46/74/46 47/75/47 49/76/49
f 44/77/44 48/78/48 47/79/47 46/80/46
f 45/81/45 49/82/49 47/83/47 48/84/48
f 50/85/50 53/86/53 54/87/54 56/88/56
f 51/89/51 55/90/55 54/91/54 53/92/53
f 52/93/52 56/94/56 54/95/54 55/96/55
f 57/97/1 60/98/4 61/99/57 63/100/7
f 58/101/2 62/102/6 61/103/57 60/104/4
f 59/105/3 63/106/7 61/107/57 62/108/6
f 64/109/8 67/110/11 68/111/12 70/112/14
f 65/113/9 69/114/13 68/115/12 67/116/11
f 66/117/10 70/118/14 68/119/12 69/120/13
f 71/121/15 74/122/18 75/123/58 77/124/21
f 72/125/16 76/126/20 75/127/58 74/128/18
f 73/129/17 77/130/21 75/131/58 76/132/20
f 78/133/22 81/134/25 82/135/59 84/136/28
f 79/137/23 83/138/27 82/139/59 81/140/25
f 80/141/24 84/142/28 82/143/59 83/144/27
f 85/145/29 88/146/32 89/147/33 91/148/35
f 86/149/30 90/150/34 89/151/33 88/152/32
f 87/153/31 91/154/35 89/155/33 90/156/34
f 92/157/36 95/158/39 96/159/60 98/160/42
f 93/161/37 97/162/41 96/163/60 95/164/39
f 94/165/38 98/166/42 96/167/60 97/168/41
f 99/169/43 102/170/46 103/171/47 105/172/49
f 100/173/44 104/174/48 103/175/47 102/176/46
f 101/177/45 105/178/49 103/179/47 104/180/48
f 106/181/50 109/182/53 110/183/54 112/184/56
f 107/185/51 111/186/55 110/187/54 109/188/53
f 108/189/52 112/190/56 110/191/54 111/192/55
f 113/1/1 116/2/4 117/3/61 119/4/7
f 114/193/2 118/194/6 117/7/61 116/8/4
f 115/195/3 119/10/7 117/11/61 118/12/6
f 120/13/8 123/14/11 124/15/62 126/196/14
f 121/17/9 125/18/13 124/19/62 123/20/11
f 122/197/10 126/198/14 124/199/62 125/24/13
f 127/25/15 130/26/18 131/27/19 133/28/21
f 128/200/16 132/30/20 131/31/19 130/32/18
f 129/201/17 133/34/21 131/35/19 132/36/20
f 134/37/22 137/38/25 138/39/26 140/40/28
f 135/41/23 139/202/27 138/203/26 137/44/25
f 136/45/24 140/46/28 138/47/26 139/204/27
f 141/49/29 144/50/32 145/51/33 147/52/35
f 142/205/30 146/54/34 145/55/33 144/56/32
f 143/206/31 147/58/35 145/59/33 146/60/34
f 148/61/36 151/62/39 152/63/63 154/64/42
f 149/65/37 153/207/41 152/208/63 151/68/39
f 150/69/38 154/70/42 152/71/63 153/209/41
f 155/73/43 158/74/46 159/75/47 161/76/49
f 156/210/44 160/78/48 159/79/47 158/80/46
f 157/211/45 161/82/49 159/83/47 160/84/48
f 162/85/50 165/86/53 166/87/64 168/88/56
f 163/89/51 167/212/55 166/213/64 165/92/53
f 164/93/52 168/94/56 166/95/64 167/214/55
f 169/97/1 172/98/4 173/99/65 175/100/7
f 170/101/2 174/215/6 173/103/65 172/104/4
f 171/216/3 175/106/7 173/107/65 174/217/6
f 176/218/8 179/110/11 180/111/12 182/219/14
f 177/113/9 181/114/13 180/115/12 179/116/11
f 178/220/10 182/118/14 180/221/12 181/120/13
f 183/121/15 186/122/18 187/123/66 189/124/21
f 184/222/16 188/223/20 187/127/66 186/128/18
f 185/129/17 189/130/21 187/131/66 188/132/20
f 190/133/22 193/134/25 194/135/59 196/136/28
f 191/224/23 195/138/27 194/225/59 193/140/25
f 192/226/24 196/142/28 194/143/59 195/144/27
f 197/145/29 200/146/32 201/147/67 203/148/35
f 198/149/30 202/227/34 201/151/67 200/152/32
f 199/228/31 203/154/35 201/155/67 202/229/34
f 204/157/36 207/158/39 208/159/68 210/160/42
f 205/230/37 209/231/41 208/163/68 207/164/39
f 206/165/38 210/166/42 208/167/68 209/168/41
f 211/169/43 214/170/46 215/171/69 217/172/49
f 212/173/44 216/174/48 215/175/69 214/176/46
f 213/232/45 217/178/49 215/179/69 216/233/48
f 218/181/50 221/182/53 222/183/70 224/184/56
f 219/234/51 223/235/55 222/236/70 221/188/53
f 220/237/52 224/190/56 222/191/70 223/238/55
f 225/1/1 228/2/4 229/3/71 231/4/7
f 226/193/2 230/239/6 229/240/71 228/8/4
f 227/195/3 231/10/7 229/11/71 230/241/6
f 232/13/8 235/14/11 236/15/12 238/242/14
f 233/17/9 237/18/13 236/19/12 235/20/11
f 234/197/10 238/243/14 236/244/12 237/24/13
f 239/25/15 242/26/18 243/27/72 245/28/21
f 240/200/16 244/245/20 243/246/72 242/32/18
f 241/201/17 245/34/21 243/35/72 244/247/20
f 246/37/22 249/38/25 250/39/26 252/40/28
f 247/41/23 251/248/27 250/249/26 249/44/25
f 248/45/24 252/46/28 250/47/26 251/250/27
f 253/49/29 256/50/32 257/51/73 259/52/35
f 254/205/30 258/251/34 257/252/73 256/56/32
f 255/206/31 259/58/35 257/59/73 258/253/34
f 260/61/36 263/62/39 264/63/68 266/64/42
f 261/65/37 265/254/41 264/255/68 263/68/39
f 262/69/38 266/70/42 264/71/68 265/256/41
f 267/73/43 270/74/46 271/75/74 273/76/49
f 268/210/44 272/257/48 271/258/74 270/80/46
f 269/211/45 273/82/49 271/83/74 272/259/48
f 274/85/50 277/86/53 278/87/75 280/88/56
f 275/89/51 279/260/55 278/261/75 277/92/53
f 276/93/52 280/94/56 278/95/75 279/262/55
f 281/97/1 284/98/4 285/99/61 287/100/7
f 282/101/2 286/263/6 285/103/61 284/104/4
f 283/216/3 287/106/7 285/107/61 286/264/6
f 288/265/8 291/110/11 292/111/12 294/266/14
f 289/113/9 293/114/13 292/115/12 291/116/11
f 290/220/10 294/267/14 292/268/12 293/120/13
f 295/121/15 298/122/18 299/123/19 301/124/21
f 296/125/16 300/269/20 299/270/19 298/128/18
f 297/271/17 301/130/21 299/131/19 300/272/20
f 302/133/22 305/134/25 306/135/59 308/136/28
f 303/273/23 307/138/27 306/274/59 305/140/25
f 304/226/24 308/142/28 306/143/59 307/275/27
f 309/145/29 312/146/32 313/147/67 315/148/35
f 310/149/30 314/150/34 313/276/67 312/152/32
f 311/277/31 315/154/35 313/155/67 314/156/34
f 316/157/36 319/158/39 320/159/76 322/160/42
f 317/278/37 321/279/41 320/163/76 319/164/39
f 318/165/38 322/166/42 320/167/76 321/168/41
f 323/169/43 326/170/46 327/171/69 329/172/49
f 324/173/44 328/280/48 327/281/69 326/176/46
f 325/232/45 329/178/49 327/179/69 328/282/48
f 330/181/50 333/182/53 334/183/75 336/184/56
f 331/234/51 335/283/55 334/284/75 333/188/53
f 332/285/52 336/190/56 334/191/75 335/238/55
f 337/1/1 340/2/4 341/3/71 343/4/7
f 338/193/2 342/194/6 341/286/71 340/8/4
f 339/195/3 343/10/7 341/11/71 342/12/6
f 344/287/8 347/14/11 348/15/77 350/288/14
f 345/17/9 349/18/13 348/19/77 347/20/11
f 346/21/10 350/22/14 348/289/77 349/24/13
f 351/25/15 354/26/18 355/27/72 357/28/21
f 352/200/16 356/290/20 355/31/72 354/32/18
f 353/201/17 357/34/21 355/35/72 356/291/20
f 358/37/22 361/38/25 362/39/78 364/40/28
f 359/41/23 363/42/27 362/292/78 361/44/25
f 360/45/24 364/46/28 362/47/78 363/293/27
f 365/49/29 368/50/32 369/51/67 371/52/35
f 366/205/30 370/54/34 369/294/67 368/56/32
f 367/206/31 371/58/35 369/59/67 370/295/34
f 372/61/36 375/62/39 376/63/68 378/64/42
f 373/296/37 377/297/41 376/67/68 375/68/39
f 374/298/38 378/70/42 376/71/68 377/299/41
f 379/73/43 382/74/46 383/75/79 385/76/49
f 380/300/44 384/301/48 383/79/79 382/80/46
f 381/81/45 385/82/49 383/83/79 384/84/48
f 386/85/50 389/86/53 390/87/70 392/88/56
f 387/302/51 391/303/55 390/91/70 389/92/53
f 388/304/52 392/94/56 390/95/70 391/305/55
f 393/97/1 396/98/4 397/99/65 399/100/7
f 394/101/2 398/263/6 397/103/65 396/104/4
f 395/216/3 399/106/7 397/107/65 398/264/6
f 400/265/8 403/110/11 404/111/62 406/266/14
f 401/113/9 405/114/13 404/115/62 403/116/11
f 402/220/10 406/267/14 404/268/62 405/120/13
f 407/121/15 410/122/18 411/123/66 413/124/21
f 408/125/16 412/269/20 411/270/66 410/128/18
f 409/271/17 413/130/21 411/131/66 412/272/20
f 414/133/22 417/134/25 418/135/59 420/136/28
f 415/273/23 419/138/27 418/274/59 417/140/25
f 416/226/24 420/142/28 418/143/59 419/275/27
f 421/145/29 424/146/32 425/147/67 427/148/35
f 422/149/30 426/150/34 425/276/67 424/152/32
f 423/277/31 427/154/35 425/155/67 426/156/34
f 428/157/36 431/158/39 432/159/68 434/160/42
f 429/278/37 433/279/41 432/163/68 431/164/39
f 430/165/38 434/166/42 432/167/68 433/168/41
f 435/169/43 438/170/46 439/171/69 441/172/49
f 436/173/44 440/280/48 439/281/69 438/176/46
f 437/232/45 441/178/49 439/179/69 440/282/48
f 442/181/50 445/182/53 446/183/70 448/184/56
f 443/234/51 447/283/55 446/284/70 445/188/53
f 444/285/52 448/190/56 446/191/70 447/238/55
f 449/1/1 452/2/4 453/3/61 455/4/7
f 450/193/2 454/194/6 453/286/61 452/8/4
f 451/195/3 455/10/7 453/11/61 454/12/6
f 456/13/8 459/14/11 460/15/77 462/16/14
f 457/17/9 461/18/13 460/19/77 459/20/11
f 458/21/10 462/22/14 460/289/77 461/24/13
f 463/25/15 466/26/18 467/27/72 469/28/21
f 464/200/16 468/290/20 467/31/72 466/32/18
f 465/201/17 469/34/21 467/35/72 468/36/20
f 470/37/22 473/38/25 474/39/26 476/40/28
f 471/306/23 475/42/27 474/292/26 473/44/25
f 472/45/24 476/46/28 474/47/26 475/293/27
f 477/49/29 480/50/32 481/51/67 483/52/35
f 478/307/30 482/54/34 481/294/67 480/56/32
f 479/206/31 483/58/35 481/59/67 482/295/34
f 484/61/36 487/62/39 488/63/60 490/64/42
f 485/65/37 489/297/41 488/67/60 487/68/39
f 486/308/38 490/70/42 488/71/60 489/72/41
f 491/73/43 494/74/46 495/75/69 497/76/49
f 492/210/44 496/301/48 495/79/69 494/80/46
f 493/309/45 497/82/49 495/83/69 496/84/48
f 498/85/50 501/86/53 502/87/70 504/88/56
f 499/310/51 503/303/55 502/91/70 501/92/53
f 500/304/52 504/94/56 502/95/70 503/305/55
f 505/97/1 508/98/4 509/99/65 511/100/7
f 506/101/2 510/102/6 509/311/65 508/104/4
f 507/216/3 511/106/7 509/107/65 510/108/6
f 512/265/8 515/110/80 516/111/12 518/112/14
f 513/113/9 517/114/13 516/115/12 515/116/80
f 514/220/10 518/118/14 516/119/12 517/120/13
f 519/121/15 522/122/18 523/123/66 525/124/21
f 520/125/16 524/223/20 523/127/66 522/128/18
f 521/271/17 525/130/21 523/131/66 524/132/20
f 526/133/22 529/134/81 530/135/59 532/136/28
f 527/273/23 531/138/27 530/139/59 529/140/81
f 528/226/24 532/142/28 530/143/59 531/144/27
f 533/145/29 536/146/32 537/147/82 539/148/35
f 534/149/30 538/227/34 537/151/82 536/152/32
f 535/277/31 539/154/35 537/155/82 538/229/34
f 540/157/36 543/158/83 544/159/76 546/160/42
f 541/278/37 545/231/41 544/312/76 543/164/83
f 542/165/38 546/166/42 544/167/76 545/168/41
f 547/169/43 550/170/46 551/171/79 553/172/49
f 548/173/44 552/174/48 551/175/79 550/176/46
f 549/232/45 553/178/49 551/179/79 552/313/48
f 554/181/50 557/182/53 558/183/75 560/184/56
f 555/234/51 559/235/55 558/236/75 557/188/53
f 556/285/52 560/190/56 558/191/75 559/238/55
f 15/25/15 1/1/1 7/4/7 18/26/18
f 18/32/18 7/10/7 3/9/3 16/29/16
f 2/5/2 8/13/8 14/16/14 6/6/6
f 6/12/6 14/22/14 10/21/10 3/9/3
f 9/17/9 22/37/22 28/40/28 13/18/13
f 13/24/13 28/46/28 24/45/24 10/21/10
f 23/41/23 17/33/17 20/36/20 27/42/27
f 27/48/27 20/30/20 16/29/16 24/45/24
f 43/73/43 15/25/15 21/28/21 46/74/46
f 46/80/46 21/34/21 17/33/17 44/77/44
f 22/37/22 50/85/50 56/88/56 25/38/25
f 25/44/25 56/94/56 52/93/52 23/41/23
f 51/89/51 45/81/45 48/84/48 55/90/55
f 55/96/55 48/78/48 44/77/44 52/93/52
f 29/49/29 43/73/43 49/76/49 32/50/32
f 32/56/32 49/82/49 45/81/45 30/53/30
f 50/85/50 36/61/36 42/64/42 53/86/53
f 53/92/53 42/70/42 38/69/38 51/89/51
f 37/65/37 31/57/31 34/60/34 41/66/41
f 41/72/41 34/54/34 30/53/30 38/69/38
f 1/1/1 29/49/29 35/52/35 4/2/4
f 4/8/4 35/58/35 31/57/31 2/5/2
f 36/61/36 9/17/9 11/20/11 39/62/39
f 39/68/39 11/14/11 8/13/8 37/65/37
f 71/121/15 57/97/1 63/100/7 74/122/18
f 74/128/18 63/106/7 59/105/3 72/125/16
f 58/101/2 64/109/8 70/112/14 62/102/6
f 62/108/6 70/118/14 66/117/10 59/105/3
f 65/113/9 78/133/22 84/136/28 69/114/13
f 69/120/13 84/142/28 80/141/24 66/117/10
f 79/137/23 73/129/17 76/132/20 83/138/27
f 83/144/27 76/126/20 72/125/16 80/141/24
f 99/169/43 71/121/15 77/124/21 102/170/46
f 102/176/46 77/130/21 73/129/17 100/173/44
f 78/133/22 106/181/50 112/184/56 81/134/25
f 81/140/25 112/190/56 108/189/52 79/137/23
f 107/185/51 101/177/45 104/180/48 111/186/55
f 111/192/55 104/174/48 100/173/44 108/189/52
f 85/145/29 99/169/43 105/172/49 88/146/32
f 88/152/32 105/178/49 101/177/45 86/149/30
f 106/181/50 92/157/36 98/160/42 109/182/53
f 109/188/53 98/166/42 94/165/38 107/185/51
f 93/161/37 87/153/31 90/156/34 97/162/41
f 97/168/41 90/150/34 86/149/30 94/165/38
f 57/97/1 85/145/29 91/148/35 60/98/4
f 60/104/4 91/154/35 87/153/31 58/101/2
f 92/157/36 65/113/9 67/116/11 95/158/39
f 95/164/39 67/110/11 64/109/8 93/161/37
f 127/25/15 113/1/1 119/4/7 130/26/18
f 130/32/18 119/10/7 115/195/3 128/200/16
f 114/193/2 120/13/8 126/196/14 118/194/6
f 118/12/6 126/198/14 122/197/10 115/195/3
f 121/17/9 134/37/22 140/40/28 125/18/13
f 125/24/13 140/46/28 136/45/24 122/197/10
f 135/41/23 129/201/17 132/36/20 139/202/27
f 139/204/27 132/30/20 128/200/16 136/45/24
f 155/73/43 127/25/15 133/28/21 158/74/46
f 158/80/46 133/34/21 129/201/17 156/210/44
f 134/37/22 162/85/50 168/88/56 137/38/25
f 137/44/25 168/94/56 164/93/52 135/41/23
f 163/89/51 157/211/45 160/84/48 167/212/55
f 167/214/55 160/78/48 156/210/44 164/93/52
f 141/49/29 155/73/43 161/76/49 144/50/32
f 144/56/32 161/82/49 157/211/45 142/205/30
f 162/85/50 148/61/36 154/64/42 165/86/53
f 165/92/53 154/70/42 150/69/38 163/89/51
f 149/65/37 143/206/31 146/60/34 153/207/41
f 153/209/41 146/54/34 142/205/30 150/69/38
f 113/1/1 141/49/29 147/52/35 116/2/4
f 116/8/4 147/58/35 143/206/31 114/193/2
f 148/61/36 121/17/9 123/20/11 151/62/39
f 151/68/39 123/14/11 120/13/8 149/65/37
f 183/121/15 169/97/1 175/100/7 186/122/18
f 186/128/18 175/106/7 171/216/3 184/222/16
f 170/101/2 176/218/8 182/219/14 174/215/6
f 174/217/6 182/118/14 178/220/10 171/216/3
f 177/113/9 190/133/22 196/136/28 181/114/13
f 181/120/13 196/142/28 192/226/24 178/220/10
f 191/224/23 185/129/17 188/132/20 195/138/27
f 195/144/27 188/223/20 184/222/16 192/226/24
f 211/169/43 183/121/15 189/124/21 214/170/46
f 214/176/46 189/130/21 185/129/17 212/173/44
f 190/133/22 218/181/50 224/184/56 193/134/25
f 193/140/25 224/190/56 220/237/52 191/224/23
f 219/234/51 213/232/45 216/233/48 223/235/55
f 223/238/55 216/174/48 212/173/44 220/237/52
f 197/145/29 211/169/43 217/172/49 200/146/32
f 200/152/32 217/178/49 213/232/45 198/149/30
f 218/181/50 204/157/36 210/160/42 221/182/53
f 221/188/53 210/166/42 206/165/38 219/234/51
f 205/230/37 199/228/31 202/229/34 209/231/41
f 209/168/41 202/227/34 198/149/30 206/165/38
f 169/97/1 197/145/29 203/148/35 172/98/4
f 172/104/4 203/154/35 199/228/31 170/101/2
f 204/157/36 177/113/9 179/116/11 207/158/39
f 207/164/39 179/110/11 176/218/8 205/230/37
f 239/25/15 225/1/1 231/4/7 242/26/18
f 242/32/18 231/10/7 227/195/3 240/200/16
f 226/193/2 232/13/8 238/242/14 230/239/6
f 230/241/6 238/243/14 234/197/10 227/195/3
f 233/17/9 246/37/22 252/40/28 237/18/13
f 237/24/13 252/46/28 248/45/24 234/197/10
f 247/41/23 241/201/17 244/247/20 251/248/27
f 251/250/27 244/245/20 240/200/16 248/45/24
f 267/73/43 239/25/15 245/28/21 270/74/46
f 270/80/46 245/34/21 241/201/17 268/210/44
f 246/37/22 274/85/50 280/88/56 249/38/25
f 249/44/25 280/94/56 276/93/52 247/41/23
f 275/89/51 269/211/45 272/259/48 279/260/55
f 279/262/55 272/257/48 268/210/44 276/93/52
f 253/49/29 267/73/43 273/76/49 256/50/32
f 256/56/32 273/82/49 269/211/45 254/205/30
f 274/85/50 260/61/36 266/64/42 277/86/53
f 277/92/53 266/70/42 262/69/38 275/89/51
f 261/65/37 255/206/31 258/253/34 265/254/41
f 265/256/41 258/251/34 254/205/30 262/69/38
f 225/1/1 253/49/29 259/52/35 228/2/4
f 228/8/4 259/58/35 255/206/31 226/193/2
f 260/61/36 233/17/9 235/20/11 263/62/39
f 263/68/39 235/14/11 232/13/8 261/65/37
f 295/121/15 281/97/1 287/100/7 298/122/18
f 298/128/18 287/106/7 283/216/3 296/125/16
f 282/101/2 288/265/8 294/266/14 286/263/6
f 286/264/6 294/267/14 290/220/10 283/216/3
f 289/113/9 302/133/22 308/136/28 293/114/13
f 293/120/13 308/142/28 304/226/24 290/220/10
f 303/273/23 297/271/17 300/272/20 307/138/27
f 307/275/27 300/269/20 296/125/16 304/226/24
f 323/169/43 295/121/15 301/124/21 326/170/46
f 326/176/46 301/130/21 297/271/17 324/173/44
f 302/133/22 330/181/50 336/184/56 305/134/25
f 305/140/25 336/190/56 332/285/52 303/273/23
f 331/234/51 325/232/45 328/282/48 335/283/55
f 335/238/55 328/280/48 324/173/44 332/285/52
f 309/145/29 323/169/43 329/172/49 312/146/32
f 312/152/32 329/178/49 325/232/45 310/149/30
f 330/181/50 316/157/36 322/160/42 333/182/53
f 333/188/53 322/166/42 318/165/38 331/234/51
f 317/278/37 311/277/31 314/156/34 321/279/41
f 321/168/41 314/150/34 310/149/30 318/165/38
f 281/97/1 309/145/29 315/148/35 284/98/4
f 284/104/4 315/154/35 311/277/31 282/101/2
f 316/157/36 289/113/9 291/116/11 319/158/39
f 319/164/39 291/110/11 288/265/8 317/278/37
f 351/25/15 337/1/1 343/4/7 354/26/18
f 354/32/18 343/10/7 339/195/3 352/200/16
f 338/193/2 344/287/8 350/288/14 342/194/6
f 342/12/6 350/22/14 346/21/10 339/195/3
f 345/17/9 358/37/22 364/40/28 349/18/13
f 349/24/13 364/46/28 360/45/24 346/21/10
f 359/41/23 353/201/17 356/291/20 363/42/27
f 363/293/27 356/290/20 352/200/16 360/45/24
f 379/73/43 351/25/15 357/28/21 382/74/46
f 382/80/46 357/34/21 353/201/17 380/300/44
f 358/37/22 386/85/50 392/88/56 361/38/25
f 361/44/25 392/94/56 388/304/52 359/41/23
f 387/302/51 381/81/45 384/84/48 391/303/55
f 391/305/55 384/301/48 380/300/44 388/304/52
f 365/49/29 379/73/43 385/76/49 368/50/32
f 368/56/32 385/82/49 381/81/45 366/205/30
f 386/85/50 372/61/36 378/64/42 389/86/53
f 389/92/53 378/70/42 374/298/38 387/302/51
f 373/296/37 367/206/31 370/295/34 377/297/41
f 377/299/41 370/54/34 366/205/30 374/298/38
f 337/1/1 365/49/29 371/52/35 340/2/4
f 340/8/4 371/58/35 367/206/31 338/193/2
f 372/61/36 345/17/9 347/20/11 375/62/39
f 375/68/39 347/14/11 344/287/8 373/296/37
f 407/121/15 393/97/1 399/100/7 410/122/18
f 410/128/18 399/106/7 395/216/3 408/125/16
f 394/101/2 400/265/8 406/266/14 398/263/6
f 398/264/6 406/267/14 402/220/10 395/216/3
f 401/113/9 414/133/22 420/136/28 405/114/13
f 405/120/13 420/142/28 416/226/24 402/220/10
f 415/273/23 409/271/17 412/272/20 419/138/27
f 419/275/27 412/269/20 408/125/16 416/226/24
f 435/169/43 407/121/15 413/124/21 438/170/46
f 438/176/46 413/130/21 409/271/17 436/173/44
f 414/133/22 442/181/50 448/184/56 417/134/25
f 417/140/25 448/190/56 444/285/52 415/273/23
f 443/234/51 437/232/45 440/282/48 447/283/55
f 447/238/55 440/280/48 436/173/44 444/285/52
f 421/145/29 435/169/43 441/172/49 424/146/32
f 424/152/32 441/178/49 437/232/45 422/149/30
f 442/181/50 428/157/36 434/160/42 445/182/53
f 445/188/53 434/166/42 430/165/38 443/234/51
f 429/278/37 423/277/31 426/156/34 433/279/41
f 433/168/41 426/150/34 422/149/30 430/165/38
f 393/97/1 421/145/29 427/148/35 396/98/4
f 396/104/4 427/154/35 423/277/31 394/101/2
f 428/157/36 401/113/9 403/116/11 431/158/39
f 431/164/39 403/110/11 400/265/8 429/278/37
f 463/25/15 449/1/1 455/4/7 466/26/18
f 466/32/18 455/10/7 451/195/3 464/200/16
f 450/193/2 456/13/8 462/16/14 454/194/6
f 454/12/6 462/22/14 458/21/10 451/195/3
f 457/17/9 470/37/22 476/40/28 461/18/13
f 461/24/13 476/46/28 472/45/24 458/21/10
f 471/306/23 465/201/17 468/36/20 475/42/27
f 475/293/27 468/290/20 464/200/16 472/45/24
f 491/73/43 463/25/15 469/28/21 494/74/46
f 494/80/46 469/34/21 465/201/17 492/210/44
f 470/37/22 498/85/50 504/88/56 473/38/25
f 473/44/25 504/94/56 500/304/52 471/306/23
f 499/310/51 493/309/45 496/84/48 503/303/55
f 503/305/55 496/301/48 492/210/44 500/304/52
f 477/49/29 491/73/43 497/76/49 480/50/32
f 480/56/32 497/82/49 493/309/45 478/307/30
f 498/85/50 484/61/36 490/64/42 501/86/53
f 501/92/53 490/70/42 486/308/38 499/310/51
f 485/65/37 479/206/31 482/295/34 489/297/41
f 489/72/41 482/54/34 478/307/30 486/308/38
f 449/1/1 477/49/29 483/52/35 452/2/4
f 452/8/4 483/58/35 479/206/31 450/193/2
f 484/61/36 457/17/9 459/20/11 487/62/39
f 487/68/39 459/14/11 456/13/8 485/65/37
f 519/121/15 505/97/1 511/100/7 522/122/18
f 522/128/18 511/106/7 507/216/3 520/125/16
f 506/101/2 512/265/8 518/112/14 510/102/6
f 510/108/6 518/118/14 514/220/10 507/216/3
f 513/113/9 526/133/22 532/136/28 517/114/13
f 517/120/13 532/142/28 528/226/24 514/220/10
f 527/273/23 521/271/17 524/132/20 531/138/27
f 531/144/27 524/223/20 520/125/16 528/226/24
f 547/169/43 519/121/15 525/124/21 550/170/46
f 550/176/46 525/130/21 521/271/17 548/173/44
f 526/133/22 554/181/50 560/184/56 529/134/81
f 529/140/81 560/190/56 556/285/52 527/273/23
f 555/234/51 549/232/45 552/313/48 559/235/55
f 559/238/55 552/174/48 548/173/44 556/285/52
f 533/145/29 547/169/43 553/172/49 536/146/32
f 536/152/32 553/178/49 549/232/45 534/149/30
f 554/181/50 540/157/36 546/160/42 557/182/53
f 557/188/53 546/166/42 542/165/38 555/234/51
f 541/278/37 535/277/31 538/229/34 545/231/41
f 545/168/41 538/227/34 534/149/30 542/165/38
f 505/97/1 533/145/29 539/148/35 508/98/4
f 508/104/4 539/154/35 535/277/31 506/101/2
f 540/157/36 513/113/9 515/116/80 543/158/83
f 543/164/83 515/110/80 512/265/8 541/278/37
f 15/25/15 43/73/43 29/49/29 1/1/1
f 3/9/3 10/21/10 24/45/24 16/29/16
f 31/57/31 37/65/37 8/13/8 2/5/2
f 50/85/50 22/37/22 9/17/9 36/61/36
f 17/33/17 23/41/23 52/93/52 44/77/44
f 45/81/45 51/89/51 38/69/38 30/53/30
f 71/121/15 99/169/43 85/145/29 57/97/1
f 59/105/3 66/117/10 80/141/24 72/125/16
f 87/153/31 93/161/37 64/109/8 58/101/2
f 106/181/50 78/133/22 65/113/9 92/157/36
f 73/129/17 79/137/23 108/189/52 100/173/44
f 101/177/45 107/185/51 94/165/38 86/149/30
f 127/25/15 155/73/43 141/49/29 113/1/1
f 115/195/3 122/197/10 136/45/24 128/200/16
f 143/206/31 149/65/37 120/13/8 114/193/2
f 162/85/50 134/37/22 121/17/9 148/61/36
f 129/201/17 135/41/23 164/93/52 156/210/44
f 157/211/45 163/89/51 150/69/38 142/205/30
f 183/121/15 211/169/43 197/145/29 169/97/1
f 171/216/3 178/220/10 192/226/24 184/222/16
f 199/228/31 205/230/37 176/218/8 170/101/2
f 218/181/50 190/133/22 177/113/9 204/157/36
f 185/129/17 191/224/23 220/237/52 212/173/44
f 213/232/45 219/234/51 206/165/38 198/149/30
f 239/25/15 267/73/43 253/49/29 225/1/1
f 227/195/3 234/197/10 248/45/24 240/200/16
f 255/206/31 261/65/37 232/13/8 226/193/2
f 274/85/50 246/37/22 233/17/9 260/61/36
f 241/201/17 247/41/23 276/93/52 268/210/44
f 269/211/45 275/89/51 262/69/38 254/205/30
f 295/121/15 323/169/43 309/145/29 281/97/1
f 283/216/3 290/220/10 304/226/24 296/125/16
f 311/277/31 317/278/37 288/265/8 282/101/2
f 330/181/50 302/133/22 289/113/9 316/157/36
f 297/271/17 303/273/23 332/285/52 324/173/44
f 325/232/45 331/234/51 318/165/38 310/149/30
f 351/25/15 379/73/43 365/49/29 337/1/1
f 339/195/3 346/21/10 360/45/24 352/200/16
f 367/206/31 373/296/37 344/287/8 338/193/2
f 386/85/50 358/37/22 345/17/9 372/61/36
f 353/201/17 359/41/23 388/304/52 380/300/44
f 381/81/45 387/302/51 374/298/38 366/205/30
f 407/121/15 435/169/43 421/145/29 393/97/1
f 395/216/3 402/220/10 416/226/24 408/125/16
f 423/277/31 429/278/37 400/265/8 394/101/2
f 442/181/50 414/133/22 401/113/9 428/157/36
f 409/271/17 415/273/23 444/285/52 436/173/44
f 437/232/45 443/234/51 430/165/38 422/149/30
f 463/25/15 491/73/43 477/49/29 449/1/1
f 451/195/3 458/21/10 472/45/24 464/200/16
f 479/206/31 485/65/37 456/13/8 450/193/2
f 498/85/50 470/37/22 457/17/9 484/61/36
f 465/201/17 471/306/23 500/304/52 492/210/44
f 493/309/45 499/310/51 486/308/38 478/307/30
f 519/121/15 547/169/43 533/145/29 505/97/1
f 507/216/3 514/220/10 528/226/24 520/125/16
f 535/277/31 541/278/37 512/265/8 506/101/2
f 554/181/50 526/133/22 513/113/9 540/157/36
f 521/271/17 527/273/23 556/285/52 548/173/44
f 549/232/45 555/234/51 542/165/38 534/149/30
