# Blender 5.1.1
# www.blender.org
mtllib wall_props_a.mtl
o wall_props_a
v -1.000000 -0.287770 0.551874
v 1.000000 -0.287770 0.551874
v -1.000000 0.012361 0.000000
v 1.000000 0.012361 0.000000
v -1.000000 -0.096519 0.000000
v -1.000000 -0.365619 0.551874
v 1.000000 -0.365619 0.551874
v 1.000000 -0.096519 0.000000
v -1.000000 -0.021311 0.058304
v -1.000000 -0.036180 0.069384
v 1.000000 -0.036180 0.069384
v 1.000000 -0.021311 0.058304
v -1.000000 -0.114029 0.069384
v -1.000000 -0.128994 0.058304
v 1.000000 -0.128994 0.058304
v 1.000000 -0.114029 0.069384
vn -0.0000 -0.0000 -1.0000
vn -0.0000 -0.0000 1.0000
vn -1.0000 -0.0000 -0.0000
vn 1.0000 -0.0000 -0.0000
vn -0.0000 -0.5951 0.8037
vn -0.0000 0.5975 0.8018
vn -0.0000 0.8867 0.4624
vn -0.0000 0.8660 0.5001
vn -0.0000 -0.8867 -0.4624
vn -0.0000 -0.8736 -0.4866
vt 1.000000 1.000000
vt 0.000000 1.000000
vt 0.000000 0.000000
vt 1.000000 0.000000
vt 0.000000 0.874275
vt 0.000000 0.894353
vt 0.000000 0.894353
vt 0.000000 0.874275
vt 1.000000 0.894353
vt 1.000000 0.874275
s 0
f 4/1/1 8/1/1 5/2/1 3/2/1
f 1/3/2 6/3/2 7/4/2 2/4/2
f 10/5/3 9/6/3 14/7/3 13/8/3
f 12/9/4 11/10/4 16/10/4 15/9/4
f 15/9/5 16/10/5 13/8/5 14/7/5
f 9/6/6 10/5/6 11/10/6 12/9/6
f 1/3/7 2/4/7 11/10/7 10/5/7
f 10/5/3 13/8/3 6/3/3 1/3/3
f 9/6/8 12/9/8 4/1/8 3/2/8
f 3/2/3 5/2/3 14/7/3 9/6/3
f 12/9/4 15/9/4 8/1/4 4/1/4
f 2/4/4 7/4/4 16/10/4 11/10/4
f 6/3/9 13/8/9 16/10/9 7/4/9
f 14/7/10 5/2/10 8/1/10 15/9/10
