# Blender 5.1.1
# www.blender.org
mtllib wall_c.mtl
o wall_c
v -1.000000 0.000000 -0.000000
v 1.000000 0.000000 -0.000000
v -1.000000 2.800000 0.000000
v 1.000000 2.800000 0.000000
v -1.000000 2.380000 0.000000
v 1.000000 2.380000 0.000000
v -1.000000 2.315676 -0.039293
v 1.000000 2.315676 -0.039293
v -1.000000 0.482052 -0.000000
v -1.000000 0.585732 -0.039293
v 1.000000 0.585732 -0.039293
v 1.000000 0.482052 -0.000000
v -0.091196 0.000000 -0.000000
v 0.706514 0.000000 -0.000000
v 0.770253 2.800000 0.000000
v -0.154935 2.800000 0.000000
v 0.770253 2.380000 0.000000
v -0.154935 2.380000 0.000000
v 0.770253 2.315676 -0.039293
v -0.154935 2.315676 -0.039293
v 0.706514 0.585732 -0.039293
v -0.091196 0.585732 -0.039293
v -0.091196 0.482052 -0.000000
v 0.706514 0.482052 -0.000000
v -1.000000 2.056184 -0.039293
v 1.000000 2.056184 -0.039293
v -0.068474 1.935139 -0.111084
v 0.683792 1.935139 -0.111084
v -0.154935 0.000000 -0.000000
v -0.154935 0.482052 -0.000000
v 0.770253 0.000000 -0.000000
v 0.770253 0.482052 -0.000000
v 0.770253 0.585732 -0.039293
v -0.154935 0.585732 -0.039293
v -0.154935 2.056184 -0.039293
v 0.770253 2.056184 -0.039293
v -0.068474 0.000000 -0.071791
v -0.068474 0.482052 -0.071791
v 0.683792 0.000000 -0.071791
v 0.683792 0.482052 -0.071791
v 0.683792 0.585732 -0.111084
v -0.068474 0.585732 -0.111084
v -0.091196 1.966950 -0.039293
v 0.706514 1.966950 -0.039293
vn -0.0000 -0.0000 1.0000
vn -0.0000 -0.5213 0.8534
vn -0.0000 0.3544 0.9351
vn 0.9534 -0.0000 0.3018
vn -0.9534 -0.0000 0.3018
vn -0.9472 0.1136 0.2998
vn 0.9472 0.1136 0.2998
vn -0.0000 -0.9143 0.4051
vt 0.666667 0.850000
vt 1.000000 0.850000
vt 1.000000 1.000000
vt 0.666667 1.000000
vt 0.666667 0.827027
vt 1.000000 0.827027
vt 0.333333 0.209190
vt 0.000000 0.209190
vt 0.000000 0.172161
vt 0.333333 0.172161
vt 0.666667 0.000000
vt 1.000000 0.000000
vt 1.000000 0.172161
vt 0.666667 0.172161
vt 0.666667 0.734352
vt 1.000000 0.734351
vt 0.000000 0.734352
vt 0.333333 0.734352
vt 0.333333 0.827027
vt 0.000000 0.827027
vt 0.000000 0.000000
vt 0.333333 0.000000
vt 0.364484 0.000000
vt 0.635516 0.000000
vt 0.635516 0.172161
vt 0.364484 0.172161
vt 1.000000 0.209190
vt 0.666667 0.209190
vt 0.635516 0.209190
vt 0.364484 0.209190
vt 0.333333 0.850000
vt 0.000000 0.850000
vt 0.333333 1.000000
vt 0.000000 1.000000
vt 0.635516 0.691121
vt 0.364484 0.691121
vt 0.356297 0.000000
vt 0.356297 0.172161
vt 0.643703 0.172161
vt 0.643703 0.000000
vt 0.643703 0.209190
vt 0.356297 0.209190
vt 0.356297 0.702482
vt 0.643703 0.702482
s 0
usemtl wall
f 17/1/1 6/2/1 4/3/1 15/4/1
f 19/5/2 8/6/2 6/2/2 17/1/2
f 34/7/3 10/8/3 9/9/3 30/10/3
f 31/11/1 2/12/1 12/13/1 32/14/1
f 36/15/1 26/16/1 8/6/1 19/5/1
f 25/17/1 35/18/1 20/19/1 7/20/1
f 35/18/1 36/15/1 19/5/1 20/19/1
f 1/21/1 29/22/1 30/10/1 9/9/1
f 37/23/1 39/24/1 40/25/1 38/26/1
f 11/27/3 33/28/3 32/14/3 12/13/3
f 41/29/3 42/30/3 38/26/3 40/25/3
f 7/20/2 20/19/2 18/31/2 5/32/2
f 20/19/2 19/5/2 17/1/2 18/31/2
f 5/32/1 18/31/1 16/33/1 3/34/1
f 18/31/1 17/1/1 15/4/1 16/33/1
f 42/30/1 41/29/1 28/35/1 27/36/1
f 10/8/1 34/7/1 35/18/1 25/17/1
f 33/28/1 11/27/1 26/16/1 36/15/1
f 13/37/1 23/38/1 30/10/1 29/22/1
f 24/39/1 14/40/1 31/11/1 32/14/1
f 21/41/3 24/39/3 32/14/3 33/28/3
f 23/38/3 22/42/3 34/7/3 30/10/3
f 22/42/1 43/43/1 35/18/1 34/7/1
f 44/44/1 21/41/1 33/28/1 36/15/1
f 43/43/1 44/44/1 36/15/1 35/18/1
f 37/23/4 38/26/4 23/38/4 13/37/4
f 40/25/5 39/24/5 14/40/5 24/39/5
f 41/29/6 40/25/6 24/39/6 21/41/6
f 38/26/7 42/30/7 22/42/7 23/38/7
f 42/30/4 27/36/4 43/43/4 22/42/4
f 28/35/5 41/29/5 21/41/5 44/44/5
f 27/36/8 28/35/8 44/44/8 43/43/8
