# Blender 5.1.1
# www.blender.org
mtllib wall_props_c.mtl
o wall_props_c
v 0.000000 -0.234442 0.006614
v 1.343104 0.112561 0.006614
v 0.000000 0.234442 0.006614
v 1.343104 0.234442 0.006614
v 0.671552 -0.146469 0.006614
v 0.671552 0.234442 0.006614
v 0.000000 -0.234442 0.001344
v 1.343104 0.112561 0.001344
v 0.000000 0.234442 0.001344
v 1.343104 0.234442 0.001344
v 0.671552 -0.146469 0.001344
v 0.671552 0.234442 0.001344
vn -0.0000 -0.0000 1.0000
vn -0.0000 -0.0000 -1.0000
vt 0.495828 0.183077
vt -0.004171 0.470207
vt -0.004171 0.865046
vt 0.495828 0.815715
vt 0.995828 0.005715
vt 0.995828 0.784465
vt 0.495828 0.183077
vt 0.495828 0.815716
vt -0.004172 0.865047
vt -0.004172 0.470208
vt 0.995828 0.005716
vt 0.995828 0.784466
s 0
usemtl lamp_support
f 5/1/1 2/2/1 4/3/1 6/4/1
f 1/5/1 5/1/1 6/4/1 3/6/1
f 11/7/2 12/8/2 10/9/2 8/10/2
f 7/11/2 9/12/2 12/8/2 11/7/2
