# Blender 5.1.1
# www.blender.org
mtllib wall_props_e.mtl
o wall_props_e
v -1.027271 -1.099277 0.944484
v -1.027271 -1.369585 -0.064321
v -1.027271 -1.128147 0.952220
v -1.027271 -1.398456 -0.056585
v -1.006171 -1.099277 0.944484
v -1.006171 -1.369585 -0.064321
v -1.006171 -1.128147 0.952220
v -1.006171 -1.398456 -0.056585
v -1.046158 -1.426813 -0.041388
v -1.046158 -1.341231 -0.041388
v -1.046158 -1.414280 -0.011130
v -1.046158 -1.384022 0.001403
v -1.046158 -1.353764 -0.011130
v -0.987290 -1.426813 -0.041388
v -0.987290 -1.341231 -0.041388
v -0.987290 -1.414280 -0.011130
v -0.987290 -1.384022 0.001403
v -0.987290 -1.353764 -0.011130
v 1.000000 -1.110602 0.955049
v -1.000000 -1.110602 0.955049
v -1.000000 0.000000 -0.009061
v 1.000000 0.000000 -0.009061
v -1.000000 -0.030528 0.003585
v 1.000000 -0.030528 0.003585
v -1.000000 -0.043174 0.034113
v 1.000000 -0.043174 0.034113
v -1.000000 -0.030528 0.064641
v 1.000000 -0.030528 0.064641
v -1.000000 0.000000 0.077286
v 1.000000 0.000000 0.077286
v -1.000000 0.030528 0.064641
v 1.000000 0.030528 0.064641
v -1.000000 0.043174 0.034113
v 1.000000 0.043174 0.034113
v -1.000000 0.030528 0.003585
v 1.000000 0.030528 0.003585
v -1.000000 -0.005609 0.037659
v 1.000000 -0.005609 0.037659
v -1.037038 -1.126994 0.936422
v 1.000000 -1.126994 0.936422
v -1.037038 -1.135505 0.952771
v 1.000000 -1.135505 0.952771
v -1.037038 -1.129962 0.970349
v 1.000000 -1.129962 0.970349
v -1.037038 -1.113613 0.978860
v 1.000000 -1.113613 0.978860
v -1.037038 -1.096035 0.973318
v 1.000000 -1.096035 0.973318
v -1.037038 -1.087524 0.956969
v 1.000000 -1.087524 0.956969
v -1.037038 -1.093067 0.939390
v 1.000000 -1.093067 0.939390
v -1.037038 -1.109416 0.930879
v 1.000000 -1.109416 0.930879
v 1.027271 -1.099277 0.944484
v 1.027271 -1.369585 -0.064321
v 1.027271 -1.128147 0.952220
v 1.027271 -1.398456 -0.056585
v 1.006171 -1.099277 0.944484
v 1.006171 -1.369585 -0.064321
v 1.006171 -1.128147 0.952220
v 1.006171 -1.398456 -0.056585
v 1.046158 -1.426813 -0.041388
v 1.046158 -1.341231 -0.041388
v 1.046158 -1.414280 -0.011130
v 1.046158 -1.384022 0.001403
v 1.046158 -1.353764 -0.011130
v 0.987290 -1.426813 -0.041388
v 0.987290 -1.341231 -0.041388
v 0.987290 -1.414280 -0.011130
v 0.987290 -1.384022 0.001403
v 0.987290 -1.353764 -0.011130
v 1.000000 0.000000 -0.009061
v -1.000000 0.000000 -0.009061
v 1.000000 -0.030528 0.003585
v -1.000000 -0.030528 0.003585
v 1.000000 -0.043174 0.034113
v -1.000000 -0.043174 0.034113
v 1.000000 -0.030528 0.064641
v -1.000000 -0.030528 0.064641
v 1.000000 0.000000 0.077286
v -1.000000 0.000000 0.077286
v 1.000000 0.030528 0.064641
v -1.000000 0.030528 0.064641
v 1.000000 0.043174 0.034113
v -1.000000 0.043174 0.034113
v 1.000000 0.030528 0.003585
v -1.000000 0.030528 0.003585
v 1.037038 -1.126994 0.936422
v -1.000000 -1.126994 0.936422
v 1.037038 -1.135505 0.952771
v -1.000000 -1.135505 0.952771
v 1.037038 -1.129962 0.970349
v -1.000000 -1.129962 0.970349
v 1.037038 -1.113613 0.978860
v -1.000000 -1.113613 0.978860
v 1.037038 -1.096035 0.973318
v -1.000000 -1.096035 0.973318
v 1.037038 -1.087524 0.956969
v -1.000000 -1.087524 0.956969
v 1.037038 -1.093067 0.939390
v -1.000000 -1.093067 0.939390
v 1.037038 -1.109416 0.930879
v -1.000000 -1.109416 0.930879
vn -1.0000 -0.0000 -0.0000
vn -0.0000 -0.9659 0.2588
vn 1.0000 -0.0000 -0.0000
vn -0.0000 0.9659 -0.2588
vn -0.0000 0.3827 0.9239
vn -0.0000 -0.3827 0.9239
vn -0.0000 -0.9239 0.3827
vn -0.0000 0.9239 0.3827
vn -0.0000 -0.3827 -0.9239
vn -0.0000 0.9537 -0.3007
vn -0.0000 -0.9239 -0.3827
vn -0.0000 0.8870 0.4617
vn -0.0000 0.3007 0.9537
vn -0.0000 -0.4618 0.8870
vn -0.0000 -0.3007 -0.9537
vn -0.0000 -0.9537 0.3007
vn -0.0000 0.4618 -0.8870
vn -0.0000 0.6388 0.7694
vn -0.0000 0.9239 -0.3827
vn -0.0000 0.3827 -0.9239
vn -0.0000 -0.8870 -0.4617
vt 0.375000 0.000000
vt 0.625000 0.000000
vt 0.625000 0.250000
vt 0.375000 0.250000
vt 0.625000 0.500000
vt 0.375000 0.500000
vt 0.625000 0.750000
vt 0.375000 0.750000
vt 0.625000 1.000000
vt 0.375000 1.000000
vt 0.500000 0.500000
vt 0.750000 0.500000
vt 0.250000 0.500000
vt 1.000000 0.500000
vt 1.000000 1.000000
vt 0.875000 1.000000
vt 0.875000 0.500000
vt 0.250000 1.000000
vt 0.750000 1.000000
vt 0.500000 1.000000
vt 0.750000 0.490000
vt 0.919706 0.419706
vt 0.990000 0.250000
vt 0.919706 0.080294
vt 0.750000 0.010000
vt 0.580294 0.080294
vt 0.510000 0.250000
vt 0.580294 0.419706
vt 0.125000 0.500000
vt 0.125000 1.000000
vt 0.000000 1.000000
vt 0.000000 0.500000
vt 0.419706 0.419706
vt 0.250000 0.490000
vt 0.080294 0.419706
vt 0.010000 0.250000
vt 0.080294 0.080294
vt 0.250000 0.010000
vt 0.419706 0.080294
vt 0.490000 0.250000
vt 0.000000 0.000000
vt 1.000000 0.000000
s 0
usemtl metal
f 1/1/1 2/2/1 4/3/1 3/4/1
f 3/4/2 4/3/2 8/5/2 7/6/2
f 7/6/3 8/5/3 6/7/3 5/8/3
f 5/8/4 6/7/4 2/9/4 1/10/4
f 12/11/5 17/11/5 18/6/5 13/6/5
f 11/5/6 16/5/6 17/11/6 12/11/6
f 9/12/7 14/12/7 16/5/7 11/5/7
f 13/6/8 18/6/8 15/13/8 10/13/8
f 14/12/3 15/13/3 18/6/3 17/11/3 16/5/3
f 9/12/1 11/5/1 12/11/1 13/6/1 10/13/1
f 21/14/9 22/15/9 24/16/9 23/17/9
f 49/6/10 50/10/10 52/18/10 51/13/10
f 23/17/11 24/16/11 26/19/11 25/12/11
f 47/11/12 48/20/12 50/10/12 49/6/12
f 25/12/7 26/19/7 28/9/7 27/5/7
f 39/21/1 41/22/1 43/23/1 45/24/1 47/25/1 49/26/1 51/27/1 53/28/1
f 45/5/13 46/9/13 48/20/13 47/11/13
f 27/5/6 28/9/6 30/20/6 29/11/6
f 43/12/14 44/19/14 46/9/14 45/5/14
f 53/29/15 54/30/15 40/31/15 39/32/15
f 29/11/5 30/20/5 32/10/5 31/6/5
f 41/17/16 42/16/16 44/19/16 43/12/16
f 51/13/17 52/18/17 54/30/17 53/29/17
f 31/6/8 32/10/8 34/18/8 33/13/8
f 24/33/3 22/34/3 36/35/3 34/36/3 32/37/3 30/38/3 28/39/3 26/40/3
f 33/13/19 34/18/19 36/30/19 35/29/19
f 35/29/20 36/30/20 22/31/20 21/32/20
f 21/21/1 23/22/1 25/23/1 27/24/1 29/25/1 31/26/1 33/27/1 35/28/1
f 39/14/21 40/15/21 42/16/21 41/17/21
f 55/1/3 57/4/3 58/3/3 56/2/3
f 57/4/2 61/6/2 62/5/2 58/3/2
f 61/6/1 59/8/1 60/7/1 62/5/1
f 59/8/4 55/10/4 56/9/4 60/7/4
f 66/11/5 67/6/5 72/6/5 71/11/5
f 65/5/6 66/11/6 71/11/6 70/5/6
f 63/12/7 65/5/7 70/5/7 68/12/7
f 67/6/8 64/13/8 69/13/8 72/6/8
f 68/12/1 70/5/1 71/11/1 72/6/1 69/13/1
f 63/12/3 64/13/3 67/6/3 66/11/3 65/5/3
f 73/14/9 75/17/9 76/16/9 74/15/9
f 99/6/10 101/13/10 102/18/10 100/10/10
f 75/17/11 77/12/11 78/19/11 76/16/11
f 97/11/12 99/6/12 100/10/12 98/20/12
f 77/12/7 79/5/7 80/9/7 78/19/7
f 89/21/3 103/28/3 101/27/3 99/26/3 97/25/3 95/24/3 93/23/3 91/22/3
f 95/5/13 97/11/13 98/20/13 96/9/13
f 79/5/6 81/11/6 82/20/6 80/9/6
f 93/12/14 95/5/14 96/9/14 94/19/14
f 103/29/15 89/32/15 90/31/15 104/30/15
f 81/11/5 83/6/5 84/10/5 82/20/5
f 91/17/16 93/12/16 94/19/16 92/16/16
f 101/13/17 103/29/17 104/30/17 102/18/17
f 83/6/8 85/13/8 86/18/8 84/10/8
f 76/33/1 78/40/1 80/39/1 82/38/1 84/37/1 86/36/1 88/35/1 74/34/1
f 85/13/19 87/29/19 88/30/19 86/18/19
f 87/29/20 73/32/20 74/31/20 88/30/20
f 73/21/3 87/28/3 85/27/3 83/26/3 81/25/3 79/24/3 77/23/3 75/22/3
f 89/14/21 91/17/21 92/16/21 90/15/21
usemtl textile
f 20/41/18 19/42/18 38/15/18 37/31/18
