# Blender 5.1.1
# www.blender.org
o wall_props_g
v -1.000000 0.000000 -0.000000
v 1.000000 0.000000 -0.000000
v -1.000000 0.254070 -0.000000
v 1.000000 0.254071 -0.000000
v -1.000000 0.036600 0.035678
v -1.000000 0.217470 0.035678
v 1.000000 0.217470 0.035678
v 1.000000 0.036601 0.035678
vn -0.0000 -0.0000 1.0000
vn -0.0000 -0.6980 0.7161
vn -0.0000 0.6980 0.7161
vt 1.000000 0.285315
vt 0.000000 0.285315
vt 0.000000 0.048019
vt 1.000000 0.048019
vt 0.000000 0.000000
vt 1.000000 0.000000
vt 1.000000 0.333333
vt 0.000000 0.333333
s 0
f 7/1/1 6/2/1 5/3/1 8/4/1
f 1/5/2 2/6/2 8/4/2 5/3/2
f 6/2/3 7/1/3 4/7/3 3/8/3
