# Blender 5.1.1
# www.blender.org
mtllib wall_props_f_angle.mtl
o wall_props_f_angle
v 0.000000 0.000000 -0.000000
v 0.000000 0.254070 -0.000000
v 0.000000 0.141516 0.119728
v 0.000000 0.112555 0.119728
v 0.000000 0.000000 0.000000
v 0.000000 0.254070 0.000000
v -0.119728 0.141516 -0.000000
v -0.119728 0.112555 -0.000000
vn -0.7071 -0.0000 0.7071
vn -0.5651 0.6011 0.5651
vn -0.5651 -0.6011 0.5651
vt 0.097555 1.133537
vt 0.116742 1.133487
vt 0.116449 1.021307
vt 0.097262 1.021357
vt 0.209906 1.077153
vt 0.004098 1.077690
s 0
usemtl wood
f 4/1/1 3/2/1 7/3/1 8/4/1
f 7/3/2 3/2/2 6/5/2
f 8/4/3 5/6/3 4/1/3
l 3 2
l 1 4
