# Blender 5.1.1
# www.blender.org
mtllib wall_b.mtl
o wall_b
v -1.000000 0.000000 -0.000000
v 1.000000 0.000000 -0.000000
v -1.000000 2.800000 0.000000
v 1.000000 2.800000 0.000000
v -1.000000 2.380000 0.000000
v 1.000000 2.380000 0.000000
v -1.000000 2.315676 -0.039293
v 1.000000 2.315676 -0.039293
v -1.000000 0.482052 -0.000000
v -1.000000 0.585732 -0.039293
v 1.000000 0.585732 -0.039293
v 1.000000 0.482052 -0.000000
vn -0.0000 -0.0000 1.0000
vn -0.0000 -0.5213 0.8534
vn -0.0000 0.3544 0.9351
vt 0.000000 0.850000
vt 1.000000 0.850000
vt 1.000000 1.000000
vt 0.000000 1.000000
vt 0.000000 0.827027
vt 1.000000 0.827027
vt 1.000000 0.209190
vt 0.000000 0.209190
vt 0.000000 0.172161
vt 1.000000 0.172161
vt 0.000000 0.000000
vt 1.000000 0.000000
s 0
usemtl wall
f 5/1/1 6/2/1 4/3/1 3/4/1
f 7/5/2 8/6/2 6/2/2 5/1/2
f 11/7/3 10/8/3 9/9/3 12/10/3
f 1/11/1 2/12/1 12/10/1 9/9/1
f 10/8/1 11/7/1 8/6/1 7/5/1
