# Blender 5.1.1
# www.blender.org
mtllib wall_props_b.mtl
o wall_props_b
v -1.000000 -0.200000 0.020414
v 1.000000 -0.200000 0.020414
v -1.000000 0.100000 0.000000
v 1.000000 0.100000 0.000000
v -1.000000 0.089846 0.086071
v -1.000000 -0.189847 0.086071
v 1.000000 -0.189847 0.086071
v 1.000000 0.089846 0.086071
v -1.000000 -0.413602 0.020414
v 1.000000 -0.413602 0.020414
v -1.000000 -0.438768 -0.009134
v 1.000000 -0.438768 -0.009134
vn -0.0000 0.9931 0.1172
vn -0.0000 -0.9883 0.1528
vn -0.0000 -0.0000 1.0000
vn -0.0000 -0.7613 0.6484
vt 0.299296 0.999941
vt 0.299296 0.000059
vt 0.342625 0.000059
vt 0.342625 0.999941
vt 0.126251 0.999941
vt 0.126251 0.000059
vt 0.159466 0.000059
vt 0.159466 0.999941
vt 0.019463 0.999941
vt 0.019462 0.000059
vt 0.000059 0.999941
vt 0.000059 0.000059
s 0
usemtl concrete
f 5/1/1 8/2/1 4/3/1 3/4/1
f 1/5/2 2/6/2 7/7/2 6/8/2
f 6/8/3 7/7/3 8/2/3 5/1/3
f 2/6/3 1/5/3 9/9/3 10/10/3
f 10/10/4 9/9/4 11/11/4 12/12/4
o wall_props_b_teeth
v -0.902109 -0.203472 0.000001
v -0.757348 -0.203472 0.000001
v -0.902109 0.020946 0.000001
v -0.757348 0.020946 0.000001
v -0.902109 0.020946 0.063440
v -0.902109 -0.203472 0.040899
v -0.757348 -0.203472 0.040899
v -0.757348 0.020946 0.063440
v -0.902109 -0.160970 0.000001
v -0.757348 -0.160970 0.000001
v -0.902109 -0.160970 0.063440
v -0.757348 -0.160970 0.063440
v -0.583635 -0.203472 0.000001
v -0.438874 -0.203472 0.000001
v -0.583635 0.020946 0.000001
v -0.438874 0.020946 0.000001
v -0.583635 0.020946 0.063440
v -0.583635 -0.203472 0.040899
v -0.438874 -0.203472 0.040899
v -0.438874 0.020946 0.063440
v -0.583635 -0.160970 0.000001
v -0.438874 -0.160970 0.000001
v -0.583635 -0.160970 0.063440
v -0.438874 -0.160970 0.063440
v -0.265161 -0.203472 0.000001
v -0.120400 -0.203472 0.000001
v -0.265161 0.020946 0.000001
v -0.120400 0.020946 0.000001
v -0.265161 0.020946 0.063440
v -0.265161 -0.203472 0.040899
v -0.120400 -0.203472 0.040899
v -0.120400 0.020946 0.063440
v -0.265161 -0.160970 0.000001
v -0.120400 -0.160970 0.000001
v -0.265161 -0.160970 0.063440
v -0.120400 -0.160970 0.063440
v 0.053313 -0.203472 0.000001
v 0.198074 -0.203472 0.000001
v 0.053313 0.020946 0.000001
v 0.198074 0.020946 0.000001
v 0.053313 0.020946 0.063440
v 0.053313 -0.203472 0.040899
v 0.198074 -0.203472 0.040899
v 0.198074 0.020946 0.063440
v 0.053313 -0.160970 0.000001
v 0.198074 -0.160970 0.000001
v 0.053313 -0.160970 0.063440
v 0.198074 -0.160970 0.063440
v 0.371787 -0.203472 0.000001
v 0.516548 -0.203472 0.000001
v 0.371787 0.020946 0.000001
v 0.516548 0.020946 0.000001
v 0.371787 0.020946 0.063440
v 0.371787 -0.203472 0.040899
v 0.516548 -0.203472 0.040899
v 0.516548 0.020946 0.063440
v 0.371787 -0.160970 0.000001
v 0.516548 -0.160970 0.000001
v 0.371787 -0.160970 0.063440
v 0.516548 -0.160970 0.063440
v 0.690262 -0.203472 0.000001
v 0.835023 -0.203472 0.000001
v 0.690262 0.020946 0.000001
v 0.835023 0.020946 0.000001
v 0.690262 0.020946 0.063440
v 0.690262 -0.203472 0.040899
v 0.835023 -0.203472 0.040899
v 0.835023 0.020946 0.063440
v 0.690262 -0.160970 0.000001
v 0.835023 -0.160970 0.000001
v 0.690262 -0.160970 0.063440
v 0.835023 -0.160970 0.063440
vn -0.0000 -0.0000 1.0000
vn -0.0000 1.0000 -0.0000
vn -0.0000 -1.0000 -0.0000
vn 1.0000 -0.0000 -0.0000
vn -1.0000 -0.0000 -0.0000
vn -0.0000 -0.4685 0.8834
vt 0.189449 0.999900
vt 0.189449 0.000100
vt 0.999900 0.000100
vt 0.999900 0.999900
vt 0.000100 0.999900
vt 0.000100 0.000100
vt 0.189449 0.000100
s 0
usemtl concrete
f 23/13/5 24/14/5 20/15/5 17/16/5
f 16/15/6 15/16/6 17/16/6 20/15/6
f 13/17/7 14/18/7 19/18/7 18/17/7
f 22/19/8 16/15/8 20/15/8 24/14/8
f 21/13/9 13/17/9 18/17/9 23/13/9
f 15/16/9 21/13/9 23/13/9 17/16/9
f 14/18/8 22/19/8 24/14/8 19/18/8
f 18/17/10 19/18/10 24/14/10 23/13/10
f 35/13/5 36/14/5 32/15/5 29/16/5
f 28/15/6 27/16/6 29/16/6 32/15/6
f 25/17/7 26/18/7 31/18/7 30/17/7
f 34/19/8 28/15/8 32/15/8 36/14/8
f 33/13/9 25/17/9 30/17/9 35/13/9
f 27/16/9 33/13/9 35/13/9 29/16/9
f 26/18/8 34/19/8 36/14/8 31/18/8
f 30/17/10 31/18/10 36/14/10 35/13/10
f 47/13/5 48/14/5 44/15/5 41/16/5
f 40/15/6 39/16/6 41/16/6 44/15/6
f 37/17/7 38/18/7 43/18/7 42/17/7
f 46/19/8 40/15/8 44/15/8 48/14/8
f 45/13/9 37/17/9 42/17/9 47/13/9
f 39/16/9 45/13/9 47/13/9 41/16/9
f 38/18/8 46/19/8 48/14/8 43/18/8
f 42/17/10 43/18/10 48/14/10 47/13/10
f 59/13/5 60/14/5 56/15/5 53/16/5
f 52/15/6 51/16/6 53/16/6 56/15/6
f 49/17/7 50/18/7 55/18/7 54/17/7
f 58/19/8 52/15/8 56/15/8 60/14/8
f 57/13/9 49/17/9 54/17/9 59/13/9
f 51/16/9 57/13/9 59/13/9 53/16/9
f 50/18/8 58/19/8 60/14/8 55/18/8
f 54/17/10 55/18/10 60/14/10 59/13/10
f 71/13/5 72/14/5 68/15/5 65/16/5
f 64/15/6 63/16/6 65/16/6 68/15/6
f 61/17/7 62/18/7 67/18/7 66/17/7
f 70/19/8 64/15/8 68/15/8 72/14/8
f 69/13/9 61/17/9 66/17/9 71/13/9
f 63/16/9 69/13/9 71/13/9 65/16/9
f 62/18/8 70/19/8 72/14/8 67/18/8
f 66/17/10 67/18/10 72/14/10 71/13/10
f 83/13/5 84/14/5 80/15/5 77/16/5
f 76/15/6 75/16/6 77/16/6 80/15/6
f 73/17/7 74/18/7 79/18/7 78/17/7
f 82/19/8 76/15/8 80/15/8 84/14/8
f 81/13/9 73/17/9 78/17/9 83/13/9
f 75/16/9 81/13/9 83/13/9 77/16/9
f 74/18/8 82/19/8 84/14/8 79/18/8
f 78/17/10 79/18/10 84/14/10 83/13/10
