# Blender 5.1.1
# www.blender.org
mtllib wall_props_g_angle.mtl
o wall_props_g_angle
v 0.000000 0.036600 0.035678
v 0.000000 0.217470 0.035678
v 0.000000 0.254070 -0.000000
v 0.000000 0.000000 -0.000000
v -0.000000 0.000000 0.000000
v -0.000000 0.254070 0.000000
v 0.035678 0.217470 -0.000000
v 0.035678 0.036600 -0.000000
vn 0.7071 -0.0000 0.7071
vn 0.5822 0.5675 0.5822
vn 0.5822 -0.5675 0.5822
vt 0.000000 0.054744
vt 0.062138 0.054744
vt 0.062138 0.277486
vt -0.000000 0.277486
vt 0.031069 0.332230
vt 0.031069 -0.000000
s 0
usemtl wall
f 1/1/1 8/2/1 7/3/1 2/4/1
f 7/3/2 6/5/2 2/4/2
f 8/2/3 1/1/3 5/6/3
l 2 3
l 4 1
