# Blender 5.1.1
# www.blender.org
mtllib wall_props_f.mtl
o wall_props_f
v -1.000000 0.000000 -0.000000
v 1.000000 0.000000 -0.000000
v -1.000000 0.254070 -0.000000
v 1.000000 0.254071 -0.000000
v -1.000000 0.112555 0.119728
v -1.000000 0.141516 0.119728
v 1.000000 0.141516 0.119728
v 1.000000 0.112555 0.119728
vn -0.0000 -0.0000 1.0000
vn -0.0000 -0.7286 0.6849
vn -0.0000 0.7286 0.6849
vt 1.000000 0.285315
vt 0.000000 0.285315
vt 0.000000 0.048019
vt 1.000000 0.048019
vt 0.000000 0.000000
vt 1.000000 0.000000
vt 1.000000 0.333333
vt 0.000000 0.333333
s 0
usemtl wood_a
f 7/1/1 6/2/1 5/3/1 8/4/1
f 1/5/2 2/6/2 8/4/2 5/3/2
f 6/2/3 7/1/3 4/7/3 3/8/3
