# Blender 5.1.1
# www.blender.org
mtllib wall_door_a.mtl
o wall_door_a
v -0.495599 2.054548 0.035285
v -0.530616 1.575906 0.035285
v -0.566667 2.125616 0.058605
v -0.530616 1.026196 0.035285
v -0.566667 1.575906 0.058605
v -0.566667 1.026196 0.058605
v -0.495599 0.511504 0.035285
v -0.530616 0.000000 0.035285
v 0.000000 1.575906 0.035285
v 0.000000 2.089565 0.035285
v 0.000000 0.000000 0.035285
v 0.000000 0.476487 0.035285
v 0.000000 1.026196 0.035285
v -0.566667 1.575906 -0.165464
v -0.566667 0.476487 0.058605
v 0.000000 2.125616 0.058605
v -0.566667 -0.000000 0.058605
v -0.530616 1.026196 0.058605
v -0.530616 1.575906 0.058605
v -0.530616 2.089565 0.058605
v -0.530616 0.476487 0.058605
v 0.000000 2.089565 0.058605
v -0.530616 -0.000000 0.058605
v -0.035017 1.575906 0.035285
v -0.035017 2.054548 0.035285
v -0.530616 0.476487 0.035285
v -0.035017 0.511504 0.035285
v -0.035017 1.026196 0.035285
v -0.495599 1.026196 0.035285
v -0.495599 1.575906 0.035285
v -0.530616 2.089565 0.035285
v -0.475800 1.556107 0.035285
v -0.475800 1.045996 0.035285
v -0.054816 1.045996 0.035285
v -0.054816 1.556107 0.035285
v -0.475800 2.034749 0.035285
v -0.475800 1.595705 0.035285
v -0.054816 1.595705 0.035285
v -0.054816 2.034748 0.035285
v -0.475800 1.006397 0.035285
v -0.475800 0.531303 0.035285
v -0.054816 0.531303 0.035285
v -0.054816 1.006397 0.035285
v -0.475800 1.045996 0.006327
v -0.475800 1.556107 0.006327
v -0.054816 1.556107 0.006327
v -0.054816 1.045996 0.006327
v -0.475800 1.595705 0.006327
v -0.475800 2.034749 0.006327
v -0.054816 2.034748 0.006327
v -0.054816 1.595705 0.006327
v -0.475800 0.531303 0.006327
v -0.475800 1.006397 0.006327
v -0.054816 1.006397 0.006327
v -0.054816 0.531303 0.006327
v 0.495599 2.054548 0.035285
v 0.530616 1.575906 0.035285
v 0.566667 2.125616 0.058605
v 0.530616 1.026196 0.035285
v 0.566667 1.575906 0.058605
v 0.566667 1.026196 0.058605
v 0.495599 0.511504 0.035285
v 0.530616 0.000000 0.035285
v -0.566667 2.125616 -0.165464
v 0.566667 0.476487 0.058605
v 0.566667 -0.000000 0.058605
v 0.530616 1.026196 0.058605
v 0.530616 1.575906 0.058605
v 0.530616 2.089565 0.058605
v 0.530616 0.476487 0.058605
v 0.530616 -0.000000 0.058605
v 0.035017 1.575906 0.035285
v 0.035017 2.054548 0.035285
v 0.530616 0.476487 0.035285
v 0.035017 0.511504 0.035285
v 0.035017 1.026196 0.035285
v 0.495599 1.026196 0.035285
v 0.495599 1.575906 0.035285
v 0.530616 2.089565 0.035285
v 0.475800 1.556107 0.035285
v 0.475800 1.045996 0.035285
v 0.054816 1.045996 0.035285
v 0.054816 1.556107 0.035285
v 0.475800 2.034749 0.035285
v 0.475800 1.595705 0.035285
v 0.054816 1.595705 0.035285
v 0.054816 2.034748 0.035285
v 0.475800 1.006397 0.035285
v 0.475800 0.531303 0.035285
v 0.054816 0.531303 0.035285
v 0.054816 1.006397 0.035285
v 0.475800 1.045996 0.006327
v 0.475800 1.556107 0.006327
v 0.054816 1.556107 0.006327
v 0.054816 1.045996 0.006327
v 0.475800 1.595705 0.006327
v 0.475800 2.034749 0.006327
v 0.054816 2.034748 0.006327
v 0.054816 1.595705 0.006327
v 0.475800 0.531303 0.006327
v 0.475800 1.006397 0.006327
v 0.054816 1.006397 0.006327
v 0.054816 0.531303 0.006327
v -0.566667 1.026196 -0.165464
v -0.566667 0.476487 -0.165464
v 0.000000 2.125616 -0.165464
v -0.566667 -0.000000 -0.165464
v 0.566667 2.125616 -0.165464
v 0.566667 1.575906 -0.165464
v 0.566667 1.026196 -0.165464
v 0.566667 0.476487 -0.165464
v 0.566667 -0.000000 -0.165464
vn -0.0000 1.0000 -0.0000
vn -0.0000 -0.0000 1.0000
vn -1.0000 -0.0000 -0.0000
vn 1.0000 -0.0000 -0.0000
vn -0.0000 -1.0000 -0.0000
vt 0.071229 0.288120
vt 0.361227 0.288120
vt 0.033468 -0.376051
vt 0.398987 -0.376051
vt 0.398987 -0.086407
vt 0.033468 -0.086407
vt 0.361227 -0.050358
vt 0.361227 0.262079
vt 0.071229 0.938354
vt 0.071229 0.649626
vt 0.006824 -0.086407
vt 0.006824 -0.399759
vt 0.033468 0.974403
vt 0.398987 0.974403
vt 0.425631 0.998111
vt 0.006824 0.998111
vt 0.033468 0.275099
vt 0.006824 0.275099
vt 0.033468 0.636605
vt 0.006824 0.636605
vt 0.374865 0.951374
vt 0.374865 0.636605
vt 0.398987 0.636605
vt 0.374866 -0.063378
vt 0.057590 -0.063378
vt 0.374865 0.275099
vt 0.398987 0.275099
vt 0.057590 0.275099
vt 0.057590 0.636605
vt 0.057590 0.951374
vt 0.071229 0.623585
vt 0.361227 0.623585
vt 0.361227 0.649626
vt 0.361227 0.938354
vt 0.071229 -0.050358
vt 0.071229 0.262079
vt 0.397513 0.954317
vt 0.732978 0.954316
vt 0.732978 1.244314
vt 0.397513 1.244314
vt 0.082744 0.954316
vt 0.371472 0.954316
vt 0.371472 1.244314
vt 0.082744 1.244314
vt 0.759019 0.954316
vt 1.071455 0.954316
vt 1.071455 1.244314
vt 0.759019 1.244314
s 0
usemtl wood
f 33/1/1 34/2/1 47/2/1 44/1/1
f 8/3/2 11/4/2 12/5/2 26/6/2
f 42/7/3 43/8/3 54/8/3 55/7/3
f 36/9/4 37/10/4 48/10/4 49/9/4
f 23/3/2 21/6/2 15/11/2 17/12/2
f 31/13/5 10/14/5 22/14/5 20/13/5
f 20/13/2 22/14/2 16/15/2 3/16/2
f 21/6/2 18/17/2 6/18/2 15/11/2
f 19/19/2 20/13/2 3/16/2 5/20/2
f 18/17/2 19/19/2 5/20/2 6/18/2
f 4/17/4 2/19/4 19/19/4 18/17/4
f 60/20/4 61/18/4 110/18/4 109/20/4
f 2/19/4 31/13/4 20/13/4 19/19/4
f 8/3/4 26/6/4 21/6/4 23/3/4
f 26/6/4 4/17/4 18/17/4 21/6/4
f 25/21/2 24/22/2 9/23/2 10/14/2
f 27/24/2 7/25/2 26/6/2 12/5/2
f 24/22/2 28/26/2 13/27/2 9/23/2
f 28/26/2 27/24/2 12/5/2 13/27/2
f 29/28/2 30/29/2 2/19/2 4/17/2
f 30/29/2 1/30/2 31/13/2 2/19/2
f 7/25/2 29/28/2 4/17/2 26/6/2
f 1/30/2 25/21/2 10/14/2 31/13/2
f 30/29/2 29/28/2 33/1/2 32/31/2
f 29/28/2 28/26/2 34/2/2 33/1/2
f 28/26/2 24/22/2 35/32/2 34/2/2
f 24/22/2 30/29/2 32/31/2 35/32/2
f 1/30/2 30/29/2 37/10/2 36/9/2
f 30/29/2 24/22/2 38/33/2 37/10/2
f 24/22/2 25/21/2 39/34/2 38/33/2
f 25/21/2 1/30/2 36/9/2 39/34/2
f 29/28/2 7/25/2 41/35/2 40/36/2
f 7/25/2 27/24/2 42/7/2 41/35/2
f 27/24/2 28/26/2 43/8/2 42/7/2
f 28/26/2 29/28/2 40/36/2 43/8/2
f 39/34/5 36/9/5 49/9/5 50/34/5
f 40/36/4 41/35/4 52/35/4 53/36/4
f 34/2/3 35/32/3 46/32/3 47/2/3
f 37/10/1 38/33/1 51/33/1 48/10/1
f 43/8/5 40/36/5 53/36/5 54/8/5
f 32/31/4 33/1/4 44/1/4 45/31/4
f 38/33/3 39/34/3 50/34/3 51/33/3
f 41/35/1 42/7/1 55/7/1 52/35/1
f 35/32/5 32/31/5 45/31/5 46/32/5
f 81/1/1 92/1/1 95/2/1 82/2/1
f 63/3/2 74/6/2 12/5/2 11/4/2
f 90/7/4 103/7/4 102/8/4 91/8/4
f 84/9/3 97/9/3 96/10/3 85/10/3
f 71/3/2 66/12/2 65/11/2 70/6/2
f 79/13/5 69/13/5 22/14/5 10/14/5
f 69/13/2 58/16/2 16/15/2 22/14/2
f 70/6/2 65/11/2 61/18/2 67/17/2
f 68/19/2 60/20/2 58/16/2 69/13/2
f 67/17/2 61/18/2 60/20/2 68/19/2
f 59/17/3 67/17/3 68/19/3 57/19/3
f 3/16/1 16/15/1 106/15/1 64/16/1
f 57/19/3 68/19/3 69/13/3 79/13/3
f 63/3/3 71/3/3 70/6/3 74/6/3
f 74/6/3 70/6/3 67/17/3 59/17/3
f 73/21/2 10/14/2 9/23/2 72/22/2
f 75/24/2 12/5/2 74/6/2 62/25/2
f 72/22/2 9/23/2 13/27/2 76/26/2
f 76/26/2 13/27/2 12/5/2 75/24/2
f 77/28/2 59/17/2 57/19/2 78/29/2
f 78/29/2 57/19/2 79/13/2 56/30/2
f 62/25/2 74/6/2 59/17/2 77/28/2
f 56/30/2 79/13/2 10/14/2 73/21/2
f 78/29/2 80/31/2 81/1/2 77/28/2
f 77/28/2 81/1/2 82/2/2 76/26/2
f 76/26/2 82/2/2 83/32/2 72/22/2
f 72/22/2 83/32/2 80/31/2 78/29/2
f 56/30/2 84/9/2 85/10/2 78/29/2
f 78/29/2 85/10/2 86/33/2 72/22/2
f 72/22/2 86/33/2 87/34/2 73/21/2
f 73/21/2 87/34/2 84/9/2 56/30/2
f 77/28/2 88/36/2 89/35/2 62/25/2
f 62/25/2 89/35/2 90/7/2 75/24/2
f 75/24/2 90/7/2 91/8/2 76/26/2
f 76/26/2 91/8/2 88/36/2 77/28/2
f 87/34/5 98/34/5 97/9/5 84/9/5
f 88/36/3 101/36/3 100/35/3 89/35/3
f 82/2/4 95/2/4 94/32/4 83/32/4
f 85/10/1 96/10/1 99/33/1 86/33/1
f 91/8/5 102/8/5 101/36/5 88/36/5
f 80/31/3 93/31/3 92/1/3 81/1/3
f 86/33/4 99/33/4 98/34/4 87/34/4
f 89/35/1 100/35/1 103/7/1 90/7/1
f 83/32/5 94/32/5 93/31/5 80/31/5
f 15/11/3 6/18/3 104/18/3 105/11/3
f 65/11/4 66/12/4 112/12/4 111/11/4
f 16/15/1 58/16/1 108/16/1 106/15/1
f 5/20/3 3/16/3 64/16/3 14/20/3
f 61/18/4 65/11/4 111/11/4 110/18/4
f 6/18/3 5/20/3 14/20/3 104/18/3
f 17/12/3 15/11/3 105/11/3 107/12/3
f 58/16/4 60/20/4 109/20/4 108/16/4
usemtl glass_opaque
f 45/37/2 44/38/2 47/39/2 46/40/2
f 49/41/2 48/42/2 51/43/2 50/44/2
f 53/45/2 52/46/2 55/47/2 54/48/2
f 93/37/2 94/40/2 95/39/2 92/38/2
f 97/41/2 98/44/2 99/43/2 96/42/2
f 101/45/2 102/48/2 103/47/2 100/46/2
