# Blender 5.1.1
# www.blender.org
mtllib window_props_f.mtl
o window_props_f
v -0.467076 0.518516 -0.030259
v -0.467076 0.548975 -0.030259
v -0.467076 0.518516 -0.057639
v -0.467076 0.548975 -0.057639
v 0.000000 0.518516 -0.057639
v 0.000000 0.548975 -0.057639
v 0.000000 0.518516 -0.030259
v 0.000000 0.548975 -0.030259
v -0.467076 0.737781 -0.057639
v -0.467076 0.707321 -0.057639
v -0.467076 0.737781 -0.030259
v -0.467076 0.707321 -0.030259
v 0.000000 0.533746 -0.026650
v -0.467076 0.533746 -0.026650
v 0.000000 0.707321 -0.057639
v 0.000000 0.737781 -0.057639
v 0.000000 0.707321 -0.030259
v 0.000000 0.737781 -0.030259
v 0.000000 0.722551 -0.026650
v -0.467076 0.722551 -0.026650
v -0.468990 0.544650 -0.049899
v 0.000000 0.544650 -0.049899
v -0.468990 0.715394 -0.049899
v 0.000000 0.715394 -0.049899
v 0.467076 0.518516 -0.030259
v 0.467076 0.548975 -0.030259
v 0.467076 0.518516 -0.057639
v 0.467076 0.548975 -0.057639
v 0.467076 0.737781 -0.057639
v 0.467076 0.707321 -0.057639
v 0.467076 0.737781 -0.030259
v 0.467076 0.707321 -0.030259
v 0.467076 0.533746 -0.026650
v 0.467076 0.722551 -0.026650
v 0.468990 0.544650 -0.049899
v 0.468990 0.715394 -0.049899
vn -0.0000 0.2306 0.9731
vn -0.0000 -0.0000 1.0000
vn -0.0000 1.0000 -0.0000
vn -0.0000 -1.0000 -0.0000
vn -0.0000 -0.2306 0.9731
vt 1.229088 0.809327
vt 0.772134 0.809327
vt 0.772134 0.794014
vt 1.229088 0.794014
vt 1.229088 0.751782
vt 0.772134 0.751782
vt 0.772134 0.724997
vt 1.229088 0.724997
vt 1.229088 0.778702
vt 0.772134 0.778702
vt 0.772134 0.751916
vt 1.229088 0.751916
vt 1.229088 0.836112
vt 0.772134 0.836112
vt 0.772134 0.709684
vt 1.229088 0.709684
vt 1.229088 0.694372
vt 0.772134 0.694372
vt 0.772134 0.667586
vt 1.229088 0.667586
vt 0.770262 0.500409
vt 1.229088 0.500409
vt 1.229088 0.667453
vt 0.770262 0.667453
s 1
usemtl wood_a
f 8/1/1 2/2/1 14/3/2 13/4/2
f 16/5/3 9/6/3 11/7/3 18/8/3
f 7/9/4 1/10/4 3/11/4 5/12/4
f 6/13/3 4/14/3 2/2/3 8/1/3
f 13/4/2 14/3/2 1/10/5 7/9/5
f 18/8/1 11/7/1 20/15/2 19/16/2
f 17/17/4 12/18/4 10/19/4 15/20/4
f 19/16/2 20/15/2 12/18/5 17/17/5
f 21/21/2 22/22/2 24/23/2 23/24/2
f 8/1/1 13/4/2 33/3/2 26/2/1
f 16/5/3 18/8/3 31/7/3 29/6/3
f 7/9/4 5/12/4 27/11/4 25/10/4
f 6/13/3 8/1/3 26/2/3 28/14/3
f 13/4/2 7/9/5 25/10/5 33/3/2
f 18/8/1 19/16/2 34/15/2 31/7/1
f 17/17/4 15/20/4 30/19/4 32/18/4
f 19/16/2 17/17/5 32/18/5 34/15/2
f 35/21/2 36/24/2 24/23/2 22/22/2
