# Blender 5.1.1
# www.blender.org
o window_props_e
v -0.495803 0.308854 0.204994
v 0.495803 0.308854 0.204994
v -0.495803 0.378463 0.204994
v 0.495803 0.378463 0.204994
v -0.495803 0.378463 -0.105880
v -0.495803 0.286280 -0.105880
v 0.495803 0.286280 -0.105880
v 0.495803 0.378463 -0.105880
v 0.495803 0.378463 0.159547
v 0.495803 0.286280 0.159547
v -0.495803 0.286280 0.159547
v -0.495803 0.378463 0.159547
v 0.495803 0.378463 0.159547
v -0.495803 0.378463 0.159547
v 0.495803 0.992244 0.159547
v -0.495803 0.992244 0.159547
v 0.495803 0.378463 -0.006450
v -0.495803 0.378463 -0.006450
v 0.495803 0.992244 -0.006450
v -0.495803 0.992244 -0.006450
vn -0.0000 -0.0000 -1.0000
vn -1.0000 -0.0000 -0.0000
vn 1.0000 -0.0000 -0.0000
vn -0.0000 -1.0000 -0.0000
vn -0.0000 1.0000 -0.0000
vn -0.0000 0.8956 -0.4449
vt 0.000000 0.000000
vt 0.000000 1.000000
vt 1.000000 1.000000
vt 1.000000 0.000000
s 0
f 1/1/1 3/2/1 4/3/1 2/4/1
f 10/4/2 9/3/2 8/3/2 7/4/2
f 12/2/3 11/1/3 6/1/3 5/2/3
f 9/3/4 12/2/4 5/2/4 8/3/4
f 11/1/5 10/4/5 7/4/5 6/1/5
f 1/1/6 2/4/6 10/4/6 11/1/6
f 4/3/4 3/2/4 12/2/4 9/3/4
f 3/2/3 1/1/3 11/1/3 12/2/3
f 2/4/2 4/3/2 9/3/2 10/4/2
f 13/3/1 14/2/1 16/2/1 15/3/1
f 16/2/3 14/2/3 18/2/3 20/2/3
f 13/3/2 15/3/2 19/3/2 17/3/2
