# Blender 5.1.1
# www.blender.org
mtllib window_props_c.mtl
o window_props_c
v -0.522114 0.403293 0.123891
v -0.522114 0.501859 0.123891
v -0.522114 0.403293 -0.023016
v -0.522114 0.501859 -0.023016
v -0.407457 0.403293 -0.016312
v -0.447765 0.403293 -0.016312
v -0.407457 0.252700 -0.016312
v -0.447765 0.252700 -0.016312
v -0.447765 0.252700 0.027298
v -0.407457 0.252700 0.027298
v -0.407457 0.371007 0.085736
v -0.407457 0.371009 -0.016312
v -0.447765 0.371009 -0.016312
v -0.447765 0.371007 0.085736
v -0.447765 0.279832 -0.016312
v -0.447765 0.279821 0.024569
v -0.447765 0.266200 0.035357
v -0.407457 0.279832 -0.016312
v -0.407457 0.266200 0.035357
v -0.407457 0.279821 0.024569
v -0.447765 0.403293 0.088230
v -0.407457 0.403293 0.088230
v 0.522114 0.403293 0.123891
v 0.522114 0.501859 0.123891
v 0.522114 0.403293 -0.023016
v 0.522114 0.501859 -0.023016
v 0.407457 0.403293 -0.016312
v 0.447765 0.403293 -0.016312
v 0.407457 0.252700 -0.016312
v 0.447765 0.252700 -0.016312
v 0.447765 0.252700 0.027298
v 0.407457 0.252700 0.027298
v 0.407457 0.371007 0.085736
v 0.407457 0.371009 -0.016312
v 0.447765 0.371009 -0.016312
v 0.447765 0.371007 0.085736
v 0.447765 0.279832 -0.016312
v 0.447765 0.279821 0.024569
v 0.447765 0.266200 0.035357
v 0.407457 0.279832 -0.016312
v 0.407457 0.266200 0.035357
v 0.407457 0.279821 0.024569
v 0.447765 0.403293 0.088230
v 0.407457 0.403293 0.088230
vn -1.0000 -0.0000 -0.0000
vn -0.0000 -1.0000 -0.0000
vn -0.0000 -0.0000 1.0000
vn -0.0000 -0.0770 0.9970
vn 1.0000 -0.0000 -0.0000
vn -0.0000 0.6208 0.7839
vn -0.0000 -0.5125 0.8587
vn -0.0000 -0.5571 0.8305
vn -0.0000 1.0000 -0.0000
vt 0.109858 0.890142
vt 0.183510 0.890142
vt 0.183510 0.999915
vt 0.109858 0.999915
vt 0.000085 0.890142
vt 0.000085 0.109858
vt 0.109858 0.109858
vt 0.183510 0.109858
vt 0.408526 0.184142
vt 0.396380 0.185045
vt 0.400329 0.155491
vt 0.423219 0.164850
vt 0.330075 0.279843
vt 0.302434 0.250157
vt 0.327110 0.237436
vt 0.345912 0.259522
vt 0.437817 0.189437
vt 0.416409 0.195900
vt 0.293452 0.158070
vt 0.321977 0.155491
vt 0.412676 0.309213
vt 0.421625 0.283593
vt 0.403839 0.185899
vt 0.413506 0.199579
vt 0.412166 0.206733
vt 0.440191 0.211310
vt 0.109858 0.000085
vt 0.183510 0.000085
vt 0.415869 0.030431
vt 0.433400 0.014424
vt 0.445742 0.038070
vt 0.415979 0.042930
vt 0.321872 0.107180
vt 0.341624 0.092243
vt 0.362625 0.111215
vt 0.349851 0.133461
vt 0.404071 0.023007
vt 0.409464 0.001874
vt 0.445742 0.121458
vt 0.441178 0.155322
vt 0.293452 0.026764
vt 0.318395 0.018094
vt 0.414571 0.035317
vt 0.393714 0.027417
vt 0.400644 0.025957
vt 0.388729 0.000085
vt 0.293283 0.109858
vt 0.293283 0.890142
s 0
usemtl wall
f 1/1/1 2/2/1 4/3/1 3/4/1
f 3/5/2 25/6/2 23/7/2 1/1/2
f 1/1/3 23/7/3 24/8/3 2/2/3
f 9/9/1 16/10/1 15/11/1 8/12/1
f 22/13/4 21/14/4 14/15/4 11/16/4
f 8/12/2 7/17/2 10/18/2 9/9/2
f 21/14/1 6/19/1 13/20/1 14/15/1
f 5/21/5 22/13/5 11/16/5 12/22/5
f 17/23/6 19/24/6 20/25/6 16/10/6
f 17/23/1 16/10/1 9/9/1
f 20/25/5 19/24/5 10/18/5
f 14/15/1 13/20/1 15/11/1 16/10/1
f 19/24/7 17/23/7 9/9/7 10/18/7
f 11/16/8 14/15/8 16/10/8 20/25/8
f 12/22/5 11/16/5 20/25/5 18/26/5
f 18/26/5 20/25/5 10/18/5 7/17/5
f 23/7/5 25/27/5 26/28/5 24/8/5
f 31/29/5 30/30/5 37/31/5 38/32/5
f 44/33/4 33/34/4 36/35/4 43/36/4
f 30/30/2 31/29/2 32/37/2 29/38/2
f 43/36/5 36/35/5 35/39/5 28/40/5
f 27/41/1 34/42/1 33/34/1 44/33/1
f 39/43/6 38/32/6 42/44/6 41/45/6
f 39/43/5 31/29/5 38/32/5
f 42/44/1 32/37/1 41/45/1
f 36/35/5 38/32/5 37/31/5 35/39/5
f 41/45/7 32/37/7 31/29/7 39/43/7
f 33/34/8 42/44/8 38/32/8 36/35/8
f 34/42/1 40/46/1 42/44/1 33/34/1
f 40/46/1 29/38/1 32/37/1 42/44/1
f 2/2/9 24/8/9 26/47/9 4/48/9
