# Blender 5.1.1
# www.blender.org
mtllib window_props_b.mtl
o window_props_b
v -0.463030 0.970038 -0.058994
v 0.448406 0.970039 -0.058994
v -0.463030 0.950214 -0.047548
v 0.448406 0.950214 -0.047548
v -0.463030 0.950214 -0.024657
v 0.448406 0.950214 -0.024657
v -0.463030 0.970038 -0.013211
v 0.448406 0.970039 -0.013211
v -0.463030 0.989863 -0.024657
v 0.448406 0.989863 -0.024657
v -0.463030 0.989863 -0.047548
v 0.448406 0.989863 -0.047548
vn -0.0000 -0.0000 -1.0000
vn -0.0000 -0.8660 -0.5000
vn -0.0000 -0.8660 0.5000
vn -0.0000 -0.0000 1.0000
vn -0.0000 0.8660 0.5000
vn -0.0000 0.8660 -0.5000
vt 0.167757 0.071246
vt 0.167757 0.555206
vt 0.143358 0.555206
vt 0.143358 0.071246
vt 0.118959 0.555206
vt 0.118959 0.071246
vt 0.094560 0.555206
vt 0.094560 0.071246
vt 0.070161 0.555206
vt 0.070161 0.071246
vt 0.045762 0.555206
vt 0.045762 0.071246
vt 0.021363 0.555206
vt 0.021363 0.071246
s 1
usemtl metal
f 1/1/1 2/2/1 4/3/2 3/4/2
f 3/4/2 4/3/2 6/5/3 5/6/3
f 5/6/3 6/5/3 8/7/4 7/8/4
f 7/8/4 8/7/4 10/9/5 9/10/5
f 9/10/5 10/9/5 12/11/6 11/12/6
f 11/12/6 12/11/6 2/13/1 1/14/1
