# Blender 5.1.1
# www.blender.org
mtllib window_b.mtl
o window_b
v -1.000000 0.000000 -0.000000
v 1.000000 0.000000 -0.000000
v -1.000000 2.800000 0.000000
v 1.000000 2.800000 0.000000
v -0.621086 0.337786 -0.000000
v -0.620026 1.993922 0.000000
v 0.621086 0.337786 -0.000000
v 0.620026 1.993922 0.000000
v -0.521027 1.969519 -0.086706
v -0.522018 0.436799 -0.086706
v 0.522018 0.436799 -0.086706
v 0.521027 1.969519 -0.086706
v -0.634167 1.994314 -0.086706
v -0.635251 0.300408 -0.086706
v 0.635251 0.300408 -0.086706
v 0.634167 1.994314 -0.086706
v -0.521027 1.969519 -0.247032
v -0.522018 0.436799 -0.247032
v 0.522018 0.436799 -0.247032
v 0.521027 1.969519 -0.247032
v -0.521027 2.474090 -0.247032
v 0.521027 2.474090 -0.247032
v 0.560015 1.856754 -0.159828
v 0.560015 1.810922 -0.137996
v 0.560015 2.464859 -0.159828
v 0.560015 0.391935 -0.159828
v -0.560015 0.391935 -0.159828
v -0.560015 2.464861 -0.159828
v 0.560015 1.849280 -0.137996
v 0.560015 1.803448 -0.159828
v -0.560015 1.810922 -0.137996
v -0.560015 1.856754 -0.159828
v -0.560015 1.849280 -0.137996
v -0.560015 1.803448 -0.159828
v 0.560015 1.091553 -0.137996
v 0.560015 1.137386 -0.159828
v 0.560015 1.129912 -0.137996
v 0.560015 1.084079 -0.159828
v -0.560015 1.091553 -0.137996
v -0.560015 1.137386 -0.159828
v -0.560015 1.129912 -0.137996
v -0.560015 1.084079 -0.159828
v -0.089096 2.513172 0.000000
v 0.089096 2.513172 0.000000
v 0.261306 2.460535 0.000000
v 0.415342 2.355537 0.000000
v 0.538810 2.199322 0.000000
v 0.551098 2.204399 -0.086706
v 0.424815 2.364177 -0.086706
v 0.267266 2.471569 -0.086706
v 0.091128 2.525406 -0.086706
v -0.091128 2.525407 -0.086706
v -0.267266 2.471569 -0.086706
v -0.424815 2.364177 -0.086706
v -0.551098 2.204399 -0.086706
v 0.450444 2.148451 -0.086706
v 0.345824 2.280948 -0.086706
v 0.217197 2.368607 -0.086706
v 0.074034 2.412328 -0.086706
v -0.074034 2.412328 -0.086706
v -0.217197 2.368607 -0.086706
v -0.345824 2.280948 -0.086706
v -0.450445 2.148451 -0.086706
v 0.450444 2.148451 -0.247032
v 0.345824 2.280948 -0.247032
v 0.217197 2.368607 -0.247032
v 0.074034 2.412328 -0.247032
v -0.074034 2.412328 -0.247032
v -0.217197 2.368607 -0.247032
v -0.345824 2.280948 -0.247032
v -0.450445 2.148451 -0.247032
v 1.000000 2.076572 0.000000
v 1.000000 2.306898 0.000000
v 1.000000 2.536659 0.000000
v 0.458803 2.800000 0.000000
v -0.261306 2.460535 0.000000
v 0.088989 2.800000 0.000000
v 0.797841 2.077985 0.000000
v 0.719223 2.305045 0.000000
v 0.606593 2.540230 0.000000
v 0.810543 0.168893 -0.000000
v -0.415342 2.355537 0.000000
v -0.538810 2.199322 0.000000
v -1.000000 2.076572 0.000000
v -1.000000 2.306898 0.000000
v -1.000000 2.536659 0.000000
v -0.458803 2.800000 0.000000
v -0.088989 2.800000 0.000000
v -0.797841 2.077985 0.000000
v -0.719223 2.305045 0.000000
v -0.606593 2.540230 0.000000
v -0.810543 0.168893 -0.000000
v -0.522018 0.436799 -0.247032
v 0.522018 0.436799 -0.247032
v -0.621086 0.337786 -0.115484
v -0.620026 1.993922 -0.115484
v 0.621086 0.337786 -0.115484
v 0.620026 1.993922 -0.115484
v -0.538810 2.199322 -0.115484
v 0.538810 2.199322 -0.115484
v 0.415342 2.355537 -0.115484
v 0.261306 2.460535 -0.115484
v 0.089096 2.513172 -0.115484
v -0.415342 2.355537 -0.115484
v -0.261306 2.460535 -0.115484
v -0.089096 2.513172 -0.115484
vn 1.0000 -0.0006 -0.0000
vn -1.0000 -0.0006 -0.0000
vn -0.0000 -0.0000 1.0000
vn -0.0000 1.0000 -0.0000
vn -0.0000 -0.9461 0.3239
vn -0.0000 0.9461 0.3239
vn 0.9302 -0.3669 -0.0000
vn -0.2923 -0.9563 -0.0000
vn -0.5632 -0.8263 -0.0000
vn -0.7845 -0.6201 -0.0000
vn -0.9299 -0.3677 -0.0000
vn 0.7848 -0.6197 -0.0000
vn 0.5632 -0.8263 -0.0000
vn 0.2921 -0.9564 -0.0000
vn -0.0000 -1.0000 -0.0000
vn -0.2921 -0.9564 -0.0000
vn -0.5632 -0.8264 -0.0000
vn -0.7848 -0.6197 -0.0000
vn -0.9302 -0.3669 -0.0000
vn 0.9299 -0.3677 -0.0000
vn 0.2923 -0.9563 -0.0000
vn 0.7845 -0.6201 -0.0000
vt -0.012320 1.720247
vt 0.029471 1.720247
vt 0.029471 0.922016
vt -0.012321 0.922016
vt 0.150630 0.238697
vt -0.004846 0.238697
vt -0.004846 0.359308
vt 0.150630 0.359308
vt 0.104218 0.116902
vt 0.104218 0.883098
vt 0.000042 0.999958
vt 0.000042 0.000042
vt 0.238450 0.216207
vt 0.241616 1.038824
vt 0.188929 1.077971
vt 0.188929 0.169343
vt 0.760534 0.216207
vt 0.810055 0.169343
vt 0.757369 1.038824
vt 0.810055 1.077971
vt 0.360352 0.009829
vt 0.704396 0.009829
vt 0.704070 0.835278
vt 0.360679 0.835278
vt 0.000019 0.337123
vt 0.000019 0.000019
vt 0.035281 0.000019
vt 0.035281 0.337123
vt 0.095310 0.379563
vt 0.095310 0.620437
vt 0.058320 0.620437
vt 0.058320 0.379563
vt 0.000019 0.999981
vt 0.000019 0.662876
vt 0.035281 0.662876
vt 0.035281 0.999981
vt 0.000000 0.000000
vt 1.000000 0.000000
vt 1.000000 1.000000
vt 0.000000 1.000000
vt 0.001078 0.800143
vt 0.001078 0.775680
vt 1.001077 0.775680
vt 1.001077 0.800143
vt 0.001078 0.755613
vt 1.001077 0.755613
vt 0.001078 0.820210
vt 1.001077 0.820210
vt -0.000153 0.229241
vt -0.000153 0.204778
vt 0.999847 0.204778
vt 0.999847 0.229241
vt -0.000153 0.184712
vt 0.999847 0.184712
vt -0.000153 0.249308
vt 0.999847 0.249308
vt 0.092928 1.070029
vt 0.100739 1.114889
vt 0.101297 0.096101
vt 0.092974 0.186231
vt 0.298922 1.038824
vt 0.257943 1.077971
vt 0.035281 0.379429
vt 0.000019 0.379429
vt 0.175451 0.116902
vt 0.175451 0.883098
vt -0.012321 0.542943
vt 0.029470 0.542943
vt 0.029470 0.629736
vt -0.012321 0.629736
vt 0.029470 0.719587
vt -0.012321 0.719587
vt 0.029470 0.815558
vt -0.012321 0.815558
vt 0.356227 1.038824
vt 0.326957 1.077971
vt 0.413533 1.038824
vt 0.395971 1.077971
vt 0.470839 1.038824
vt 0.464985 1.077971
vt 0.528145 1.038824
vt 0.533999 1.077971
vt 0.585451 1.038824
vt 0.603013 1.077971
vt 0.642757 1.038824
vt 0.672027 1.077971
vt 0.700063 1.038824
vt 0.741041 1.077971
vt 0.035281 0.416559
vt 0.000019 0.416559
vt 0.035281 0.450794
vt 0.000019 0.450794
vt 0.035281 0.483717
vt 0.000019 0.483717
vt 0.035281 0.516283
vt 0.000019 0.516283
vt 0.035281 0.549206
vt 0.000019 0.549206
vt 0.035281 0.583441
vt 0.000019 0.583441
vt 0.035281 0.620571
vt 0.000019 0.620571
vt 0.150630 0.359308
vt 0.048433 0.359308
vt 0.048433 0.238697
vt 0.150630 0.238697
vt -0.004846 0.238697
vt -0.004846 0.359308
vt 0.150630 0.359308
vt 0.109620 0.005971
vt 0.109620 1.114136
vt 0.039860 0.238355
vt 0.039860 0.359602
vt -0.004731 0.359602
vt -0.004731 0.238355
vt 0.150610 0.359530
vt 0.150611 0.238427
vt 0.904790 0.085048
vt 0.999524 0.000753
s 0
usemtl wall
f 10/13/3 9/14/3 13/15/3 14/16/3
f 11/17/3 10/13/3 14/16/3 15/18/3
f 12/19/3 11/17/3 15/18/3 16/20/3
f 9/25/1 10/26/1 93/27/1 17/28/1
f 10/29/4 11/30/4 94/31/4 93/32/4
f 11/33/2 12/34/2 20/35/2 94/36/2
f 13/15/3 9/14/3 63/61/3 55/62/3
f 9/25/7 17/28/7 71/63/7 63/64/7
f 55/62/3 63/61/3 62/75/3 54/76/3
f 54/76/3 62/75/3 61/77/3 53/78/3
f 53/78/3 61/77/3 60/79/3 52/80/3
f 52/80/3 60/79/3 59/81/3 51/82/3
f 51/82/3 59/81/3 58/83/3 50/84/3
f 50/84/3 58/83/3 57/85/3 49/86/3
f 49/86/3 57/85/3 56/87/3 48/88/3
f 48/88/3 56/87/3 12/19/3 16/20/3
f 63/64/12 71/63/12 70/89/12 62/90/12
f 62/90/13 70/89/13 69/91/13 61/92/13
f 61/92/14 69/91/14 68/93/14 60/94/14
f 60/94/15 68/93/15 67/95/15 59/96/15
f 59/96/16 67/95/16 66/97/16 58/98/16
f 58/98/17 66/97/17 65/99/17 57/100/17
f 57/100/18 65/99/18 64/101/18 56/102/18
f 56/102/19 64/101/19 20/35/19 12/34/19
f 81/118/3 92/118/3 1/119/3 2/119/3
usemtl curtains
f 18/21/3 19/22/3 22/23/3 21/24/3
usemtl wood
f 33/41/3 31/42/3 24/43/3 29/44/3
f 31/42/5 34/45/5 30/46/5 24/43/5
f 32/47/6 33/41/6 29/44/6 23/48/6
f 41/49/3 39/50/3 35/51/3 37/52/3
f 39/50/5 42/53/5 38/54/5 35/51/5
f 40/55/6 41/49/6 37/52/6 36/56/6
usemtl wall
f 5/1/1 95/2/1 96/3/1 6/4/1
f 7/1/2 8/4/2 98/3/2 97/2/2
f 87/5/3 76/6/3 43/7/3 88/8/3
f 7/9/3 5/10/3 92/11/3 81/12/3
f 6/57/3 89/58/3 92/59/3 5/60/3
f 97/65/4 95/66/4 5/10/4 7/9/4
f 44/67/8 103/68/8 102/69/8 45/70/8
f 45/70/9 102/69/9 101/71/9 46/72/9
f 46/72/10 101/71/10 100/73/10 47/74/10
f 47/74/11 100/73/11 98/3/11 8/4/11
f 73/103/3 79/104/3 78/105/3 72/106/3
f 8/107/3 78/105/3 79/104/3 47/108/3
f 46/108/3 47/107/3 79/105/3 80/104/3
f 73/106/3 74/109/3 80/104/3 79/105/3
f 4/109/3 75/104/3 80/105/3 74/106/3
f 75/5/3 77/8/3 44/7/3 45/6/3
f 75/104/3 45/108/3 46/107/3 80/105/3
f 8/57/3 7/60/3 81/59/3 78/58/3
f 78/58/3 81/59/3 2/110/3 72/111/3
f 85/103/3 84/106/3 89/105/3 90/104/3
f 83/74/20 6/4/20 96/3/20 99/73/20
f 6/107/3 83/108/3 90/104/3 89/105/3
f 85/106/3 90/105/3 91/104/3 86/109/3
f 3/109/3 86/106/3 91/105/3 87/104/3
f 43/67/21 76/70/21 105/69/21 106/68/21
f 82/108/3 91/104/3 90/105/3 83/107/3
f 76/70/13 82/72/13 104/71/13 105/69/13
f 82/72/22 83/74/22 99/73/22 104/71/22
f 44/112/15 43/113/15 106/114/15 103/115/15
f 89/58/3 84/111/3 1/110/3 92/59/3
f 87/104/3 91/105/3 82/107/3 76/108/3
f 88/116/3 43/113/3 44/112/3 77/117/3
usemtl glass
f 27/37/3 26/38/3 25/39/3 28/40/3
