# Blender 5.1.1
# www.blender.org
mtllib window_a.mtl
o window_a
v -1.000000 0.000000 -0.000000
v 1.000000 0.000000 -0.000000
v -1.000000 2.800000 0.000000
v 1.000000 2.800000 0.000000
v -1.000000 2.545929 0.000000
v -1.000000 0.254070 -0.000000
v 1.000000 0.254071 -0.000000
v 1.000000 2.545929 0.000000
v -0.440002 2.198826 -0.204305
v -0.440002 0.503882 -0.204305
v 0.440002 0.503882 -0.204305
v 0.440002 2.198825 -0.204305
v -0.537631 2.304091 0.000000
v -0.537631 0.398616 -0.000000
v 0.537631 0.398616 -0.000000
v 0.537631 2.304091 0.000000
v 0.440002 1.618775 -0.140019
v 0.440002 1.654786 -0.157173
v -0.440002 2.198825 -0.016172
v -0.456173 2.219905 0.000000
v 0.440002 2.198825 -0.157173
v -0.456173 0.482803 -0.000000
v -0.440002 0.503882 -0.016172
v 0.440002 0.503882 -0.157173
v 0.440002 0.503882 -0.016172
v 0.459427 0.482938 -0.000000
v -0.440002 0.503882 -0.157173
v 0.459427 2.219769 0.000000
v 0.440002 2.198825 -0.016172
v -0.440002 2.198826 -0.157173
v 0.440002 1.648913 -0.140019
v 0.440002 1.612903 -0.157173
v 0.044161 2.198826 -0.130756
v -0.044161 2.198826 -0.130756
v 0.057410 2.198826 -0.157173
v -0.057410 2.198826 -0.157173
v -0.053528 2.198826 -0.140019
v 0.053528 2.198826 -0.140019
v -0.440002 1.618775 -0.140019
v -0.440002 1.654786 -0.157173
v -0.440002 1.648913 -0.140019
v -0.440002 1.612903 -0.157173
v 0.440002 1.053570 -0.140019
v 0.440002 1.089581 -0.157173
v 0.440002 1.083708 -0.140019
v 0.440002 1.047698 -0.157173
v -0.440002 1.053570 -0.140019
v -0.440002 1.089581 -0.157173
v -0.440002 1.083708 -0.140019
v -0.440002 1.047698 -0.157173
v 0.044161 0.503882 -0.130756
v -0.044161 0.503882 -0.130756
v 0.057410 0.503882 -0.157173
v -0.057410 0.503882 -0.157173
v -0.053528 0.503882 -0.140019
v 0.053528 0.503882 -0.140019
v -0.440002 2.198826 -0.204305
v -0.440002 0.503882 -0.204305
v 0.440002 2.198825 -0.204305
v 0.440002 0.503882 -0.204305
vn -0.0000 -0.0000 1.0000
vn -0.6398 -0.0000 0.7685
vn -0.0000 0.6099 0.7925
vn -0.0000 -0.6099 0.7925
vn -0.0000 -1.0000 -0.0000
vn 1.0000 -0.0000 -0.0000
vn -0.0000 1.0000 -0.0000
vn -1.0000 -0.0000 -0.0000
vn -0.0000 -0.9461 0.3239
vn -0.0000 0.9461 0.3239
vn 0.7071 -0.0000 0.7071
vn -0.9753 -0.0000 0.2207
vn 0.9753 -0.0000 0.2207
vn -0.7032 -0.0000 0.7110
vn 0.7032 -0.0000 0.7110
vt 0.000613 1.134883
vt 0.998196 1.134883
vt 0.998196 1.247681
vt 0.000613 1.247681
vt 0.231238 0.181554
vt 0.231238 1.027516
vt 0.000613 0.117381
vt 0.767570 1.027516
vt 0.767570 0.181555
vt 0.998196 0.117381
vt 0.990082 0.302215
vt 0.990082 0.663491
vt -0.003423 0.663491
vt -0.003423 0.302215
vt 0.998196 0.004583
vt 0.000613 0.004583
vt 0.684036 0.043985
vt 0.702607 0.054976
vt 0.702607 0.944488
vt 0.684036 0.955480
vt 0.870850 0.068342
vt 0.870760 0.919856
vt 0.850273 0.901790
vt 0.850300 0.083381
vt 0.546027 0.922982
vt 0.525477 0.907943
vt 0.525449 0.089534
vt 0.545937 0.071468
vt 0.996029 -0.002140
vt 0.996028 0.997860
vt -0.003971 0.997860
vt -0.003971 -0.002140
vt 0.601951 -0.001262
vt 0.601951 0.998738
vt 0.993095 -0.003982
vt 0.993095 0.996018
vt 0.779308 0.996018
vt 0.779308 -0.003982
vt 0.219770 -0.002417
vt 0.219769 0.997582
vt 0.021714 0.997582
vt 0.021715 -0.002418
vt 0.549268 -0.002751
vt 0.549268 0.997248
vt 0.335482 0.997248
vt 0.335481 -0.002751
vt 0.626578 0.999732
vt 0.626578 -0.000268
vt 0.338542 0.998812
vt 0.338542 -0.001187
vt 0.493938 -0.001187
vt 0.493938 0.998812
vt 0.078859 0.949711
vt 0.078859 0.038073
vt 0.154315 -0.006108
vt 0.154315 0.993892
vt 0.926774 -0.007414
vt 0.926774 0.992586
vt 0.705444 0.003076
vt 0.729907 0.003076
vt 0.729907 1.003076
vt 0.705444 1.003076
vt 0.749974 0.003076
vt 0.749974 1.003076
vt 0.685377 0.003076
vt 0.685377 1.003076
vt 0.773682 0.001846
vt 0.798145 0.001846
vt 0.798145 1.001845
vt 0.773682 1.001845
vt 0.818212 0.001846
vt 0.818212 1.001845
vt 0.057674 0.938648
vt 0.057674 0.049136
vt 0.753615 0.001846
vt 0.753615 1.001845
vt 0.197043 -0.312993
vt 0.222628 -0.312993
vt 0.222628 1.666188
vt 0.197042 1.666188
vt 0.049387 -0.312993
vt 0.177878 -0.312993
vt 0.177877 1.666188
vt 0.049387 1.666188
vt 0.004636 -0.312993
vt 0.030222 -0.312993
vt 0.030222 1.666188
vt 0.004636 1.666188
s 0
usemtl plank
f 28/17/2 29/18/2 25/19/2 26/20/2
f 22/21/3 26/22/3 25/23/3 23/24/3
f 20/25/4 19/26/4 29/27/4 28/28/4
f 20/25/1 28/28/1 16/33/1 13/34/1
f 29/35/5 19/36/5 9/37/5 12/38/5
f 19/39/6 23/40/6 10/41/6 9/42/6
f 23/43/7 25/44/7 11/45/7 10/46/7
f 15/47/1 16/48/1 28/17/1 26/20/1
f 25/49/8 29/50/8 12/51/8 11/52/8
f 22/53/1 20/54/1 13/55/1 14/56/1
f 26/22/1 22/21/1 14/57/1 15/58/1
f 41/59/1 39/60/1 17/61/1 31/62/1
f 39/60/9 42/63/9 32/64/9 17/61/9
f 40/65/10 41/59/10 31/62/10 18/66/10
f 49/67/1 47/68/1 43/69/1 45/70/1
f 47/68/9 50/71/9 46/72/9 43/69/9
f 22/53/11 23/73/11 19/74/11 20/54/11
f 48/75/10 49/67/10 45/70/10 44/76/10
f 37/77/12 36/78/12 54/79/12 55/80/12
f 33/81/1 34/82/1 52/83/1 51/84/1
f 35/85/13 38/86/13 56/87/13 53/88/13
f 34/82/14 37/77/14 55/80/14 52/83/14
f 38/86/15 33/81/15 51/84/15 56/87/15
usemtl bricks
f 5/1/1 8/2/1 4/3/1 3/4/1
f 14/5/1 13/6/1 5/1/1 6/7/1
f 16/8/1 15/9/1 7/10/1 8/2/1
f 15/9/1 14/5/1 6/7/1 7/10/1
f 13/6/1 16/8/1 8/2/1 5/1/1
f 2/15/1 7/10/1 6/7/1 1/16/1
usemtl glass
f 27/29/1 24/30/1 21/31/1 30/32/1
usemtl curtains
f 58/11/1 60/12/1 59/13/1 57/14/1
