# Blender 5.1.1
# www.blender.org
mtllib wooden_case.mtl
o wooden_case
v -0.260454 -0.248047 0.250000
v -0.260454 -0.120394 0.250000
v -0.260454 -0.248047 -0.250000
v -0.260454 -0.120394 -0.250000
v -0.244074 -0.248047 0.250000
v -0.244074 -0.120394 0.250000
v -0.244074 -0.248047 -0.250000
v -0.244074 -0.120394 -0.250000
v -0.260454 0.014552 -0.250000
v -0.260454 -0.113101 -0.250000
v -0.260454 0.014552 0.250000
v -0.260454 -0.113101 0.250000
v -0.244074 0.014552 -0.250000
v -0.244074 -0.113101 -0.250000
v -0.244074 0.014552 0.250000
v -0.244074 -0.113101 0.250000
v -0.260454 0.026557 0.250000
v -0.260454 0.154210 0.250000
v -0.260454 0.026557 -0.250000
v -0.260454 0.154210 -0.250000
v -0.244074 0.026557 0.250000
v -0.244074 0.154210 0.250000
v -0.244074 0.026557 -0.250000
v -0.244074 0.154210 -0.250000
v 0.243715 -0.248047 0.250000
v 0.243715 -0.120394 0.250000
v 0.243715 -0.248047 -0.250000
v 0.243715 -0.120394 -0.250000
v 0.260095 -0.248047 0.250000
v 0.260095 -0.120394 0.250000
v 0.260095 -0.248047 -0.250000
v 0.260095 -0.120394 -0.250000
v 0.243715 -0.113101 0.250000
v 0.243715 0.014552 0.250000
v 0.243715 -0.113101 -0.250000
v 0.243715 0.014552 -0.250000
v 0.260095 -0.113101 0.250000
v 0.260095 0.014552 0.250000
v 0.260095 -0.113101 -0.250000
v 0.260095 0.014552 -0.250000
v 0.243715 0.026557 0.250000
v 0.243715 0.154210 0.250000
v 0.243715 0.026557 -0.250000
v 0.243715 0.154210 -0.250000
v 0.260095 0.026557 0.250000
v 0.260095 0.154210 0.250000
v 0.260095 0.026557 -0.250000
v 0.260095 0.154210 -0.250000
v 0.246456 -0.213987 0.250579
v 0.246456 -0.086334 0.250579
v -0.246456 -0.213987 0.250579
v -0.246456 -0.086334 0.250579
v 0.246456 -0.213987 0.234199
v 0.246456 -0.086334 0.234199
v -0.246456 -0.213987 0.234199
v -0.246456 -0.086334 0.234199
v 0.246456 -0.079040 0.250579
v 0.246456 0.048613 0.250579
v -0.246456 -0.079040 0.250579
v -0.246456 0.048613 0.250579
v 0.246456 -0.079040 0.234199
v 0.246456 0.048613 0.234199
v -0.246456 -0.079040 0.234199
v -0.246456 0.048613 0.234199
v 0.246456 0.060617 0.250579
v 0.246456 0.188270 0.250579
v -0.246456 0.060617 0.250579
v -0.246456 0.188270 0.250579
v 0.246456 0.060617 0.234199
v 0.246456 0.188270 0.234199
v -0.246456 0.060617 0.234199
v -0.246456 0.188270 0.234199
v 0.246456 -0.213987 -0.234058
v 0.246456 -0.086334 -0.234058
v -0.246456 -0.213987 -0.234058
v -0.246456 -0.086334 -0.234058
v 0.246456 -0.213987 -0.250439
v 0.246456 -0.086334 -0.250439
v -0.246456 -0.213987 -0.250439
v -0.246456 -0.086334 -0.250439
v 0.246456 -0.079040 -0.234058
v 0.246456 0.048613 -0.234058
v -0.246456 -0.079040 -0.234058
v -0.246456 0.048613 -0.234058
v 0.246456 -0.079040 -0.250439
v 0.246456 0.048613 -0.250439
v -0.246456 -0.079040 -0.250439
v -0.246456 0.048613 -0.250439
v 0.246456 0.060617 -0.234058
v 0.246456 0.188270 -0.234058
v -0.246456 0.060617 -0.234058
v -0.246456 0.188270 -0.234058
v 0.246456 0.060617 -0.250439
v 0.246456 0.188270 -0.250439
v -0.246456 0.060617 -0.250439
v -0.246456 0.188270 -0.250439
v -0.242726 -0.214709 0.250000
v -0.126659 -0.214709 0.250000
v -0.242726 -0.214709 -0.250000
v -0.126659 -0.214709 -0.250000
v -0.242726 -0.231089 0.250000
v -0.126659 -0.231089 0.250000
v -0.242726 -0.231089 -0.250000
v -0.126659 -0.231089 -0.250000
v -0.116385 -0.214709 0.250000
v -0.000319 -0.214709 0.250000
v -0.116385 -0.214709 -0.250000
v -0.000319 -0.214709 -0.250000
v -0.116385 -0.231089 0.250000
v -0.000319 -0.231089 0.250000
v -0.116385 -0.231089 -0.250000
v -0.000319 -0.231089 -0.250000
v 0.006953 -0.214709 0.250000
v 0.123019 -0.214709 0.250000
v 0.006953 -0.214709 -0.250000
v 0.123019 -0.214709 -0.250000
v 0.006953 -0.231089 0.250000
v 0.123019 -0.231089 0.250000
v 0.006953 -0.231089 -0.250000
v 0.123019 -0.231089 -0.250000
v 0.130371 -0.214709 0.250000
v 0.246437 -0.214709 0.250000
v 0.130371 -0.214709 -0.250000
v 0.246437 -0.214709 -0.250000
v 0.130371 -0.231089 0.250000
v 0.246437 -0.231089 0.250000
v 0.130371 -0.231089 -0.250000
v 0.246437 -0.231089 -0.250000
v 0.204151 -0.221401 0.235767
v 0.245785 -0.221401 0.235767
v 0.204151 0.188952 0.235767
v 0.245785 0.188952 0.235767
v 0.204151 -0.221401 0.201740
v 0.245785 -0.221401 0.201740
v 0.204151 0.188952 0.201740
v 0.245785 0.188952 0.201740
v -0.245175 -0.221401 0.235767
v -0.203541 -0.221401 0.235767
v -0.245175 0.188952 0.235767
v -0.203541 0.188952 0.235767
v -0.245175 -0.221401 0.201740
v -0.203541 -0.221401 0.201740
v -0.245175 0.188952 0.201740
v -0.203541 0.188952 0.201740
v 0.204151 -0.221401 -0.198900
v 0.245785 -0.221401 -0.198900
v 0.204151 0.188952 -0.198900
v 0.245785 0.188952 -0.198900
v 0.204151 -0.221401 -0.232927
v 0.245785 -0.221401 -0.232927
v 0.204151 0.188952 -0.232927
v 0.245785 0.188952 -0.232927
v -0.245175 -0.221401 -0.198900
v -0.203541 -0.221401 -0.198900
v -0.245175 0.188952 -0.198900
v -0.203541 0.188952 -0.198900
v -0.245175 -0.221401 -0.232927
v -0.203541 -0.221401 -0.232927
v -0.245175 0.188952 -0.232927
v -0.203541 0.188952 -0.232927
vn -1.0000 -0.0000 -0.0000
vn -0.0000 -0.0000 -1.0000
vn 1.0000 -0.0000 -0.0000
vn -0.0000 -0.0000 1.0000
vn -0.0000 -1.0000 -0.0000
vn -0.0000 1.0000 -0.0000
vt 0.209388 0.937156
vt 0.015646 0.937156
vt 0.015646 0.047016
vt 0.209388 0.047016
vt 0.194780 0.169045
vt 0.028382 0.170478
vt 0.017998 0.159412
vt 0.205055 0.158003
vt 0.015646 0.047016
vt 0.205055 0.847019
vt 0.017727 0.844082
vt 0.028206 0.833000
vt 0.194785 0.834463
vt 0.771772 0.942478
vt 0.589645 0.942478
vt 0.589645 0.032235
vt 0.771772 0.032235
vt 0.758040 0.157020
vt 0.601617 0.158486
vt 0.591856 0.147170
vt 0.767699 0.145729
vt 0.589645 0.032235
vt 0.767699 0.850305
vt 0.591601 0.847302
vt 0.601452 0.835969
vt 0.758045 0.837466
vt 0.419242 0.934061
vt 0.225972 0.934061
vt 0.225972 0.046090
vt 0.419242 0.046090
vt 0.404670 0.167822
vt 0.238677 0.169252
vt 0.228318 0.158213
vt 0.414920 0.156807
vt 0.225972 0.046090
vt 0.414920 0.844144
vt 0.228048 0.841215
vt 0.238502 0.830159
vt 0.404675 0.831619
s 0
usemtl wood
f 1/1/1 2/2/1 4/3/1 3/4/1
f 3/5/2 4/6/2 8/7/2 7/8/2
f 7/4/3 8/9/3 6/2/3 5/1/3
f 5/10/4 6/11/4 2/12/4 1/13/4
f 3/5/5 7/8/5 5/10/5 1/13/5
f 8/7/6 4/6/6 2/12/6 6/11/6
f 9/14/1 10/15/1 12/16/1 11/17/1
f 11/18/4 12/19/4 16/20/4 15/21/4
f 15/17/3 16/22/3 14/15/3 13/14/3
f 13/23/2 14/24/2 10/25/2 9/26/2
f 11/18/6 15/21/6 13/23/6 9/26/6
f 16/20/5 12/19/5 10/25/5 14/24/5
f 17/27/1 18/28/1 20/29/1 19/30/1
f 19/31/2 20/32/2 24/33/2 23/34/2
f 23/30/3 24/35/3 22/28/3 21/27/3
f 21/36/4 22/37/4 18/38/4 17/39/4
f 19/31/5 23/34/5 21/36/5 17/39/5
f 24/33/6 20/32/6 18/38/6 22/37/6
f 25/1/1 26/2/1 28/3/1 27/4/1
f 27/5/2 28/6/2 32/7/2 31/8/2
f 31/4/3 32/9/3 30/2/3 29/1/3
f 29/10/4 30/11/4 26/12/4 25/13/4
f 27/5/5 31/8/5 29/10/5 25/13/5
f 32/7/6 28/6/6 26/12/6 30/11/6
f 33/14/1 34/15/1 36/16/1 35/17/1
f 35/18/2 36/19/2 40/20/2 39/21/2
f 39/17/3 40/22/3 38/15/3 37/14/3
f 37/23/4 38/24/4 34/25/4 33/26/4
f 35/18/5 39/21/5 37/23/5 33/26/5
f 40/20/6 36/19/6 34/25/6 38/24/6
f 41/27/1 42/28/1 44/29/1 43/30/1
f 43/31/2 44/32/2 48/33/2 47/34/2
f 47/30/3 48/35/3 46/28/3 45/27/3
f 45/36/4 46/37/4 42/38/4 41/39/4
f 43/31/5 47/34/5 45/36/5 41/39/5
f 48/33/6 44/32/6 42/38/6 46/37/6
f 49/1/4 50/2/4 52/3/4 51/4/4
f 51/5/1 52/6/1 56/7/1 55/8/1
f 55/4/2 56/9/2 54/2/2 53/1/2
f 53/10/3 54/11/3 50/12/3 49/13/3
f 51/5/5 55/8/5 53/10/5 49/13/5
f 56/7/6 52/6/6 50/12/6 54/11/6
f 57/14/4 58/15/4 60/16/4 59/17/4
f 59/18/1 60/19/1 64/20/1 63/21/1
f 63/17/2 64/22/2 62/15/2 61/14/2
f 61/23/3 62/24/3 58/25/3 57/26/3
f 59/18/5 63/21/5 61/23/5 57/26/5
f 64/20/6 60/19/6 58/25/6 62/24/6
f 65/27/4 66/28/4 68/29/4 67/30/4
f 67/31/1 68/32/1 72/33/1 71/34/1
f 71/30/2 72/35/2 70/28/2 69/27/2
f 69/36/3 70/37/3 66/38/3 65/39/3
f 67/31/5 71/34/5 69/36/5 65/39/5
f 72/33/6 68/32/6 66/38/6 70/37/6
f 73/1/4 74/2/4 76/3/4 75/4/4
f 75/5/1 76/6/1 80/7/1 79/8/1
f 79/4/2 80/9/2 78/2/2 77/1/2
f 77/10/3 78/11/3 74/12/3 73/13/3
f 75/5/5 79/8/5 77/10/5 73/13/5
f 80/7/6 76/6/6 74/12/6 78/11/6
f 81/14/4 82/15/4 84/16/4 83/17/4
f 83/18/1 84/19/1 88/20/1 87/21/1
f 87/17/2 88/22/2 86/15/2 85/14/2
f 85/23/3 86/24/3 82/25/3 81/26/3
f 83/18/5 87/21/5 85/23/5 81/26/5
f 88/20/6 84/19/6 82/25/6 86/24/6
f 89/27/4 90/28/4 92/29/4 91/30/4
f 91/31/1 92/32/1 96/33/1 95/34/1
f 95/30/2 96/35/2 94/28/2 93/27/2
f 93/36/3 94/37/3 90/38/3 89/39/3
f 91/31/5 95/34/5 93/36/5 89/39/5
f 96/33/6 92/32/6 90/38/6 94/37/6
f 97/1/6 98/2/6 100/3/6 99/4/6
f 99/5/2 100/6/2 104/7/2 103/8/2
f 103/4/5 104/9/5 102/2/5 101/1/5
f 101/10/4 102/11/4 98/12/4 97/13/4
f 99/5/1 103/8/1 101/10/1 97/13/1
f 104/7/3 100/6/3 98/12/3 102/11/3
f 105/1/6 106/2/6 108/3/6 107/4/6
f 107/5/2 108/6/2 112/7/2 111/8/2
f 111/4/5 112/9/5 110/2/5 109/1/5
f 109/10/4 110/11/4 106/12/4 105/13/4
f 107/5/1 111/8/1 109/10/1 105/13/1
f 112/7/3 108/6/3 106/12/3 110/11/3
f 113/1/6 114/2/6 116/3/6 115/4/6
f 115/5/2 116/6/2 120/7/2 119/8/2
f 119/4/5 120/9/5 118/2/5 117/1/5
f 117/10/4 118/11/4 114/12/4 113/13/4
f 115/5/1 119/8/1 117/10/1 113/13/1
f 120/7/3 116/6/3 114/12/3 118/11/3
f 121/1/6 122/2/6 124/3/6 123/4/6
f 123/5/2 124/6/2 128/7/2 127/8/2
f 127/4/5 128/9/5 126/2/5 125/1/5
f 125/10/4 126/11/4 122/12/4 121/13/4
f 123/5/1 127/8/1 125/10/1 121/13/1
f 128/7/3 124/6/3 122/12/3 126/11/3
f 129/27/4 130/28/4 132/29/4 131/30/4
f 131/31/6 132/32/6 136/33/6 135/34/6
f 135/30/2 136/35/2 134/28/2 133/27/2
f 133/36/5 134/37/5 130/38/5 129/39/5
f 131/31/1 135/34/1 133/36/1 129/39/1
f 136/33/3 132/32/3 130/38/3 134/37/3
f 137/27/4 138/28/4 140/29/4 139/30/4
f 139/31/6 140/32/6 144/33/6 143/34/6
f 143/30/2 144/35/2 142/28/2 141/27/2
f 141/36/5 142/37/5 138/38/5 137/39/5
f 139/31/1 143/34/1 141/36/1 137/39/1
f 144/33/3 140/32/3 138/38/3 142/37/3
f 145/27/4 146/28/4 148/29/4 147/30/4
f 147/31/6 148/32/6 152/33/6 151/34/6
f 151/30/2 152/35/2 150/28/2 149/27/2
f 149/36/5 150/37/5 146/38/5 145/39/5
f 147/31/1 151/34/1 149/36/1 145/39/1
f 152/33/3 148/32/3 146/38/3 150/37/3
f 153/27/4 154/28/4 156/29/4 155/30/4
f 155/31/6 156/32/6 160/33/6 159/34/6
f 159/30/2 160/35/2 158/28/2 157/27/2
f 157/36/5 158/37/5 154/38/5 153/39/5
f 155/31/1 159/34/1 157/36/1 153/39/1
f 160/33/3 156/32/3 154/38/3 158/37/3
