# Blender 5.1.1
# www.blender.org
o Cube
v 0.985329 1.128850 -0.809843
v 0.127097 0.760483 1.168373
v 0.057538 -0.489465 1.241603
v 0.504193 1.010515 -1.532181
v 1.043946 1.054682 0.415137
v 0.877049 -1.320666 -0.891461
v 1.105764 0.829893 -0.767744
v -0.740652 0.793016 0.521529
v -0.789492 0.757187 -0.400725
v 0.953454 -1.138338 -0.497321
v 0.607512 -0.298412 1.213213
v 0.908921 -0.391000 -0.508402
v -0.838422 -0.547588 0.397195
v -0.872846 0.507948 0.709965
v 0.177245 -0.170075 -0.741046
v -0.458746 -0.445659 0.958892
v 0.913247 0.417282 1.217223
v 0.000711 0.824076 -1.651538
v 0.937283 0.156471 -1.509636
v -0.516748 0.494168 -1.440542
v 0.903996 0.762686 -1.480162
v -0.263093 -1.120920 -0.513770
v -0.485614 -1.305771 0.234604
v 0.037092 -0.654550 -0.900780
vn -0.4497 0.6282 0.6349
vn 0.3113 -0.8266 0.4688
vn 0.3041 0.0040 -0.9526
vn 0.9837 0.0611 0.1689
vn -0.2680 -0.8172 -0.5102
vn -0.7956 -0.1958 0.5733
vn -0.4267 0.0504 0.9030
vn -0.1316 -0.3793 -0.9159
vn 0.5104 0.7271 -0.4591
vn -0.3126 0.9384 -0.1473
vn 0.9284 0.3709 -0.0220
vn -0.2612 -0.9162 -0.3040
vn 0.2848 -0.8899 0.3564
vn 0.2794 0.7290 0.6249
vn -0.2074 0.9780 -0.0221
vn -0.2144 0.9764 -0.0266
vn -0.0755 0.9857 0.1508
vn -0.9847 -0.0625 -0.1627
vn 0.9044 -0.3873 0.1792
vn -0.4304 -0.5735 0.6970
vn -0.7020 -0.4458 0.5554
vn -0.8989 0.4371 0.0306
vn -0.1736 -0.8329 -0.5255
vn 0.0627 -0.0324 0.9975
vn -0.0356 0.0604 0.9975
vn -0.4738 0.0778 0.8772
vn 0.1923 0.1054 -0.9757
vn 0.1899 0.0581 -0.9801
vn -0.6002 0.7237 -0.3405
vn 0.9861 -0.1045 -0.1291
vn -0.7965 0.2358 -0.5567
vn 0.9021 0.3231 -0.2860
vn 0.9885 -0.1356 0.0677
vn -0.2518 0.9652 0.0705
vn -0.3509 -0.4539 -0.8191
vn -0.8775 -0.3346 -0.3436
vn 0.3369 -0.8120 0.4766
vn 0.7646 0.5156 -0.3867
vn 0.2095 0.2510 -0.9450
vt 0.714510 0.750724
vt 0.853637 0.662475
vt 0.767464 0.758347
vt 0.408669 0.808691
vt 0.394611 0.599929
vt 0.435229 0.770084
vt 0.325674 0.518096
vt 0.419172 0.555912
vt 0.134494 0.720538
vt 0.154224 0.488386
vt 0.375000 1.000000
vt 0.421588 0.895660
vt 0.529962 0.975126
vt 0.643057 0.874665
vt 0.523682 0.270844
vt 0.601173 0.332520
vt 0.470653 0.484766
vt 0.583856 0.486512
vt 0.675861 0.486334
vt 0.631238 0.551755
vt 0.752148 0.490464
vt 0.862099 0.589650
vt 0.613900 0.710107
vt 0.586426 0.563063
vt 0.244052 0.818293
vt 0.245543 0.633292
vt 0.353504 0.605801
vt 0.573173 0.757209
vt 0.610119 0.171517
vt 0.383267 0.013703
vt 0.532542 0.016736
vt 0.335061 0.909304
vt 0.608332 0.070083
vt 0.290362 0.562638
s 0
f 2/1/1 8/2/1 14/3/1
f 3/4/2 10/5/2 11/6/2
f 15/7/3 12/8/3 10/5/3
f 10/5/4 12/8/4 11/6/4
f 15/7/5 13/9/5 20/10/5
f 13/11/6 16/12/6 14/13/6
f 16/12/7 2/14/7 14/13/7
f 20/15/8 18/16/8 19/17/8
f 21/18/9 4/19/9 1/20/9
f 4/19/10 18/21/10 9/22/10
f 1/20/11 5/23/11 7/24/11
f 23/25/12 22/26/12 6/27/12
f 10/5/13 23/25/13 6/27/13
f 2/1/14 17/28/14 5/23/14
f 4/19/15 8/2/15 1/20/15
f 9/22/16 8/2/16 4/19/16
f 1/20/17 8/2/17 2/1/17
f 9/29/18 20/15/18 13/30/18 14/31/18
f 11/6/19 12/8/19 17/28/19
f 3/4/20 16/12/20 23/32/20
f 16/12/21 13/11/21 23/32/21
f 8/33/22 9/29/22 14/31/22
f 20/15/23 19/17/23 12/8/23 15/7/23
f 11/6/24 17/28/24 3/4/24
f 2/14/25 3/4/25 17/28/25
f 16/12/26 3/4/26 2/14/26
f 4/19/27 21/18/27 18/16/27
f 19/17/28 18/16/28 21/18/28
f 9/29/29 18/16/29 20/15/29
f 19/17/30 21/18/30 7/24/30 12/8/30
f 22/26/31 13/9/31 15/7/31 24/34/31
f 21/18/32 1/20/32 7/24/32
f 7/24/33 5/23/33 17/28/33 12/8/33
f 1/20/34 2/1/34 5/23/34
f 24/34/35 6/27/35 22/26/35
f 13/9/36 22/26/36 23/25/36
f 10/5/37 3/4/37 23/32/37
f 10/5/38 6/27/38 15/7/38
f 15/7/39 6/27/39 24/34/39
