# Blender 5.1.1
# www.blender.org
o wall_props_e
v -1.027271 -1.099277 0.944484
v -1.027271 -1.369585 -0.064321
v -1.027271 -1.128147 0.952220
v -1.027271 -1.398456 -0.056585
v -1.006171 -1.099277 0.944484
v -1.006171 -1.369585 -0.064321
v -1.006171 -1.128147 0.952220
v -1.006171 -1.398456 -0.056585
v -1.046158 -1.426813 -0.041388
v -1.046158 -1.341231 -0.041388
v -1.046158 -1.414280 -0.011130
v -1.046158 -1.384022 0.001403
v -1.046158 -1.353764 -0.011130
v -0.987290 -1.426813 -0.041388
v -0.987290 -1.341231 -0.041388
v -0.987290 -1.414280 -0.011130
v -0.987290 -1.384022 0.001403
v -0.987290 -1.353764 -0.011130
v 1.000000 -1.110602 0.955049
v -1.000000 -1.110602 0.955049
v -1.000000 0.000000 -0.009061
v 1.000000 0.000000 -0.009061
v -1.000000 -0.030528 0.003585
v 1.000000 -0.030528 0.003585
v -1.000000 -0.043174 0.034113
v 1.000000 -0.043174 0.034113
v -1.000000 -0.030528 0.064641
v 1.000000 -0.030528 0.064641
v -1.000000 0.000000 0.077286
v 1.000000 0.000000 0.077286
v -1.000000 0.030528 0.064641
v 1.000000 0.030528 0.064641
v -1.000000 0.043174 0.034113
v 1.000000 0.043174 0.034113
v -1.000000 0.030528 0.003585
v 1.000000 0.030528 0.003585
v -1.000000 -0.005609 0.037659
v 1.000000 -0.005609 0.037659
v -1.037038 -1.126994 0.936422
v 1.000000 -1.126994 0.936422
v -1.037038 -1.135505 0.952771
v 1.000000 -1.135505 0.952771
v -1.037038 -1.129962 0.970349
v 1.000000 -1.129962 0.970349
v -1.037038 -1.113613 0.978860
v 1.000000 -1.113613 0.978860
v -1.037038 -1.096035 0.973318
v 1.000000 -1.096035 0.973318
v -1.037038 -1.087524 0.956969
v 1.000000 -1.087524 0.956969
v -1.037038 -1.093067 0.939390
v 1.000000 -1.093067 0.939390
v -1.037038 -1.109416 0.930879
v 1.000000 -1.109416 0.930879
v 1.027271 -1.099277 0.944484
v 1.027271 -1.369585 -0.064321
v 1.027271 -1.128147 0.952220
v 1.027271 -1.398456 -0.056585
v 1.006171 -1.099277 0.944484
v 1.006171 -1.369585 -0.064321
v 1.006171 -1.128147 0.952220
v 1.006171 -1.398456 -0.056585
v 1.046158 -1.426813 -0.041388
v 1.046158 -1.341231 -0.041388
v 1.046158 -1.414280 -0.011130
v 1.046158 -1.384022 0.001403
v 1.046158 -1.353764 -0.011130
v 0.987290 -1.426813 -0.041388
v 0.987290 -1.341231 -0.041388
v 0.987290 -1.414280 -0.011130
v 0.987290 -1.384022 0.001403
v 0.987290 -1.353764 -0.011130
v -1.000000 -1.110602 0.955049
v 1.000000 -1.110602 0.955049
v 1.000000 0.000000 -0.009061
v -1.000000 0.000000 -0.009061
v 1.000000 -0.030528 0.003585
v -1.000000 -0.030528 0.003585
v 1.000000 -0.043174 0.034113
v -1.000000 -0.043174 0.034113
v 1.000000 -0.030528 0.064641
v -1.000000 -0.030528 0.064641
v 1.000000 0.000000 0.077286
v -1.000000 0.000000 0.077286
v 1.000000 0.030528 0.064641
v -1.000000 0.030528 0.064641
v 1.000000 0.043174 0.034113
v -1.000000 0.043174 0.034113
v 1.000000 0.030528 0.003585
v -1.000000 0.030528 0.003585
v 1.000000 -0.005609 0.037659
v -1.000000 -0.005609 0.037659
v 1.037038 -1.126994 0.936422
v -1.000000 -1.126994 0.936422
v 1.037038 -1.135505 0.952771
v -1.000000 -1.135505 0.952771
v 1.037038 -1.129962 0.970349
v -1.000000 -1.129962 0.970349
v 1.037038 -1.113613 0.978860
v -1.000000 -1.113613 0.978860
v 1.037038 -1.096035 0.973318
v -1.000000 -1.096035 0.973318
v 1.037038 -1.087524 0.956969
v -1.000000 -1.087524 0.956969
v 1.037038 -1.093067 0.939390
v -1.000000 -1.093067 0.939390
v 1.037038 -1.109416 0.930879
v -1.000000 -1.109416 0.930879
v -1.020200 -1.106107 0.946314
v -1.020200 -1.376415 -0.062490
v -1.020200 -1.121317 0.950390
v -1.020200 -1.391626 -0.058415
v -1.013242 -1.106107 0.946314
v -1.013242 -1.376415 -0.062490
v -1.013242 -1.121317 0.950390
v -1.013242 -1.391626 -0.058415
v -1.040158 -1.419422 -0.044449
v -1.040158 -1.348622 -0.044449
v -1.039855 -1.408790 -0.016620
v -1.039855 -1.384022 -0.006361
v -1.039855 -1.359254 -0.016620
v -0.993290 -1.419422 -0.044449
v -0.993290 -1.348622 -0.044449
v -0.993592 -1.408790 -0.016620
v -0.993592 -1.384022 -0.006361
v -0.993592 -1.359254 -0.016620
v 1.000000 -1.116989 0.947355
v -1.000000 -1.116989 0.947355
v -0.993697 -0.000000 -0.001297
v 0.993697 0.000000 -0.001297
v -0.993697 -0.025038 0.009074
v 0.993697 -0.025038 0.009074
v -0.993697 -0.035410 0.034113
v 0.993697 -0.035410 0.034113
v -0.993697 -0.025038 0.059151
v 0.993697 -0.025038 0.059151
v -0.993697 -0.000000 0.069523
v 0.993697 0.000000 0.069523
v -0.993697 0.025038 0.059151
v 0.993697 0.025038 0.059151
v -0.993697 0.035410 0.034113
v 0.993697 0.035410 0.034113
v -0.993697 0.025038 0.009074
v 0.993697 0.025038 0.009074
v -1.000000 -0.011997 0.029965
v 1.000000 -0.011997 0.029965
v -1.030736 -1.122004 0.942369
v 1.000000 -1.120566 0.944082
v -1.030736 -1.127771 0.953448
v 1.000000 -1.125543 0.953642
v -1.030736 -1.124015 0.965359
v 1.000000 -1.122302 0.963921
v -1.030736 -1.112937 0.971126
v 1.000000 -1.112742 0.968898
v -1.030736 -1.101025 0.967370
v 1.000000 -1.102463 0.965657
v -1.030736 -1.095258 0.956292
v 1.000000 -1.097486 0.956097
v -1.030736 -1.099014 0.944381
v 1.000000 -1.100727 0.945818
v -1.030736 -1.110092 0.938614
v 1.000000 -1.110287 0.940841
v 1.020200 -1.106107 0.946314
v 1.020200 -1.376415 -0.062490
v 1.020200 -1.121317 0.950390
v 1.020200 -1.391626 -0.058415
v 1.013242 -1.106107 0.946314
v 1.013242 -1.376415 -0.062490
v 1.013242 -1.121317 0.950390
v 1.013242 -1.391626 -0.058415
v 1.040158 -1.419422 -0.044449
v 1.040158 -1.348622 -0.044449
v 1.039855 -1.408790 -0.016620
v 1.039855 -1.384022 -0.006361
v 1.039855 -1.359254 -0.016620
v 0.993290 -1.419422 -0.044449
v 0.993290 -1.348622 -0.044449
v 0.993592 -1.408790 -0.016620
v 0.993592 -1.384022 -0.006361
v 0.993592 -1.359254 -0.016620
v -1.000000 -1.116989 0.947355
v 1.000000 -1.116989 0.947355
v 0.993697 -0.000000 -0.001297
v -0.993697 0.000000 -0.001297
v 0.993697 -0.025038 0.009074
v -0.993697 -0.025038 0.009074
v 0.993697 -0.035410 0.034113
v -0.993697 -0.035410 0.034113
v 0.993697 -0.025038 0.059151
v -0.993697 -0.025038 0.059151
v 0.993697 -0.000000 0.069523
v -0.993697 0.000000 0.069523
v 0.993697 0.025038 0.059151
v -0.993697 0.025038 0.059151
v 0.993697 0.035410 0.034113
v -0.993697 0.035410 0.034113
v 0.993697 0.025038 0.009074
v -0.993697 0.025038 0.009074
v 1.000000 -0.011997 0.029965
v -1.000000 -0.011997 0.029965
v 1.030736 -1.122004 0.942369
v -1.000000 -1.120566 0.944082
v 1.030736 -1.127771 0.953448
v -1.000000 -1.125543 0.953642
v 1.030736 -1.124015 0.965359
v -1.000000 -1.122302 0.963921
v 1.030736 -1.112937 0.971126
v -1.000000 -1.112742 0.968898
v 1.030736 -1.101025 0.967370
v -1.000000 -1.102463 0.965657
v 1.030736 -1.095258 0.956292
v -1.000000 -1.097486 0.956097
v 1.030736 -1.099014 0.944381
v -1.000000 -1.100727 0.945818
v 1.030736 -1.110092 0.938614
v -1.000000 -1.110287 0.940841
vn -1.0000 -0.0000 -0.0000
vn -0.0000 -0.9659 0.2588
vn 1.0000 -0.0000 -0.0000
vn -0.0000 0.9659 -0.2588
vn -0.0000 0.3827 0.9239
vn -0.0000 -0.3827 0.9239
vn -0.0000 -0.9239 0.3827
vn -0.0000 0.9239 0.3827
vn -0.0000 -0.3827 -0.9239
vn -0.0000 0.9537 -0.3007
vn -0.0000 -0.9239 -0.3827
vn -0.0000 0.8870 0.4617
vn -0.0000 0.3007 0.9537
vn -0.0000 -0.4618 0.8870
vn -0.0000 -0.3007 -0.9537
vn -0.0000 -0.9537 0.3007
vn -0.0000 0.4618 -0.8870
vn -0.0000 0.6388 0.7694
vn -0.0000 0.9239 -0.3827
vn -0.0000 0.3827 -0.9239
vn -0.0000 -0.8870 -0.4617
vn -0.0000 0.9341 -0.3569
vn -0.0000 -0.9341 -0.3569
vn -1.0000 -0.0000 -0.0094
vn 1.0000 -0.0000 -0.0094
vn -0.0010 -0.9537 0.3007
vn -0.0010 -0.8870 -0.4617
vn -0.0010 -0.3007 -0.9537
vn -0.0010 0.4618 -0.8870
vn -0.0010 0.3007 0.9537
vn -0.0010 0.9537 -0.3007
vn -0.0010 -0.4618 0.8870
vn -0.0000 -0.6388 -0.7694
vn -0.0010 0.8870 0.4617
vn 0.0010 -0.9537 0.3007
vn 0.0010 -0.8870 -0.4617
vn 0.0010 -0.3007 -0.9537
vn 0.0010 0.4618 -0.8870
vn 0.0010 0.3007 0.9537
vn 0.0010 0.9537 -0.3007
vn 0.0010 -0.4618 0.8870
vn 0.0010 0.8870 0.4618
vn -0.0000 0.2588 0.9659
vn -0.0000 -0.2588 -0.9659
vn 0.4545 -0.0000 -0.8907
vn -0.4545 -0.0000 -0.8907
vn -0.0000 0.7694 -0.6388
vn -0.0000 -0.7694 0.6388
vt 0.375000 0.000000
vt 0.625000 0.000000
vt 0.625000 0.250000
vt 0.375000 0.250000
vt 0.625000 0.500000
vt 0.375000 0.500000
vt 0.625000 0.750000
vt 0.375000 0.750000
vt 0.625000 1.000000
vt 0.375000 1.000000
vt 0.500000 0.500000
vt 0.750000 0.500000
vt 0.250000 0.500000
vt 1.000000 0.500000
vt 1.000000 1.000000
vt 0.875000 1.000000
vt 0.875000 0.500000
vt 0.250000 1.000000
vt 0.750000 1.000000
vt 0.500000 1.000000
vt 0.750000 0.490000
vt 0.919706 0.419706
vt 0.990000 0.250000
vt 0.919706 0.080294
vt 0.750000 0.010000
vt 0.580294 0.080294
vt 0.510000 0.250000
vt 0.580294 0.419706
vt 0.125000 0.500000
vt 0.125000 1.000000
vt 0.000000 1.000000
vt 0.000000 0.500000
vt 0.419706 0.419706
vt 0.250000 0.490000
vt 0.080294 0.419706
vt 0.010000 0.250000
vt 0.080294 0.080294
vt 0.250000 0.010000
vt 0.419706 0.080294
vt 0.490000 0.250000
vt 0.000000 0.000000
vt 1.000000 0.000000
s 0
f 1/1/1 2/2/1 4/3/1 3/4/1
f 3/4/2 4/3/2 8/5/2 7/6/2
f 7/6/3 8/5/3 6/7/3 5/8/3
f 5/8/4 6/7/4 2/9/4 1/10/4
f 12/11/5 17/11/5 18/6/5 13/6/5
f 11/5/6 16/5/6 17/11/6 12/11/6
f 9/12/7 14/12/7 16/5/7 11/5/7
f 13/6/8 18/6/8 15/13/8 10/13/8
f 14/12/3 15/13/3 18/6/3 17/11/3 16/5/3
f 9/12/1 11/5/1 12/11/1 13/6/1 10/13/1
f 21/14/9 22/15/9 24/16/9 23/17/9
f 49/6/10 50/10/10 52/18/10 51/13/10
f 23/17/11 24/16/11 26/19/11 25/12/11
f 47/11/12 48/20/12 50/10/12 49/6/12
f 25/12/7 26/19/7 28/9/7 27/5/7
f 39/21/1 41/22/1 43/23/1 45/24/1 47/25/1 49/26/1 51/27/1 53/28/1
f 45/5/13 46/9/13 48/20/13 47/11/13
f 27/5/6 28/9/6 30/20/6 29/11/6
f 43/12/14 44/19/14 46/9/14 45/5/14
f 53/29/15 54/30/15 40/31/15 39/32/15
f 29/11/5 30/20/5 32/10/5 31/6/5
f 41/17/16 42/16/16 44/19/16 43/12/16
f 51/13/17 52/18/17 54/30/17 53/29/17
f 31/6/8 32/10/8 34/18/8 33/13/8
f 24/33/3 22/34/3 36/35/3 34/36/3 32/37/3 30/38/3 28/39/3 26/40/3
f 20/41/18 19/42/18 38/15/18 37/31/18
f 33/13/19 34/18/19 36/30/19 35/29/19
f 35/29/20 36/30/20 22/31/20 21/32/20
f 21/21/1 23/22/1 25/23/1 27/24/1 29/25/1 31/26/1 33/27/1 35/28/1
f 39/14/21 40/15/21 42/16/21 41/17/21
f 55/1/3 57/4/3 58/3/3 56/2/3
f 57/4/2 61/6/2 62/5/2 58/3/2
f 61/6/1 59/8/1 60/7/1 62/5/1
f 59/8/4 55/10/4 56/9/4 60/7/4
f 66/11/5 67/6/5 72/6/5 71/11/5
f 65/5/6 66/11/6 71/11/6 70/5/6
f 63/12/7 65/5/7 70/5/7 68/12/7
f 67/6/8 64/13/8 69/13/8 72/6/8
f 68/12/1 70/5/1 71/11/1 72/6/1 69/13/1
f 63/12/3 64/13/3 67/6/3 66/11/3 65/5/3
f 75/14/9 77/17/9 78/16/9 76/15/9
f 103/6/10 105/13/10 106/18/10 104/10/10
f 77/17/11 79/12/11 80/19/11 78/16/11
f 101/11/12 103/6/12 104/10/12 102/20/12
f 79/12/7 81/5/7 82/9/7 80/19/7
f 93/21/3 107/28/3 105/27/3 103/26/3 101/25/3 99/24/3 97/23/3 95/22/3
f 99/5/13 101/11/13 102/20/13 100/9/13
f 81/5/6 83/11/6 84/20/6 82/9/6
f 97/12/14 99/5/14 100/9/14 98/19/14
f 107/29/15 93/32/15 94/31/15 108/30/15
f 83/11/5 85/6/5 86/10/5 84/20/5
f 95/17/16 97/12/16 98/19/16 96/16/16
f 105/13/17 107/29/17 108/30/17 106/18/17
f 85/6/8 87/13/8 88/18/8 86/10/8
f 78/33/1 80/40/1 82/39/1 84/38/1 86/37/1 88/36/1 90/35/1 76/34/1
f 74/41/18 91/31/18 92/15/18 73/42/18
f 87/13/19 89/29/19 90/30/19 88/18/19
f 89/29/20 75/32/20 76/31/20 90/30/20
f 75/21/3 89/28/3 87/27/3 85/26/3 83/25/3 81/24/3 79/23/3 77/22/3
f 93/14/21 95/17/21 96/16/21 94/15/21
f 109/1/3 111/4/3 112/3/3 110/2/3
f 111/4/4 115/6/4 116/5/4 112/3/4
f 115/6/1 113/8/1 114/7/1 116/5/1
f 113/8/2 109/10/2 110/9/2 114/7/2
f 120/11/9 121/6/9 126/6/9 125/11/9
f 119/5/20 120/11/20 125/11/20 124/5/20
f 117/12/22 119/5/22 124/5/22 122/12/22
f 121/6/23 118/13/23 123/13/23 126/6/23
f 122/12/24 124/5/24 125/11/24 126/6/24 123/13/24
f 117/12/25 118/13/25 121/6/25 120/11/25 119/5/25
f 129/14/5 131/17/5 132/16/5 130/15/5
f 157/6/26 159/13/26 160/18/26 158/10/26
f 131/17/8 133/12/8 134/19/8 132/16/8
f 155/11/27 157/6/27 158/10/27 156/20/27
f 133/12/19 135/5/19 136/9/19 134/19/19
f 147/21/3 161/28/3 159/27/3 157/26/3 155/25/3 153/24/3 151/23/3 149/22/3
f 153/5/28 155/11/28 156/20/28 154/9/28
f 135/5/20 137/11/20 138/20/20 136/9/20
f 151/12/29 153/5/29 154/9/29 152/19/29
f 161/29/30 147/32/30 148/31/30 162/30/30
f 137/11/9 139/6/9 140/10/9 138/20/9
f 149/17/31 151/12/31 152/19/31 150/16/31
f 159/13/32 161/29/32 162/30/32 160/18/32
f 139/6/11 141/13/11 142/18/11 140/10/11
f 132/33/1 134/40/1 136/39/1 138/38/1 140/37/1 142/36/1 144/35/1 130/34/1
f 128/41/33 145/31/33 146/15/33 127/42/33
f 141/13/7 143/29/7 144/30/7 142/18/7
f 143/29/6 129/32/6 130/31/6 144/30/6
f 129/21/3 143/28/3 141/27/3 139/26/3 137/25/3 135/24/3 133/23/3 131/22/3
f 147/14/34 149/17/34 150/16/34 148/15/34
f 163/1/1 164/2/1 166/3/1 165/4/1
f 165/4/4 166/3/4 170/5/4 169/6/4
f 169/6/3 170/5/3 168/7/3 167/8/3
f 167/8/2 168/7/2 164/9/2 163/10/2
f 174/11/9 179/11/9 180/6/9 175/6/9
f 173/5/20 178/5/20 179/11/20 174/11/20
f 171/12/22 176/12/22 178/5/22 173/5/22
f 175/6/23 180/6/23 177/13/23 172/13/23
f 176/12/25 177/13/25 180/6/25 179/11/25 178/5/25
f 171/12/24 173/5/24 174/11/24 175/6/24 172/13/24
f 183/14/5 184/15/5 186/16/5 185/17/5
f 211/6/35 212/10/35 214/18/35 213/13/35
f 185/17/8 186/16/8 188/19/8 187/12/8
f 209/11/36 210/20/36 212/10/36 211/6/36
f 187/12/19 188/19/19 190/9/19 189/5/19
f 201/21/1 203/22/1 205/23/1 207/24/1 209/25/1 211/26/1 213/27/1 215/28/1
f 207/5/37 208/9/37 210/20/37 209/11/37
f 189/5/20 190/9/20 192/20/20 191/11/20
f 205/12/38 206/19/38 208/9/38 207/5/38
f 215/29/39 216/30/39 202/31/39 201/32/39
f 191/11/9 192/20/9 194/10/9 193/6/9
f 203/17/40 204/16/40 206/19/40 205/12/40
f 213/13/41 214/18/41 216/30/41 215/29/41
f 193/6/11 194/10/11 196/18/11 195/13/11
f 186/33/3 184/34/3 198/35/3 196/36/3 194/37/3 192/38/3 190/39/3 188/40/3
f 182/41/33 181/42/33 200/15/33 199/31/33
f 195/13/7 196/18/7 198/30/7 197/29/7
f 197/29/6 198/30/6 184/31/6 183/32/6
f 183/21/1 185/22/1 187/23/1 189/24/1 191/25/1 193/26/1 195/27/1 197/28/1
f 201/14/42 202/15/42 204/16/42 203/17/42
f 1/1/43 3/4/43 111/4/43 109/1/43
f 4/3/44 2/2/44 110/2/44 112/3/44
f 3/4/43 7/6/43 115/6/43 111/4/43
f 8/5/44 4/3/44 112/3/44 116/5/44
f 7/6/43 5/8/43 113/8/43 115/6/43
f 6/7/44 8/5/44 116/5/44 114/7/44
f 5/8/43 1/10/43 109/10/43 113/8/43
f 2/9/44 6/7/44 114/7/44 110/9/44
f 14/12/9 9/12/9 117/12/9 122/12/9
f 10/13/20 15/13/20 123/13/20 118/13/20
f 15/13/45 14/12/45 122/12/45 123/13/45
f 9/12/46 10/13/46 118/13/46 117/12/46
f 48/20/3 46/9/3 154/9/3 156/20/3
f 42/16/3 40/15/3 148/15/3 150/16/3
f 46/9/3 44/19/3 152/19/3 154/9/3
f 37/31/47 38/15/47 146/15/47 145/31/47
f 38/15/3 19/42/3 127/42/3 146/15/3
f 44/19/3 42/16/3 150/16/3 152/19/3
f 19/42/48 20/41/48 128/41/48 127/42/48
f 20/41/1 37/31/1 145/31/1 128/41/1
f 50/10/3 48/20/3 156/20/3 158/10/3
f 52/18/3 50/10/3 158/10/3 160/18/3
f 54/30/3 52/18/3 160/18/3 162/30/3
f 40/31/3 54/30/3 162/30/3 148/31/3
f 57/4/43 55/1/43 163/1/43 165/4/43
f 56/2/44 58/3/44 166/3/44 164/2/44
f 61/6/43 57/4/43 165/4/43 169/6/43
f 58/3/44 62/5/44 170/5/44 166/3/44
f 59/8/43 61/6/43 169/6/43 167/8/43
f 62/5/44 60/7/44 168/7/44 170/5/44
f 55/10/43 59/8/43 167/8/43 163/10/43
f 60/7/44 56/9/44 164/9/44 168/7/44
f 63/12/9 68/12/9 176/12/9 171/12/9
f 69/13/20 64/13/20 172/13/20 177/13/20
f 68/12/46 69/13/46 177/13/46 176/12/46
f 64/13/45 63/12/45 171/12/45 172/13/45
f 100/9/1 102/20/1 210/20/1 208/9/1
f 94/15/1 96/16/1 204/16/1 202/15/1
f 98/19/1 100/9/1 208/9/1 206/19/1
f 92/15/47 91/31/47 199/31/47 200/15/47
f 73/42/1 92/15/1 200/15/1 181/42/1
f 96/16/1 98/19/1 206/19/1 204/16/1
f 74/41/48 73/42/48 181/42/48 182/41/48
f 91/31/3 74/41/3 182/41/3 199/31/3
f 102/20/1 104/10/1 212/10/1 210/20/1
f 104/10/1 106/18/1 214/18/1 212/10/1
f 106/18/1 108/30/1 216/30/1 214/18/1
f 108/30/1 94/31/1 202/31/1 216/30/1
