# Blender 5.1.1
# www.blender.org
o window_props_b
v -42.375694 -1.016044 -2.577129
v -42.375694 0.983956 -2.577129
v -41.509670 -1.016044 -2.077129
v -41.509670 0.983956 -2.077129
v -41.509670 -1.016044 -1.077129
v -41.509670 0.983956 -1.077129
v -42.375694 -1.016044 -0.577129
v -42.375694 0.983956 -0.577129
v -43.241718 -1.016044 -1.077129
v -43.241718 0.983956 -1.077129
v -43.241718 -1.016044 -2.077129
v -43.241718 0.983956 -2.077129
vn -0.0000 -0.0000 -1.0000
vn 0.8660 -0.0000 -0.5000
vn 0.8660 -0.0000 0.5000
vn -0.0000 -0.0000 1.0000
vn -0.8660 -0.0000 0.5000
vn -0.8660 -0.0000 -0.5000
vt 0.167757 0.071246
vt 0.167757 0.555206
vt 0.143358 0.555206
vt 0.143358 0.071246
vt 0.118959 0.555206
vt 0.118959 0.071246
vt 0.094560 0.555206
vt 0.094560 0.071246
vt 0.070161 0.555206
vt 0.070161 0.071246
vt 0.045762 0.555206
vt 0.045762 0.071246
vt 0.021363 0.555206
vt 0.021363 0.071246
s 1
f 1/1/1 2/2/1 4/3/2 3/4/2
f 3/4/2 4/3/2 6/5/3 5/6/3
f 5/6/3 6/5/3 8/7/4 7/8/4
f 7/8/4 8/7/4 10/9/5 9/10/5
f 9/10/5 10/9/5 12/11/6 11/12/6
f 11/12/6 12/11/6 2/13/1 1/14/1
