# Blender 5.1.1
# www.blender.org
o sh_chair_foot_front
v -0.224905 0.000000 0.180934
v -0.215785 0.019889 0.180934
v -0.226976 0.039008 0.180934
v -0.226976 0.080158 0.180934
v -0.220401 0.094256 0.180934
v -0.225741 0.106728 0.180934
v -0.225741 0.456337 0.180934
v -0.228846 0.457056 0.180934
v -0.228846 0.508509 0.180934
v -0.212703 0.482423 0.180934
v -0.219008 0.518348 0.180934
v -0.222595 0.526156 0.180934
v -0.219008 0.534121 0.180934
v -0.227753 0.540497 0.180934
v -0.227753 0.553978 0.180934
v -0.229763 0.000000 0.169206
v -0.223314 0.019889 0.162757
v -0.231228 0.039008 0.170670
v -0.231228 0.080158 0.170670
v -0.226578 0.094256 0.166020
v -0.230355 0.106728 0.169797
v -0.230355 0.456337 0.169797
v -0.232550 0.457056 0.171992
v -0.232550 0.508509 0.171992
v -0.221135 0.482423 0.160578
v -0.225593 0.518348 0.165036
v -0.228130 0.526156 0.167572
v -0.225593 0.534121 0.165036
v -0.231777 0.540497 0.171219
v -0.231777 0.553978 0.171219
v -0.241492 0.000000 0.164348
v -0.241492 0.019889 0.155227
v -0.241492 0.039008 0.166419
v -0.241492 0.080158 0.166419
v -0.241492 0.094256 0.159843
v -0.241492 0.106728 0.165184
v -0.241492 0.456337 0.165184
v -0.241492 0.457056 0.168289
v -0.241492 0.508509 0.168289
v -0.241492 0.482423 0.152146
v -0.241492 0.518348 0.158450
v -0.241492 0.526156 0.162038
v -0.241492 0.534121 0.158450
v -0.241492 0.540497 0.167195
v -0.241492 0.553978 0.167195
v -0.253220 0.000000 0.169206
v -0.259670 0.019889 0.162757
v -0.251756 0.039008 0.170670
v -0.251756 0.080158 0.170670
v -0.256406 0.094256 0.166020
v -0.252629 0.106728 0.169797
v -0.252629 0.456337 0.169797
v -0.250434 0.457056 0.171992
v -0.250434 0.508509 0.171992
v -0.261848 0.482423 0.160578
v -0.257391 0.518348 0.165035
v -0.254854 0.526156 0.167572
v -0.257391 0.534121 0.165035
v -0.251207 0.540497 0.171219
v -0.251207 0.553978 0.171219
v -0.258078 0.000000 0.180934
v -0.267199 0.019889 0.180934
v -0.256008 0.039008 0.180934
v -0.256008 0.080158 0.180934
v -0.262583 0.094256 0.180934
v -0.257242 0.106728 0.180934
v -0.257242 0.456337 0.180934
v -0.254138 0.457056 0.180934
v -0.254138 0.508509 0.180934
v -0.270280 0.482423 0.180934
v -0.263976 0.518348 0.180934
v -0.260388 0.526156 0.180934
v -0.263976 0.534121 0.180934
v -0.255231 0.540497 0.180934
v -0.255231 0.553978 0.180934
v -0.253220 0.000000 0.192663
v -0.259670 0.019889 0.199112
v -0.251756 0.039008 0.191198
v -0.251756 0.080158 0.191198
v -0.256406 0.094256 0.195848
v -0.252629 0.106728 0.192071
v -0.252629 0.456337 0.192071
v -0.250434 0.457056 0.189876
v -0.250434 0.508509 0.189876
v -0.261848 0.482423 0.201291
v -0.257391 0.518348 0.196833
v -0.254854 0.526156 0.194296
v -0.257391 0.534121 0.196833
v -0.251207 0.540497 0.190649
v -0.251207 0.553978 0.190649
v -0.241492 0.000000 0.197521
v -0.241492 0.019889 0.206641
v -0.241492 0.039008 0.195450
v -0.241492 0.080158 0.195450
v -0.241492 0.094256 0.202025
v -0.241492 0.106728 0.196685
v -0.241492 0.456337 0.196685
v -0.241492 0.457056 0.193580
v -0.241492 0.508509 0.193580
v -0.241492 0.482423 0.209723
v -0.241492 0.518348 0.203418
v -0.241492 0.526156 0.199831
v -0.241492 0.534121 0.203418
v -0.241492 0.540497 0.194673
v -0.241492 0.553978 0.194673
v -0.229763 0.000000 0.192663
v -0.223314 0.019889 0.199112
v -0.231228 0.039008 0.191198
v -0.231228 0.080158 0.191198
v -0.226578 0.094256 0.195848
v -0.230355 0.106728 0.192071
v -0.230355 0.456337 0.192071
v -0.232550 0.457056 0.189876
v -0.232550 0.508509 0.189876
v -0.221135 0.482423 0.201291
v -0.225593 0.518348 0.196833
v -0.228130 0.526156 0.194296
v -0.225593 0.534121 0.196833
v -0.231777 0.540497 0.190649
v -0.231777 0.553978 0.190649
v 0.224905 0.000000 0.180934
v 0.215785 0.019889 0.180934
v 0.226976 0.039008 0.180934
v 0.226976 0.080158 0.180934
v 0.220401 0.094256 0.180934
v 0.225741 0.106728 0.180934
v 0.225741 0.456337 0.180934
v 0.228846 0.457056 0.180934
v 0.228846 0.508509 0.180934
v 0.212703 0.482423 0.180934
v 0.219008 0.518348 0.180934
v 0.222596 0.526156 0.180934
v 0.219008 0.534121 0.180934
v 0.227753 0.540497 0.180934
v 0.227753 0.553978 0.180934
v 0.229763 0.000000 0.169206
v 0.223314 0.019889 0.162757
v 0.231228 0.039008 0.170670
v 0.231228 0.080158 0.170670
v 0.226578 0.094256 0.166020
v 0.230355 0.106728 0.169797
v 0.230355 0.456337 0.169797
v 0.232550 0.457056 0.171992
v 0.232550 0.508509 0.171992
v 0.221135 0.482423 0.160578
v 0.225593 0.518348 0.165036
v 0.228130 0.526156 0.167572
v 0.225593 0.534121 0.165036
v 0.231777 0.540497 0.171219
v 0.231777 0.553978 0.171219
v 0.241492 0.000000 0.164348
v 0.241492 0.019889 0.155227
v 0.241492 0.039008 0.166419
v 0.241492 0.080158 0.166419
v 0.241492 0.094256 0.159843
v 0.241492 0.106728 0.165184
v 0.241492 0.456337 0.165184
v 0.241492 0.457056 0.168289
v 0.241492 0.508509 0.168289
v 0.241492 0.482423 0.152146
v 0.241492 0.518348 0.158450
v 0.241492 0.526156 0.162038
v 0.241492 0.534121 0.158450
v 0.241492 0.540497 0.167195
v 0.241492 0.553978 0.167195
v 0.253220 0.000000 0.169206
v 0.259670 0.019889 0.162757
v 0.251756 0.039008 0.170670
v 0.251756 0.080158 0.170670
v 0.256406 0.094256 0.166020
v 0.252629 0.106728 0.169797
v 0.252629 0.456337 0.169797
v 0.250434 0.457056 0.171992
v 0.250434 0.508509 0.171992
v 0.261848 0.482423 0.160578
v 0.257391 0.518348 0.165035
v 0.254854 0.526156 0.167572
v 0.257391 0.534121 0.165035
v 0.251207 0.540497 0.171219
v 0.251207 0.553978 0.171219
v 0.258078 0.000000 0.180934
v 0.267199 0.019889 0.180934
v 0.256008 0.039008 0.180934
v 0.256008 0.080158 0.180934
v 0.262583 0.094256 0.180934
v 0.257242 0.106728 0.180934
v 0.257242 0.456337 0.180934
v 0.254138 0.457056 0.180934
v 0.254138 0.508509 0.180934
v 0.270280 0.482423 0.180934
v 0.263976 0.518348 0.180934
v 0.260388 0.526156 0.180934
v 0.263976 0.534121 0.180934
v 0.255231 0.540497 0.180934
v 0.255231 0.553978 0.180934
v 0.253220 0.000000 0.192663
v 0.259670 0.019889 0.199112
v 0.251756 0.039008 0.191198
v 0.251756 0.080158 0.191198
v 0.256406 0.094256 0.195848
v 0.252629 0.106728 0.192071
v 0.252629 0.456337 0.192071
v 0.250434 0.457056 0.189876
v 0.250434 0.508509 0.189876
v 0.261848 0.482423 0.201291
v 0.257391 0.518348 0.196833
v 0.254854 0.526156 0.194296
v 0.257391 0.534121 0.196833
v 0.251207 0.540497 0.190649
v 0.251207 0.553978 0.190649
v 0.241492 0.000000 0.197521
v 0.241492 0.019889 0.206641
v 0.241492 0.039008 0.195450
v 0.241492 0.080158 0.195450
v 0.241492 0.094256 0.202025
v 0.241492 0.106728 0.196685
v 0.241492 0.456337 0.196685
v 0.241492 0.457056 0.193580
v 0.241492 0.508509 0.193580
v 0.241492 0.482423 0.209723
v 0.241492 0.518348 0.203418
v 0.241492 0.526156 0.199831
v 0.241492 0.534121 0.203418
v 0.241492 0.540497 0.194673
v 0.241492 0.553978 0.194673
v 0.229763 0.000000 0.192663
v 0.223314 0.019889 0.199112
v 0.231228 0.039008 0.191198
v 0.231228 0.080158 0.191198
v 0.226578 0.094256 0.195848
v 0.230355 0.106728 0.192071
v 0.230355 0.456337 0.192071
v 0.232550 0.457056 0.189876
v 0.232550 0.508509 0.189876
v 0.221135 0.482423 0.201291
v 0.225593 0.518348 0.196833
v 0.228130 0.526156 0.194296
v 0.225593 0.534121 0.196833
v 0.231777 0.540497 0.190649
v 0.231777 0.553978 0.190649
vn -0.9090 0.4168 -0.0000
vn -0.9990 -0.0450 -0.0000
vn -0.9602 -0.2794 -0.0000
vn -0.9735 0.2285 -0.0000
vn -0.9999 0.0145 -0.0000
vn -0.9774 -0.2113 -0.0000
vn -0.8304 -0.5572 -0.0000
vn -0.8815 -0.4721 -0.0000
vn -0.9905 0.1376 -0.0000
vn -1.0000 0.0056 -0.0000
vn -0.9877 0.1562 -0.0000
vn -1.0000 -0.0042 -0.0000
vn -0.9745 -0.2245 -0.0000
vn -0.8632 -0.5048 -0.0000
vn -1.0000 -0.0000 -0.0000
vn -0.6427 0.4168 0.6427
vn -0.7064 -0.0450 0.7064
vn -0.6789 -0.2794 0.6789
vn -0.6884 0.2285 0.6884
vn -0.7070 0.0145 0.7070
vn -0.6911 -0.2113 0.6911
vn -0.5872 -0.5572 0.5872
vn -0.6233 -0.4721 0.6233
vn -0.7004 0.1376 0.7004
vn -0.7071 0.0056 0.7071
vn -0.6984 0.1562 0.6984
vn -0.7071 -0.0042 0.7071
vn -0.6891 -0.2245 0.6891
vn -0.6104 -0.5048 0.6104
vn -0.7071 -0.0000 0.7071
vn -0.0000 0.4168 0.9090
vn -0.0000 -0.0450 0.9990
vn -0.0000 -0.2794 0.9602
vn -0.0000 0.2285 0.9735
vn -0.0000 0.0145 0.9999
vn -0.0000 -0.2113 0.9774
vn -0.0000 -0.5572 0.8304
vn -0.0000 -0.4721 0.8815
vn -0.0000 0.1376 0.9905
vn -0.0000 0.0056 1.0000
vn -0.0000 0.1562 0.9877
vn -0.0000 -0.0042 1.0000
vn -0.0000 -0.2245 0.9745
vn -0.0000 -0.5048 0.8632
vn -0.0000 -0.0000 1.0000
vn 0.6427 0.4168 0.6427
vn 0.7064 -0.0450 0.7064
vn 0.6789 -0.2794 0.6789
vn 0.6884 0.2285 0.6884
vn 0.7070 0.0145 0.7070
vn 0.6911 -0.2113 0.6911
vn 0.5872 -0.5572 0.5872
vn 0.6233 -0.4721 0.6233
vn 0.7004 0.1376 0.7004
vn 0.7071 0.0056 0.7071
vn 0.6984 0.1562 0.6984
vn 0.7071 -0.0042 0.7071
vn 0.6891 -0.2245 0.6891
vn 0.6104 -0.5048 0.6104
vn 0.7071 -0.0000 0.7071
vn 0.9090 0.4168 -0.0000
vn 0.9990 -0.0450 -0.0000
vn 0.9602 -0.2794 -0.0000
vn 0.9735 0.2285 -0.0000
vn 0.9999 0.0145 -0.0000
vn 0.9774 -0.2113 -0.0000
vn 0.8304 -0.5572 -0.0000
vn 0.8815 -0.4721 -0.0000
vn 0.9905 0.1376 -0.0000
vn 1.0000 0.0056 -0.0000
vn 0.9877 0.1562 -0.0000
vn 1.0000 -0.0042 -0.0000
vn 0.9745 -0.2245 -0.0000
vn 0.8632 -0.5048 -0.0000
vn 1.0000 -0.0000 -0.0000
vn 0.6427 0.4168 -0.6427
vn 0.7064 -0.0450 -0.7064
vn 0.6789 -0.2794 -0.6789
vn 0.6884 0.2285 -0.6884
vn 0.7070 0.0145 -0.7070
vn 0.6911 -0.2113 -0.6911
vn 0.5872 -0.5572 -0.5872
vn 0.6233 -0.4721 -0.6233
vn 0.7004 0.1376 -0.7004
vn 0.7071 0.0056 -0.7071
vn 0.6984 0.1562 -0.6984
vn 0.7071 -0.0042 -0.7071
vn 0.6891 -0.2245 -0.6891
vn 0.6104 -0.5048 -0.6104
vn 0.7071 -0.0000 -0.7071
vn -0.0000 0.4168 -0.9090
vn -0.0000 -0.0450 -0.9990
vn -0.0000 -0.2794 -0.9602
vn -0.0000 0.2285 -0.9735
vn -0.0000 0.0145 -0.9999
vn -0.0000 -0.2113 -0.9774
vn -0.0000 -0.5572 -0.8304
vn -0.0000 -0.4721 -0.8815
vn -0.0000 0.1376 -0.9905
vn -0.0000 0.0056 -1.0000
vn -0.0000 0.1562 -0.9877
vn -0.0000 -0.0042 -1.0000
vn -0.0000 -0.2245 -0.9745
vn -0.0000 -0.5048 -0.8632
vn -0.0000 -0.0000 -1.0000
vn -0.6427 0.4168 -0.6427
vn -0.7064 -0.0450 -0.7064
vn -0.6789 -0.2794 -0.6789
vn -0.6884 0.2285 -0.6884
vn -0.7070 0.0145 -0.7070
vn -0.6911 -0.2113 -0.6911
vn -0.5872 -0.5572 -0.5872
vn -0.6233 -0.4721 -0.6233
vn -0.7004 0.1376 -0.7004
vn -0.7071 0.0056 -0.7071
vn -0.6984 0.1562 -0.6984
vn -0.7071 -0.0042 -0.7071
vn -0.6891 -0.2245 -0.6891
vn -0.6104 -0.5048 -0.6104
vn -0.7071 -0.0000 -0.7071
vt 0.000000 0.000000
vt 0.000000 0.019889
vt 0.125000 0.019889
vt 0.125000 0.000000
vt 0.250000 0.019889
vt 0.250000 0.000000
vt 0.375000 0.019889
vt 0.375000 0.000000
vt 0.500000 0.019889
vt 0.500000 0.000000
vt 0.625000 0.019889
vt 0.625000 0.000000
vt 0.750000 0.019889
vt 0.750000 0.000000
vt 0.875000 0.019889
vt 0.875000 0.000000
vt 1.000000 0.019889
vt 1.000000 0.000000
vt 0.000000 0.039008
vt 0.125000 0.039008
vt 0.250000 0.039008
vt 0.375000 0.039008
vt 0.500000 0.039008
vt 0.625000 0.039008
vt 0.750000 0.039008
vt 0.875000 0.039008
vt 1.000000 0.039008
vt 0.000000 0.080158
vt 0.125000 0.080158
vt 0.250000 0.080158
vt 0.375000 0.080158
vt 0.500000 0.080158
vt 0.625000 0.080158
vt 0.750000 0.080158
vt 0.875000 0.080158
vt 1.000000 0.080158
vt 0.000000 0.094256
vt 0.125000 0.094256
vt 0.250000 0.094256
vt 0.375000 0.094256
vt 0.500000 0.094256
vt 0.625000 0.094256
vt 0.750000 0.094256
vt 0.875000 0.094256
vt 1.000000 0.094256
vt 0.000000 0.106728
vt 0.125000 0.106728
vt 0.250000 0.106728
vt 0.375000 0.106728
vt 0.500000 0.106728
vt 0.625000 0.106728
vt 0.750000 0.106728
vt 0.875000 0.106728
vt 1.000000 0.106728
vt 0.000000 0.456337
vt 0.125000 0.456337
vt 0.250000 0.456337
vt 0.375000 0.456337
vt 0.500000 0.456337
vt 0.625000 0.456337
vt 0.750000 0.456337
vt 0.875000 0.456337
vt 1.000000 0.456337
vt 0.000000 0.457056
vt 0.125000 0.457056
vt 0.250000 0.457056
vt 0.375000 0.457056
vt 0.500000 0.457056
vt 0.625000 0.457056
vt 0.750000 0.457056
vt 0.875000 0.457056
vt 1.000000 0.457056
vt 0.000000 0.482423
vt 0.000000 0.508509
vt 0.125000 0.508509
vt 0.125000 0.482423
vt 0.250000 0.508509
vt 0.250000 0.482423
vt 0.375000 0.508509
vt 0.375000 0.482423
vt 0.500000 0.508509
vt 0.500000 0.482423
vt 0.625000 0.508509
vt 0.625000 0.482423
vt 0.750000 0.508509
vt 0.750000 0.482423
vt 0.875000 0.508509
vt 0.875000 0.482423
vt 1.000000 0.508509
vt 1.000000 0.482423
vt 0.000000 0.518348
vt 0.125000 0.518348
vt 0.250000 0.518348
vt 0.375000 0.518348
vt 0.500000 0.518348
vt 0.625000 0.518348
vt 0.750000 0.518348
vt 0.875000 0.518348
vt 1.000000 0.518348
vt 0.000000 0.526156
vt 0.125000 0.526156
vt 0.250000 0.526156
vt 0.375000 0.526156
vt 0.500000 0.526156
vt 0.625000 0.526156
vt 0.750000 0.526156
vt 0.875000 0.526156
vt 1.000000 0.526156
vt 0.000000 0.534121
vt 0.125000 0.534121
vt 0.250000 0.534121
vt 0.375000 0.534121
vt 0.500000 0.534121
vt 0.625000 0.534121
vt 0.750000 0.534121
vt 0.875000 0.534121
vt 1.000000 0.534121
vt 0.000000 0.540497
vt 0.125000 0.540497
vt 0.250000 0.540497
vt 0.375000 0.540497
vt 0.500000 0.540497
vt 0.625000 0.540497
vt 0.750000 0.540497
vt 0.875000 0.540497
vt 1.000000 0.540497
vt 0.000000 0.553978
vt 0.125000 0.553978
vt 0.250000 0.553978
vt 0.375000 0.553978
vt 0.500000 0.553978
vt 0.625000 0.553978
vt 0.750000 0.553978
vt 0.875000 0.553978
vt 1.000000 0.553978
s 1
f 1/1/1 2/2/2 17/3/17 16/4/16
f 16/4/16 17/3/17 32/5/32 31/6/31
f 31/6/31 32/5/32 47/7/47 46/8/46
f 46/8/46 47/7/47 62/9/62 61/10/61
f 61/10/61 62/9/62 77/11/77 76/12/76
f 76/12/76 77/11/77 92/13/92 91/14/91
f 91/14/91 92/13/92 107/15/107 106/16/106
f 106/16/106 107/15/107 2/17/2 1/18/1
f 2/2/2 3/19/3 18/20/18 17/3/17
f 17/3/17 18/20/18 33/21/33 32/5/32
f 32/5/32 33/21/33 48/22/48 47/7/47
f 47/7/47 48/22/48 63/23/63 62/9/62
f 62/9/62 63/23/63 78/24/78 77/11/77
f 77/11/77 78/24/78 93/25/93 92/13/92
f 92/13/92 93/25/93 108/26/108 107/15/107
f 107/15/107 108/26/108 3/27/3 2/17/2
f 3/19/3 4/28/4 19/29/19 18/20/18
f 18/20/18 19/29/19 34/30/34 33/21/33
f 33/21/33 34/30/34 49/31/49 48/22/48
f 48/22/48 49/31/49 64/32/64 63/23/63
f 63/23/63 64/32/64 79/33/79 78/24/78
f 78/24/78 79/33/79 94/34/94 93/25/93
f 93/25/93 94/34/94 109/35/109 108/26/108
f 108/26/108 109/35/109 4/36/4 3/27/3
f 4/28/4 5/37/5 20/38/20 19/29/19
f 19/29/19 20/38/20 35/39/35 34/30/34
f 34/30/34 35/39/35 50/40/50 49/31/49
f 49/31/49 50/40/50 65/41/65 64/32/64
f 64/32/64 65/41/65 80/42/80 79/33/79
f 79/33/79 80/42/80 95/43/95 94/34/94
f 94/34/94 95/43/95 110/44/110 109/35/109
f 109/35/109 110/44/110 5/45/5 4/36/4
f 5/37/5 6/46/6 21/47/21 20/38/20
f 20/38/20 21/47/21 36/48/36 35/39/35
f 35/39/35 36/48/36 51/49/51 50/40/50
f 50/40/50 51/49/51 66/50/66 65/41/65
f 65/41/65 66/50/66 81/51/81 80/42/80
f 80/42/80 81/51/81 96/52/96 95/43/95
f 95/43/95 96/52/96 111/53/111 110/44/110
f 110/44/110 111/53/111 6/54/6 5/45/5
f 6/46/6 7/55/7 22/56/22 21/47/21
f 21/47/21 22/56/22 37/57/37 36/48/36
f 36/48/36 37/57/37 52/58/52 51/49/51
f 51/49/51 52/58/52 67/59/67 66/50/66
f 66/50/66 67/59/67 82/60/82 81/51/81
f 81/51/81 82/60/82 97/61/97 96/52/96
f 96/52/96 97/61/97 112/62/112 111/53/111
f 111/53/111 112/62/112 7/63/7 6/54/6
f 7/55/7 8/64/8 23/65/23 22/56/22
f 22/56/22 23/65/23 38/66/38 37/57/37
f 37/57/37 38/66/38 53/67/53 52/58/52
f 52/58/52 53/67/53 68/68/68 67/59/67
f 67/59/67 68/68/68 83/69/83 82/60/82
f 82/60/82 83/69/83 98/70/98 97/61/97
f 97/61/97 98/70/98 113/71/113 112/62/112
f 112/62/112 113/71/113 8/72/8 7/63/7
f 10/73/10 9/74/9 24/75/24 25/76/25
f 25/76/25 24/75/24 39/77/39 40/78/40
f 40/78/40 39/77/39 54/79/54 55/80/55
f 55/80/55 54/79/54 69/81/69 70/82/70
f 70/82/70 69/81/69 84/83/84 85/84/85
f 85/84/85 84/83/84 99/85/99 100/86/100
f 100/86/100 99/85/99 114/87/114 115/88/115
f 115/88/115 114/87/114 9/89/9 10/90/10
f 8/64/8 10/73/10 25/76/25 23/65/23
f 23/65/23 25/76/25 40/78/40 38/66/38
f 38/66/38 40/78/40 55/80/55 53/67/53
f 53/67/53 55/80/55 70/82/70 68/68/68
f 68/68/68 70/82/70 85/84/85 83/69/83
f 83/69/83 85/84/85 100/86/100 98/70/98
f 98/70/98 100/86/100 115/88/115 113/71/113
f 113/71/113 115/88/115 10/90/10 8/72/8
f 9/74/9 11/91/11 26/92/26 24/75/24
f 24/75/24 26/92/26 41/93/41 39/77/39
f 39/77/39 41/93/41 56/94/56 54/79/54
f 54/79/54 56/94/56 71/95/71 69/81/69
f 69/81/69 71/95/71 86/96/86 84/83/84
f 84/83/84 86/96/86 101/97/101 99/85/99
f 99/85/99 101/97/101 116/98/116 114/87/114
f 114/87/114 116/98/116 11/99/11 9/89/9
f 11/91/11 12/100/12 27/101/27 26/92/26
f 26/92/26 27/101/27 42/102/42 41/93/41
f 41/93/41 42/102/42 57/103/57 56/94/56
f 56/94/56 57/103/57 72/104/72 71/95/71
f 71/95/71 72/104/72 87/105/87 86/96/86
f 86/96/86 87/105/87 102/106/102 101/97/101
f 101/97/101 102/106/102 117/107/117 116/98/116
f 116/98/116 117/107/117 12/108/12 11/99/11
f 12/100/12 13/109/13 28/110/28 27/101/27
f 27/101/27 28/110/28 43/111/43 42/102/42
f 42/102/42 43/111/43 58/112/58 57/103/57
f 57/103/57 58/112/58 73/113/73 72/104/72
f 72/104/72 73/113/73 88/114/88 87/105/87
f 87/105/87 88/114/88 103/115/103 102/106/102
f 102/106/102 103/115/103 118/116/118 117/107/117
f 117/107/117 118/116/118 13/117/13 12/108/12
f 13/109/13 14/118/14 29/119/29 28/110/28
f 28/110/28 29/119/29 44/120/44 43/111/43
f 43/111/43 44/120/44 59/121/59 58/112/58
f 58/112/58 59/121/59 74/122/74 73/113/73
f 73/113/73 74/122/74 89/123/89 88/114/88
f 88/114/88 89/123/89 104/124/104 103/115/103
f 103/115/103 104/124/104 119/125/119 118/116/118
f 118/116/118 119/125/119 14/126/14 13/117/13
f 14/118/14 15/127/15 30/128/30 29/119/29
f 29/119/29 30/128/30 45/129/45 44/120/44
f 44/120/44 45/129/45 60/130/60 59/121/59
f 59/121/59 60/130/60 75/131/75 74/122/74
f 74/122/74 75/131/75 90/132/90 89/123/89
f 89/123/89 90/132/90 105/133/105 104/124/104
f 104/124/104 105/133/105 120/134/120 119/125/119
f 119/125/119 120/134/120 15/135/15 14/126/14
f 121/1/61 136/4/46 137/3/47 122/2/62
f 136/4/46 151/6/31 152/5/32 137/3/47
f 151/6/31 166/8/16 167/7/17 152/5/32
f 166/8/16 181/10/1 182/9/2 167/7/17
f 181/10/1 196/12/106 197/11/107 182/9/2
f 196/12/106 211/14/91 212/13/92 197/11/107
f 211/14/91 226/16/76 227/15/77 212/13/92
f 226/16/76 121/18/61 122/17/62 227/15/77
f 122/2/62 137/3/47 138/20/48 123/19/63
f 137/3/47 152/5/32 153/21/33 138/20/48
f 152/5/32 167/7/17 168/22/18 153/21/33
f 167/7/17 182/9/2 183/23/3 168/22/18
f 182/9/2 197/11/107 198/24/108 183/23/3
f 197/11/107 212/13/92 213/25/93 198/24/108
f 212/13/92 227/15/77 228/26/78 213/25/93
f 227/15/77 122/17/62 123/27/63 228/26/78
f 123/19/63 138/20/48 139/29/49 124/28/64
f 138/20/48 153/21/33 154/30/34 139/29/49
f 153/21/33 168/22/18 169/31/19 154/30/34
f 168/22/18 183/23/3 184/32/4 169/31/19
f 183/23/3 198/24/108 199/33/109 184/32/4
f 198/24/108 213/25/93 214/34/94 199/33/109
f 213/25/93 228/26/78 229/35/79 214/34/94
f 228/26/78 123/27/63 124/36/64 229/35/79
f 124/28/64 139/29/49 140/38/50 125/37/65
f 139/29/49 154/30/34 155/39/35 140/38/50
f 154/30/34 169/31/19 170/40/20 155/39/35
f 169/31/19 184/32/4 185/41/5 170/40/20
f 184/32/4 199/33/109 200/42/110 185/41/5
f 199/33/109 214/34/94 215/43/95 200/42/110
f 214/34/94 229/35/79 230/44/80 215/43/95
f 229/35/79 124/36/64 125/45/65 230/44/80
f 125/37/65 140/38/50 141/47/51 126/46/66
f 140/38/50 155/39/35 156/48/36 141/47/51
f 155/39/35 170/40/20 171/49/21 156/48/36
f 170/40/20 185/41/5 186/50/6 171/49/21
f 185/41/5 200/42/110 201/51/111 186/50/6
f 200/42/110 215/43/95 216/52/96 201/51/111
f 215/43/95 230/44/80 231/53/81 216/52/96
f 230/44/80 125/45/65 126/54/66 231/53/81
f 126/46/66 141/47/51 142/56/52 127/55/67
f 141/47/51 156/48/36 157/57/37 142/56/52
f 156/48/36 171/49/21 172/58/22 157/57/37
f 171/49/21 186/50/6 187/59/7 172/58/22
f 186/50/6 201/51/111 202/60/112 187/59/7
f 201/51/111 216/52/96 217/61/97 202/60/112
f 216/52/96 231/53/81 232/62/82 217/61/97
f 231/53/81 126/54/66 127/63/67 232/62/82
f 127/55/67 142/56/52 143/65/53 128/64/68
f 142/56/52 157/57/37 158/66/38 143/65/53
f 157/57/37 172/58/22 173/67/23 158/66/38
f 172/58/22 187/59/7 188/68/8 173/67/23
f 187/59/7 202/60/112 203/69/113 188/68/8
f 202/60/112 217/61/97 218/70/98 203/69/113
f 217/61/97 232/62/82 233/71/83 218/70/98
f 232/62/82 127/63/67 128/72/68 233/71/83
f 130/73/70 145/76/55 144/75/54 129/74/69
f 145/76/55 160/78/40 159/77/39 144/75/54
f 160/78/40 175/80/25 174/79/24 159/77/39
f 175/80/25 190/82/10 189/81/9 174/79/24
f 190/82/10 205/84/115 204/83/114 189/81/9
f 205/84/115 220/86/100 219/85/99 204/83/114
f 220/86/100 235/88/85 234/87/84 219/85/99
f 235/88/85 130/90/70 129/89/69 234/87/84
f 128/64/68 143/65/53 145/76/55 130/73/70
f 143/65/53 158/66/38 160/78/40 145/76/55
f 158/66/38 173/67/23 175/80/25 160/78/40
f 173/67/23 188/68/8 190/82/10 175/80/25
f 188/68/8 203/69/113 205/84/115 190/82/10
f 203/69/113 218/70/98 220/86/100 205/84/115
f 218/70/98 233/71/83 235/88/85 220/86/100
f 233/71/83 128/72/68 130/90/70 235/88/85
f 129/74/69 144/75/54 146/92/56 131/91/71
f 144/75/54 159/77/39 161/93/41 146/92/56
f 159/77/39 174/79/24 176/94/26 161/93/41
f 174/79/24 189/81/9 191/95/11 176/94/26
f 189/81/9 204/83/114 206/96/116 191/95/11
f 204/83/114 219/85/99 221/97/101 206/96/116
f 219/85/99 234/87/84 236/98/86 221/97/101
f 234/87/84 129/89/69 131/99/71 236/98/86
f 131/91/71 146/92/56 147/101/57 132/100/72
f 146/92/56 161/93/41 162/102/42 147/101/57
f 161/93/41 176/94/26 177/103/27 162/102/42
f 176/94/26 191/95/11 192/104/12 177/103/27
f 191/95/11 206/96/116 207/105/117 192/104/12
f 206/96/116 221/97/101 222/106/102 207/105/117
f 221/97/101 236/98/86 237/107/87 222/106/102
f 236/98/86 131/99/71 132/108/72 237/107/87
f 132/100/72 147/101/57 148/110/58 133/109/73
f 147/101/57 162/102/42 163/111/43 148/110/58
f 162/102/42 177/103/27 178/112/28 163/111/43
f 177/103/27 192/104/12 193/113/13 178/112/28
f 192/104/12 207/105/117 208/114/118 193/113/13
f 207/105/117 222/106/102 223/115/103 208/114/118
f 222/106/102 237/107/87 238/116/88 223/115/103
f 237/107/87 132/108/72 133/117/73 238/116/88
f 133/109/73 148/110/58 149/119/59 134/118/74
f 148/110/58 163/111/43 164/120/44 149/119/59
f 163/111/43 178/112/28 179/121/29 164/120/44
f 178/112/28 193/113/13 194/122/14 179/121/29
f 193/113/13 208/114/118 209/123/119 194/122/14
f 208/114/118 223/115/103 224/124/104 209/123/119
f 223/115/103 238/116/88 239/125/89 224/124/104
f 238/116/88 133/117/73 134/126/74 239/125/89
f 134/118/74 149/119/59 150/128/60 135/127/75
f 149/119/59 164/120/44 165/129/45 150/128/60
f 164/120/44 179/121/29 180/130/30 165/129/45
f 179/121/29 194/122/14 195/131/15 180/130/30
f 194/122/14 209/123/119 210/132/120 195/131/15
f 209/123/119 224/124/104 225/133/105 210/132/120
f 224/124/104 239/125/89 240/134/90 225/133/105
f 239/125/89 134/126/74 135/135/75 240/134/90
o sh_chair_grid
v -0.221707 0.577094 0.004246
v -0.198546 0.577094 -0.229913
v 0.000000 0.577094 -0.248455
v -0.216139 0.577094 0.204723
v -0.235767 0.577094 0.167961
v 0.000000 0.577094 0.249142
v 0.221707 0.577094 0.004246
v 0.198546 0.577094 -0.229913
v 0.216139 0.577094 0.204723
v 0.235767 0.577094 0.167961
vn -0.0000 1.0000 -0.0000
vt 0.000000 0.000000
s 0
f 243/136/121 242/136/121 244/136/121 246/136/121
f 241/136/121 245/136/121 244/136/121 242/136/121
f 243/136/121 246/136/121 249/136/121 248/136/121
f 247/136/121 248/136/121 249/136/121 250/136/121
o sh_chair_structure
v -0.213468 -0.001879 -0.385903
v -0.222770 -0.000713 -0.396037
v -0.219100 0.522141 -0.210332
v -0.228902 0.523591 -0.220244
v -0.222131 0.001213 -0.412771
v -0.212054 0.002379 -0.422907
v -0.219935 0.529491 -0.260593
v -0.229410 0.528046 -0.250714
v -0.184606 -0.000717 -0.396002
v -0.193890 -0.001879 -0.385903
v -0.188255 0.522142 -0.210332
v -0.178475 0.523586 -0.220204
v -0.195313 0.002379 -0.422907
v -0.185247 0.001217 -0.412808
v -0.187430 0.529487 -0.260536
v -0.177966 0.528043 -0.250665
v 0.000000 1.169215 -0.309189
v 0.000000 1.175609 -0.322516
v 0.000000 1.173196 -0.328653
v 0.000000 1.159427 -0.334037
v 0.000000 1.121103 -0.318968
v 0.000000 1.114637 -0.305646
v 0.000000 1.117063 -0.299475
v 0.000000 1.130835 -0.294098
v -0.222502 0.252113 -0.289885
v -0.212745 0.250152 -0.280086
v -0.222648 0.255581 -0.307215
v -0.213052 0.257544 -0.317021
v -0.194314 0.257544 -0.317021
v -0.184728 0.255589 -0.307252
v -0.184875 0.252106 -0.289850
v -0.194613 0.250152 -0.280086
v -0.197204 0.779318 -0.243801
v -0.187776 0.783552 -0.233105
v -0.187776 0.787579 -0.200934
v -0.197197 0.785536 -0.191540
v -0.226693 0.775203 -0.193579
v -0.236153 0.770952 -0.204281
v -0.236153 0.767941 -0.236584
v -0.226677 0.770002 -0.245922
v -0.277391 0.928434 -0.225056
v -0.268416 0.934675 -0.215908
v -0.204755 1.183469 -0.288031
v -0.196264 1.190480 -0.301864
v -0.214391 1.186239 -0.297462
v -0.301073 1.045884 -0.247433
v -0.291292 1.047459 -0.238355
v -0.264463 1.155211 -0.278197
v -0.275198 1.140718 -0.272399
v -0.264871 1.145329 -0.264852
v -0.196274 1.187684 -0.311085
v -0.204751 1.175214 -0.316795
v -0.214505 1.183624 -0.307219
v -0.268433 0.928379 -0.252057
v -0.277391 0.925746 -0.241354
v -0.264896 1.137851 -0.297367
v -0.275224 1.137798 -0.285523
v -0.264361 1.152310 -0.290530
v -0.291323 1.040617 -0.272885
v -0.301073 1.043080 -0.262227
v -0.208625 1.141467 -0.296512
v -0.201908 1.154852 -0.311401
v -0.190521 1.144786 -0.299356
v -0.239251 0.944327 -0.244546
v -0.248079 0.938097 -0.253734
v -0.234273 1.124951 -0.289113
v -0.244794 1.110342 -0.284163
v -0.250413 1.124520 -0.296809
v -0.261388 1.041043 -0.265315
v -0.271097 1.039408 -0.274433
v -0.190495 1.147639 -0.290019
v -0.201900 1.163071 -0.282585
v -0.208526 1.144231 -0.286408
v -0.248100 0.945091 -0.217689
v -0.239251 0.947617 -0.228358
v -0.250442 1.132475 -0.264464
v -0.244769 1.113609 -0.271235
v -0.234363 1.128134 -0.277064
v -0.271135 1.046846 -0.240018
v -0.261388 1.044337 -0.250662
v -0.259602 0.854522 -0.238833
v -0.250371 0.856827 -0.248808
v -0.259602 0.858452 -0.210073
v -0.250396 0.863865 -0.200103
v -0.219741 0.877336 -0.200214
v -0.210564 0.879579 -0.210214
v -0.219756 0.869004 -0.248757
v -0.210564 0.874448 -0.238785
v -0.053834 1.173921 -0.327135
v -0.054115 1.160169 -0.332605
v -0.053834 1.176581 -0.320208
v -0.054114 1.170056 -0.306906
v -0.055052 1.136117 -0.293824
v -0.055332 1.122389 -0.299298
v -0.055051 1.126299 -0.319548
v -0.055332 1.119720 -0.306260
v 0.222770 -0.000713 -0.396037
v 0.213468 -0.001879 -0.385903
v 0.228902 0.523591 -0.220244
v 0.219100 0.522141 -0.210332
v 0.212054 0.002379 -0.422907
v 0.222131 0.001213 -0.412771
v 0.229410 0.528046 -0.250714
v 0.219935 0.529491 -0.260593
v 0.193890 -0.001879 -0.385903
v 0.184606 -0.000717 -0.396002
v 0.178475 0.523586 -0.220204
v 0.188255 0.522142 -0.210332
v 0.185247 0.001217 -0.412808
v 0.195313 0.002379 -0.422907
v 0.177966 0.528043 -0.250665
v 0.187430 0.529487 -0.260536
v 0.212745 0.250152 -0.280086
v 0.222502 0.252113 -0.289885
v 0.213052 0.257544 -0.317021
v 0.222648 0.255581 -0.307215
v 0.184728 0.255589 -0.307252
v 0.194314 0.257544 -0.317021
v 0.194613 0.250152 -0.280086
v 0.184875 0.252106 -0.289850
v 0.187776 0.783552 -0.233105
v 0.197204 0.779318 -0.243801
v 0.197197 0.785536 -0.191540
v 0.187776 0.787579 -0.200934
v 0.236153 0.770952 -0.204281
v 0.226693 0.775203 -0.193579
v 0.226677 0.770002 -0.245922
v 0.236153 0.767941 -0.236584
v 0.268416 0.934675 -0.215908
v 0.277391 0.928434 -0.225056
v 0.214391 1.186239 -0.297462
v 0.196264 1.190480 -0.301864
v 0.204755 1.183469 -0.288031
v 0.291292 1.047459 -0.238355
v 0.301073 1.045884 -0.247433
v 0.264871 1.145329 -0.264852
v 0.275198 1.140718 -0.272399
v 0.264463 1.155211 -0.278197
v 0.196274 1.187684 -0.311085
v 0.214505 1.183624 -0.307219
v 0.204751 1.175214 -0.316795
v 0.277391 0.925746 -0.241354
v 0.268433 0.928379 -0.252057
v 0.264361 1.152310 -0.290530
v 0.275224 1.137798 -0.285523
v 0.264896 1.137851 -0.297367
v 0.301073 1.043080 -0.262227
v 0.291323 1.040617 -0.272885
v 0.208625 1.141467 -0.296512
v 0.190521 1.144786 -0.299356
v 0.201908 1.154852 -0.311401
v 0.248079 0.938097 -0.253734
v 0.239251 0.944327 -0.244546
v 0.234274 1.124951 -0.289113
v 0.250413 1.124520 -0.296809
v 0.244794 1.110342 -0.284163
v 0.271097 1.039408 -0.274433
v 0.261388 1.041043 -0.265315
v 0.190495 1.147639 -0.290019
v 0.208526 1.144231 -0.286408
v 0.201900 1.163071 -0.282585
v 0.239251 0.947617 -0.228358
v 0.248100 0.945091 -0.217689
v 0.234363 1.128134 -0.277064
v 0.244769 1.113609 -0.271235
v 0.250442 1.132475 -0.264464
v 0.261388 1.044337 -0.250662
v 0.271135 1.046846 -0.240018
v 0.250371 0.856827 -0.248808
v 0.259602 0.854522 -0.238833
v 0.250396 0.863865 -0.200103
v 0.259602 0.858452 -0.210073
v 0.210564 0.879579 -0.210214
v 0.219741 0.877336 -0.200214
v 0.210564 0.874448 -0.238785
v 0.219756 0.869004 -0.248757
v 0.054115 1.160169 -0.332605
v 0.053834 1.173921 -0.327135
v 0.054114 1.170056 -0.306906
v 0.053834 1.176581 -0.320208
v 0.055332 1.122389 -0.299298
v 0.055052 1.136117 -0.293824
v 0.055332 1.119720 -0.306260
v 0.055051 1.126299 -0.319548
vn -0.4136 -0.3518 0.8397
vn -0.9507 -0.1197 0.2859
vn -0.3879 -0.1558 0.9085
vn -0.9170 -0.0865 0.3895
vn -0.8944 0.1702 -0.4137
vn -0.3557 0.3573 -0.8636
vn -0.3911 0.1117 -0.9136
vn -0.9351 0.0219 -0.3537
vn 0.9506 -0.1199 0.2862
vn 0.4132 -0.3518 0.8399
vn 0.3802 -0.1455 0.9134
vn 0.9178 -0.0586 0.3928
vn 0.3551 0.3574 -0.8638
vn 0.8940 0.1704 -0.4143
vn 0.4145 0.1260 -0.9013
vn 0.9369 0.0538 -0.3455
vn -0.0000 0.6808 0.7324
vn -0.0000 0.9995 0.0300
vn -0.0000 0.7037 -0.7105
vn -0.0000 -0.0008 -1.0000
vn -0.0000 -0.6889 -0.7248
vn -0.0000 -0.9992 -0.0395
vn -0.0000 -0.7212 0.6927
vn -0.0000 -0.0245 0.9997
vn -0.9190 -0.1363 0.3699
vn -0.3793 -0.2971 0.8763
vn -0.9340 0.0933 -0.3448
vn -0.3949 0.2674 -0.8789
vn 0.3949 0.2675 -0.8789
vn 0.9339 0.0935 -0.3452
vn 0.9189 -0.1364 0.3702
vn 0.3790 -0.2971 0.8764
vn 0.4340 0.0642 -0.8986
vn 0.9253 0.1294 -0.3566
vn 0.9127 0.1387 0.3844
vn 0.3737 0.0615 0.9255
vn -0.3759 -0.0581 0.9248
vn -0.9049 -0.1327 0.4045
vn -0.9185 -0.1232 -0.3758
vn -0.3399 -0.0369 -0.9397
vn -0.9095 -0.1270 0.3959
vn -0.4005 0.1054 0.9102
vn 0.0034 0.6875 0.7262
vn -0.0328 0.9967 0.0747
vn -0.3626 0.9230 0.1287
vn -0.9242 0.1100 0.3656
vn -0.3810 0.2167 0.8988
vn -0.5972 0.7786 0.1930
vn -0.8432 0.4643 0.2709
vn -0.2857 0.5072 0.8131
vn -0.1238 0.7710 -0.6247
vn -0.2414 0.1605 -0.9571
vn -0.4506 0.7108 -0.5402
vn -0.4123 -0.1954 -0.8899
vn -0.9167 -0.2410 -0.3188
vn -0.4868 0.0585 -0.8716
vn -0.8746 0.2984 -0.3820
vn -0.6742 0.5704 -0.4692
vn -0.4863 -0.1667 -0.8577
vn -0.9409 -0.0389 -0.3365
vn 0.3441 -0.9130 -0.2191
vn -0.0732 -0.5148 -0.8542
vn -0.0541 -0.9856 -0.1599
vn 0.8823 0.2160 -0.4181
vn 0.3419 -0.0137 -0.9396
vn 0.5756 -0.7705 -0.2738
vn 0.8287 -0.4372 -0.3494
vn 0.1017 -0.3901 -0.9152
vn 0.9142 -0.0946 -0.3940
vn 0.2862 -0.2098 -0.9349
vn 0.0663 -0.7166 0.6943
vn 0.2124 0.0454 0.9761
vn 0.4630 -0.6446 0.6084
vn 0.3422 0.3153 0.8851
vn 0.8791 0.3564 0.3166
vn 0.3602 0.0986 0.9276
vn 0.8678 -0.2071 0.4516
vn 0.6764 -0.4957 0.5448
vn 0.3969 0.2104 0.8934
vn 0.9239 0.0906 0.3717
vn -0.9019 -0.2471 -0.3544
vn -0.3691 -0.1372 -0.9192
vn -0.8962 -0.1781 0.4063
vn -0.4109 0.0302 0.9112
vn 0.3338 0.2632 0.9051
vn 0.8689 0.3523 0.3478
vn 0.3902 0.0709 -0.9180
vn 0.8766 0.2579 -0.4062
vn -0.0090 0.7142 -0.6999
vn -0.0618 0.0135 -0.9980
vn 0.0617 0.9966 0.0537
vn 0.0967 0.6579 0.7469
vn 0.0353 -0.0339 0.9988
vn -0.0809 -0.7299 0.6787
vn -0.1109 -0.6567 -0.7460
vn -0.1385 -0.9877 -0.0728
vn 0.9507 -0.1197 0.2859
vn 0.4136 -0.3518 0.8397
vn 0.9170 -0.0865 0.3895
vn 0.3879 -0.1558 0.9085
vn 0.3557 0.3573 -0.8636
vn 0.8944 0.1702 -0.4137
vn 0.9351 0.0219 -0.3537
vn 0.3911 0.1117 -0.9136
vn -0.4132 -0.3518 0.8399
vn -0.9506 -0.1199 0.2862
vn -0.9178 -0.0586 0.3928
vn -0.3802 -0.1455 0.9134
vn -0.8940 0.1704 -0.4143
vn -0.3551 0.3574 -0.8638
vn -0.9369 0.0538 -0.3455
vn -0.4145 0.1260 -0.9013
vn 0.3793 -0.2971 0.8763
vn 0.9190 -0.1363 0.3699
vn 0.3949 0.2674 -0.8789
vn 0.9340 0.0933 -0.3448
vn -0.9339 0.0935 -0.3452
vn -0.3949 0.2675 -0.8789
vn -0.3790 -0.2971 0.8764
vn -0.9189 -0.1364 0.3702
vn -0.9253 0.1294 -0.3566
vn -0.4340 0.0642 -0.8986
vn -0.3737 0.0615 0.9255
vn -0.9127 0.1387 0.3844
vn 0.9049 -0.1327 0.4045
vn 0.3759 -0.0581 0.9248
vn 0.3399 -0.0369 -0.9397
vn 0.9185 -0.1232 -0.3758
vn 0.4005 0.1054 0.9102
vn 0.9095 -0.1270 0.3959
vn 0.3626 0.9230 0.1287
vn 0.0328 0.9967 0.0747
vn -0.0034 0.6875 0.7262
vn 0.3810 0.2167 0.8988
vn 0.9242 0.1100 0.3656
vn 0.2857 0.5072 0.8131
vn 0.8432 0.4643 0.2709
vn 0.5972 0.7786 0.1930
vn 0.1238 0.7710 -0.6247
vn 0.4506 0.7108 -0.5402
vn 0.2414 0.1605 -0.9571
vn 0.9167 -0.2410 -0.3188
vn 0.4123 -0.1954 -0.8899
vn 0.6742 0.5704 -0.4692
vn 0.8746 0.2984 -0.3820
vn 0.4868 0.0585 -0.8716
vn 0.9409 -0.0389 -0.3365
vn 0.4863 -0.1667 -0.8577
vn -0.3441 -0.9130 -0.2191
vn 0.0541 -0.9856 -0.1599
vn 0.0732 -0.5148 -0.8542
vn -0.3419 -0.0137 -0.9396
vn -0.8823 0.2160 -0.4181
vn -0.5756 -0.7705 -0.2738
vn -0.1017 -0.3901 -0.9152
vn -0.8287 -0.4372 -0.3494
vn -0.2862 -0.2098 -0.9349
vn -0.9142 -0.0946 -0.3940
vn -0.0663 -0.7166 0.6943
vn -0.4630 -0.6446 0.6084
vn -0.2124 0.0454 0.9761
vn -0.8791 0.3564 0.3166
vn -0.3422 0.3153 0.8851
vn -0.6764 -0.4957 0.5448
vn -0.8678 -0.2071 0.4516
vn -0.3602 0.0986 0.9276
vn -0.9239 0.0906 0.3717
vn -0.3969 0.2104 0.8934
vn 0.3691 -0.1372 -0.9192
vn 0.9019 -0.2471 -0.3544
vn 0.4109 0.0302 0.9112
vn 0.8962 -0.1781 0.4063
vn -0.8689 0.3523 0.3478
vn -0.3338 0.2632 0.9051
vn -0.8766 0.2579 -0.4062
vn -0.3902 0.0709 -0.9180
vn 0.0618 0.0135 -0.9980
vn 0.0090 0.7142 -0.6999
vn -0.0967 0.6579 0.7469
vn -0.0617 0.9966 0.0537
vn 0.0809 -0.7299 0.6787
vn -0.0353 -0.0339 0.9988
vn 0.1385 -0.9877 -0.0728
vn 0.1109 -0.6567 -0.7460
vt 0.625000 0.936327
vt 0.625000 1.000000
vt 0.625000 0.976515
vt 0.625000 0.836222
vt 0.625000 0.788517
vt 0.625000 0.770357
vt 0.625000 0.165432
vt 0.625000 0.313839
vt 0.625000 0.174850
vt 0.625000 0.408987
vt 0.625000 0.242556
vt 0.625000 0.232272
vt 0.625000 0.588065
vt 0.625000 0.434890
vt 0.625000 0.584142
vt 0.625000 0.608737
vt 0.625000 0.612343
vt 0.625000 0.527743
vt 0.625000 0.665877
vt 0.625000 0.814774
vt 0.625000 0.664705
vt 0.625000 0.697148
vt 0.625000 0.637220
vt 0.625000 0.643854
vt 0.625000 0.977434
vt 0.625000 0.994154
vt 0.625000 0.936327
vt 0.625000 0.007963
vt 0.625000 0.103966
vt 0.625000 0.111071
vt 0.625000 0.165432
vt 0.625000 0.313839
vt 0.625000 0.232272
vt 0.625000 0.242556
vt 0.625000 0.408987
vt 0.625000 0.588065
vt 0.625000 0.584142
vt 0.625000 0.434890
vt 0.625000 0.608737
vt 0.625000 0.527743
vt 0.625000 0.612342
vt 0.625000 0.665877
vt 0.625000 0.664705
vt 0.625000 0.814774
vt 0.625000 0.643854
vt 0.625000 0.637220
vt 0.625000 0.697148
vt 0.500000 0.935435
vt 0.625000 0.951910
vt 0.624531 1.000000
vt 0.499546 1.000000
vt 0.500000 0.313533
vt 0.375000 0.317088
vt 0.375000 0.181519
vt 0.500000 0.183630
vt 0.500000 0.566119
vt 0.375000 0.568232
vt 0.375000 0.432983
vt 0.500000 0.436537
vt 0.500000 0.814438
vt 0.375000 0.812085
vt 0.375000 0.681773
vt 0.500000 0.683908
vt 0.625000 0.798683
vt 0.625000 0.797983
vt 0.625000 0.700822
vt 0.625000 0.701921
vt 0.625000 0.298970
vt 0.625000 0.296551
vt 0.625000 0.200793
vt 0.625000 0.202165
vt 0.375000 0.937797
vt 0.375000 1.000000
vt 0.625000 0.549088
vt 0.625000 0.453507
vt 0.625000 0.451277
vt 0.625000 0.547945
vt 0.625000 0.000000
vt 0.625000 0.047968
vt 0.625000 0.049288
vt 0.625000 0.084555
vt 0.625000 0.088444
vt 0.625000 0.103456
vt 0.625000 0.000294
vt 0.625000 0.000581
vt 0.625000 0.101823
vt 0.625000 0.417295
vt 0.625000 0.253775
vt 0.625000 0.000003
vt 0.625000 0.068617
vt 0.625000 0.308716
vt 0.625000 0.181180
vt 0.625000 0.617133
vt 0.625000 0.545295
vt 0.625000 0.568863
vt 0.625000 0.442134
vt 0.625000 0.678844
vt 0.625000 0.632576
vt 0.625000 0.808001
vt 0.625000 0.681285
vt 0.625000 0.296819
vt 0.625000 0.158747
vt 0.625000 0.953261
vt 0.625000 0.956977
vt 0.625000 0.297058
vt 0.625000 0.198771
vt 0.625000 0.051292
vt 0.625000 0.658794
vt 0.625000 0.655980
vt 0.625000 0.793109
vt 0.625000 0.796725
vt 0.625000 0.698620
vt 0.625000 0.796784
vt 0.625000 0.551329
vt 0.625000 0.453137
vt 0.625000 0.591097
vt 0.625000 0.453078
vt 0.625000 0.293088
vt 0.625000 0.155930
vt 0.625000 0.593910
vt 0.625000 0.456720
vt 0.499546 1.000000
vt 0.500000 0.183630
vt 0.375000 0.181519
vt 0.500000 0.313533
vt 0.500000 0.436537
vt 0.375000 0.568232
vt 0.500000 0.566119
vt 0.375000 0.681773
vt 0.375000 0.812086
vt 0.625000 0.798683
vt 0.625000 0.453507
vt 0.625000 0.049288
vt 0.625000 0.047968
vt 0.625000 0.837863
vt 0.625000 0.770357
vt 0.625000 0.088444
vt 0.625000 0.084555
vt 0.625000 0.101823
vt 0.625000 0.253775
vt 0.625000 0.068617
vt 0.625000 0.000003
vt 0.625000 0.181180
vt 0.625000 0.308716
vt 0.625000 0.681286
vt 0.625000 0.296819
vt 0.625000 0.953261
vt 0.625000 0.198771
vt 0.625000 0.297058
vt 0.625000 0.051292
vt 0.625000 0.658794
vt 0.625000 0.453137
vt 0.375000 0.068464
vt 0.500000 0.066330
vt 0.625000 0.951116
vt 0.625000 0.094195
vt 0.625000 0.091378
vt 0.625000 0.091378
vt 0.625000 0.953068
vt 0.625000 0.753087
vt 0.625000 0.941167
vt 0.375000 0.068464
vt 0.500000 0.066330
vt 0.625000 0.951116
vt 0.625000 0.953068
vt 0.625000 0.941167
s 1
f 293/137/164 294/138/165 295/139/166
f 298/140/169 299/141/170 300/142/171
f 301/143/172 302/144/173 303/145/174
f 306/146/177 307/147/178 308/148/179
f 311/149/182 312/150/183 313/151/184
f 316/152/187 317/153/188 318/154/189
f 321/155/192 322/156/193 323/157/194
f 326/158/197 327/159/198 328/160/199
f 381/161/252 382/162/253 383/163/254
f 386/164/257 387/165/258 388/166/259
f 389/167/260 390/145/261 391/168/262
f 394/169/265 395/170/266 396/171/267
f 399/172/270 400/173/271 401/174/272
f 404/175/275 405/176/276 406/177/277
f 409/178/280 410/179/281 411/180/282
f 414/181/285 415/182/286 416/183/287
f 276/184/147 253/185/124 254/186/125 275/187/146
f 278/188/149 256/189/127 255/190/126 277/191/148
f 280/192/151 264/193/135 263/194/134 279/195/150
f 282/196/153 260/197/131 259/198/130 281/199/152
f 286/200/157 261/201/132 262/202/133 285/203/156
f 290/204/161 257/205/128 258/206/129 289/207/160
f 251/208/122 276/184/147 275/187/146 252/209/123
f 257/205/128 278/188/149 277/191/148 258/206/129
f 266/210/137 280/192/151 279/195/150 265/211/136
f 261/201/132 282/196/153 281/199/152 262/202/133
f 265/211/136 283/212/154 284/213/155 266/210/137
f 253/214/124 287/214/158 288/215/159 254/216/125
f 300/142/171 293/137/164 295/139/166 298/140/169
f 294/217/165 301/143/172 303/145/174 295/218/166
f 302/144/173 306/146/177 308/148/179 303/145/174
f 307/147/178 299/165/170 298/219/169 308/148/179
f 297/220/168 300/221/171 299/165/170 296/222/167
f 306/146/177 309/223/180 310/224/181 307/147/178
f 292/225/163 297/220/168 296/222/167 291/226/162
f 309/223/180 304/227/175 305/228/176 310/224/181
f 311/149/182 316/152/187 318/154/189 312/150/183
f 317/153/188 319/229/190 320/230/191 318/154/189
f 319/229/190 314/231/185 315/232/186 320/230/191
f 313/151/184 321/155/192 323/157/194 311/149/182
f 322/156/193 326/158/197 328/160/199 323/157/194
f 327/159/198 317/153/188 316/152/187 328/160/199
f 326/158/197 329/233/200 330/234/201 327/159/198
f 329/233/200 324/235/195 325/236/196 330/234/201
f 340/237/211 302/144/173 301/143/172 339/238/210
f 342/239/213 267/240/138 268/138/139 341/138/212
f 332/241/203 290/204/161 289/207/160 331/242/202
f 334/214/205 292/225/163 291/226/162 333/243/204
f 344/244/215 273/245/144 274/246/145 343/247/214
f 336/248/207 325/236/196 324/235/195 335/249/206
f 338/250/209 284/213/155 283/212/154 337/251/208
f 346/252/217 313/151/184 312/150/183 345/253/216
f 304/227/175 332/241/203 331/242/202 305/228/176
f 287/214/158 334/214/205 333/243/204 288/215/159
f 285/203/156 336/248/207 335/249/206 286/200/157
f 314/231/185 338/250/209 337/251/208 315/232/186
f 270/254/141 340/237/211 339/238/210 269/255/140
f 293/137/164 342/239/213 341/138/212 294/138/165
f 321/155/192 344/244/215 343/247/214 322/156/193
f 272/256/143 346/252/217 345/253/216 271/257/142
f 364/258/235 349/186/220 350/185/221 363/184/234
f 366/259/237 352/260/223 351/189/222 365/261/236
f 368/262/239 360/194/231 359/263/230 367/264/238
f 370/199/241 356/265/227 355/266/226 369/196/240
f 374/203/245 357/202/228 358/201/229 373/267/244
f 378/207/249 353/206/224 354/205/225 377/204/248
f 347/209/218 364/258/235 363/184/234 348/208/219
f 353/206/224 366/259/237 365/261/236 354/205/225
f 362/268/233 368/262/239 367/264/238 361/210/232
f 357/202/228 370/199/241 369/196/240 358/201/229
f 361/210/232 371/213/242 372/212/243 362/268/233
f 349/269/220 375/270/246 376/214/247 350/214/221
f 388/271/259 381/161/252 383/163/254 386/272/257
f 381/273/252 390/145/261 389/167/260 382/274/253
f 390/145/261 394/169/265 396/171/267 391/168/262
f 394/169/265 388/166/259 387/165/258 395/170/266
f 385/275/256 387/165/258 386/164/257 384/220/255
f 395/170/266 397/276/268 398/223/269 396/171/267
f 380/277/251 385/275/256 384/220/255 379/278/250
f 397/276/268 392/279/263 393/280/264 398/223/269
f 401/174/272 405/176/276 404/175/275 399/172/270
f 405/176/276 407/230/278 408/229/279 406/177/277
f 407/230/278 402/232/273 403/231/274 408/229/279
f 399/172/270 410/179/281 409/178/280 400/173/271
f 410/179/281 414/181/285 416/183/287 411/180/282
f 414/181/285 404/175/275 406/177/277 415/182/286
f 415/182/286 417/234/288 418/233/289 416/183/287
f 417/234/288 412/281/283 413/235/284 418/233/289
f 428/238/299 389/167/260 391/168/262 427/282/298
f 430/138/301 268/138/139 267/240/138 429/283/300
f 420/284/291 378/207/249 377/204/248 419/285/290
f 422/286/293 380/277/251 379/278/250 421/214/292
f 432/247/303 274/246/145 273/245/144 431/287/302
f 424/249/295 413/235/284 412/281/283 423/248/294
f 426/288/297 372/212/243 371/213/242 425/250/296
f 434/253/305 401/174/272 400/173/271 433/252/304
f 392/279/263 420/284/291 419/285/290 393/280/264
f 375/270/246 422/286/293 421/214/292 376/214/247
f 373/267/244 424/249/295 423/248/294 374/203/245
f 402/232/273 426/288/297 425/250/296 403/231/274
f 269/255/140 428/238/299 427/282/298 270/254/141
f 382/162/253 430/138/301 429/283/300 383/163/254
f 411/180/282 432/247/303 431/287/302 409/178/280
f 271/257/142 434/253/305 433/252/304 272/256/143
f 252/289/123 275/290/146 277/191/148 255/190/126
f 260/197/131 282/196/153 276/184/147 251/208/122
f 282/196/153 261/201/132 253/185/124 276/184/147
f 275/290/146 254/216/125 258/206/129 277/191/148
f 253/185/124 261/201/132 286/200/157 287/291/158
f 258/206/129 254/216/125 288/215/159 289/207/160
f 256/189/127 278/188/149 279/195/150 263/194/134
f 278/188/149 257/205/128 265/211/136 279/195/150
f 265/211/136 257/205/128 290/204/161 283/212/154
f 264/193/135 280/192/151 281/199/152 259/198/130
f 262/202/133 266/210/137 284/213/155 285/203/156
f 280/192/151 266/210/137 262/202/133 281/199/152
f 428/238/299 269/255/140 268/292/139 430/293/301
f 339/238/210 341/294/212 268/292/139 269/255/140
f 429/283/300 267/240/138 274/246/145 432/247/303
f 342/239/213 343/247/214 274/246/145 267/240/138
f 345/253/216 340/237/211 270/254/141 271/257/142
f 434/253/305 271/257/142 270/254/141 427/282/298
f 344/244/215 346/252/217 272/256/143 273/245/144
f 431/287/302 273/245/144 272/256/143 433/252/304
f 285/203/156 284/213/155 338/250/209 336/248/207
f 283/212/154 290/204/161 332/241/203 337/251/208
f 287/291/158 286/200/157 335/249/206 334/295/205
f 289/207/160 288/215/159 333/243/204 331/242/202
f 329/233/200 297/296/168 292/297/163 324/235/195
f 334/295/205 335/249/206 324/235/195 292/297/163
f 296/222/167 310/224/181 305/228/176 291/226/162
f 331/242/202 333/243/204 291/226/162 305/228/176
f 322/156/193 293/137/164 300/142/171 326/158/197
f 295/218/166 303/145/174 308/148/179 298/219/169
f 293/137/164 322/156/193 343/247/214 342/239/213
f 301/143/172 294/217/165 341/294/212 339/238/210
f 326/158/197 300/142/171 297/296/168 329/233/200
f 299/165/170 307/147/178 310/224/181 296/222/167
f 302/144/173 312/150/183 318/154/189 306/146/177
f 312/150/183 302/144/173 340/237/211 345/253/216
f 309/223/180 320/230/191 315/232/186 304/227/175
f 337/251/208 332/241/203 304/227/175 315/232/186
f 306/146/177 318/154/189 320/230/191 309/223/180
f 311/149/182 323/157/194 328/160/199 316/152/187
f 321/155/192 313/151/184 346/252/217 344/244/215
f 319/229/190 330/234/201 325/236/196 314/231/185
f 336/248/207 338/250/209 314/231/185 325/236/196
f 317/153/188 327/159/198 330/234/201 319/229/190
f 347/298/218 352/260/223 366/259/237 364/299/235
f 355/266/226 348/208/219 363/184/234 369/196/240
f 369/196/240 363/184/234 350/185/221 358/201/229
f 350/185/221 376/300/247 373/267/244 358/201/229
f 364/299/235 366/259/237 353/206/224 349/269/220
f 353/206/224 378/207/249 375/270/246 349/269/220
f 351/189/222 360/194/231 368/262/239 365/261/236
f 365/261/236 368/262/239 362/268/233 354/205/225
f 362/268/233 372/212/243 377/204/248 354/205/225
f 359/263/230 356/265/227 370/199/241 367/264/238
f 357/202/228 374/203/245 371/213/242 361/210/232
f 367/264/238 370/199/241 357/202/228 361/210/232
f 374/203/245 423/248/294 425/250/296 371/213/242
f 372/212/243 426/288/297 419/285/290 377/204/248
f 376/300/247 421/301/292 424/249/295 373/267/244
f 378/207/249 420/284/291 422/286/293 375/270/246
f 418/233/289 413/235/284 379/302/250 384/296/255
f 385/275/256 380/277/251 392/279/263 397/276/268
f 421/301/292 379/302/250 413/235/284 424/249/295
f 420/284/291 392/279/263 380/277/251 422/286/293
f 411/180/282 416/183/287 386/272/257 383/163/254
f 383/163/254 429/283/300 432/247/303 411/180/282
f 381/273/252 388/166/259 394/169/265 390/145/261
f 389/167/260 428/238/299 430/293/301 382/274/253
f 416/183/287 418/233/289 384/296/255 386/272/257
f 387/165/258 385/275/256 397/276/268 395/170/266
f 391/168/262 396/171/267 405/176/276 401/174/272
f 401/174/272 434/253/305 427/282/298 391/168/262
f 398/223/269 393/280/264 402/232/273 407/230/278
f 426/288/297 402/232/273 393/280/264 419/285/290
f 396/171/267 398/223/269 407/230/278 405/176/276
f 399/172/270 404/175/275 414/181/285 410/179/281
f 409/178/280 431/287/302 433/252/304 400/173/271
f 408/229/279 403/231/274 412/281/283 417/234/288
f 423/248/294 412/281/283 403/231/274 425/250/296
f 406/177/277 408/229/279 417/234/288 415/182/286
o sh_chair_rod_big
v -0.197611 0.797799 -0.217947
v -0.199801 0.806179 -0.209589
v -0.198252 0.800765 -0.211794
v -0.234696 0.920030 -0.218921
v -0.237865 0.929125 -0.228776
v -0.236937 0.926977 -0.222158
v -0.199807 0.801859 -0.240990
v -0.197611 0.795939 -0.231395
v -0.198254 0.797158 -0.237936
v -0.237865 0.927277 -0.242151
v -0.234706 0.915724 -0.250330
v -0.236940 0.923376 -0.248285
v 0.000000 0.817732 -0.248269
v 0.000000 0.828425 -0.240483
v 0.000000 0.821341 -0.242258
v 0.000000 0.909944 -0.250904
v 0.000000 0.917910 -0.261073
v 0.000000 0.916054 -0.254365
v 0.000000 0.824082 -0.274413
v 0.000000 0.815696 -0.264188
v 0.000000 0.817675 -0.270913
v 0.000000 0.915874 -0.276985
v 0.000000 0.905607 -0.284834
v 0.000000 0.912390 -0.283018
v -0.118932 0.833584 -0.252895
v -0.118932 0.842066 -0.263127
v -0.118932 0.835591 -0.259625
v -0.118932 0.895024 -0.260651
v -0.118932 0.884737 -0.268521
v -0.118932 0.891533 -0.266694
v -0.118932 0.835618 -0.236993
v -0.118932 0.846410 -0.229197
v -0.118932 0.839257 -0.230976
v -0.118932 0.897058 -0.244759
v -0.118932 0.889073 -0.234591
v -0.118932 0.895196 -0.238047
v -0.179651 0.818782 -0.238860
v -0.174215 0.834319 -0.251400
v -0.165340 0.826984 -0.243025
v -0.175096 0.826672 -0.247536
v -0.173092 0.825981 -0.246647
v -0.169687 0.828398 -0.248828
v -0.173208 0.824050 -0.241092
v -0.174215 0.897613 -0.224992
v -0.174215 0.905612 -0.235175
v -0.174215 0.903747 -0.228458
v -0.174215 0.893278 -0.258923
v -0.174215 0.903580 -0.251060
v -0.174215 0.900084 -0.257103
v -0.174215 0.838664 -0.217470
v -0.179687 0.820775 -0.223498
v -0.165340 0.829017 -0.227129
v -0.175175 0.830229 -0.218908
v -0.172960 0.829343 -0.220465
v -0.173218 0.826058 -0.225462
v -0.168959 0.832167 -0.220357
v -0.033287 0.903042 -0.283388
v -0.033287 0.913316 -0.275536
v -0.033287 0.909828 -0.281571
v -0.033287 0.830179 -0.239592
v -0.033287 0.819461 -0.247378
v -0.033287 0.823078 -0.241366
v -0.033287 0.825836 -0.273522
v -0.033287 0.817426 -0.263291
v -0.033287 0.819412 -0.270019
v -0.033287 0.907378 -0.249458
v -0.033287 0.915350 -0.259631
v -0.033287 0.913493 -0.252921
v 0.199801 0.806179 -0.209589
v 0.197611 0.797799 -0.217947
v 0.198252 0.800765 -0.211794
v 0.237865 0.929125 -0.228776
v 0.234696 0.920030 -0.218921
v 0.236937 0.926977 -0.222158
v 0.197611 0.795939 -0.231395
v 0.199807 0.801859 -0.240990
v 0.198254 0.797158 -0.237936
v 0.234706 0.915724 -0.250330
v 0.237865 0.927277 -0.242151
v 0.236940 0.923376 -0.248285
v 0.118932 0.842066 -0.263127
v 0.118932 0.833584 -0.252895
v 0.118932 0.835591 -0.259625
v 0.118932 0.884737 -0.268521
v 0.118932 0.895024 -0.260651
v 0.118932 0.891533 -0.266694
v 0.118932 0.846410 -0.229197
v 0.118932 0.835618 -0.236993
v 0.118932 0.839257 -0.230976
v 0.118932 0.889073 -0.234591
v 0.118932 0.897058 -0.244759
v 0.118932 0.895196 -0.238047
v 0.179651 0.818782 -0.238860
v 0.165340 0.826984 -0.243025
v 0.174215 0.834319 -0.251400
v 0.173208 0.824050 -0.241092
v 0.173093 0.825981 -0.246647
v 0.169687 0.828398 -0.248828
v 0.175096 0.826672 -0.247536
v 0.174215 0.905612 -0.235175
v 0.174215 0.897613 -0.224992
v 0.174215 0.903747 -0.228458
v 0.174215 0.903580 -0.251060
v 0.174215 0.893278 -0.258923
v 0.174215 0.900084 -0.257103
v 0.165340 0.829017 -0.227129
v 0.179687 0.820775 -0.223498
v 0.174215 0.838664 -0.217470
v 0.173218 0.826058 -0.225462
v 0.172960 0.829343 -0.220465
v 0.175175 0.830229 -0.218908
v 0.168959 0.832167 -0.220357
v 0.033287 0.913316 -0.275536
v 0.033287 0.903042 -0.283388
v 0.033287 0.909828 -0.281571
v 0.033287 0.819461 -0.247378
v 0.033287 0.830179 -0.239592
v 0.033287 0.823078 -0.241366
v 0.033287 0.817426 -0.263291
v 0.033287 0.825836 -0.273522
v 0.033287 0.819412 -0.270019
v 0.033287 0.915350 -0.259631
v 0.033287 0.907378 -0.249458
v 0.033287 0.913493 -0.252921
vn 0.7949 -0.5703 0.2069
vn 0.4054 -0.0982 0.9088
vn 0.7129 -0.4229 0.5595
vn 0.2289 0.3746 0.8985
vn 0.3510 0.9343 0.0621
vn 0.3442 0.7943 0.5007
vn 0.1101 -0.3765 -0.9198
vn 0.7799 -0.6250 -0.0354
vn 0.6253 -0.6371 -0.4507
vn 0.3020 0.9130 -0.2742
vn -0.0910 0.1394 -0.9860
vn 0.1643 0.7038 -0.6912
vn -0.0000 -0.9465 0.3228
vn -0.0000 -0.0654 0.9979
vn -0.0000 -0.6063 0.7952
vn -0.0000 0.3258 0.9454
vn -0.0000 0.9979 0.0653
vn -0.0000 0.8002 0.5997
vn -0.0000 -0.3129 -0.9498
vn -0.0000 -0.9966 -0.0825
vn -0.0000 -0.7800 -0.6258
vn -0.0000 0.9468 -0.3218
vn -0.0000 0.0762 -0.9971
vn -0.0000 0.6150 -0.7885
vn -0.0393 -0.9953 -0.0889
vn -0.1650 -0.2839 -0.9445
vn -0.1321 -0.7486 -0.6498
vn -0.0848 0.9417 -0.3257
vn -0.1719 0.0449 -0.9841
vn -0.1615 0.5732 -0.8033
vn 0.0332 -0.9432 0.3306
vn 0.1645 -0.0392 0.9856
vn 0.1271 -0.5681 0.8131
vn -0.0162 0.9972 0.0732
vn 0.1574 0.2916 0.9435
vn 0.0932 0.7677 0.6340
vn 0.7114 -0.6985 -0.0778
vn -0.1288 -0.2716 -0.9538
vn 0.2134 -0.9714 -0.1044
vn 0.2392 -0.6050 -0.7594
vn 0.2251 -0.7871 -0.5743
vn 0.0360 -0.7211 -0.6919
vn 0.4354 -0.8850 -0.1649
vn 0.2026 0.2948 0.9338
vn 0.2632 0.9621 0.0718
vn 0.2799 0.7421 0.6090
vn -0.1498 0.0515 -0.9874
vn 0.1945 0.9276 -0.3189
vn 0.0232 0.5912 -0.8062
vn 0.2300 -0.0127 0.9731
vn 0.7418 -0.6233 0.2473
vn 0.2961 -0.8960 0.3311
vn 0.5038 -0.3577 0.7863
vn 0.4442 -0.5630 0.6969
vn 0.5250 -0.7795 0.3416
vn 0.3178 -0.4975 0.8072
vn -0.1175 0.0736 -0.9903
vn -0.1674 0.9327 -0.3193
vn -0.1672 0.6016 -0.7811
vn 0.0649 -0.0672 0.9956
vn -0.0900 -0.9433 0.3195
vn -0.0176 -0.6100 0.7922
vn -0.1068 -0.3109 -0.9444
vn -0.1238 -0.9887 -0.0842
vn -0.1355 -0.7711 -0.6221
vn 0.0536 0.3249 0.9442
vn -0.1361 0.9887 0.0632
vn -0.0548 0.7994 0.5983
vn -0.4054 -0.0982 0.9088
vn -0.7949 -0.5703 0.2069
vn -0.7129 -0.4229 0.5595
vn -0.3510 0.9343 0.0621
vn -0.2289 0.3746 0.8985
vn -0.3442 0.7943 0.5007
vn -0.7799 -0.6250 -0.0354
vn -0.1101 -0.3765 -0.9198
vn -0.6253 -0.6371 -0.4507
vn 0.0910 0.1394 -0.9860
vn -0.3020 0.9130 -0.2742
vn -0.1643 0.7038 -0.6912
vn 0.1650 -0.2839 -0.9445
vn 0.0393 -0.9953 -0.0889
vn 0.1321 -0.7486 -0.6498
vn 0.1719 0.0449 -0.9841
vn 0.0848 0.9417 -0.3257
vn 0.1615 0.5732 -0.8033
vn -0.1645 -0.0392 0.9856
vn -0.0332 -0.9432 0.3306
vn -0.1271 -0.5681 0.8131
vn -0.1574 0.2916 0.9435
vn 0.0162 0.9972 0.0732
vn -0.0932 0.7677 0.6340
vn -0.7114 -0.6985 -0.0778
vn -0.2134 -0.9714 -0.1044
vn 0.1288 -0.2716 -0.9538
vn -0.4354 -0.8850 -0.1649
vn -0.2251 -0.7871 -0.5743
vn -0.0360 -0.7211 -0.6919
vn -0.2392 -0.6050 -0.7594
vn -0.2632 0.9621 0.0718
vn -0.2026 0.2948 0.9338
vn -0.2799 0.7421 0.6090
vn -0.1945 0.9276 -0.3189
vn 0.1498 0.0515 -0.9874
vn -0.0232 0.5912 -0.8062
vn -0.2961 -0.8960 0.3311
vn -0.7418 -0.6233 0.2473
vn -0.2300 -0.0127 0.9731
vn -0.5250 -0.7795 0.3416
vn -0.4442 -0.5630 0.6969
vn -0.5038 -0.3577 0.7863
vn -0.3178 -0.4975 0.8072
vn 0.1674 0.9327 -0.3193
vn 0.1175 0.0736 -0.9903
vn 0.1672 0.6016 -0.7811
vn 0.0900 -0.9433 0.3195
vn -0.0649 -0.0672 0.9956
vn 0.0176 -0.6100 0.7922
vn 0.1238 -0.9887 -0.0842
vn 0.1068 -0.3109 -0.9444
vn 0.1355 -0.7711 -0.6221
vn 0.1361 0.9887 0.0632
vn -0.0536 0.3249 0.9442
vn 0.0548 0.7994 0.5983
vt 0.195391 0.567692
vt 0.216749 0.500000
vt 0.216749 0.513371
vt 0.216749 0.565226
vt 0.406310 0.341749
vt 0.375000 0.344453
vt 0.375000 0.342075
vt 0.375000 0.341749
vt 0.222087 0.566438
vt 0.219453 0.500000
vt 0.406323 0.908251
vt 0.375000 0.908251
vt 0.373921 0.898960
vt 0.195338 0.682487
vt 0.216749 0.680395
vt 0.217375 0.734836
vt 0.216749 0.750000
vt 0.222087 0.683562
vt 0.220473 0.750000
vt 0.216749 0.565226
vt 0.216912 0.513371
vt 0.222087 0.566438
vt 0.374143 0.348456
vt 0.222087 0.683562
vt 0.216749 0.680395
vt 0.216749 0.734836
vt 0.375000 0.904527
vt 0.375000 0.906999
vt 0.125000 0.571713
vt 0.127061 0.500000
vt 0.375000 0.252061
vt 0.388639 0.250000
vt 0.659986 0.566446
vt 0.625000 0.566422
vt 0.625161 0.499839
vt 0.660482 0.500000
vt 0.625000 0.464518
vt 0.602256 0.500000
vt 0.601222 0.465014
vt 0.340014 0.683625
vt 0.375000 0.683647
vt 0.374975 0.750025
vt 0.339964 0.750000
vt 0.375000 0.785036
vt 0.398811 0.750000
vt 0.399939 0.784986
vt 0.783251 0.683574
vt 0.875000 0.678302
vt 0.871952 0.750000
vt 0.783004 0.750000
vt 0.625000 0.908005
vt 0.625000 0.996952
vt 0.605318 1.000000
vt 0.595613 0.908251
vt 0.340014 0.566375
vt 0.250000 0.566418
vt 0.249990 0.500000
vt 0.339580 0.500000
vt 0.375000 0.464580
vt 0.375000 0.374990
vt 0.414205 0.375000
vt 0.399931 0.465014
vt 0.783251 0.566534
vt 0.750000 0.566497
vt 0.750044 0.500000
vt 0.783251 0.500000
vt 0.625000 0.341749
vt 0.625000 0.374956
vt 0.587837 0.375000
vt 0.595629 0.341749
vt 0.250000 0.683582
vt 0.250000 0.750000
vt 0.375000 0.875000
vt 0.414219 0.875000
vt 0.659986 0.683635
vt 0.750000 0.683594
vt 0.750000 0.750000
vt 0.660105 0.750000
vt 0.625000 0.785105
vt 0.625000 0.875000
vt 0.587819 0.875000
vt 0.601211 0.784986
vt 0.875000 0.571835
vt 0.873126 0.500000
vt 0.625000 0.251874
vt 0.605383 0.250000
vt 0.125000 0.678792
vt 0.128496 0.750000
vt 0.375000 0.996504
vt 0.388600 1.000000
vt 0.375000 0.566354
vt 0.374883 0.499883
vt 0.398804 0.500000
vt 0.625000 0.683656
vt 0.625069 0.750069
vt 0.602246 0.750000
vt 0.388639 0.250000
vt 0.127061 0.500000
vt 0.625000 0.464518
vt 0.659986 0.566446
vt 0.399939 0.784986
vt 0.339964 0.750000
vt 0.605318 1.000000
vt 0.625000 0.996952
vt 0.783251 0.683574
vt 0.375000 0.464580
vt 0.587837 0.375000
vt 0.414220 0.875000
vt 0.601211 0.784986
vt 0.587819 0.875000
vt 0.659986 0.683635
vt 0.128496 0.750000
s 1
f 471/303/342 474/304/345 475/305/346 477/306/348
f 472/307/343 476/308/347 475/309/346 474/310/345
f 473/311/344 477/306/348 475/305/346 476/312/347
f 484/313/355 487/314/358 488/314/359 490/315/361
f 485/316/356 489/317/360 488/318/359 487/319/358
f 486/320/357 490/321/361 488/318/359 489/317/360
f 527/303/398 530/322/401 531/323/402 533/304/404
f 528/324/399 532/312/403 531/323/402 530/322/401
f 529/307/400 533/310/404 531/310/402 532/325/403
f 540/326/411 543/327/414 544/328/415 546/321/417
f 541/316/412 545/319/416 544/328/415 543/327/414
f 542/313/413 546/329/417 544/330/415 545/314/416
f 471/303/342 442/331/313 443/332/314 474/304/345
f 474/310/345 443/333/314 441/334/312 472/307/343
f 492/335/363 456/336/327 458/337/329 493/338/364
f 493/339/364 458/337/329 457/340/328 491/341/362
f 495/342/366 447/343/318 449/344/320 496/345/367
f 496/346/367 449/344/320 448/347/319 494/348/365
f 479/349/350 439/350/310 440/351/311 480/352/351
f 480/353/351 440/354/311 438/355/309 478/356/349
f 498/357/369 459/358/330 461/359/332 499/360/370
f 499/361/370 461/362/332 460/363/331 497/364/368
f 482/365/353 462/366/333 464/367/335 483/368/354
f 483/369/354 464/370/335 463/371/334 481/372/352
f 486/320/357 465/373/336 467/374/338 490/321/361
f 490/315/361 467/375/338 466/376/337 484/313/355
f 501/377/372 468/378/339 470/379/341 502/380/373
f 502/381/373 470/382/341 469/383/340 500/384/371
f 459/358/330 473/311/344 476/312/347 461/359/332
f 461/362/332 476/308/347 472/307/343 460/363/331
f 468/378/339 479/349/350 480/352/351 470/379/341
f 470/382/341 480/353/351 478/356/349 469/383/340
f 444/385/315 482/365/353 483/368/354 446/386/317
f 446/387/317 483/369/354 481/372/352 445/388/316
f 435/389/306 485/316/356 487/319/358 437/390/308
f 437/391/308 487/314/358 484/313/355 436/392/307
f 473/311/344 486/320/357 489/317/360 477/306/348
f 477/306/348 489/317/360 485/316/356 471/303/342
f 462/366/333 492/335/363 493/338/364 464/367/335
f 464/370/335 493/339/364 491/341/362 463/371/334
f 465/373/336 495/342/366 496/345/367 467/374/338
f 467/375/338 496/346/367 494/348/365 466/376/337
f 454/393/325 498/357/369 499/360/370 455/394/326
f 455/394/326 499/361/370 497/364/368 453/395/324
f 451/396/322 501/377/372 502/380/373 452/397/323
f 452/397/323 502/381/373 500/384/371 450/398/321
f 529/307/400 510/399/381 511/333/382 533/310/404
f 533/304/404 511/400/382 509/331/380 527/303/398
f 548/341/419 457/340/328 458/337/329 549/401/420
f 549/338/420 458/337/329 456/336/327 547/402/418
f 551/403/422 448/347/319 449/344/320 552/346/423
f 552/404/423 449/344/320 447/343/318 550/342/421
f 535/356/406 507/405/378 508/406/379 536/353/407
f 536/352/407 508/351/379 506/350/377 534/407/405
f 554/364/425 515/363/386 517/362/388 555/408/426
f 555/360/426 517/359/388 516/358/387 553/357/424
f 538/372/409 518/409/389 520/370/391 539/369/410
f 539/368/410 520/367/391 519/366/390 537/365/408
f 542/313/413 521/410/392 523/375/394 546/329/417
f 546/321/417 523/374/394 522/373/393 540/326/411
f 557/411/428 524/412/395 526/382/397 558/381/429
f 558/380/429 526/379/397 525/378/396 556/413/427
f 515/363/386 529/307/400 532/325/403 517/362/388
f 517/359/388 532/312/403 528/324/399 516/358/387
f 524/412/395 535/356/406 536/353/407 526/382/397
f 526/379/397 536/352/407 534/407/405 525/378/396
f 512/388/383 538/372/409 539/369/410 514/387/385
f 514/386/385 539/368/410 537/365/408 513/385/384
f 503/392/374 542/313/413 545/314/416 505/391/376
f 505/414/376 545/319/416 541/316/412 504/389/375
f 527/303/398 541/316/412 543/327/414 530/322/401
f 530/322/401 543/327/414 540/326/411 528/324/399
f 518/409/389 548/341/419 549/401/420 520/370/391
f 520/367/391 549/338/420 547/402/418 519/366/390
f 521/410/392 551/403/422 552/346/423 523/375/394
f 523/374/394 552/404/423 550/342/421 522/373/393
f 453/395/324 554/364/425 555/408/426 455/394/326
f 455/394/326 555/360/426 553/357/424 454/393/325
f 450/398/321 557/411/428 558/381/429 452/397/323
f 452/397/323 558/380/429 556/413/427 451/396/322
f 442/331/313 471/303/342 485/316/356 435/389/306
f 484/313/355 478/356/349 438/355/309 436/392/307
f 482/365/353 444/385/315 439/350/310 479/349/350
f 441/334/312 445/388/316 481/372/352 472/307/343
f 553/357/424 550/342/421 447/343/318 454/393/325
f 448/347/319 450/398/321 500/384/371 494/348/365
f 498/357/369 454/393/325 447/343/318 495/342/366
f 448/347/319 551/403/422 557/411/428 450/398/321
f 456/336/327 451/396/322 556/413/427 547/402/418
f 456/336/327 492/335/363 501/377/372 451/396/322
f 554/364/425 453/395/324 457/340/328 548/341/419
f 497/364/368 491/341/362 457/340/328 453/395/324
f 460/363/331 463/371/334 491/341/362 497/364/368
f 472/307/343 481/372/352 463/371/334 460/363/331
f 459/358/330 498/357/369 495/342/366 465/373/336
f 473/311/344 459/358/330 465/373/336 486/320/357
f 462/366/333 482/365/353 479/349/350 468/378/339
f 492/335/363 462/366/333 468/378/339 501/377/372
f 466/376/337 469/383/340 478/356/349 484/313/355
f 494/348/365 500/384/371 469/383/340 466/376/337
f 509/331/380 504/389/375 541/316/412 527/303/398
f 542/313/413 503/392/374 507/405/378 535/356/406
f 537/365/408 534/407/405 506/350/377 513/385/384
f 510/399/381 529/307/400 538/372/409 512/388/383
f 515/363/386 554/364/425 548/341/419 518/409/389
f 516/358/387 522/373/393 550/342/421 553/357/424
f 529/307/400 515/363/386 518/409/389 538/372/409
f 528/324/399 540/326/411 522/373/393 516/358/387
f 519/366/390 525/378/396 534/407/405 537/365/408
f 547/402/418 556/413/427 525/378/396 519/366/390
f 521/410/392 542/313/413 535/356/406 524/412/395
f 551/403/422 521/410/392 524/412/395 557/411/428
o sh_chair_rod_back_bottom
v -0.192873 0.298780 -0.278684
v -0.192873 0.315415 -0.278684
v -0.192873 0.298780 -0.295319
v -0.192873 0.315415 -0.295319
v 0.000000 0.293755 -0.300344
v -0.157503 0.298780 -0.295319
v -0.157503 0.315415 -0.295319
v 0.000000 0.320441 -0.300344
v -0.157503 0.298780 -0.278684
v 0.000000 0.293755 -0.273658
v 0.000000 0.320441 -0.273658
v -0.157503 0.315415 -0.278684
v 0.192873 0.298780 -0.278684
v 0.192873 0.315415 -0.278684
v 0.192873 0.298780 -0.295319
v 0.192873 0.315415 -0.295319
v 0.157503 0.298780 -0.295319
v 0.157503 0.315415 -0.295319
v 0.157503 0.298780 -0.278684
v 0.157503 0.315415 -0.278684
vn -0.0000 -0.7071 0.7071
vn -0.0000 0.7071 0.7071
vn -0.0000 -0.7071 -0.7071
vn -0.0000 0.7071 -0.7071
vn -0.0228 -0.7069 -0.7069
vn -0.0228 0.7069 -0.7069
vn -0.0228 -0.7069 0.7069
vn -0.0228 0.7069 0.7069
vn 0.0228 -0.7069 -0.7069
vn 0.0228 0.7069 -0.7069
vn 0.0228 -0.7069 0.7069
vn 0.0228 0.7069 0.7069
vt 0.375000 0.937500
vt 0.625000 0.937500
vt 0.625000 1.000000
vt 0.375000 1.000000
vt 0.812500 0.500000
vt 0.875000 0.500000
vt 0.875000 0.750000
vt 0.812500 0.750000
vt 0.750000 0.500000
vt 0.750000 0.750000
vt 0.125000 0.500000
vt 0.187500 0.500000
vt 0.187500 0.750000
vt 0.125000 0.750000
vt 0.250000 0.500000
vt 0.250000 0.750000
vt 0.375000 0.875000
vt 0.625000 0.875000
vt 0.375000 0.250000
vt 0.625000 0.250000
vt 0.625000 0.312500
vt 0.375000 0.312500
vt 0.625000 0.375000
vt 0.375000 0.375000
s 1
f 567/415/436 570/416/437 560/417/431 559/418/430
f 565/419/435 562/420/433 560/421/431 570/422/437
f 566/423/433 565/419/435 570/422/437 569/424/431
f 561/425/432 564/426/434 567/427/436 559/428/430
f 564/426/434 563/429/432 568/430/430 567/427/436
f 568/431/430 569/432/431 570/416/437 567/415/436
f 561/433/432 562/434/433 565/435/435 564/436/434
f 564/436/434 565/435/435 566/437/433 563/438/432
f 577/415/440 571/418/430 572/417/431 578/416/441
f 576/419/439 578/422/441 572/421/431 574/420/433
f 566/423/433 569/424/431 578/422/441 576/419/439
f 573/425/432 571/428/430 577/427/440 575/426/438
f 575/426/438 577/427/440 568/430/430 563/429/432
f 568/431/430 577/415/440 578/416/441 569/432/431
f 573/433/432 575/436/438 576/435/439 574/434/433
f 575/436/438 563/438/432 566/437/433 576/435/439
o sh_chair_rod_back_top
v -0.192873 0.428278 -0.243665
v -0.192873 0.444913 -0.243665
v -0.192873 0.428278 -0.260300
v -0.192873 0.444913 -0.260300
v 0.000000 0.423252 -0.265326
v -0.157503 0.428278 -0.260300
v -0.157503 0.444913 -0.260300
v 0.000000 0.449938 -0.265326
v -0.157503 0.428278 -0.243665
v 0.000000 0.423252 -0.238640
v 0.000000 0.449938 -0.238640
v -0.157503 0.444913 -0.243665
v 0.192873 0.428278 -0.243665
v 0.192873 0.444913 -0.243665
v 0.192873 0.428278 -0.260300
v 0.192873 0.444913 -0.260300
v 0.157503 0.428278 -0.260300
v 0.157503 0.444913 -0.260300
v 0.157503 0.428278 -0.243665
v 0.157503 0.444913 -0.243665
vn -0.0000 -0.7071 0.7071
vn -0.0000 0.7071 0.7071
vn -0.0000 -0.7071 -0.7071
vn -0.0000 0.7071 -0.7071
vn -0.0228 -0.7069 -0.7069
vn -0.0228 0.7069 -0.7069
vn -0.0228 -0.7069 0.7069
vn -0.0228 0.7069 0.7069
vn 0.0228 -0.7069 -0.7069
vn 0.0228 0.7069 -0.7069
vn 0.0228 -0.7069 0.7069
vn 0.0228 0.7069 0.7069
vt 0.375000 0.937500
vt 0.625000 0.937500
vt 0.625000 1.000000
vt 0.375000 1.000000
vt 0.812500 0.500000
vt 0.875000 0.500000
vt 0.875000 0.750000
vt 0.812500 0.750000
vt 0.750000 0.500000
vt 0.750000 0.750000
vt 0.125000 0.500000
vt 0.187500 0.500000
vt 0.187500 0.750000
vt 0.125000 0.750000
vt 0.250000 0.500000
vt 0.250000 0.750000
vt 0.375000 0.875000
vt 0.625000 0.875000
vt 0.375000 0.250000
vt 0.625000 0.250000
vt 0.625000 0.312500
vt 0.375000 0.312500
vt 0.625000 0.375000
vt 0.375000 0.375000
s 1
f 587/439/448 590/440/449 580/441/443 579/442/442
f 585/443/447 582/444/445 580/445/443 590/446/449
f 586/447/445 585/443/447 590/446/449 589/448/443
f 581/449/444 584/450/446 587/451/448 579/452/442
f 584/450/446 583/453/444 588/454/442 587/451/448
f 588/455/442 589/456/443 590/440/449 587/439/448
f 581/457/444 582/458/445 585/459/447 584/460/446
f 584/460/446 585/459/447 586/461/445 583/462/444
f 597/439/452 591/442/442 592/441/443 598/440/453
f 596/443/451 598/446/453 592/445/443 594/444/445
f 586/447/445 589/448/443 598/446/453 596/443/451
f 593/449/444 591/452/442 597/451/452 595/450/450
f 595/450/450 597/451/452 588/454/442 583/453/444
f 588/455/442 597/439/452 598/440/453 589/456/443
f 593/457/444 595/460/450 596/459/451 594/458/445
f 595/460/450 583/462/444 586/461/445 596/459/451
o sh_chair_frame
v -0.261236 0.557978 0.180017
v -0.262952 0.557978 0.172568
v -0.259199 0.553978 0.175292
v -0.216840 0.557978 -0.247567
v -0.212333 0.557978 -0.251994
v -0.212792 0.553978 -0.248005
v 0.000000 0.557978 -0.276719
v 0.000000 0.553978 -0.272781
v 0.000000 0.553978 0.273022
v 0.000000 0.557978 0.277165
v -0.230811 0.553978 0.224199
v -0.229591 0.557978 0.228602
v -0.235513 0.557978 0.224315
v -0.246538 0.553978 0.002786
v -0.250487 0.557978 0.002554
v -0.259199 0.582774 0.175292
v -0.262952 0.578774 0.172568
v -0.261236 0.578774 0.180017
v -0.212792 0.582774 -0.248005
v -0.212333 0.578774 -0.251994
v -0.216840 0.578774 -0.247567
v 0.000000 0.582774 -0.272781
v 0.000000 0.578774 -0.276719
v 0.000000 0.578774 0.277165
v 0.000000 0.582774 0.273022
v -0.235513 0.578774 0.224315
v -0.229591 0.578774 0.228602
v -0.230811 0.582774 0.224199
v -0.250487 0.578774 0.002554
v -0.246538 0.582774 0.002786
v -0.221707 0.557978 0.004246
v -0.225628 0.553978 0.004015
v -0.199496 0.553978 -0.234669
v -0.191946 0.557978 -0.231445
v -0.196366 0.557978 -0.227116
v 0.000000 0.553978 -0.252353
v 0.000000 0.557978 -0.248455
v -0.218023 0.557978 0.201195
v -0.212221 0.557978 0.205529
v -0.218882 0.553978 0.208364
v -0.239797 0.553978 0.169222
v -0.235425 0.557978 0.163976
v -0.233883 0.557978 0.171489
v 0.000000 0.557978 0.249142
v 0.000000 0.553978 0.253342
v -0.225628 0.582774 0.004015
v -0.221707 0.578774 0.004246
v -0.196366 0.578774 -0.227116
v -0.191946 0.578774 -0.231445
v -0.199496 0.582774 -0.234669
v 0.000000 0.578774 -0.248455
v 0.000000 0.582774 -0.252353
v -0.218882 0.582774 0.208364
v -0.212221 0.578774 0.205529
v -0.218023 0.578774 0.201195
v -0.233883 0.578774 0.171489
v -0.235425 0.578774 0.163976
v -0.239797 0.582774 0.169222
v 0.000000 0.582774 0.253342
v 0.000000 0.578774 0.249142
v 0.259199 0.553978 0.175292
v 0.262952 0.557978 0.172568
v 0.261236 0.557978 0.180017
v 0.212792 0.553978 -0.248005
v 0.212333 0.557978 -0.251994
v 0.216840 0.557978 -0.247567
v 0.235513 0.557978 0.224315
v 0.229591 0.557978 0.228602
v 0.230811 0.553978 0.224199
v 0.250487 0.557978 0.002554
v 0.246538 0.553978 0.002786
v 0.261236 0.578774 0.180017
v 0.262952 0.578774 0.172568
v 0.259199 0.582774 0.175292
v 0.216840 0.578774 -0.247567
v 0.212333 0.578774 -0.251994
v 0.212792 0.582774 -0.248005
v 0.230811 0.582774 0.224199
v 0.229591 0.578774 0.228602
v 0.235513 0.578774 0.224315
v 0.246538 0.582774 0.002786
v 0.250487 0.578774 0.002554
v 0.225628 0.553978 0.004015
v 0.221707 0.557978 0.004246
v 0.196366 0.557978 -0.227116
v 0.191946 0.557978 -0.231445
v 0.199496 0.553978 -0.234669
v 0.218882 0.553978 0.208364
v 0.212221 0.557978 0.205529
v 0.218023 0.557978 0.201195
v 0.233883 0.557978 0.171489
v 0.235425 0.557978 0.163976
v 0.239797 0.553978 0.169222
v 0.221707 0.578774 0.004246
v 0.225628 0.582774 0.004015
v 0.199496 0.582774 -0.234669
v 0.191946 0.578774 -0.231445
v 0.196366 0.578774 -0.227116
v 0.218023 0.578774 0.201195
v 0.212221 0.578774 0.205529
v 0.218882 0.582774 0.208364
v 0.239797 0.582774 0.169222
v 0.235425 0.578774 0.163976
v 0.233883 0.578774 0.171489
vn -0.8603 -0.3600 0.3609
vn -0.9346 -0.3516 0.0546
vn -0.4479 -0.8886 0.0992
vn -0.8541 -0.3338 -0.3987
vn -0.3843 -0.3322 -0.8614
vn -0.3523 -0.8637 -0.3605
vn -0.0000 -0.3695 -0.9292
vn -0.0000 -0.9120 -0.4101
vn -0.0000 -0.9096 0.4156
vn -0.0000 -0.3734 0.9277
vn -0.2778 -0.8795 0.3865
vn -0.3597 -0.3490 0.8653
vn -0.7093 -0.3523 0.6105
vn -0.3897 -0.9200 -0.0407
vn -0.9212 -0.3773 -0.0954
vn -0.4479 0.8886 0.0992
vn -0.9346 0.3516 0.0546
vn -0.8603 0.3600 0.3609
vn -0.3523 0.8637 -0.3605
vn -0.3843 0.3322 -0.8614
vn -0.8541 0.3338 -0.3987
vn -0.0000 0.9120 -0.4101
vn -0.0000 0.3695 -0.9292
vn -0.0000 0.3734 0.9277
vn -0.0000 0.9095 0.4156
vn -0.7093 0.3523 0.6105
vn -0.3597 0.3490 0.8653
vn -0.2778 0.8795 0.3865
vn -0.9212 0.3773 -0.0954
vn -0.3897 0.9200 -0.0407
vn 0.9209 -0.3792 0.0900
vn 0.3829 -0.9230 0.0373
vn 0.1203 -0.9852 0.1224
vn 0.3039 -0.4761 0.8252
vn 0.8171 -0.4787 0.3213
vn -0.0000 -0.9291 0.3699
vn -0.0000 -0.3841 0.9233
vn 0.7021 -0.4492 -0.5525
vn 0.3304 -0.4480 -0.8307
vn 0.1439 -0.9707 -0.1925
vn 0.2851 -0.9566 -0.0609
vn 0.9094 -0.4151 -0.0268
vn 0.8430 -0.4264 -0.3280
vn -0.0000 -0.4136 -0.9105
vn -0.0000 -0.9445 -0.3286
vn 0.3829 0.9230 0.0373
vn 0.9209 0.3792 0.0900
vn 0.8171 0.4787 0.3213
vn 0.3039 0.4761 0.8252
vn 0.1203 0.9852 0.1224
vn -0.0000 0.3841 0.9233
vn -0.0000 0.9291 0.3699
vn 0.1439 0.9707 -0.1925
vn 0.3304 0.4480 -0.8307
vn 0.7021 0.4492 -0.5525
vn 0.8430 0.4264 -0.3280
vn 0.9094 0.4151 -0.0268
vn 0.2851 0.9566 -0.0609
vn -0.0000 0.9445 -0.3286
vn -0.0000 0.4136 -0.9105
vn 0.4479 -0.8886 0.0992
vn 0.9346 -0.3516 0.0546
vn 0.8603 -0.3600 0.3609
vn 0.3523 -0.8637 -0.3605
vn 0.3843 -0.3322 -0.8614
vn 0.8541 -0.3338 -0.3987
vn 0.7093 -0.3523 0.6105
vn 0.3597 -0.3490 0.8653
vn 0.2778 -0.8795 0.3865
vn 0.9212 -0.3773 -0.0954
vn 0.3897 -0.9200 -0.0407
vn 0.8603 0.3600 0.3609
vn 0.9346 0.3516 0.0546
vn 0.4479 0.8886 0.0992
vn 0.8541 0.3338 -0.3987
vn 0.3843 0.3322 -0.8614
vn 0.3523 0.8637 -0.3605
vn 0.2778 0.8795 0.3865
vn 0.3597 0.3490 0.8653
vn 0.7093 0.3523 0.6105
vn 0.3897 0.9200 -0.0407
vn 0.9212 0.3773 -0.0954
vn -0.3829 -0.9230 0.0373
vn -0.9209 -0.3792 0.0900
vn -0.8171 -0.4787 0.3213
vn -0.3039 -0.4761 0.8252
vn -0.1203 -0.9852 0.1224
vn -0.1439 -0.9707 -0.1925
vn -0.3304 -0.4480 -0.8307
vn -0.7021 -0.4492 -0.5525
vn -0.8430 -0.4264 -0.3280
vn -0.9094 -0.4151 -0.0268
vn -0.2851 -0.9566 -0.0609
vn -0.9209 0.3792 0.0900
vn -0.3829 0.9230 0.0373
vn -0.1203 0.9852 0.1224
vn -0.3039 0.4761 0.8252
vn -0.8171 0.4787 0.3213
vn -0.7021 0.4492 -0.5525
vn -0.3304 0.4480 -0.8307
vn -0.1439 0.9707 -0.1925
vn -0.2851 0.9566 -0.0609
vn -0.9094 0.4151 -0.0268
vn -0.8430 0.4264 -0.3280
vt 0.000000 0.000000
s 1
f 599/463/454 600/463/455 601/463/456
f 602/463/457 603/463/458 604/463/459
f 609/463/464 610/463/465 611/463/466
f 614/463/469 615/463/470 616/463/471
f 617/463/472 618/463/473 619/463/474
f 624/463/479 625/463/480 626/463/481
f 631/463/486 632/463/487 633/463/488
f 636/463/491 637/463/492 638/463/493
f 639/463/494 640/463/495 641/463/496
f 646/463/501 647/463/502 648/463/503
f 651/463/506 652/463/507 653/463/508
f 654/463/509 655/463/510 656/463/511
f 659/463/514 660/463/515 661/463/516
f 662/463/517 663/463/518 664/463/519
f 665/463/520 666/463/521 667/463/522
f 670/463/525 671/463/526 672/463/527
f 673/463/528 674/463/529 675/463/530
f 676/463/531 677/463/532 678/463/533
f 683/463/538 684/463/539 685/463/540
f 686/463/541 687/463/542 688/463/543
f 689/463/544 690/463/545 691/463/546
f 694/463/549 695/463/550 696/463/551
f 697/463/552 698/463/553 699/463/554
f 700/463/555 701/463/556 702/463/557
f 613/463/468 602/463/457 604/463/459 612/463/467
f 603/463/458 605/463/460 606/463/461 604/463/459
f 611/463/466 599/463/454 601/463/456 609/463/464
f 608/463/463 610/463/465 609/463/464 607/463/462
f 600/463/455 613/463/468 612/463/467 601/463/456
f 628/463/483 617/463/472 619/463/474 627/463/482
f 617/463/472 620/463/475 621/463/476 618/463/473
f 626/463/481 614/463/469 616/463/471 624/463/479
f 623/463/478 626/463/481 625/463/480 622/463/477
f 614/463/469 628/463/483 627/463/482 615/463/470
f 602/463/457 619/463/474 618/463/473 603/463/458
f 610/463/465 625/463/480 624/463/479 611/463/466
f 615/463/470 600/463/455 599/463/454 616/463/471
f 630/463/485 631/463/486 633/463/488 629/463/484
f 631/463/486 634/463/489 635/463/490 632/463/487
f 638/463/493 639/463/494 641/463/496 636/463/491
f 643/463/498 638/463/493 637/463/492 642/463/497
f 639/463/494 630/463/485 629/463/484 640/463/495
f 645/463/500 646/463/501 648/463/503 644/463/499
f 647/463/502 649/463/504 650/463/505 648/463/503
f 653/463/508 654/463/509 656/463/511 651/463/506
f 658/463/513 652/463/507 651/463/506 657/463/512
f 655/463/510 645/463/500 644/463/499 656/463/511
f 632/463/487 647/463/502 646/463/501 633/463/488
f 636/463/491 653/463/508 652/463/507 637/463/492
f 654/463/509 641/463/496 640/463/495 655/463/510
f 669/463/524 662/463/517 664/463/519 668/463/523
f 662/463/517 606/463/461 605/463/460 663/463/518
f 667/463/522 659/463/514 661/463/516 665/463/520
f 607/463/462 667/463/522 666/463/521 608/463/463
f 659/463/514 669/463/524 668/463/523 660/463/515
f 680/463/535 673/463/528 675/463/530 679/463/534
f 674/463/529 621/463/476 620/463/475 675/463/530
f 678/463/533 670/463/525 672/463/527 676/463/531
f 622/463/477 677/463/532 676/463/531 623/463/478
f 671/463/526 680/463/535 679/463/534 672/463/527
f 663/463/518 674/463/529 673/463/528 664/463/519
f 665/463/520 678/463/533 677/463/532 666/463/521
f 670/463/525 661/463/516 660/463/515 671/463/526
f 682/463/537 683/463/538 685/463/540 681/463/536
f 684/463/539 635/463/490 634/463/489 685/463/540
f 688/463/543 689/463/544 691/463/546 686/463/541
f 642/463/497 687/463/542 686/463/541 643/463/498
f 690/463/545 682/463/537 681/463/536 691/463/546
f 693/463/548 694/463/549 696/463/551 692/463/547
f 694/463/549 650/463/505 649/463/504 695/463/550
f 699/463/554 700/463/555 702/463/557 697/463/552
f 657/463/512 699/463/554 698/463/553 658/463/513
f 700/463/555 693/463/548 692/463/547 701/463/556
f 683/463/538 696/463/551 695/463/550 684/463/539
f 687/463/542 698/463/553 697/463/552 688/463/543
f 701/463/556 690/463/545 689/463/544 702/463/557
f 609/463/464 601/463/456 639/463/494 638/463/493
f 611/463/466 624/463/479 616/463/471 599/463/454
f 601/463/456 612/463/467 630/463/485 639/463/494
f 600/463/455 615/463/470 627/463/482 613/463/468
f 612/463/467 604/463/459 631/463/486 630/463/485
f 613/463/468 627/463/482 619/463/474 602/463/457
f 604/463/459 606/463/461 634/463/489 631/463/486
f 603/463/458 618/463/473 621/463/476 605/463/460
f 662/463/517 685/463/540 634/463/489 606/463/461
f 663/463/518 605/463/460 621/463/476 674/463/529
f 607/463/462 609/463/464 638/463/493 643/463/498
f 608/463/463 622/463/477 625/463/480 610/463/465
f 607/463/462 643/463/498 686/463/541 667/463/522
f 608/463/463 666/463/521 677/463/532 622/463/477
f 614/463/469 626/463/481 651/463/506 656/463/511
f 628/463/483 614/463/469 656/463/511 644/463/499
f 617/463/472 628/463/483 644/463/499 648/463/503
f 620/463/475 617/463/472 648/463/503 650/463/505
f 620/463/475 650/463/505 694/463/549 675/463/530
f 626/463/481 623/463/478 657/463/512 651/463/506
f 676/463/531 699/463/554 657/463/512 623/463/478
f 629/463/484 633/463/488 646/463/501 645/463/500
f 640/463/495 629/463/484 645/463/500 655/463/510
f 632/463/487 635/463/490 649/463/504 647/463/502
f 684/463/539 695/463/550 649/463/504 635/463/490
f 636/463/491 641/463/496 654/463/509 653/463/508
f 642/463/497 637/463/492 652/463/507 658/463/513
f 642/463/497 658/463/513 698/463/553 687/463/542
f 667/463/522 686/463/541 691/463/546 659/463/514
f 660/463/515 668/463/523 680/463/535 671/463/526
f 665/463/520 661/463/516 670/463/525 678/463/533
f 659/463/514 691/463/546 681/463/536 669/463/524
f 669/463/524 681/463/536 685/463/540 662/463/517
f 668/463/523 664/463/519 673/463/528 680/463/535
f 672/463/527 700/463/555 699/463/554 676/463/531
f 679/463/534 693/463/548 700/463/555 672/463/527
f 675/463/530 694/463/549 693/463/548 679/463/534
f 690/463/545 701/463/556 692/463/547 682/463/537
f 682/463/537 692/463/547 696/463/551 683/463/538
f 688/463/543 697/463/552 702/463/557 689/463/544
