# Blender 5.1.1
# www.blender.org
o sh_ladder_02_structure
v -0.175575 0.015353 -0.030000
v -0.175575 2.015313 0.000000
v -0.149594 0.015353 -0.015000
v -0.149594 0.015353 0.015000
v -0.175575 0.015353 0.030000
v -0.201556 0.015353 0.015000
v -0.201556 0.015353 -0.015000
v -0.149594 2.000000 -0.015000
v -0.175575 2.000000 -0.030000
v -0.149594 2.000000 0.015000
v -0.175575 2.000000 0.030000
v -0.201556 2.000000 0.015000
v -0.201556 2.000000 -0.015000
v -0.160071 2.010626 -0.008951
v -0.175575 2.010626 -0.017902
v -0.160071 2.010626 0.008951
v -0.175575 2.010626 0.017902
v -0.191079 2.010626 0.008951
v -0.191079 2.010626 -0.008951
v -0.175575 0.000000 0.000000
v -0.160071 0.004756 -0.008951
v -0.175575 0.004756 -0.017902
v -0.160071 0.004756 0.008951
v -0.175575 0.004756 0.017902
v -0.191079 0.004756 0.008951
v -0.191079 0.004756 -0.008951
v -0.188648 1.343510 -0.043157
v -0.162668 1.343510 -0.028157
v -0.162668 1.343510 0.001843
v -0.188648 1.343510 0.016843
v -0.214629 1.343510 0.001843
v -0.214629 1.343510 -0.028157
v -0.150999 0.158059 -0.016414
v -0.150999 0.158059 0.013586
v -0.176980 0.158059 0.028586
v -0.202961 0.158059 0.013586
v -0.202961 0.158059 -0.016414
v -0.176980 0.158059 -0.031414
v 0.175575 0.015353 -0.030000
v 0.175575 2.015313 0.000000
v 0.149594 0.015353 -0.015000
v 0.149594 0.015353 0.015000
v 0.175575 0.015353 0.030000
v 0.201556 0.015353 0.015000
v 0.201556 0.015353 -0.015000
v 0.149594 2.000000 -0.015000
v 0.175575 2.000000 -0.030000
v 0.149594 2.000000 0.015000
v 0.175575 2.000000 0.030000
v 0.201556 2.000000 0.015000
v 0.201556 2.000000 -0.015000
v 0.160071 2.010626 -0.008951
v 0.175575 2.010626 -0.017902
v 0.160071 2.010626 0.008951
v 0.175575 2.010626 0.017902
v 0.191079 2.010626 0.008951
v 0.191079 2.010626 -0.008951
v 0.175575 0.000000 0.000000
v 0.160071 0.004756 -0.008951
v 0.175575 0.004756 -0.017902
v 0.160071 0.004756 0.008951
v 0.175575 0.004756 0.017902
v 0.191079 0.004756 0.008951
v 0.191079 0.004756 -0.008951
v 0.188648 1.343510 -0.043157
v 0.162668 1.343510 -0.028157
v 0.162668 1.343510 0.001843
v 0.188648 1.343510 0.016843
v 0.214629 1.343510 0.001843
v 0.214629 1.343510 -0.028157
v 0.150999 0.158059 -0.016414
v 0.150999 0.158059 0.013586
v 0.176980 0.158059 0.028586
v 0.202961 0.158059 0.013586
v 0.202961 0.158059 -0.016414
v 0.176980 0.158059 -0.031414
vn 0.0015 -0.6707 -0.7417
vn -0.0000 1.0000 -0.0000
vn 0.6454 -0.6681 -0.3702
vn 0.6455 -0.6663 0.3733
vn 0.0015 -0.6669 0.7451
vn -0.6423 -0.6695 0.3732
vn -0.6421 -0.6714 -0.3701
vn 0.8084 0.3664 -0.4607
vn 0.0039 0.3789 -0.9254
vn 0.8081 0.3574 0.4682
vn 0.0038 0.3606 0.9327
vn -0.8009 0.3730 0.4685
vn -0.8010 0.3822 -0.4608
vn 0.4540 0.8516 -0.2621
vn -0.0000 0.8516 -0.5242
vn 0.4540 0.8516 0.2621
vn -0.0000 0.8516 0.5242
vn -0.4540 0.8516 0.2621
vn -0.4540 0.8516 -0.2621
vn -0.0000 -1.0000 -0.0000
vn 0.4543 -0.8514 -0.2623
vn -0.0000 -0.8514 -0.5246
vn 0.4543 -0.8514 0.2623
vn -0.0000 -0.8514 0.5246
vn -0.4543 -0.8514 0.2623
vn -0.4543 -0.8514 -0.2623
vn -0.0047 0.0051 -1.0000
vn 0.8628 -0.0017 -0.5056
vn 0.8669 -0.0069 0.4984
vn -0.0048 -0.0050 1.0000
vn -0.8692 0.0019 0.4944
vn -0.8651 0.0069 -0.5015
vn 0.8660 0.0036 -0.5000
vn 0.8660 0.0135 0.4999
vn -0.0000 0.0099 1.0000
vn -0.8660 -0.0036 0.5000
vn -0.8660 -0.0135 -0.4999
vn -0.0000 -0.0099 -1.0000
vn -0.0015 -0.6707 -0.7417
vn -0.6454 -0.6681 -0.3702
vn -0.6455 -0.6663 0.3733
vn -0.0015 -0.6669 0.7451
vn 0.6423 -0.6695 0.3732
vn 0.6421 -0.6714 -0.3701
vn -0.8084 0.3664 -0.4607
vn -0.0039 0.3789 -0.9254
vn -0.8081 0.3574 0.4682
vn -0.0038 0.3606 0.9327
vn 0.8009 0.3730 0.4685
vn 0.8010 0.3822 -0.4608
vn 0.0047 0.0051 -1.0000
vn -0.8628 -0.0017 -0.5056
vn -0.8669 -0.0069 0.4984
vn 0.0048 -0.0050 1.0000
vn 0.8692 0.0019 0.4944
vn 0.8651 0.0069 -0.5015
vn -0.8660 0.0036 -0.5000
vn -0.8660 0.0135 0.4999
vn 0.8660 -0.0036 0.5000
vn 0.8660 -0.0135 -0.4999
vt 1.000000 0.825635
vt 1.000000 1.000000
vt 0.833333 1.000000
vt 0.833333 0.825635
vt 0.666667 1.000000
vt 0.666667 0.825635
vt 0.500000 1.000000
vt 0.500000 0.825635
vt 0.333333 1.000000
vt 0.333333 0.825635
vt 0.166667 1.000000
vt 0.166667 0.825635
vt -0.000000 1.000000
vt -0.000000 0.825635
vt 0.750000 0.490000
vt 0.957846 0.370000
vt 0.957846 0.130000
vt 0.750000 0.010000
vt 0.542154 0.130000
vt 0.542154 0.370000
vt 0.250000 0.393218
vt 0.374030 0.321609
vt 0.457846 0.370000
vt 0.250000 0.490000
vt 0.374030 0.178391
vt 0.457846 0.130000
vt 0.250000 0.106782
vt 0.250000 0.010000
vt 0.125970 0.178391
vt 0.042154 0.130000
vt 0.125970 0.321609
vt 0.042154 0.370000
vt 0.323173 0.292247
vt 0.323173 0.207753
vt 0.250000 0.165507
vt 0.176827 0.207753
vt 0.176827 0.292247
vt 0.250000 0.334493
vt 0.166667 0.534988
vt -0.000000 0.534988
vt 0.333333 0.534988
vt 0.500000 0.534988
vt 0.666667 0.534988
vt 0.833333 0.534988
vt 1.000000 0.534988
vt 1.000000 0.500000
vt 0.833333 0.500000
vt 0.666667 0.500000
vt 0.500000 0.500000
vt 0.333333 0.500000
vt 0.166667 0.500000
vt -0.000000 0.500000
s 1
f 27/1/27 9/2/9 8/3/8 28/4/28
f 28/4/28 8/3/8 10/5/10 29/6/29
f 29/6/29 10/5/10 11/7/11 30/8/30
f 30/8/30 11/7/11 12/9/12 31/10/31
f 31/10/31 12/9/12 13/11/13 32/12/32
f 32/12/32 13/11/13 9/13/9 27/14/27
f 1/15/1 3/16/3 4/17/4 5/18/5 6/19/6 7/20/7
f 15/21/15 14/22/14 8/23/8 9/24/9
f 14/22/14 16/25/16 10/26/10 8/23/8
f 16/25/16 17/27/17 11/28/11 10/26/10
f 17/27/17 18/29/18 12/30/12 11/28/11
f 18/29/18 19/31/19 13/32/13 12/30/12
f 19/31/19 15/21/15 9/24/9 13/32/13
f 2/33/2 14/22/14 15/21/15
f 2/34/2 16/25/16 14/22/14
f 2/35/2 17/27/17 16/25/16
f 2/36/2 18/29/18 17/27/17
f 2/37/2 19/31/19 18/29/18
f 2/38/2 15/21/15 19/31/19
f 22/21/22 1/24/1 3/23/3 21/22/21
f 21/22/21 3/23/3 4/26/4 23/25/23
f 23/25/23 4/26/4 5/28/5 24/27/24
f 24/27/24 5/28/5 6/30/6 25/29/25
f 25/29/25 6/30/6 7/32/7 26/31/26
f 26/31/26 7/32/7 1/24/1 22/21/22
f 20/33/20 22/21/22 21/22/21
f 20/34/20 21/22/21 23/25/23
f 20/35/20 23/25/23 24/27/24
f 20/36/20 24/27/24 25/29/25
f 20/37/20 25/29/25 26/31/26
f 20/38/20 26/31/26 22/21/22
f 37/39/37 32/12/32 27/14/27 38/40/38
f 36/41/36 31/10/31 32/12/32 37/39/37
f 35/42/35 30/8/30 31/10/31 36/41/36
f 34/43/34 29/6/29 30/8/30 35/42/35
f 33/44/33 28/4/28 29/6/29 34/43/34
f 38/45/38 27/1/27 28/4/28 33/44/33
f 1/46/1 38/45/38 33/44/33 3/47/3
f 3/47/3 33/44/33 34/43/34 4/48/4
f 4/48/4 34/43/34 35/42/35 5/49/5
f 5/49/5 35/42/35 36/41/36 6/50/6
f 6/50/6 36/41/36 37/39/37 7/51/7
f 7/51/7 37/39/37 38/40/38 1/52/1
f 65/1/51 66/4/52 46/3/45 47/2/46
f 66/4/52 67/6/53 48/5/47 46/3/45
f 67/6/53 68/8/54 49/7/48 48/5/47
f 68/8/54 69/10/55 50/9/49 49/7/48
f 69/10/55 70/12/56 51/11/50 50/9/49
f 70/12/56 65/14/51 47/13/46 51/11/50
f 39/15/39 45/20/44 44/19/43 43/18/42 42/17/41 41/16/40
f 53/21/15 47/24/46 46/23/45 52/22/19
f 52/22/19 46/23/45 48/26/47 54/25/18
f 54/25/18 48/26/47 49/28/48 55/27/17
f 55/27/17 49/28/48 50/30/49 56/29/16
f 56/29/16 50/30/49 51/32/50 57/31/14
f 57/31/14 51/32/50 47/24/46 53/21/15
f 40/33/2 53/21/15 52/22/19
f 40/34/2 52/22/19 54/25/18
f 40/35/2 54/25/18 55/27/17
f 40/36/2 55/27/17 56/29/16
f 40/37/2 56/29/16 57/31/14
f 40/38/2 57/31/14 53/21/15
f 60/21/22 59/22/26 41/23/40 39/24/39
f 59/22/26 61/25/25 42/26/41 41/23/40
f 61/25/25 62/27/24 43/28/42 42/26/41
f 62/27/24 63/29/23 44/30/43 43/28/42
f 63/29/23 64/31/21 45/32/44 44/30/43
f 64/31/21 60/21/22 39/24/39 45/32/44
f 58/33/20 59/22/26 60/21/22
f 58/34/20 61/25/25 59/22/26
f 58/35/20 62/27/24 61/25/25
f 58/36/20 63/29/23 62/27/24
f 58/37/20 64/31/21 63/29/23
f 58/38/20 60/21/22 64/31/21
f 75/39/60 76/40/38 65/14/51 70/12/56
f 74/41/59 75/39/60 70/12/56 69/10/55
f 73/42/35 74/41/59 69/10/55 68/8/54
f 72/43/58 73/42/35 68/8/54 67/6/53
f 71/44/57 72/43/58 67/6/53 66/4/52
f 76/45/38 71/44/57 66/4/52 65/1/51
f 39/46/39 41/47/40 71/44/57 76/45/38
f 41/47/40 42/48/41 72/43/58 71/44/57
f 42/48/41 43/49/42 73/42/35 72/43/58
f 43/49/42 44/50/43 74/41/59 73/42/35
f 44/50/43 45/51/44 75/39/60 74/41/59
f 45/51/44 39/52/39 76/40/38 75/39/60
o sh_ladder_02_rod_02
v -0.168505 0.249947 -0.018089
v 0.168536 0.249974 -0.018089
v -0.168393 0.234328 -0.009039
v 0.168481 0.234332 -0.009041
v -0.168459 0.234311 0.009007
v 0.168513 0.234324 0.009026
v -0.168633 0.249948 0.018089
v 0.168599 0.249974 0.018089
v -0.168742 0.265664 0.009053
v 0.168654 0.265664 0.009048
v -0.168679 0.265645 -0.009083
v 0.168622 0.265655 -0.009063
v -0.005616 0.236162 -0.015976
v -0.005589 0.220460 -0.006937
v -0.005605 0.220474 0.011185
v -0.005649 0.236162 0.020201
v -0.005677 0.251792 0.011151
v -0.005661 0.251805 -0.006903
v -0.168505 0.789947 -0.018089
v 0.168536 0.789974 -0.018089
v -0.168393 0.774328 -0.009039
v 0.168481 0.774332 -0.009041
v -0.168459 0.774311 0.009007
v 0.168513 0.774323 0.009026
v -0.168633 0.789948 0.018089
v 0.168599 0.789974 0.018089
v -0.168742 0.805664 0.009053
v 0.168654 0.805664 0.009048
v -0.168679 0.805645 -0.009083
v 0.168622 0.805655 -0.009063
v -0.005616 0.776162 -0.015976
v -0.005589 0.760460 -0.006937
v -0.005605 0.760473 0.011185
v -0.005649 0.776162 0.020201
v -0.005677 0.791791 0.011151
v -0.005661 0.791805 -0.006903
v -0.168505 1.329947 -0.018089
v 0.168536 1.329974 -0.018089
v -0.168393 1.314328 -0.009039
v 0.168481 1.314332 -0.009041
v -0.168459 1.314311 0.009007
v 0.168513 1.314323 0.009026
v -0.168633 1.329948 0.018089
v 0.168599 1.329974 0.018089
v -0.168742 1.345664 0.009053
v 0.168654 1.345664 0.009048
v -0.168679 1.345645 -0.009083
v 0.168622 1.345655 -0.009063
v -0.005616 1.316162 -0.015976
v -0.005589 1.300460 -0.006937
v -0.005605 1.300473 0.011185
v -0.005649 1.316162 0.020201
v -0.005677 1.331792 0.011151
v -0.005661 1.331805 -0.006903
v -0.168505 1.869947 -0.018089
v 0.168536 1.869974 -0.018089
v -0.168393 1.854328 -0.009039
v 0.168481 1.854332 -0.009041
v -0.168459 1.854311 0.009007
v 0.168513 1.854323 0.009026
v -0.168633 1.869948 0.018089
v 0.168599 1.869974 0.018089
v -0.168742 1.885664 0.009053
v 0.168654 1.885664 0.009048
v -0.168679 1.885645 -0.009083
v 0.168622 1.885655 -0.009063
v -0.005616 1.856161 -0.015976
v -0.005589 1.840460 -0.006937
v -0.005605 1.840473 0.011185
v -0.005649 1.856162 0.020201
v -0.005677 1.871791 0.011151
v -0.005661 1.871805 -0.006903
vn 0.0155 0.0294 -0.9994
vn -0.0143 0.0267 -0.9995
vn -0.0660 -0.8550 -0.5144
vn 0.0619 -0.8559 -0.5134
vn -0.0795 -0.8572 0.5088
vn 0.0745 -0.8581 0.5080
vn -0.0105 0.0295 0.9995
vn 0.0100 0.0270 0.9996
vn 0.0678 0.8724 0.4841
vn -0.0634 0.8720 0.4853
vn 0.0802 0.8691 -0.4880
vn -0.0750 0.8687 -0.4896
vn 0.0002 -0.0261 -0.9997
vn -0.0021 -0.8739 -0.4861
vn -0.0025 -0.8707 0.4919
vn -0.0007 -0.0259 0.9997
vn 0.0022 0.8574 0.5147
vn 0.0026 0.8611 -0.5084
vt 1.000000 0.353475
vt 1.000000 1.000000
vt 0.833333 1.000000
vt 0.833333 0.353475
vt 0.666667 1.000000
vt 0.666667 0.353475
vt 0.500000 1.000000
vt 0.500000 0.353475
vt 0.333333 1.000000
vt 0.333333 0.353475
vt 0.166667 1.000000
vt 0.166667 0.353475
vt -0.000000 1.000000
vt -0.000000 0.353475
vt 0.166667 0.000000
vt -0.000000 0.000000
vt 0.333333 0.000000
vt 0.500000 0.000000
vt 0.666667 0.000000
vt 0.833333 0.000000
vt 1.000000 0.000000
s 1
f 89/53/73 78/54/62 80/55/64 90/56/74
f 90/56/74 80/55/64 82/57/66 91/58/75
f 91/58/75 82/57/66 84/59/68 92/60/76
f 92/60/76 84/59/68 86/61/70 93/62/77
f 93/62/77 86/61/70 88/63/72 94/64/78
f 94/64/78 88/63/72 78/65/62 89/66/73
f 87/67/71 94/64/78 89/66/73 77/68/61
f 85/69/69 93/62/77 94/64/78 87/67/71
f 83/70/67 92/60/76 93/62/77 85/69/69
f 81/71/65 91/58/75 92/60/76 83/70/67
f 79/72/63 90/56/74 91/58/75 81/71/65
f 77/73/61 89/53/73 90/56/74 79/72/63
f 107/53/73 96/54/62 98/55/64 108/56/74
f 108/56/74 98/55/64 100/57/66 109/58/75
f 109/58/75 100/57/66 102/59/68 110/60/76
f 110/60/76 102/59/68 104/61/70 111/62/77
f 111/62/77 104/61/70 106/63/72 112/64/78
f 112/64/78 106/63/72 96/65/62 107/66/73
f 105/67/71 112/64/78 107/66/73 95/68/61
f 103/69/69 111/62/77 112/64/78 105/67/71
f 101/70/67 110/60/76 111/62/77 103/69/69
f 99/71/65 109/58/75 110/60/76 101/70/67
f 97/72/63 108/56/74 109/58/75 99/71/65
f 95/73/61 107/53/73 108/56/74 97/72/63
f 125/53/73 114/54/62 116/55/64 126/56/74
f 126/56/74 116/55/64 118/57/66 127/58/75
f 127/58/75 118/57/66 120/59/68 128/60/76
f 128/60/76 120/59/68 122/61/70 129/62/77
f 129/62/77 122/61/70 124/63/72 130/64/78
f 130/64/78 124/63/72 114/65/62 125/66/73
f 123/67/71 130/64/78 125/66/73 113/68/61
f 121/69/69 129/62/77 130/64/78 123/67/71
f 119/70/67 128/60/76 129/62/77 121/69/69
f 117/71/65 127/58/75 128/60/76 119/70/67
f 115/72/63 126/56/74 127/58/75 117/71/65
f 113/73/61 125/53/73 126/56/74 115/72/63
f 143/53/73 132/54/62 134/55/64 144/56/74
f 144/56/74 134/55/64 136/57/66 145/58/75
f 145/58/75 136/57/66 138/59/68 146/60/76
f 146/60/76 138/59/68 140/61/70 147/62/77
f 147/62/77 140/61/70 142/63/72 148/64/78
f 148/64/78 142/63/72 132/65/62 143/66/73
f 141/67/71 148/64/78 143/66/73 131/68/61
f 139/69/69 147/62/77 148/64/78 141/67/71
f 137/70/67 146/60/76 147/62/77 139/69/69
f 135/71/65 145/58/75 146/60/76 137/70/67
f 133/72/63 144/56/74 145/58/75 135/71/65
f 131/73/61 143/53/73 144/56/74 133/72/63
o sh_ladder_02_rod_01
v -0.168567 0.529854 -0.032664
v 0.168567 0.529854 -0.032664
v -0.168567 0.510003 -0.021204
v 0.168567 0.510003 -0.021204
v -0.168567 0.510003 0.001718
v 0.168567 0.510003 0.001718
v -0.168567 0.529854 0.013178
v 0.168567 0.529854 0.013178
v -0.168567 0.549704 0.001718
v 0.168567 0.549704 0.001718
v -0.168567 0.549704 -0.021204
v 0.168567 0.549704 -0.021204
v 0.036259 0.535855 -0.030789
v 0.036259 0.516004 -0.019328
v 0.036259 0.516004 0.003593
v 0.036259 0.535855 0.015054
v 0.036259 0.555705 0.003593
v 0.036259 0.555705 -0.019328
v -0.168322 1.068954 -0.032664
v 0.168322 1.050754 -0.032664
v -0.169393 1.049133 -0.021204
v 0.167250 1.030932 -0.021204
v -0.169393 1.049133 0.001718
v 0.167250 1.030932 0.001718
v -0.168322 1.068954 0.013178
v 0.168322 1.050754 0.013178
v -0.167250 1.088776 0.001718
v 0.169393 1.070575 0.001718
v -0.167250 1.088776 -0.021204
v 0.169393 1.070575 -0.021204
v 0.036531 1.063889 -0.030789
v 0.035459 1.044067 -0.019328
v 0.035459 1.044067 0.003593
v 0.036531 1.063889 0.015054
v 0.037602 1.083710 0.003593
v 0.037602 1.083710 -0.019328
v -0.168558 1.588108 -0.032664
v 0.168558 1.591600 -0.032664
v -0.168353 1.568258 -0.021204
v 0.168764 1.571751 -0.021204
v -0.168353 1.568258 0.001718
v 0.168764 1.571751 0.001718
v -0.168558 1.588108 0.013178
v 0.168558 1.591600 0.013178
v -0.168764 1.607957 0.001718
v 0.168353 1.611449 0.001718
v -0.168764 1.607957 -0.021204
v 0.168353 1.611449 -0.021204
v 0.036195 1.596230 -0.030789
v 0.036401 1.576381 -0.019328
v 0.036401 1.576381 0.003593
v 0.036195 1.596230 0.015054
v 0.035990 1.616079 0.003593
v 0.035990 1.616079 -0.019328
vn 0.0094 -0.0093 -0.9999
vn -0.0148 -0.0143 -0.9998
vn 0.0300 -0.8667 -0.4980
vn -0.0464 -0.8667 -0.4967
vn 0.0209 -0.8694 0.4937
vn -0.0326 -0.8710 0.4902
vn -0.0089 -0.0094 0.9999
vn 0.0135 -0.0145 0.9998
vn -0.0299 0.8646 0.5016
vn 0.0463 0.8634 0.5024
vn -0.0206 0.8622 -0.5062
vn 0.0318 0.8599 -0.5095
vn -0.0023 0.0119 -0.9999
vn -0.0083 -0.8646 -0.5024
vn -0.0056 -0.8613 0.5080
vn 0.0027 0.0118 0.9999
vn 0.0081 0.8673 0.4977
vn 0.0058 0.8705 -0.4922
vn 0.0089 -0.0098 -0.9999
vn -0.0156 -0.0135 -0.9998
vn -0.0169 -0.8670 -0.4980
vn -0.0931 -0.8629 -0.4967
vn -0.0260 -0.8692 0.4937
vn -0.0795 -0.8680 0.4902
vn -0.0094 -0.0089 0.9999
vn 0.0127 -0.0152 0.9998
vn 0.0168 0.8649 0.5016
vn 0.0928 0.8596 0.5024
vn 0.0260 0.8621 -0.5062
vn 0.0782 0.8569 -0.5095
vn -0.0017 0.0120 -0.9999
vn -0.0550 -0.8629 -0.5024
vn -0.0521 -0.8598 0.5080
vn 0.0033 0.0116 0.9999
vn 0.0549 0.8656 0.4977
vn 0.0527 0.8689 -0.4922
vn 0.0095 -0.0092 -0.9999
vn -0.0147 -0.0145 -0.9998
vn 0.0389 -0.8663 -0.4980
vn -0.0374 -0.8671 -0.4967
vn 0.0300 -0.8691 0.4937
vn -0.0235 -0.8713 0.4902
vn -0.0088 -0.0094 0.9999
vn 0.0137 -0.0144 0.9998
vn -0.0389 0.8642 0.5016
vn 0.0373 0.8638 0.5024
vn -0.0296 0.8619 -0.5062
vn 0.0229 0.8602 -0.5095
vn -0.0024 0.0119 -0.9999
vn 0.0007 -0.8646 -0.5024
vn 0.0033 -0.8614 0.5080
vn 0.0026 0.0118 0.9999
vn -0.0009 0.8674 0.4977
vn -0.0033 0.8705 -0.4922
vt 1.000000 0.704321
vt 1.000000 1.000000
vt 0.833333 1.000000
vt 0.833333 0.704321
vt 0.666667 1.000000
vt 0.666667 0.704321
vt 0.500000 1.000000
vt 0.500000 0.704321
vt 0.333333 1.000000
vt 0.333333 0.704321
vt 0.166667 1.000000
vt 0.166667 0.704321
vt -0.000000 1.000000
vt -0.000000 0.704321
vt 0.166667 0.000000
vt -0.000000 0.000000
vt 0.333333 0.000000
vt 0.500000 0.000000
vt 0.666667 0.000000
vt 0.833333 0.000000
vt 1.000000 0.000000
s 1
f 161/74/91 150/75/80 152/76/82 162/77/92
f 162/77/92 152/76/82 154/78/84 163/79/93
f 163/79/93 154/78/84 156/80/86 164/81/94
f 164/81/94 156/80/86 158/82/88 165/83/95
f 165/83/95 158/82/88 160/84/90 166/85/96
f 166/85/96 160/84/90 150/86/80 161/87/91
f 159/88/89 166/85/96 161/87/91 149/89/79
f 157/90/87 165/83/95 166/85/96 159/88/89
f 155/91/85 164/81/94 165/83/95 157/90/87
f 153/92/83 163/79/93 164/81/94 155/91/85
f 151/93/81 162/77/92 163/79/93 153/92/83
f 149/94/79 161/74/91 162/77/92 151/93/81
f 179/74/109 168/75/98 170/76/100 180/77/110
f 180/77/110 170/76/100 172/78/102 181/79/111
f 181/79/111 172/78/102 174/80/104 182/81/112
f 182/81/112 174/80/104 176/82/106 183/83/113
f 183/83/113 176/82/106 178/84/108 184/85/114
f 184/85/114 178/84/108 168/86/98 179/87/109
f 177/88/107 184/85/114 179/87/109 167/89/97
f 175/90/105 183/83/113 184/85/114 177/88/107
f 173/91/103 182/81/112 183/83/113 175/90/105
f 171/92/101 181/79/111 182/81/112 173/91/103
f 169/93/99 180/77/110 181/79/111 171/92/101
f 167/94/97 179/74/109 180/77/110 169/93/99
f 197/74/127 186/75/116 188/76/118 198/77/128
f 198/77/128 188/76/118 190/78/120 199/79/129
f 199/79/129 190/78/120 192/80/122 200/81/130
f 200/81/130 192/80/122 194/82/124 201/83/131
f 201/83/131 194/82/124 196/84/126 202/85/132
f 202/85/132 196/84/126 186/86/116 197/87/127
f 195/88/125 202/85/132 197/87/127 185/89/115
f 193/90/123 201/83/131 202/85/132 195/88/125
f 191/91/121 200/81/130 201/83/131 193/90/123
f 189/92/119 199/79/129 200/81/130 191/91/121
f 187/93/117 198/77/128 199/79/129 189/92/119
f 185/94/115 197/74/127 198/77/128 187/93/117
