# Blender 5.1.1
# www.blender.org
o sh_ladder_03_structure
v 0.664588 0.007079 0.601647
v 0.662413 0.019100 0.608772
v 0.652652 0.014405 0.599679
v 0.014192 2.828129 -0.145927
v 0.012017 2.834960 -0.158117
v 0.004432 2.823433 -0.155020
v 0.664588 -0.012381 0.529215
v 0.652652 -0.005056 0.527247
v 0.662413 -0.005550 0.517025
v 0.012017 2.815500 -0.230549
v 0.014192 2.803479 -0.237674
v 0.004432 2.803973 -0.227452
v 0.699435 0.014579 0.599632
v 0.707021 0.026106 0.596535
v 0.697260 0.026600 0.606757
v 0.046865 2.842460 -0.160132
v 0.049040 2.835629 -0.147942
v 0.058800 2.835135 -0.158163
v 0.699435 -0.004881 0.527200
v 0.697260 0.001951 0.515010
v 0.707021 0.006646 0.524103
v 0.046865 2.823000 -0.232564
v 0.058800 2.815674 -0.230596
v 0.049040 2.810979 -0.239689
v -0.664588 0.007079 0.601647
v -0.652652 0.014405 0.599679
v -0.662413 0.019100 0.608772
v -0.014192 2.828129 -0.145927
v -0.004432 2.823433 -0.155020
v -0.012017 2.834960 -0.158117
v -0.664588 -0.012381 0.529215
v -0.662413 -0.005550 0.517025
v -0.652652 -0.005056 0.527247
v -0.012017 2.815500 -0.230549
v -0.004432 2.803973 -0.227452
v -0.014192 2.803479 -0.237674
v -0.699435 0.014579 0.599632
v -0.697260 0.026600 0.606757
v -0.707021 0.026106 0.596535
v -0.046865 2.842460 -0.160132
v -0.058800 2.835135 -0.158163
v -0.049040 2.835629 -0.147942
v -0.699435 -0.004881 0.527200
v -0.707021 0.006646 0.524103
v -0.697260 0.001951 0.515010
v -0.046865 2.823000 -0.232564
v -0.049040 2.810979 -0.239689
v -0.058800 2.815674 -0.230596
vn -0.1429 -0.8085 0.5709
vn -0.2591 -0.1666 0.9514
vn -0.7803 -0.4173 0.4658
vn -0.4077 0.4774 0.7784
vn -0.5239 0.8422 0.1274
vn -0.9289 0.2267 0.2928
vn -0.1429 -0.9857 -0.0889
vn -0.7803 -0.5946 -0.1940
vn -0.2591 -0.6209 -0.7398
vn -0.5239 0.6650 -0.5324
vn -0.4077 0.0230 -0.9128
vn -0.9289 0.0494 -0.3670
vn 0.5239 -0.6650 0.5324
vn 0.9289 -0.0494 0.3670
vn 0.4077 -0.0230 0.9128
vn 0.1429 0.9857 0.0889
vn 0.2591 0.6209 0.7398
vn 0.7803 0.5946 0.1940
vn 0.5239 -0.8422 -0.1274
vn 0.4077 -0.4774 -0.7784
vn 0.9289 -0.2267 -0.2928
vn 0.1429 0.8085 -0.5709
vn 0.7803 0.4173 -0.4658
vn 0.2591 0.1666 -0.9514
vn 0.1429 -0.8085 0.5709
vn 0.7803 -0.4173 0.4658
vn 0.2591 -0.1666 0.9514
vn 0.4077 0.4774 0.7784
vn 0.9289 0.2267 0.2928
vn 0.5239 0.8422 0.1274
vn 0.1429 -0.9857 -0.0889
vn 0.2591 -0.6209 -0.7398
vn 0.7803 -0.5946 -0.1940
vn 0.5239 0.6650 -0.5324
vn 0.9289 0.0494 -0.3670
vn 0.4077 0.0230 -0.9128
vn -0.5239 -0.6650 0.5324
vn -0.4077 -0.0230 0.9128
vn -0.9289 -0.0494 0.3670
vn -0.1429 0.9857 0.0889
vn -0.7803 0.5946 0.1940
vn -0.2591 0.6209 0.7398
vn -0.5239 -0.8422 -0.1274
vn -0.9289 -0.2267 -0.2928
vn -0.4077 -0.4774 -0.7784
vn -0.1429 0.8085 -0.5709
vn -0.2591 0.1666 -0.9514
vn -0.7803 0.4173 -0.4658
vt 0.169881 0.723685
vt 0.169881 0.750000
vt 0.125000 0.723684
vt 0.624167 0.955119
vt 0.625000 0.955119
vt 0.624167 1.000000
vt 0.169881 0.526316
vt 0.125000 0.526315
vt 0.169881 0.500000
vt 0.625000 0.271149
vt 0.624167 0.294881
vt 0.624167 0.230263
vt 0.330119 0.723685
vt 0.375625 0.723685
vt 0.352976 0.772441
vt 0.647441 0.759283
vt 0.624167 0.794881
vt 0.624167 0.730263
vt 0.330119 0.526315
vt 0.352976 0.477559
vt 0.375625 0.526316
vt 0.647441 0.508516
vt 0.624167 0.526316
vt 0.624167 0.466339
vt 0.624167 0.000000
vt 0.624167 0.026315
vt 0.625000 0.026316
vt 0.125000 0.526316
vt 0.625000 0.247417
vt 0.624167 0.223684
vt 0.624167 0.283661
vt 0.330119 0.723685
vt 0.352976 0.772441
vt 0.647441 0.741484
vt 0.624167 0.723684
vt 0.624167 0.783661
vt 0.330119 0.526316
vt 0.375625 0.526316
vt 0.352976 0.477559
vt 0.647441 0.490717
vt 0.624167 0.455119
vt 0.624167 0.519737
vt 0.375833 0.000000
vt 0.624167 0.026316
vt 0.375833 0.026315
vt 0.625000 0.026315
vt 0.375833 0.294881
vt 0.375833 0.223685
vt 0.375833 0.026315
vt 0.375833 0.000000
vt 0.375833 0.223685
vt 0.375833 0.294881
vt 0.624167 0.955119
vt 0.375833 0.955119
vt 0.830119 0.526316
vt 0.830119 0.723685
vt 0.375833 0.955119
vt 0.830119 0.723685
vt 0.830119 0.526316
s 1
f 1/1/1 2/2/2 3/3/3
f 4/4/4 5/5/5 6/6/6
f 7/7/7 8/8/8 9/9/9
f 10/10/10 11/11/11 12/12/12
f 13/13/13 14/14/14 15/15/15
f 16/16/16 17/17/17 18/18/18
f 19/19/19 20/20/20 21/21/21
f 22/22/22 23/23/23 24/24/24
f 25/1/25 26/3/26 27/2/27
f 28/25/28 29/26/29 30/27/30
f 31/7/31 32/9/32 33/28/33
f 34/29/34 35/30/35 36/31/36
f 37/32/37 38/33/38 39/14/39
f 40/34/40 41/35/41 42/36/42
f 43/37/43 44/38/44 45/39/45
f 46/40/46 47/41/47 48/42/48
f 7/7/7 1/1/1 3/3/3 8/8/8
f 2/43/2 4/25/4 6/44/6 3/45/3
f 5/46/5 10/10/10 12/12/12 6/44/6
f 11/11/11 9/47/9 8/48/8 12/12/12
f 19/19/19 7/7/7 9/9/9 20/20/20
f 10/10/10 22/22/22 24/24/24 11/11/11
f 23/23/23 21/21/21 20/20/20 24/24/24
f 13/13/13 19/19/19 21/21/21 14/14/14
f 22/22/22 16/16/16 18/18/18 23/23/23
f 17/17/17 15/15/15 14/14/14 18/18/18
f 1/1/1 13/13/13 15/15/15 2/2/2
f 16/16/16 5/5/5 4/4/4 17/17/17
f 33/28/33 26/3/26 25/1/25 31/7/31
f 26/49/26 29/26/29 28/25/28 27/50/27
f 29/26/29 35/30/35 34/29/34 30/27/30
f 35/30/35 33/51/33 32/52/32 36/31/36
f 45/39/45 32/9/32 31/7/31 43/37/43
f 36/31/36 47/41/47 46/40/46 34/29/34
f 47/41/47 45/39/45 44/38/44 48/42/48
f 39/14/39 44/38/44 43/37/43 37/32/37
f 48/42/48 41/35/41 40/34/40 46/40/46
f 41/35/41 39/14/39 38/33/38 42/36/42
f 27/2/27 38/33/38 37/32/37 25/1/25
f 42/36/42 28/53/28 30/5/30 40/34/40
f 7/7/7 19/19/19 13/13/13 1/1/1
f 3/45/3 6/44/6 12/12/12 8/48/8
f 15/15/15 17/17/17 4/4/4 2/54/2
f 22/22/22 10/55/10 5/56/5 16/16/16
f 9/47/9 11/11/11 24/24/24 20/20/20
f 21/21/21 23/23/23 18/18/18 14/14/14
f 31/7/31 25/1/25 37/32/37 43/37/43
f 26/49/26 33/51/33 35/30/35 29/26/29
f 38/33/38 27/57/27 28/53/28 42/36/42
f 46/40/46 40/34/40 30/58/30 34/59/34
f 32/52/32 45/39/45 47/41/47 36/31/36
f 44/38/44 39/14/39 41/35/41 48/42/48
o sh_ladder_03_rod_06
v -0.628194 0.677413 0.371008
v 0.628194 0.677413 0.371008
v -0.628194 0.669421 0.379011
v 0.628194 0.669421 0.379010
v -0.628194 0.672355 0.389933
v 0.628194 0.672356 0.389933
v -0.628194 0.683282 0.392853
v 0.628194 0.683282 0.392853
v -0.628194 0.691274 0.384850
v 0.628194 0.691274 0.384850
v -0.628194 0.688340 0.373928
v 0.628194 0.688340 0.373928
v -0.621291 0.657161 0.375734
v -0.621291 0.674120 0.358752
v 0.621291 0.674120 0.358752
v 0.621291 0.657161 0.375734
v -0.621291 0.663388 0.398912
v 0.621291 0.663388 0.398912
v -0.621291 0.686575 0.405109
v 0.621291 0.686575 0.405108
v -0.621291 0.703534 0.388127
v 0.621291 0.703534 0.388126
v -0.621291 0.697307 0.364949
v 0.621291 0.697307 0.364948
vn -0.0000 -0.2595 -0.9658
vn -0.0000 -0.9661 -0.2582
vn -0.0000 -0.7066 0.7076
vn -0.0000 0.2595 0.9658
vn -0.0000 0.9661 0.2582
vn -0.0000 0.7066 -0.7076
vn 0.9474 -0.0830 -0.3090
vn 0.9474 0.2261 -0.2264
vn 0.9474 0.3091 0.0826
vn 0.9474 0.0830 0.3090
vn 0.9474 -0.2261 0.2264
vn 0.9474 -0.3091 -0.0826
vn -0.9474 -0.3091 -0.0826
vn -0.9474 -0.2261 0.2264
vn -0.9474 0.0830 0.3090
vn -0.9474 0.3091 0.0826
vn -0.9474 0.2261 -0.2264
vn -0.9474 -0.0830 -0.3090
vn -0.8784 -0.1240 -0.4615
vn -0.8784 -0.4616 -0.1234
vn 0.8784 -0.4616 -0.1234
vn 0.8784 -0.1240 -0.4615
vn -0.8784 -0.3377 0.3381
vn 0.8784 -0.3377 0.3381
vn -0.8784 0.1240 0.4615
vn 0.8784 0.1240 0.4615
vn -0.8784 0.4616 0.1234
vn 0.8784 0.4616 0.1234
vn -0.8784 0.3377 -0.3381
vn 0.8784 0.3377 -0.3381
vt 1.000000 0.000000
vt 1.000000 1.000000
vt 0.833333 1.000000
vt 0.833333 0.000000
vt 0.666667 1.000000
vt 0.666667 0.000000
vt 0.500000 1.000000
vt 0.500000 0.000000
vt 0.333333 1.000000
vt 0.333333 0.000000
vt 0.166667 1.000000
vt 0.166667 0.000000
vt -0.000000 1.000000
vt -0.000000 0.000000
vt 0.292002 1.000000
vt 0.270315 1.000000
vt 0.362781 1.000000
vt 0.470552 1.000000
vt 0.563019 1.000000
vt 0.541331 1.000000
vt 0.541331 0.000000
vt 0.563018 0.000000
vt 0.470552 0.000000
vt 0.362781 0.000000
vt 0.270315 0.000000
vt 0.292002 0.000000
s 1
f 62/60/49 63/61/49 64/62/50 61/63/50
f 61/63/50 64/62/50 66/64/51 65/65/51
f 65/65/51 66/64/51 68/66/52 67/67/52
f 67/67/52 68/66/52 70/68/53 69/69/53
f 69/69/53 70/68/53 72/70/54 71/71/54
f 71/71/54 72/70/54 63/72/49 62/73/49
f 50/74/55 60/75/56 58/76/57 56/77/58 54/78/59 52/79/60
f 51/80/61 53/81/62 55/82/63 57/83/64 59/84/65 49/85/66
f 51/80/61 49/85/66 62/73/67 61/63/68
f 50/74/55 52/79/60 64/62/69 63/72/70
f 53/81/62 51/80/61 61/63/68 65/65/71
f 52/79/60 54/78/59 66/64/72 64/62/69
f 55/82/63 53/81/62 65/65/71 67/67/73
f 54/78/59 56/77/58 68/66/74 66/64/72
f 57/83/64 55/82/63 67/67/73 69/69/75
f 56/77/58 58/76/57 70/68/76 68/66/74
f 59/84/65 57/83/64 69/69/75 71/71/77
f 58/76/57 60/75/56 72/70/78 70/68/76
f 49/85/66 59/84/65 71/71/77 62/73/67
f 60/75/56 50/74/55 63/72/70 72/70/78
o sh_ladder_03_rod_01
v -0.531536 1.091478 0.258240
v 0.528935 1.091651 0.258885
v -0.531536 1.082447 0.267283
v 0.528935 1.083093 0.267455
v -0.531536 1.085763 0.279624
v 0.528935 1.086235 0.279151
v -0.531536 1.098109 0.282923
v 0.528935 1.097936 0.282278
v -0.531536 1.107139 0.273881
v 0.528935 1.106494 0.273708
v -0.531536 1.103824 0.261539
v 0.528935 1.103352 0.262012
v 0.521911 1.088566 0.247404
v 0.521911 1.071607 0.264385
v 0.521911 1.077834 0.287564
v 0.521911 1.101021 0.293760
v 0.521911 1.117980 0.276778
v 0.521911 1.111753 0.253600
v -0.521911 1.071607 0.264386
v -0.521911 1.088566 0.247404
v -0.521911 1.077834 0.287564
v -0.521911 1.101021 0.293760
v -0.521911 1.117980 0.276778
v -0.521911 1.111753 0.253600
vn -0.0000 -0.2595 -0.9658
vn -0.0000 -0.9661 -0.2582
vn -0.0000 -0.7066 0.7076
vn -0.0000 0.2595 0.9658
vn -0.0000 0.9661 0.2582
vn -0.0000 0.7066 -0.7076
vn 0.9401 -0.0885 -0.3293
vn 0.9401 0.0885 0.3293
vn 0.9401 -0.2409 0.2413
vn 0.9401 -0.3294 -0.0880
vn 0.8610 -0.4914 -0.1313
vn 0.8610 -0.1320 -0.4912
vn 0.8610 -0.3594 0.3599
vn 0.8610 0.1320 0.4912
vn 0.9401 0.3294 0.0880
vn 0.8610 0.4914 0.1313
vn 0.9401 0.2409 -0.2413
vn 0.8610 0.3594 -0.3599
vn -0.8981 -0.4248 -0.1135
vn -0.8981 0.4248 0.1135
vn -0.8981 0.3107 -0.3111
vn -0.8981 -0.1141 -0.4247
vn -0.7590 -0.1689 -0.6288
vn -0.7590 -0.6290 -0.1681
vn -0.8981 -0.3107 0.3111
vn -0.7590 -0.4601 0.4607
vn -0.8981 0.1141 0.4247
vn -0.7590 0.1689 0.6288
vn -0.7590 0.6290 0.1681
vn -0.7590 0.4601 -0.4607
vt 1.000000 0.000000
vt 1.000000 1.000000
vt 0.833333 1.000000
vt 0.833333 0.000000
vt 0.666667 1.000000
vt 0.666667 0.000000
vt 0.500000 1.000000
vt 0.500000 0.000000
vt 0.333333 1.000000
vt 0.333333 0.000000
vt 0.166667 1.000000
vt 0.166667 0.000000
vt -0.000000 1.000000
vt -0.000000 0.000000
vt 0.278715 1.000000
vt 0.473079 1.000000
vt 0.571805 1.000000
vt 0.554618 1.000000
vt 0.360255 1.000000
vt 0.261528 1.000000
vt 0.566225 0.000000
vt 0.358235 0.000000
vt 0.254427 0.000000
vt 0.267108 0.000000
vt 0.578906 0.000000
vt 0.475098 0.000000
s 1
f 92/86/79 85/87/79 86/88/80 91/89/80
f 91/89/80 86/88/80 87/90/81 93/91/81
f 93/91/81 87/90/81 88/92/82 94/93/82
f 94/93/82 88/92/82 89/94/83 95/95/83
f 95/95/83 89/94/83 90/96/84 96/97/84
f 96/97/84 90/96/84 85/98/79 92/99/79
f 74/100/85 80/101/86 78/102/87 76/103/88
f 74/100/85 76/103/88 86/88/89 85/98/90
f 76/103/88 78/102/87 87/90/91 86/88/89
f 78/102/87 80/101/86 88/92/92 87/90/91
f 80/101/86 82/104/93 89/94/94 88/92/92
f 82/104/93 84/105/95 90/96/96 89/94/94
f 84/105/95 74/100/85 85/98/90 90/96/96
f 84/105/95 82/104/93 80/101/86 74/100/85
f 75/106/97 81/107/98 83/108/99 73/109/100
f 75/106/97 73/109/100 92/99/101 91/89/102
f 77/110/103 75/106/97 91/89/102 93/91/104
f 79/111/105 77/110/103 93/91/104 94/93/106
f 81/107/98 79/111/105 94/93/106 95/95/107
f 83/108/99 81/107/98 95/95/107 96/97/108
f 73/109/100 83/108/99 96/97/108 92/99/101
f 77/110/103 79/111/105 81/107/98 75/106/97
o sh_ladder_03_rod_02
v -0.445198 1.471445 0.157676
v 0.445198 1.471445 0.157676
v -0.445198 1.463453 0.165679
v 0.445198 1.463453 0.165679
v -0.445198 1.466388 0.176602
v 0.445198 1.466388 0.176601
v -0.445198 1.477314 0.179521
v 0.445198 1.477314 0.179521
v -0.445198 1.485306 0.171519
v 0.445198 1.485306 0.171519
v -0.445198 1.482372 0.160596
v 0.445198 1.482372 0.160596
v -0.437224 1.451193 0.162403
v -0.437224 1.468152 0.145421
v 0.437224 1.468153 0.145421
v 0.437224 1.451193 0.162403
v -0.437224 1.457420 0.185581
v 0.437224 1.457421 0.185581
v -0.437224 1.480607 0.191777
v 0.437224 1.480607 0.191777
v -0.437224 1.497566 0.174795
v 0.437224 1.497566 0.174795
v -0.437224 1.491339 0.151617
v 0.437224 1.491339 0.151617
vn -0.0000 -0.2595 -0.9658
vn -0.0000 -0.9661 -0.2582
vn -0.0000 -0.7066 0.7076
vn -0.0000 0.2595 0.9658
vn -0.0000 0.9661 0.2582
vn -0.0000 0.7066 -0.7076
vn 0.9341 -0.0926 -0.3448
vn 0.9341 0.2523 -0.2526
vn 0.9341 0.3449 0.0922
vn 0.9341 0.0926 0.3448
vn 0.9341 -0.2523 0.2526
vn 0.9341 -0.3449 -0.0922
vn -0.9341 -0.3449 -0.0922
vn -0.9341 -0.2523 0.2526
vn -0.9341 0.0926 0.3448
vn -0.9341 0.3449 0.0922
vn -0.9341 0.2523 -0.2526
vn -0.9341 -0.0926 -0.3448
vn -0.8467 -0.1381 -0.5138
vn -0.8467 -0.5140 -0.1374
vn 0.8467 -0.5140 -0.1374
vn 0.8467 -0.1381 -0.5138
vn -0.8467 -0.3760 0.3765
vn 0.8467 -0.3760 0.3765
vn -0.8467 0.1381 0.5138
vn 0.8467 0.1381 0.5138
vn -0.8467 0.5140 0.1374
vn 0.8467 0.5140 0.1374
vn -0.8467 0.3760 -0.3765
vn 0.8467 0.3760 -0.3765
vt 1.000000 0.000000
vt 1.000000 1.000000
vt 0.833333 1.000000
vt 0.833333 0.000000
vt 0.666667 1.000000
vt 0.666667 0.000000
vt 0.500000 1.000000
vt 0.500000 0.000000
vt 0.333333 1.000000
vt 0.333333 0.000000
vt 0.166667 1.000000
vt 0.166667 0.000000
vt -0.000000 1.000000
vt -0.000000 0.000000
vt 0.292002 1.000000
vt 0.270315 1.000000
vt 0.362781 1.000000
vt 0.470552 1.000000
vt 0.563019 1.000000
vt 0.541331 1.000000
vt 0.541331 0.000000
vt 0.563018 0.000000
vt 0.470552 0.000000
vt 0.362781 0.000000
vt 0.270315 0.000000
vt 0.292002 0.000000
s 1
f 110/112/109 111/113/109 112/114/110 109/115/110
f 109/115/110 112/114/110 114/116/111 113/117/111
f 113/117/111 114/116/111 116/118/112 115/119/112
f 115/119/112 116/118/112 118/120/113 117/121/113
f 117/121/113 118/120/113 120/122/114 119/123/114
f 119/123/114 120/122/114 111/124/109 110/125/109
f 98/126/115 108/127/116 106/128/117 104/129/118 102/130/119 100/131/120
f 99/132/121 101/133/122 103/134/123 105/135/124 107/136/125 97/137/126
f 99/132/121 97/137/126 110/125/127 109/115/128
f 98/126/115 100/131/120 112/114/129 111/124/130
f 101/133/122 99/132/121 109/115/128 113/117/131
f 100/131/120 102/130/119 114/116/132 112/114/129
f 103/134/123 101/133/122 113/117/131 115/119/133
f 102/130/119 104/129/118 116/118/134 114/116/132
f 105/135/124 103/134/123 115/119/133 117/121/135
f 104/129/118 106/128/117 118/120/136 116/118/134
f 107/136/125 105/135/124 117/121/135 119/123/137
f 106/128/117 108/127/116 120/122/138 118/120/136
f 97/137/126 107/136/125 119/123/137 110/125/127
f 108/127/116 98/126/115 111/124/130 120/122/138
o sh_ladder_03_rod_03
v -0.334125 1.847075 0.056756
v 0.334125 1.847075 0.056756
v -0.334125 1.839083 0.064759
v 0.334125 1.839083 0.064759
v -0.334125 1.842018 0.075681
v 0.334125 1.842018 0.075681
v -0.334125 1.852944 0.078601
v 0.334125 1.852944 0.078601
v -0.334125 1.860936 0.070598
v 0.334125 1.860937 0.070598
v -0.334125 1.858002 0.059676
v 0.334125 1.858002 0.059676
v -0.324758 1.826823 0.061482
v -0.324758 1.843783 0.044501
v 0.324758 1.843783 0.044500
v 0.324758 1.826823 0.061482
v -0.324758 1.833051 0.084661
v 0.324758 1.833051 0.084660
v -0.324758 1.856237 0.090857
v 0.324758 1.856237 0.090857
v -0.324758 1.873196 0.073875
v 0.324758 1.873196 0.073875
v -0.324758 1.866969 0.050697
v 0.324758 1.866969 0.050697
vn -0.0000 -0.2595 -0.9658
vn -0.0000 -0.9661 -0.2582
vn -0.0000 -0.7066 0.7076
vn -0.0000 0.2595 0.9658
vn -0.0000 0.9661 0.2582
vn -0.0000 0.7066 -0.7076
vn -0.9167 -0.3861 -0.1032
vn -0.9167 -0.2824 0.2827
vn -0.9167 0.1037 0.3859
vn -0.9167 0.3861 0.1032
vn -0.9167 0.2824 -0.2827
vn -0.9167 -0.1037 -0.3859
vn 0.9167 -0.1037 -0.3859
vn 0.9167 0.2824 -0.2827
vn 0.9167 0.3861 0.1032
vn 0.9167 0.1037 0.3859
vn 0.9167 -0.2824 0.2827
vn 0.9167 -0.3861 -0.1032
vn -0.8046 -0.1541 -0.5735
vn -0.8046 -0.5737 -0.1533
vn 0.8046 -0.5737 -0.1533
vn 0.8046 -0.1541 -0.5735
vn -0.8046 -0.4196 0.4202
vn 0.8046 -0.4196 0.4202
vn -0.8046 0.1541 0.5735
vn 0.8046 0.1541 0.5735
vn -0.8046 0.5737 0.1533
vn 0.8046 0.5737 0.1533
vn -0.8046 0.4196 -0.4202
vn 0.8046 0.4196 -0.4202
vt 1.000000 0.000000
vt 1.000000 1.000000
vt 0.833333 1.000000
vt 0.833333 0.000000
vt 0.666667 1.000000
vt 0.666667 0.000000
vt 0.500000 1.000000
vt 0.500000 0.000000
vt 0.333333 1.000000
vt 0.333333 0.000000
vt 0.166667 1.000000
vt 0.166667 0.000000
vt -0.000000 1.000000
vt -0.000000 0.000000
vt 0.541331 0.000000
vt 0.563018 0.000000
vt 0.470552 0.000000
vt 0.362781 0.000000
vt 0.270315 0.000000
vt 0.292002 0.000000
vt 0.292002 1.000000
vt 0.270315 1.000000
vt 0.362781 1.000000
vt 0.470552 1.000000
vt 0.563019 1.000000
vt 0.541331 1.000000
s 1
f 134/138/139 135/139/139 136/140/140 133/141/140
f 133/141/140 136/140/140 138/142/141 137/143/141
f 137/143/141 138/142/141 140/144/142 139/145/142
f 139/145/142 140/144/142 142/146/143 141/147/143
f 141/147/143 142/146/143 144/148/144 143/149/144
f 143/149/144 144/148/144 135/150/139 134/151/139
f 123/152/145 125/153/146 127/154/147 129/155/148 131/156/149 121/157/150
f 122/158/151 132/159/152 130/160/153 128/161/154 126/162/155 124/163/156
f 123/152/145 121/157/150 134/151/157 133/141/158
f 122/158/151 124/163/156 136/140/159 135/150/160
f 125/153/146 123/152/145 133/141/158 137/143/161
f 124/163/156 126/162/155 138/142/162 136/140/159
f 127/154/147 125/153/146 137/143/161 139/145/163
f 126/162/155 128/161/154 140/144/164 138/142/162
f 129/155/148 127/154/147 139/145/163 141/147/165
f 128/161/154 130/160/153 142/146/166 140/144/164
f 131/156/149 129/155/148 141/147/165 143/149/167
f 130/160/153 132/159/152 144/148/168 142/146/166
f 121/157/150 131/156/149 143/149/167 134/151/157
f 132/159/152 122/158/151 135/150/160 144/148/168
o sh_ladder_03_rod_04
v -0.250665 2.315817 -0.069180
v 0.250665 2.315817 -0.069181
v -0.250665 2.307825 -0.061178
v 0.250665 2.307825 -0.061178
v -0.250665 2.310760 -0.050255
v 0.250665 2.310760 -0.050255
v -0.250665 2.321686 -0.047335
v 0.250665 2.321686 -0.047335
v -0.250665 2.329678 -0.055338
v 0.250665 2.329678 -0.055338
v -0.250665 2.326744 -0.066261
v 0.250665 2.326744 -0.066261
v -0.245198 2.295565 -0.064454
v -0.245198 2.312524 -0.081436
v 0.245198 2.312524 -0.081436
v 0.245198 2.295565 -0.064454
v -0.245198 2.301792 -0.041276
v 0.245198 2.301792 -0.041276
v -0.245198 2.324979 -0.035080
v 0.245198 2.324979 -0.035080
v -0.245198 2.341938 -0.052062
v 0.245198 2.341938 -0.052062
v -0.245198 2.335711 -0.075240
v 0.245198 2.335711 -0.075240
vn -0.0000 -0.2595 -0.9658
vn -0.0000 -0.9661 -0.2582
vn -0.0000 -0.7066 0.7076
vn -0.0000 0.2595 0.9658
vn -0.0000 0.9661 0.2582
vn -0.0000 0.7066 -0.7076
vn -0.9644 -0.2555 -0.0683
vn -0.9644 -0.1869 0.1871
vn -0.9644 0.0686 0.2554
vn -0.9644 0.2555 0.0683
vn -0.9644 0.1869 -0.1871
vn -0.9644 -0.0686 -0.2554
vn 0.9644 -0.0686 -0.2554
vn 0.9644 0.1869 -0.1871
vn 0.9644 0.2555 0.0683
vn 0.9644 0.0686 0.2554
vn 0.9644 -0.1869 0.1871
vn 0.9644 -0.2555 -0.0683
vn -0.9184 -0.1027 -0.3821
vn -0.9184 -0.3823 -0.1022
vn 0.9184 -0.3823 -0.1022
vn 0.9184 -0.1027 -0.3821
vn -0.9184 -0.2796 0.2800
vn 0.9184 -0.2796 0.2800
vn -0.9184 0.1027 0.3821
vn 0.9184 0.1027 0.3821
vn -0.9184 0.3823 0.1022
vn 0.9184 0.3823 0.1022
vn -0.9184 0.2796 -0.2800
vn 0.9184 0.2796 -0.2800
vt 1.000000 0.000000
vt 1.000000 1.000000
vt 0.833333 1.000000
vt 0.833333 0.000000
vt 0.666667 1.000000
vt 0.666667 0.000000
vt 0.500000 1.000000
vt 0.500000 0.000000
vt 0.333333 1.000000
vt 0.333333 0.000000
vt 0.166667 1.000000
vt 0.166667 0.000000
vt -0.000000 1.000000
vt -0.000000 0.000000
vt 0.541331 0.000000
vt 0.563018 0.000000
vt 0.470552 0.000000
vt 0.362781 0.000000
vt 0.270315 0.000000
vt 0.292002 0.000000
vt 0.292002 1.000000
vt 0.270315 1.000000
vt 0.362781 1.000000
vt 0.470552 1.000000
vt 0.563019 1.000000
vt 0.541331 1.000000
s 1
f 158/164/169 159/165/169 160/166/170 157/167/170
f 157/167/170 160/166/170 162/168/171 161/169/171
f 161/169/171 162/168/171 164/170/172 163/171/172
f 163/171/172 164/170/172 166/172/173 165/173/173
f 165/173/173 166/172/173 168/174/174 167/175/174
f 167/175/174 168/174/174 159/176/169 158/177/169
f 147/178/175 149/179/176 151/180/177 153/181/178 155/182/179 145/183/180
f 146/184/181 156/185/182 154/186/183 152/187/184 150/188/185 148/189/186
f 147/178/175 145/183/180 158/177/187 157/167/188
f 146/184/181 148/189/186 160/166/189 159/176/190
f 149/179/176 147/178/175 157/167/188 161/169/191
f 148/189/186 150/188/185 162/168/192 160/166/189
f 151/180/177 149/179/176 161/169/191 163/171/193
f 150/188/185 152/187/184 164/170/194 162/168/192
f 153/181/178 151/180/177 163/171/193 165/173/195
f 152/187/184 154/186/183 166/172/196 164/170/194
f 155/182/179 153/181/178 165/173/195 167/175/197
f 154/186/183 156/185/182 168/174/198 166/172/196
f 145/183/180 155/182/179 167/175/197 158/177/187
f 156/185/182 146/184/181 159/176/190 168/174/198
o sh_ladder_03_rod_05
v -0.711172 0.294489 0.473887
v 0.711172 0.294490 0.473887
v -0.711172 0.286497 0.481890
v 0.711172 0.286498 0.481890
v -0.711172 0.289432 0.492813
v 0.711172 0.289432 0.492813
v -0.711172 0.300359 0.495733
v 0.711172 0.300359 0.495733
v -0.711172 0.308351 0.487730
v 0.711172 0.308351 0.487730
v -0.711172 0.305416 0.476807
v 0.711172 0.305416 0.476807
v -0.703358 0.274238 0.478614
v -0.703358 0.291197 0.461632
v 0.703358 0.291197 0.461632
v 0.703358 0.274238 0.478614
v -0.703358 0.280465 0.501792
v 0.703358 0.280465 0.501792
v -0.703358 0.303651 0.507988
v 0.703358 0.303651 0.507988
v -0.703358 0.320610 0.491006
v 0.703358 0.320611 0.491006
v -0.703358 0.314383 0.467828
v 0.703358 0.314383 0.467828
vn -0.0000 -0.2595 -0.9658
vn -0.0000 -0.9661 -0.2582
vn -0.0000 -0.7066 0.7076
vn -0.0000 0.2595 0.9658
vn -0.0000 0.9661 0.2582
vn -0.0000 0.7066 -0.7076
vn -0.9361 -0.3398 -0.0908
vn -0.9361 -0.2485 0.2489
vn -0.9361 0.0913 0.3397
vn -0.9361 0.3398 0.0908
vn -0.9361 0.2485 -0.2489
vn -0.9361 -0.0913 -0.3397
vn 0.9361 -0.0913 -0.3397
vn 0.9361 0.2485 -0.2489
vn 0.9361 0.3398 0.0908
vn 0.9361 0.0913 0.3397
vn 0.9361 -0.2485 0.2489
vn 0.9361 -0.3398 -0.0908
vn -0.8515 -0.1361 -0.5064
vn -0.8515 -0.5066 -0.1354
vn 0.8515 -0.5066 -0.1354
vn 0.8515 -0.1361 -0.5064
vn -0.8515 -0.3705 0.3710
vn 0.8515 -0.3705 0.3710
vn -0.8515 0.1361 0.5064
vn 0.8515 0.1361 0.5064
vn -0.8515 0.5066 0.1354
vn 0.8515 0.5066 0.1354
vn -0.8515 0.3705 -0.3710
vn 0.8515 0.3705 -0.3710
vt 1.000000 0.000000
vt 1.000000 1.000000
vt 0.833333 1.000000
vt 0.833333 0.000000
vt 0.666667 1.000000
vt 0.666667 0.000000
vt 0.500000 1.000000
vt 0.500000 0.000000
vt 0.333333 1.000000
vt 0.333333 0.000000
vt 0.166667 1.000000
vt 0.166667 0.000000
vt -0.000000 1.000000
vt -0.000000 0.000000
vt 0.541331 0.000000
vt 0.563018 0.000000
vt 0.470552 0.000000
vt 0.362781 0.000000
vt 0.270315 0.000000
vt 0.292002 0.000000
vt 0.292002 1.000000
vt 0.270315 1.000000
vt 0.362781 1.000000
vt 0.470552 1.000000
vt 0.563019 1.000000
vt 0.541331 1.000000
s 1
f 182/190/199 183/191/199 184/192/200 181/193/200
f 181/193/200 184/192/200 186/194/201 185/195/201
f 185/195/201 186/194/201 188/196/202 187/197/202
f 187/197/202 188/196/202 190/198/203 189/199/203
f 189/199/203 190/198/203 192/200/204 191/201/204
f 191/201/204 192/200/204 183/202/199 182/203/199
f 171/204/205 173/205/206 175/206/207 177/207/208 179/208/209 169/209/210
f 170/210/211 180/211/212 178/212/213 176/213/214 174/214/215 172/215/216
f 171/204/205 169/209/210 182/203/217 181/193/218
f 170/210/211 172/215/216 184/192/219 183/202/220
f 173/205/206 171/204/205 181/193/218 185/195/221
f 172/215/216 174/214/215 186/194/222 184/192/219
f 175/206/207 173/205/206 185/195/221 187/197/223
f 174/214/215 176/213/214 188/196/224 186/194/222
f 177/207/208 175/206/207 187/197/223 189/199/225
f 176/213/214 178/212/213 190/198/226 188/196/224
f 179/208/209 177/207/208 189/199/225 191/201/227
f 178/212/213 180/211/212 192/200/228 190/198/226
f 169/209/210 179/208/209 191/201/227 182/203/217
f 180/211/212 170/210/211 183/202/220 192/200/228
o sh_ladder_03_foot
v 0.357163 1.500554 0.125652
v 0.345763 1.513194 0.120445
v 0.356177 0.026344 -0.636859
v 0.356114 0.039755 -0.641180
v 0.366115 0.035226 -0.632264
v 0.352676 1.445134 0.139398
v 0.361211 1.460733 0.136742
v 0.356177 0.003254 -0.591400
v 0.366155 0.012200 -0.586931
v 0.356155 0.007671 -0.578015
v 0.324988 1.510326 0.117730
v 0.316440 1.494913 0.120335
v 0.334722 0.026344 -0.636859
v 0.324664 0.035232 -0.632275
v 0.334664 0.039761 -0.641191
v 0.320484 1.455132 0.131414
v 0.331913 1.442267 0.136684
v 0.334722 0.003254 -0.591400
v 0.334705 0.007677 -0.578028
v 0.324705 0.012207 -0.586944
v -0.345763 1.513194 0.120445
v -0.357163 1.500554 0.125652
v -0.356177 0.026344 -0.636859
v -0.366114 0.035226 -0.632264
v -0.356114 0.039755 -0.641180
v -0.361211 1.460733 0.136742
v -0.352676 1.445134 0.139398
v -0.356177 0.003254 -0.591400
v -0.356155 0.007671 -0.578015
v -0.366155 0.012200 -0.586931
v -0.316440 1.494913 0.120335
v -0.324988 1.510326 0.117730
v -0.334722 0.026344 -0.636859
v -0.334664 0.039761 -0.641191
v -0.324664 0.035232 -0.632275
v -0.331913 1.442267 0.136684
v -0.320484 1.455132 0.131414
v -0.334722 0.003254 -0.591400
v -0.324705 0.012207 -0.586944
v -0.334705 0.007677 -0.578028
vn 0.8174 0.2684 -0.5098
vn 0.3331 0.4346 -0.8368
vn 0.3431 -0.6239 -0.7022
vn 0.3440 0.0996 -0.9337
vn 0.8695 -0.1355 -0.4750
vn 0.4817 -0.3902 0.7847
vn 0.9900 -0.0592 0.1279
vn 0.3426 -0.9352 -0.0899
vn 0.8837 -0.4483 0.1346
vn 0.3397 -0.6990 0.6292
vn -0.2244 0.4460 -0.8664
vn -0.8386 0.2462 -0.4860
vn -0.3406 -0.6252 -0.7022
vn -0.8817 -0.1605 -0.4436
vn -0.3391 0.0935 -0.9361
vn -0.9632 -0.1230 0.2389
vn -0.4176 -0.4061 0.8128
vn -0.3412 -0.9357 -0.0901
vn -0.3434 -0.6963 0.6303
vn -0.8676 -0.4679 0.1686
vn -0.3331 0.4346 -0.8368
vn -0.8174 0.2684 -0.5098
vn -0.3431 -0.6239 -0.7022
vn -0.8695 -0.1355 -0.4750
vn -0.3440 0.0996 -0.9337
vn -0.9900 -0.0592 0.1279
vn -0.4817 -0.3902 0.7847
vn -0.3426 -0.9352 -0.0899
vn -0.3397 -0.6990 0.6292
vn -0.8837 -0.4483 0.1346
vn 0.8386 0.2462 -0.4860
vn 0.2244 0.4460 -0.8664
vn 0.3406 -0.6252 -0.7022
vn 0.3391 0.0935 -0.9361
vn 0.8817 -0.1605 -0.4436
vn 0.4176 -0.4061 0.8128
vn 0.9632 -0.1230 0.2389
vn 0.3412 -0.9357 -0.0901
vn 0.8676 -0.4679 0.1686
vn 0.3434 -0.6963 0.6303
vt 0.125005 0.690482
vt 0.126499 0.689684
vt 0.126508 0.750000
vt 0.564693 0.464782
vt 0.624934 0.464545
vt 0.564562 0.499882
vt 0.435307 0.285218
vt 0.375000 0.285434
vt 0.434956 0.250215
vt 0.435307 0.464782
vt 0.435202 0.499857
vt 0.375000 0.464495
vt 0.564694 0.285218
vt 0.624812 0.285480
vt 0.564315 0.250130
vt 0.564562 0.499882
vt 0.435307 0.285218
vt 0.434956 0.250108
vt 0.435307 0.464782
vt 0.375000 0.464495
vt 0.435202 0.499857
vt 0.624723 1.000000
vt 0.376548 1.000000
vt 0.376529 0.964623
vt 0.625000 0.947759
vt 0.564693 0.285218
vt 0.625000 0.285480
vt 0.373404 0.750000
vt 0.375000 0.688767
vt 0.125000 0.560306
vt 0.126501 0.560316
vt 0.375000 0.561237
vt 0.126512 0.500000
vt 0.373393 0.500000
vt 0.376549 0.689684
vt 0.625000 0.688727
vt 0.625000 0.750000
vt 0.376565 0.750000
vt 0.625000 0.500000
vt 0.376555 0.500000
vt 0.376547 0.560315
vt 0.625000 0.561269
vt 0.624737 0.750000
vt 0.376506 0.750000
vt 0.376512 0.785377
vt 0.625000 0.801487
vt 0.373393 0.500000
vt 0.126501 0.560316
vt 0.375000 0.561237
vt 0.376565 0.750000
vt 0.625000 0.688727
vt 0.376547 0.560315
vt 0.626536 0.535378
vt 0.875000 0.552316
vt 0.875000 0.698446
vt 0.626519 0.714622
vt 0.375000 0.688767
vt 0.626536 0.535378
vt 0.875000 0.698446
vt 0.875000 0.552316
s 1
f 195/216/231 196/217/232 197/218/233
f 200/219/236 201/220/237 202/221/238
f 205/222/241 206/223/242 207/224/243
f 210/225/246 211/226/247 212/227/248
f 215/228/251 216/229/252 217/230/253
f 220/219/256 221/231/257 222/220/258
f 225/232/261 226/233/262 227/223/263
f 230/234/266 231/235/267 232/236/268
f 210/225/246 200/219/236 202/221/238 211/226/247
f 198/237/234 202/238/238 201/239/237 199/240/235
f 200/219/236 195/241/231 197/242/233 201/220/237
f 193/243/229 197/218/233 196/217/232 194/244/230
f 195/216/231 205/245/241 207/246/243 196/217/232
f 203/247/239 207/246/243 206/248/242 204/249/240
f 211/250/247 209/251/245 208/252/244 212/253/248
f 205/222/241 210/225/246 212/227/248 206/223/242
f 232/236/268 221/231/257 220/219/256 230/234/266
f 218/254/254 222/255/258 221/256/257 219/257/255
f 222/220/258 216/229/252 215/228/251 220/219/256
f 213/258/249 217/259/253 216/260/252 214/261/250
f 217/230/253 226/233/262 225/232/261 215/228/251
f 223/262/259 227/248/263 226/263/262 224/264/260
f 231/265/267 229/252/265 228/266/264 232/250/268
f 227/223/263 231/235/267 230/234/266 225/232/261
f 197/260/233 193/261/229 199/240/235 201/239/237
f 207/246/243 203/247/239 194/244/230 196/217/232
f 205/222/241 195/241/231 200/219/236 210/225/246
f 202/267/238 198/257/234 209/251/245 211/250/247
f 212/268/248 208/269/244 204/270/240 206/271/242
f 216/260/252 222/239/258 218/240/254 214/261/250
f 226/263/262 217/217/253 213/272/249 224/264/260
f 225/232/261 230/234/266 220/219/256 215/228/251
f 221/256/257 232/250/268 228/266/264 219/257/255
f 231/273/267 227/271/263 223/274/259 229/275/265
o sh_ladder_03_line
v -0.573802 0.262758 0.522051
v -0.573802 0.271548 0.528280
v -0.581420 0.270267 0.520770
v -0.573802 0.325861 0.519019
v -0.573802 0.332090 0.510229
v -0.581420 0.324581 0.511510
v -0.573802 0.262758 0.522051
v -0.581420 0.270267 0.520770
v -0.573802 0.268987 0.513261
v -0.573802 0.332090 0.510229
v -0.573802 0.323300 0.504000
v -0.581420 0.324581 0.511510
v 0.573802 0.262758 0.522051
v 0.581420 0.270267 0.520770
v 0.573802 0.271548 0.528280
v 0.573802 0.332090 0.510229
v 0.573802 0.325861 0.519019
v 0.581420 0.324581 0.511510
v 0.573802 0.262758 0.522051
v 0.573802 0.268987 0.513261
v 0.581420 0.270267 0.520770
v 0.573802 0.332090 0.510229
v 0.581420 0.324581 0.511510
v 0.573802 0.323300 0.504000
vn -0.3416 -0.8057 0.4839
vn -0.3416 -0.1896 0.9205
vn -0.8756 -0.2793 0.3941
vn -0.3416 0.4839 0.8057
vn -0.3416 0.9205 0.1896
vn -0.8756 0.3941 0.2793
vn -0.3416 -0.9205 -0.1896
vn -0.8756 -0.3941 -0.2793
vn -0.3416 -0.4839 -0.8057
vn -0.3416 0.8057 -0.4839
vn -0.3416 0.1896 -0.9205
vn -0.8756 0.2793 -0.3941
vn 0.3416 -0.8057 0.4839
vn 0.8756 -0.2793 0.3941
vn 0.3416 -0.1896 0.9205
vn 0.3416 0.9205 0.1896
vn 0.3416 0.4839 0.8057
vn 0.8756 0.3941 0.2793
vn 0.3416 -0.9205 -0.1896
vn 0.3416 -0.4839 -0.8057
vn 0.8756 -0.3941 -0.2793
vn 0.3416 0.8057 -0.4839
vn 0.8756 0.2793 -0.3941
vn 0.3416 0.1896 -0.9205
vt 0.126638 0.625000
vt 0.126638 0.750000
vt 0.125000 0.625000
vt 0.597922 0.998362
vt 0.625000 0.998362
vt 0.597922 1.000000
vt 0.126638 0.500000
vt 0.625000 0.209425
vt 0.597923 0.251638
vt 0.597922 0.156250
vt 0.373362 0.625000
vt 0.395308 0.625000
vt 0.387720 0.750819
vt 0.625819 0.688319
vt 0.597923 0.751638
vt 0.597922 0.656250
vt 0.373362 0.625000
vt 0.387720 0.499181
vt 0.395308 0.625000
vt 0.625819 0.593341
vt 0.597922 0.625000
vt 0.597922 0.498772
vt 0.402078 0.000000
vt 0.597923 0.000000
vt 0.597922 0.125000
vt 0.402077 0.125000
vt 0.625000 0.125000
vt 0.402078 0.251638
vt 0.402077 0.125000
vt 0.402078 0.998362
vt 0.873362 0.625000
vt 0.873362 0.625000
s 1
f 233/276/269 234/277/270 235/278/271
f 236/279/272 237/280/273 238/281/274
f 239/276/275 240/278/276 241/282/277
f 242/283/278 243/284/279 244/285/280
f 245/286/281 246/287/282 247/288/283
f 248/289/284 249/290/285 250/291/286
f 251/292/287 252/293/288 253/294/289
f 254/295/290 255/296/291 256/297/292
f 239/276/275 233/276/269 235/278/271 240/278/276
f 234/298/270 236/299/272 238/300/274 235/301/271
f 237/302/273 242/283/278 244/285/280 238/300/274
f 243/284/279 241/303/277 240/304/276 244/285/280
f 251/292/287 239/276/275 241/282/277 252/293/288
f 242/283/278 254/295/290 256/297/292 243/284/279
f 255/296/291 253/294/289 252/293/288 256/297/292
f 245/286/281 251/292/287 253/294/289 246/287/282
f 254/295/290 248/289/284 250/291/286 255/296/291
f 249/290/285 247/288/283 246/287/282 250/291/286
f 233/276/269 245/286/281 247/288/283 234/277/270
f 248/289/284 237/280/273 236/279/272 249/290/285
f 239/276/275 251/292/287 245/286/281 233/276/269
f 235/301/271 238/300/274 244/285/280 240/304/276
f 247/288/283 249/290/285 236/279/272 234/305/270
f 254/295/290 242/306/278 237/307/273 248/289/284
f 241/303/277 243/284/279 256/297/292 252/293/288
f 253/294/289 255/296/291 250/291/286 246/287/282
