# Blender 5.1.1
# www.blender.org
o paving_stone
v 0.000000 -0.528157 -0.036477
v 0.000000 0.482606 0.007641
v 0.000000 0.031132 0.432071
v 0.002264 -0.014633 -0.611905
v 0.465527 -0.014633 0.007641
v -0.458707 -0.014633 0.007641
v -0.511444 -0.494535 -0.403450
v -0.411426 -0.473922 -0.503803
v -0.411981 -0.596506 -0.406387
v -0.469290 -0.541560 -0.462978
v -0.511444 -0.494453 0.419085
v -0.413125 -0.579020 0.404236
v -0.412900 -0.452812 0.502084
v -0.468577 -0.532520 0.470328
v -0.493529 0.375523 -0.357806
v -0.388899 0.490568 -0.357576
v -0.391018 0.389265 -0.469951
v -0.448113 0.440430 -0.414711
v -0.508682 0.430984 0.419124
v -0.411444 0.444338 0.519086
v -0.408669 0.531064 0.420004
v -0.467873 0.495878 0.476324
v 0.531405 -0.475198 -0.405097
v 0.411620 -0.573922 -0.403803
v 0.429803 -0.473930 -0.505042
v 0.478002 -0.532832 -0.462115
v 0.489366 -0.530338 0.317114
v 0.382032 -0.511798 0.422040
v 0.388853 -0.594610 0.303453
v 0.439202 -0.580791 0.365623
v 0.411419 0.544656 -0.403380
v 0.531796 0.446411 -0.404964
v 0.429933 0.444365 -0.505076
v 0.478086 0.503627 -0.462006
v 0.431277 0.394161 0.517252
v 0.525961 0.394398 0.415826
v 0.431466 0.506101 0.417360
v 0.489635 0.450946 0.474582
v 0.000117 0.512266 -0.480175
v 0.000000 0.512155 0.485097
v 0.000116 -0.542310 -0.480212
v 0.000000 -0.454944 0.401528
v -0.481166 -0.653542 0.005230
v -0.466695 0.450658 0.043109
v 0.479956 0.511836 0.007641
v 0.479910 -0.541906 0.005129
v -0.479762 -0.014633 -0.480594
v -0.479566 -0.012049 0.485038
v 0.587737 -0.008529 -0.487541
v 0.480025 -0.012058 0.484732
vn -0.7039 -0.0377 -0.7093
vn -0.3090 0.0365 -0.9504
vn -0.3306 -0.2799 -0.9013
vn -0.0416 0.9991 -0.0015
vn -0.0681 0.9977 0.0048
vn -0.0723 0.9959 -0.0537
vn -0.0210 0.9981 -0.0578
vn -0.6183 -0.7564 0.2135
vn 0.0531 -0.0649 0.9965
vn 0.1115 -0.0190 0.9936
vn 0.1034 -0.0408 0.9938
vn 0.0172 -0.0730 0.9972
vn -0.7390 0.6722 -0.0450
vn 0.0649 -0.9967 0.0494
vn -0.0007 -1.0000 -0.0006
vn -0.0260 -0.9992 -0.0301
vn -0.1004 -0.9458 0.3090
vn -0.7184 0.0285 0.6950
vn -0.0109 -0.0804 0.9967
vn -0.1172 -0.0975 0.9883
vn -0.0615 -0.1036 0.9927
vn 0.6358 -0.7717 -0.0176
vn 0.9975 -0.0118 0.0691
vn 0.9927 -0.0144 0.1200
vn 0.9996 -0.0274 0.0054
vn 0.9994 -0.0316 -0.0114
vn 0.6674 -0.1982 0.7178
vn 0.6321 0.7747 -0.0161
vn 0.7310 -0.0002 0.6824
vn 0.0294 0.9977 -0.0617
vn -0.0160 0.9999 -0.0063
vn -0.0219 -0.9763 0.2154
vn 0.1387 -0.9864 0.0885
vn 0.0954 -0.0624 0.9935
vn -0.0623 0.9966 0.0545
vn -0.0639 0.9961 0.0606
vn -0.0286 0.0128 -0.9995
vn -0.1563 0.1497 -0.9763
vn -0.0577 0.2419 -0.9686
vn 0.0828 0.1170 -0.9897
vn -0.7050 0.7052 -0.0755
vn 0.9890 0.0138 0.1475
vn 0.9709 -0.0004 0.2396
vn 0.2078 -0.0001 -0.9782
vn 0.1091 -0.1174 -0.9871
vn 0.0988 0.6625 0.7426
vn 0.1494 -0.9884 0.0263
vn 0.0273 -0.9991 0.0319
vn -0.0048 -0.2897 -0.9571
vn 0.5413 -0.8403 -0.0295
vn -0.7390 0.1466 -0.6576
vn 0.7621 0.6438 0.0682
vn 0.6889 -0.1783 -0.7026
vn -0.6351 -0.0352 0.7717
vn 0.0395 0.7150 -0.6980
vn -0.9999 0.0099 -0.0046
vn -0.9994 0.0282 0.0178
vn -0.9994 0.0351 -0.0000
vn -0.9996 0.0220 -0.0178
vn 0.2125 -0.5990 0.7721
vn 0.9998 -0.0012 0.0200
vn 0.9978 0.0269 0.0601
vn 0.0406 -0.7145 -0.6984
vn -0.0044 -0.1096 0.9940
vn -0.0607 0.9970 0.0483
vn 0.6874 0.1822 -0.7031
vn -0.9990 0.0030 -0.0437
vn -0.9995 -0.0063 -0.0311
vn -0.0385 0.7524 0.6575
vn -0.9997 -0.0158 -0.0184
vn -0.9999 0.0017 0.0132
vn -0.2119 0.7279 -0.6522
vn 0.9989 -0.0363 -0.0302
vn -0.1868 -0.8105 0.5552
vn -0.9989 0.0183 0.0431
vn -0.7066 -0.6840 -0.1815
vn -0.0297 -0.6218 -0.7826
vn 0.2538 -0.9670 0.0212
vt 0.389732 0.457820
vt 0.393699 0.451291
vt 0.434961 0.456359
vt 0.396067 0.463220
vt 0.439701 0.501278
vt 0.472383 0.470606
vt 0.479085 0.504345
vt 0.473598 0.536547
vt 0.482748 0.541700
vt 0.479083 0.547004
vt 0.442373 0.541020
vt 0.476494 0.536372
vt 0.403664 0.459078
vt 0.442616 0.459078
vt 0.478545 0.469675
vt 0.433398 0.498775
vt 0.478478 0.465331
vt 0.485408 0.470390
vt 0.441518 0.498768
vt 0.411240 0.462981
vt 0.445680 0.458165
vt 0.470885 0.465865
vt 0.480002 0.544754
vt 0.473822 0.539601
vt 0.477095 0.501985
vt 0.485601 0.539967
vt 0.473543 0.537615
vt 0.430392 0.539449
vt 0.397250 0.530087
vt 0.483007 0.537236
vt 0.476351 0.532584
vt 0.479389 0.497559
vt 0.489300 0.531330
vt 0.435099 0.500585
vt 0.398898 0.538419
vt 0.390912 0.503895
vt 0.398089 0.468674
vt 0.481278 0.466284
vt 0.476390 0.471540
vt 0.432030 0.460570
vt 0.475369 0.458928
vt 0.392508 0.543516
vt 0.385810 0.538717
vt 0.395308 0.541538
vt 0.391130 0.534723
vt 0.439235 0.541551
vt 0.403018 0.535456
vt 0.479094 0.500404
vt 0.473893 0.505055
vt 0.405020 0.466310
vt 0.439763 0.460122
vt 0.435025 0.497947
vt 0.469406 0.463894
vt 0.480238 0.497056
vt 0.474176 0.533571
vt 0.485408 0.535783
vt 0.479122 0.541511
vt 0.437780 0.543418
vt 0.436160 0.547764
vt 0.396713 0.534550
vt 0.384764 0.528700
vt 0.393145 0.492694
vt 0.408220 0.532277
vt 0.403957 0.497274
vt 0.389743 0.498170
vt 0.486429 0.471555
vt 0.395915 0.506405
vt 0.408025 0.538632
vt 0.402561 0.544754
vt 0.395451 0.541201
vt 0.385810 0.469556
vt 0.392091 0.464152
vt 0.479383 0.544134
vt 0.483929 0.459686
vt 0.486344 0.466131
vt 0.486361 0.532391
vt 0.479979 0.538204
vt 0.436955 0.504085
vt 0.399991 0.465634
vt 0.433687 0.450410
vt 0.469331 0.461681
vt 0.491507 0.473078
vt 0.405522 0.457190
vt 0.399398 0.461161
vt 0.399213 0.500974
vt 0.475677 0.545557
vt 0.474136 0.547556
vt 0.442133 0.542999
vt 0.474369 0.458086
vt 0.476481 0.462024
vt 0.482748 0.468276
vt 0.405703 0.543932
vt 0.402072 0.537642
vt 0.382742 0.462776
s 1
f 10/1/1 7/2/1 47/3/2 8/4/3
f 2/5/4 16/6/5 44/7/6 21/8/7
f 14/9/8 11/10/8 43/11/8 12/12/8
f 20/13/9 48/14/10 13/15/11 3/16/12
f 18/17/13 15/18/13 44/7/13 16/6/13
f 1/19/14 24/20/15 46/21/16 29/22/17
f 22/23/18 19/24/18 48/25/18 20/26/18
f 3/16/12 28/27/19 50/28/20 35/29/21
f 26/30/22 23/31/22 46/32/22 24/33/22
f 5/34/23 32/35/24 45/36/25 36/37/26
f 30/38/27 27/39/27 50/40/27 28/41/27
f 34/42/28 31/43/28 45/36/28 32/35/28
f 36/44/29 38/45/29 35/29/29 50/28/29
f 2/5/4 21/8/7 40/46/30 37/47/31
f 1/19/14 29/22/17 42/48/32 12/12/33
f 13/15/11 42/49/34 28/27/19 3/16/12
f 2/5/4 31/50/35 39/51/36 16/6/5
f 4/52/37 17/53/38 39/54/39 33/55/40
f 44/7/41 19/56/41 22/57/41 21/8/41
f 5/34/23 23/31/42 49/58/43 32/35/24
f 33/55/40 49/59/44 25/60/45 4/52/37
f 37/61/46 40/62/46 35/29/46 38/45/46
f 1/19/14 9/63/47 41/64/48 24/20/15
f 25/60/45 41/65/49 8/4/3 4/52/37
f 46/32/50 27/39/50 30/38/50 29/66/50
f 47/67/51 15/68/51 18/69/51 17/70/51
f 37/71/52 38/72/52 36/37/52 45/36/52
f 49/58/53 23/31/53 26/30/53 25/73/53
f 48/14/54 11/74/54 14/75/54 13/15/54
f 39/54/55 31/76/55 34/77/55 33/55/55
f 6/78/56 7/79/57 43/80/58 11/81/59
f 14/75/60 12/82/60 42/49/60 13/15/60
f 5/34/23 27/39/61 46/32/62 23/31/42
f 26/83/63 24/20/63 41/64/63 25/84/63
f 3/16/12 35/29/21 40/62/64 20/13/9
f 2/5/4 37/47/31 45/85/65 31/50/35
f 34/77/66 32/86/66 49/59/66 33/55/66
f 6/78/56 11/81/59 48/25/67 19/24/68
f 21/8/69 22/57/69 20/87/69 40/46/69
f 6/78/56 19/24/68 44/88/70 15/68/71
f 18/17/72 16/6/72 39/51/72 17/89/72
f 5/34/23 36/37/26 50/40/73 27/39/61
f 29/22/17 30/90/74 28/91/74 42/48/32
f 6/78/56 15/68/71 47/67/75 7/79/57
f 43/11/76 7/92/76 10/93/76 9/63/76
f 9/94/77 10/1/77 8/4/3 41/65/49
f 4/52/37 8/4/3 47/3/2 17/53/38
f 12/12/33 43/11/78 9/63/47 1/19/14
