# Blender 5.1.1
# www.blender.org
o sh_shovel_stick
v 0.000000 0.406811 -0.027050
v 0.000000 1.505172 -0.011643
v 0.023426 0.406811 -0.013525
v 0.010083 1.505172 -0.005821
v 0.023426 0.406811 0.013525
v 0.010083 1.505172 0.005821
v 0.000000 0.406811 0.027050
v 0.000000 1.505172 0.011643
v -0.023426 0.406811 0.013525
v -0.010083 1.505172 0.005821
v -0.023426 0.406811 -0.013525
v -0.010083 1.505172 -0.005821
v 0.000000 1.489962 -0.027050
v 0.023426 1.489962 -0.013525
v 0.023426 1.489962 0.013525
v 0.000000 1.489962 0.027050
v -0.023426 1.489962 0.013525
v -0.023426 1.489962 -0.013525
v 0.000000 1.476590 -0.027050
v 0.023426 1.476590 -0.013525
v 0.023426 1.476590 0.013525
v 0.000000 1.476590 0.027050
v -0.023426 1.476590 0.013525
v -0.023426 1.476590 -0.013525
vn -0.0000 -0.0000 -1.0000
vn -0.0000 0.8791 -0.4766
vn 0.8660 -0.0000 -0.5000
vn 0.4128 0.8791 -0.2383
vn 0.8660 -0.0000 0.5000
vn 0.4128 0.8791 0.2383
vn -0.0000 -0.0000 1.0000
vn -0.0000 0.8791 0.4766
vn -0.8660 -0.0000 0.5000
vn -0.4128 0.8791 0.2383
vn -0.8660 -0.0000 -0.5000
vn -0.4128 0.8791 -0.2383
vn -0.0000 0.3477 -0.9376
vn 0.8120 0.3477 -0.4688
vn 0.8120 0.3477 0.4688
vn -0.0000 0.3477 0.9376
vn -0.8120 0.3477 0.4688
vn -0.8120 0.3477 -0.4688
vt 1.000000 0.987654
vt 1.000000 1.000000
vt 0.833333 1.000000
vt 0.833333 0.987654
vt 0.666667 1.000000
vt 0.666667 0.987654
vt 0.500000 1.000000
vt 0.500000 0.987654
vt 0.333333 1.000000
vt 0.333333 0.987654
vt 0.166667 1.000000
vt 0.166667 0.987654
vt -0.000000 1.000000
vt -0.000000 0.987654
vt 0.307324 1.000000
vt 0.281443 1.000000
vt 0.366036 1.000000
vt 0.467297 1.000000
vt 0.551890 1.000000
vt 0.526009 1.000000
vt 0.166667 0.000000
vt -0.000000 0.000000
vt 0.333333 0.000000
vt 0.500000 0.000000
vt 0.666667 0.000000
vt 0.833333 0.000000
vt 1.000000 0.000000
s 1
f 19/1/1 13/2/13 14/3/14 20/4/3
f 20/4/3 14/3/14 15/5/15 21/6/5
f 21/6/5 15/5/15 16/7/16 22/8/7
f 22/8/7 16/7/16 17/9/17 23/10/9
f 23/10/9 17/9/17 18/11/18 24/12/11
f 24/12/11 18/11/18 13/13/13 19/14/1
f 2/15/2 12/16/12 10/17/10 8/18/8 6/19/6 4/20/4
f 2/15/2 4/20/4 14/3/14 13/13/13
f 4/20/4 6/19/6 15/5/15 14/3/14
f 6/19/6 8/18/8 16/7/16 15/5/15
f 8/18/8 10/17/10 17/9/17 16/7/16
f 10/17/10 12/16/12 18/11/18 17/9/17
f 12/16/12 2/15/2 13/13/13 18/11/18
f 11/21/11 24/12/11 19/14/1 1/22/1
f 9/23/9 23/10/9 24/12/11 11/21/11
f 7/24/7 22/8/7 23/10/9 9/23/9
f 5/25/5 21/6/5 22/8/7 7/24/7
f 3/26/3 20/4/3 21/6/5 5/25/5
f 1/27/1 19/1/1 20/4/3 3/26/3
o sh_shovel_tool
v 0.000000 0.255441 0.008823
v -0.080286 0.257655 0.026043
v -0.086068 0.225987 0.023780
v -0.121474 0.242863 0.045435
v -0.119677 0.175253 0.054096
v -0.077080 0.170058 0.029621
v -0.073994 0.061313 0.089379
v -0.057331 0.077305 0.069824
v 0.000000 0.029558 0.095280
v 0.000000 0.064112 0.069084
v -0.026912 0.421488 0.003165
v -0.026912 0.539206 0.004055
v 0.000000 0.164155 0.014925
v -0.107887 0.116201 0.071563
v -0.067302 0.111362 0.050676
v 0.000000 0.109283 0.038168
v 0.000000 0.223771 0.004009
v 0.080286 0.257655 0.026043
v 0.086068 0.225987 0.023780
v 0.121474 0.242863 0.045435
v 0.119677 0.175253 0.054096
v 0.077080 0.170058 0.029621
v 0.073994 0.061313 0.089379
v 0.057331 0.077305 0.069824
v 0.026912 0.421488 0.003165
v 0.026912 0.539206 0.004055
v 0.107887 0.116201 0.071563
v 0.067302 0.111362 0.050676
v 0.000000 0.255573 -0.008650
v -0.087235 0.257769 0.011013
v -0.088988 0.225585 0.017810
v -0.125595 0.242859 0.040205
v -0.123737 0.173721 0.049046
v -0.079694 0.168328 0.023746
v -0.076504 0.057587 0.084465
v -0.059276 0.073458 0.064749
v 0.000000 0.025535 0.089975
v 0.000000 0.060090 0.063778
v 0.000000 0.162240 0.008548
v -0.111547 0.113285 0.066826
v -0.069585 0.108223 0.045267
v 0.000000 0.106035 0.032355
v 0.000000 0.223302 -0.002633
v 0.087235 0.257769 0.011013
v 0.088988 0.225585 0.017810
v 0.125595 0.242859 0.040205
v 0.123737 0.173721 0.049046
v 0.079694 0.168328 0.023746
v 0.076504 0.057587 0.084465
v 0.059276 0.073458 0.064749
v 0.111547 0.113285 0.066826
v 0.069585 0.108223 0.045267
v -0.002066 0.421276 0.031122
v 0.002066 0.421276 0.031122
v -0.002066 0.538995 0.032013
v 0.002066 0.538995 0.032013
v -0.025189 0.421392 0.015831
v -0.021994 0.421361 0.019911
v -0.025189 0.539110 0.016722
v -0.022010 0.539079 0.020794
v -0.047454 0.291773 0.013769
v -0.049483 0.294734 0.012037
v -0.121044 0.290319 0.044313
v -0.118968 0.294547 0.041927
v -0.029473 0.295690 0.013033
v -0.021874 0.295322 0.016076
v -0.026136 0.298817 0.013999
v 0.002596 0.292779 0.014779
v -0.002596 0.292779 0.014779
v 0.000000 0.289670 0.014314
v -0.031449 0.300026 0.002916
v -0.034024 0.297258 0.000489
v -0.033085 0.297216 0.005996
v -0.119007 0.294461 0.041838
v -0.121029 0.294481 0.039151
v -0.125084 0.291883 0.042916
v -0.123625 0.291869 0.044749
v -0.127109 0.242703 0.047045
v -0.128430 0.242701 0.045459
v -0.051369 0.297355 0.004894
v -0.050270 0.297324 0.009067
v -0.126176 0.173872 0.053980
v -0.124792 0.174378 0.055616
v -0.076634 0.057220 0.091043
v -0.077609 0.055814 0.089189
v 0.000000 0.023054 0.094387
v 0.000000 0.024639 0.096478
v -0.112468 0.114554 0.073134
v -0.113780 0.113539 0.071519
v 0.021994 0.421361 0.019911
v 0.025189 0.421392 0.015831
v 0.022010 0.539079 0.020794
v 0.025189 0.539110 0.016722
v 0.049483 0.294734 0.012037
v 0.047454 0.291773 0.013769
v 0.118968 0.294547 0.041927
v 0.120715 0.290953 0.044220
v 0.029473 0.295690 0.013033
v 0.026136 0.298817 0.013999
v 0.021874 0.295322 0.016076
v 0.033085 0.297216 0.005996
v 0.034024 0.297258 0.000489
v 0.031449 0.300026 0.002916
v 0.119007 0.294461 0.041838
v 0.123625 0.291869 0.044749
v 0.125084 0.291883 0.042916
v 0.121029 0.294481 0.039151
v 0.128430 0.242701 0.045459
v 0.127109 0.242703 0.047045
v 0.050270 0.297324 0.009067
v 0.051369 0.297355 0.004894
v 0.124792 0.174378 0.055616
v 0.126176 0.173872 0.053980
v 0.077609 0.055814 0.089189
v 0.076634 0.057220 0.091043
v 0.113780 0.113539 0.071519
v 0.112468 0.114554 0.073134
v 0.002791 0.421727 -0.028408
v -0.002791 0.421727 -0.028408
v 0.002790 0.539445 -0.027518
v -0.002790 0.539445 -0.027518
v -0.026152 0.421620 -0.014313
v -0.028636 0.421584 -0.009502
v -0.026169 0.539338 -0.013410
v -0.028636 0.539302 -0.008612
v -0.052156 0.294811 0.001885
v -0.051137 0.291882 -0.000681
v -0.121103 0.294568 0.039090
v -0.123851 0.290984 0.040175
v -0.032691 0.295845 -0.007382
v -0.029407 0.298993 -0.009287
v -0.025274 0.295538 -0.012505
v -0.003000 0.292996 -0.014001
v 0.003000 0.292996 -0.014001
v 0.000000 0.289881 -0.013623
v 0.028636 0.421584 -0.009502
v 0.026152 0.421620 -0.014313
v 0.028636 0.539302 -0.008612
v 0.026169 0.539338 -0.013410
v 0.051137 0.291882 -0.000681
v 0.052156 0.294811 0.001885
v 0.124033 0.290348 0.040470
v 0.121103 0.294568 0.039090
v 0.032691 0.295845 -0.007382
v 0.025274 0.295538 -0.012505
v 0.029407 0.298993 -0.009287
vn 0.3779 0.0487 0.9246
vn 0.5120 0.0381 0.8582
vn 0.5235 0.2276 0.8211
vn 0.3565 0.2588 0.8977
vn 0.3193 0.4503 0.8338
vn 0.4602 0.4089 0.7880
vn 0.2987 0.5381 0.7882
vn 0.2627 0.5653 0.7819
vn -0.0000 0.5800 0.8146
vn -0.0000 0.5980 0.8015
vn -0.0000 0.4621 0.8868
vn -0.0000 0.2722 0.9622
vn 0.0002 0.0363 0.9993
vn 0.3295 -0.0425 0.9432
vn 0.0013 -0.0558 0.9984
vn -0.3782 0.0483 0.9245
vn -0.3565 0.2588 0.8977
vn -0.5224 0.2376 0.8189
vn -0.5117 0.0517 0.8576
vn -0.3193 0.4503 0.8338
vn -0.2627 0.5653 0.7819
vn -0.3002 0.5367 0.7886
vn -0.4607 0.4074 0.7885
vn -0.3302 -0.0424 0.9430
vn -0.4020 -0.1328 -0.9060
vn -0.3564 -0.2587 -0.8978
vn -0.5884 -0.2169 -0.7789
vn -0.6278 -0.0575 -0.7763
vn -0.3193 -0.4501 -0.8340
vn -0.2620 -0.5657 -0.7818
vn -0.3697 -0.5959 -0.7129
vn -0.5272 -0.4410 -0.7264
vn -0.0000 -0.5982 -0.8013
vn -0.0098 -0.6694 -0.7428
vn -0.0000 -0.4619 -0.8870
vn -0.0000 -0.2721 -0.9623
vn -0.0000 -0.1512 -0.9885
vn -0.3969 -0.0602 -0.9159
vn 0.0002 -0.1024 -0.9947
vn 0.4025 -0.1319 -0.9059
vn 0.6278 -0.0762 -0.7747
vn 0.5857 -0.2373 -0.7750
vn 0.3564 -0.2587 -0.8978
vn 0.3193 -0.4501 -0.8340
vn 0.5260 -0.4445 -0.7251
vn 0.3606 -0.6043 -0.7105
vn 0.2620 -0.5657 -0.7818
vn 0.3970 -0.0594 -0.9159
vn -0.1905 0.8083 0.5571
vn -0.2250 -0.0665 0.9721
vn -0.8982 0.0158 0.4393
vn 0.1549 -0.1059 0.9822
vn -0.1536 -0.1027 0.9828
vn 0.0007 -0.1972 0.9804
vn -0.9882 0.0408 0.1476
vn -0.2183 0.9551 -0.2005
vn -0.1568 0.9567 0.2451
vn 0.1095 0.9682 0.2248
vn -0.1786 0.9753 -0.1298
vn -0.9874 0.1200 -0.1029
vn -0.1314 0.1149 0.9847
vn 0.1942 0.8095 0.5541
vn 0.9008 0.0325 0.4330
vn 0.2249 -0.0667 0.9721
vn 0.1568 0.9567 0.2451
vn 0.2183 0.9551 -0.2005
vn 0.9882 0.0408 0.1474
vn -0.1061 0.9683 0.2261
vn 0.1228 0.1140 0.9859
vn 0.9880 0.1218 -0.0948
vn 0.1844 0.9739 -0.1321
vn -0.3614 0.7947 -0.4876
vn -0.9741 0.0193 -0.2251
vn -0.4069 -0.1023 -0.9077
vn -0.2642 -0.1158 -0.9575
vn 0.2654 -0.1189 -0.9568
vn 0.0007 -0.2391 -0.9710
vn 0.3638 0.7957 -0.4842
vn 0.4068 -0.1024 -0.9078
vn 0.9752 0.0355 -0.2184
vn -0.4213 -0.0069 0.9069
vn -0.3193 -0.0470 0.9465
vn 0.3193 -0.0469 0.9465
vn 0.4213 -0.0069 0.9069
vn -0.9612 -0.0021 0.2757
vn -0.9346 0.0037 0.3556
vn -0.4233 -0.0358 0.9053
vn -0.5272 -0.0064 0.8497
vn 0.4880 0.0577 0.8709
vn 0.3661 0.5411 0.7571
vn 0.2103 0.0830 0.9741
vn 0.1991 0.6758 0.7097
vn -0.6240 -0.7800 -0.0469
vn -0.0000 -0.9976 -0.0691
vn -0.0000 -0.0383 0.9993
vn -0.1346 0.0512 0.9896
vn -0.9208 -0.3863 -0.0543
vn -0.1513 0.2271 0.9620
vn -0.9913 -0.0057 -0.1316
vn -0.9843 -0.1348 -0.1138
vn -0.0724 0.1965 0.9778
vn -0.0642 0.0752 0.9951
vn 0.0386 0.9733 0.2263
vn -0.1038 0.9774 -0.1842
vn 0.5272 -0.0064 0.8497
vn 0.4233 -0.0359 0.9053
vn 0.9346 0.0037 0.3556
vn 0.9612 -0.0021 0.2757
vn -0.3484 0.6011 0.7192
vn -0.4862 0.0565 0.8720
vn -0.1793 0.6955 0.6958
vn -0.2337 0.0904 0.9681
vn 0.1347 0.0512 0.9896
vn 0.6241 -0.7800 -0.0469
vn 0.1513 0.2271 0.9620
vn 0.9208 -0.3862 -0.0543
vn 0.0610 0.0755 0.9953
vn 0.0724 0.1966 0.9778
vn 0.9843 -0.1348 -0.1138
vn 0.9917 -0.0057 -0.1284
vn 0.1038 0.9774 -0.1842
vn -0.0386 0.9733 0.2263
vn 0.4360 0.0068 -0.8999
vn 0.3456 -0.0325 -0.9378
vn -0.3456 -0.0326 -0.9378
vn -0.4360 0.0068 -0.8999
vn -0.6129 0.0060 -0.7902
vn -0.5266 -0.0228 -0.8498
vn -0.9913 0.0074 -0.1314
vn -0.9988 0.0003 -0.0483
vn -0.4622 0.5129 -0.7234
vn -0.6046 0.0246 -0.7961
vn -0.3490 0.6049 -0.7158
vn -0.3456 -0.0352 -0.9377
vn 0.9988 0.0003 -0.0483
vn 0.9913 0.0074 -0.1314
vn 0.5266 -0.0230 -0.8498
vn 0.6129 0.0059 -0.7902
vn 0.6059 0.0232 -0.7952
vn 0.4755 0.4867 -0.7328
vn 0.3262 -0.0293 -0.9449
vn 0.3704 0.5744 -0.7300
vn -0.9909 -0.0010 0.1348
vn -0.9907 0.0098 0.1360
vn 0.0460 0.9754 0.2158
vn -0.0487 0.0773 0.9958
vn -0.1203 0.9748 -0.1881
vn -0.9877 -0.0107 -0.1558
vn -0.0459 0.2099 0.9767
vn -0.9795 -0.1421 -0.1429
vn -0.1349 0.2435 0.9605
vn -0.9208 -0.3840 -0.0679
vn -0.1418 0.0674 0.9876
vn -0.0000 -0.0424 0.9991
vn -0.6191 -0.7835 -0.0534
vn -0.0000 -0.9971 -0.0759
vn 0.1418 0.0674 0.9876
vn 0.6191 -0.7835 -0.0534
vn 0.9907 0.0098 0.1360
vn 0.9909 -0.0010 0.1348
vn -0.0460 0.9754 0.2158
vn 0.0459 0.0776 0.9959
vn 0.1203 0.9748 -0.1881
vn 0.9883 -0.0107 -0.1522
vn 0.0459 0.2099 0.9767
vn 0.9795 -0.1421 -0.1429
vn 0.1349 0.2435 0.9605
vn 0.9208 -0.3841 -0.0679
vt 0.500000 0.000000
vt 0.333333 0.000000
vt 0.000000 0.000000
vt 0.324221 0.000000
vt 0.354111 0.000000
vt 0.321789 0.000000
vt 0.482725 0.000000
vt 0.491202 0.000000
vt 0.250000 0.000000
vt 0.262337 0.000000
vt 0.255528 0.000000
vt 0.291383 0.000000
vt 0.291383 0.000000
vt 0.279160 0.000000
vt 0.279160 0.000000
vt 0.314558 0.000000
vt 0.317941 0.000000
vt 0.349956 0.000000
vt 0.485007 1.000000
vt 0.485006 0.000000
vt 0.485007 0.000000
vt 0.485007 1.000000
vt 0.318355 1.000000
vt 0.318355 0.000000
vt 0.351008 0.000000
vt 0.350904 1.000000
vt 0.325818 0.000000
vt 0.291469 0.000000
vt 0.338440 0.000000
vt 0.317103 0.000000
vt 0.281574 0.000000
vt 0.282836 0.000000
vt 0.281574 0.000000
vt 0.278979 0.000000
vt 0.278979 0.000000
vt 0.275845 0.000000
vt 0.277559 0.000000
vt 0.277559 0.000000
vt 0.274245 0.000000
vt 0.350904 1.000000
vt 0.291469 0.000000
vt 0.326163 0.000000
vt 0.325818 0.000000
vt 0.250000 1.000000
s 1
f 27/28/19 28/29/20 29/29/21 30/28/22
f 39/28/23 38/29/24 31/29/25 32/28/26
f 32/28/26 31/29/25 33/29/27 34/28/28
f 39/30/23 32/30/26 34/30/28 40/30/29
f 30/30/22 39/30/23 40/30/29 37/30/30
f 30/28/22 29/29/21 38/29/24 39/28/23
f 27/30/19 30/30/22 37/30/30 41/30/31
f 26/30/32 27/30/19 41/30/31 25/30/33
f 43/28/34 46/28/35 45/29/36 44/29/37
f 52/28/38 48/28/39 47/29/40 51/29/41
f 48/28/39 34/28/28 33/29/27 47/29/40
f 52/30/38 40/30/29 34/30/28 48/30/39
f 46/30/35 37/30/30 40/30/29 52/30/38
f 46/28/35 52/28/38 51/29/41 45/29/36
f 43/30/34 41/30/31 37/30/30 46/30/35
f 42/30/42 25/30/33 41/30/31 43/30/34
f 55/28/43 58/28/44 57/29/45 56/29/46
f 65/28/47 60/28/48 59/29/49 64/29/50
f 60/28/48 62/28/51 61/29/52 59/29/49
f 65/30/47 66/30/53 62/30/51 60/30/48
f 58/30/44 63/30/54 66/30/53 65/30/47
f 58/28/44 65/28/47 64/29/50 57/29/45
f 55/30/43 67/30/55 63/30/54 58/30/44
f 54/30/56 53/30/57 67/30/55 55/30/43
f 69/28/58 70/29/59 71/29/60 72/28/61
f 76/28/62 75/29/63 73/29/64 74/28/65
f 74/28/65 73/29/64 61/29/52 62/28/51
f 76/30/62 74/30/65 62/30/51 66/30/53
f 72/30/61 76/30/62 66/30/53 63/30/54
f 72/28/61 71/29/60 75/29/63 76/28/62
f 69/30/58 72/30/61 63/30/54 67/30/55
f 68/30/66 69/30/58 67/30/55 53/30/57
f 89/31/67 90/32/68 91/33/69
f 92/34/70 93/35/71 94/28/72
f 95/36/73 96/37/74 97/38/75
f 98/39/76 99/40/77 100/41/78 101/42/79
f 122/43/80 123/44/81 124/45/82
f 125/37/83 126/38/84 127/36/85
f 128/40/86 129/41/87 130/42/88 131/39/89
f 154/43/90 155/44/91 156/45/92
f 157/34/93 158/35/94 159/28/95
f 168/31/96 169/32/97 170/33/98
f 79/46/99 77/47/100 78/48/101 80/49/102
f 83/50/103 81/51/104 82/52/105 84/53/106
f 97/38/75 89/31/67 91/33/69 95/36/73
f 92/34/70 78/48/101 77/47/100 93/35/71
f 81/51/104 91/33/69 90/32/68 82/52/105
f 101/42/79 87/54/107 88/55/108 98/39/76
f 87/54/107 85/56/109 86/57/110 88/55/108
f 89/31/67 86/57/110 85/56/109 90/32/68
f 109/58/111 110/59/112 111/59/113 108/60/114
f 113/61/115 109/58/111 108/60/114 112/62/116
f 103/63/117 106/64/118 107/65/119 102/63/120
f 105/30/121 97/30/75 96/30/74 104/30/122
f 100/41/78 103/63/117 102/63/120 101/42/79
f 104/66/122 99/40/77 98/39/76 105/66/121
f 106/64/118 113/61/115 112/62/116 107/65/119
f 116/67/123 114/52/124 115/51/125 117/50/126
f 127/36/85 123/44/81 122/43/80 125/37/83
f 114/52/124 124/45/82 123/44/81 115/51/125
f 128/40/86 120/68/127 121/69/128 129/41/87
f 120/68/127 118/57/129 119/56/130 121/69/128
f 124/45/82 119/56/130 118/57/129 122/43/80
f 139/58/131 111/59/113 110/59/112 138/58/132
f 141/61/133 139/58/131 138/58/132 140/62/134
f 133/63/135 136/64/136 137/65/137 132/63/138
f 135/30/139 126/30/84 125/30/83 134/30/140
f 129/41/87 133/63/135 132/63/138 130/42/88
f 134/66/140 128/40/86 131/39/89 135/66/139
f 136/64/136 141/61/133 140/62/134 137/65/137
f 144/46/141 142/47/142 143/48/143 145/49/144
f 148/67/145 146/52/146 147/51/147 149/50/148
f 95/36/73 155/44/91 154/43/90 96/37/74
f 157/34/93 143/48/143 142/47/142 158/35/94
f 146/52/146 156/45/92 155/44/91 147/51/147
f 99/40/77 152/68/149 153/69/150 100/41/78
f 152/68/149 150/57/151 151/56/152 153/69/150
f 156/45/92 151/56/152 150/57/151 154/43/90
f 162/50/153 160/51/154 161/52/155 163/53/156
f 126/38/84 168/31/96 170/33/98 127/36/85
f 160/51/154 170/33/98 169/32/97 161/52/155
f 130/42/88 166/70/157 167/55/158 131/39/89
f 166/70/157 164/56/159 165/57/160 167/55/158
f 168/31/96 165/57/160 164/56/159 169/32/97
f 78/48/101 114/52/124 116/67/123 80/49/102
f 77/47/100 79/46/99 84/53/106 82/52/105
f 77/47/100 82/52/105 90/32/68 93/35/71
f 78/48/101 92/34/70 124/45/82 114/52/124
f 81/51/104 83/50/103 36/71/161 35/36/162
f 81/51/104 35/36/162 95/36/73 91/33/69
f 86/57/110 105/66/163 98/39/76 88/55/108
f 105/30/163 86/30/110 89/30/67 97/30/75
f 25/28/33 85/56/109 87/54/107 26/28/32
f 94/28/72 93/35/71 90/32/68 85/56/109 25/28/33
f 26/28/32 87/54/107 28/29/20 27/28/19
f 87/54/107 101/42/79 102/63/164 28/29/20
f 92/34/70 94/28/72 25/28/33 119/56/130 124/45/82
f 147/51/147 155/44/91 95/36/73 35/36/162
f 104/30/165 96/30/74 154/30/90 150/30/151
f 150/57/151 152/68/149 99/40/77 104/66/165
f 153/69/150 56/29/46 103/63/166 100/41/78
f 28/29/20 102/63/164 107/65/167 29/29/21
f 56/29/46 57/29/45 106/64/168 103/63/166
f 29/29/21 107/65/167 112/62/169 38/29/24
f 57/29/45 64/29/50 113/61/170 106/64/168
f 38/29/24 112/62/169 108/60/171 31/29/25
f 31/29/25 108/60/171 111/59/172 33/29/27
f 64/29/50 59/29/49 109/58/173 113/61/170
f 59/29/49 61/29/52 110/59/174 109/58/173
f 47/29/40 33/29/27 111/59/172 139/58/175
f 73/29/64 138/58/176 110/59/174 61/29/52
f 115/51/125 49/36/177 50/71/178 117/50/126
f 115/51/125 123/44/81 127/36/85 49/36/177
f 118/57/129 120/68/127 128/40/86 134/66/179
f 25/28/33 42/28/42 121/69/128 119/56/130
f 134/30/179 125/30/83 122/30/80 118/30/129
f 42/28/42 43/28/34 44/29/37 121/69/128
f 121/69/128 44/29/37 133/63/180 129/41/87
f 160/51/154 49/36/177 127/36/85 170/33/98
f 135/30/181 165/30/160 168/30/96 126/30/84
f 165/57/160 135/66/181 131/39/89 167/55/158
f 166/70/157 130/42/88 132/63/182 70/29/59
f 44/29/37 45/29/36 136/64/183 133/63/180
f 70/29/59 132/63/182 137/65/184 71/29/60
f 45/29/36 51/29/41 141/61/185 136/64/183
f 71/29/60 137/65/184 140/62/186 75/29/63
f 51/29/41 47/29/40 139/58/175 141/61/185
f 75/29/63 140/62/186 138/58/176 73/29/64
f 142/47/142 144/46/141 163/53/156 161/52/155
f 143/48/143 146/52/146 148/67/145 145/49/144
f 143/48/143 157/34/93 156/45/92 146/52/146
f 142/47/142 161/52/155 169/32/97 158/35/94
f 147/51/147 35/36/162 36/71/161 149/50/148
f 53/28/57 54/28/56 153/69/150 151/56/152
f 157/34/93 159/28/95 53/28/57 151/56/152 156/45/92
f 54/28/56 55/28/43 56/29/46 153/69/150
f 159/28/95 158/35/94 169/32/97 164/56/159 53/28/57
f 160/51/154 162/50/153 50/71/178 49/36/177
f 53/28/57 164/56/159 166/70/157 68/28/66
f 68/28/66 166/70/157 70/29/59 69/28/58
