# Blender 5.1.1
# www.blender.org
o sh_timber_06
v 0.058907 -0.004180 -0.034880
v -0.078559 2.169505 -0.093532
v -0.077876 2.127066 -0.103682
v -0.097556 2.126447 -0.093886
v 0.102189 2.161106 0.089364
v 0.097317 2.117267 0.101292
v 0.111604 2.117120 0.091466
v 0.091039 2.178461 -0.082022
v 0.104806 2.133040 -0.092565
v 0.080751 2.133162 -0.102731
v -0.082419 1.737613 -0.096152
v -0.101888 1.741193 -0.085619
v -0.094264 1.312343 -0.095203
v -0.113208 1.312929 -0.087627
v -0.080559 0.869521 -0.099381
v -0.098952 0.868891 -0.089648
v -0.080184 0.432112 -0.097366
v -0.100837 0.431457 -0.088462
v 0.099327 1.717323 -0.098788
v 0.075331 1.719228 -0.108218
v 0.104771 1.300403 -0.082077
v 0.079051 1.301354 -0.091616
v 0.094055 0.872758 -0.087184
v 0.071440 0.872441 -0.097608
v 0.101252 0.434192 -0.093587
v 0.077542 0.433976 -0.102927
v 0.093446 1.725058 0.110447
v 0.107016 1.723714 0.100969
v 0.095287 1.307153 0.094313
v 0.109067 1.307658 0.084555
v 0.076103 0.871692 0.108832
v 0.089363 0.871999 0.099711
v 0.090244 0.434212 0.099804
v 0.103751 0.433974 0.089930
v -0.055209 0.000493 -0.054032
v -0.041852 -0.000659 -0.051066
v -0.099213 0.045077 -0.089685
v -0.101409 0.086424 -0.090306
v -0.081980 0.049773 -0.098199
v -0.078531 0.011559 -0.082160
v -0.061175 0.013747 -0.089378
v -0.057223 0.008781 -0.084737
v 0.061306 -0.012544 0.051192
v 0.053147 -0.011333 0.055173
v 0.055393 -0.013247 0.047066
v 0.087994 0.045457 0.084119
v 0.075970 0.047716 0.093361
v 0.070681 0.007779 0.083380
v 0.081284 0.007569 0.075600
v 0.084153 0.013523 0.079137
v 0.073140 0.013824 0.087481
v 0.070921 0.051076 -0.090658
v 0.093597 0.050936 -0.080731
v 0.081034 0.013123 -0.081216
v 0.101744 0.013071 -0.071963
v 0.095441 0.007589 -0.074814
v -0.088173 2.168699 -0.004043
v -0.099430 2.127499 -0.013043
v -0.089661 2.127523 0.006949
v 0.012302 2.125551 0.099457
v 0.011398 2.170413 0.079618
v -0.008120 2.126671 0.089152
v -0.111548 0.427980 -0.021404
v -0.101345 0.428435 -0.002190
v -0.007420 0.435615 0.087451
v 0.013506 0.436246 0.098591
v 0.004578 0.869528 0.099970
v -0.013303 0.868981 0.089290
v -0.087609 0.866685 0.011047
v -0.096964 0.866675 -0.008497
v 0.015521 1.299800 0.099674
v -0.003892 1.299594 0.089050
v -0.082448 1.305263 -0.002957
v -0.094388 1.306719 -0.022255
v -0.102915 1.752003 -0.011782
v -0.092489 1.751442 0.007126
v -0.006434 1.736058 0.087497
v 0.013874 1.733176 0.098782
v 0.023684 0.002890 0.036686
v 0.019973 0.004323 0.048740
v 0.013993 0.002966 0.038033
v -0.055706 -0.001666 -0.032006
v -0.043914 -0.003927 -0.026082
v 0.014935 0.068580 0.095319
v -0.003944 0.068143 0.085005
v -0.106556 0.039961 -0.020502
v -0.096885 0.043718 -0.001067
v -0.107932 0.079645 -0.020352
v 0.007989 0.017506 0.078124
v 0.021084 0.009714 0.083297
v 0.025683 0.016082 0.088232
v -0.088860 0.026860 -0.005064
v -0.097918 0.025075 -0.021918
v 0.143107 2.124211 0.009501
v 0.142364 2.125949 -0.010599
v 0.138471 2.169269 0.000243
v 0.136896 0.434095 -0.011851
v 0.137169 0.434071 0.008194
v 0.125984 0.872337 0.016470
v 0.126496 0.872420 -0.003943
v 0.141685 1.304427 0.010340
v 0.141215 1.303634 -0.007861
v 0.137283 1.720169 -0.009819
v 0.138122 1.720867 0.011999
v 0.098297 -0.008469 0.013000
v 0.095640 -0.009315 0.004508
v 0.123582 0.007577 0.012077
v 0.125487 0.007580 -0.003501
v 0.128440 0.013272 -0.004665
v 0.126519 0.013322 0.011839
v 0.125020 0.047897 0.010697
v 0.125632 0.048496 -0.007309
vn 0.0319 -0.9860 -0.1634
vn -0.4415 0.7244 -0.5294
vn -0.2325 0.1323 -0.9635
vn -0.8458 0.1516 -0.5115
vn 0.4240 0.6571 0.6233
vn 0.2556 0.1361 0.9572
vn 0.7885 0.0895 0.6085
vn 0.3745 0.7602 -0.5309
vn 0.6908 0.1556 -0.7061
vn 0.1744 0.1671 -0.9704
vn -0.2415 -0.0050 -0.9704
vn -0.8664 0.0025 -0.4993
vn -0.2237 -0.0011 -0.9747
vn -0.8796 -0.0010 -0.4758
vn -0.2148 0.0016 -0.9767
vn -0.8524 -0.0005 -0.5228
vn -0.2094 -0.0024 -0.9778
vn -0.8137 0.0053 -0.5812
vn 0.6851 -0.0096 -0.7283
vn 0.1696 -0.0121 -0.9854
vn 0.6974 -0.0148 -0.7165
vn 0.1873 -0.0097 -0.9823
vn 0.7033 0.0055 -0.7109
vn 0.1967 0.0096 -0.9804
vn 0.7054 -0.0069 -0.7088
vn 0.1978 -0.0078 -0.9802
vn 0.2689 -0.0059 0.9631
vn 0.7857 -0.0068 0.6186
vn 0.2919 -0.0077 0.9564
vn 0.7846 -0.0147 0.6198
vn 0.2716 0.0023 0.9624
vn 0.7706 -0.0011 0.6373
vn 0.3006 -0.0160 0.9536
vn 0.7815 -0.0129 0.6237
vn -0.2622 -0.9563 -0.1296
vn -0.0373 -0.9873 -0.1546
vn -0.7743 -0.2817 -0.5666
vn -0.8023 -0.0144 -0.5968
vn -0.2085 -0.1634 -0.9643
vn -0.5006 -0.7324 -0.4616
vn -0.0962 -0.5045 -0.8580
vn -0.0481 -0.8621 -0.5045
vn 0.2283 -0.9338 0.2757
vn -0.1512 -0.9412 0.3022
vn -0.1603 -0.9869 0.0191
vn 0.7591 -0.0861 0.6452
vn 0.3096 -0.1044 0.9451
vn 0.1420 -0.7515 0.6442
vn 0.4998 -0.7051 0.5030
vn 0.6943 -0.3477 0.6302
vn 0.2864 -0.3956 0.8727
vn 0.1974 -0.1037 -0.9748
vn 0.6824 -0.0407 -0.7299
vn 0.1845 -0.4029 -0.8965
vn 0.7719 -0.2361 -0.5902
vn 0.4179 -0.6164 -0.6674
vn -0.6354 0.7240 0.2686
vn -0.9716 0.1400 0.1908
vn -0.7896 0.1284 0.6001
vn -0.2485 0.1803 0.9517
vn -0.2293 0.7689 0.5968
vn -0.5749 0.1732 0.7997
vn -0.9817 0.0056 0.1905
vn -0.8023 -0.0016 0.5970
vn -0.5939 -0.0091 0.8045
vn -0.2637 -0.0124 0.9645
vn -0.2804 0.0012 0.9599
vn -0.6169 0.0046 0.7870
vn -0.8108 0.0138 0.5851
vn -0.9645 0.0123 0.2640
vn -0.2661 0.0037 0.9639
vn -0.6187 0.0051 0.7856
vn -0.8081 0.0002 0.5891
vn -0.9484 -0.0050 0.3170
vn -0.9620 -0.0022 0.2730
vn -0.8002 -0.0095 0.5997
vn -0.6002 -0.0060 0.7998
vn -0.2756 -0.0023 0.9613
vn -0.1625 -0.9866 0.0157
vn -0.2985 -0.9205 0.2523
vn -0.1597 -0.9685 0.1911
vn -0.3141 -0.9453 0.0875
vn -0.1708 -0.9757 0.1372
vn -0.2600 -0.0941 0.9610
vn -0.5781 -0.1289 0.8057
vn -0.9379 -0.2969 0.1796
vn -0.7669 -0.2027 0.6089
vn -0.9819 -0.0199 0.1885
vn -0.5390 -0.4887 0.6860
vn -0.3331 -0.6815 0.6516
vn -0.1971 -0.3443 0.9179
vn -0.6137 -0.5646 0.5519
vn -0.7017 -0.6906 0.1751
vn 0.9812 0.0721 0.1790
vn 0.9657 0.0928 -0.2424
vn 0.7277 0.6857 0.0177
vn 0.9804 -0.0032 -0.1970
vn 0.9784 -0.0054 0.2066
vn 0.9782 -0.0049 0.2074
vn 0.9805 -0.0032 -0.1965
vn 0.9824 -0.0140 0.1861
vn 0.9764 -0.0133 -0.2156
vn 0.9739 -0.0029 -0.2272
vn 0.9866 -0.0030 0.1632
vn 0.3845 -0.9120 0.1427
vn 0.1809 -0.9794 -0.0901
vn 0.6985 -0.6726 0.2443
vn 0.6735 -0.7323 -0.1007
vn 0.9629 -0.2303 -0.1408
vn 0.9264 -0.2384 0.2913
vn 0.9676 -0.0139 0.2519
vn 0.9823 0.0213 -0.1860
vt 0.624999 0.281615
vt 0.620111 0.274620
vt 0.620068 0.241030
vt 0.625000 0.746073
vt 0.620076 0.761952
vt 0.620087 0.737756
vt 0.625000 0.536527
vt 0.620071 0.512271
vt 0.620049 0.475381
vt 0.380199 0.238932
vt 0.385150 0.238394
vt 0.380801 0.274617
vt 0.375000 0.241577
vt 0.375146 0.266450
vt 0.375000 0.250000
vt 0.318135 0.686171
vt 0.315358 0.692835
vt 0.312110 0.680074
vt 0.358212 0.738786
vt 0.364505 0.728365
vt 0.371158 0.733922
vt 0.368865 0.749953
vt 0.365255 0.485631
vt 0.371277 0.513052
vt 0.365823 0.508119
vt 0.625000 0.125214
vt 0.620079 0.138034
vt 0.620092 0.116371
vt 0.620077 0.859003
vt 0.625000 0.840884
vt 0.620090 0.870935
vt 0.312110 0.674879
vt 0.309972 0.692600
vt 0.301845 0.676845
vt 0.380244 0.146912
vt 0.380538 0.120382
vt 0.385155 0.144058
vt 0.267501 0.728037
vt 0.286009 0.738122
vt 0.286530 0.743760
vt 0.620071 0.637273
vt 0.620086 0.612748
vt 0.625000 0.629572
vt 0.364639 0.636290
vt 0.364866 0.613780
vt 0.371414 0.613148
vt 0.371426 0.636901
vt 0.575000 0.274617
vt 0.575000 0.238103
vt 0.525000 0.274617
vt 0.525000 0.238139
vt 0.475000 0.274617
vt 0.475000 0.238204
vt 0.425000 0.274617
vt 0.425000 0.238302
vt 0.575000 0.512309
vt 0.575000 0.475383
vt 0.525000 0.512309
vt 0.525000 0.475383
vt 0.475000 0.512309
vt 0.475000 0.475383
vt 0.425000 0.512309
vt 0.425000 0.475383
vt 0.575000 0.761897
vt 0.575000 0.737691
vt 0.525000 0.761861
vt 0.525000 0.737691
vt 0.475000 0.761796
vt 0.475000 0.737691
vt 0.425000 0.761698
vt 0.425000 0.737691
vt 0.161697 0.514100
vt 0.200121 0.562890
vt 0.183485 0.559879
vt 0.134210 0.517633
vt 0.154315 0.508818
vt 0.380801 0.512309
vt 0.380801 0.475383
vt 0.380801 0.761560
vt 0.380801 0.737691
vt 0.575000 0.858927
vt 0.575109 0.870825
vt 0.625000 0.006524
vt 0.620061 0.012693
vt 0.575000 0.141072
vt 0.575000 0.116455
vt 0.424979 0.000004
vt 0.475027 0.000000
vt 0.475000 0.012821
vt 0.425000 0.012919
vt 0.475000 0.142002
vt 0.425000 0.142897
vt 0.425000 0.118280
vt 0.475000 0.117385
vt 0.525000 0.000000
vt 0.525000 0.012757
vt 0.525000 0.141410
vt 0.525000 0.116793
vt 0.525000 0.858590
vt 0.525093 0.870451
vt 0.148347 0.608883
vt 0.134431 0.586304
vt 0.372915 0.827255
vt 0.380801 0.855835
vt 0.380559 0.866428
vt 0.373287 0.837388
vt 0.374974 0.171816
vt 0.375494 0.147480
vt 0.378134 0.008469
vt 0.378396 0.020693
vt 0.182604 0.566027
vt 0.200121 0.575122
vt 0.312110 0.618884
vt 0.317022 0.631675
vt 0.425000 0.637309
vt 0.380801 0.637309
vt 0.380801 0.612691
vt 0.425000 0.612692
vt 0.575000 0.637309
vt 0.525000 0.637309
vt 0.525000 0.612691
vt 0.575000 0.612691
vt 0.475000 0.637309
vt 0.475000 0.612691
vt 0.625000 0.607965
vt 0.475000 0.857998
vt 0.425000 0.857103
vt 0.312110 0.562890
vt 0.575000 0.012720
vt 0.375364 0.031420
s 1
f 2/1/2 3/2/3 4/3/4
f 5/4/5 6/5/6 7/6/7
f 8/7/8 9/8/9 10/9/10
f 37/10/37 38/11/38 39/12/39
f 40/13/40 41/14/41 42/15/42
f 43/16/43 44/17/44 45/18/45
f 48/19/48 49/20/49 50/21/50 51/22/51
f 54/23/54 55/24/55 56/25/56
f 57/26/57 58/27/58 59/28/59
f 60/29/60 61/30/61 62/31/62
f 79/32/79 80/33/80 81/34/81
f 86/35/86 87/36/87 88/37/88
f 89/38/89 90/39/90 91/40/91
f 94/41/94 95/42/95 96/43/96
f 107/44/107 108/45/108 109/46/109 110/47/110
f 2/1/2 8/7/8 10/9/10 3/2/3
f 96/43/96 5/4/5 7/6/7 94/41/94
f 3/2/3 11/48/11 12/49/12 4/3/4
f 11/48/11 13/50/13 14/51/14 12/49/12
f 13/50/13 15/52/15 16/53/16 14/51/14
f 15/52/15 17/54/17 18/55/18 16/53/16
f 9/8/9 19/56/19 20/57/20 10/9/10
f 19/56/19 21/58/21 22/59/22 20/57/20
f 21/58/21 23/60/23 24/61/24 22/59/22
f 23/60/23 25/62/25 26/63/26 24/61/24
f 6/5/6 27/64/27 28/65/28 7/6/7
f 27/64/27 29/66/29 30/67/30 28/65/28
f 29/66/29 31/68/31 32/69/32 30/67/30
f 31/68/31 33/70/33 34/71/34 32/69/32
f 42/72/42 36/73/36 35/74/35 40/75/40
f 39/12/39 41/14/41 40/13/40 37/10/37
f 41/76/41 54/23/54 56/25/56 42/72/42
f 53/77/53 55/24/55 54/23/54 52/78/52
f 48/19/48 44/17/44 43/16/43 49/20/49
f 110/47/110 50/21/50 49/20/49 107/44/107
f 47/79/47 51/22/51 50/21/50 46/80/46
f 17/54/17 39/12/39 38/11/38 18/55/18
f 46/80/46 34/71/34 33/70/33 47/79/47
f 25/62/25 53/77/53 52/78/52 26/63/26
f 78/81/78 60/29/60 62/31/62 77/82/77
f 61/83/61 57/26/57 59/28/59 62/84/62
f 58/27/58 75/85/75 76/86/76 59/28/59
f 66/87/66 67/88/67 68/89/68 65/90/65
f 70/91/70 63/92/63 64/93/64 69/94/69
f 67/88/67 71/95/71 72/96/72 68/89/68
f 74/97/74 70/91/70 69/94/69 73/98/73
f 71/99/71 78/81/78 77/82/77 72/100/72
f 75/85/75 74/97/74 73/98/73 76/86/76
f 89/38/89 92/101/92 93/102/93 90/39/90
f 91/103/91 84/104/84 85/105/85 89/106/89
f 86/35/86 93/107/93 92/108/92 87/36/87
f 84/109/84 66/87/66 65/90/65 85/110/85
f 63/92/63 88/37/88 87/36/87 64/93/64
f 5/4/5 61/30/61 60/29/60 6/5/6
f 57/26/57 2/1/2 4/3/4 58/27/58
f 37/10/37 86/35/86 88/37/88 38/11/38
f 82/111/82 35/74/35 36/73/36 83/112/83
f 44/17/44 80/33/80 79/32/79 45/18/45
f 51/22/51 91/40/91 90/39/90 48/19/48
f 8/7/8 96/43/96 95/42/95 9/8/9
f 45/18/45 106/113/106 105/114/105 43/16/43
f 55/24/55 109/46/109 108/45/108 56/25/56
f 98/115/98 111/116/111 112/117/112 97/118/97
f 109/46/109 112/117/112 111/116/111 110/47/110
f 106/113/106 108/45/108 107/44/107 105/114/105
f 104/119/104 101/120/101 102/121/102 103/122/103
f 101/120/101 99/123/99 100/124/100 102/121/102
f 99/123/99 98/115/98 97/118/97 100/124/100
f 94/41/94 104/119/104 103/122/103 95/42/95
f 57/125/57 61/30/61 8/7/8 2/1/2
f 11/48/11 3/2/3 10/9/10 20/57/20
f 75/85/75 58/27/58 4/3/4 12/49/12
f 8/7/8 61/30/61 5/4/5 96/43/96
f 104/119/104 94/41/94 7/6/7 28/65/28
f 27/64/27 6/5/6 60/29/60 78/81/78
f 19/56/19 9/8/9 95/42/95 103/122/103
f 74/97/74 75/85/75 12/49/12 14/51/14
f 13/50/13 11/48/11 20/57/20 22/59/22
f 70/91/70 74/97/74 14/51/14 16/53/16
f 15/52/15 13/50/13 22/59/22 24/61/24
f 63/92/63 70/91/70 16/53/16 18/55/18
f 17/54/17 15/52/15 24/61/24 26/63/26
f 39/12/39 17/54/17 26/63/26 52/78/52
f 88/37/88 63/92/63 18/55/18 38/11/38
f 21/58/21 19/56/19 103/122/103 102/121/102
f 23/60/23 21/58/21 102/121/102 100/124/100
f 25/62/25 23/60/23 100/124/100 97/118/97
f 53/77/53 25/62/25 97/118/97 112/117/112
f 101/120/101 104/119/104 28/65/28 30/67/30
f 29/66/29 27/64/27 78/81/78 71/99/71
f 99/123/99 101/120/101 30/67/30 32/69/32
f 31/68/31 29/66/29 71/99/71 67/126/67
f 98/115/98 99/123/99 32/69/32 34/71/34
f 33/70/33 31/68/31 67/126/67 66/127/66
f 111/116/111 98/115/98 34/71/34 46/80/46
f 47/79/47 33/70/33 66/127/66 84/104/84
f 35/74/35 82/111/82 93/102/93 40/75/40
f 1/128/1 36/73/36 42/72/42 56/25/56
f 36/73/36 1/128/1 79/32/79 81/34/81 83/112/83
f 40/13/40 93/107/93 86/35/86 37/10/37
f 54/23/54 41/14/41 39/12/39 52/78/52
f 43/16/43 105/114/105 107/44/107 49/20/49
f 80/33/80 44/17/44 48/19/48 90/39/90
f 79/32/79 1/128/1 106/113/106 45/18/45
f 50/21/50 110/47/110 111/116/111 46/80/46
f 91/103/91 51/22/51 47/79/47 84/104/84
f 109/46/109 55/24/55 53/77/53 112/117/112
f 106/113/106 1/128/1 56/25/56 108/45/108
f 77/129/77 62/84/62 59/28/59 76/86/76
f 85/110/85 65/90/65 64/93/64 87/36/87
f 65/90/65 68/89/68 69/94/69 64/93/64
f 68/89/68 72/96/72 73/98/73 69/94/69
f 72/96/72 77/129/77 76/86/76 73/98/73
f 81/34/81 80/33/80 90/39/90 93/102/93 82/111/82 83/112/83
f 89/130/89 85/110/85 87/36/87 92/108/92
