# Blender 5.1.1
# www.blender.org
o sh_timber_04
v 0.007337 0.399868 -0.009222
v 0.029356 0.753521 -0.019212
v 0.029599 1.126404 -0.017170
v 0.020137 1.488112 0.010523
v -0.020687 0.416101 -0.091005
v 0.021529 0.769684 -0.104761
v 0.028804 1.120187 -0.097998
v 0.018195 1.472351 -0.086115
v -0.010529 0.024912 -0.059227
v -0.007700 0.050967 -0.071148
v 0.004439 0.019794 0.009790
v -0.014258 0.053725 0.021965
v -0.000208 1.843812 -0.046655
v -0.005206 1.830170 0.037376
v -0.094287 0.400010 -0.020587
v -0.076964 0.399549 -0.006949
v -0.046680 0.760238 -0.020115
v -0.061500 0.762339 -0.033656
v -0.022425 1.115289 -0.016345
v -0.032643 1.114296 -0.029605
v -0.017049 1.481678 0.008697
v -0.024413 1.481793 -0.005988
v -0.025793 1.487502 -0.067366
v -0.019060 1.486211 -0.082407
v -0.024477 1.120170 -0.100059
v -0.034203 1.119055 -0.087032
v -0.050147 0.767188 -0.104337
v -0.063300 0.765886 -0.090887
v -0.088599 0.404888 -0.094259
v -0.100102 0.402243 -0.080806
v 0.059132 1.490331 -0.078587
v 0.066855 1.492547 -0.063868
v 0.091006 1.123607 -0.085717
v 0.081270 1.123849 -0.098651
v 0.104421 0.768831 -0.091384
v 0.091384 0.769588 -0.105134
v 0.096669 0.402566 -0.076457
v 0.077479 0.405098 -0.089948
v 0.066723 1.487455 -0.006971
v 0.059279 1.486559 0.006991
v 0.080340 1.119898 -0.016835
v 0.090150 1.119602 -0.029829
v 0.091611 0.763116 -0.018534
v 0.103594 0.765671 -0.032227
v 0.085106 0.400144 -0.006747
v 0.099234 0.400645 -0.019569
v -0.046536 -0.000383 0.001818
v -0.049964 -0.002074 -0.008404
v -0.083438 0.050402 0.016367
v -0.097506 0.049656 0.001635
v -0.074120 0.010469 0.014039
v -0.089309 0.016819 0.002792
v -0.081739 0.008582 0.001193
v -0.047194 -0.002904 -0.046294
v -0.050758 -0.006896 -0.037708
v -0.101646 0.049160 -0.056884
v -0.087500 0.049350 -0.070650
v -0.077402 0.014641 -0.046058
v -0.085505 0.023567 -0.049111
v -0.069954 0.021301 -0.059434
v 0.046434 0.005241 0.000917
v 0.048840 0.005265 -0.009180
v 0.103515 0.047662 0.005513
v 0.086139 0.047997 0.019740
v 0.079484 0.012702 -0.000386
v 0.088190 0.019453 0.001954
v 0.072539 0.014710 0.012476
v 0.046028 0.002931 -0.046435
v 0.049415 0.001890 -0.037854
v 0.078535 0.051516 -0.067983
v 0.096504 0.050870 -0.053578
v 0.079042 0.013471 -0.047077
v 0.069373 0.017442 -0.060322
v 0.086540 0.021270 -0.049581
v -0.017562 1.892198 0.023598
v -0.015979 1.897200 0.015249
v -0.021362 1.894205 0.017071
v -0.037415 1.835069 0.026443
v -0.032078 1.832942 0.040162
v -0.032566 1.874439 0.024767
v -0.026799 1.870956 0.036397
v -0.016688 1.901388 -0.010117
v -0.018687 1.899062 -0.019153
v -0.021605 1.898694 -0.012268
v -0.032594 1.843574 -0.048443
v -0.038479 1.841927 -0.034535
v -0.028366 1.881609 -0.035573
v -0.032988 1.880500 -0.024049
v 0.011973 1.896783 0.015274
v 0.014488 1.894749 0.024127
v 0.016762 1.895308 0.017623
v 0.033875 1.838237 0.041834
v 0.040893 1.840747 0.028672
v 0.024777 1.883624 0.036507
v 0.028246 1.874212 0.039787
v 0.032842 1.877096 0.028169
v 0.028560 1.886125 0.026095
v 0.011497 1.894364 -0.010239
v 0.016535 1.891530 -0.012043
v 0.013383 1.891415 -0.019028
v 0.039255 1.844952 -0.031276
v 0.032649 1.845597 -0.045501
v 0.021929 1.881207 -0.031135
v 0.027066 1.881876 -0.020010
v 0.031075 1.874100 -0.023369
v 0.025314 1.873532 -0.035801
v -0.001951 0.000043 -0.042940
v 0.000266 -0.005565 -0.032696
v 0.003560 -0.005514 0.005853
v 0.002801 -0.009409 -0.002052
v -0.002978 1.895465 -0.019311
v -0.002109 1.897420 -0.010538
v -0.003352 1.882918 -0.033004
v -0.002925 1.874227 -0.037867
v -0.007769 1.880269 -0.036093
v -0.001544 1.888096 0.022197
v 0.004525 1.888579 0.022297
v 0.001239 1.893245 0.013319
v 0.007088 1.868667 0.034970
v -0.001852 1.854479 0.038095
vn -0.0087 0.0561 0.9984
vn -0.0066 0.0139 0.9999
vn 0.0068 -0.0421 0.9991
vn 0.0117 -0.0788 0.9968
vn 0.0173 -0.0475 -0.9987
vn 0.0069 -0.0104 -0.9999
vn 0.0131 0.0303 -0.9995
vn 0.0312 0.0660 -0.9973
vn 0.0108 -0.4404 -0.8978
vn 0.0137 -0.2042 -0.9788
vn 0.0077 -0.3289 0.9443
vn -0.0072 -0.0652 0.9978
vn 0.0382 0.2031 -0.9784
vn -0.0050 -0.0326 0.9995
vn -0.8948 0.0664 0.4414
vn -0.3604 0.0677 0.9303
vn -0.3658 0.0419 0.9298
vn -0.9067 0.0834 0.4134
vn -0.4398 -0.0135 0.8980
vn -0.9407 0.0363 0.3374
vn -0.5047 -0.0729 0.8602
vn -0.9673 -0.0274 0.2523
vn -0.9746 0.0066 -0.2237
vn -0.5138 0.0602 -0.8558
vn -0.4491 0.0455 -0.8923
vn -0.9534 0.0556 -0.2966
vn -0.3976 0.0271 -0.9172
vn -0.9392 0.0813 -0.3335
vn -0.4000 -0.0190 -0.9163
vn -0.9430 0.0305 -0.3313
vn 0.5299 0.1001 -0.8421
vn 0.9638 0.0868 -0.2520
vn 0.9495 0.0585 -0.3083
vn 0.4628 0.0520 -0.8849
vn 0.9217 0.0014 -0.3880
vn 0.3838 -0.0090 -0.9234
vn 0.8868 -0.0328 -0.4610
vn 0.3297 -0.0528 -0.9426
vn 0.9642 0.0452 0.2613
vn 0.5078 -0.0350 0.8608
vn 0.4651 -0.0074 0.8853
vn 0.9494 0.0373 0.3118
vn 0.4047 0.0160 0.9143
vn 0.9367 0.0147 0.3499
vn 0.3592 0.0508 0.9319
vn 0.9284 0.0151 0.3712
vn -0.1164 -0.7849 0.6086
vn -0.2539 -0.9595 0.1217
vn -0.3854 -0.0602 0.9208
vn -0.9015 -0.1370 0.4106
vn -0.3100 -0.5569 0.7706
vn -0.8241 -0.4696 0.3168
vn -0.5620 -0.8136 0.1488
vn -0.0929 -0.7277 -0.6796
vn -0.2569 -0.9324 -0.2544
vn -0.9024 -0.2565 -0.3461
vn -0.3828 -0.2870 -0.8781
vn -0.5614 -0.7518 -0.3459
vn -0.7314 -0.5812 -0.3568
vn -0.2513 -0.5664 -0.7849
vn 0.1884 -0.8132 0.5506
vn 0.2619 -0.9607 0.0919
vn 0.9069 -0.1986 0.3717
vn 0.3585 -0.1480 0.9217
vn 0.4589 -0.8761 0.1480
vn 0.7519 -0.5857 0.3026
vn 0.2612 -0.6420 0.7208
vn 0.0832 -0.8196 -0.5669
vn 0.2322 -0.9582 -0.1669
vn 0.3328 -0.1865 -0.9244
vn 0.8609 -0.1998 -0.4679
vn 0.4814 -0.8408 -0.2476
vn 0.2612 -0.5834 -0.7690
vn 0.7416 -0.5342 -0.4057
vn -0.1504 0.6994 0.6987
vn -0.0726 0.9426 0.3259
vn -0.6359 0.7146 0.2915
vn -0.9722 0.0435 0.2299
vn -0.5360 0.0067 0.8442
vn -0.8872 0.3603 0.2882
vn -0.4086 0.3539 0.8413
vn -0.0958 0.9953 -0.0131
vn -0.2507 0.8650 -0.4348
vn -0.6738 0.7380 -0.0366
vn -0.5464 0.1839 -0.8171
vn -0.9783 0.0823 -0.1900
vn -0.4855 0.5223 -0.7010
vn -0.9119 0.3855 -0.1405
vn 0.0175 0.9890 0.1467
vn -0.0584 0.8325 0.5510
vn 0.4579 0.8870 0.0605
vn 0.4929 0.0370 0.8693
vn 0.9626 0.1341 0.2355
vn 0.2200 0.6148 0.7574
vn 0.4035 0.3070 0.8620
vn 0.9128 0.3496 0.2109
vn 0.7305 0.6626 0.1651
vn 0.2529 0.9588 -0.1296
vn 0.5252 0.8346 -0.1664
vn 0.3287 0.8544 -0.4025
vn 0.9517 0.2014 -0.2317
vn 0.5437 0.2449 -0.8028
vn 0.4194 0.6773 -0.6045
vn 0.7387 0.6418 -0.2061
vn 0.8879 0.4036 -0.2208
vn 0.4918 0.4679 -0.7343
vn 0.0382 -0.7683 -0.6389
vn 0.0769 -0.9794 -0.1864
vn 0.0664 -0.7647 0.6410
vn 0.0755 -0.9854 0.1523
vn 0.1717 0.8594 -0.4816
vn 0.1832 0.9794 -0.0848
vn 0.1271 0.6463 -0.7524
vn 0.0740 0.3785 -0.9226
vn 0.1160 0.5076 -0.8538
vn 0.0451 0.6642 0.7462
vn -0.3404 0.6501 0.6793
vn 0.0089 0.9538 0.3003
vn -0.3071 0.3899 0.8682
vn -0.0361 0.1575 0.9869
vt 0.375000 0.022399
vt 0.375929 0.052740
vt 0.375000 0.061681
vt 0.142774 0.551864
vt 0.134210 0.540287
vt 0.149684 0.511903
vt 0.359604 0.708108
vt 0.371416 0.717105
vt 0.359259 0.752697
vt 0.361111 0.549208
vt 0.359515 0.500149
vt 0.371633 0.541463
vt 0.625000 0.785484
vt 0.625000 0.714827
vt 0.625000 0.735656
vt 0.625000 0.535243
vt 0.625000 0.461811
vt 0.625000 0.511632
vt 0.625000 0.682716
vt 0.625000 0.718897
vt 0.625000 0.685637
vt 0.625000 0.757982
vt 0.623976 0.767728
vt 0.623940 0.710623
vt 0.625000 0.705467
vt 0.625000 0.568032
vt 0.625000 0.564063
vt 0.625000 0.530064
vt 0.625000 0.491007
vt 0.625000 0.544417
vt 0.623999 0.538768
vt 0.623969 0.481798
vt 0.625000 0.406356
vt 0.624218 0.379536
vt 0.625000 0.368664
vt 0.625000 0.760521
vt 0.625000 0.746371
vt 0.625000 0.698597
vt 0.425000 0.980097
vt 0.475000 0.980097
vt 0.475045 1.000000
vt 0.425064 1.000000
vt 0.525000 0.980097
vt 0.525014 1.000000
vt 0.575000 0.980096
vt 0.575002 1.000000
vt 0.575000 0.269903
vt 0.525000 0.269903
vt 0.525000 0.210193
vt 0.575000 0.210193
vt 0.475000 0.269903
vt 0.475000 0.210193
vt 0.425000 0.269903
vt 0.425000 0.210193
vt 0.575000 0.539807
vt 0.525000 0.539807
vt 0.525000 0.480097
vt 0.575000 0.480097
vt 0.475000 0.539807
vt 0.475000 0.480097
vt 0.425000 0.539807
vt 0.425000 0.480097
vt 0.575000 0.769903
vt 0.525000 0.769903
vt 0.525000 0.710193
vt 0.575000 0.710193
vt 0.475000 0.769903
vt 0.475000 0.710193
vt 0.425000 0.769903
vt 0.425000 0.710193
vt 0.191863 0.554359
vt 0.187890 0.582669
vt 0.191190 0.693836
vt 0.153014 0.741157
vt 0.142750 0.698110
vt 0.187890 0.667331
vt 0.134210 0.700750
vt 0.380801 0.269903
vt 0.374633 0.270270
vt 0.375900 0.213083
vt 0.380801 0.210193
vt 0.380560 0.000766
vt 0.380801 0.039807
vt 0.312110 0.582669
vt 0.309656 0.555486
vt 0.250000 0.582669
vt 0.250367 0.553976
vt 0.380801 0.539807
vt 0.380801 0.480097
vt 0.309258 0.692717
vt 0.312110 0.667331
vt 0.380801 0.769903
vt 0.380801 0.710193
vt 0.250000 0.667331
vt 0.250367 0.696024
vt 0.380801 0.980097
vt 0.380893 1.000000
vt 0.625000 0.948194
vt 0.625000 0.891611
vt 0.625000 0.289045
vt 0.625000 0.306189
vt 0.618450 0.980097
vt 0.618708 0.998635
vt 0.618450 0.269904
vt 0.618450 0.210193
vt 0.625000 0.551403
vt 0.625000 0.496057
vt 0.618450 0.539807
vt 0.618450 0.480097
vt 0.618450 0.769903
vt 0.618450 0.710193
vt 0.624339 0.882375
vt 0.625000 0.822702
vt 0.425000 0.039807
vt 0.475000 0.039807
vt 0.425000 0.875000
vt 0.475000 0.875000
vt 0.380801 0.875000
vt 0.525000 0.039807
vt 0.525000 0.875000
vt 0.575000 0.039807
vt 0.575000 0.875000
vt 0.618450 0.039807
vt 0.618450 0.875000
vt 0.575000 0.375000
vt 0.525000 0.375000
vt 0.618450 0.375000
vt 0.475000 0.375000
vt 0.425000 0.375000
vt 0.380801 0.375000
vt 0.252302 0.743093
vt 0.374633 0.962776
vt 0.372698 0.863488
vt 0.252302 0.506907
vt 0.372698 0.377303
vt 0.625000 0.060605
s 1
f 51/1/51 52/2/52 53/3/53
f 58/4/58 59/5/59 60/6/60
f 65/7/65 66/8/66 67/9/67
f 72/10/72 73/11/73 74/12/74
f 75/13/75 76/14/76 77/15/77
f 82/16/82 83/17/83 84/18/84
f 89/19/89 90/20/90 91/21/91
f 94/22/94 95/23/95 96/24/96 97/25/97
f 98/26/98 99/27/99 100/28/100
f 103/29/103 104/30/104 105/31/105 106/32/106
f 113/33/113 114/34/114 115/35/115
f 116/36/116 117/37/117 118/38/118
f 16/39/16 17/40/17 18/41/18 15/42/15
f 17/40/17 19/43/19 20/44/20 18/41/18
f 19/43/19 21/45/21 22/46/22 20/44/20
f 24/47/24 25/48/25 26/49/26 23/50/23
f 25/48/25 27/51/27 28/52/28 26/49/26
f 27/51/27 29/53/29 30/54/30 28/52/28
f 32/55/32 33/56/33 34/57/34 31/58/31
f 33/56/33 35/59/35 36/60/36 34/57/34
f 35/59/35 37/61/37 38/62/38 36/60/36
f 40/63/40 41/64/41 42/65/42 39/66/39
f 41/64/41 43/67/43 44/68/44 42/65/42
f 43/67/43 45/69/45 46/70/46 44/68/44
f 60/6/60 54/71/54 55/72/55 58/4/58
f 47/73/47 51/74/51 53/75/53 48/76/48
f 52/77/52 59/5/59 58/4/58 53/75/53
f 57/78/57 60/79/60 59/80/59 56/81/56
f 51/1/51 49/82/49 50/83/50 52/2/52
f 72/10/72 69/84/69 68/85/68 73/11/73
f 108/86/108 55/72/55 54/71/54 107/87/107
f 71/88/71 74/12/74 73/11/73 70/89/70
f 67/9/67 61/90/61 62/91/62 65/7/65
f 74/12/74 66/8/66 65/7/65 72/10/72
f 64/92/64 67/9/67 66/8/66 63/93/63
f 110/94/110 62/91/62 61/90/61 109/95/109
f 49/96/49 16/39/16 15/42/15 50/97/50
f 29/53/29 57/78/57 56/81/56 30/54/30
f 63/93/63 46/70/46 45/69/45 64/92/64
f 37/61/37 71/88/71 70/89/70 38/62/38
f 81/98/81 75/13/75 77/15/77 80/99/80
f 76/14/76 82/16/82 84/18/84 77/15/77
f 83/17/83 87/100/87 88/101/88 84/18/84
f 79/102/79 81/98/81 80/99/80 78/103/78
f 87/100/87 85/104/85 86/105/86 88/101/88
f 112/106/112 98/26/98 100/28/100 111/107/111
f 99/27/99 104/30/104 103/29/103 100/28/100
f 105/31/105 101/108/101 102/109/102 106/32/106
f 98/26/98 89/19/89 91/21/91 99/27/99
f 90/20/90 94/22/94 97/25/97 91/21/91
f 96/24/96 105/31/105 104/30/104 97/25/97
f 95/23/95 92/110/92 93/111/93 96/24/96
f 118/38/118 76/14/76 75/13/75 116/36/116
f 120/112/120 95/23/95 94/22/94 119/113/119
f 39/66/39 93/111/93 92/110/92 40/63/40
f 78/103/78 22/46/22 21/45/21 79/102/79
f 85/104/85 24/47/24 23/50/23 86/105/86
f 101/108/101 32/55/32 31/58/31 102/109/102
f 69/84/69 108/86/108 107/87/107 68/85/68
f 48/76/48 110/94/110 109/95/109 47/73/47
f 82/16/82 112/106/112 111/107/111 83/17/83
f 106/32/106 114/34/114 113/33/113 103/29/103
f 89/19/89 118/38/118 117/37/117 90/20/90
f 116/36/116 120/112/120 119/113/119 117/37/117
f 15/114/15 18/115/18 28/52/28 30/54/30
f 1/116/1 2/117/2 17/40/17 16/39/16
f 50/83/50 15/114/15 30/54/30 56/81/56
f 12/118/12 1/116/1 16/39/16 49/96/49
f 18/115/18 20/119/20 26/49/26 28/52/28
f 2/117/2 3/120/3 19/43/19 17/40/17
f 20/119/20 22/121/22 23/50/23 26/49/26
f 3/120/3 4/122/4 21/45/21 19/43/19
f 22/121/22 78/123/78 86/105/86 23/50/23
f 4/122/4 14/124/14 79/102/79 21/45/21
f 25/48/25 24/47/24 8/125/8 7/126/7
f 24/47/24 85/104/85 13/127/13 8/125/8
f 27/51/27 25/48/25 7/126/7 6/128/6
f 29/53/29 27/51/27 6/128/6 5/129/5
f 57/78/57 29/53/29 5/129/5 10/130/10
f 7/126/7 8/125/8 31/58/31 34/57/34
f 33/56/33 32/55/32 39/66/39 42/65/42
f 8/125/8 13/127/13 102/109/102 31/58/31
f 32/55/32 101/108/101 93/111/93 39/66/39
f 6/128/6 7/126/7 34/57/34 36/60/36
f 35/59/35 33/56/33 42/65/42 44/68/44
f 5/129/5 6/128/6 36/60/36 38/62/38
f 37/61/37 35/59/35 44/68/44 46/70/46
f 10/130/10 5/129/5 38/62/38 70/89/70
f 71/88/71 37/61/37 46/70/46 63/93/63
f 41/64/41 40/63/40 4/122/4 3/120/3
f 40/63/40 92/110/92 14/124/14 4/122/4
f 43/67/43 41/64/41 3/120/3 2/117/2
f 45/69/45 43/67/43 2/117/2 1/116/1
f 64/92/64 45/69/45 1/116/1 12/118/12
f 55/72/55 108/86/108 110/94/110 48/76/48
f 55/72/55 48/76/48 53/75/53 58/4/58
f 47/73/47 109/95/109 11/131/11 51/74/51
f 51/132/51 11/133/11 12/118/12 49/96/49
f 59/80/59 52/2/52 50/83/50 56/81/56
f 107/87/107 54/71/54 60/6/60 9/134/9
f 9/135/9 60/79/60 57/78/57 10/130/10
f 109/95/109 61/90/61 67/9/67 11/131/11
f 62/91/62 69/84/69 72/10/72 65/7/65
f 108/86/108 69/84/69 62/91/62 110/94/110
f 11/133/11 67/9/67 64/92/64 12/118/12
f 66/8/66 74/12/74 71/88/71 63/93/63
f 68/85/68 107/87/107 9/134/9 73/11/73
f 73/11/73 9/135/9 10/130/10 70/89/70
f 116/36/116 75/13/75 81/98/81 120/112/120
f 77/15/77 84/18/84 88/101/88 80/99/80
f 76/14/76 118/38/118 112/106/112 82/16/82
f 120/112/120 81/98/81 79/102/79 14/124/14
f 80/136/80 88/101/88 86/105/86 78/123/78
f 83/17/83 111/107/111 113/33/113 115/35/115 87/100/87
f 87/100/87 115/35/115 114/34/114 13/127/13 85/104/85
f 118/38/118 89/19/89 98/26/98 112/106/112
f 99/27/99 91/21/91 97/25/97 104/30/104
f 90/20/90 117/37/117 119/113/119 94/22/94
f 95/23/95 120/112/120 14/124/14 92/110/92
f 105/31/105 96/24/96 93/111/93 101/108/101
f 111/107/111 100/28/100 103/29/103 113/33/113
f 114/34/114 106/32/106 102/109/102 13/127/13
