# Blender 5.1.1
# www.blender.org
o sh_timber_05
v 0.004081 0.433993 0.040027
v 0.023852 0.846402 0.041837
v 0.027201 1.292359 0.038452
v 0.007903 1.730433 0.045061
v -0.024989 0.449288 -0.041292
v 0.015266 0.859067 -0.043974
v 0.026433 1.276446 -0.042336
v 0.002670 1.701603 -0.050147
v -0.010529 0.024925 -0.034479
v -0.007700 0.051426 -0.044658
v 0.004439 0.020667 0.034382
v -0.014258 0.055738 0.048921
v -0.099511 0.433650 0.028368
v -0.081874 0.433704 0.042095
v -0.066289 0.855278 0.040926
v -0.083797 0.856959 0.027326
v -0.053645 1.280803 0.039701
v -0.069432 1.278614 0.026451
v -0.074179 1.725192 0.043778
v -0.090393 1.724210 0.029126
v -0.093258 1.724252 -0.032552
v -0.078547 1.720654 -0.047468
v -0.056283 1.278269 -0.044377
v -0.071472 1.278614 -0.031276
v -0.069963 0.857295 -0.043640
v -0.085667 0.856959 -0.030149
v -0.093680 0.436140 -0.045403
v -0.105329 0.433650 -0.032063
v 0.092763 1.720651 -0.044027
v 0.109749 1.724241 -0.029520
v 0.123285 1.278614 -0.030318
v 0.108166 1.278269 -0.043257
v 0.113951 0.856961 -0.030890
v 0.098464 0.857296 -0.044644
v 0.095394 0.433650 -0.027706
v 0.075721 0.436140 -0.041074
v 0.109423 1.724165 0.027611
v 0.093194 1.725148 0.041612
v 0.106387 1.280803 0.038847
v 0.121743 1.278614 0.025809
v 0.098406 0.855280 0.042314
v 0.112796 0.856961 0.028523
v 0.083518 0.433704 0.042244
v 0.097962 0.433650 0.029337
v -0.046536 0.000026 0.024959
v -0.049964 -0.001819 0.014605
v -0.083438 0.052176 0.042924
v -0.097506 0.051169 0.028062
v -0.074120 0.011197 0.037864
v -0.089309 0.017543 0.026994
v -0.081739 0.009106 0.024852
v -0.047194 -0.003126 -0.023452
v -0.050758 -0.007062 -0.015109
v -0.101646 0.049746 -0.030691
v -0.087500 0.049734 -0.044455
v -0.077402 0.014647 -0.022097
v -0.085505 0.023692 -0.024578
v -0.069954 0.021230 -0.035045
v 0.046434 0.005713 0.024424
v 0.048840 0.005600 0.014311
v 0.103515 0.049104 0.031730
v 0.086139 0.049687 0.046058
v 0.079484 0.013253 0.023524
v 0.088190 0.020180 0.026298
v 0.072539 0.015474 0.036568
v 0.046028 0.002753 -0.023217
v 0.049415 0.001807 -0.014676
v 0.078535 0.051972 -0.041636
v 0.096504 0.051513 -0.027278
v 0.079042 0.013411 -0.023243
v 0.069373 0.017270 -0.036244
v 0.086540 0.021325 -0.025250
v -0.057853 2.168097 0.021639
v -0.054680 2.172221 0.012834
v -0.060980 2.169056 0.014707
v -0.102613 2.112314 0.029836
v -0.084780 2.099646 0.043696
v -0.082901 2.150952 0.024306
v -0.072983 2.148077 0.036222
v -0.053362 2.173646 -0.013030
v -0.056450 2.170481 -0.021836
v -0.061333 2.170655 -0.014931
v -0.089764 2.103994 -0.045522
v -0.105277 2.113239 -0.031520
v -0.070984 2.155512 -0.033663
v -0.076829 2.144368 -0.037875
v -0.083787 2.152217 -0.024869
v 0.046884 2.168192 0.021827
v 0.043417 2.169721 0.012968
v 0.089461 2.100560 0.044840
v 0.104170 2.112816 0.031497
v 0.072476 2.157430 0.035185
v 0.080207 2.146261 0.039347
v 0.089481 2.149441 0.027431
v 0.079808 2.158502 0.024480
v 0.042482 2.163545 -0.012374
v 0.043950 2.159859 -0.020891
v 0.099555 2.111234 -0.028575
v 0.082069 2.101816 -0.042794
v 0.064475 2.148243 -0.031874
v 0.074304 2.149869 -0.020985
v 0.083391 2.141540 -0.023564
v 0.071308 2.138569 -0.035770
v -0.001951 -0.000100 -0.019836
v 0.000266 -0.005658 -0.009947
v 0.003560 -0.005103 0.028701
v 0.002801 -0.009165 0.020509
v -0.035196 2.168138 -0.021752
v -0.037446 2.171500 -0.012948
v -0.032069 2.167179 -0.014820
v -0.033603 2.153340 -0.033887
v -0.023312 2.147008 -0.024806
v -0.031235 2.136128 -0.037897
v -0.006124 2.066145 -0.029375
v 0.000781 2.065932 -0.029268
v -0.006809 1.967729 -0.044634
v -0.044821 2.165593 0.021668
v -0.039938 2.165419 0.014763
v -0.045482 2.171095 0.012597
v -0.022011 2.136836 0.026493
v -0.031418 2.137038 0.038051
v 0.000197 2.052982 0.027477
v 0.008106 1.960540 0.044872
v 0.007800 2.053137 0.027566
v 0.035590 2.144209 0.035542
v 0.025737 2.137811 0.027054
v 0.034423 2.124747 0.039357
v 0.026385 2.165249 -0.012664
v 0.026239 2.161807 -0.021215
v 0.022814 2.162403 -0.014536
v 0.028680 2.168088 0.012131
v 0.025865 2.163007 0.014374
v 0.030423 2.164103 0.021260
v 0.025679 2.133751 -0.037021
v 0.020055 2.145672 -0.024132
v 0.027909 2.149913 -0.033020
vn -0.0077 0.0069 0.9999
vn -0.0040 0.0024 1.0000
vn 0.0044 -0.0030 1.0000
vn 0.0072 -0.0065 1.0000
vn 0.0164 -0.0007 -0.9999
vn 0.0051 -0.0015 -1.0000
vn 0.0067 -0.0040 -1.0000
vn 0.0146 -0.0012 -0.9999
vn 0.0114 -0.3875 -0.9218
vn 0.0138 -0.1413 -0.9899
vn 0.0080 -0.3759 0.9266
vn -0.0073 -0.1260 0.9920
vn -0.8907 0.0160 0.4543
vn -0.3488 0.0101 0.9371
vn -0.3257 0.0136 0.9454
vn -0.8885 0.0335 0.4576
vn -0.3342 -0.0062 0.9425
vn -0.8960 -0.0068 0.4440
vn -0.3510 -0.0182 0.9362
vn -0.8988 -0.0370 0.4367
vn -0.9273 -0.0363 -0.3727
vn -0.3743 -0.0150 -0.9272
vn -0.3492 -0.0078 -0.9370
vn -0.9194 -0.0090 -0.3932
vn -0.3525 0.0150 -0.9357
vn -0.9252 0.0373 -0.3777
vn -0.3815 0.0095 -0.9243
vn -0.9395 0.0157 -0.3421
vn 0.3566 0.0122 -0.9342
vn 0.9034 0.0247 -0.4282
vn 0.9143 0.0043 -0.4050
vn 0.3591 0.0009 -0.9333
vn 0.9046 -0.0305 -0.4252
vn 0.3355 -0.0141 -0.9419
vn 0.8826 -0.0171 -0.4699
vn 0.3156 -0.0094 -0.9488
vn 0.9119 0.0180 0.4099
vn 0.3587 -0.0001 0.9334
vn 0.3601 0.0022 0.9329
vn 0.9088 0.0034 0.4171
vn 0.3584 -0.0068 0.9335
vn 0.9137 -0.0249 0.4057
vn 0.3490 0.0014 0.9371
vn 0.9210 -0.0114 0.3893
vn -0.1155 -0.7946 0.5961
vn -0.2562 -0.9576 0.1320
vn -0.3821 -0.1178 0.9166
vn -0.8969 -0.1627 0.4112
vn -0.3071 -0.5784 0.7558
vn -0.8205 -0.4782 0.3131
vn -0.5639 -0.8119 0.1514
vn -0.0935 -0.7061 -0.7019
vn -0.2631 -0.9297 -0.2578
vn -0.9047 -0.2406 -0.3516
vn -0.3851 -0.2411 -0.8908
vn -0.5751 -0.7401 -0.3486
vn -0.7433 -0.5623 -0.3623
vn -0.2603 -0.5283 -0.8082
vn 0.1853 -0.8202 0.5413
vn 0.2635 -0.9590 0.1048
vn 0.9044 -0.2139 0.3692
vn 0.3556 -0.1952 0.9140
vn 0.4616 -0.8734 0.1552
vn 0.7514 -0.5886 0.2984
vn 0.2589 -0.6584 0.7067
vn 0.0838 -0.8075 -0.5839
vn 0.2369 -0.9580 -0.1617
vn 0.3343 -0.1278 -0.9338
vn 0.8651 -0.1698 -0.4720
vn 0.4926 -0.8339 -0.2489
vn 0.2684 -0.5523 -0.7893
vn 0.7543 -0.5108 -0.4125
vn -0.1380 0.7769 0.6143
vn -0.1029 0.9683 0.2275
vn -0.4900 0.8462 0.2093
vn -0.8687 0.2244 0.4415
vn -0.3287 0.0853 0.9406
vn -0.6997 0.6102 0.3715
vn -0.2553 0.4424 0.8597
vn -0.0925 0.9886 -0.1191
vn -0.1477 0.8346 -0.5307
vn -0.4862 0.8632 -0.1361
vn -0.3503 0.1129 -0.9298
vn -0.8952 0.2424 -0.3740
vn -0.2733 0.5973 -0.7540
vn -0.2854 0.3263 -0.9011
vn -0.7171 0.6259 -0.3065
vn -0.0038 0.8617 0.5074
vn 0.0874 0.9958 0.0273
vn 0.3359 0.0758 0.9389
vn 0.9015 0.2192 0.3731
vn 0.1910 0.6857 0.7024
vn 0.3086 0.3438 0.8869
vn 0.7751 0.5708 0.2711
vn 0.5164 0.8513 0.0930
vn 0.1849 0.9415 -0.2818
vn 0.1618 0.8457 -0.5086
vn 0.8574 0.2343 -0.4582
vn 0.3200 0.1191 -0.9399
vn 0.2362 0.6473 -0.7247
vn 0.4852 0.7949 -0.3643
vn 0.7074 0.5505 -0.4434
vn 0.2818 0.3678 -0.8862
vn 0.0395 -0.7511 -0.6590
vn 0.0785 -0.9802 -0.1818
vn 0.0652 -0.7759 0.6274
vn 0.0762 -0.9838 0.1620
vn 0.4243 0.7374 -0.5256
vn 0.3980 0.9162 -0.0464
vn 0.7728 0.6326 -0.0501
vn 0.4078 0.4538 -0.7923
vn 0.8778 0.3537 -0.3230
vn 0.3834 0.1736 -0.9071
vn 0.6533 0.4435 -0.6135
vn -0.6800 0.5147 -0.5221
vn 0.0177 0.0298 -0.9994
vn 0.3520 0.6906 0.6317
vn 0.7118 0.6304 0.3096
vn 0.3595 0.8896 0.2819
vn 0.8583 0.3769 0.3481
vn 0.4164 0.3366 0.8446
vn 0.5875 0.4848 0.6480
vn 0.0024 0.0191 0.9998
vn -0.5745 0.4124 0.7070
vn -0.4239 0.3300 0.8434
vn -0.8686 0.1947 0.4556
vn -0.3971 0.1405 0.9070
vn -0.3514 0.9151 -0.1976
vn -0.3641 0.7466 -0.5567
vn -0.8615 0.4868 -0.1441
vn -0.4445 0.8884 0.1146
vn -0.8819 0.3762 0.2842
vn -0.4931 0.6182 0.6121
vn -0.3981 0.2008 -0.8951
vn -0.9268 0.2516 -0.2790
vn -0.3636 0.4889 -0.7929
vt 0.375000 0.022225
vt 0.375932 0.052669
vt 0.375000 0.062177
vt 0.142780 0.551823
vt 0.134210 0.541282
vt 0.149748 0.511968
vt 0.359567 0.708068
vt 0.371440 0.717190
vt 0.359260 0.752697
vt 0.361109 0.549186
vt 0.359450 0.500214
vt 0.371634 0.541906
vt 0.625000 0.788795
vt 0.625000 0.717152
vt 0.625000 0.735990
vt 0.625000 0.534460
vt 0.625000 0.459756
vt 0.625000 0.511499
vt 0.625000 0.310967
vt 0.624010 0.282350
vt 0.625000 0.299152
vt 0.625000 0.752284
vt 0.623943 0.762255
vt 0.623942 0.710686
vt 0.625000 0.705246
vt 0.625000 0.495881
vt 0.625000 0.544916
vt 0.623984 0.538945
vt 0.624028 0.486390
vt 0.625000 0.484405
vt 0.625000 0.543546
vt 0.625000 0.522331
vt 0.625000 0.371079
vt 0.625000 0.413438
vt 0.624138 0.348329
vt 0.619486 0.453480
vt 0.619486 0.458306
vt 0.609295 0.363707
vt 0.625000 0.776148
vt 0.625000 0.751319
vt 0.625000 0.725332
vt 0.619494 0.792525
vt 0.610559 0.893992
vt 0.619495 0.789075
vt 0.625000 0.792677
vt 0.625000 0.775823
vt 0.624124 0.814717
vt 0.625000 0.556061
vt 0.625000 0.517977
vt 0.625000 0.538714
vt 0.625000 0.688949
vt 0.625000 0.708812
vt 0.625000 0.728133
vt 0.623927 0.424757
vt 0.625000 0.475030
vt 0.625000 0.445703
vt 0.425036 0.000000
vt 0.474936 0.000000
vt 0.475000 0.039807
vt 0.425000 0.039807
vt 0.525082 0.000000
vt 0.525000 0.039807
vt 0.575000 0.000000
vt 0.575000 0.039807
vt 0.575000 0.269903
vt 0.525000 0.269903
vt 0.525000 0.210193
vt 0.575000 0.210193
vt 0.475000 0.269903
vt 0.475000 0.210193
vt 0.425000 0.269903
vt 0.425000 0.210193
vt 0.575000 0.539807
vt 0.525000 0.539807
vt 0.525000 0.480097
vt 0.575000 0.480097
vt 0.475000 0.539807
vt 0.475000 0.480097
vt 0.425000 0.539807
vt 0.425000 0.480097
vt 0.575000 0.769903
vt 0.525000 0.769903
vt 0.525000 0.710193
vt 0.575000 0.710193
vt 0.475000 0.769903
vt 0.475000 0.710193
vt 0.425000 0.769903
vt 0.425000 0.710193
vt 0.191869 0.554340
vt 0.187890 0.582669
vt 0.191179 0.693952
vt 0.153014 0.741157
vt 0.142753 0.698108
vt 0.187890 0.667331
vt 0.134210 0.702106
vt 0.380801 0.269903
vt 0.374633 0.270270
vt 0.375901 0.213077
vt 0.380801 0.210193
vt 0.380732 0.000334
vt 0.380801 0.039807
vt 0.312110 0.582669
vt 0.309652 0.555510
vt 0.250000 0.582669
vt 0.250367 0.553976
vt 0.380801 0.539807
vt 0.380801 0.480097
vt 0.309282 0.692846
vt 0.312110 0.667331
vt 0.380801 0.769903
vt 0.380801 0.710193
vt 0.250000 0.667331
vt 0.250367 0.696024
vt 0.625000 0.948194
vt 0.625000 0.891611
vt 0.618450 0.980097
vt 0.618648 0.998955
vt 0.618450 0.269903
vt 0.618450 0.210193
vt 0.625000 0.570260
vt 0.625000 0.533225
vt 0.618450 0.539807
vt 0.618450 0.480096
vt 0.625000 0.715663
vt 0.625000 0.679740
vt 0.618450 0.769904
vt 0.618450 0.710193
vt 0.575001 1.000000
vt 0.575000 0.980097
vt 0.625000 0.874813
vt 0.625000 0.799865
vt 0.425000 0.875000
vt 0.475000 0.875000
vt 0.475000 0.980097
vt 0.425000 0.980096
vt 0.380801 0.875000
vt 0.380801 0.980097
vt 0.525000 0.875000
vt 0.525000 0.980097
vt 0.575000 0.875000
vt 0.618450 0.039807
vt 0.575000 0.375000
vt 0.525000 0.375000
vt 0.475000 0.375000
vt 0.425000 0.375000
vt 0.380801 0.375000
vt 0.252302 0.743093
vt 0.374633 0.962776
vt 0.372698 0.863488
vt 0.252302 0.506907
vt 0.372698 0.377303
vt 0.625000 0.060604
vt 0.000000 0.000000
s 1
f 49/1/49 50/2/50 51/3/51
f 56/4/56 57/5/57 58/6/58
f 63/7/63 64/8/64 65/9/65
f 70/10/70 71/11/71 72/12/72
f 73/13/73 74/14/74 75/15/75
f 80/16/80 81/17/81 82/18/82
f 85/19/85 86/20/86 87/21/87
f 92/22/92 93/23/93 94/24/94 95/25/95
f 100/26/100 101/27/101 102/28/102 103/29/103
f 108/30/108 109/31/109 110/32/110
f 111/33/111 112/34/112 113/35/113
f 114/36/114 115/37/115 116/38/116
f 117/39/117 118/40/118 119/41/119
f 122/42/122 123/43/123 124/44/124
f 125/45/125 126/46/126 127/47/127
f 128/48/128 129/49/129 130/50/130
f 131/51/131 132/52/132 133/53/133
f 134/54/134 135/55/135 136/56/136
f 14/57/14 15/58/15 16/59/16 13/60/13
f 15/58/15 17/61/17 18/62/18 16/59/16
f 17/61/17 19/63/19 20/64/20 18/62/18
f 22/65/22 23/66/23 24/67/24 21/68/21
f 23/66/23 25/69/25 26/70/26 24/67/24
f 25/69/25 27/71/27 28/72/28 26/70/26
f 30/73/30 31/74/31 32/75/32 29/76/29
f 31/74/31 33/77/33 34/78/34 32/75/32
f 33/77/33 35/79/35 36/80/36 34/78/34
f 38/81/38 39/82/39 40/83/40 37/84/37
f 39/82/39 41/85/41 42/86/42 40/83/40
f 41/85/41 43/87/43 44/88/44 42/86/42
f 58/6/58 52/89/52 53/90/53 56/4/56
f 45/91/45 49/92/49 51/93/51 46/94/46
f 50/95/50 57/5/57 56/4/56 51/93/51
f 55/96/55 58/97/58 57/98/57 54/99/54
f 49/1/49 47/100/47 48/101/48 50/2/50
f 70/10/70 67/102/67 66/103/66 71/11/71
f 105/104/105 53/90/53 52/89/52 104/105/104
f 69/106/69 72/12/72 71/11/71 68/107/68
f 65/9/65 59/108/59 60/109/60 63/7/63
f 72/12/72 64/8/64 63/7/63 70/10/70
f 62/110/62 65/9/65 64/8/64 61/111/61
f 107/112/107 60/109/60 59/108/59 106/113/106
f 47/100/47 14/57/14 13/60/13 48/101/48
f 27/71/27 55/96/55 54/99/54 28/72/28
f 61/111/61 44/88/44 43/87/43 62/110/62
f 35/79/35 69/106/69 68/107/68 36/80/36
f 79/114/79 73/13/73 75/15/75 78/115/78
f 74/14/74 80/16/80 82/18/82 75/15/75
f 81/17/81 85/19/85 87/21/87 82/18/82
f 77/116/77 79/114/79 78/115/78 76/117/76
f 86/20/86 83/118/83 84/119/84 87/21/87
f 128/48/128 96/120/96 97/121/97 129/49/129
f 96/120/96 101/27/101 100/26/100 97/121/97
f 113/35/113 86/20/86 85/19/85 111/33/111
f 102/28/102 98/122/98 99/123/99 103/29/103
f 88/124/88 92/22/92 95/25/95 89/125/89
f 94/24/94 102/28/102 101/27/101 95/25/95
f 93/23/93 90/126/90 91/127/91 94/24/94
f 119/41/119 74/14/74 73/13/73 117/39/117
f 127/47/127 93/23/93 92/22/92 125/45/125
f 37/84/37 91/127/91 90/126/90 38/81/38
f 76/117/76 20/128/20 19/129/19 77/116/77
f 83/118/83 22/65/22 21/68/21 84/119/84
f 98/122/98 30/73/30 29/76/29 99/123/99
f 67/102/67 105/104/105 104/105/104 66/103/66
f 46/94/46 107/112/107 106/113/106 45/91/45
f 80/16/80 109/31/109 108/30/108 81/17/81
f 118/40/118 110/32/110 109/31/109 119/41/119
f 121/130/121 123/43/123 122/42/122 120/131/120
f 117/39/117 121/130/121 120/131/120 118/40/118
f 112/34/112 114/36/114 116/38/116 113/35/113
f 110/32/110 112/34/112 111/33/111 108/30/108
f 89/125/89 131/51/131 133/53/133 88/124/88
f 103/29/103 134/54/134 136/56/136 100/26/100
f 129/49/129 136/56/136 135/55/135 130/50/130
f 123/43/123 127/47/127 126/46/126 124/44/124
f 134/54/134 116/38/116 115/37/115 135/55/135
f 125/45/125 133/53/133 132/52/132 126/46/126
f 131/51/131 128/48/128 130/50/130 132/52/132
f 124/44/124 115/37/115 114/36/114 122/42/122
f 13/60/13 16/59/16 26/70/26 28/72/28
f 1/132/1 2/133/2 15/134/15 14/135/14
f 48/101/48 13/60/13 28/72/28 54/99/54
f 12/136/12 1/132/1 14/135/14 47/137/47
f 16/59/16 18/62/18 24/67/24 26/70/26
f 2/133/2 3/138/3 17/139/17 15/134/15
f 18/62/18 20/64/20 21/68/21 24/67/24
f 3/138/3 4/140/4 19/129/19 17/139/17
f 20/64/20 76/141/76 84/119/84 21/68/21
f 4/140/4 123/43/123 77/116/77 19/129/19
f 23/66/23 22/65/22 8/142/8 7/143/7
f 22/65/22 83/118/83 116/38/116 8/142/8
f 25/69/25 23/66/23 7/143/7 6/144/6
f 27/71/27 25/69/25 6/144/6 5/145/5
f 55/96/55 27/71/27 5/145/5 10/146/10
f 7/143/7 8/142/8 29/76/29 32/75/32
f 31/74/31 30/73/30 37/84/37 40/83/40
f 8/142/8 116/38/116 99/123/99 29/76/29
f 30/73/30 98/122/98 91/127/91 37/84/37
f 6/144/6 7/143/7 32/75/32 34/78/34
f 33/77/33 31/74/31 40/83/40 42/86/42
f 5/145/5 6/144/6 34/78/34 36/80/36
f 35/79/35 33/77/33 42/86/42 44/88/44
f 10/146/10 5/145/5 36/80/36 68/107/68
f 69/106/69 35/79/35 44/88/44 61/111/61
f 39/82/39 38/81/38 4/140/4 3/138/3
f 38/81/38 90/126/90 123/43/123 4/140/4
f 41/85/41 39/82/39 3/138/3 2/133/2
f 43/87/43 41/85/41 2/133/2 1/132/1
f 62/110/62 43/87/43 1/132/1 12/136/12
f 53/90/53 105/104/105 107/112/107 46/94/46
f 53/90/53 46/94/46 51/93/51 56/4/56
f 45/91/45 106/113/106 11/147/11 49/92/49
f 49/148/49 11/149/11 12/136/12 47/137/47
f 57/98/57 50/2/50 48/101/48 54/99/54
f 104/105/104 52/89/52 58/6/58 9/150/9
f 9/151/9 58/97/58 55/96/55 10/146/10
f 106/113/106 59/108/59 65/9/65 11/147/11
f 60/109/60 67/102/67 70/10/70 63/7/63
f 105/104/105 67/102/67 60/109/60 107/112/107
f 11/149/11 65/9/65 62/110/62 12/136/12
f 64/8/64 72/12/72 69/106/69 61/111/61
f 66/103/66 104/105/104 9/150/9 71/11/71
f 71/11/71 9/151/9 10/146/10 68/107/68
f 117/39/117 73/13/73 79/114/79 121/130/121
f 75/15/75 82/18/82 87/21/87 78/115/78
f 74/14/74 119/41/119 109/31/109 80/16/80
f 121/130/121 79/114/79 77/116/77 123/43/123
f 78/152/78 87/21/87 84/119/84 76/141/76
f 81/17/81 108/30/108 111/33/111 85/19/85
f 86/20/86 113/35/113 116/38/116 83/118/83
f 128/48/128 131/51/131 89/125/89 96/120/96
f 96/120/96 89/125/89 95/25/95 101/27/101
f 88/124/88 133/53/133 125/45/125 92/22/92
f 93/23/93 127/47/127 123/43/123 90/126/90
f 102/28/102 94/24/94 91/127/91 98/122/98
f 136/56/136 129/49/129 97/121/97 100/26/100
f 116/38/116 134/54/134 103/29/103 99/123/99
f 118/153/118 120/153/120 112/153/112 110/153/110
f 114/36/114 112/34/112 120/131/120 122/42/122
f 124/44/124 126/46/126 135/55/135 115/37/115
f 130/153/130 135/153/135 126/153/126 132/153/132
