# Blender 5.1.1
# www.blender.org
o sh_timber_01
v -0.049688 0.000000 0.049688
v -0.049688 0.000000 -0.049688
v -0.057065 2.110701 0.091524
v -0.092440 2.111051 0.056148
v -0.077849 2.119205 -0.113784
v -0.109887 2.117716 -0.081747
v 0.076907 2.115867 0.105047
v 0.108944 2.117357 0.073010
v 0.112103 2.118563 -0.077644
v 0.076727 2.118913 -0.113019
v -0.024469 2.315140 0.015585
v -0.015731 2.315084 0.024323
v -0.007904 2.353791 0.007904
v -0.027247 2.316201 -0.019661
v -0.007904 2.353791 -0.007904
v -0.019041 2.316438 -0.027868
v 0.018862 2.316392 -0.027746
v 0.007904 2.353791 -0.007904
v 0.027600 2.316336 -0.019008
v 0.027097 2.316144 0.018270
v 0.007904 2.353791 0.007904
v 0.018891 2.315907 0.026476
v -0.101956 0.433650 0.069529
v -0.067746 0.433650 0.103740
v -0.067443 0.892739 0.082681
v -0.100052 0.888688 0.050666
v -0.073512 1.326389 0.092927
v -0.105069 1.322338 0.061964
v -0.090911 1.734599 0.058902
v -0.057363 1.734599 0.092450
v -0.067650 1.734599 -0.101369
v -0.098696 1.734599 -0.070324
v -0.061412 1.300949 -0.097729
v -0.096615 1.305000 -0.064982
v -0.079255 0.867299 -0.113057
v -0.111655 0.871350 -0.083112
v -0.069723 0.433650 -0.101502
v -0.101851 0.433650 -0.069374
v 0.106568 1.734599 -0.071482
v 0.073020 1.734599 -0.105029
v 0.112370 1.305000 -0.079989
v 0.080813 1.300949 -0.110952
v 0.103641 0.871350 -0.075438
v 0.071032 0.867299 -0.107453
v 0.101901 0.433650 -0.065907
v 0.067690 0.433650 -0.100117
v 0.078447 1.734599 0.106819
v 0.109493 1.734599 0.075773
v 0.070014 1.326389 0.098513
v 0.105217 1.322338 0.065766
v 0.060528 0.892739 0.085937
v 0.092928 0.888688 0.055992
v 0.078791 0.433650 0.111268
v 0.110919 0.433650 0.079139
v -0.069516 0.049748 0.098446
v -0.100000 0.050312 0.068154
v -0.093655 0.017900 0.052810
v -0.086788 0.009415 0.071392
v -0.067116 0.017336 0.079156
v -0.100000 0.050312 -0.068154
v -0.068154 0.050312 -0.100000
v -0.088755 0.019927 -0.061017
v -0.059710 0.020401 -0.087610
v -0.079599 0.012390 -0.079599
v 0.042499 -0.002974 0.025658
v 0.026676 -0.002974 0.041481
v 0.092811 0.047337 0.059947
v 0.060966 0.047337 0.091793
v 0.045917 0.008942 0.070086
v 0.072411 0.009415 0.046043
v 0.080422 0.017426 0.051503
v 0.051377 0.016953 0.078097
v 0.033865 0.000000 -0.049688
v 0.048327 -0.000563 -0.035419
v 0.068154 0.050312 -0.100000
v 0.098639 0.049748 -0.069709
v 0.078238 0.011826 -0.055805
v 0.054251 0.012390 -0.079599
v 0.059710 0.020401 -0.087610
v 0.086249 0.019837 -0.061265
vn -0.1097 -0.9806 0.1625
vn -0.1229 -0.9795 -0.1595
vn -0.4261 0.1759 0.8874
vn -0.8867 0.1733 0.4287
vn -0.3881 0.2092 -0.8976
vn -0.9199 0.1991 -0.3379
vn 0.3362 0.2077 0.9186
vn 0.8961 0.2167 0.3873
vn 0.9007 0.2131 -0.3786
vn 0.3812 0.2110 -0.9001
vn -0.8298 0.3971 0.3921
vn -0.3813 0.3935 0.8365
vn -0.4498 0.7667 0.4581
vn -0.8420 0.4640 -0.2752
vn -0.4390 0.8041 -0.4008
vn -0.3297 0.4851 -0.8099
vn 0.3300 0.4818 -0.8117
vn 0.4246 0.8042 -0.4160
vn 0.8190 0.4774 -0.3183
vn 0.8151 0.4662 0.3439
vn 0.4088 0.7958 0.4467
vn 0.2902 0.4460 0.8467
vn -0.9176 0.0040 0.3975
vn -0.3885 0.0117 0.9214
vn -0.3972 0.0070 0.9177
vn -0.9201 0.0038 0.3916
vn -0.4072 -0.0072 0.9133
vn -0.9211 0.0066 0.3892
vn -0.9139 0.0084 0.4059
vn -0.4182 0.0071 0.9083
vn -0.3939 -0.0218 -0.9189
vn -0.9309 -0.0155 -0.3651
vn -0.3846 0.0158 -0.9230
vn -0.9204 0.0167 -0.3905
vn -0.3734 0.0015 -0.9277
vn -0.9210 0.0070 -0.3895
vn -0.3707 -0.0178 -0.9286
vn -0.9271 -0.0147 -0.3746
vn 0.9258 -0.0010 -0.3779
vn 0.3638 -0.0065 -0.9315
vn 0.9299 -0.0057 -0.3677
vn 0.3634 0.0040 -0.9316
vn 0.9283 -0.0117 -0.3715
vn 0.3777 -0.0124 -0.9258
vn 0.9241 -0.0070 -0.3820
vn 0.3881 -0.0110 -0.9216
vn 0.3391 -0.0068 0.9407
vn 0.9193 -0.0070 0.3935
vn 0.3441 -0.0260 0.9386
vn 0.9103 -0.0227 0.4134
vn 0.3490 0.0130 0.9370
vn 0.9125 0.0069 0.4090
vn 0.3736 0.0040 0.9276
vn 0.9201 -0.0030 0.3917
vn -0.3560 -0.2416 0.9027
vn -0.8948 -0.1938 0.4022
vn -0.8731 -0.4523 0.1818
vn -0.6914 -0.3267 0.6444
vn -0.2438 -0.5197 0.8188
vn -0.9032 -0.1832 -0.3883
vn -0.3765 -0.2103 -0.9022
vn -0.8464 -0.4620 -0.2649
vn -0.2190 -0.4982 -0.8389
vn -0.6421 -0.3201 -0.6966
vn 0.1863 -0.9807 0.0598
vn 0.0598 -0.9801 0.1893
vn 0.8906 -0.2470 0.3819
vn 0.3766 -0.2684 0.8867
vn 0.1832 -0.8471 0.4989
vn 0.4902 -0.8480 0.2015
vn 0.7350 -0.5958 0.3238
vn 0.2967 -0.6182 0.7279
vn 0.0545 -0.9759 -0.2111
vn 0.1951 -0.9777 -0.0778
vn 0.3807 -0.2146 -0.8995
vn 0.8973 -0.2226 -0.3811
vn 0.4945 -0.8489 -0.1868
vn 0.1811 -0.8459 -0.5016
vn 0.2988 -0.5905 -0.7497
vn 0.7486 -0.5944 -0.2937
vt 0.625000 0.037219
vt 0.625000 0.000000
vt 0.625000 0.039807
vt 0.625000 0.214534
vt 0.625000 0.236731
vt 0.625000 0.276742
vt 0.625000 0.473191
vt 0.644903 0.519903
vt 0.625000 0.535680
vt 0.625000 0.722973
vt 0.644903 0.750000
vt 0.625000 0.785856
vt 0.134210 0.707986
vt 0.142757 0.732243
vt 0.162646 0.731203
vt 0.375922 0.212957
vt 0.375236 0.276665
vt 0.375000 0.242226
vt 0.326352 0.735590
vt 0.356953 0.705346
vt 0.368299 0.713890
vt 0.353951 0.764303
vt 0.361047 0.549379
vt 0.330172 0.519146
vt 0.358725 0.488346
vt 0.371635 0.541616
vt 0.575000 0.960193
vt 0.625000 0.960193
vt 0.625000 1.000000
vt 0.575007 1.000000
vt 0.625000 0.962844
vt 0.625000 0.039807
vt 0.625000 0.289807
vt 0.625000 0.210193
vt 0.625000 0.710193
vt 0.625000 0.789807
vt 0.625000 0.539807
vt 0.625000 0.460193
vt 0.425029 0.000000
vt 0.475000 0.000000
vt 0.475000 0.039807
vt 0.425000 0.039807
vt 0.525048 0.000000
vt 0.525000 0.039807
vt 0.575000 0.000000
vt 0.575000 0.039807
vt 0.575000 0.289807
vt 0.575000 0.210193
vt 0.525000 0.289807
vt 0.525000 0.210193
vt 0.475000 0.289807
vt 0.475000 0.210193
vt 0.425000 0.289807
vt 0.425000 0.210193
vt 0.575000 0.539807
vt 0.575000 0.460193
vt 0.525000 0.539807
vt 0.525000 0.460193
vt 0.475000 0.539807
vt 0.475000 0.460193
vt 0.425000 0.539807
vt 0.425000 0.460193
vt 0.575000 0.789807
vt 0.575000 0.710193
vt 0.525000 0.789807
vt 0.525000 0.710193
vt 0.475000 0.789807
vt 0.475000 0.710193
vt 0.425000 0.789807
vt 0.425000 0.710193
vt 0.134210 0.544124
vt 0.142757 0.517757
vt 0.380801 0.289807
vt 0.380801 0.210193
vt 0.375440 0.017023
vt 0.380136 0.002113
vt 0.380801 0.039807
vt 0.375926 0.052328
vt 0.312110 0.582669
vt 0.292331 0.562890
vt 0.169602 0.508520
vt 0.380801 0.539807
vt 0.380801 0.460193
vt 0.292331 0.687110
vt 0.312110 0.667331
vt 0.380801 0.789807
vt 0.380801 0.710193
vt 0.380801 0.960193
vt 0.425000 0.960193
vt 0.424981 1.000000
vt 0.380801 1.000000
vt 0.835193 0.539807
vt 0.835193 0.710193
vt 0.475000 0.960193
vt 0.525000 0.960193
vt 0.375346 0.946663
vt 0.187890 0.687110
vt 0.187890 0.562890
s 1
f 11/1/11 12/2/12 13/3/13
f 14/4/14 15/5/15 16/6/16
f 17/7/17 18/8/18 19/9/19
f 20/10/20 21/11/21 22/12/22
f 57/13/57 58/14/58 59/15/59
f 62/16/62 63/17/63 64/18/64
f 69/19/69 70/20/70 71/21/71 72/22/72
f 77/23/77 78/24/78 79/25/79 80/26/80
f 30/27/30 3/28/3 4/29/4 29/30/29
f 13/3/13 15/5/15 14/4/14 11/1/11
f 15/5/15 18/8/18 17/7/17 16/6/16
f 18/8/18 21/11/21 20/10/20 19/9/19
f 21/11/21 13/28/13 12/31/12 22/12/22
f 3/2/3 12/2/12 11/1/11 4/32/4
f 16/6/16 5/33/5 6/34/6 14/4/14
f 8/35/8 20/10/20 22/12/22 7/36/7
f 19/9/19 9/37/9 10/38/10 17/7/17
f 24/39/24 25/40/25 26/41/26 23/42/23
f 25/40/25 27/43/27 28/44/28 26/41/26
f 27/43/27 30/45/30 29/46/29 28/44/28
f 5/33/5 31/47/31 32/48/32 6/34/6
f 31/47/31 33/49/33 34/50/34 32/48/32
f 33/49/33 35/51/35 36/52/36 34/50/34
f 35/51/35 37/53/37 38/54/38 36/52/36
f 9/37/9 39/55/39 40/56/40 10/38/10
f 39/55/39 41/57/41 42/58/42 40/56/40
f 41/57/41 43/59/43 44/60/44 42/58/42
f 43/59/43 45/61/45 46/62/46 44/60/44
f 7/36/7 47/63/47 48/64/48 8/35/8
f 47/63/47 49/65/49 50/66/50 48/64/48
f 49/65/49 51/67/51 52/68/52 50/66/50
f 51/67/51 53/69/53 54/70/54 52/68/52
f 57/13/57 62/71/62 64/72/64 58/14/58
f 61/73/61 63/17/63 62/16/62 60/74/60
f 59/75/59 55/76/55 56/77/56 57/78/57
f 77/23/77 74/79/74 73/80/73 78/24/78
f 63/81/63 79/25/79 78/24/78 64/72/64
f 76/82/76 80/26/80 79/25/79 75/83/75
f 69/19/69 66/84/66 65/85/65 70/20/70
f 80/26/80 71/21/71 70/20/70 77/23/77
f 68/86/68 72/22/72 71/21/71 67/87/67
f 72/22/72 59/15/59 58/14/58 69/19/69
f 55/88/55 24/89/24 23/90/23 56/91/56
f 37/53/37 61/73/61 60/74/60 38/54/38
f 67/87/67 54/70/54 53/69/53 68/86/68
f 45/61/45 76/82/76 75/83/75 46/62/46
f 47/63/47 7/36/7 3/28/3 30/27/30
f 29/46/29 4/32/4 6/34/6 32/48/32
f 3/28/3 7/36/7 22/12/22 12/31/12
f 6/34/6 4/32/4 11/1/11 14/4/14
f 31/47/31 5/33/5 10/38/10 40/56/40
f 10/38/10 5/33/5 16/6/16 17/7/17
f 8/35/8 9/37/9 19/9/19 20/10/20
f 39/55/39 9/37/9 8/35/8 48/64/48
f 18/8/18 15/92/15 13/93/13 21/11/21
f 23/42/23 26/41/26 36/52/36 38/54/38
f 53/69/53 51/67/51 25/94/25 24/89/24
f 56/77/56 23/42/23 38/54/38 60/74/60
f 68/86/68 53/69/53 24/89/24 55/88/55
f 26/41/26 28/44/28 34/50/34 36/52/36
f 51/67/51 49/65/49 27/95/27 25/94/25
f 28/44/28 29/46/29 32/48/32 34/50/34
f 49/65/49 47/63/47 30/27/30 27/95/27
f 33/49/33 31/47/31 40/56/40 42/58/42
f 35/51/35 33/49/33 42/58/42 44/60/44
f 37/53/37 35/51/35 44/60/44 46/62/46
f 61/73/61 37/53/37 46/62/46 75/83/75
f 41/57/41 39/55/39 48/64/48 50/66/50
f 43/59/43 41/57/41 50/66/50 52/68/52
f 45/61/45 43/59/43 52/68/52 54/70/54
f 76/82/76 45/61/45 54/70/54 67/87/67
f 59/96/59 72/22/72 68/86/68 55/88/55
f 62/16/62 57/78/57 56/77/56 60/74/60
f 1/97/1 66/84/66 69/19/69 58/14/58
f 2/98/2 1/97/1 58/14/58 64/72/64
f 79/25/79 63/17/63 61/73/61 75/83/75
f 73/80/73 2/98/2 64/72/64 78/24/78
f 65/85/65 74/79/74 77/23/77 70/20/70
f 2/98/2 73/80/73 74/79/74 65/85/65 66/84/66 1/97/1
f 71/21/71 80/26/80 76/82/76 67/87/67
