# Blender 5.1.1
# www.blender.org
o sh_timber_02
v -0.075323 1.514604 0.052684
v -0.049794 1.515103 0.078213
v -0.047886 1.513971 -0.071653
v -0.071890 1.514012 -0.047648
v 0.062909 1.516644 0.087151
v 0.086914 1.516603 0.063147
v 0.076958 1.514886 -0.048540
v 0.051430 1.514388 -0.074068
v -0.019845 1.838434 0.013740
v -0.013280 1.838514 0.020305
v -0.006364 1.899762 0.006364
v -0.019298 1.838340 -0.012938
v -0.006364 1.899762 -0.006364
v -0.012976 1.838334 -0.019261
v 0.013540 1.838400 -0.019645
v 0.006365 1.899762 -0.006364
v 0.020105 1.838479 -0.013080
v 0.021691 1.838753 0.015406
v 0.006365 1.899762 0.006364
v 0.015368 1.838759 0.021728
v -0.095281 0.433650 0.066777
v -0.068756 0.433650 0.093301
v -0.053598 0.867299 0.079127
v -0.078094 0.867299 0.054631
v -0.059633 1.300949 0.080688
v -0.085539 1.300949 0.054783
v -0.067789 1.300949 -0.094613
v -0.094488 1.300949 -0.067914
v -0.051113 0.867299 -0.072779
v -0.074514 0.867299 -0.049378
v -0.061107 0.433650 -0.089402
v -0.090600 0.433650 -0.059909
v 0.081347 1.300949 -0.060291
v 0.055441 1.300949 -0.086197
v 0.069964 0.867299 -0.044435
v 0.045468 0.867299 -0.068931
v 0.086975 0.433650 -0.062430
v 0.060451 0.433650 -0.088954
v 0.042303 1.300949 0.068877
v 0.069002 1.300949 0.042178
v 0.054833 0.867299 0.079968
v 0.078233 0.867299 0.056568
v 0.049458 0.433650 0.080149
v 0.078951 0.433650 0.050656
v -0.027270 -0.004895 0.027270
v -0.029622 0.008102 0.045004
v -0.043816 0.000261 0.030809
v -0.047882 0.080104 0.083724
v -0.052136 0.141052 0.087217
v -0.075286 0.068100 0.059767
v -0.042038 0.050882 0.071363
v -0.065716 0.038072 0.051133
v -0.060100 0.026301 0.045958
v -0.030379 -0.028398 -0.044574
v -0.027270 -0.025849 -0.027270
v -0.044430 -0.027690 -0.030298
v -0.072745 0.026000 -0.047169
v -0.050085 0.022249 -0.071242
v -0.043686 -0.018354 -0.064099
v -0.063341 -0.014617 -0.043256
v -0.068553 -0.005582 -0.046424
v -0.047319 -0.009916 -0.069071
v 0.030523 0.013711 0.044655
v 0.027270 -0.000927 0.027270
v 0.044574 0.013003 0.030379
v 0.063181 0.113432 0.088104
v 0.088773 0.114857 0.067617
v 0.063461 0.168771 0.089852
v 0.068660 0.081663 0.046795
v 0.047696 0.086108 0.069172
v 0.044574 0.004365 -0.030379
v 0.027270 -0.004895 -0.027270
v 0.030379 -0.003476 -0.044574
v 0.044368 0.048297 -0.067345
v 0.070665 0.065835 -0.041047
v 0.043686 0.006567 -0.064099
v 0.046409 0.015184 -0.068451
v 0.068660 0.027411 -0.046795
vn -0.9145 0.1285 0.3837
vn -0.3929 0.1024 0.9139
vn -0.3744 0.1529 -0.9146
vn -0.9138 0.1516 -0.3768
vn 0.3815 0.0699 0.9217
vn 0.9226 0.0706 0.3793
vn 0.9128 0.1052 -0.3945
vn 0.3853 0.1317 -0.9134
vn -0.9078 0.2182 0.3582
vn -0.3970 0.2268 0.8893
vn -0.5285 0.6865 0.4995
vn -0.9001 0.2084 -0.3826
vn -0.5172 0.6800 -0.5197
vn -0.3792 0.2077 -0.9017
vn 0.3619 0.2146 -0.9072
vn 0.5010 0.6842 -0.5300
vn 0.8887 0.2231 -0.4005
vn 0.9074 0.2514 0.3367
vn 0.5012 0.7072 0.4988
vn 0.3401 0.2522 0.9059
vn -0.9278 -0.0043 0.3730
vn -0.3651 0.0048 0.9309
vn -0.3540 0.0172 0.9351
vn -0.9252 0.0117 0.3792
vn -0.3734 0.0012 0.9277
vn -0.9198 0.0195 0.3919
vn -0.3706 0.0310 -0.9283
vn -0.9246 0.0331 -0.3794
vn -0.3622 -0.0059 -0.9321
vn -0.9241 -0.0033 -0.3822
vn -0.3775 -0.0043 -0.9260
vn -0.9190 -0.0050 -0.3943
vn 0.9236 -0.0064 -0.3833
vn 0.4015 0.0121 -0.9158
vn 0.9277 0.0086 -0.3731
vn 0.3980 0.0028 -0.9174
vn 0.9185 -0.0014 -0.3955
vn 0.4003 -0.0056 -0.9164
vn 0.3899 -0.0304 0.9203
vn 0.9240 -0.0328 0.3811
vn 0.4100 0.0153 0.9120
vn 0.9203 0.0132 0.3910
vn 0.4038 0.0204 0.9146
vn 0.9316 0.0163 0.3631
vn 0.0255 -0.8932 0.4489
vn -0.0779 -0.6388 0.7654
vn -0.4048 -0.7649 0.5010
vn -0.2706 -0.2755 0.9224
vn -0.3666 -0.0430 0.9294
vn -0.8637 -0.2140 0.4564
vn -0.1558 -0.4760 0.8655
vn -0.7506 -0.4244 0.5065
vn -0.6161 -0.5744 0.5390
vn 0.0842 -0.9758 -0.2019
vn 0.1529 -0.9676 0.2007
vn -0.3664 -0.9189 0.1460
vn -0.9313 -0.1297 -0.3404
vn -0.3888 -0.0623 -0.9192
vn -0.1962 -0.7670 -0.6109
vn -0.7139 -0.6945 -0.0901
vn -0.8902 -0.3752 -0.2585
vn -0.3618 -0.3434 -0.8667
vn 0.3402 -0.5744 0.7445
vn 0.3288 -0.8732 0.3597
vn 0.7048 -0.6018 0.3755
vn 0.3466 -0.3053 0.8870
vn 0.8774 -0.2435 0.4133
vn 0.3904 0.0170 0.9205
vn 0.8041 -0.4591 0.3778
vn 0.3596 -0.5232 0.7726
vn 0.6835 -0.7273 0.0619
vn 0.4060 -0.9092 0.0919
vn 0.4358 -0.8836 -0.1713
vn 0.3805 -0.0090 -0.9247
vn 0.9282 -0.1347 -0.3469
vn 0.4655 -0.6972 -0.5452
vn 0.4483 -0.2490 -0.8585
vn 0.8946 -0.3477 -0.2809
vt 0.625000 0.038832
vt 0.625000 0.000000
vt 0.625000 0.039807
vt 0.625000 0.211039
vt 0.625000 0.236731
vt 0.625000 0.279218
vt 0.625000 0.461132
vt 0.644903 0.500000
vt 0.625000 0.529200
vt 0.625000 0.711513
vt 0.644904 0.730097
vt 0.625000 0.777976
vt 0.207494 0.667156
vt 0.202315 0.695410
vt 0.179510 0.672832
vt 0.380338 0.003049
vt 0.388466 0.000117
vt 0.380801 0.039807
vt 0.375051 0.018258
vt 0.375900 0.052703
vt 0.375000 0.063692
vt 0.202379 0.553936
vt 0.207771 0.582771
vt 0.179287 0.576952
vt 0.177585 0.517100
vt 0.146211 0.546817
vt 0.139996 0.535181
vt 0.173581 0.508442
vt 0.298193 0.696870
vt 0.292480 0.667480
vt 0.322715 0.673302
vt 0.379177 0.788150
vt 0.380801 0.710193
vt 0.387727 0.789738
vt 0.320212 0.576659
vt 0.292156 0.582494
vt 0.297991 0.554268
vt 0.326084 0.514683
vt 0.353735 0.484413
vt 0.367638 0.538035
vt 0.625000 0.960193
vt 0.625000 0.961102
vt 0.625000 0.039807
vt 0.625000 0.289807
vt 0.625000 0.210193
vt 0.625000 0.710193
vt 0.625000 0.789807
vt 0.625000 0.539807
vt 0.625000 0.460193
vt 0.424966 0.000000
vt 0.475000 0.000000
vt 0.475000 0.039807
vt 0.425000 0.039807
vt 0.525196 0.000000
vt 0.525000 0.039807
vt 0.525000 0.289807
vt 0.525000 0.210193
vt 0.475000 0.289807
vt 0.475000 0.210193
vt 0.425000 0.289807
vt 0.425000 0.210193
vt 0.525000 0.539807
vt 0.525000 0.460193
vt 0.475000 0.539807
vt 0.475000 0.460193
vt 0.425000 0.539807
vt 0.425000 0.460193
vt 0.525000 0.789807
vt 0.525000 0.710193
vt 0.475000 0.789807
vt 0.475000 0.710193
vt 0.425000 0.789807
vt 0.425000 0.710193
vt 0.171817 0.741523
vt 0.142805 0.697998
vt 0.134210 0.709587
vt 0.380801 0.289807
vt 0.375309 0.290421
vt 0.375918 0.212630
vt 0.380801 0.210193
vt 0.380801 0.539807
vt 0.380801 0.460193
vt 0.351958 0.763832
vt 0.370395 0.707055
vt 0.387865 0.960209
vt 0.379710 0.957264
vt 0.525000 0.960193
vt 0.835193 0.539807
vt 0.835193 0.710193
vt 0.475000 0.960193
vt 0.425000 0.960193
vt 0.374267 0.943973
s 1
f 9/1/9 10/2/10 11/3/11
f 12/4/12 13/5/13 14/6/14
f 15/7/15 16/8/16 17/9/17
f 18/10/18 19/11/19 20/12/20
f 45/13/45 46/14/46 47/15/47
f 48/16/48 49/17/49 50/18/50
f 51/19/51 52/20/52 53/21/53
f 54/22/54 55/23/55 56/24/56
f 59/25/59 60/26/60 61/27/61 62/28/62
f 63/29/63 64/30/64 65/31/65
f 66/32/66 67/33/67 68/34/68
f 71/35/71 72/36/72 73/37/73
f 76/38/76 77/39/77 78/40/78
f 11/3/11 13/5/13 12/4/12 9/1/9
f 13/5/13 16/8/16 15/7/15 14/6/14
f 16/8/16 19/11/19 18/10/18 17/9/17
f 19/11/19 11/41/11 10/42/10 20/12/20
f 2/2/2 10/2/10 9/1/9 1/43/1
f 14/6/14 3/44/3 4/45/4 12/4/12
f 6/46/6 18/10/18 20/12/20 5/47/5
f 17/9/17 7/48/7 8/49/8 15/7/15
f 22/50/22 23/51/23 24/52/24 21/53/21
f 23/51/23 25/54/25 26/55/26 24/52/24
f 25/54/25 2/2/2 1/43/1 26/55/26
f 3/44/3 27/56/27 28/57/28 4/45/4
f 27/56/27 29/58/29 30/59/30 28/57/28
f 29/58/29 31/60/31 32/61/32 30/59/30
f 7/48/7 33/62/33 34/63/34 8/49/8
f 33/62/33 35/64/35 36/65/36 34/63/34
f 35/64/35 37/66/37 38/67/38 36/65/36
f 5/47/5 39/68/39 40/69/40 6/46/6
f 39/68/39 41/70/41 42/71/42 40/69/40
f 41/70/41 43/72/43 44/73/44 42/71/42
f 59/25/59 54/22/54 56/24/56 60/26/60
f 55/23/55 45/13/45 47/15/47 56/24/56
f 46/14/46 51/74/51 53/75/53 47/15/47
f 52/76/52 61/27/61 60/26/60 53/75/53
f 58/77/58 62/78/62 61/79/61 57/80/57
f 51/19/51 48/16/48 50/18/50 52/20/52
f 78/40/78 71/35/71 73/37/73 76/38/76
f 72/36/72 55/23/55 54/22/54 73/37/73
f 62/28/62 77/39/77 76/38/76 59/25/59
f 75/81/75 78/40/78 77/39/77 74/82/74
f 70/83/70 63/29/63 65/31/65 69/84/69
f 64/30/64 72/36/72 71/35/71 65/31/65
f 66/32/66 70/83/70 69/84/69 67/33/67
f 45/13/45 64/30/64 63/29/63 46/14/46
f 68/34/68 49/85/49 48/86/48 66/32/66
f 49/17/49 22/50/22 21/53/21 50/18/50
f 31/60/31 58/77/58 57/80/57 32/61/32
f 67/33/67 44/73/44 43/72/43 68/34/68
f 37/66/37 75/81/75 74/82/74 38/67/38
f 4/45/4 1/43/1 9/1/9 12/4/12
f 39/68/39 5/47/5 2/41/2 25/87/25
f 26/55/26 1/43/1 4/45/4 28/57/28
f 2/41/2 5/47/5 20/12/20 10/42/10
f 27/56/27 3/44/3 8/49/8 34/63/34
f 8/49/8 3/44/3 14/6/14 15/7/15
f 6/46/6 7/48/7 17/9/17 18/10/18
f 33/62/33 7/48/7 6/46/6 40/69/40
f 16/8/16 13/88/13 11/89/11 19/11/19
f 21/53/21 24/52/24 30/59/30 32/61/32
f 43/72/43 41/70/41 23/90/23 22/91/22
f 50/18/50 21/53/21 32/61/32 57/80/57
f 68/34/68 43/72/43 22/91/22 49/85/49
f 24/52/24 26/55/26 28/57/28 30/59/30
f 41/70/41 39/68/39 25/87/25 23/90/23
f 29/58/29 27/56/27 34/63/34 36/65/36
f 31/60/31 29/58/29 36/65/36 38/67/38
f 58/77/58 31/60/31 38/67/38 74/82/74
f 35/64/35 33/62/33 40/69/40 42/71/42
f 37/66/37 35/64/35 42/71/42 44/73/44
f 75/81/75 37/66/37 44/73/44 67/33/67
f 55/23/55 72/36/72 64/30/64 45/13/45
f 56/24/56 47/15/47 53/75/53 60/26/60
f 46/14/46 63/29/63 70/83/70 51/74/51
f 51/92/51 70/83/70 66/32/66 48/86/48
f 61/79/61 52/20/52 50/18/50 57/80/57
f 73/37/73 54/22/54 59/25/59 76/38/76
f 77/39/77 62/78/62 58/77/58 74/82/74
f 65/31/65 71/35/71 78/40/78 69/84/69
f 69/84/69 78/40/78 75/81/75 67/33/67
