# Blender 5.1.1
# www.blender.org
o sh_timber_03
v 0.004081 0.433993 0.040027
v 0.023852 0.846402 0.041837
v 0.027201 1.292359 0.038452
v 0.007903 1.730433 0.045061
v -0.024989 0.449288 -0.041292
v 0.015266 0.859067 -0.043974
v 0.026433 1.276446 -0.042336
v 0.002670 1.701603 -0.050147
v -0.010529 0.024925 -0.034479
v -0.007700 0.051426 -0.044658
v 0.004439 0.020667 0.034382
v -0.014258 0.055738 0.048921
v -0.004568 2.111273 -0.043769
v 0.008533 2.135467 0.038478
v -0.018595 2.106249 0.041191
v -0.099511 0.433650 0.028368
v -0.081874 0.433704 0.042095
v -0.066289 0.855278 0.040926
v -0.083797 0.856959 0.027326
v -0.053645 1.280803 0.039701
v -0.069432 1.278614 0.026451
v -0.074179 1.725192 0.043778
v -0.090393 1.724210 0.029126
v -0.093258 1.724252 -0.032552
v -0.078547 1.720654 -0.047468
v -0.056283 1.278269 -0.044377
v -0.071472 1.278614 -0.031276
v -0.069963 0.857295 -0.043640
v -0.085667 0.856959 -0.030149
v -0.093680 0.436140 -0.045403
v -0.105329 0.433650 -0.032063
v 0.092763 1.720651 -0.044027
v 0.109749 1.724241 -0.029520
v 0.123285 1.278614 -0.030318
v 0.108166 1.278269 -0.043257
v 0.113951 0.856961 -0.030890
v 0.098464 0.857296 -0.044644
v 0.095394 0.433650 -0.027706
v 0.075721 0.436140 -0.041074
v 0.109423 1.724165 0.027611
v 0.093194 1.725148 0.041612
v 0.106387 1.280803 0.038847
v 0.121743 1.278614 0.025809
v 0.098406 0.855280 0.042314
v 0.112796 0.856961 0.028523
v 0.083518 0.433704 0.042244
v 0.097962 0.433650 0.029337
v -0.046536 0.000026 0.024959
v -0.049964 -0.001819 0.014605
v -0.083438 0.052176 0.042924
v -0.097506 0.051169 0.028062
v -0.074120 0.011197 0.037864
v -0.089309 0.017543 0.026994
v -0.081739 0.009106 0.024852
v -0.047194 -0.003126 -0.023452
v -0.050758 -0.007062 -0.015109
v -0.101646 0.049746 -0.030691
v -0.087500 0.049734 -0.044455
v -0.077402 0.014647 -0.022097
v -0.085505 0.023692 -0.024578
v -0.069954 0.021230 -0.035045
v 0.046434 0.005713 0.024424
v 0.048840 0.005600 0.014311
v 0.103515 0.049104 0.031730
v 0.086139 0.049687 0.046058
v 0.079484 0.013253 0.023524
v 0.088190 0.020180 0.026298
v 0.072539 0.015474 0.036568
v 0.046028 0.002753 -0.023217
v 0.049415 0.001807 -0.014676
v 0.078535 0.051972 -0.041636
v 0.096504 0.051513 -0.027278
v 0.079042 0.013411 -0.023243
v 0.069373 0.017270 -0.036244
v 0.086540 0.021325 -0.025250
v -0.040320 2.167442 0.021400
v -0.035410 2.171482 0.012599
v -0.050056 2.169056 0.014707
v -0.102613 2.112314 0.029836
v -0.088712 2.111167 0.043696
v -0.076681 2.154380 0.022488
v -0.086040 2.144799 0.025187
v -0.068168 2.148237 0.036222
v -0.036971 2.173205 -0.013055
v -0.042799 2.170146 -0.021819
v -0.050409 2.170655 -0.014931
v -0.089764 2.113108 -0.045522
v -0.105277 2.113239 -0.031520
v -0.071649 2.151873 -0.036446
v -0.087208 2.146010 -0.025928
v -0.077466 2.155709 -0.022987
v 0.044349 2.167834 0.021675
v 0.043417 2.169721 0.012968
v 0.085529 2.112081 0.044840
v 0.104170 2.112816 0.031497
v 0.075504 2.154835 0.038221
v 0.089481 2.149441 0.027431
v 0.079808 2.158502 0.024480
v 0.042482 2.163545 -0.012374
v 0.040084 2.160372 -0.020944
v 0.099555 2.111234 -0.028575
v 0.082069 2.110929 -0.042794
v 0.060491 2.148467 -0.031990
v 0.074304 2.149869 -0.020985
v 0.083391 2.141540 -0.023564
v 0.067936 2.140152 -0.035880
v -0.001951 -0.000100 -0.019836
v 0.000266 -0.005658 -0.009947
v 0.003560 -0.005103 0.028701
v 0.002801 -0.009165 0.020509
v -0.002179 2.165485 -0.021623
v 0.000612 2.168227 -0.013085
v -0.005653 2.151713 -0.034018
v -0.006162 2.142569 -0.038005
v -0.010863 2.148724 -0.036882
v 0.010656 2.160897 0.020175
v 0.009080 2.166189 0.011067
vn -0.0077 0.0069 0.9999
vn -0.0040 0.0024 1.0000
vn 0.0044 -0.0030 1.0000
vn 0.0061 -0.0037 1.0000
vn 0.0164 -0.0007 -0.9999
vn 0.0051 -0.0015 -1.0000
vn 0.0067 -0.0040 -1.0000
vn 0.0146 -0.0017 -0.9999
vn 0.0114 -0.3875 -0.9218
vn 0.0138 -0.1413 -0.9899
vn 0.0080 -0.3759 0.9266
vn -0.0073 -0.1260 0.9920
vn 0.0181 0.1084 -0.9939
vn -0.0291 0.3385 0.9405
vn 0.0036 0.0685 0.9976
vn -0.8907 0.0160 0.4543
vn -0.3488 0.0101 0.9371
vn -0.3257 0.0136 0.9454
vn -0.8885 0.0335 0.4576
vn -0.3342 -0.0062 0.9425
vn -0.8960 -0.0068 0.4440
vn -0.3582 -0.0180 0.9335
vn -0.9047 -0.0379 0.4243
vn -0.9268 -0.0363 -0.3737
vn -0.3748 -0.0153 -0.9270
vn -0.3492 -0.0078 -0.9370
vn -0.9194 -0.0090 -0.3932
vn -0.3525 0.0150 -0.9357
vn -0.9252 0.0373 -0.3777
vn -0.3815 0.0095 -0.9243
vn -0.9395 0.0157 -0.3421
vn 0.3585 0.0118 -0.9334
vn 0.9038 0.0246 -0.4272
vn 0.9143 0.0043 -0.4050
vn 0.3591 0.0009 -0.9333
vn 0.9046 -0.0305 -0.4252
vn 0.3355 -0.0141 -0.9419
vn 0.8826 -0.0171 -0.4699
vn 0.3156 -0.0094 -0.9488
vn 0.9061 0.0187 0.4226
vn 0.3396 0.0020 0.9406
vn 0.3601 0.0022 0.9329
vn 0.9088 0.0034 0.4171
vn 0.3584 -0.0068 0.9335
vn 0.9137 -0.0249 0.4057
vn 0.3490 0.0014 0.9371
vn 0.9210 -0.0114 0.3893
vn -0.1155 -0.7946 0.5961
vn -0.2562 -0.9576 0.1320
vn -0.3821 -0.1178 0.9166
vn -0.8969 -0.1627 0.4112
vn -0.3071 -0.5784 0.7558
vn -0.8205 -0.4782 0.3131
vn -0.5639 -0.8119 0.1514
vn -0.0935 -0.7061 -0.7019
vn -0.2631 -0.9297 -0.2578
vn -0.9047 -0.2406 -0.3516
vn -0.3851 -0.2411 -0.8908
vn -0.5751 -0.7401 -0.3486
vn -0.7433 -0.5623 -0.3623
vn -0.2603 -0.5283 -0.8082
vn 0.1853 -0.8202 0.5413
vn 0.2635 -0.9590 0.1048
vn 0.9044 -0.2139 0.3692
vn 0.3556 -0.1952 0.9140
vn 0.4616 -0.8734 0.1552
vn 0.7514 -0.5886 0.2984
vn 0.2589 -0.6584 0.7067
vn 0.0838 -0.8075 -0.5839
vn 0.2369 -0.9580 -0.1617
vn 0.3343 -0.1278 -0.9338
vn 0.8651 -0.1698 -0.4720
vn 0.4926 -0.8339 -0.2489
vn 0.2684 -0.5523 -0.7893
vn 0.7543 -0.5108 -0.4125
vn -0.0269 0.7822 0.6225
vn 0.0111 0.9690 0.2470
vn -0.3005 0.9149 0.2696
vn -0.8839 0.2242 0.4105
vn -0.3834 0.1584 0.9099
vn -0.5254 0.7905 0.3147
vn -0.7296 0.5750 0.3703
vn -0.2290 0.5114 0.8282
vn -0.0002 0.9917 -0.1287
vn -0.0722 0.8427 -0.5335
vn -0.3259 0.9342 -0.1448
vn -0.3905 0.1797 -0.9029
vn -0.9048 0.2265 -0.3606
vn -0.2820 0.5732 -0.7694
vn -0.7529 0.5854 -0.3009
vn -0.5527 0.8089 -0.2005
vn -0.0241 0.8434 0.5367
vn 0.1095 0.9912 0.0745
vn 0.3296 0.1160 0.9370
vn 0.8985 0.2012 0.3901
vn 0.2653 0.5901 0.7625
vn 0.7844 0.5563 0.2743
vn 0.4870 0.8714 0.0596
vn 0.1964 0.9434 -0.2672
vn 0.1463 0.8337 -0.5325
vn 0.8654 0.2282 -0.4461
vn 0.3645 0.1826 -0.9131
vn 0.2080 0.6744 -0.7085
vn 0.4675 0.7944 -0.3878
vn 0.6993 0.5674 -0.4347
vn 0.2842 0.4495 -0.8469
vn 0.0395 -0.7511 -0.6590
vn 0.0785 -0.9802 -0.1818
vn 0.0652 -0.7759 0.6274
vn 0.0762 -0.9838 0.1620
vn 0.0893 0.8166 -0.5702
vn 0.1008 0.9773 -0.1862
vn 0.0845 0.5609 -0.8236
vn 0.0544 0.2806 -0.9583
vn 0.0928 0.4181 -0.9036
vn -0.0427 0.7558 0.6534
vn 0.0290 0.9777 0.2082
vt 0.375000 0.022225
vt 0.375932 0.052669
vt 0.375000 0.062177
vt 0.142780 0.551823
vt 0.134210 0.541282
vt 0.149748 0.511968
vt 0.359567 0.708068
vt 0.371440 0.717190
vt 0.359260 0.752697
vt 0.361109 0.549186
vt 0.359450 0.500214
vt 0.371634 0.541906
vt 0.625000 0.783370
vt 0.625000 0.715035
vt 0.625000 0.736387
vt 0.625000 0.861202
vt 0.624658 0.967148
vt 0.625000 0.948194
vt 0.625000 0.535221
vt 0.625000 0.462784
vt 0.625000 0.511234
vt 0.625000 0.289045
vt 0.624039 0.238535
vt 0.625000 0.328518
vt 0.625000 0.767144
vt 0.623942 0.710686
vt 0.625000 0.705246
vt 0.625000 0.490822
vt 0.625000 0.544916
vt 0.623984 0.538945
vt 0.623970 0.481838
vt 0.625000 0.406355
vt 0.624218 0.378883
vt 0.625000 0.378897
vt 0.425036 0.000000
vt 0.474936 0.000000
vt 0.475000 0.039807
vt 0.425000 0.039807
vt 0.525082 0.000000
vt 0.525000 0.039807
vt 0.575000 0.000000
vt 0.575000 0.039807
vt 0.575000 0.269903
vt 0.525000 0.269903
vt 0.525000 0.210193
vt 0.575000 0.210193
vt 0.475000 0.269903
vt 0.475000 0.210193
vt 0.425000 0.269903
vt 0.425000 0.210193
vt 0.575000 0.539807
vt 0.525000 0.539807
vt 0.525000 0.480097
vt 0.575000 0.480097
vt 0.475000 0.539807
vt 0.475000 0.480097
vt 0.425000 0.539807
vt 0.425000 0.480097
vt 0.575000 0.769903
vt 0.525000 0.769903
vt 0.525000 0.710193
vt 0.575000 0.710193
vt 0.475000 0.769904
vt 0.475000 0.710193
vt 0.425000 0.769903
vt 0.425000 0.710193
vt 0.191869 0.554340
vt 0.187890 0.582669
vt 0.191179 0.693952
vt 0.153014 0.741157
vt 0.142753 0.698108
vt 0.187890 0.667331
vt 0.134210 0.702106
vt 0.380801 0.269903
vt 0.374633 0.270270
vt 0.375901 0.213077
vt 0.380801 0.210193
vt 0.380732 0.000334
vt 0.380801 0.039807
vt 0.312110 0.582669
vt 0.309652 0.555510
vt 0.250000 0.582669
vt 0.250367 0.553976
vt 0.380801 0.539807
vt 0.380801 0.480097
vt 0.309282 0.692846
vt 0.312110 0.667331
vt 0.380801 0.769903
vt 0.380801 0.710193
vt 0.250000 0.667331
vt 0.250367 0.696024
vt 0.623961 0.056463
vt 0.625000 0.066815
vt 0.618450 0.980096
vt 0.618648 0.998955
vt 0.618450 0.269903
vt 0.618450 0.210193
vt 0.625000 0.551403
vt 0.625000 0.570260
vt 0.625000 0.529835
vt 0.625000 0.496057
vt 0.618450 0.539807
vt 0.618450 0.480097
vt 0.625000 0.718984
vt 0.625000 0.679740
vt 0.618450 0.769903
vt 0.618450 0.710193
vt 0.625000 0.698597
vt 0.625000 0.752838
vt 0.575001 1.000000
vt 0.575000 0.980097
vt 0.425000 0.875000
vt 0.475000 0.875000
vt 0.475000 0.980097
vt 0.425000 0.980096
vt 0.380801 0.875000
vt 0.380801 0.980097
vt 0.525000 0.875000
vt 0.525000 0.980097
vt 0.575000 0.875000
vt 0.618450 0.039807
vt 0.618450 0.875000
vt 0.575000 0.375000
vt 0.525000 0.375000
vt 0.618450 0.375000
vt 0.475000 0.375000
vt 0.425000 0.375000
vt 0.380801 0.375000
vt 0.252302 0.743093
vt 0.374633 0.962776
vt 0.372698 0.863488
vt 0.252302 0.506907
vt 0.372698 0.377303
vt 0.625000 0.857669
s 1
f 52/1/52 53/2/53 54/3/54
f 59/4/59 60/5/60 61/6/61
f 66/7/66 67/8/67 68/9/68
f 73/10/73 74/11/74 75/12/75
f 76/13/76 77/14/77 78/15/78
f 81/16/81 82/17/82 83/18/83
f 84/19/84 85/20/85 86/21/86
f 89/22/89 90/23/90 91/24/91
f 96/25/96 97/26/97 98/27/98
f 103/28/103 104/29/104 105/30/105 106/31/106
f 113/32/113 114/33/114 115/34/115
f 17/35/17 18/36/18 19/37/19 16/38/16
f 18/36/18 20/39/20 21/40/21 19/37/19
f 20/39/20 22/41/22 23/42/23 21/40/21
f 25/43/25 26/44/26 27/45/27 24/46/24
f 26/44/26 28/47/28 29/48/29 27/45/27
f 28/47/28 30/49/30 31/50/31 29/48/29
f 33/51/33 34/52/34 35/53/35 32/54/32
f 34/52/34 36/55/36 37/56/37 35/53/35
f 36/55/36 38/57/38 39/58/39 37/56/37
f 41/59/41 42/60/42 43/61/43 40/62/40
f 42/60/42 44/63/44 45/64/45 43/61/43
f 44/63/44 46/65/46 47/66/47 45/64/45
f 61/6/61 55/67/55 56/68/56 59/4/59
f 48/69/48 52/70/52 54/71/54 49/72/49
f 53/73/53 60/5/60 59/4/59 54/71/54
f 58/74/58 61/75/61 60/76/60 57/77/57
f 52/1/52 50/78/50 51/79/51 53/2/53
f 73/10/73 70/80/70 69/81/69 74/11/74
f 108/82/108 56/68/56 55/67/55 107/83/107
f 72/84/72 75/12/75 74/11/74 71/85/71
f 68/9/68 62/86/62 63/87/63 66/7/66
f 75/12/75 67/8/67 66/7/66 73/10/73
f 65/88/65 68/9/68 67/8/67 64/89/64
f 110/90/110 63/87/63 62/86/62 109/91/109
f 50/78/50 17/35/17 16/38/16 51/79/51
f 30/49/30 58/74/58 57/77/57 31/50/31
f 64/89/64 47/66/47 46/65/46 65/88/65
f 38/57/38 72/84/72 71/85/71 39/58/39
f 83/18/83 76/13/76 78/15/78 81/16/81
f 77/14/77 84/19/84 86/21/86 78/15/78
f 85/20/85 89/22/89 91/24/91 86/21/86
f 90/23/90 82/92/82 81/93/81 91/24/91
f 80/94/80 83/18/83 82/17/82 79/95/79
f 89/22/89 87/96/87 88/97/88 90/23/90
f 112/98/112 99/99/99 100/100/100 111/101/111
f 99/99/99 104/29/104 103/28/103 100/100/100
f 105/30/105 101/102/101 102/103/102 106/31/106
f 92/104/92 96/25/96 98/27/98 93/105/93
f 97/26/97 105/30/105 104/29/104 98/27/98
f 96/25/96 94/106/94 95/107/95 97/26/97
f 117/108/117 77/14/77 76/13/76 116/109/116
f 40/62/40 95/107/95 94/106/94 41/59/41
f 79/95/79 23/110/23 22/111/22 80/94/80
f 87/96/87 25/43/25 24/46/24 88/97/88
f 101/102/101 33/51/33 32/54/32 102/103/102
f 70/80/70 108/82/108 107/83/107 69/81/69
f 49/72/49 110/90/110 109/91/109 48/69/48
f 84/19/84 112/98/112 111/101/111 85/20/85
f 106/31/106 114/33/114 113/32/113 103/28/103
f 93/105/93 117/108/117 116/109/116 92/104/92
f 16/38/16 19/37/19 29/48/29 31/50/31
f 1/112/1 2/113/2 18/114/18 17/115/17
f 51/79/51 16/38/16 31/50/31 57/77/57
f 12/116/12 1/112/1 17/115/17 50/117/50
f 19/37/19 21/40/21 27/45/27 29/48/29
f 2/113/2 3/118/3 20/119/20 18/114/18
f 21/40/21 23/42/23 24/46/24 27/45/27
f 3/118/3 4/120/4 22/111/22 20/119/20
f 23/42/23 79/121/79 88/97/88 24/46/24
f 4/120/4 15/122/15 80/94/80 22/111/22
f 26/44/26 25/43/25 8/123/8 7/124/7
f 25/43/25 87/96/87 13/125/13 8/123/8
f 28/47/28 26/44/26 7/124/7 6/126/6
f 30/49/30 28/47/28 6/126/6 5/127/5
f 58/74/58 30/49/30 5/127/5 10/128/10
f 7/124/7 8/123/8 32/54/32 35/53/35
f 34/52/34 33/51/33 40/62/40 43/61/43
f 8/123/8 13/125/13 102/103/102 32/54/32
f 33/51/33 101/102/101 95/107/95 40/62/40
f 6/126/6 7/124/7 35/53/35 37/56/37
f 36/55/36 34/52/34 43/61/43 45/64/45
f 5/127/5 6/126/6 37/56/37 39/58/39
f 38/57/38 36/55/36 45/64/45 47/66/47
f 10/128/10 5/127/5 39/58/39 71/85/71
f 72/84/72 38/57/38 47/66/47 64/89/64
f 42/60/42 41/59/41 4/120/4 3/118/3
f 41/59/41 94/106/94 15/122/15 4/120/4
f 44/63/44 42/60/42 3/118/3 2/113/2
f 46/65/46 44/63/44 2/113/2 1/112/1
f 65/88/65 46/65/46 1/112/1 12/116/12
f 56/68/56 108/82/108 110/90/110 49/72/49
f 56/68/56 49/72/49 54/71/54 59/4/59
f 48/69/48 109/91/109 11/129/11 52/70/52
f 52/130/52 11/131/11 12/116/12 50/117/50
f 60/76/60 53/2/53 51/79/51 57/77/57
f 107/83/107 55/67/55 61/6/61 9/132/9
f 9/133/9 61/75/61 58/74/58 10/128/10
f 109/91/109 62/86/62 68/9/68 11/129/11
f 63/87/63 70/80/70 73/10/73 66/7/66
f 108/82/108 70/80/70 63/87/63 110/90/110
f 11/131/11 68/9/68 65/88/65 12/116/12
f 67/8/67 75/12/75 72/84/72 64/89/64
f 69/81/69 107/83/107 9/132/9 74/11/74
f 74/11/74 9/133/9 10/128/10 71/85/71
f 116/109/116 76/13/76 83/18/83 14/134/14
f 78/15/78 86/21/86 91/24/91 81/16/81
f 77/14/77 117/108/117 112/98/112 84/19/84
f 14/134/14 83/18/83 80/94/80 15/122/15
f 82/92/82 90/23/90 88/97/88 79/121/79
f 85/20/85 111/101/111 113/32/113 115/34/115 89/22/89
f 89/22/89 115/34/115 114/33/114 13/125/13 87/96/87
f 117/108/117 93/105/93 99/99/99 112/98/112
f 99/99/99 93/105/93 98/27/98 104/29/104
f 92/104/92 116/109/116 14/134/14 96/25/96
f 96/25/96 14/134/14 15/122/15 94/106/94
f 105/30/105 97/26/97 95/107/95 101/102/101
f 111/101/111 100/100/100 103/28/103 113/32/113
f 114/33/114 106/31/106 102/103/102 13/125/13
